<svg width="1440" height="393" viewBox="0 0 1440 393" fill="none" xmlns="http://www.w3.org/2000/svg">
<g clip-path="url(#clip0_38_403)">
<rect width="1440" height="393" fill="white"/>
<path d="M127 246C127 279.682 113.62 311.985 89.8026 335.803C65.9855 359.62 33.6826 373 0.00018016 373L0 246L127 246Z" fill="#D6E6FE"/>
<path d="M58.4868 228.454C58.4868 243.966 52.3248 258.842 41.3564 269.81C30.388 280.779 15.5116 286.941 -2.74003e-05 286.941L-2.67029e-05 228.454L58.4868 228.454Z" fill="#E9EFFE"/>
<mask id="path-3-inside-1_38_403" fill="white">
<path d="M-1.25324 174.98C5.27527 174.98 11.7399 176.266 17.7714 178.765C23.803 181.263 29.2834 184.925 33.8997 189.541C38.5161 194.158 42.178 199.638 44.6763 205.669C47.1747 211.701 48.4606 218.166 48.4606 224.694C48.4606 231.223 47.1747 237.687 44.6763 243.719C42.178 249.75 38.5161 255.231 33.8997 259.847C29.2834 264.463 23.8029 268.125 17.7714 270.624C11.7398 273.122 5.27524 274.408 -1.25327 274.408L-1.25325 224.694L-1.25324 174.98Z"/>
</mask>
<path d="M-1.25324 174.98C5.27527 174.98 11.7399 176.266 17.7714 178.765C23.803 181.263 29.2834 184.925 33.8997 189.541C38.5161 194.158 42.178 199.638 44.6763 205.669C47.1747 211.701 48.4606 218.166 48.4606 224.694C48.4606 231.223 47.1747 237.687 44.6763 243.719C42.178 249.75 38.5161 255.231 33.8997 259.847C29.2834 264.463 23.8029 268.125 17.7714 270.624C11.7398 273.122 5.27524 274.408 -1.25327 274.408L-1.25325 224.694L-1.25324 174.98Z" stroke="#0066FF" stroke-width="10" mask="url(#path-3-inside-1_38_403)"/>
<mask id="path-4-inside-2_38_403" fill="white">
<path d="M-1.25323 140.724C15.3545 140.724 31.5894 145.649 45.3982 154.875C59.2071 164.102 69.9698 177.216 76.3253 192.56C82.6808 207.904 84.3437 224.787 81.1037 241.076C77.8637 257.365 69.8663 272.327 58.1228 284.07C46.3793 295.814 31.4172 303.811 15.1286 307.051C-1.1601 310.291 -18.0437 308.628 -33.3873 302.273C-48.7309 295.917 -61.8453 285.154 -71.0721 271.346C-80.2989 257.537 -85.2236 241.302 -85.2236 224.694L-1.25323 224.694L-1.25323 140.724Z"/>
</mask>
<path d="M-1.25323 140.724C15.3545 140.724 31.5894 145.649 45.3982 154.875C59.2071 164.102 69.9698 177.216 76.3253 192.56C82.6808 207.904 84.3437 224.787 81.1037 241.076C77.8637 257.365 69.8663 272.327 58.1228 284.07C46.3793 295.814 31.4172 303.811 15.1286 307.051C-1.1601 310.291 -18.0437 308.628 -33.3873 302.273C-48.7309 295.917 -61.8453 285.154 -71.0721 271.346C-80.2989 257.537 -85.2236 241.302 -85.2236 224.694L-1.25323 224.694L-1.25323 140.724Z" stroke="#B5D2FD" stroke-width="6" mask="url(#path-4-inside-2_38_403)"/>
<path d="M1303 150.5C1303 114.298 1317.38 79.5787 1342.98 53.98C1368.58 28.3813 1403.3 14.0001 1439.5 14L1439.5 150.5L1303 150.5Z" fill="#D6EBFE"/>
<path d="M1376.64 169.358C1376.64 152.686 1383.26 136.697 1395.05 124.908C1406.84 113.12 1422.83 106.497 1439.5 106.497L1439.5 169.358L1376.64 169.358Z" fill="#E9EFFE"/>
<mask id="path-7-inside-3_38_403" fill="white">
<path d="M1440.85 226.832C1433.83 226.832 1426.88 225.45 1420.4 222.765C1413.92 220.08 1408.03 216.144 1403.06 211.182C1398.1 206.22 1394.17 200.33 1391.48 193.847C1388.8 187.365 1387.41 180.416 1387.41 173.4C1387.41 166.383 1388.8 159.435 1391.48 152.952C1394.17 146.469 1398.1 140.579 1403.06 135.617C1408.03 130.655 1413.92 126.72 1420.4 124.034C1426.88 121.349 1433.83 119.967 1440.85 119.967L1440.85 173.4L1440.85 226.832Z"/>
</mask>
<path d="M1440.85 226.832C1433.83 226.832 1426.88 225.45 1420.4 222.765C1413.92 220.08 1408.03 216.144 1403.06 211.182C1398.1 206.22 1394.17 200.33 1391.48 193.847C1388.8 187.365 1387.41 180.416 1387.41 173.4C1387.41 166.383 1388.8 159.435 1391.48 152.952C1394.17 146.469 1398.1 140.579 1403.06 135.617C1408.03 130.655 1413.92 126.72 1420.4 124.034C1426.88 121.349 1433.83 119.967 1440.85 119.967L1440.85 173.4L1440.85 226.832Z" stroke="#0066FF" stroke-width="10" mask="url(#path-7-inside-3_38_403)"/>
<mask id="path-8-inside-4_38_403" fill="white">
<path d="M1440.85 263.651C1423 263.651 1405.55 258.358 1390.71 248.441C1375.86 238.524 1364.3 224.429 1357.47 207.938C1350.63 191.446 1348.85 173.3 1352.33 155.793C1355.81 138.286 1364.41 122.204 1377.03 109.582C1389.65 96.9604 1405.73 88.3647 1423.24 84.8824C1440.75 81.4 1458.89 83.1873 1475.38 90.0182C1491.88 96.8491 1505.97 108.417 1515.89 123.259C1525.81 138.101 1531.1 155.55 1531.1 173.4L1440.85 173.4L1440.85 263.651Z"/>
</mask>
<path d="M1440.85 263.651C1423 263.651 1405.55 258.358 1390.71 248.441C1375.86 238.524 1364.3 224.429 1357.47 207.938C1350.63 191.446 1348.85 173.3 1352.33 155.793C1355.81 138.286 1364.41 122.204 1377.03 109.582C1389.65 96.9604 1405.73 88.3647 1423.24 84.8824C1440.75 81.4 1458.89 83.1873 1475.38 90.0182C1491.88 96.8491 1505.97 108.417 1515.89 123.259C1525.81 138.101 1531.1 155.55 1531.1 173.4L1440.85 173.4L1440.85 263.651Z" stroke="#B5D6FD" stroke-width="6" mask="url(#path-8-inside-4_38_403)"/>
</g>
<defs>
<clipPath id="clip0_38_403">
<rect width="1440" height="393" fill="white"/>
</clipPath>
</defs>
</svg>
