<svg width="1456" height="203" viewBox="0 0 1456 203" fill="none" xmlns="http://www.w3.org/2000/svg">
<path d="M1028.5 62C1210.5 39.6 1389.33 76.9999 1456 98.4999V0.5L0 16V87.5C12.4 93.9 79.5 112.5 111.5 121C147.5 130.6 214.167 143.333 243 148.5C331.8 160.5 384.667 163.167 400 163C442.8 163.4 531.5 154.167 570.5 149.5C610.9 145.1 706 128 748.5 120C752.5 119.2 841.167 99.3333 885 89.5C942.6 72.3 1004.67 64 1028.5 62Z" fill="#65B5FF"/>
<path d="M427.5 175.013C208 175.013 66.6666 160.013 0 138.513V202.5H1456V144C1443.6 137.6 1376.5 124.513 1344.5 116.013C1308.5 106.413 1241.83 93.6794 1213 88.5127C1124.2 76.5127 1071.33 73.846 1056 74.0127C1013.2 73.6127 935 93.8333 896 98.5C855.6 102.9 773.5 118.5 731 126.5C727 127.3 623.833 143.167 580 153C522.4 170.2 451.333 173.013 427.5 175.013Z" fill="white"/>
<path d="M477 156.321C312.6 175.121 90.5 116.488 0 84.821V142.821C442.5 255.321 676.77 124.428 1013 115.821C1306 108.321 1396.5 133.488 1455.5 146.321V95.321C1247.9 28.521 1011.33 55.4877 919 77.321C748.6 125.721 553.333 150.154 477 156.321Z" fill="url(#paint0_linear_37_381)"/>
<defs>
<linearGradient id="paint0_linear_37_381" x1="1456" y1="142.5" x2="2.90053e-05" y2="121" gradientUnits="userSpaceOnUse">
<stop stop-color="#D1D1D1"/>
<stop offset="0.260417" stop-color="#FDFDFD"/>
<stop offset="0.578125" stop-color="#FEFEFE"/>
<stop offset="0.838542" stop-color="#F8F8F8"/>
<stop offset="1" stop-color="#F5F5F5"/>
</linearGradient>
</defs>
</svg>
