<svg width="225" height="39" viewBox="0 0 225 39" fill="none" xmlns="http://www.w3.org/2000/svg">
<rect x="1.09863" y="8.87988" width="105.501" height="21.8973" rx="7.5" stroke="#0066FF"/>
<path d="M48.7249 16.7741V17.6269H46.0181V18.9777H48.0924V19.8154H46.0181V22.0415H44.7158V16.7741H48.7249Z" fill="#0066FF"/>
<path d="M50.9506 16.7741V22.0415H49.6483V16.7741H50.9506Z" fill="#0066FF"/>
<path d="M56.2184 21.0379H53.6325L53.2046 22.0415H51.8372L54.172 16.7666H55.6882L58.023 22.0415H56.6463L56.2184 21.0379ZM55.8649 20.1927L54.9254 17.9891L53.986 20.1927H55.8649Z" fill="#0066FF"/>
<path d="M63.314 16.7741V17.6269H61.5839V22.0415H60.2816V17.6269H58.5515V16.7741H63.314Z" fill="#0066FF"/>
<rect x="96.4014" y="8.87988" width="111.685" height="21.8973" rx="7.5" fill="#0066FF" stroke="#0066FF"/>
<path d="M141.47 19.3989C141.47 18.8807 141.612 18.4178 141.898 18.0103C142.189 17.5978 142.583 17.2783 143.079 17.0519C143.581 16.8205 144.142 16.7048 144.763 16.7048C145.488 16.7048 146.124 16.8557 146.669 17.1576C147.215 17.4595 147.597 17.877 147.814 18.4103H146.316C146.167 18.1588 145.956 17.9701 145.683 17.8443C145.417 17.7185 145.107 17.6557 144.753 17.6557C144.375 17.6557 144.037 17.7286 143.739 17.8745C143.448 18.0154 143.218 18.2166 143.051 18.4782C142.89 18.7398 142.809 19.0467 142.809 19.3989C142.809 19.746 142.89 20.0529 143.051 20.3195C143.218 20.5812 143.448 20.7849 143.739 20.9308C144.037 21.0717 144.375 21.1421 144.753 21.1421C145.107 21.1421 145.417 21.0792 145.683 20.9534C145.956 20.8226 146.167 20.6315 146.316 20.3799H147.814C147.597 20.9182 147.215 21.3383 146.669 21.6402C146.13 21.937 145.494 22.0854 144.763 22.0854C144.142 22.0854 143.581 21.9722 143.079 21.7458C142.583 21.5144 142.189 21.1949 141.898 20.7874C141.612 20.3799 141.47 19.9171 141.47 19.3989Z" fill="white"/>
<path d="M152.275 22.0401L150.842 19.9875H150.228V22.0401H148.926V16.7727H151.363C151.865 16.7727 152.293 16.8457 152.647 16.9916C153 17.1324 153.264 17.3261 153.437 17.5727C153.617 17.8141 153.707 18.0858 153.707 18.3877C153.707 18.7348 153.583 19.0492 153.335 19.331C153.087 19.6077 152.718 19.7988 152.228 19.9045L153.781 22.0401H152.275ZM150.228 19.1951H151.316C151.67 19.1951 151.933 19.1272 152.107 18.9914C152.281 18.8505 152.368 18.6568 152.368 18.4103C152.368 18.1688 152.281 17.9827 152.107 17.8519C151.933 17.716 151.67 17.6481 151.316 17.6481H150.228V19.1951Z" fill="white"/>
<path d="M160.047 16.7727L157.852 20.2064V22.0401H156.55V20.2064L154.345 16.7727H155.815L157.21 19.18L158.596 16.7727H160.047Z" fill="white"/>
<path d="M165.533 18.4028C165.533 18.6845 165.449 18.9486 165.282 19.1951C165.121 19.4416 164.863 19.6404 164.51 19.7913C164.163 19.9422 163.722 20.0177 163.189 20.0177H162.101V22.0401H160.798V16.7727H163.189C163.691 16.7727 164.119 16.8432 164.473 16.984C164.826 17.1249 165.09 17.3186 165.263 17.5651C165.443 17.8116 165.533 18.0908 165.533 18.4028ZM163.133 19.1649C163.493 19.1649 163.759 19.0995 163.933 18.9687C164.107 18.8329 164.194 18.6442 164.194 18.4028C164.194 17.8896 163.84 17.633 163.133 17.633H162.101V19.1649H163.133Z" fill="white"/>
<path d="M170.876 16.7727V17.6255H169.146V22.0401H167.844V17.6255H166.113V16.7727H170.876Z" fill="white"/>
<path d="M174.84 22.093C174.232 22.093 173.674 21.9772 173.166 21.7458C172.657 21.5144 172.254 21.1949 171.956 20.7874C171.659 20.3749 171.51 19.9095 171.51 19.3913C171.51 18.8782 171.659 18.4178 171.956 18.0103C172.254 17.5978 172.657 17.2758 173.166 17.0444C173.674 16.813 174.232 16.6973 174.84 16.6973C175.454 16.6973 176.012 16.813 176.514 17.0444C177.023 17.2758 177.423 17.5978 177.714 18.0103C178.012 18.4178 178.161 18.8782 178.161 19.3913C178.161 19.9095 178.012 20.3749 177.714 20.7874C177.423 21.1949 177.023 21.5144 176.514 21.7458C176.006 21.9772 175.448 22.093 174.84 22.093ZM174.84 21.1497C175.231 21.1497 175.575 21.0792 175.872 20.9384C176.17 20.7925 176.403 20.5862 176.57 20.3195C176.738 20.0529 176.821 19.7435 176.821 19.3913C176.821 19.0392 176.738 18.7323 176.57 18.4707C176.403 18.204 176.17 18.0003 175.872 17.8594C175.575 17.7185 175.231 17.6481 174.84 17.6481C174.449 17.6481 174.102 17.7185 173.798 17.8594C173.5 18.0003 173.268 18.204 173.101 18.4707C172.933 18.7323 172.849 19.0392 172.849 19.3913C172.849 19.7435 172.933 20.0529 173.101 20.3195C173.268 20.5862 173.5 20.7925 173.798 20.9384C174.102 21.0792 174.449 21.1497 174.84 21.1497Z" fill="white"/>
<rect x="82.3486" y="2.39355" width="139.791" height="34.0202" rx="6" stroke="#FF0000" stroke-width="4"/>
</svg>
