<svg width="239" height="35" viewBox="0 0 239 35" fill="none" xmlns="http://www.w3.org/2000/svg">
<rect y="8" width="72.0863" height="19.0845" rx="9.54225" fill="#0066FF"/>
<path d="M30.7821 19.4876H29.9871V14.5394H27.8486V13.9736H32.9112V14.5394H30.7821V19.4876Z" fill="white"/>
<path d="M38.2156 17.4133C38.2156 17.7527 38.1613 18.0557 38.0528 18.3222C37.9444 18.5887 37.7879 18.8138 37.5833 18.9973C37.3788 19.1809 37.1308 19.3217 36.8395 19.4197C36.5513 19.5153 36.2243 19.563 35.8586 19.563C35.5177 19.563 35.2047 19.5153 34.9195 19.4197C34.6375 19.3217 34.3927 19.1809 34.185 18.9973C33.9805 18.8138 33.8208 18.5887 33.7062 18.3222C33.5946 18.0557 33.5388 17.7527 33.5388 17.4133C33.5388 16.9607 33.6333 16.576 33.8224 16.2592C34.0115 15.9399 34.2811 15.6972 34.6313 15.5313C34.9846 15.3628 35.4046 15.2786 35.8911 15.2786C36.356 15.2786 36.762 15.3628 37.1091 15.5313C37.4593 15.6997 37.7305 15.9436 37.9227 16.263C38.1179 16.5798 38.2156 16.9632 38.2156 17.4133ZM34.3384 17.4133C34.3384 17.7452 34.3927 18.0331 34.5011 18.277C34.6096 18.5208 34.777 18.7094 35.0032 18.8427C35.2295 18.9759 35.5208 19.0426 35.8772 19.0426C36.2305 19.0426 36.5203 18.9759 36.7465 18.8427C36.9759 18.7094 37.1448 18.5208 37.2532 18.277C37.3617 18.0331 37.416 17.7452 37.416 17.4133C37.416 17.0839 37.3617 16.7998 37.2532 16.5609C37.1448 16.3195 36.9774 16.1335 36.7512 16.0027C36.5249 15.872 36.2321 15.8066 35.8725 15.8066C35.3426 15.8066 34.9536 15.9487 34.7057 16.2328C34.4608 16.5169 34.3384 16.9104 34.3384 17.4133Z" fill="white"/>
<path d="M41.9439 15.2786C42.5793 15.2786 43.086 15.4558 43.4641 15.8104C43.8422 16.1649 44.0313 16.6979 44.0313 17.4095C44.0313 17.8797 43.9445 18.2744 43.7709 18.5938C43.5974 18.9131 43.3525 19.1545 43.0364 19.3179C42.7234 19.4813 42.353 19.563 41.9253 19.563C41.6557 19.563 41.4186 19.5341 41.2141 19.4763C41.0095 19.4185 40.8344 19.3405 40.6887 19.2425C40.5431 19.1444 40.4222 19.0375 40.3261 18.9219H40.2703C40.2796 19.0199 40.2905 19.1381 40.3029 19.2764C40.3184 19.4147 40.3261 19.5354 40.3261 19.6385V21.3357H39.5498V15.354H40.1867L40.2889 15.965H40.3261C40.4253 15.8393 40.5462 15.7249 40.6887 15.6218C40.8313 15.5162 41.0049 15.4332 41.2094 15.3729C41.4171 15.31 41.6619 15.2786 41.9439 15.2786ZM41.8091 15.8066C41.4558 15.8066 41.1707 15.8619 40.9537 15.9725C40.7399 16.0832 40.5834 16.2491 40.4842 16.4704C40.385 16.6891 40.3323 16.9645 40.3261 17.2964V17.417C40.3261 17.7665 40.3726 18.062 40.4656 18.3034C40.5617 18.5447 40.7182 18.7283 40.9351 18.854C41.1552 18.9797 41.4496 19.0426 41.8184 19.0426C42.1345 19.0426 42.398 18.9734 42.6087 18.8351C42.8195 18.6968 42.976 18.5045 43.0783 18.2581C43.1836 18.0092 43.2363 17.7238 43.2363 17.402C43.2363 16.9142 43.1185 16.527 42.883 16.2403C42.6506 15.9512 42.2926 15.8066 41.8091 15.8066Z" fill="white"/>
<path d="M52.0598 15.354V19.4876H51.4276L51.316 18.9068H51.2742C51.1688 19.0501 51.0324 19.1708 50.8651 19.2689C50.6977 19.3669 50.5087 19.4398 50.2979 19.4876C50.0903 19.5379 49.8687 19.563 49.6331 19.563C49.2302 19.563 48.8924 19.5102 48.6197 19.4046C48.3469 19.299 48.1408 19.1356 48.0014 18.9143C47.865 18.6931 47.7968 18.409 47.7968 18.062V15.354H48.5778V18.0167C48.5778 18.3612 48.6739 18.6189 48.8661 18.7899C49.0582 18.9583 49.3511 19.0426 49.7447 19.0426C50.1228 19.0426 50.4234 18.9847 50.6466 18.8691C50.8728 18.7534 51.0355 18.5837 51.1347 18.3599C51.2339 18.1336 51.2835 17.8571 51.2835 17.5302V15.354H52.0598Z" fill="white"/>
<path d="M56.0857 15.2786C56.7211 15.2786 57.2278 15.4558 57.6059 15.8104C57.984 16.1649 58.1731 16.6979 58.1731 17.4095C58.1731 17.8797 58.0863 18.2744 57.9127 18.5938C57.7392 18.9131 57.4943 19.1545 57.1782 19.3179C56.8652 19.4813 56.4948 19.563 56.0671 19.563C55.7975 19.563 55.5604 19.5341 55.3559 19.4763C55.1513 19.4185 54.9762 19.3405 54.8305 19.2425C54.6849 19.1444 54.564 19.0375 54.4679 18.9219H54.4121C54.4214 19.0199 54.4323 19.1381 54.4447 19.2764C54.4602 19.4147 54.4679 19.5354 54.4679 19.6385V21.3357H53.6916V15.354H54.3285L54.4307 15.965H54.4679C54.5671 15.8393 54.688 15.7249 54.8305 15.6218C54.9731 15.5162 55.1467 15.4332 55.3512 15.3729C55.5589 15.31 55.8037 15.2786 56.0857 15.2786ZM55.9509 15.8066C55.5976 15.8066 55.3125 15.8619 55.0955 15.9725C54.8817 16.0832 54.7252 16.2491 54.626 16.4704C54.5268 16.6891 54.4741 16.9645 54.4679 17.2964V17.417C54.4679 17.7665 54.5144 18.062 54.6074 18.3034C54.7035 18.5447 54.86 18.7283 55.0769 18.854C55.297 18.9797 55.5914 19.0426 55.9602 19.0426C56.2763 19.0426 56.5398 18.9734 56.7505 18.8351C56.9613 18.6968 57.1178 18.5045 57.22 18.2581C57.3254 18.0092 57.3781 17.7238 57.3781 17.402C57.3781 16.9142 57.2603 16.527 57.0248 16.2403C56.7923 15.9512 56.4344 15.8066 55.9509 15.8066Z" fill="white"/>
<path d="M20.0418 21.717C17.6019 21.717 15.6187 19.9215 15.6187 17.7125C15.6187 15.5034 17.6019 13.7079 20.0418 13.7079C20.2105 13.7079 20.3504 13.8345 20.3504 13.9873C20.3504 14.14 20.2105 14.2667 20.0418 14.2667C17.9434 14.2667 16.2358 15.8126 16.2358 17.7125C16.2358 19.6123 17.9434 21.1582 20.0418 21.1582C22.1403 21.1582 23.8478 19.6123 23.8478 17.7125C23.8478 17.5597 23.9877 17.4331 24.1564 17.4331C24.3251 17.4331 24.465 17.5597 24.465 17.7125C24.465 19.9215 22.4818 21.717 20.0418 21.717Z" fill="white"/>
<rect x="78.207" y="8" width="72.0863" height="19.0845" rx="9.54225" fill="#0066FF"/>
<path d="M93.4934 19.2192H92.6411C92.0381 19.2192 91.5439 18.8073 91.5439 18.2997C91.5439 18.1489 91.6981 18.0238 91.884 18.0238C92.0699 18.0238 92.224 18.1489 92.224 18.2997C92.224 18.502 92.4099 18.6675 92.6411 18.6675H93.4934C93.6703 18.6675 93.8108 18.5388 93.8108 18.3806C93.8108 18.182 93.7428 18.1525 93.5887 18.1084L92.224 17.7222C91.9338 17.6376 91.5439 17.4684 91.5439 16.9277C91.5439 16.468 91.9928 16.0891 92.5414 16.0891H93.3937C93.9967 16.0891 94.4909 16.5011 94.4909 17.0086C94.4909 17.1595 94.3367 17.2845 94.1508 17.2845C93.965 17.2845 93.8108 17.1595 93.8108 17.0086C93.8108 16.8063 93.6249 16.6408 93.3937 16.6408H92.5414C92.3646 16.6408 92.224 16.7696 92.224 16.9277C92.224 17.1263 92.292 17.1558 92.4462 17.1999L93.8108 17.5861C94.101 17.6707 94.4909 17.8399 94.4909 18.3806C94.4909 18.844 94.042 19.2192 93.4934 19.2192Z" fill="white"/>
<path d="M93.0178 19.587C92.8319 19.587 92.6777 19.462 92.6777 19.3112V16.0008C92.6777 15.85 92.8319 15.725 93.0178 15.725C93.2036 15.725 93.3578 15.85 93.3578 16.0008V19.3112C93.3578 19.462 93.2036 19.587 93.0178 19.587Z" fill="white"/>
<path d="M93.0178 21.6099C90.3293 21.6099 88.144 19.837 88.144 17.6559C88.144 15.4748 90.3293 13.7019 93.0178 13.7019C93.2037 13.7019 93.3578 13.827 93.3578 13.9778C93.3578 14.1286 93.2037 14.2536 93.0178 14.2536C90.7056 14.2536 88.8241 15.7801 88.8241 17.6559C88.8241 19.5318 90.7056 21.0582 93.0178 21.0582C95.33 21.0582 97.2115 19.5318 97.2115 17.6559C97.2115 17.5051 97.3657 17.38 97.5515 17.38C97.7374 17.38 97.8916 17.5051 97.8916 17.6559C97.8916 19.837 95.7063 21.6099 93.0178 21.6099Z" fill="white"/>
<path d="M97.5515 15.7249C97.3656 15.7249 97.2114 15.5998 97.2114 15.449V14.2536H95.738C95.5521 14.2536 95.3979 14.1286 95.3979 13.9778C95.3979 13.827 95.5521 13.7019 95.738 13.7019H97.5515C97.7374 13.7019 97.8915 13.827 97.8915 13.9778V15.449C97.8915 15.5998 97.7374 15.7249 97.5515 15.7249Z" fill="white"/>
<path d="M95.2847 16.0928C95.1986 16.0928 95.1124 16.067 95.0444 16.0118C94.9129 15.9052 94.9129 15.7286 95.0444 15.622L97.3113 13.7829C97.4428 13.6762 97.6604 13.6762 97.7918 13.7829C97.9233 13.8895 97.9233 14.0661 97.7918 14.1728L95.525 16.0118C95.457 16.067 95.3708 16.0928 95.2847 16.0928Z" fill="white"/>
<path d="M106.832 20.5731H106.037V15.6248H103.898V15.0591H108.961V15.6248H106.832V20.5731Z" fill="white"/>
<path d="M112.187 16.364C112.29 16.364 112.397 16.3691 112.508 16.3791C112.62 16.3867 112.719 16.398 112.806 16.4131L112.708 16.9939C112.624 16.9763 112.531 16.9625 112.429 16.9524C112.327 16.9423 112.231 16.9373 112.141 16.9373C111.936 16.9373 111.743 16.9713 111.56 17.0392C111.38 17.1045 111.222 17.2001 111.086 17.3258C110.949 17.449 110.842 17.5986 110.765 17.7746C110.687 17.9481 110.649 18.1417 110.649 18.3554V20.5731H109.872V16.4395H110.514L110.597 17.2013H110.63C110.735 17.048 110.862 16.9084 111.011 16.7827C111.16 16.6545 111.332 16.5526 111.527 16.4772C111.726 16.4018 111.946 16.364 112.187 16.364Z" fill="white"/>
<path d="M115.674 16.3716C116.281 16.3716 116.732 16.4822 117.027 16.7035C117.321 16.9247 117.468 17.278 117.468 17.7633V20.5731H116.906L116.757 19.9621H116.72C116.577 20.113 116.429 20.2399 116.274 20.343C116.119 20.4436 115.939 20.5203 115.734 20.5731C115.533 20.6234 115.285 20.6485 114.991 20.6485C114.681 20.6485 114.405 20.6045 114.163 20.5165C113.924 20.4285 113.735 20.2952 113.596 20.1167C113.46 19.9382 113.391 19.7119 113.391 19.4378C113.391 19.0255 113.593 18.7087 113.996 18.4874C114.399 18.2662 115.012 18.1455 115.837 18.1254L116.715 18.0952V17.8425C116.715 17.4854 116.621 17.2353 116.432 17.092C116.243 16.9486 115.976 16.877 115.632 16.877C115.366 16.877 115.111 16.9084 114.87 16.9713C114.628 17.0341 114.399 17.1083 114.182 17.1938L113.945 16.7186C114.174 16.623 114.437 16.5413 114.735 16.4734C115.032 16.4055 115.345 16.3716 115.674 16.3716ZM116.706 18.5364L115.93 18.5629C115.294 18.583 114.846 18.6672 114.586 18.8155C114.326 18.9639 114.196 19.1738 114.196 19.4454C114.196 19.6817 114.284 19.8565 114.461 19.9696C114.637 20.0828 114.871 20.1394 115.163 20.1394C115.615 20.1394 115.985 20.0375 116.274 19.8339C116.562 19.6302 116.706 19.3247 116.706 18.9174V18.5364Z" fill="white"/>
<path d="M121.471 16.364C122.075 16.364 122.533 16.4847 122.842 16.7261C123.152 16.965 123.307 17.3497 123.307 17.8802V20.5731H122.545V17.9217C122.545 17.5772 122.447 17.3195 122.252 17.1485C122.06 16.9775 121.764 16.8921 121.364 16.8921C120.8 16.8921 120.403 17.0216 120.174 17.2805C119.945 17.5395 119.83 17.9154 119.83 18.4082V20.5731H119.058V16.4395H119.681L119.797 17.0354H119.839C119.948 16.8895 120.086 16.7676 120.253 16.6695C120.42 16.569 120.608 16.4935 120.816 16.4432C121.023 16.3904 121.242 16.364 121.471 16.364Z" fill="white"/>
<path d="M128.193 19.4416C128.193 19.7056 128.111 19.9281 127.947 20.1092C127.786 20.2877 127.553 20.4222 127.25 20.5127C126.949 20.6032 126.589 20.6485 126.171 20.6485C125.815 20.6485 125.506 20.6259 125.246 20.5806C124.986 20.5354 124.758 20.4712 124.563 20.3883V19.8112C124.77 19.8942 125.018 19.9696 125.306 20.0375C125.595 20.1054 125.889 20.1394 126.19 20.1394C126.63 20.1394 126.949 20.0815 127.147 19.9659C127.346 19.8502 127.445 19.6931 127.445 19.4944C127.445 19.3813 127.405 19.282 127.324 19.1965C127.246 19.1085 127.115 19.0242 126.929 18.9438C126.743 18.8608 126.486 18.7703 126.157 18.6722C125.832 18.5717 125.55 18.4723 125.311 18.3743C125.075 18.2737 124.893 18.1518 124.762 18.0084C124.635 17.8651 124.572 17.6791 124.572 17.4502C124.572 17.1008 124.745 16.833 125.093 16.6469C125.443 16.4583 125.901 16.364 126.469 16.364C126.775 16.364 127.062 16.3892 127.329 16.4395C127.598 16.4873 127.849 16.5526 128.082 16.6356L127.821 17.1372C127.611 17.0643 127.386 17.0027 127.147 16.9524C126.909 16.9021 126.665 16.877 126.417 16.877C126.061 16.877 125.787 16.9247 125.595 17.0203C125.406 17.1158 125.311 17.2466 125.311 17.4125C125.311 17.5408 125.354 17.6464 125.441 17.7293C125.531 17.8123 125.674 17.8903 125.869 17.9632C126.064 18.0361 126.321 18.1216 126.641 18.2196C126.96 18.3152 127.236 18.4145 127.468 18.5176C127.701 18.6182 127.879 18.7414 128.003 18.8872C128.13 19.0305 128.193 19.2153 128.193 19.4416Z" fill="white"/>
<path d="M131.703 16.9298H130.434V20.5731H129.662V16.9298H128.76V16.6281L129.662 16.4206V16.1453C129.662 15.7983 129.726 15.5167 129.853 15.3005C129.98 15.0817 130.164 14.9208 130.406 14.8177C130.648 14.7146 130.942 14.6631 131.289 14.6631C131.485 14.6631 131.663 14.6769 131.824 14.7046C131.988 14.7322 132.132 14.7637 132.256 14.7989L132.056 15.2929C131.951 15.2653 131.832 15.2401 131.699 15.2175C131.568 15.1924 131.435 15.1798 131.299 15.1798C131.004 15.1798 130.786 15.2577 130.643 15.4136C130.504 15.567 130.434 15.8084 130.434 16.1378V16.4395H131.703V16.9298Z" fill="white"/>
<path d="M134.604 16.364C135.038 16.364 135.41 16.442 135.72 16.5979C136.03 16.7538 136.267 16.9725 136.431 17.2541C136.595 17.5332 136.677 17.8601 136.677 18.2347V18.6232H133.158C133.168 19.1085 133.316 19.4781 133.605 19.732C133.893 19.986 134.299 20.113 134.823 20.113C135.145 20.113 135.43 20.0891 135.678 20.0413C135.926 19.9935 136.183 19.9231 136.45 19.8301V20.3807C136.192 20.4738 135.937 20.5416 135.683 20.5844C135.432 20.6271 135.134 20.6485 134.79 20.6485C134.3 20.6485 133.873 20.568 133.507 20.4071C133.144 20.2437 132.862 20.0048 132.661 19.6905C132.459 19.3762 132.359 18.9915 132.359 18.5364C132.359 18.0914 132.45 17.7067 132.633 17.3824C132.819 17.0555 133.079 16.8041 133.414 16.6281C133.752 16.452 134.148 16.364 134.604 16.364ZM134.595 16.877C134.183 16.877 133.854 16.9864 133.609 17.2051C133.364 17.4238 133.219 17.7293 133.172 18.1216H135.869C135.865 17.8752 135.817 17.6589 135.724 17.4729C135.635 17.2843 135.497 17.1385 135.311 17.0354C135.125 16.9298 134.886 16.877 134.595 16.877Z" fill="white"/>
<path d="M140.304 16.364C140.406 16.364 140.513 16.3691 140.624 16.3791C140.736 16.3867 140.835 16.398 140.922 16.4131L140.824 16.9939C140.741 16.9763 140.648 16.9625 140.545 16.9524C140.443 16.9423 140.347 16.9373 140.257 16.9373C140.053 16.9373 139.859 16.9713 139.676 17.0392C139.496 17.1045 139.338 17.2001 139.202 17.3258C139.065 17.449 138.958 17.5986 138.881 17.7746C138.804 17.9481 138.765 18.1417 138.765 18.3554V20.5731H137.988V16.4395H138.63L138.714 17.2013H138.746C138.852 17.048 138.979 16.9084 139.127 16.7827C139.276 16.6545 139.448 16.5526 139.643 16.4772C139.842 16.4018 140.062 16.364 140.304 16.364Z" fill="white"/>
<rect x="156.414" y="8" width="72.0863" height="19.0845" rx="9.54225" fill="#0066FF"/>
<path d="M173.039 21.8535C172.917 21.8535 172.803 21.7983 172.744 21.7137C172.685 21.6291 172.685 21.5225 172.749 21.4379L173.225 20.7942C173.32 20.6618 173.529 20.6213 173.692 20.6986C173.855 20.7758 173.905 20.945 173.81 21.0774L173.687 21.2429C174.939 21.0038 175.877 20.0916 175.877 19.0029C175.877 18.8521 176.031 18.7271 176.217 18.7271C176.403 18.7271 176.557 18.8521 176.557 19.0029C176.553 20.5735 174.975 21.8535 173.039 21.8535Z" fill="white"/>
<path d="M166.238 16.3363C166.053 16.3363 165.898 16.2112 165.898 16.0604C165.898 14.4898 167.476 13.2098 169.412 13.2098C169.534 13.2098 169.648 13.265 169.707 13.3496C169.766 13.4342 169.766 13.5409 169.702 13.6255L169.226 14.2691C169.131 14.4016 168.922 14.442 168.759 14.3648C168.596 14.2875 168.546 14.1184 168.641 13.9859L168.764 13.8204C167.512 14.0595 166.574 14.9717 166.574 16.0604C166.578 16.2112 166.424 16.3363 166.238 16.3363Z" fill="white"/>
<path d="M170.06 19.0434H168.786C168.6 19.0434 168.446 18.9183 168.446 18.7675V17.9399C168.446 17.7891 168.6 17.6641 168.786 17.6641H170.06C170.514 17.6641 170.913 17.9877 170.913 18.3556C170.913 18.7307 170.527 19.0434 170.06 19.0434ZM169.126 18.4916H170.06C170.156 18.4916 170.233 18.4291 170.233 18.3519C170.233 18.2967 170.156 18.2121 170.06 18.2121H169.126V18.4916Z" fill="white"/>
<path d="M170.242 19.8709H168.782C168.596 19.8709 168.442 19.7458 168.442 19.595V18.7674C168.442 18.6166 168.596 18.4916 168.782 18.4916H170.242C170.75 18.4916 171.167 18.8005 171.167 19.1831C171.167 19.5656 170.754 19.8709 170.242 19.8709ZM169.126 19.3192H170.246C170.391 19.3192 170.491 19.2456 170.491 19.1794C170.491 19.1132 170.391 19.0396 170.246 19.0396H169.126V19.3192Z" fill="white"/>
<path d="M169.603 20.2829C169.417 20.2829 169.263 20.1578 169.263 20.007V19.5914C169.263 19.4406 169.417 19.3156 169.603 19.3156C169.789 19.3156 169.943 19.4406 169.943 19.5914V20.007C169.943 20.1615 169.789 20.2829 169.603 20.2829Z" fill="white"/>
<path d="M169.603 18.2121C169.417 18.2121 169.263 18.087 169.263 17.9362V17.5206C169.263 17.3698 169.417 17.2448 169.603 17.2448C169.789 17.2448 169.943 17.3698 169.943 17.5206V17.9362C169.943 18.0907 169.789 18.2121 169.603 18.2121Z" fill="white"/>
<path d="M169.716 21.3127C167.984 21.3127 166.579 20.1688 166.579 18.7675C166.579 17.3661 167.989 16.2222 169.716 16.2222C169.798 16.2222 169.87 16.2259 169.952 16.2295C171.489 16.3252 172.731 17.333 172.844 18.5725C172.849 18.6534 172.853 18.7086 172.853 18.7675C172.858 20.1688 171.448 21.3127 169.716 21.3127ZM169.716 16.7702C168.36 16.7702 167.259 17.664 167.259 18.7638C167.259 19.8635 168.36 20.7573 169.716 20.7573C171.072 20.7573 172.178 19.8635 172.178 18.7638C172.178 18.716 172.173 18.6681 172.169 18.6203C172.078 17.6346 171.103 16.8475 169.906 16.7739C169.847 16.7739 169.784 16.7702 169.716 16.7702Z" fill="white"/>
<path d="M172.735 18.8668H172.513C172.337 18.8668 172.187 18.7564 172.173 18.613C172.083 17.6383 171.112 16.8512 169.911 16.7776C169.734 16.7666 169.598 16.6452 169.598 16.5017V16.3215C169.598 14.9165 171.008 13.7762 172.74 13.7762C174.472 13.7762 175.877 14.9201 175.877 16.3215C175.877 17.7229 174.463 18.8668 172.735 18.8668ZM170.274 16.259C171.552 16.4466 172.577 17.2741 172.808 18.3151C174.132 18.282 175.193 17.3992 175.193 16.3215C175.193 15.2217 174.091 14.328 172.735 14.328C171.403 14.3243 170.314 15.185 170.274 16.259Z" fill="white"/>
<path d="M190.618 14.9258L188.801 20.4398H188.006L186.658 16.7286C186.617 16.623 186.579 16.5174 186.541 16.4118C186.507 16.3037 186.475 16.2018 186.444 16.1063C186.413 16.0082 186.386 15.9228 186.365 15.8498C186.346 15.7744 186.332 15.7178 186.323 15.6801C186.317 15.7178 186.304 15.7732 186.286 15.8461C186.27 15.919 186.249 16.0032 186.221 16.0988C186.196 16.1943 186.165 16.2961 186.128 16.4043C186.094 16.5124 186.056 16.6217 186.016 16.7324L184.705 20.4398H183.91L182.106 14.9258H182.929L184.022 18.3843C184.059 18.5 184.093 18.6144 184.124 18.7275C184.158 18.8381 184.188 18.9463 184.212 19.0519C184.24 19.1575 184.265 19.2606 184.287 19.3611C184.308 19.4617 184.329 19.5598 184.347 19.6553C184.363 19.5573 184.383 19.4554 184.408 19.3498C184.432 19.2417 184.459 19.1323 184.487 19.0217C184.518 18.9111 184.55 18.7992 184.584 18.686C184.621 18.5729 184.66 18.4597 184.701 18.3466L185.923 14.9258H186.737L188.01 18.373C188.054 18.4912 188.094 18.6081 188.131 18.7237C188.169 18.8394 188.201 18.9526 188.229 19.0632C188.26 19.1713 188.286 19.2756 188.308 19.3762C188.333 19.4743 188.354 19.5673 188.373 19.6553C188.395 19.5321 188.421 19.4026 188.452 19.2668C188.483 19.1311 188.519 18.989 188.559 18.8407C188.602 18.6923 188.649 18.5389 188.699 18.3805L189.791 14.9258H190.618Z" fill="white"/>
<path d="M192.348 16.3062V20.4398H191.576V16.3062H192.348ZM191.971 14.7599C192.098 14.7599 192.207 14.7938 192.297 14.8617C192.39 14.9271 192.436 15.0302 192.436 15.171C192.436 15.3093 192.39 15.4123 192.297 15.4802C192.207 15.5481 192.098 15.5821 191.971 15.5821C191.838 15.5821 191.726 15.5481 191.637 15.4802C191.55 15.4123 191.506 15.3093 191.506 15.171C191.506 15.0302 191.55 14.9271 191.637 14.8617C191.726 14.7938 191.838 14.7599 191.971 14.7599Z" fill="white"/>
<path d="M195.63 20.0023C195.757 20.0023 195.887 19.9935 196.02 19.9759C196.154 19.9583 196.262 19.9369 196.346 19.9118V20.3983C196.256 20.431 196.13 20.4587 195.969 20.4813C195.811 20.5039 195.656 20.5152 195.504 20.5152C195.235 20.5152 194.99 20.4775 194.77 20.4021C194.55 20.3241 194.373 20.1934 194.24 20.0098C194.11 19.8263 194.045 19.5723 194.045 19.248V16.7965H193.319V16.491L194.049 16.2458L194.356 15.3482H194.821V16.3062H196.313V16.7965H194.821V19.2291C194.821 19.4881 194.894 19.6817 195.04 19.8099C195.188 19.9382 195.385 20.0023 195.63 20.0023Z" fill="white"/>
<path d="M198.15 14.5713V16.3251C198.15 16.4256 198.147 16.5275 198.14 16.6305C198.134 16.7311 198.123 16.8242 198.108 16.9096H198.159C198.264 16.7638 198.398 16.6419 198.559 16.5438C198.723 16.4432 198.909 16.3678 199.117 16.3175C199.324 16.2647 199.544 16.2383 199.777 16.2383C200.186 16.2383 200.527 16.2911 200.799 16.3967C201.075 16.5023 201.281 16.6657 201.418 16.887C201.557 17.1083 201.627 17.3949 201.627 17.7469V20.4398H200.865V17.7884C200.865 17.4439 200.767 17.1862 200.572 17.0152C200.38 16.8443 200.084 16.7588 199.684 16.7588C199.306 16.7588 199.003 16.8179 198.777 16.936C198.554 17.0517 198.393 17.2227 198.294 17.449C198.198 17.6753 198.15 17.9518 198.15 18.2787V20.4398H197.378V14.5713H198.15Z" fill="white"/>
<path d="M205.03 20.5152C204.385 20.5152 203.874 20.3367 203.496 19.9797C203.121 19.6226 202.933 19.0921 202.933 18.3881C202.933 17.6765 203.125 17.1397 203.51 16.7776C203.894 16.4131 204.405 16.2308 205.044 16.2308C205.313 16.2308 205.549 16.2597 205.75 16.3175C205.952 16.3753 206.125 16.4533 206.271 16.5513C206.417 16.6469 206.539 16.7563 206.638 16.8795H206.694C206.682 16.8015 206.669 16.6947 206.657 16.5589C206.645 16.4231 206.638 16.3125 206.638 16.227V14.5713H207.41V20.4398H206.787L206.671 19.8514H206.638C206.542 19.9746 206.42 20.0865 206.271 20.1871C206.125 20.2877 205.95 20.3681 205.746 20.4285C205.544 20.4863 205.306 20.5152 205.03 20.5152ZM205.151 19.9948C205.696 19.9948 206.082 19.869 206.308 19.6176C206.535 19.3662 206.648 18.9928 206.648 18.4975V18.3843C206.648 17.8588 206.539 17.4553 206.322 17.1736C206.108 16.892 205.718 16.7512 205.151 16.7512C204.677 16.7512 204.322 16.8996 204.086 17.1963C203.851 17.4905 203.733 17.8928 203.733 18.4032C203.733 18.9111 203.849 19.3033 204.082 19.5799C204.317 19.8565 204.673 19.9948 205.151 19.9948Z" fill="white"/>
<path d="M211.362 16.2308C211.464 16.2308 211.571 16.2358 211.682 16.2458C211.794 16.2534 211.893 16.2647 211.98 16.2798L211.882 16.8606C211.799 16.843 211.706 16.8292 211.603 16.8191C211.501 16.8091 211.405 16.804 211.315 16.804C211.111 16.804 210.917 16.838 210.734 16.9059C210.554 16.9712 210.396 17.0668 210.26 17.1925C210.123 17.3157 210.017 17.4653 209.939 17.6413C209.862 17.8148 209.823 18.0084 209.823 18.2221V20.4398H209.047V16.3062H209.688L209.772 17.068H209.804C209.91 16.9147 210.037 16.7751 210.185 16.6494C210.334 16.5212 210.506 16.4193 210.701 16.3439C210.9 16.2685 211.12 16.2308 211.362 16.2308Z" fill="white"/>
<path d="M214.848 16.2383C215.456 16.2383 215.907 16.3489 216.201 16.5702C216.496 16.7915 216.643 17.1447 216.643 17.63V20.4398H216.08L215.931 19.8288H215.894C215.752 19.9797 215.603 20.1066 215.448 20.2097C215.293 20.3103 215.113 20.387 214.909 20.4398C214.707 20.4901 214.459 20.5152 214.165 20.5152C213.855 20.5152 213.579 20.4712 213.337 20.3832C213.099 20.2952 212.91 20.162 212.77 19.9834C212.634 19.8049 212.566 19.5786 212.566 19.3046C212.566 18.8922 212.767 18.5754 213.17 18.3541C213.573 18.1329 214.187 18.0122 215.011 17.9921L215.89 17.9619V17.7092C215.89 17.3522 215.795 17.102 215.606 16.9587C215.417 16.8154 215.15 16.7437 214.806 16.7437C214.54 16.7437 214.286 16.7751 214.044 16.838C213.802 16.9008 213.573 16.975 213.356 17.0605L213.119 16.5853C213.348 16.4897 213.612 16.408 213.909 16.3401C214.207 16.2723 214.52 16.2383 214.848 16.2383ZM215.88 18.4032L215.104 18.4296C214.469 18.4497 214.021 18.5339 213.76 18.6823C213.5 18.8306 213.37 19.0406 213.37 19.3121C213.37 19.5485 213.458 19.7232 213.635 19.8363C213.812 19.9495 214.046 20.0061 214.337 20.0061C214.789 20.0061 215.16 19.9042 215.448 19.7006C215.736 19.4969 215.88 19.1914 215.88 18.7841V18.4032Z" fill="white"/>
<path d="M222.379 20.4323L221.473 18.026C221.433 17.9229 221.394 17.8223 221.357 17.7243C221.323 17.6237 221.29 17.5282 221.259 17.4377C221.231 17.3446 221.205 17.2591 221.18 17.1812C221.158 17.1007 221.14 17.0316 221.124 16.9738H221.092C221.079 17.0316 221.062 17.1007 221.041 17.1812C221.019 17.2591 220.992 17.3446 220.961 17.4377C220.934 17.5307 220.903 17.6287 220.869 17.7318C220.834 17.8324 220.796 17.9342 220.752 18.0373L219.804 20.4323H218.935L217.531 16.2987H218.33L219.065 18.5804C219.114 18.7313 219.161 18.8809 219.204 19.0292C219.251 19.1751 219.289 19.3134 219.32 19.4441C219.355 19.5723 219.379 19.6842 219.395 19.7798H219.432C219.451 19.7169 219.471 19.6415 219.492 19.5535C219.517 19.4655 219.544 19.3724 219.571 19.2744C219.602 19.1738 219.635 19.0745 219.669 18.9764C219.703 18.8759 219.737 18.7816 219.771 18.6936L220.71 16.2987H221.543L222.449 18.6898C222.496 18.8105 222.541 18.9362 222.584 19.067C222.63 19.1977 222.672 19.3247 222.709 19.4479C222.747 19.5686 222.773 19.6767 222.788 19.7722H222.826C222.838 19.6867 222.861 19.5811 222.895 19.4554C222.93 19.3297 222.968 19.1914 223.012 19.0406C223.058 18.8897 223.106 18.7363 223.156 18.5804L223.9 16.2987H224.685L223.277 20.4323H222.379Z" fill="white"/>
<rect x="151.5" y="1.5" width="85.5833" height="31.0419" rx="6.5" stroke="#FF0000" stroke-width="3"/>
</svg>
