<svg width="235" height="34" viewBox="0 0 235 34" fill="none" xmlns="http://www.w3.org/2000/svg">
<rect x="83.9307" y="10" width="72.0863" height="19.0845" rx="9.54225" fill="#0066FF"/>
<path d="M99.2181 21.2191H98.3657C97.7627 21.2191 97.2686 20.8072 97.2686 20.2996C97.2686 20.1488 97.4227 20.0238 97.6086 20.0238C97.7945 20.0238 97.9486 20.1488 97.9486 20.2996C97.9486 20.5019 98.1345 20.6674 98.3657 20.6674H99.2181C99.3949 20.6674 99.5354 20.5387 99.5354 20.3805C99.5354 20.1819 99.4674 20.1525 99.3133 20.1083L97.9486 19.7221C97.6585 19.6375 97.2686 19.4684 97.2686 18.9277C97.2686 18.4679 97.7174 18.0891 98.266 18.0891H99.1183C99.7213 18.0891 100.215 18.501 100.215 19.0086C100.215 19.1594 100.061 19.2844 99.8755 19.2844C99.6896 19.2844 99.5354 19.1594 99.5354 19.0086C99.5354 18.8063 99.3495 18.6408 99.1183 18.6408H98.266C98.0892 18.6408 97.9486 18.7695 97.9486 18.9277C97.9486 19.1263 98.0166 19.1557 98.1708 19.1998L99.5354 19.5861C99.8256 19.6706 100.215 19.8398 100.215 20.3805C100.215 20.844 99.7666 21.2191 99.2181 21.2191Z" fill="white"/>
<path d="M98.7424 21.587C98.5565 21.587 98.4023 21.4619 98.4023 21.3111V18.0008C98.4023 17.85 98.5565 17.7249 98.7424 17.7249C98.9283 17.7249 99.0824 17.85 99.0824 18.0008V21.3111C99.0824 21.4619 98.9283 21.587 98.7424 21.587Z" fill="white"/>
<path d="M98.7424 23.61C96.0539 23.61 93.8687 21.8371 93.8687 19.656C93.8687 17.4748 96.0539 15.702 98.7424 15.702C98.9283 15.702 99.0824 15.827 99.0824 15.9778C99.0824 16.1286 98.9283 16.2537 98.7424 16.2537C96.4302 16.2537 94.5487 17.7801 94.5487 19.656C94.5487 21.5318 96.4302 23.0583 98.7424 23.0583C101.055 23.0583 102.936 21.5318 102.936 19.656C102.936 19.5052 103.09 19.3801 103.276 19.3801C103.462 19.3801 103.616 19.5052 103.616 19.656C103.616 21.8371 101.431 23.61 98.7424 23.61Z" fill="white"/>
<path d="M103.276 17.7249C103.09 17.7249 102.936 17.5999 102.936 17.4491V16.2537H101.463C101.277 16.2537 101.123 16.1286 101.123 15.9778C101.123 15.827 101.277 15.702 101.463 15.702H103.276C103.462 15.702 103.616 15.827 103.616 15.9778V17.4491C103.616 17.5999 103.462 17.7249 103.276 17.7249Z" fill="white"/>
<path d="M101.009 18.0928C100.923 18.0928 100.837 18.067 100.769 18.0118C100.638 17.9052 100.638 17.7286 100.769 17.622L103.036 15.7829C103.167 15.6762 103.385 15.6762 103.516 15.7829C103.648 15.8895 103.648 16.0661 103.516 16.1728L101.25 18.0118C101.182 18.067 101.095 18.0928 101.009 18.0928Z" fill="white"/>
<path d="M112.556 22.5731H111.762V17.6248H109.623V17.0591H114.686V17.6248H112.556V22.5731Z" fill="white"/>
<path d="M117.912 18.364C118.014 18.364 118.121 18.3691 118.233 18.3791C118.344 18.3867 118.443 18.398 118.53 18.4131L118.433 18.9939C118.349 18.9763 118.256 18.9625 118.154 18.9524C118.051 18.9423 117.955 18.9373 117.865 18.9373C117.661 18.9373 117.467 18.9713 117.284 19.0392C117.105 19.1045 116.947 19.2001 116.81 19.3258C116.674 19.449 116.567 19.5986 116.489 19.7746C116.412 19.9481 116.373 20.1417 116.373 20.3554V22.5731H115.597V18.4395H116.238L116.322 19.2013H116.355C116.46 19.048 116.587 18.9084 116.736 18.7827C116.885 18.6545 117.057 18.5526 117.252 18.4772C117.45 18.4018 117.67 18.364 117.912 18.364Z" fill="white"/>
<path d="M121.399 18.3716C122.006 18.3716 122.457 18.4822 122.751 18.7035C123.046 18.9247 123.193 19.278 123.193 19.7633V22.5731H122.631L122.482 21.9621H122.445C122.302 22.113 122.153 22.2399 121.998 22.343C121.843 22.4436 121.664 22.5203 121.459 22.5731C121.258 22.6234 121.01 22.6485 120.715 22.6485C120.405 22.6485 120.129 22.6045 119.888 22.5165C119.649 22.4285 119.46 22.2952 119.321 22.1167C119.184 21.9382 119.116 21.7119 119.116 21.4378C119.116 21.0255 119.317 20.7087 119.72 20.4874C120.123 20.2662 120.737 20.1455 121.561 20.1254L122.44 20.0952V19.8425C122.44 19.4854 122.345 19.2353 122.156 19.092C121.967 18.9486 121.701 18.877 121.357 18.877C121.09 18.877 120.836 18.9084 120.594 18.9713C120.353 19.0341 120.123 19.1083 119.906 19.1938L119.669 18.7186C119.899 18.623 120.162 18.5413 120.46 18.4734C120.757 18.4055 121.07 18.3716 121.399 18.3716ZM122.431 20.5364L121.654 20.5629C121.019 20.583 120.571 20.6672 120.311 20.8155C120.05 20.9639 119.92 21.1738 119.92 21.4454C119.92 21.6817 120.009 21.8565 120.185 21.9696C120.362 22.0828 120.596 22.1394 120.887 22.1394C121.34 22.1394 121.71 22.0375 121.998 21.8339C122.287 21.6302 122.431 21.3247 122.431 20.9174V20.5364Z" fill="white"/>
<path d="M127.196 18.364C127.8 18.364 128.257 18.4847 128.567 18.7261C128.877 18.965 129.032 19.3497 129.032 19.8802V22.5731H128.27V19.9217C128.27 19.5772 128.172 19.3195 127.977 19.1485C127.785 18.9775 127.489 18.8921 127.089 18.8921C126.525 18.8921 126.128 19.0216 125.899 19.2805C125.669 19.5395 125.555 19.9154 125.555 20.4082V22.5731H124.783V18.4395H125.406L125.522 19.0354H125.564C125.672 18.8895 125.81 18.7676 125.978 18.6695C126.145 18.569 126.333 18.4935 126.54 18.4432C126.748 18.3904 126.966 18.364 127.196 18.364Z" fill="white"/>
<path d="M133.918 21.4416C133.918 21.7056 133.836 21.9281 133.672 22.1092C133.51 22.2877 133.278 22.4222 132.974 22.5127C132.674 22.6032 132.314 22.6485 131.896 22.6485C131.539 22.6485 131.231 22.6259 130.971 22.5806C130.71 22.5354 130.482 22.4712 130.287 22.3883V21.8112C130.495 21.8942 130.743 21.9696 131.031 22.0375C131.319 22.1054 131.614 22.1394 131.914 22.1394C132.354 22.1394 132.674 22.0815 132.872 21.9659C133.07 21.8502 133.169 21.6931 133.169 21.4944C133.169 21.3813 133.129 21.282 133.049 21.1965C132.971 21.1085 132.839 21.0242 132.653 20.9438C132.467 20.8608 132.21 20.7703 131.882 20.6722C131.556 20.5717 131.274 20.4723 131.036 20.3743C130.8 20.2737 130.617 20.1518 130.487 20.0084C130.36 19.8651 130.296 19.6791 130.296 19.4502C130.296 19.1008 130.47 18.833 130.817 18.6469C131.167 18.4583 131.626 18.364 132.193 18.364C132.5 18.364 132.787 18.3892 133.053 18.4395C133.323 18.4873 133.574 18.5526 133.806 18.6356L133.546 19.1372C133.335 19.0643 133.111 19.0027 132.872 18.9524C132.633 18.9021 132.39 18.877 132.142 18.877C131.786 18.877 131.511 18.9247 131.319 19.0203C131.13 19.1158 131.036 19.2466 131.036 19.4125C131.036 19.5408 131.079 19.6464 131.166 19.7293C131.256 19.8123 131.398 19.8903 131.593 19.9632C131.789 20.0361 132.046 20.1216 132.365 20.2196C132.684 20.3152 132.96 20.4145 133.193 20.5176C133.425 20.6182 133.603 20.7414 133.727 20.8872C133.854 21.0305 133.918 21.2153 133.918 21.4416Z" fill="white"/>
<path d="M137.428 18.9298H136.159V22.5731H135.387V18.9298H134.485V18.6281L135.387 18.4206V18.1453C135.387 17.7983 135.45 17.5167 135.578 17.3005C135.705 17.0817 135.889 16.9208 136.131 16.8177C136.373 16.7146 136.667 16.6631 137.014 16.6631C137.209 16.6631 137.387 16.6769 137.549 16.7046C137.713 16.7322 137.857 16.7637 137.981 16.7989L137.781 17.2929C137.676 17.2653 137.556 17.2401 137.423 17.2175C137.293 17.1924 137.16 17.1798 137.023 17.1798C136.729 17.1798 136.51 17.2577 136.368 17.4136C136.228 17.567 136.159 17.8084 136.159 18.1378V18.4395H137.428V18.9298Z" fill="white"/>
<path d="M140.329 18.364C140.763 18.364 141.134 18.442 141.444 18.5979C141.754 18.7538 141.991 18.9725 142.156 19.2541C142.32 19.5332 142.402 19.8601 142.402 20.2347V20.6232H138.883C138.892 21.1085 139.041 21.4781 139.329 21.732C139.617 21.986 140.023 22.113 140.547 22.113C140.869 22.113 141.155 22.0891 141.403 22.0413C141.65 21.9935 141.908 21.9231 142.174 21.8301V22.3807C141.917 22.4738 141.661 22.5416 141.407 22.5844C141.156 22.6271 140.859 22.6485 140.515 22.6485C140.025 22.6485 139.597 22.568 139.232 22.4071C138.869 22.2437 138.587 22.0048 138.385 21.6905C138.184 21.3762 138.083 20.9915 138.083 20.5364C138.083 20.0914 138.175 19.7067 138.358 19.3824C138.544 19.0555 138.804 18.8041 139.139 18.6281C139.476 18.452 139.873 18.364 140.329 18.364ZM140.319 18.877C139.907 18.877 139.579 18.9864 139.334 19.2051C139.089 19.4238 138.943 19.7293 138.897 20.1216H141.593C141.59 19.8752 141.542 19.6589 141.449 19.4729C141.359 19.2843 141.221 19.1385 141.035 19.0354C140.849 18.9298 140.611 18.877 140.319 18.877Z" fill="white"/>
<path d="M146.028 18.364C146.13 18.364 146.237 18.3691 146.349 18.3791C146.46 18.3867 146.56 18.398 146.646 18.4131L146.549 18.9939C146.465 18.9763 146.372 18.9625 146.27 18.9524C146.168 18.9423 146.072 18.9373 145.982 18.9373C145.777 18.9373 145.583 18.9713 145.401 19.0392C145.221 19.1045 145.063 19.2001 144.926 19.3258C144.79 19.449 144.683 19.5986 144.606 19.7746C144.528 19.9481 144.489 20.1417 144.489 20.3554V22.5731H143.713V18.4395H144.355L144.438 19.2013H144.471C144.576 19.048 144.703 18.9084 144.852 18.7827C145.001 18.6545 145.173 18.5526 145.368 18.4772C145.566 18.4018 145.786 18.364 146.028 18.364Z" fill="white"/>
<rect x="162.139" y="10" width="72.0863" height="19.0845" rx="9.54225" fill="#0066FF"/>
<path d="M178.764 23.8535C178.641 23.8535 178.528 23.7983 178.469 23.7137C178.41 23.6291 178.41 23.5225 178.473 23.4379L178.95 22.7942C179.045 22.6618 179.253 22.6213 179.416 22.6986C179.58 22.7758 179.63 22.945 179.534 23.0774L179.412 23.2429C180.663 23.0038 181.602 22.0916 181.602 21.0029C181.602 20.8521 181.756 20.7271 181.942 20.7271C182.128 20.7271 182.282 20.8521 182.282 21.0029C182.277 22.5735 180.7 23.8535 178.764 23.8535Z" fill="white"/>
<path d="M171.963 18.3363C171.777 18.3363 171.623 18.2112 171.623 18.0604C171.623 16.4898 173.201 15.2098 175.137 15.2098C175.259 15.2098 175.372 15.265 175.431 15.3496C175.49 15.4342 175.49 15.5409 175.427 15.6255L174.951 16.2691C174.856 16.4016 174.647 16.442 174.484 16.3648C174.321 16.2875 174.271 16.1184 174.366 15.9859L174.488 15.8204C173.237 16.0595 172.299 16.9717 172.299 18.0604C172.303 18.2112 172.149 18.3363 171.963 18.3363Z" fill="white"/>
<path d="M175.785 21.0434H174.511C174.325 21.0434 174.171 20.9183 174.171 20.7675V19.9399C174.171 19.7891 174.325 19.6641 174.511 19.6641H175.785C176.238 19.6641 176.637 19.9877 176.637 20.3556C176.637 20.7307 176.252 21.0434 175.785 21.0434ZM174.851 20.4916H175.785C175.88 20.4916 175.957 20.4291 175.957 20.3519C175.957 20.2967 175.88 20.2121 175.785 20.2121H174.851V20.4916Z" fill="white"/>
<path d="M175.966 21.8709H174.507C174.321 21.8709 174.167 21.7459 174.167 21.5951V20.7675C174.167 20.6167 174.321 20.4916 174.507 20.4916H175.966C176.474 20.4916 176.891 20.8006 176.891 21.1831C176.891 21.5657 176.479 21.8709 175.966 21.8709ZM174.851 21.3192H175.971C176.116 21.3192 176.216 21.2457 176.216 21.1794C176.216 21.1132 176.116 21.0397 175.971 21.0397H174.851V21.3192Z" fill="white"/>
<path d="M175.327 22.2829C175.141 22.2829 174.987 22.1578 174.987 22.007V21.5914C174.987 21.4406 175.141 21.3156 175.327 21.3156C175.513 21.3156 175.667 21.4406 175.667 21.5914V22.007C175.667 22.1615 175.513 22.2829 175.327 22.2829Z" fill="white"/>
<path d="M175.327 20.2121C175.141 20.2121 174.987 20.087 174.987 19.9362V19.5206C174.987 19.3698 175.141 19.2448 175.327 19.2448C175.513 19.2448 175.667 19.3698 175.667 19.5206V19.9362C175.667 20.0907 175.513 20.2121 175.327 20.2121Z" fill="white"/>
<path d="M175.441 23.3127C173.709 23.3127 172.303 22.1688 172.303 20.7675C172.303 19.3661 173.713 18.2222 175.441 18.2222C175.522 18.2222 175.595 18.2259 175.676 18.2295C177.213 18.3252 178.455 19.333 178.569 20.5725C178.573 20.6534 178.578 20.7086 178.578 20.7675C178.582 22.1688 177.172 23.3127 175.441 23.3127ZM175.441 18.7702C174.085 18.7702 172.983 19.664 172.983 20.7638C172.983 21.8635 174.085 22.7573 175.441 22.7573C176.796 22.7573 177.902 21.8635 177.902 20.7638C177.902 20.716 177.898 20.6681 177.893 20.6203C177.803 19.6346 176.828 18.8475 175.631 18.7739C175.572 18.7739 175.509 18.7702 175.441 18.7702Z" fill="white"/>
<path d="M178.46 20.8668H178.238C178.061 20.8668 177.912 20.7564 177.898 20.613C177.807 19.6383 176.837 18.8512 175.636 18.7776C175.459 18.7666 175.323 18.6452 175.323 18.5017V18.3215C175.323 16.9165 176.733 15.7762 178.465 15.7762C180.197 15.7762 181.602 16.9201 181.602 18.3215C181.602 19.7229 180.187 20.8668 178.46 20.8668ZM175.998 18.259C177.277 18.4466 178.301 19.2741 178.533 20.3151C179.856 20.282 180.917 19.3992 180.917 18.3215C180.917 17.2217 179.816 16.328 178.46 16.328C177.127 16.3243 176.039 17.185 175.998 18.259Z" fill="white"/>
<path d="M196.343 16.9258L194.525 22.4398H193.73L192.382 18.7286C192.342 18.623 192.303 18.5174 192.266 18.4118C192.232 18.3037 192.199 18.2018 192.168 18.1063C192.137 18.0082 192.111 17.9228 192.089 17.8498C192.071 17.7744 192.057 17.7178 192.048 17.6801C192.041 17.7178 192.029 17.7732 192.01 17.8461C191.995 17.919 191.973 18.0032 191.945 18.0988C191.92 18.1943 191.889 18.2961 191.852 18.4043C191.818 18.5124 191.781 18.6217 191.741 18.7324L190.43 22.4398H189.635L187.831 16.9258H188.654L189.746 20.3843C189.784 20.5 189.818 20.6144 189.849 20.7275C189.883 20.8381 189.912 20.9463 189.937 21.0519C189.965 21.1575 189.99 21.2606 190.011 21.3611C190.033 21.4617 190.053 21.5598 190.072 21.6553C190.087 21.5573 190.107 21.4554 190.132 21.3498C190.157 21.2417 190.183 21.1323 190.211 21.0217C190.242 20.9111 190.275 20.7992 190.309 20.686C190.346 20.5729 190.385 20.4597 190.425 20.3466L191.648 16.9258H192.461L193.735 20.373C193.778 20.4912 193.819 20.6081 193.856 20.7237C193.893 20.8394 193.926 20.9526 193.954 21.0632C193.985 21.1713 194.011 21.2756 194.033 21.3762C194.057 21.4743 194.079 21.5673 194.098 21.6553C194.119 21.5321 194.146 21.4026 194.177 21.2668C194.208 21.1311 194.243 20.989 194.284 20.8407C194.327 20.6923 194.374 20.5389 194.423 20.3805L195.516 16.9258H196.343Z" fill="white"/>
<path d="M198.072 18.3062V22.4398H197.301V18.3062H198.072ZM197.696 16.7599C197.823 16.7599 197.931 16.7938 198.021 16.8617C198.114 16.9271 198.161 17.0302 198.161 17.171C198.161 17.3093 198.114 17.4123 198.021 17.4802C197.931 17.5481 197.823 17.5821 197.696 17.5821C197.563 17.5821 197.451 17.5481 197.361 17.4802C197.274 17.4123 197.231 17.3093 197.231 17.171C197.231 17.0302 197.274 16.9271 197.361 16.8617C197.451 16.7938 197.563 16.7599 197.696 16.7599Z" fill="white"/>
<path d="M201.355 22.0023C201.482 22.0023 201.612 21.9935 201.745 21.9759C201.878 21.9583 201.987 21.9369 202.07 21.9118V22.3983C201.981 22.431 201.855 22.4587 201.694 22.4813C201.536 22.5039 201.381 22.5152 201.229 22.5152C200.959 22.5152 200.715 22.4775 200.495 22.4021C200.274 22.3241 200.098 22.1934 199.965 22.0098C199.834 21.8263 199.769 21.5723 199.769 21.248V18.7965H199.044V18.491L199.774 18.2458L200.081 17.3482H200.546V18.3062H202.038V18.7965H200.546V21.2291C200.546 21.4881 200.618 21.6817 200.764 21.8099C200.913 21.9382 201.11 22.0023 201.355 22.0023Z" fill="white"/>
<path d="M203.874 16.5713V18.3251C203.874 18.4256 203.871 18.5275 203.865 18.6305C203.859 18.7311 203.848 18.8242 203.832 18.9096H203.884C203.989 18.7638 204.122 18.6419 204.283 18.5438C204.448 18.4432 204.634 18.3678 204.841 18.3175C205.049 18.2647 205.269 18.2383 205.501 18.2383C205.91 18.2383 206.251 18.2911 206.524 18.3967C206.8 18.5023 207.006 18.6657 207.142 18.887C207.282 19.1083 207.352 19.3949 207.352 19.7469V22.4398H206.589V19.7884C206.589 19.4439 206.492 19.1862 206.296 19.0152C206.104 18.8443 205.808 18.7588 205.408 18.7588C205.03 18.7588 204.728 18.8179 204.502 18.936C204.279 19.0517 204.118 19.2227 204.018 19.449C203.922 19.6753 203.874 19.9518 203.874 20.2787V22.4398H203.103V16.5713H203.874Z" fill="white"/>
<path d="M210.755 22.5152C210.11 22.5152 209.599 22.3367 209.22 21.9797C208.845 21.6226 208.658 21.0921 208.658 20.3881C208.658 19.6765 208.85 19.1397 209.234 18.7776C209.619 18.4131 210.13 18.2308 210.768 18.2308C211.038 18.2308 211.274 18.2597 211.475 18.3175C211.677 18.3753 211.85 18.4533 211.996 18.5513C212.141 18.6469 212.264 18.7563 212.363 18.8795H212.419C212.406 18.8015 212.394 18.6947 212.382 18.5589C212.369 18.4231 212.363 18.3125 212.363 18.227V16.5713H213.135V22.4398H212.512L212.396 21.8514H212.363C212.267 21.9746 212.145 22.0865 211.996 22.1871C211.85 22.2877 211.675 22.3681 211.47 22.4285C211.269 22.4863 211.03 22.5152 210.755 22.5152ZM210.875 21.9948C211.421 21.9948 211.807 21.869 212.033 21.6176C212.259 21.3662 212.372 20.9928 212.372 20.4975V20.3843C212.372 19.8588 212.264 19.4553 212.047 19.1736C211.833 18.892 211.443 18.7512 210.875 18.7512C210.401 18.7512 210.046 18.8996 209.811 19.1963C209.575 19.4905 209.457 19.8928 209.457 20.4032C209.457 20.9111 209.574 21.3033 209.806 21.5799C210.042 21.8565 210.398 21.9948 210.875 21.9948Z" fill="white"/>
<path d="M217.086 18.2308C217.189 18.2308 217.295 18.2358 217.407 18.2458C217.519 18.2534 217.618 18.2647 217.705 18.2798L217.607 18.8606C217.523 18.843 217.43 18.8292 217.328 18.8191C217.226 18.8091 217.13 18.804 217.04 18.804C216.835 18.804 216.642 18.838 216.459 18.9059C216.279 18.9712 216.121 19.0668 215.984 19.1925C215.848 19.3157 215.741 19.4653 215.664 19.6413C215.586 19.8148 215.547 20.0084 215.547 20.2221V22.4398H214.771V18.3062H215.413L215.496 19.068H215.529C215.634 18.9147 215.761 18.7751 215.91 18.6494C216.059 18.5212 216.231 18.4193 216.426 18.3439C216.624 18.2685 216.845 18.2308 217.086 18.2308Z" fill="white"/>
<path d="M220.573 18.2383C221.18 18.2383 221.631 18.3489 221.926 18.5702C222.22 18.7915 222.367 19.1447 222.367 19.63V22.4398H221.805L221.656 21.8288H221.619C221.476 21.9797 221.328 22.1066 221.173 22.2097C221.018 22.3103 220.838 22.387 220.633 22.4398C220.432 22.4901 220.184 22.5152 219.889 22.5152C219.58 22.5152 219.304 22.4712 219.062 22.3832C218.823 22.2952 218.634 22.162 218.495 21.9834C218.358 21.8049 218.29 21.5786 218.29 21.3046C218.29 20.8922 218.492 20.5754 218.895 20.3541C219.298 20.1329 219.911 20.0122 220.736 19.9921L221.614 19.9619V19.7092C221.614 19.3522 221.52 19.102 221.331 18.9587C221.142 18.8154 220.875 18.7437 220.531 18.7437C220.265 18.7437 220.01 18.7751 219.769 18.838C219.527 18.9008 219.298 18.975 219.081 19.0605L218.844 18.5853C219.073 18.4897 219.336 18.408 219.634 18.3401C219.931 18.2723 220.244 18.2383 220.573 18.2383ZM221.605 20.4032L220.829 20.4296C220.193 20.4497 219.745 20.5339 219.485 20.6823C219.225 20.8306 219.095 21.0406 219.095 21.3121C219.095 21.5485 219.183 21.7232 219.36 21.8363C219.536 21.9495 219.77 22.0061 220.062 22.0061C220.514 22.0061 220.884 21.9042 221.173 21.7006C221.461 21.4969 221.605 21.1914 221.605 20.7841V20.4032Z" fill="white"/>
<path d="M228.104 22.4323L227.197 20.026C227.157 19.9229 227.118 19.8223 227.081 19.7243C227.047 19.6237 227.015 19.5282 226.984 19.4377C226.956 19.3446 226.929 19.2591 226.905 19.1812C226.883 19.1007 226.864 19.0316 226.849 18.9738H226.816C226.804 19.0316 226.787 19.1007 226.765 19.1812C226.743 19.2591 226.717 19.3446 226.686 19.4377C226.658 19.5307 226.627 19.6287 226.593 19.7318C226.559 19.8324 226.52 19.9342 226.477 20.0373L225.529 22.4323H224.659L223.255 18.2987H224.055L224.789 20.5804C224.839 20.7313 224.885 20.8809 224.929 21.0292C224.975 21.1751 225.014 21.3134 225.045 21.4441C225.079 21.5723 225.104 21.6842 225.119 21.7798H225.157C225.175 21.7169 225.195 21.6415 225.217 21.5535C225.242 21.4655 225.268 21.3724 225.296 21.2744C225.327 21.1738 225.36 21.0745 225.394 20.9764C225.428 20.8759 225.462 20.7816 225.496 20.6936L226.435 18.2987H227.267L228.174 20.6898C228.22 20.8105 228.265 20.9362 228.309 21.067C228.355 21.1977 228.397 21.3247 228.434 21.4479C228.471 21.5686 228.498 21.6767 228.513 21.7722H228.55C228.563 21.6867 228.586 21.5811 228.62 21.4554C228.654 21.3297 228.693 21.1914 228.736 21.0406C228.783 20.8897 228.831 20.7363 228.88 20.5804L229.624 18.2987H230.41L229.001 22.4323H228.104Z" fill="white"/>
<rect x="5.72363" y="10" width="72.0863" height="19.0845" rx="9.54225" fill="#0066FF"/>
<path d="M36.5057 21.4876H35.7107V16.5394H33.5723V15.9736H38.6349V16.5394H36.5057V21.4876Z" fill="white"/>
<path d="M43.9392 19.4133C43.9392 19.7527 43.885 20.0557 43.7765 20.3222C43.668 20.5887 43.5115 20.8138 43.3069 20.9973C43.1024 21.1809 42.8545 21.3217 42.5631 21.4197C42.2749 21.5153 41.9479 21.563 41.5822 21.563C41.2413 21.563 40.9283 21.5153 40.6432 21.4197C40.3611 21.3217 40.1163 21.1809 39.9086 20.9973C39.7041 20.8138 39.5445 20.5887 39.4298 20.3222C39.3182 20.0557 39.2625 19.7527 39.2625 19.4133C39.2625 18.9607 39.357 18.576 39.546 18.2592C39.7351 17.9399 40.0047 17.6972 40.3549 17.5313C40.7082 17.3628 41.1282 17.2786 41.6148 17.2786C42.0797 17.2786 42.4857 17.3628 42.8328 17.5313C43.183 17.6997 43.4542 17.9436 43.6463 18.263C43.8416 18.5798 43.9392 18.9632 43.9392 19.4133ZM40.0621 19.4133C40.0621 19.7452 40.1163 20.0331 40.2248 20.277C40.3332 20.5208 40.5006 20.7094 40.7268 20.8427C40.9531 20.9759 41.2444 21.0426 41.6008 21.0426C41.9541 21.0426 42.2439 20.9759 42.4702 20.8427C42.6995 20.7094 42.8684 20.5208 42.9769 20.277C43.0854 20.0331 43.1396 19.7452 43.1396 19.4133C43.1396 19.0839 43.0854 18.7998 42.9769 18.5609C42.8684 18.3195 42.701 18.1335 42.4748 18.0027C42.2486 17.872 41.9557 17.8066 41.5962 17.8066C41.0662 17.8066 40.6773 17.9487 40.4293 18.2328C40.1845 18.5169 40.0621 18.9104 40.0621 19.4133Z" fill="white"/>
<path d="M47.6676 17.2786C48.3029 17.2786 48.8096 17.4558 49.1877 17.8104C49.5658 18.1649 49.7549 18.6979 49.7549 19.4095C49.7549 19.8797 49.6681 20.2744 49.4946 20.5938C49.321 20.9131 49.0762 21.1545 48.76 21.3179C48.447 21.4813 48.0767 21.563 47.649 21.563C47.3793 21.563 47.1422 21.5341 46.9377 21.4763C46.7331 21.4185 46.558 21.3405 46.4124 21.2425C46.2667 21.1444 46.1458 21.0375 46.0498 20.9219H45.994C46.0033 21.0199 46.0141 21.1381 46.0265 21.2764C46.042 21.4147 46.0498 21.5354 46.0498 21.6385V23.3357H45.2734V17.354H45.9103L46.0126 17.965H46.0498C46.1489 17.8393 46.2698 17.7249 46.4124 17.6218C46.5549 17.5162 46.7285 17.4332 46.933 17.3729C47.1407 17.31 47.3855 17.2786 47.6676 17.2786ZM47.5327 17.8066C47.1794 17.8066 46.8943 17.8619 46.6774 17.9725C46.4635 18.0832 46.307 18.2491 46.2078 18.4704C46.1087 18.6891 46.056 18.9645 46.0498 19.2964V19.417C46.0498 19.7665 46.0963 20.062 46.1892 20.3034C46.2853 20.5447 46.4418 20.7283 46.6588 20.854C46.8788 20.9797 47.1732 21.0426 47.542 21.0426C47.8582 21.0426 48.1216 20.9734 48.3324 20.8351C48.5431 20.6968 48.6996 20.5045 48.8019 20.2581C48.9073 20.0092 48.9599 19.7238 48.9599 19.402C48.9599 18.9142 48.8422 18.527 48.6066 18.2403C48.3742 17.9512 48.0162 17.8066 47.5327 17.8066Z" fill="white"/>
<path d="M57.7835 17.354V21.4876H57.1512L57.0396 20.9068H56.9978C56.8924 21.0501 56.7561 21.1708 56.5887 21.2689C56.4213 21.3669 56.2323 21.4398 56.0215 21.4876C55.8139 21.5379 55.5923 21.563 55.3568 21.563C54.9539 21.563 54.616 21.5102 54.3433 21.4046C54.0706 21.299 53.8645 21.1356 53.725 20.9143C53.5886 20.6931 53.5205 20.409 53.5205 20.062V17.354H54.3015V20.0167C54.3015 20.3612 54.3975 20.6189 54.5897 20.7899C54.7819 20.9583 55.0747 21.0426 55.4683 21.0426C55.8464 21.0426 56.1471 20.9847 56.3702 20.8691C56.5964 20.7534 56.7592 20.5837 56.8583 20.3599C56.9575 20.1336 57.0071 19.8571 57.0071 19.5302V17.354H57.7835Z" fill="white"/>
<path d="M61.8094 17.2786C62.4447 17.2786 62.9514 17.4558 63.3295 17.8104C63.7076 18.1649 63.8967 18.6979 63.8967 19.4095C63.8967 19.8797 63.8099 20.2744 63.6364 20.5938C63.4628 20.9131 63.218 21.1545 62.9018 21.3179C62.5888 21.4813 62.2185 21.563 61.7908 21.563C61.5211 21.563 61.284 21.5341 61.0795 21.4763C60.8749 21.4185 60.6998 21.3405 60.5542 21.2425C60.4085 21.1444 60.2876 21.0375 60.1916 20.9219H60.1358C60.1451 21.0199 60.1559 21.1381 60.1683 21.2764C60.1838 21.4147 60.1916 21.5354 60.1916 21.6385V23.3357H59.4152V17.354H60.0521L60.1544 17.965H60.1916C60.2907 17.8393 60.4116 17.7249 60.5542 17.6218C60.6967 17.5162 60.8703 17.4332 61.0748 17.3729C61.2825 17.31 61.5273 17.2786 61.8094 17.2786ZM61.6745 17.8066C61.3212 17.8066 61.0361 17.8619 60.8192 17.9725C60.6053 18.0832 60.4488 18.2491 60.3496 18.4704C60.2504 18.6891 60.1978 18.9645 60.1916 19.2964V19.417C60.1916 19.7665 60.238 20.062 60.331 20.3034C60.4271 20.5447 60.5836 20.7283 60.8006 20.854C61.0206 20.9797 61.315 21.0426 61.6838 21.0426C62 21.0426 62.2634 20.9734 62.4741 20.8351C62.6849 20.6968 62.8414 20.5045 62.9437 20.2581C63.049 20.0092 63.1017 19.7238 63.1017 19.402C63.1017 18.9142 62.984 18.527 62.7484 18.2403C62.516 17.9512 62.158 17.8066 61.6745 17.8066Z" fill="white"/>
<path d="M25.8524 24.1334C23.1345 24.1334 20.9253 22.1251 20.9253 19.6543C20.9253 17.1834 23.1345 15.1751 25.8524 15.1751C26.0403 15.1751 26.1961 15.3168 26.1961 15.4876C26.1961 15.6584 26.0403 15.8001 25.8524 15.8001C23.5149 15.8001 21.6128 17.5293 21.6128 19.6543C21.6128 21.7793 23.5149 23.5084 25.8524 23.5084C28.1899 23.5084 30.092 21.7793 30.092 19.6543C30.092 19.4834 30.2478 19.3418 30.4357 19.3418C30.6236 19.3418 30.7795 19.4834 30.7795 19.6543C30.7795 22.1251 28.5703 24.1334 25.8524 24.1334Z" fill="white"/>
<rect x="2.23926" y="1.96582" width="79.8431" height="30.0025" rx="6.5" stroke="#FF0000" stroke-width="3"/>
<line x1="26.3" y1="17" x2="26.3" y2="22" stroke="white" stroke-width="0.6"/>
<line x1="28.9946" y1="19.3813" x2="23.9953" y2="19.3" stroke="white" stroke-width="0.6"/>
</svg>
