<svg width="97" height="88" viewBox="0 0 97 88" fill="none" xmlns="http://www.w3.org/2000/svg">
<path d="M86.8056 16.9082C86.8056 36.1221 96.7583 49.3166 96.7583 58.5749C96.7583 67.8332 91.4361 87.2777 48.8444 87.2777C6.25278 87.2777 0 61.1193 0 50.936C0 3.24989 86.8056 -17.1196 86.8056 16.9082V16.9082Z" fill="#EFEFEF"/>
<path d="M76.1999 11.5128C73.9026 11.5128 72.0332 9.64333 72.0332 7.34611C72.0332 5.04889 73.9026 3.17944 76.1999 3.17944C78.4971 3.17944 80.3665 5.04889 80.3665 7.34611C80.3665 9.64333 78.4971 11.5128 76.1999 11.5128ZM76.1999 5.95722C75.436 5.95722 74.811 6.57944 74.811 7.34611C74.811 8.11278 75.436 8.735 76.1999 8.735C76.9638 8.735 77.5888 8.11278 77.5888 7.34611C77.5888 6.57944 76.9638 5.95722 76.1999 5.95722Z" fill="#0066FF"/>
<path d="M84.5339 63.6168C82.2366 63.6168 80.3672 61.7473 80.3672 59.4501C80.3672 57.1529 82.2366 55.2834 84.5339 55.2834C86.8311 55.2834 88.7005 57.1529 88.7005 59.4501C88.7005 61.7473 86.8311 63.6168 84.5339 63.6168ZM84.5339 58.0612C83.77 58.0612 83.145 58.6834 83.145 59.4501C83.145 60.2168 83.77 60.839 84.5339 60.839C85.2977 60.839 85.9227 60.2168 85.9227 59.4501C85.9227 58.6834 85.2977 58.0612 84.5339 58.0612Z" fill="#0066FF"/>
<path d="M49.5002 17.0833C44.1074 17.0833 38.9356 19.2255 35.1223 23.0387C31.3091 26.852 29.1668 32.0239 29.1668 37.4166C29.1668 47.6595 36.7918 56.2758 46.9585 57.572V60.2916H44.4168C43.7427 60.2916 43.0963 60.5594 42.6196 61.036C42.1429 61.5127 41.8752 62.1592 41.8752 62.8333H24.0835V67.9166H41.8752C41.8752 68.5907 42.1429 69.2372 42.6196 69.7138C43.0963 70.1905 43.7427 70.4583 44.4168 70.4583H54.5835C55.2576 70.4583 55.9041 70.1905 56.3807 69.7138C56.8574 69.2372 57.1252 68.5907 57.1252 67.9166H74.9168V62.8333H57.1252C57.1252 62.1592 56.8574 61.5127 56.3807 61.036C55.9041 60.5594 55.2576 60.2916 54.5835 60.2916H52.0418V57.572C62.2085 56.3012 69.8335 47.6595 69.8335 37.4166C69.8335 32.0239 67.6912 26.852 63.878 23.0387C60.0648 19.2255 54.8929 17.0833 49.5002 17.0833ZM49.5002 22.1666C49.5002 22.1666 51.381 25.4199 52.7027 29.7916H46.2977C47.6193 25.4199 49.5002 22.1666 49.5002 22.1666ZM43.8322 23.2595C43.146 24.5303 42.1039 26.8433 41.2143 29.7916H36.3089C38.0627 26.8433 40.6043 24.5303 43.8322 23.2595ZM55.1681 23.2849C58.396 24.5558 60.9377 26.8433 62.6914 29.7916H57.786C56.8964 26.8433 55.8543 24.5303 55.1681 23.2849ZM34.4789 34.8749H40.1468C40.0452 35.7137 39.9689 36.5524 39.9689 37.4166C39.9689 38.2808 40.0452 39.1195 40.1468 39.9583H34.4789C34.3264 39.1195 34.2502 38.2808 34.2502 37.4166C34.2502 36.5524 34.3264 35.7137 34.4789 34.8749ZM45.2302 34.8749H53.7702C53.8718 35.7137 53.9481 36.5524 53.9481 37.4166C53.9481 38.2808 53.8718 39.1195 53.7702 39.9583H45.2302C45.1285 39.1195 45.0522 38.2808 45.0522 37.4166C45.0522 36.5524 45.1285 35.7137 45.2302 34.8749ZM58.8535 34.8749H64.5214C64.6739 35.7137 64.7502 36.5524 64.7502 37.4166C64.7502 38.2808 64.6739 39.1195 64.5214 39.9583H58.8535C58.9552 39.1195 59.0314 38.2808 59.0314 37.4166C59.0314 36.5524 58.9552 35.7137 58.8535 34.8749ZM36.3089 45.0416H41.2143C42.1039 47.9899 43.146 50.3028 43.8322 51.5483C40.6043 50.2774 38.0627 47.9899 36.3089 45.0416ZM46.2977 45.0416H52.7027C51.381 49.4133 49.5002 52.6666 49.5002 52.6666C49.5002 52.6666 47.6193 49.4133 46.2977 45.0416ZM57.786 45.0416H62.6914C60.9377 47.9899 58.396 50.3028 55.1681 51.5737C55.8543 50.3028 57.786 45.0416 57.786 45.0416Z" fill="#0066FF"/>
<rect x="23.4365" y="61.9092" width="52.1273" height="6.65455" fill="black"/>
<rect x="41.1816" y="59.6909" width="16.6364" height="11.0909" rx="2" fill="#0A0A0A"/>
</svg>
