<svg width="94" height="121" viewBox="0 0 94 121" fill="none" xmlns="http://www.w3.org/2000/svg">
<path d="M70.3141 26.2574C51.435 26.6532 38.2883 15.9321 29.19 16.1254C20.0916 16.3187 -0.761969 33.3112 0.0214781 80.3536C0.804926 127.396 56.0949 128.377 56.0949 109.473C102.949 108.488 103.746 25.5547 70.3141 26.2574Z" fill="#EFEFEF"/>
<path d="M17.3239 92.1285L12.4999 83.9871C11.4348 82.1895 11.641 80.0961 12.9601 79.3145L7.58313 82.5005C6.26398 83.2821 6.05782 85.3754 7.12296 87.1731L11.9469 95.3145C13.0121 97.1121 14.9472 97.9367 16.2663 97.1551L21.6433 93.9691C20.3241 94.7507 18.3891 93.9261 17.3239 92.1285Z" fill="#0066FF"/>
<path d="M92.4077 53.188C92.4077 56.2545 89.9218 58.7405 86.8552 58.7405C83.7887 58.7405 81.3027 56.2545 81.3027 53.188C81.3027 50.1214 83.7887 47.6355 86.8552 47.6355C89.9218 47.6355 92.4077 50.1214 92.4077 53.188ZM83.6353 53.188C83.6353 54.9663 85.0769 56.4079 86.8552 56.4079C88.6336 56.4079 90.0752 54.9663 90.0752 53.188C90.0752 51.4097 88.6336 49.968 86.8552 49.968C85.0769 49.968 83.6353 51.4097 83.6353 53.188Z" fill="#0066FF"/>
<circle cx="42.8826" cy="5.55249" r="5.55249" fill="#0066FF"/>
<path d="M30.6667 45C28.0767 45 26 47.1 26 49.6667V82.3333C26 83.571 26.4917 84.758 27.3668 85.6332C28.242 86.5083 29.429 87 30.6667 87H63.3333C64.571 87 65.758 86.5083 66.6332 85.6332C67.5083 84.758 68 83.571 68 82.3333V77.0133C69.3767 76.1967 70.3333 74.7267 70.3333 73V59C70.3333 57.2733 69.3767 55.8033 68 54.9867V49.6667C68 48.429 67.5083 47.242 66.6332 46.3668C65.758 45.4917 64.571 45 63.3333 45H30.6667ZM30.6667 49.6667H63.3333V54.3333H49.3333C48.0957 54.3333 46.9087 54.825 46.0335 55.7002C45.1583 56.5753 44.6667 57.7623 44.6667 59V73C44.6667 74.2377 45.1583 75.4247 46.0335 76.2998C46.9087 77.175 48.0957 77.6667 49.3333 77.6667H63.3333V82.3333H30.6667V49.6667ZM49.3333 59H65.6667V73H49.3333V59ZM56.3333 62.5C55.4051 62.5 54.5148 62.8687 53.8585 63.5251C53.2021 64.1815 52.8333 65.0717 52.8333 66C52.8333 66.9283 53.2021 67.8185 53.8585 68.4749C54.5148 69.1313 55.4051 69.5 56.3333 69.5C57.2616 69.5 58.1518 69.1313 58.8082 68.4749C59.4646 67.8185 59.8333 66.9283 59.8333 66C59.8333 65.0717 59.4646 64.1815 58.8082 63.5251C58.1518 62.8687 57.2616 62.5 56.3333 62.5Z" fill="black"/>
</svg>
