<svg width="71" height="78" viewBox="0 0 71 78" fill="none" xmlns="http://www.w3.org/2000/svg">
<path fill-rule="evenodd" clip-rule="evenodd" d="M35.5194 16.0916C20.1433 16.0916 7.6543 28.6262 7.6543 44.1183C7.6543 59.6105 20.1433 72.1451 35.5194 72.1451C39.0454 72.1451 42.4125 71.4877 45.5106 70.2904C46.8951 69.7554 48.4512 70.444 48.9862 71.8285C49.5213 73.2129 48.8327 74.769 47.4482 75.3041C43.7422 76.7363 39.7188 77.5201 35.5194 77.5201C17.1481 77.5201 2.2793 62.5522 2.2793 44.1183C2.2793 25.6844 17.1481 10.7166 35.5194 10.7166C53.8908 10.7166 68.7596 25.6844 68.7596 44.1183C68.7596 51.2852 66.5102 57.9332 62.6809 63.3773C61.827 64.5913 60.1506 64.8832 58.9366 64.0293C57.7226 63.1754 57.4307 61.499 58.2846 60.2849C61.4967 55.7183 63.3846 50.1446 63.3846 44.1183C63.3846 28.6262 50.8956 16.0916 35.5194 16.0916Z" fill="#0066FF"/>
<path fill-rule="evenodd" clip-rule="evenodd" d="M55.6901 8.08683C56.7424 7.04007 58.444 7.04456 59.4908 8.09686L69.675 18.335C70.7218 19.3873 70.7173 21.0889 69.665 22.1356C68.6127 23.1824 66.9111 23.1779 65.8643 22.1256L55.6801 11.8875C54.6333 10.8352 54.6378 9.13359 55.6901 8.08683Z" fill="#0066FF"/>
<path fill-rule="evenodd" clip-rule="evenodd" d="M15.3489 8.08683C14.2966 7.04007 12.595 7.04456 11.5483 8.09686L1.36404 18.335C0.317282 19.3873 0.321773 21.0889 1.37407 22.1356C2.42637 23.1824 4.128 23.1779 5.17476 22.1256L15.359 11.8875C16.4057 10.8352 16.4012 9.13359 15.3489 8.08683Z" fill="#0066FF"/>
<path fill-rule="evenodd" clip-rule="evenodd" d="M35.5195 2.18506C37.0038 2.18506 38.207 3.38829 38.207 4.87256V13.4043C38.207 14.8886 37.0038 16.0918 35.5195 16.0918C34.0353 16.0918 32.832 14.8886 32.832 13.4043V4.87256C32.832 3.38829 34.0353 2.18506 35.5195 2.18506Z" fill="#0066FF"/>
<path fill-rule="evenodd" clip-rule="evenodd" d="M26.0425 3.16675C26.0425 1.68248 27.2457 0.479248 28.73 0.479248H42.3089C43.7932 0.479248 44.9964 1.68248 44.9964 3.16675C44.9964 4.65101 43.7932 5.85425 42.3089 5.85425H28.73C27.2457 5.85425 26.0425 4.65101 26.0425 3.16675Z" fill="#0066FF"/>
<path fill-rule="evenodd" clip-rule="evenodd" d="M35.5195 19.2498C37.0038 19.2498 38.207 20.453 38.207 21.9373V45.8261C38.207 47.3104 37.0038 48.5136 35.5195 48.5136C34.0353 48.5136 32.832 47.3104 32.832 45.8261V21.9373C32.832 20.453 34.0353 19.2498 35.5195 19.2498Z" fill="#0066FF"/>
</svg>
