<svg width="67" height="87" viewBox="0 0 67 87" fill="none" xmlns="http://www.w3.org/2000/svg">
<path d="M50.3714 19.5006C37.0512 19.7798 27.7756 12.2155 21.3562 12.3519C14.9369 12.4883 0.223623 24.4774 0.776384 57.6682C1.32915 90.8589 40.339 91.5511 40.339 78.2137C73.3969 77.5187 73.9591 19.0048 50.3714 19.5006Z" fill="#EFEFEF"/>
<path d="M12.984 65.976L9.58045 60.2318C8.82894 58.9635 8.9744 57.4866 9.90513 56.9351L6.1114 59.183C5.18067 59.7344 5.03521 61.2114 5.78672 62.4797L9.19029 68.2239C9.94179 69.4922 11.3071 70.074 12.2378 69.5225L16.0315 67.2746C15.1008 67.8261 13.7355 67.2443 12.984 65.976Z" fill="#0066FF"/>
<path d="M65.9596 38.5014C65.9596 40.665 64.2057 42.419 62.0421 42.419C59.8785 42.419 58.1245 40.665 58.1245 38.5014C58.1245 36.3378 59.8785 34.5839 62.0421 34.5839C64.2057 34.5839 65.9596 36.3378 65.9596 38.5014ZM59.7702 38.5014C59.7702 39.7561 60.7874 40.7733 62.0421 40.7733C63.2968 40.7733 64.3139 39.7561 64.3139 38.5014C64.3139 37.2467 63.2968 36.2296 62.0421 36.2296C60.7874 36.2296 59.7702 37.2467 59.7702 38.5014Z" fill="#0066FF"/>
<circle cx="31.0172" cy="4.89217" r="3.91756" fill="#0066FF"/>
<path d="M22.398 32.7244C20.5707 32.7244 19.1055 34.206 19.1055 36.0169V59.0649C19.1055 59.9382 19.4524 60.7756 20.0698 61.3931C20.6873 62.0106 21.5248 62.3575 22.398 62.3575H45.446C46.3193 62.3575 47.1567 62.0106 47.7742 61.3931C48.3917 60.7756 48.7386 59.9382 48.7386 59.0649V55.3114C49.7099 54.7352 50.3849 53.698 50.3849 52.4798V42.6021C50.3849 41.3838 49.7099 40.3467 48.7386 39.7705V36.0169C48.7386 35.1437 48.3917 34.3062 47.7742 33.6887C47.1567 33.0713 46.3193 32.7244 45.446 32.7244H22.398ZM22.398 36.0169H45.446V39.3095H35.5683C34.6951 39.3095 33.8576 39.6564 33.2401 40.2739C32.6226 40.8913 32.2757 41.7288 32.2757 42.6021V52.4798C32.2757 53.353 32.6226 54.1905 33.2401 54.808C33.8576 55.4254 34.6951 55.7723 35.5683 55.7723H45.446V59.0649H22.398V36.0169ZM35.5683 42.6021H47.0923V52.4798H35.5683V42.6021ZM40.5072 45.0715C39.8522 45.0715 39.2241 45.3317 38.761 45.7948C38.2979 46.2579 38.0377 46.886 38.0377 47.5409C38.0377 48.1959 38.2979 48.824 38.761 49.2871C39.2241 49.7502 39.8522 50.0103 40.5072 50.0103C41.1621 50.0103 41.7902 49.7502 42.2533 49.2871C42.7164 48.824 42.9766 48.1959 42.9766 47.5409C42.9766 46.886 42.7164 46.2579 42.2533 45.7948C41.7902 45.3317 41.1621 45.0715 40.5072 45.0715Z" fill="black"/>
</svg>
