<svg width="57" height="58" viewBox="0 0 57 58" fill="none" xmlns="http://www.w3.org/2000/svg">
<path fill-rule="evenodd" clip-rule="evenodd" d="M37.2695 4.9375C36.0614 4.9375 35.082 3.95812 35.082 2.75C35.082 1.54188 36.0614 0.5625 37.2695 0.5625H54.7695C55.9777 0.5625 56.957 1.54188 56.957 2.75V19.7943C56.957 21.0024 55.9777 21.9818 54.7695 21.9818C53.5614 21.9818 52.582 21.0024 52.582 19.7943V8.03109L30.0663 30.5468C29.2121 31.4011 27.827 31.4011 26.9727 30.5468C26.1185 29.6925 26.1185 28.3075 26.9727 27.4532L49.4884 4.9375H37.2695Z" fill="#0066FF"/>
<path fill-rule="evenodd" clip-rule="evenodd" d="M0.0820312 14.4167C0.0820312 13.2086 1.06141 12.2292 2.26953 12.2292H31.4362C32.6443 12.2292 33.6237 13.2086 33.6237 14.4167C33.6237 15.6249 32.6443 16.6042 31.4362 16.6042H4.45703V53.0626H8.10286C9.31099 53.0626 10.2904 54.042 10.2904 55.2501C10.2904 56.4582 9.31099 57.4376 8.10286 57.4376H2.26953C1.06141 57.4376 0.0820312 56.4582 0.0820312 55.2501V14.4167ZM43.1029 23.8959C44.311 23.8959 45.2904 24.8753 45.2904 26.0834V55.2501C45.2904 56.4582 44.311 57.4376 43.1029 57.4376H19.7695C18.5614 57.4376 17.582 56.4582 17.582 55.2501C17.582 54.042 18.5614 53.0626 19.7695 53.0626H40.9154V26.0834C40.9154 24.8753 41.8947 23.8959 43.1029 23.8959Z" fill="#0066FF"/>
</svg>
