<svg width="97" height="88" viewBox="0 0 97 88" fill="none" xmlns="http://www.w3.org/2000/svg">
<path d="M86.8056 16.9082C86.8056 36.1221 96.7583 49.3166 96.7583 58.5749C96.7583 67.8332 91.4361 87.2777 48.8444 87.2777C6.25278 87.2777 0 61.1193 0 50.936C0 3.24989 86.8056 -17.1196 86.8056 16.9082V16.9082Z" fill="#EFEFEF"/>
<path d="M20.1602 71.0015L16.5555 66.7741L18.6692 64.9718L22.2739 69.1992L20.1602 71.0015Z" fill="#0066FF"/>
<path d="M30.5234 83.1558L26.917 78.9263L29.0307 77.1239L32.6371 81.3534L30.5234 83.1558Z" fill="#0066FF"/>
<path d="M16.8203 82.0635L15.018 79.9498L19.2475 76.3433L21.0498 78.457L16.8203 82.0635Z" fill="#0066FF"/>
<path d="M53.5135 37.1668C52.5468 37.771 51.6285 38.496 50.7585 39.3418C49.961 40.1635 49.236 41.0577 48.656 42.0002H41.3335V38.3752C41.3335 37.6985 41.8652 37.1668 42.5418 37.1668H53.5135ZM70.3335 32.3335H26.8335V17.8335H70.3335V32.3335ZM65.5002 22.6668H31.6668V27.5002H65.5002V22.6668ZM34.0835 56.5002V34.7502H29.2502V61.3335H50.5652C49.1635 59.8835 48.1002 58.2402 47.3752 56.5002H34.0835Z" fill="black"/>
<path d="M75.1667 64.6923L78.5258 61.3332L71.0825 53.8415C72.1458 52.174 72.75 50.1682 72.75 48.0415C72.75 41.9998 67.9167 37.1665 61.875 37.1665C55.8333 37.1665 51 41.9998 51 48.0415C51 54.0832 55.8333 58.9165 61.875 58.9165C63.9775 58.9165 65.9592 58.3123 67.6267 57.2732L75.1667 64.6923Z" fill="#0066FF"/>
</svg>
