<svg width="94" height="121" viewBox="0 0 94 121" fill="none" xmlns="http://www.w3.org/2000/svg">
<path d="M70.3141 26.2576C51.435 26.6535 38.2883 15.9323 29.19 16.1256C20.0916 16.3189 -0.761969 33.3115 0.0214781 80.3538C0.804926 127.396 56.0949 128.377 56.0949 109.474C102.949 108.489 103.746 25.555 70.3141 26.2576Z" fill="#EFEFEF"/>
<path d="M17.3239 92.1285L12.4999 83.9871C11.4348 82.1895 11.641 80.0961 12.9601 79.3145L7.58313 82.5005C6.26398 83.2821 6.05782 85.3754 7.12296 87.1731L11.9469 95.3145C13.0121 97.1121 14.9472 97.9367 16.2663 97.1551L21.6433 93.9691C20.3241 94.7507 18.3891 93.9261 17.3239 92.1285Z" fill="#0066FF"/>
<path d="M92.4077 53.1882C92.4077 56.2548 89.9218 58.7407 86.8552 58.7407C83.7887 58.7407 81.3027 56.2548 81.3027 53.1882C81.3027 50.1217 83.7887 47.6357 86.8552 47.6357C89.9218 47.6357 92.4077 50.1217 92.4077 53.1882ZM83.6353 53.1882C83.6353 54.9666 85.0769 56.4082 86.8552 56.4082C88.6336 56.4082 90.0752 54.9666 90.0752 53.1882C90.0752 51.4099 88.6336 49.9683 86.8552 49.9683C85.0769 49.9683 83.6353 51.4099 83.6353 53.1882Z" fill="#0066FF"/>
<circle cx="42.8826" cy="5.55249" r="5.55249" fill="#0066FF"/>
<path d="M64.8333 54.7498H28.1667V50.1665H64.8333V54.7498ZM54.9563 73.0832H51.0833V76.9561C49.6396 79.1332 48.7917 81.7228 48.7917 84.5415C48.7917 85.3207 48.8833 86.0769 48.9979 86.8332H28.1667V73.0832H25.875V68.4998L28.1667 57.0415H64.8333L67.125 68.4998V71.5936C65.6813 71.0894 64.1458 70.7915 62.5417 70.7915C59.7229 70.7915 57.1333 71.6394 54.9563 73.0832ZM46.5 73.0832H32.75V82.2498H46.5V73.0832ZM62.45 68.4998L61.075 61.6248H31.925L30.55 68.4998H62.45Z" fill="black"/>
<path d="M64.8333 75.375V82.25H71.7083V86.8333H64.8333V93.7083H60.25V86.8333H53.375V82.25H60.25V75.375H64.8333Z" fill="#0066FF"/>
</svg>
