<svg width="88" height="97" viewBox="0 0 88 97" fill="none" xmlns="http://www.w3.org/2000/svg">
<path d="M16.9082 86.8056C36.1221 86.8056 49.3166 96.7583 58.5749 96.7583C67.8332 96.7583 87.2777 91.4361 87.2777 48.8444C87.2777 6.25277 61.1193 0 50.936 0C3.24989 0 -17.1196 86.8056 16.9082 86.8056Z" fill="#EFEFEF"/>
<circle cx="79.653" cy="39.0021" r="3.85028" fill="#0066FF"/>
<path d="M14.1478 67.4118C14.1478 69.5383 12.424 71.2621 10.2975 71.2621C8.1711 71.2621 6.44727 69.5383 6.44727 67.4118C6.44727 65.2854 8.1711 63.5615 10.2975 63.5615C12.424 63.5615 14.1478 65.2854 14.1478 67.4118ZM8.42115 67.4118C8.42115 68.4481 9.26124 69.2882 10.2975 69.2882C11.3339 69.2882 12.1739 68.4481 12.1739 67.4118C12.1739 66.3755 11.3339 65.5354 10.2975 65.5354C9.26124 65.5354 8.42115 66.3755 8.42115 67.4118Z" fill="#0066FF"/>
<path d="M42.1855 12.3325L46.1139 8.40415L48.0781 10.3683L44.1497 14.2967L42.1855 12.3325Z" fill="#0066FF"/>
<path d="M30.8906 23.6252L34.821 19.6949L36.7851 21.6591L32.8548 25.5894L30.8906 23.6252Z" fill="#0066FF"/>
<path d="M30.8926 9.87842L32.8568 7.91423L36.7871 11.8446L34.8229 13.8088L30.8926 9.87842Z" fill="#0066FF"/>
<path d="M58.6793 61.9001C56.2788 63.302 54.2829 65.297 52.8804 67.7503L46.7578 55.9689L36.2659 66.4023L37.1829 73.1423L34.3509 76L29.577 67.3998L21 62.6549L23.859 59.7972L30.5479 60.7408L41.0399 50.2265L21 39.7662L24.803 35.9648L49.6168 41.6803L60.1088 31.193C61.6731 29.6023 64.2354 29.6023 65.8267 31.193C67.3911 32.7836 67.3911 35.3987 65.8267 36.9084L55.3348 47.3957L58.6793 61.9001Z" fill="black"/>
<path d="M62.7 69.9075L72.752 60L76 63.8912L62.7 77L55 68.7208L58.248 65.5195L62.7 69.9075Z" fill="#0066FF"/>
</svg>
