<svg width="76" height="73" viewBox="0 0 76 73" fill="none" xmlns="http://www.w3.org/2000/svg">
<path fill-rule="evenodd" clip-rule="evenodd" d="M31.1025 5.28125C23.9401 5.28125 18.1338 10.9476 18.1338 17.9375C18.1338 24.9274 23.9401 30.5938 31.1025 30.5938C38.265 30.5938 44.0713 24.9274 44.0713 17.9375C44.0713 10.9476 38.265 5.28125 31.1025 5.28125ZM12.9463 17.9375C12.9463 8.1517 21.0751 0.21875 31.1025 0.21875C41.13 0.21875 49.2588 8.1517 49.2588 17.9375C49.2588 27.7233 41.13 35.6562 31.1025 35.6562C21.0751 35.6562 12.9463 27.7233 12.9463 17.9375Z" fill="#0066FF"/>
<path fill-rule="evenodd" clip-rule="evenodd" d="M31.1027 35.6562C17.2553 35.6562 6.02978 46.6113 6.02978 60.125C6.02978 61.523 4.86852 62.6562 3.43603 62.6562C2.00355 62.6562 0.842285 61.523 0.842285 60.125C0.842285 43.8153 14.3903 30.5938 31.1027 30.5938C32.5352 30.5938 33.6964 31.727 33.6964 33.125C33.6964 34.523 32.5352 35.6562 31.1027 35.6562Z" fill="#0066FF"/>
<path fill-rule="evenodd" clip-rule="evenodd" d="M55.3112 39.0312C47.1938 39.0312 40.6133 45.4532 40.6133 53.375C40.6133 61.2968 47.1938 67.7188 55.3112 67.7188C60.1181 67.7188 64.386 65.4694 67.0719 61.9798C67.9322 60.862 69.5582 60.6365 70.7035 61.4761C71.8489 62.3157 72.08 63.9024 71.2197 65.0202C67.5961 69.7281 61.8187 72.7812 55.3112 72.7812C44.3288 72.7812 35.4258 64.0928 35.4258 53.375C35.4258 42.6572 44.3288 33.9688 55.3112 33.9688C66.2936 33.9688 75.1966 42.6572 75.1966 53.375C75.1966 54.773 74.0354 55.9062 72.6029 55.9062C71.1704 55.9062 70.0091 54.773 70.0091 53.375C70.0091 45.4532 63.4286 39.0312 55.3112 39.0312Z" fill="#0066FF"/>
<path fill-rule="evenodd" clip-rule="evenodd" d="M44.0713 53.375C44.0713 51.977 45.2326 50.8438 46.665 50.8438H63.9567C65.3892 50.8438 66.5505 51.977 66.5505 53.375C66.5505 54.773 65.3892 55.9062 63.9567 55.9062H46.665C45.2326 55.9062 44.0713 54.773 44.0713 53.375Z" fill="#0066FF"/>
<path fill-rule="evenodd" clip-rule="evenodd" d="M55.311 64.3438C53.8785 64.3438 52.7173 63.2105 52.7173 61.8125V44.9375C52.7173 43.5395 53.8785 42.4062 55.311 42.4062C56.7435 42.4062 57.9048 43.5395 57.9048 44.9375V61.8125C57.9048 63.2105 56.7435 64.3438 55.311 64.3438Z" fill="#0066FF"/>
</svg>
