<svg width="97" height="88" viewBox="0 0 97 88" fill="none" xmlns="http://www.w3.org/2000/svg">
<path d="M86.8056 16.9082C86.8056 36.1221 96.7583 49.3166 96.7583 58.5749C96.7583 67.8332 91.4361 87.2777 48.8444 87.2777C6.25278 87.2777 0 61.1193 0 50.936C0 3.24989 86.8056 -17.1196 86.8056 16.9082V16.9082Z" fill="#EFEFEF"/>
<path d="M76.1999 11.513C73.9026 11.513 72.0332 9.64358 72.0332 7.34635C72.0332 5.04913 73.9026 3.17969 76.1999 3.17969C78.4971 3.17969 80.3665 5.04913 80.3665 7.34635C80.3665 9.64358 78.4971 11.513 76.1999 11.513ZM76.1999 5.95746C75.436 5.95746 74.811 6.57969 74.811 7.34635C74.811 8.11302 75.436 8.73524 76.1999 8.73524C76.9638 8.73524 77.5888 8.11302 77.5888 7.34635C77.5888 6.57969 76.9638 5.95746 76.1999 5.95746Z" fill="#B6A4C1"/>
<path d="M84.5339 63.6165C82.2366 63.6165 80.3672 61.7471 80.3672 59.4499C80.3672 57.1526 82.2366 55.2832 84.5339 55.2832C86.8311 55.2832 88.7005 57.1526 88.7005 59.4499C88.7005 61.7471 86.8311 63.6165 84.5339 63.6165ZM84.5339 58.061C83.77 58.061 83.145 58.6832 83.145 59.4499C83.145 60.2165 83.77 60.8388 84.5339 60.8388C85.2977 60.8388 85.9227 60.2165 85.9227 59.4499C85.9227 58.6832 85.2977 58.061 84.5339 58.061Z" fill="#B6A4C1"/>
<path d="M77.2506 52.5601C77.2506 63.2526 68.6027 71.9005 57.9102 71.9005L60.8112 67.0654" stroke="#0066FF" stroke-width="4.14439" stroke-linecap="round" stroke-linejoin="round"/>
<path d="M21.9922 35.9826C21.9922 25.29 30.6401 16.6421 41.3327 16.6421L38.4316 21.4772" stroke="#0066FF" stroke-width="4.14439" stroke-linecap="round" stroke-linejoin="round"/>
<path d="M54.3184 23.4111L65.3145 29.7658L76.2005 23.4388" stroke="black" stroke-width="4.14439" stroke-linecap="round" stroke-linejoin="round"/>
<path d="M65.3145 41.011V29.7383" stroke="black" stroke-width="4.14439" stroke-linecap="round" stroke-linejoin="round"/>
<path d="M62.7179 17.2223L56.0869 20.8969C54.5949 21.7258 53.3516 23.8256 53.3516 25.5386V32.5565C53.3516 34.2695 54.5672 36.3693 56.0869 37.1982L62.7179 40.873C64.127 41.6742 66.4478 41.6742 67.8846 40.873L74.5156 37.1982C76.0076 36.3693 77.2509 34.2695 77.2509 32.5565V25.5386C77.2509 23.8256 76.0352 21.7258 74.5156 20.8969L67.8846 17.2223C66.4755 16.4487 64.1546 16.4487 62.7179 17.2223V17.2223Z" stroke="black" stroke-width="4.14439" stroke-linecap="round" stroke-linejoin="round"/>
<path d="M22.959 53.8032L33.9278 60.1577L44.8414 53.8309" stroke="black" stroke-width="4.14439" stroke-linecap="round" stroke-linejoin="round"/>
<path d="M33.9277 71.4031V60.1304" stroke="black" stroke-width="4.14439" stroke-linecap="round" stroke-linejoin="round"/>
<path d="M31.3585 47.6144L24.7275 51.2891C23.2355 52.118 21.9922 54.2175 21.9922 55.9305V62.9486C21.9922 64.6616 23.2079 66.7615 24.7275 67.5904L31.3585 71.265C32.7676 72.0663 35.0884 72.0663 36.5252 71.265L43.1562 67.5904C44.6482 66.7615 45.8915 64.6616 45.8915 62.9486V55.9305C45.8915 54.2175 44.6758 52.118 43.1562 51.2891L36.5252 47.6144C35.0884 46.8408 32.7676 46.8408 31.3585 47.6144V47.6144Z" stroke="black" stroke-width="4.14439" stroke-linecap="round" stroke-linejoin="round"/>
</svg>
