<svg width="100" height="100" viewBox="0 0 100 100" fill="none" xmlns="http://www.w3.org/2000/svg">
<path d="M74.9513 10.8723C55.7401 11.2306 42.3624 1.52509 33.104 1.70009C23.8457 1.87509 4.50403 7.55842 5.30125 50.1445C6.09847 92.7306 32.3679 98.489 42.5513 98.3001C90.229 97.4084 108.971 10.2362 74.9513 10.8723V10.8723Z" fill="#EFEFEF"/>
<path d="M18.3516 9.46924L22.2799 5.54087L24.2441 7.50505L20.3157 11.4334L18.3516 9.46924Z" fill="#B6A4C1"/>
<path d="M7.05469 20.7622L10.985 16.8319L12.9492 18.7961L9.01887 22.7264L7.05469 20.7622Z" fill="#B6A4C1"/>
<path d="M7.05859 7.01562L9.02278 5.05144L12.9531 8.98177L10.9889 10.946L7.05859 7.01562Z" fill="#B6A4C1"/>
<path d="M92.3034 42.8973C90.0062 42.8973 88.1367 41.0279 88.1367 38.7306C88.1367 36.4334 90.0062 34.564 92.3034 34.564C94.6006 34.564 96.47 36.4334 96.47 38.7306C96.47 41.0279 94.6006 42.8973 92.3034 42.8973ZM92.3034 37.3417C91.5395 37.3417 90.9145 37.964 90.9145 38.7306C90.9145 39.4973 91.5395 40.1195 92.3034 40.1195C93.0673 40.1195 93.6923 39.4973 93.6923 38.7306C93.6923 37.964 93.0673 37.3417 92.3034 37.3417Z" fill="#B6A4C1"/>
<path d="M78.4722 31.25H21.5278C19.9944 31.25 18.75 30.0056 18.75 28.4722V21.5278C18.75 19.9944 19.9944 18.75 21.5278 18.75H78.4722C80.0056 18.75 81.25 19.9944 81.25 21.5278V28.4722C81.25 30.0056 80.0056 31.25 78.4722 31.25Z" fill="#0066FF"/>
<path d="M75 56.25C71.5472 56.25 68.75 53.4528 68.75 50C68.75 46.5472 71.5472 43.75 75 43.75C78.4528 43.75 81.25 46.5472 81.25 50C81.25 53.4528 78.4528 56.25 75 56.25Z" fill="#0066FF"/>
<path d="M75 81.25C71.5472 81.25 68.75 78.4528 68.75 75C68.75 71.5472 71.5472 68.75 75 68.75C78.4528 68.75 81.25 71.5472 81.25 75C81.25 78.4528 78.4528 81.25 75 81.25Z" fill="#0066FF"/>
<path d="M25 28.4722V21.5278C25 19.9944 26.2444 18.75 27.7778 18.75H21.5278C19.9944 18.75 18.75 19.9944 18.75 21.5278V28.4722C18.75 30.0056 19.9944 31.25 21.5278 31.25H27.7778C26.2444 31.25 25 30.0056 25 28.4722Z" fill="#D5DBE1"/>
<path d="M75 50C75 47.6917 76.2639 45.7 78.125 44.6167C77.2028 44.0806 76.1444 43.75 75 43.75C71.5472 43.75 68.75 46.5472 68.75 50C68.75 53.4528 71.5472 56.25 75 56.25C76.1444 56.25 77.2028 55.9194 78.125 55.3833C76.2639 54.3 75 52.3083 75 50Z" fill="#0066FF"/>
<path d="M75 75C75 72.6917 76.2639 70.7 78.125 69.6167C77.2028 69.0806 76.1444 68.75 75 68.75C71.5472 68.75 68.75 71.5472 68.75 75C68.75 78.4528 71.5472 81.25 75 81.25C76.1444 81.25 77.2028 80.9194 78.125 80.3833C76.2639 79.3 75 77.3083 75 75Z" fill="#0066FF"/>
<path d="M78.4735 33.3332H21.5291C18.8485 33.3332 16.668 31.1526 16.668 28.4721V21.5276C16.668 18.8471 18.8485 16.6665 21.5291 16.6665H78.4735C81.1541 16.6665 83.3346 18.8471 83.3346 21.5276V28.4721C83.3346 31.1526 81.1541 33.3332 78.4735 33.3332ZM21.5291 20.8332C21.1457 20.8332 20.8346 21.1443 20.8346 21.5276V28.4721C20.8346 28.8554 21.1457 29.1665 21.5291 29.1665H78.4735C78.8568 29.1665 79.168 28.8554 79.168 28.4721V21.5276C79.168 21.1443 78.8568 20.8332 78.4735 20.8332H21.5291Z" fill="black"/>
<path d="M18.75 44.4443H59.0278V48.611H18.75V44.4443Z" fill="black"/>
<path d="M18.75 52.7773H59.0278V56.944H18.75V52.7773Z" fill="black"/>
<path d="M18.75 69.4443H59.0278V73.611H18.75V69.4443Z" fill="black"/>
<path d="M18.75 77.7773H59.0278V81.944H18.75V77.7773Z" fill="black"/>
<path d="M75.0013 58.3332C70.4069 58.3332 66.668 54.5943 66.668 49.9998C66.668 45.4054 70.4069 41.6665 75.0013 41.6665C79.5958 41.6665 83.3346 45.4054 83.3346 49.9998C83.3346 54.5943 79.5958 58.3332 75.0013 58.3332ZM75.0013 45.8332C72.7041 45.8332 70.8346 47.7026 70.8346 49.9998C70.8346 52.2971 72.7041 54.1665 75.0013 54.1665C77.2985 54.1665 79.168 52.2971 79.168 49.9998C79.168 47.7026 77.2985 45.8332 75.0013 45.8332Z" fill="black"/>
<path d="M75.0013 83.3332C70.4069 83.3332 66.668 79.5943 66.668 74.9998C66.668 70.4054 70.4069 66.6665 75.0013 66.6665C79.5958 66.6665 83.3346 70.4054 83.3346 74.9998C83.3346 79.5943 79.5958 83.3332 75.0013 83.3332ZM75.0013 70.8332C72.7041 70.8332 70.8346 72.7026 70.8346 74.9998C70.8346 77.2971 72.7041 79.1665 75.0013 79.1665C77.2985 79.1665 79.168 77.2971 79.168 74.9998C79.168 72.7026 77.2985 70.8332 75.0013 70.8332Z" fill="black"/>
</svg>
