<svg width="97" height="88" viewBox="0 0 97 88" fill="none" xmlns="http://www.w3.org/2000/svg">
<path d="M86.8056 16.9082C86.8056 36.1221 96.7583 49.3166 96.7583 58.5749C96.7583 67.8332 91.4361 87.2777 48.8444 87.2777C6.25278 87.2777 0 61.1193 0 50.936C0 3.24989 86.8056 -17.1196 86.8056 16.9082V16.9082Z" fill="#EFEFEF"/>
<path d="M20.1602 71.0015L16.5555 66.7741L18.6692 64.9718L22.2739 69.1992L20.1602 71.0015Z" fill="#0066FF"/>
<path d="M30.5234 83.156L26.917 78.9265L29.0307 77.1242L32.6371 81.3537L30.5234 83.156Z" fill="#0066FF"/>
<path d="M16.8203 82.0635L15.018 79.9498L19.2475 76.3433L21.0498 78.457L16.8203 82.0635Z" fill="#0066FF"/>
<path d="M71.125 41.4605V27.4584C71.125 24.9376 69.0854 22.8751 66.5417 22.8751H56.9625C56 20.2167 53.4792 18.2917 50.5 18.2917C47.5208 18.2917 45 20.2167 44.0375 22.8751H34.4583C31.9375 22.8751 29.875 24.9376 29.875 27.4584V59.5417C29.875 62.0855 31.9375 64.1251 34.4583 64.1251H48.4604C51.3479 66.9667 55.2896 68.7084 59.6667 68.7084C68.5354 68.7084 75.7083 61.5355 75.7083 52.6667C75.7083 48.2897 73.9667 44.348 71.125 41.4605ZM50.5 22.8751C51.7604 22.8751 52.7917 23.9063 52.7917 25.1667C52.7917 26.4272 51.7604 27.4584 50.5 27.4584C49.2396 27.4584 48.2083 26.4272 48.2083 25.1667C48.2083 23.9063 49.2396 22.8751 50.5 22.8751ZM34.4583 59.5417V27.4584H39.0417V32.0417H61.9583V27.4584H66.5417V38.1834C64.4562 37.198 62.1417 36.6251 59.6667 36.6251H39.0417V41.2084H48.4375C47.0625 42.5147 46.0083 44.073 45.1833 45.7917H39.0417V50.3751H43.8083C43.6937 51.1313 43.625 51.8876 43.625 52.6667C43.625 55.1417 44.1979 57.4563 45.1833 59.5417H34.4583ZM59.6667 64.1251C53.3417 64.1251 48.2083 58.9917 48.2083 52.6667C48.2083 46.3417 53.3417 41.2084 59.6667 41.2084C65.9917 41.2084 71.125 46.3417 71.125 52.6667C71.125 58.9917 65.9917 64.1251 59.6667 64.1251ZM60.8125 53.2397L67.3667 57.1126L65.6479 59.9084L57.375 54.9584V43.5001H60.8125V53.2397Z" fill="black"/>
<path d="M75.7083 52.6667C75.7083 61.5262 68.5262 68.7083 59.6667 68.7083C50.8071 68.7083 43.625 61.5262 43.625 52.6667C43.625 43.8071 50.8071 36.625 59.6667 36.625C68.5262 36.625 75.7083 43.8071 75.7083 52.6667ZM48.2221 52.6667C48.2221 58.9873 53.346 64.1112 59.6667 64.1112C65.9873 64.1112 71.1112 58.9873 71.1112 52.6667C71.1112 46.346 65.9873 41.2221 59.6667 41.2221C53.346 41.2221 48.2221 46.346 48.2221 52.6667Z" fill="#0066FF"/>
</svg>
