<svg width="63" height="56" viewBox="0 0 63 56" fill="none" xmlns="http://www.w3.org/2000/svg">
<path fill-rule="evenodd" clip-rule="evenodd" d="M10.5195 7.75C7.62004 7.75 5.26953 10.1005 5.26953 13V31C5.26953 32.2426 4.26217 33.25 3.01953 33.25C1.77689 33.25 0.769531 32.2426 0.769531 31V13C0.769531 7.61522 5.13476 3.25 10.5195 3.25H40.5195C41.7622 3.25 42.7695 4.25736 42.7695 5.5C42.7695 6.74264 41.7622 7.75 40.5195 7.75H10.5195ZM51.0195 21.25C52.2622 21.25 53.2695 22.2574 53.2695 23.5V46C53.2695 51.3848 48.9043 55.75 43.5195 55.75H10.5195C5.13475 55.75 0.769531 51.3848 0.769531 46V43C0.769531 41.7574 1.77689 40.75 3.01953 40.75C4.26217 40.75 5.26953 41.7574 5.26953 43V46C5.26953 48.8995 7.62004 51.25 10.5195 51.25H43.5195C46.419 51.25 48.7695 48.8995 48.7695 46V23.5C48.7695 22.2574 49.7769 21.25 51.0195 21.25Z" fill="#0066FF"/>
<path fill-rule="evenodd" clip-rule="evenodd" d="M61.6105 0.90901C62.4892 1.78769 62.4892 3.21231 61.6105 4.09099L27.1105 38.591C26.2318 39.4697 24.8072 39.4697 23.9285 38.591L11.9285 26.591C11.0499 25.7123 11.0499 24.2877 11.9285 23.409C12.8072 22.5303 14.2318 22.5303 15.1105 23.409L25.5195 33.818L58.4285 0.90901C59.3072 0.0303301 60.7318 0.0303301 61.6105 0.90901Z" fill="#0066FF"/>
</svg>
