<svg width="772" height="747" viewBox="0 0 772 747" fill="none" xmlns="http://www.w3.org/2000/svg">
<path opacity="0.07" fill-rule="evenodd" clip-rule="evenodd" d="M68.5494 46.7494C48.7118 35.6826 23.6588 42.7926 12.5919 62.6302C1.52505 82.4677 8.63511 107.521 28.4727 118.588C48.3102 129.654 73.3632 122.544 84.4301 102.707C95.497 82.8693 88.3869 57.8163 68.5494 46.7494Z" fill="url(#paint0_linear_355_4199)"/>
<path d="M772.001 434.946C772.001 517.708 739.124 597.08 680.603 655.601C622.081 714.123 542.709 747 459.948 747L459.947 434.946H772.001Z" fill="#D6E6FE"/>
<g filter="url(#filter0_bd_355_4199)">
<path d="M223.318 133.6C223.318 121.969 232.747 112.54 244.378 112.54H526.143C537.775 112.54 547.203 121.969 547.203 133.6V421.281C547.203 432.912 537.775 442.341 526.143 442.341H244.378C232.747 442.341 223.318 432.912 223.318 421.281V133.6Z" fill="white" fill-opacity="0.55" shape-rendering="crispEdges"/>
</g>
<g filter="url(#filter1_bd_355_4199)">
<path fill-rule="evenodd" clip-rule="evenodd" d="M526.143 114.019H244.378C233.564 114.019 224.797 122.786 224.797 133.6V421.281C224.797 432.095 233.564 440.862 244.378 440.862H526.143C536.958 440.862 545.724 432.095 545.724 421.281V133.6C545.724 122.786 536.958 114.019 526.143 114.019ZM244.378 112.54C232.747 112.54 223.318 121.969 223.318 133.6V421.281C223.318 432.912 232.747 442.341 244.378 442.341H526.143C537.775 442.341 547.203 432.912 547.203 421.281V133.6C547.203 121.969 537.775 112.54 526.143 112.54H244.378Z" fill="#0066FF"/>
</g>
<path d="M275.604 267.661C274.64 285.967 267.976 294.558 264.765 296.566V394.12H499.617V296.566C492.391 296.566 483.96 289.339 486.369 279.704C488.778 270.069 489.982 260.434 476.734 255.617C463.486 250.799 462.282 273.683 453.851 279.704C434.581 291.748 421.333 279.704 417.72 255.617C414.107 231.53 403.267 212.26 392.428 214.668C381.589 217.077 374.362 235.143 369.545 249.595C364.728 264.048 353.888 289.339 351.479 296.566C349.071 303.792 335.823 308.609 332.209 292.952C328.596 277.296 316.553 280.909 311.735 279.704C306.918 278.5 306.918 270.069 306.918 265.252C306.918 260.434 306.918 259.23 300.896 249.595C294.874 239.96 276.808 244.778 275.604 267.661Z" fill="url(#paint1_linear_355_4199)"/>
<path fill-rule="evenodd" clip-rule="evenodd" d="M354.842 291.285C353.41 294.417 352.008 297.001 350.643 298.754C347.962 302.195 345.296 303.763 342.664 303.758C340.055 303.754 337.786 302.202 335.895 300.129C332.119 295.989 329.321 289.18 327.751 285.297C327.111 283.715 325.704 282.845 323.665 282.311C322.096 281.9 320.307 281.724 318.425 281.539C317.825 281.48 317.215 281.42 316.599 281.351C314.139 281.076 311.587 280.656 309.659 279.442C308.674 278.821 307.845 277.99 307.273 276.873C306.704 275.76 306.416 274.412 306.435 272.792C306.506 266.802 305.855 260.574 303.847 255.641C301.85 250.735 298.56 247.204 293.35 246.321C288.219 245.451 283.966 248.188 280.927 252.993C277.883 257.808 276.169 264.57 276.197 271.289C276.221 276.942 274.508 282.443 272.386 287.001C270.264 291.56 267.706 295.23 265.975 297.237L264.646 296.091C266.27 294.208 268.74 290.674 270.795 286.26C272.851 281.845 274.464 276.606 274.442 271.297C274.413 264.314 276.186 257.208 279.444 252.055C282.708 246.893 287.571 243.561 293.643 244.59C299.636 245.606 303.326 249.708 305.472 254.98C307.608 260.225 308.263 266.722 308.19 272.813C308.173 274.214 308.423 275.267 308.835 276.073C309.246 276.875 309.841 277.482 310.595 277.957C312.144 278.933 314.319 279.33 316.795 279.607C317.348 279.669 317.916 279.725 318.492 279.781C320.406 279.969 322.393 280.164 324.11 280.614C326.376 281.207 328.435 282.306 329.378 284.64C330.975 288.589 333.667 295.082 337.192 298.946C338.951 300.874 340.784 302 342.667 302.003C344.525 302.007 346.737 300.912 349.259 297.675C350.495 296.088 351.829 293.655 353.246 290.555C354.659 287.467 356.133 283.766 357.66 279.677C359.436 274.923 361.27 269.682 363.156 264.291C364.522 260.387 365.916 256.404 367.334 252.471C370.7 243.141 374.196 234.126 377.741 227.326C379.512 223.928 381.316 221.043 383.147 218.941C384.961 216.859 386.908 215.421 388.987 215.162C392.51 214.725 395.706 214.53 398.614 215.212C401.564 215.905 404.159 217.486 406.512 220.473C408.842 223.431 410.93 227.762 412.934 233.958C414.94 240.161 416.878 248.291 418.881 258.888C420.861 269.366 424.34 275.912 428.392 279.679C432.419 283.422 437.088 284.494 441.661 283.876C446.261 283.254 450.777 280.914 454.374 277.81C457.98 274.699 460.572 270.899 461.43 267.449C462.742 262.169 465.188 258.714 468.169 256.776C471.148 254.839 474.563 254.484 477.679 255.223C483.823 256.68 489.14 262.538 487.578 269.357C486.183 275.446 486.329 281.82 488.242 286.641C490.134 291.411 493.72 294.618 499.335 294.685L499.314 296.44C492.846 296.363 488.709 292.578 486.61 287.288C484.531 282.048 484.418 275.294 485.867 268.965C487.149 263.368 482.79 258.238 477.274 256.931C474.561 256.287 471.65 256.606 469.125 258.247C466.602 259.888 464.365 262.915 463.133 267.872C462.162 271.778 459.307 275.871 455.521 279.139C451.726 282.413 446.904 284.938 441.896 285.615C436.86 286.296 431.649 285.103 427.198 280.965C422.772 276.85 419.176 269.9 417.156 259.214C415.159 248.648 413.237 240.601 411.264 234.498C409.288 228.387 407.278 224.281 405.133 221.559C403.01 218.863 400.751 217.517 398.212 216.921C395.63 216.315 392.701 216.47 389.203 216.904C387.772 217.082 386.189 218.121 384.47 220.094C382.77 222.046 381.04 224.793 379.297 228.137C375.812 234.823 372.35 243.739 368.985 253.067C367.581 256.961 366.191 260.932 364.825 264.835C362.931 270.249 361.082 275.531 359.304 280.291C357.771 284.396 356.28 288.141 354.842 291.285Z" fill="url(#paint2_linear_355_4199)"/>
<path d="M271.781 292.881C271.781 295.542 269.625 297.699 266.964 297.699C264.303 297.699 262.146 295.542 262.146 292.881C262.146 290.221 264.303 288.064 266.964 288.064C269.625 288.064 271.781 290.221 271.781 292.881Z" fill="#F3F3FE"/>
<path fill-rule="evenodd" clip-rule="evenodd" d="M266.964 288.941C264.788 288.941 263.024 290.705 263.024 292.881C263.024 295.057 264.788 296.821 266.964 296.821C269.14 296.821 270.904 295.057 270.904 292.881C270.904 290.705 269.14 288.941 266.964 288.941ZM261.269 292.881C261.269 289.736 263.818 287.186 266.964 287.186C270.109 287.186 272.659 289.736 272.659 292.881C272.659 296.027 270.109 298.576 266.964 298.576C263.818 298.576 261.269 296.027 261.269 292.881Z" fill="url(#paint3_linear_355_4199)"/>
<path d="M312.729 263.976C312.729 266.637 310.572 268.794 307.911 268.794C305.251 268.794 303.094 266.637 303.094 263.976C303.094 261.316 305.251 259.159 307.911 259.159C310.572 259.159 312.729 261.316 312.729 263.976Z" fill="#F3F3FE"/>
<path fill-rule="evenodd" clip-rule="evenodd" d="M307.912 260.036C305.736 260.036 303.972 261.8 303.972 263.976C303.972 266.152 305.736 267.916 307.912 267.916C310.088 267.916 311.852 266.152 311.852 263.976C311.852 261.8 310.088 260.036 307.912 260.036ZM302.217 263.976C302.217 260.831 304.767 258.281 307.912 258.281C311.057 258.281 313.607 260.831 313.607 263.976C313.607 267.122 311.057 269.671 307.912 269.671C304.767 269.671 302.217 267.122 302.217 263.976Z" fill="url(#paint4_linear_355_4199)"/>
<path d="M397.034 218.21C397.034 220.871 394.878 223.028 392.217 223.028C389.556 223.028 387.399 220.871 387.399 218.21C387.399 215.549 389.556 213.393 392.217 213.393C394.878 213.393 397.034 215.549 397.034 218.21Z" fill="#F3F3FE"/>
<path fill-rule="evenodd" clip-rule="evenodd" d="M392.217 214.27C390.041 214.27 388.277 216.034 388.277 218.21C388.277 220.386 390.041 222.15 392.217 222.15C394.393 222.15 396.157 220.386 396.157 218.21C396.157 216.034 394.393 214.27 392.217 214.27ZM386.522 218.21C386.522 215.065 389.072 212.515 392.217 212.515C395.363 212.515 397.912 215.065 397.912 218.21C397.912 221.355 395.363 223.905 392.217 223.905C389.072 223.905 386.522 221.355 386.522 218.21Z" fill="url(#paint5_linear_355_4199)"/>
<path d="M353.678 300.108C353.678 302.768 351.521 304.925 348.86 304.925C346.2 304.925 344.043 302.768 344.043 300.108C344.043 297.447 346.2 295.29 348.86 295.29C351.521 295.29 353.678 297.447 353.678 300.108Z" fill="#F3F3FE"/>
<path fill-rule="evenodd" clip-rule="evenodd" d="M348.861 296.168C346.685 296.168 344.921 297.932 344.921 300.108C344.921 302.284 346.685 304.048 348.861 304.048C351.037 304.048 352.801 302.284 352.801 300.108C352.801 297.932 351.037 296.168 348.861 296.168ZM343.166 300.108C343.166 296.962 345.716 294.413 348.861 294.413C352.006 294.413 354.556 296.962 354.556 300.108C354.556 303.253 352.006 305.803 348.861 305.803C345.716 305.803 343.166 303.253 343.166 300.108Z" fill="url(#paint6_linear_355_4199)"/>
<path d="M442.801 285.655C442.801 288.316 440.644 290.473 437.984 290.473C435.323 290.473 433.166 288.316 433.166 285.655C433.166 282.995 435.323 280.838 437.984 280.838C440.644 280.838 442.801 282.995 442.801 285.655Z" fill="#F3F3FE"/>
<path fill-rule="evenodd" clip-rule="evenodd" d="M437.983 281.715C435.807 281.715 434.043 283.479 434.043 285.655C434.043 287.831 435.807 289.595 437.983 289.595C440.159 289.595 441.923 287.831 441.923 285.655C441.923 283.479 440.159 281.715 437.983 281.715ZM432.288 285.655C432.288 282.51 434.838 279.96 437.983 279.96C441.128 279.96 443.678 282.51 443.678 285.655C443.678 288.8 441.128 291.35 437.983 291.35C434.838 291.35 432.288 288.8 432.288 285.655Z" fill="url(#paint7_linear_355_4199)"/>
<path d="M505.429 295.29C505.429 297.951 503.272 300.108 500.611 300.108C497.951 300.108 495.794 297.951 495.794 295.29C495.794 292.63 497.951 290.473 500.611 290.473C503.272 290.473 505.429 292.63 505.429 295.29Z" fill="#F3F3FE"/>
<path fill-rule="evenodd" clip-rule="evenodd" d="M500.611 291.35C498.435 291.35 496.671 293.114 496.671 295.29C496.671 297.466 498.435 299.23 500.611 299.23C502.787 299.23 504.551 297.466 504.551 295.29C504.551 293.114 502.787 291.35 500.611 291.35ZM494.916 295.29C494.916 292.145 497.466 289.595 500.611 289.595C503.756 289.595 506.306 292.145 506.306 295.29C506.306 298.436 503.756 300.985 500.611 300.985C497.466 300.985 494.916 298.436 494.916 295.29Z" fill="url(#paint8_linear_355_4199)"/>
<path d="M478.932 256.75C478.932 259.41 476.775 261.567 474.114 261.567C471.454 261.567 469.297 259.41 469.297 256.75C469.297 254.089 471.454 251.932 474.114 251.932C476.775 251.932 478.932 254.089 478.932 256.75Z" fill="#F3F3FE"/>
<path fill-rule="evenodd" clip-rule="evenodd" d="M474.114 252.81C471.938 252.81 470.174 254.574 470.174 256.75C470.174 258.926 471.938 260.69 474.114 260.69C476.29 260.69 478.054 258.926 478.054 256.75C478.054 254.574 476.29 252.81 474.114 252.81ZM468.419 256.75C468.419 253.605 470.969 251.055 474.114 251.055C477.259 251.055 479.809 253.605 479.809 256.75C479.809 259.895 477.259 262.445 474.114 262.445C470.969 262.445 468.419 259.895 468.419 256.75Z" fill="url(#paint9_linear_355_4199)"/>
<path d="M278.395 322.077C277.782 321.163 277.01 321.021 276.123 321.021C275.102 321.021 273.736 321.429 273.763 322.742C273.763 323.887 274.925 324.118 276.061 324.34C277.081 324.535 278.111 324.739 278.102 325.671C278.102 326.771 276.886 326.984 276.123 326.984C275.36 326.984 274.384 326.611 274.002 325.857L273.576 326.07C274.055 327.02 275.156 327.419 276.123 327.419C277.161 327.419 278.572 327.082 278.581 325.68C278.581 324.34 277.339 324.127 276.141 323.896C275.094 323.701 274.242 323.514 274.242 322.725C274.242 321.731 275.395 321.465 276.123 321.465C276.824 321.474 277.552 321.58 278.004 322.308L278.395 322.077Z" fill="#46639D"/>
<path d="M283.659 327.321V322.929H283.224V325.369C283.224 326.274 282.594 326.957 281.689 326.966C280.74 326.975 280.128 326.443 280.128 325.449V322.929H279.693V325.458C279.693 326.673 280.5 327.392 281.672 327.392C282.284 327.383 282.896 327.135 283.233 326.531V327.321H283.659Z" fill="#46639D"/>
<path d="M284.806 322.938V327.321H285.24V324.881C285.24 323.976 285.87 323.293 286.776 323.284C287.725 323.275 288.337 323.807 288.337 324.801V327.321H288.772V324.792C288.772 323.577 287.965 322.858 286.793 322.858C286.181 322.867 285.569 323.115 285.232 323.719V322.938H284.806Z" fill="#46639D"/>
<path fill-rule="evenodd" clip-rule="evenodd" d="M274.42 321.161C274.939 320.864 275.586 320.758 276.123 320.758C276.578 320.758 277.032 320.793 277.459 320.961C277.893 321.132 278.28 321.432 278.614 321.93L278.769 322.162L277.917 322.665L277.781 322.447C277.406 321.843 276.808 321.737 276.122 321.728C275.782 321.728 275.358 321.791 275.028 321.957C274.708 322.118 274.505 322.356 274.505 322.725C274.505 322.871 274.544 322.975 274.604 323.058C274.668 323.145 274.768 323.224 274.916 323.297C275.221 323.448 275.657 323.538 276.189 323.637L276.191 323.637C276.219 323.643 276.247 323.648 276.275 323.654C276.838 323.761 277.456 323.88 277.936 324.14C278.195 324.28 278.425 324.468 278.591 324.726C278.757 324.987 278.845 325.302 278.845 325.679L278.845 325.681C278.84 326.493 278.418 327.009 277.863 327.307C277.325 327.595 276.663 327.682 276.123 327.682C275.104 327.682 273.883 327.262 273.342 326.188L273.223 325.953L274.119 325.504L274.238 325.738C274.395 326.05 274.683 326.296 275.035 326.466C275.386 326.636 275.781 326.721 276.123 326.721C276.489 326.721 276.938 326.668 277.286 326.502C277.457 326.421 277.593 326.316 277.687 326.186C277.778 326.059 277.839 325.894 277.839 325.671V325.668C277.841 325.488 277.793 325.356 277.718 325.252C277.639 325.143 277.518 325.048 277.35 324.964C277.005 324.792 276.532 324.698 276.012 324.598L275.996 324.595C275.443 324.487 274.833 324.368 274.363 324.12C274.121 323.992 273.902 323.823 273.745 323.592C273.586 323.358 273.5 323.077 273.5 322.745M286.79 322.594L286.794 322.594C287.433 322.594 287.997 322.791 288.404 323.178C288.812 323.567 289.036 324.124 289.036 324.792V327.584H288.075V324.801C288.075 324.359 287.94 324.053 287.732 323.858C287.523 323.66 287.205 323.543 286.779 323.547C286.028 323.554 285.504 324.11 285.504 324.881V327.584H284.543V322.674H285.495V323.016C285.874 322.726 286.34 322.601 286.79 322.594ZM279.43 322.665H280.391V325.449C280.391 325.891 280.526 326.196 280.733 326.392C280.943 326.59 281.261 326.707 281.687 326.703M279.43 322.665V322.929ZM282.971 327.234C282.592 327.524 282.126 327.649 281.676 327.655L281.672 327.655C281.033 327.655 280.468 327.458 280.062 327.071C279.654 326.683 279.43 326.126 279.43 325.458V322.929M282.971 327.234V327.584H283.923V322.665H282.962V325.369C282.962 326.14 282.438 326.695 281.687 326.703" fill="#46639D"/>
<path d="M305.094 327.321H305.564V321.11H304.978L302.627 324.73L300.249 321.11C300.018 321.11 299.911 321.11 299.681 321.11V327.321H300.16V321.802L302.556 325.44H302.715L305.094 321.802V327.321Z" fill="#46639D"/>
<path d="M308.877 327.383C310.11 327.383 311.104 326.531 311.104 325.138C311.104 323.745 310.11 322.858 308.877 322.858C307.643 322.858 306.65 323.745 306.65 325.138C306.65 326.531 307.643 327.383 308.877 327.383ZM308.877 326.957C307.883 326.957 307.076 326.274 307.076 325.138C307.076 324.002 307.883 323.266 308.877 323.266C309.871 323.266 310.678 324.002 310.678 325.138C310.678 326.274 309.871 326.957 308.877 326.957Z" fill="#46639D"/>
<path d="M312.105 322.938V327.321H312.54V324.881C312.54 323.976 313.17 323.293 314.075 323.284C315.024 323.275 315.637 323.807 315.637 324.801V327.321H316.072V324.792C316.072 323.576 315.264 322.858 314.093 322.858C313.48 322.867 312.868 323.115 312.531 323.718V322.938H312.105Z" fill="#46639D"/>
<path fill-rule="evenodd" clip-rule="evenodd" d="M299.417 320.846H300.39L302.625 324.249L304.835 320.846H305.827V327.584H304.83V322.686L302.857 325.703H302.413L300.423 322.68V327.584H299.417V320.846ZM314.088 322.595L314.092 322.594C314.732 322.595 315.296 322.791 315.702 323.178C316.111 323.567 316.334 324.124 316.334 324.792V327.584H315.373V324.801C315.373 324.359 315.238 324.054 315.031 323.858C314.821 323.66 314.503 323.543 314.077 323.547C313.327 323.554 312.803 324.11 312.803 324.881V327.584H311.841V322.674H312.794V323.016C313.172 322.726 313.638 322.601 314.088 322.595ZM306.386 325.138C306.386 323.596 307.502 322.595 308.876 322.595C310.251 322.595 311.367 323.596 311.367 325.138C311.367 325.901 311.093 326.532 310.635 326.973C310.178 327.412 309.554 327.647 308.876 327.647C308.199 327.647 307.574 327.412 307.118 326.973C306.659 326.532 306.386 325.901 306.386 325.138ZM308.876 323.529C308.028 323.529 307.338 324.148 307.338 325.138C307.338 325.641 307.515 326.025 307.785 326.284C308.057 326.545 308.44 326.694 308.876 326.694C309.313 326.694 309.696 326.545 309.968 326.284C310.238 326.025 310.415 325.641 310.415 325.138C310.415 324.148 309.725 323.529 308.876 323.529Z" fill="#46639D"/>
<path d="M343.814 327.321H344.294V321.544H346.539V321.118H341.569V321.544H343.814V327.321Z" fill="#46639D"/>
<path d="M350.311 327.321V322.928H349.876V325.369C349.876 326.274 349.246 326.957 348.341 326.966C347.392 326.975 346.779 326.442 346.779 325.448V322.928H346.345V325.457C346.345 326.673 347.152 327.392 348.323 327.392C348.936 327.383 349.548 327.134 349.885 326.531V327.321H350.311Z" fill="#46639D"/>
<path d="M353.436 327.383C354.137 327.383 354.9 327.099 355.326 326.54L355.016 326.291C354.687 326.726 354.013 326.957 353.436 326.957C352.531 326.957 351.741 326.362 351.653 325.333H355.601C355.77 323.621 354.67 322.866 353.436 322.866C352.203 322.866 351.209 323.816 351.209 325.129C351.209 326.522 352.203 327.383 353.436 327.383ZM351.653 324.952C351.75 323.878 352.531 323.266 353.436 323.266C354.492 323.266 355.202 323.869 355.211 324.952H351.653Z" fill="#46639D"/>
<path fill-rule="evenodd" clip-rule="evenodd" d="M341.307 320.855H346.802V321.807H344.557V327.584H343.552V321.807H341.307V320.855ZM350.946 325.129C350.946 323.67 352.059 322.603 353.437 322.603C354.104 322.603 354.761 322.807 355.23 323.27C355.705 323.739 355.954 324.44 355.864 325.359L355.841 325.596H351.964C352.144 326.298 352.743 326.694 353.437 326.694C353.967 326.694 354.546 326.478 354.806 326.133L354.969 325.917L355.692 326.495L355.536 326.7C355.048 327.341 354.196 327.646 353.437 327.646C352.759 327.646 352.134 327.409 351.678 326.968C351.22 326.525 350.946 325.891 350.946 325.129ZM346.082 322.665H347.043V325.449C347.043 325.89 347.178 326.196 347.385 326.392C347.595 326.589 347.913 326.707 348.339 326.703M346.082 322.665V322.928ZM349.622 327.233C349.244 327.524 348.778 327.649 348.328 327.655L348.324 327.655C347.685 327.655 347.12 327.458 346.714 327.071C346.305 326.682 346.082 326.126 346.082 325.457V322.928M349.622 327.233V327.584H350.575V322.665H349.614V325.369C349.614 326.14 349.089 326.695 348.339 326.703M351.962 324.688H354.929C354.88 324.342 354.738 324.08 354.538 323.896C354.288 323.665 353.916 323.529 353.437 323.529C352.747 323.529 352.144 323.937 351.962 324.688Z" fill="#46639D"/>
<path d="M385.079 326.789L383.162 321.11H382.656L384.83 327.339H385.345L386.339 324.411L387.12 321.97L387.901 324.428L388.885 327.339H389.4L391.592 321.11H391.077L389.152 326.789L387.253 321.11H386.987L385.079 326.789Z" fill="#46639D"/>
<path d="M393.588 327.383C394.289 327.383 395.052 327.099 395.478 326.54L395.167 326.292C394.839 326.727 394.164 326.957 393.588 326.957C392.683 326.957 391.893 326.363 391.804 325.333H395.753C395.921 323.621 394.821 322.867 393.588 322.867C392.354 322.867 391.36 323.816 391.36 325.129C391.36 326.522 392.354 327.383 393.588 327.383ZM391.804 324.952C391.902 323.878 392.683 323.266 393.588 323.266C394.644 323.266 395.354 323.869 395.362 324.952H391.804Z" fill="#46639D"/>
<path d="M398.856 323.284C399.868 323.284 400.649 324.029 400.649 325.12C400.649 326.212 399.886 326.966 398.856 326.966C397.871 326.966 397.064 326.345 397.064 325.129C397.064 323.896 397.871 323.284 398.856 323.284ZM400.658 321.11V323.896C400.303 323.186 399.593 322.867 398.839 322.867C397.614 322.867 396.638 323.683 396.638 325.129C396.638 326.585 397.605 327.392 398.83 327.392C399.575 327.392 400.294 327.019 400.658 326.354V327.321H401.084V321.11H400.658Z" fill="#46639D"/>
<path fill-rule="evenodd" clip-rule="evenodd" d="M382.285 320.846H383.351L385.078 325.964L386.797 320.846H387.442L389.153 325.964L390.888 320.846H391.963L389.586 327.602H389.153L389.15 327.614L389.146 327.602H388.696L387.649 324.508L387.118 322.837L386.588 324.495L385.533 327.602H385.083L385.079 327.614L385.075 327.602H384.643L382.285 320.846ZM400.394 320.846H401.347V327.584H400.394V327.089C399.963 327.459 399.4 327.655 398.829 327.655C398.159 327.655 397.542 327.434 397.091 326.995C396.638 326.555 396.374 325.918 396.374 325.129C396.374 324.344 396.641 323.707 397.096 323.267C397.548 322.828 398.167 322.603 398.838 322.603C399.403 322.603 399.965 322.769 400.394 323.136V320.846ZM400.82 326.328V325.783C400.769 325.96 400.697 326.124 400.607 326.274L400.82 326.328ZM400.603 323.971C400.695 324.121 400.768 324.286 400.82 324.464V323.92L400.603 323.971ZM391.097 325.129C391.097 323.67 392.209 322.603 393.587 322.603C394.254 322.603 394.911 322.807 395.381 323.27C395.856 323.739 396.105 324.44 396.014 325.359L395.991 325.597H392.114C392.294 326.298 392.893 326.694 393.587 326.694C394.117 326.694 394.696 326.478 394.957 326.133L395.12 325.917L395.843 326.495L395.687 326.7C395.198 327.341 394.346 327.647 393.587 327.647C392.909 327.647 392.285 327.409 391.828 326.968C391.37 326.525 391.097 325.892 391.097 325.129ZM392.113 324.689H395.08C395.03 324.342 394.889 324.081 394.689 323.897C394.438 323.666 394.066 323.529 393.587 323.529C392.897 323.529 392.295 323.937 392.113 324.689ZM397.771 323.935C397.507 324.185 397.327 324.573 397.327 325.129C397.327 325.676 397.506 326.062 397.771 326.312C398.039 326.565 398.418 326.703 398.856 326.703C399.736 326.703 400.385 326.071 400.385 325.121C400.385 324.174 399.721 323.547 398.856 323.547C398.417 323.547 398.038 323.683 397.771 323.935Z" fill="#46639D"/>
<path d="M429.014 327.321H429.493V321.544H431.738V321.118H426.769V321.544H429.014V327.321Z" fill="#46639D"/>
<path d="M432.567 321.11V327.321H433.001V324.916C433.001 324.002 433.64 323.293 434.563 323.293C435.548 323.293 435.974 323.905 435.974 324.81V327.321H436.4V324.81C436.4 323.665 435.788 322.875 434.563 322.875C433.951 322.884 433.339 323.124 432.984 323.754V321.11H432.567Z" fill="#46639D"/>
<path d="M441.403 327.321V322.929H440.968V325.369C440.968 326.274 440.338 326.957 439.433 326.966C438.483 326.975 437.871 326.443 437.871 325.449V322.929H437.436V325.458C437.436 326.673 438.244 327.392 439.415 327.392C440.027 327.383 440.64 327.135 440.977 326.531V327.321H441.403Z" fill="#46639D"/>
<path fill-rule="evenodd" clip-rule="evenodd" d="M432.303 320.846H433.246V323.045C433.632 322.743 434.103 322.619 434.559 322.612L434.563 322.612C435.234 322.612 435.771 322.831 436.136 323.237C436.498 323.64 436.663 324.193 436.663 324.81V327.584H435.71V324.81C435.71 324.394 435.612 324.085 435.438 323.884C435.27 323.689 434.998 323.556 434.563 323.556C433.8 323.556 433.264 324.133 433.264 324.916V327.584H432.303V320.846ZM426.505 320.855L432.001 320.855V321.808H429.756V327.584H428.75V321.808H426.505V320.855ZM437.173 322.666H438.134V325.449C438.134 325.891 438.269 326.196 438.476 326.392C438.686 326.59 439.004 326.707 439.43 326.703M437.173 322.666V322.929ZM440.713 327.234C440.335 327.524 439.869 327.649 439.419 327.655L439.415 327.655C438.776 327.655 438.211 327.459 437.805 327.071C437.396 326.683 437.173 326.126 437.173 325.458V322.929M440.713 327.234V327.584H441.666V322.666H440.704V325.369C440.704 326.14 440.18 326.696 439.43 326.703" fill="#46639D"/>
<path d="M465.149 321.589H468.849V321.11H464.67V327.33H465.149V324.517H468.725V324.065H465.149V321.589Z" fill="#46639D"/>
<path d="M469.824 322.938V327.321H470.259V324.766C470.259 323.967 470.889 323.31 471.705 323.301C471.963 323.301 472.22 323.364 472.451 323.505L472.646 323.151C472.353 322.973 472.034 322.884 471.705 322.893C471.146 322.893 470.525 323.124 470.25 323.718L470.232 322.938H469.824Z" fill="#46639D"/>
<path d="M473.734 322.92V327.321H473.299V322.92H473.734ZM473.175 321.509C473.175 321.97 473.876 321.97 473.876 321.509C473.876 321.048 473.175 321.048 473.175 321.509Z" fill="#46639D"/>
<path fill-rule="evenodd" clip-rule="evenodd" d="M464.407 320.846H469.113V321.852H465.413V323.801H468.989V324.78H465.413V327.593H464.407V320.846ZM473.94 321.052C474.065 321.161 474.14 321.321 474.14 321.509C474.14 321.697 474.065 321.857 473.94 321.966C473.821 322.072 473.669 322.118 473.526 322.118C473.383 322.118 473.231 322.072 473.111 321.966C472.986 321.857 472.912 321.697 472.912 321.509C472.912 321.321 472.986 321.161 473.111 321.052C473.231 320.946 473.383 320.9 473.526 320.9C473.669 320.9 473.821 320.946 473.94 321.052ZM473.458 321.447C473.452 321.453 473.439 321.466 473.439 321.509C473.439 321.552 473.452 321.565 473.458 321.571C473.47 321.581 473.493 321.592 473.526 321.592C473.558 321.592 473.582 321.581 473.593 321.571C473.6 321.565 473.613 321.552 473.613 321.509C473.613 321.466 473.6 321.453 473.593 321.447C473.582 321.437 473.558 321.426 473.526 321.426C473.493 321.426 473.47 321.437 473.458 321.447ZM471.702 322.63C472.083 322.62 472.451 322.724 472.783 322.925L472.999 323.056L472.549 323.875L472.313 323.73C472.129 323.617 471.921 323.565 471.707 323.565C471.038 323.573 470.523 324.109 470.523 324.766V327.584H469.561V322.674H470.49L470.498 323.006C470.856 322.737 471.305 322.631 471.702 322.63ZM470.088 323.745V324.206C470.138 324.057 470.209 323.917 470.296 323.789L470.088 323.745ZM473.036 322.657H473.998V327.584H473.036V322.657Z" fill="#46639D"/>
<path d="M500.705 322.077C500.093 321.163 499.321 321.021 498.433 321.021C497.413 321.021 496.046 321.429 496.073 322.742C496.073 323.887 497.236 324.118 498.371 324.339C499.392 324.535 500.421 324.739 500.412 325.67C500.412 326.771 499.197 326.984 498.433 326.984C497.67 326.984 496.694 326.611 496.313 325.857L495.887 326.07C496.366 327.019 497.466 327.419 498.433 327.419C499.472 327.419 500.883 327.081 500.891 325.679C500.891 324.339 499.649 324.126 498.451 323.896C497.404 323.701 496.552 323.514 496.552 322.724C496.552 321.731 497.706 321.464 498.433 321.464C499.134 321.473 499.862 321.58 500.315 322.307L500.705 322.077Z" fill="#46639D"/>
<path d="M505.888 322.937V323.896C505.524 323.213 504.805 322.884 504.095 322.884C502.871 322.884 501.868 323.789 501.868 325.129C501.868 326.469 502.871 327.392 504.095 327.392C504.805 327.392 505.462 327.073 505.888 326.389V327.321H506.322C506.322 325.857 506.322 324.402 506.322 322.937H505.888ZM504.095 323.301C506.535 323.301 506.535 326.966 504.095 326.966C503.101 326.966 502.303 326.23 502.303 325.129C502.303 324.029 503.101 323.301 504.095 323.301Z" fill="#46639D"/>
<path d="M507.892 321.66V322.937H506.961V323.301H507.892V325.972C507.892 326.833 508.194 327.383 509.126 327.383C509.401 327.383 509.676 327.294 509.951 327.161L509.8 326.806C509.578 326.913 509.339 326.984 509.126 326.984C508.442 326.984 508.318 326.567 508.318 325.972V323.301H509.809V322.937H508.318V321.615L507.892 321.66Z" fill="#46639D"/>
<path fill-rule="evenodd" clip-rule="evenodd" d="M496.731 321.161C497.249 320.864 497.896 320.758 498.434 320.758C498.888 320.758 499.343 320.793 499.769 320.961C500.203 321.132 500.591 321.432 500.924 321.93L501.079 322.162L500.228 322.665L500.092 322.447C499.716 321.843 499.118 321.737 498.432 321.728C498.093 321.728 497.668 321.791 497.339 321.957C497.019 322.118 496.816 322.356 496.816 322.725C496.816 322.871 496.854 322.975 496.915 323.058C496.978 323.145 497.078 323.224 497.226 323.297C497.531 323.448 497.967 323.538 498.5 323.637L498.502 323.637C498.529 323.643 498.558 323.648 498.586 323.654C499.148 323.761 499.767 323.88 500.247 324.14C500.505 324.28 500.736 324.468 500.901 324.726C501.067 324.987 501.155 325.302 501.155 325.679V325.681C501.15 326.493 500.728 327.009 500.173 327.307C499.636 327.595 498.974 327.682 498.434 327.682C497.414 327.682 496.194 327.262 495.652 326.188L495.533 325.953L496.43 325.504L496.548 325.738C496.706 326.05 496.994 326.296 497.345 326.466C497.696 326.636 498.092 326.721 498.434 326.721C498.799 326.721 499.248 326.668 499.596 326.502C499.767 326.421 499.904 326.316 499.997 326.186C500.089 326.059 500.15 325.894 500.15 325.671V325.668C500.151 325.488 500.104 325.356 500.028 325.252C499.949 325.143 499.828 325.048 499.661 324.964C499.316 324.792 498.843 324.698 498.322 324.598L498.307 324.595C497.754 324.487 497.144 324.368 496.674 324.12C496.432 323.992 496.213 323.823 496.055 323.592C495.896 323.358 495.811 323.077 495.81 322.745C495.796 321.975 496.199 321.464 496.731 321.161ZM508.582 321.323V322.674H510.073V323.565H508.582V325.972C508.582 326.266 508.616 326.449 508.687 326.557C508.74 326.638 508.842 326.721 509.126 326.721C509.286 326.721 509.486 326.666 509.687 326.569L509.935 326.45L510.292 327.289L510.066 327.398C509.773 327.54 509.457 327.646 509.126 327.646C508.607 327.646 508.209 327.49 507.953 327.163C507.707 326.849 507.63 326.424 507.63 325.972V323.565H506.698V322.674H507.63V321.422L508.582 321.323ZM501.605 325.129C501.605 323.638 502.732 322.621 504.096 322.621C504.636 322.621 505.193 322.794 505.625 323.158V322.674H506.586V327.584H505.625V327.102C505.191 327.475 504.657 327.655 504.096 327.655C502.729 327.655 501.605 326.618 501.605 325.129ZM506.06 324.373V323.919L505.865 323.967C505.945 324.096 506.01 324.232 506.06 324.373ZM504.096 323.565C503.244 323.565 502.566 324.178 502.566 325.129C502.566 326.083 503.246 326.703 504.096 326.703C504.634 326.703 505.019 326.503 505.271 326.219C505.528 325.929 505.663 325.536 505.663 325.134C505.663 324.732 505.528 324.338 505.271 324.049C505.019 323.764 504.634 323.565 504.096 323.565Z" fill="#46639D"/>
<path d="M246.981 153.575C246.981 149.698 250.124 146.555 254.001 146.555H319.824C323.701 146.555 326.844 149.698 326.844 153.575V177.988C326.844 181.865 323.701 185.008 319.824 185.008H254.001C250.124 185.008 246.981 181.865 246.981 177.988V153.575Z" fill="#0066FF"/>
<path d="M277.57 159.921L275.443 167.26H274.369L272.663 161.353L270.894 167.26L269.831 167.271L267.777 159.921H268.799L270.399 166.144L272.168 159.921H273.242L274.927 166.123L276.538 159.921H277.57Z" fill="white"/>
<path d="M283.884 164.154C283.884 164.337 283.873 164.53 283.852 164.733H279.24C279.275 165.302 279.468 165.748 279.819 166.071C280.177 166.386 280.609 166.544 281.114 166.544C281.529 166.544 281.873 166.45 282.146 166.26C282.427 166.064 282.624 165.804 282.736 165.481H283.768C283.614 166.035 283.305 166.488 282.841 166.839C282.378 167.183 281.802 167.355 281.114 167.355C280.567 167.355 280.075 167.232 279.64 166.987C279.212 166.741 278.875 166.393 278.629 165.944C278.384 165.488 278.261 164.961 278.261 164.365C278.261 163.768 278.38 163.245 278.619 162.796C278.858 162.346 279.191 162.002 279.619 161.764C280.054 161.518 280.553 161.395 281.114 161.395C281.662 161.395 282.146 161.515 282.568 161.753C282.989 161.992 283.312 162.322 283.536 162.743C283.768 163.157 283.884 163.628 283.884 164.154ZM282.894 163.954C282.894 163.589 282.813 163.277 282.652 163.017C282.49 162.75 282.269 162.55 281.988 162.417C281.715 162.276 281.409 162.206 281.072 162.206C280.588 162.206 280.174 162.36 279.83 162.669C279.493 162.978 279.3 163.406 279.251 163.954H282.894Z" fill="white"/>
<path d="M290.414 164.154C290.414 164.337 290.403 164.53 290.382 164.733H285.77C285.805 165.302 285.998 165.748 286.349 166.071C286.707 166.386 287.139 166.544 287.644 166.544C288.058 166.544 288.402 166.45 288.676 166.26C288.957 166.064 289.154 165.804 289.266 165.481H290.298C290.143 166.035 289.834 166.488 289.371 166.839C288.908 167.183 288.332 167.355 287.644 167.355C287.097 167.355 286.605 167.232 286.17 166.987C285.742 166.741 285.405 166.393 285.159 165.944C284.913 165.488 284.791 164.961 284.791 164.365C284.791 163.768 284.91 163.245 285.149 162.796C285.387 162.346 285.721 162.002 286.149 161.764C286.584 161.518 287.083 161.395 287.644 161.395C288.192 161.395 288.676 161.515 289.097 161.753C289.519 161.992 289.842 162.322 290.066 162.743C290.298 163.157 290.414 163.628 290.414 164.154ZM289.424 163.954C289.424 163.589 289.343 163.277 289.182 163.017C289.02 162.75 288.799 162.55 288.518 162.417C288.244 162.276 287.939 162.206 287.602 162.206C287.118 162.206 286.704 162.36 286.36 162.669C286.023 162.978 285.83 163.406 285.78 163.954H289.424Z" fill="white"/>
<path d="M294.901 167.26L292.637 164.712V167.26H291.678V159.468H292.637V164.049L294.859 161.49H296.196L293.479 164.365L296.206 167.26H294.901Z" fill="white"/>
<path d="M298.056 159.468V167.26H297.098V159.468H298.056Z" fill="white"/>
<path d="M304.659 161.49L301.184 169.977H300.194L301.332 167.197L299.005 161.49H300.068L301.879 166.165L303.669 161.49H304.659Z" fill="white"/>
<path fill-rule="evenodd" clip-rule="evenodd" d="M291.415 159.205H292.9V163.344L294.739 161.227H296.807L293.841 164.365L296.816 167.524H294.783L292.9 165.405V167.524H291.415V159.205ZM291.942 159.732V166.997H292.374V159.732H291.942ZM292.696 164.382L295.019 166.997H295.597L293.117 164.364L295.585 161.753H294.979L292.696 164.382ZM296.835 159.205H298.319V167.524H296.835V159.205ZM297.361 159.732V166.997H297.793V159.732H297.361ZM267.431 159.658H269.003L270.412 165.137L271.97 159.658H273.444L274.922 165.098L276.335 159.658H277.921L275.641 167.524H274.171L272.659 162.286L271.091 167.522L269.632 167.536L267.431 159.658ZM268.124 160.184L270.03 167.006L270.348 167.003L268.595 160.184H268.124ZM270.429 167.002L270.698 166.999L272.668 160.42L274.567 166.997H274.892L273.041 160.184H272.367L270.429 167.002ZM274.972 166.997H275.246L277.22 160.184H276.742L274.972 166.997ZM281.115 161.659C280.593 161.659 280.14 161.772 279.749 161.993C279.367 162.206 279.067 162.513 278.852 162.919C278.636 163.324 278.524 163.804 278.524 164.365C278.524 164.924 278.639 165.406 278.861 165.819C279.084 166.226 279.387 166.538 279.771 166.758C280.163 166.979 280.608 167.092 281.115 167.092C281.757 167.092 282.274 166.932 282.684 166.629C283.003 166.386 283.24 166.092 283.395 165.744H282.914C282.777 166.039 282.571 166.285 282.298 166.476C281.97 166.703 281.569 166.808 281.115 166.808C280.549 166.808 280.054 166.629 279.645 166.268L279.641 166.264C279.231 165.887 279.016 165.372 278.978 164.75L278.96 164.47H283.61C283.617 164.361 283.621 164.255 283.621 164.154C283.621 163.668 283.514 163.242 283.307 162.872L283.304 162.867C283.103 162.491 282.816 162.197 282.438 161.982C282.061 161.769 281.623 161.659 281.115 161.659ZM279.491 161.534C279.97 161.264 280.514 161.132 281.115 161.132C281.702 161.132 282.232 161.26 282.698 161.524C283.161 161.787 283.519 162.152 283.768 162.617C284.023 163.074 284.147 163.589 284.147 164.154C284.147 164.347 284.136 164.549 284.114 164.76L284.09 164.997H279.536C279.604 165.371 279.761 165.658 279.996 165.875C280.302 166.145 280.67 166.281 281.115 166.281C281.488 166.281 281.776 166.196 281.996 166.044C282.231 165.879 282.394 165.665 282.488 165.394L282.549 165.218H284.115L284.022 165.552C283.852 166.162 283.509 166.664 283.001 167.049L282.998 167.051C282.482 167.434 281.848 167.619 281.115 167.619C280.526 167.619 279.989 167.486 279.511 167.216L279.509 167.215C279.038 166.944 278.667 166.561 278.399 166.071L278.398 166.069C278.128 165.569 277.998 164.998 277.998 164.365C277.998 163.732 278.124 163.166 278.387 162.672C278.648 162.18 279.017 161.799 279.491 161.534ZM287.644 161.659C287.122 161.659 286.67 161.772 286.279 161.993C285.896 162.206 285.597 162.513 285.381 162.919C285.166 163.324 285.054 163.804 285.054 164.365C285.054 164.924 285.169 165.406 285.391 165.819C285.614 166.226 285.917 166.538 286.301 166.758C286.692 166.979 287.138 167.092 287.644 167.092C288.287 167.092 288.804 166.932 289.213 166.629C289.533 166.386 289.769 166.092 289.925 165.744H289.443C289.307 166.039 289.101 166.285 288.827 166.476C288.5 166.703 288.099 166.808 287.644 166.808C287.079 166.808 286.584 166.629 286.175 166.268L286.171 166.264C285.76 165.887 285.546 165.372 285.507 164.75L285.49 164.47H290.14C290.147 164.361 290.151 164.255 290.151 164.154C290.151 163.668 290.044 163.242 289.837 162.872L289.834 162.867C289.633 162.491 289.346 162.197 288.968 161.982C288.591 161.769 288.153 161.659 287.644 161.659ZM286.02 161.534C286.5 161.264 287.043 161.132 287.644 161.132C288.231 161.132 288.762 161.26 289.227 161.524C289.691 161.787 290.049 162.152 290.297 162.617C290.552 163.074 290.677 163.589 290.677 164.154C290.677 164.347 290.666 164.549 290.644 164.76L290.62 164.997H286.066C286.134 165.371 286.291 165.658 286.526 165.875C286.832 166.145 287.2 166.281 287.644 166.281C288.018 166.281 288.306 166.196 288.526 166.044C288.761 165.879 288.923 165.665 289.017 165.394L289.079 165.218H290.645L290.552 165.552C290.382 166.162 290.039 166.664 289.53 167.049L289.528 167.051C289.011 167.434 288.378 167.619 287.644 167.619C287.056 167.619 286.519 167.486 286.041 167.216L286.039 167.215C285.567 166.944 285.196 166.561 284.928 166.071L284.928 166.069C284.658 165.569 284.528 164.998 284.528 164.365C284.528 163.732 284.654 163.166 284.916 162.672C285.178 162.18 285.546 161.799 286.02 161.534ZM298.613 161.227H300.249L301.878 165.433L303.488 161.227H305.052L301.361 170.24H299.803L301.048 167.197L298.613 161.227ZM299.396 161.753L301.616 167.197L300.587 169.714H301.008L304.267 161.753H303.851L301.881 166.898L299.888 161.753H299.396ZM279.654 162.474C280.049 162.119 280.527 161.943 281.073 161.943C281.446 161.943 281.792 162.021 282.105 162.181C282.431 162.336 282.689 162.57 282.876 162.879C283.068 163.188 283.157 163.55 283.157 163.954V164.217H278.963L278.989 163.931C279.042 163.332 279.257 162.837 279.652 162.475L279.654 162.474ZM280.007 162.864C279.785 163.068 279.632 163.339 279.556 163.691H282.614C282.585 163.483 282.522 163.306 282.428 163.156L282.427 163.153C282.292 162.93 282.11 162.766 281.876 162.655L281.868 162.651C281.635 162.531 281.372 162.469 281.073 162.469C280.65 162.469 280.3 162.602 280.007 162.864ZM286.184 162.474C286.579 162.119 287.056 161.943 287.602 161.943C287.976 161.943 288.322 162.021 288.635 162.181C288.96 162.336 289.219 162.57 289.406 162.879C289.598 163.188 289.687 163.55 289.687 163.954V164.217H285.493L285.518 163.931C285.572 163.332 285.787 162.837 286.182 162.475L286.184 162.474ZM289.406 162.879C289.406 162.88 289.407 162.88 289.407 162.881L289.182 163.017L289.405 162.878C289.406 162.878 289.406 162.879 289.406 162.879ZM286.537 162.864C286.315 163.068 286.161 163.339 286.086 163.691H289.144C289.115 163.483 289.052 163.306 288.958 163.156L288.957 163.153C288.822 162.93 288.64 162.766 288.405 162.655L288.398 162.651C288.165 162.531 287.902 162.469 287.602 162.469C287.18 162.469 286.83 162.602 286.537 162.864Z" fill="white"/>
<g filter="url(#filter2_b_355_4199)">
<path d="M346.069 153.575C346.069 149.698 349.212 146.555 353.089 146.555H418.911C422.788 146.555 425.931 149.698 425.931 153.575V177.988C425.931 181.865 422.788 185.008 418.911 185.008H353.089C349.212 185.008 346.069 181.865 346.069 177.988V153.575Z" fill="url(#paint10_linear_355_4199)" fill-opacity="0.35"/>
</g>
<g filter="url(#filter3_b_355_4199)">
<path d="M254.376 376.894C254.376 373.016 257.519 369.874 261.396 369.874H368.628C372.505 369.874 375.648 373.016 375.648 376.894V401.306C375.648 405.183 372.505 408.326 368.628 408.326H261.396C257.519 408.326 254.376 405.183 254.376 401.306V376.894Z" fill="#5B90FD" fill-opacity="0.11"/>
</g>
<g filter="url(#filter4_b_355_4199)">
<path d="M394.873 376.894C394.873 373.016 398.016 369.874 401.893 369.874H507.646C511.523 369.874 514.666 373.016 514.666 376.894V401.306C514.666 405.183 511.523 408.326 507.646 408.326H401.893C398.016 408.326 394.873 405.183 394.873 401.306V376.894Z" fill="#5B90FD" fill-opacity="0.11"/>
</g>
<path d="M374.916 161.453V168.739H373.958V163.306L371.536 168.739H370.862L368.43 163.295V168.739H367.472V161.453H368.504L371.199 167.476L373.895 161.453H374.916Z" fill="#676767" fill-opacity="0.3"/>
<path d="M379.058 168.834C378.518 168.834 378.026 168.711 377.584 168.466C377.149 168.22 376.805 167.872 376.552 167.423C376.306 166.967 376.183 166.44 376.183 165.844C376.183 165.254 376.31 164.735 376.562 164.285C376.822 163.829 377.173 163.481 377.615 163.243C378.058 162.997 378.553 162.874 379.1 162.874C379.648 162.874 380.143 162.997 380.585 163.243C381.027 163.481 381.375 163.825 381.627 164.275C381.887 164.724 382.017 165.247 382.017 165.844C382.017 166.44 381.884 166.967 381.617 167.423C381.357 167.872 381.003 168.22 380.553 168.466C380.104 168.711 379.606 168.834 379.058 168.834ZM379.058 167.992C379.402 167.992 379.725 167.911 380.027 167.75C380.329 167.588 380.571 167.346 380.753 167.023C380.943 166.7 381.038 166.307 381.038 165.844C381.038 165.38 380.946 164.987 380.764 164.664C380.581 164.341 380.343 164.103 380.048 163.948C379.753 163.787 379.434 163.706 379.09 163.706C378.739 163.706 378.416 163.787 378.121 163.948C377.833 164.103 377.601 164.341 377.426 164.664C377.25 164.987 377.163 165.38 377.163 165.844C377.163 166.314 377.247 166.711 377.415 167.034C377.591 167.357 377.823 167.599 378.11 167.76C378.398 167.915 378.714 167.992 379.058 167.992Z" fill="#676767" fill-opacity="0.3"/>
<path d="M386.088 162.864C386.79 162.864 387.359 163.078 387.794 163.506C388.229 163.927 388.447 164.538 388.447 165.338V168.739H387.499V165.475C387.499 164.9 387.356 164.461 387.068 164.159C386.78 163.85 386.387 163.696 385.888 163.696C385.383 163.696 384.979 163.854 384.677 164.169C384.383 164.485 384.235 164.945 384.235 165.549V168.739H383.277V162.969H384.235V163.79C384.425 163.496 384.681 163.267 385.004 163.106C385.334 162.944 385.695 162.864 386.088 162.864Z" fill="#676767" fill-opacity="0.3"/>
<path d="M391.181 163.759V167.16C391.181 167.441 391.241 167.641 391.36 167.76C391.48 167.872 391.687 167.929 391.981 167.929H392.687V168.739H391.824C391.29 168.739 390.89 168.617 390.623 168.371C390.356 168.125 390.223 167.722 390.223 167.16V163.759H389.475V162.969H390.223V161.516H391.181V162.969H392.687V163.759H391.181Z" fill="#676767" fill-opacity="0.3"/>
<path d="M396.712 162.864C397.147 162.864 397.541 162.958 397.892 163.148C398.243 163.331 398.516 163.608 398.713 163.98C398.916 164.352 399.018 164.805 399.018 165.338V168.739H398.071V165.475C398.071 164.9 397.927 164.461 397.639 164.159C397.351 163.85 396.958 163.696 396.459 163.696C395.954 163.696 395.55 163.854 395.248 164.169C394.954 164.485 394.806 164.945 394.806 165.549V168.739H393.848V160.947H394.806V163.79C394.996 163.496 395.256 163.267 395.585 163.106C395.922 162.944 396.298 162.864 396.712 162.864Z" fill="#676767" fill-opacity="0.3"/>
<path d="M401.542 160.947V168.739H400.583V160.947H401.542Z" fill="#676767" fill-opacity="0.3"/>
<path d="M408.145 162.969L404.67 171.456H403.68L404.818 168.676L402.49 162.969H403.554L405.365 167.644L407.155 162.969H408.145Z" fill="#676767" fill-opacity="0.3"/>
<path fill-rule="evenodd" clip-rule="evenodd" d="M393.585 160.684H395.07V163.118C395.192 163.023 395.325 162.94 395.47 162.869L395.472 162.868C395.848 162.688 396.263 162.6 396.713 162.6C397.187 162.6 397.623 162.704 398.015 162.915C398.415 163.124 398.726 163.44 398.945 163.855C399.174 164.274 399.282 164.772 399.282 165.338V169.003H397.808V165.475C397.808 164.941 397.675 164.577 397.449 164.34L397.447 164.338C397.218 164.092 396.9 163.959 396.46 163.959C396.015 163.959 395.685 164.095 395.44 164.35C395.207 164.601 395.07 164.986 395.07 165.549V169.003H393.585V160.684ZM398.015 162.915C398.016 162.916 398.017 162.916 398.017 162.916L397.892 163.148L398.014 162.914C398.014 162.915 398.015 162.915 398.015 162.915ZM394.112 161.21V168.476H394.544V165.549C394.544 164.905 394.701 164.371 395.057 163.99L395.059 163.987C395.418 163.611 395.895 163.432 396.46 163.432C397.017 163.432 397.484 163.607 397.831 163.978C397.831 163.979 397.832 163.979 397.832 163.979L397.639 164.159L397.83 163.977C397.83 163.977 397.831 163.978 397.831 163.978C398.18 164.345 398.334 164.858 398.334 165.475V168.476H398.071V168.739H398.334V168.476H398.756V168.739H399.019V168.476H398.756V165.338C398.756 164.838 398.66 164.431 398.482 164.106L398.481 164.103C398.307 163.775 398.071 163.538 397.771 163.381L397.767 163.38C397.458 163.213 397.108 163.127 396.713 163.127C396.334 163.127 395.998 163.2 395.701 163.343C395.412 163.484 395.19 163.68 395.028 163.933L394.544 164.686V161.21H394.807V160.947H394.544V161.21H394.112ZM400.321 160.684H401.806V169.003H400.321V160.684ZM400.847 161.21V168.476H401.279V161.21H400.847ZM367.209 161.189H368.675L371.2 166.831L373.725 161.189H375.18V169.003H373.695V164.543L371.708 169.003H370.692L368.694 164.53V169.003H367.209V161.189ZM367.735 161.716V168.476H368.167V163.295L368.671 163.188L371.034 168.476H371.366L373.718 163.199L374.222 163.306V168.476H374.654V161.716H374.066L371.2 168.12L368.334 161.716H367.735ZM389.96 161.252H391.445V162.706H392.951V164.022H391.445V167.16C391.445 167.409 391.499 167.523 391.544 167.571C391.59 167.612 391.712 167.665 391.982 167.665H392.951V169.003H391.824C391.255 169.003 390.779 168.872 390.445 168.564C390.101 168.247 389.96 167.755 389.96 167.16V164.022H389.213V162.706H389.96V161.252ZM390.487 161.779V163.232H389.739V163.495H390.487V167.16C390.487 167.688 390.613 168.003 390.802 168.177C391.002 168.361 391.326 168.476 391.824 168.476H392.424V168.192H391.982C391.669 168.192 391.375 168.135 391.18 167.952L391.175 167.946C390.982 167.753 390.919 167.467 390.919 167.16V163.495H392.424V163.232H390.919V161.779H390.487ZM386.089 163.127C385.734 163.127 385.412 163.199 385.121 163.342C384.84 163.483 384.62 163.679 384.457 163.933L383.972 164.686V163.232H383.541V168.476H383.972V165.549C383.972 164.905 384.13 164.371 384.485 163.99L384.488 163.987C384.847 163.611 385.324 163.432 385.889 163.432C386.445 163.432 386.913 163.607 387.26 163.978C387.26 163.979 387.26 163.979 387.261 163.979L387.068 164.159L387.259 163.977C387.259 163.977 387.259 163.978 387.26 163.978C387.609 164.345 387.763 164.858 387.763 165.475V168.476H387.5V168.739H387.763V168.476H388.184V168.739H388.448V168.476H388.184V165.338C388.184 164.585 387.981 164.052 387.612 163.695L387.61 163.694C387.232 163.321 386.733 163.127 386.089 163.127ZM384.889 162.869C385.257 162.689 385.659 162.6 386.089 162.6C386.848 162.6 387.487 162.834 387.979 163.317C388.48 163.803 388.711 164.491 388.711 165.338V169.003H387.237V165.475C387.237 164.941 387.104 164.577 386.878 164.34L386.876 164.338C386.647 164.092 386.329 163.959 385.889 163.959C385.444 163.959 385.114 164.095 384.869 164.35C384.636 164.601 384.499 164.986 384.499 165.549V169.003H383.014V162.706H384.499V163.114C384.617 163.022 384.747 162.94 384.887 162.87L384.889 162.869ZM379.101 163.137C378.594 163.137 378.144 163.251 377.744 163.473L377.741 163.474C377.344 163.688 377.029 164 376.792 164.415C376.565 164.819 376.447 165.293 376.447 165.844C376.447 166.402 376.562 166.884 376.783 167.296C377.013 167.703 377.322 168.015 377.713 168.236C378.113 168.458 378.56 168.571 379.059 168.571C379.565 168.571 380.02 168.458 380.428 168.235C380.834 168.012 381.154 167.699 381.39 167.291C381.63 166.88 381.754 166.4 381.754 165.844C381.754 165.286 381.633 164.81 381.4 164.406L381.398 164.404C381.17 163.997 380.858 163.689 380.46 163.474L380.458 163.473C380.058 163.251 379.607 163.137 379.101 163.137ZM377.49 163.012C377.974 162.743 378.513 162.611 379.101 162.611C379.689 162.611 380.228 162.743 380.712 163.012C381.198 163.274 381.581 163.654 381.857 164.144C382.142 164.639 382.281 165.208 382.281 165.844C382.281 166.481 382.138 167.054 381.845 167.555C381.562 168.045 381.172 168.427 380.68 168.696C380.19 168.965 379.647 169.097 379.059 169.097C378.477 169.097 377.941 168.965 377.457 168.696L377.455 168.695C376.977 168.425 376.599 168.042 376.323 167.552L376.321 167.548C376.051 167.048 375.921 166.477 375.921 165.844C375.921 165.215 376.056 164.65 376.334 164.156C376.616 163.659 377.003 163.275 377.49 163.012ZM402.099 162.706H403.735L405.364 166.912L406.975 162.706H408.538L404.847 171.719H403.289L404.534 168.676L402.099 162.706ZM402.883 163.232L405.102 168.676L404.073 171.193H404.494L407.753 163.232H407.337L405.367 168.377L403.374 163.232H402.883ZM377.996 163.717C378.331 163.533 378.697 163.443 379.09 163.443C379.477 163.443 379.839 163.534 380.173 163.716C380.517 163.897 380.79 164.174 380.994 164.535C381.203 164.906 381.302 165.346 381.302 165.844C381.302 166.342 381.2 166.783 380.982 167.154C380.777 167.516 380.501 167.795 380.152 167.982C379.811 168.164 379.446 168.255 379.059 168.255C378.674 168.255 378.315 168.168 377.986 167.992L377.982 167.99C377.646 167.801 377.381 167.521 377.185 167.159L377.183 167.155C376.99 166.785 376.9 166.344 376.9 165.844C376.9 165.348 376.994 164.909 377.195 164.538C377.392 164.177 377.658 163.898 377.996 163.717ZM379.09 163.969C378.781 163.969 378.502 164.04 378.248 164.179L378.246 164.18C378.009 164.307 377.812 164.506 377.658 164.79C377.508 165.065 377.427 165.413 377.427 165.844C377.427 166.282 377.505 166.634 377.648 166.91C377.802 167.192 377.999 167.395 378.238 167.529C378.485 167.661 378.757 167.728 379.059 167.728C379.36 167.728 379.64 167.658 379.903 167.517C380.157 167.381 380.365 167.177 380.525 166.893L380.527 166.89C380.688 166.616 380.775 166.271 380.775 165.844C380.775 165.414 380.691 165.068 380.535 164.794C380.375 164.51 380.171 164.31 379.926 164.181L379.922 164.179C379.667 164.039 379.391 163.969 379.09 163.969Z" fill="#676767" fill-opacity="0.3"/>
<g filter="url(#filter5_b_355_4199)">
<path d="M445.157 153.575C445.157 149.698 448.3 146.555 452.177 146.555H517.999C521.876 146.555 525.019 149.698 525.019 153.575V177.988C525.019 181.865 521.876 185.008 517.999 185.008H452.177C448.3 185.008 445.157 181.865 445.157 177.988V153.575Z" fill="url(#paint11_linear_355_4199)" fill-opacity="0.35"/>
</g>
<path d="M475.653 161.4L473.262 165.97V168.739H472.304V165.97L469.903 161.4H470.967L472.778 165.117L474.589 161.4H475.653Z" fill="#676767" fill-opacity="0.3"/>
<path d="M481.928 165.633C481.928 165.816 481.918 166.009 481.897 166.212H477.285C477.32 166.781 477.513 167.227 477.864 167.55C478.222 167.865 478.654 168.023 479.159 168.023C479.573 168.023 479.917 167.929 480.191 167.739C480.472 167.543 480.668 167.283 480.781 166.96H481.813C481.658 167.514 481.349 167.967 480.886 168.318C480.423 168.662 479.847 168.834 479.159 168.834C478.611 168.834 478.12 168.711 477.685 168.466C477.257 168.22 476.92 167.872 476.674 167.423C476.428 166.967 476.305 166.44 476.305 165.844C476.305 165.247 476.425 164.724 476.663 164.275C476.902 163.825 477.236 163.481 477.664 163.243C478.099 162.997 478.597 162.874 479.159 162.874C479.707 162.874 480.191 162.994 480.612 163.232C481.033 163.471 481.356 163.801 481.581 164.222C481.813 164.636 481.928 165.107 481.928 165.633ZM480.939 165.433C480.939 165.068 480.858 164.756 480.696 164.496C480.535 164.229 480.314 164.029 480.033 163.896C479.759 163.755 479.454 163.685 479.117 163.685C478.632 163.685 478.218 163.839 477.874 164.148C477.537 164.457 477.344 164.885 477.295 165.433H480.939Z" fill="#676767" fill-opacity="0.3"/>
<path d="M482.835 165.833C482.835 165.243 482.955 164.728 483.193 164.285C483.432 163.836 483.758 163.488 484.172 163.243C484.594 162.997 485.061 162.874 485.573 162.874C486.078 162.874 486.517 162.983 486.889 163.201C487.261 163.418 487.539 163.692 487.721 164.022V162.969H488.69V168.739H487.721V167.665C487.532 168.002 487.247 168.283 486.868 168.508C486.496 168.725 486.061 168.834 485.562 168.834C485.05 168.834 484.587 168.708 484.172 168.455C483.758 168.202 483.432 167.848 483.193 167.392C482.955 166.935 482.835 166.416 482.835 165.833ZM487.721 165.844C487.721 165.408 487.633 165.029 487.458 164.706C487.282 164.384 487.044 164.138 486.742 163.969C486.447 163.794 486.121 163.706 485.763 163.706C485.404 163.706 485.078 163.79 484.783 163.959C484.488 164.127 484.253 164.373 484.078 164.696C483.902 165.019 483.814 165.398 483.814 165.833C483.814 166.275 483.902 166.662 484.078 166.991C484.253 167.314 484.488 167.564 484.783 167.739C485.078 167.908 485.404 167.992 485.763 167.992C486.121 167.992 486.447 167.908 486.742 167.739C487.044 167.564 487.282 167.314 487.458 166.991C487.633 166.662 487.721 166.279 487.721 165.844Z" fill="#676767" fill-opacity="0.3"/>
<path d="M491.267 163.906C491.436 163.576 491.675 163.32 491.983 163.137C492.299 162.955 492.682 162.864 493.131 162.864V163.854H492.878C491.804 163.854 491.267 164.436 491.267 165.602V168.739H490.309V162.969H491.267V163.906Z" fill="#676767" fill-opacity="0.3"/>
<path d="M495.196 160.947V168.739H494.237V160.947H495.196Z" fill="#676767" fill-opacity="0.3"/>
<path d="M501.799 162.969L498.324 171.456H497.334L498.471 168.676L496.144 162.969H497.208L499.019 167.644L500.809 162.969H501.799Z" fill="#676767" fill-opacity="0.3"/>
<path fill-rule="evenodd" clip-rule="evenodd" d="M493.975 160.684H495.46V169.003H493.975V160.684ZM494.502 161.21V168.476H494.933V161.21H494.502ZM469.469 161.137H471.133L472.779 164.516L474.426 161.137H476.089L473.527 166.035V169.003H472.042V166.035L469.469 161.137ZM470.34 161.663L472.568 165.905V168.476H473V165.905L475.219 161.663H474.755L472.779 165.718L470.803 161.663H470.34ZM492.869 163.139C492.574 163.167 492.325 163.245 492.117 163.365C491.853 163.521 491.649 163.739 491.503 164.026L491.005 163.906V163.232H490.573V168.476H491.005V165.601C491.005 164.983 491.147 164.47 491.478 164.112C491.81 163.752 492.29 163.592 492.869 163.59V163.139ZM491.853 162.909C492.217 162.699 492.647 162.6 493.132 162.6H493.396V164.117H492.88C492.389 164.117 492.068 164.249 491.865 164.469C491.658 164.693 491.532 165.054 491.532 165.601V169.003H490.047V162.706H491.532V163.141C491.629 163.055 491.736 162.979 491.851 162.911L491.853 162.909ZM479.16 163.137C478.638 163.137 478.185 163.251 477.794 163.472C477.412 163.685 477.113 163.992 476.897 164.398C476.682 164.803 476.57 165.282 476.57 165.844C476.57 166.403 476.685 166.885 476.906 167.297C477.13 167.705 477.432 168.016 477.816 168.237C478.208 168.458 478.654 168.571 479.16 168.571C479.802 168.571 480.32 168.411 480.729 168.107C481.049 167.865 481.285 167.571 481.44 167.223H480.959C480.823 167.518 480.616 167.763 480.343 167.955C480.015 168.181 479.615 168.286 479.16 168.286C478.595 168.286 478.1 168.108 477.691 167.747L477.687 167.743C477.276 167.365 477.061 166.851 477.023 166.228L477.006 165.949H481.656C481.663 165.84 481.666 165.734 481.666 165.633C481.666 165.146 481.56 164.721 481.352 164.35L481.35 164.346C481.149 163.969 480.862 163.676 480.483 163.461C480.107 163.248 479.668 163.137 479.16 163.137ZM477.536 163.013C478.015 162.743 478.559 162.611 479.16 162.611C479.747 162.611 480.277 162.739 480.743 163.003C481.206 163.266 481.565 163.631 481.813 164.096C482.068 164.553 482.193 165.067 482.193 165.633C482.193 165.825 482.182 166.028 482.16 166.239L482.135 166.475H477.582C477.65 166.849 477.806 167.137 478.041 167.354C478.348 167.623 478.716 167.76 479.16 167.76C479.534 167.76 479.822 167.675 480.042 167.523C480.277 167.358 480.439 167.144 480.533 166.873L480.595 166.696H482.16L482.067 167.03C481.897 167.641 481.555 168.142 481.046 168.528L481.044 168.529C480.527 168.913 479.893 169.097 479.16 169.097C478.572 169.097 478.035 168.965 477.556 168.695L477.555 168.694C477.083 168.423 476.712 168.04 476.444 167.549L476.443 167.548C476.174 167.048 476.043 166.477 476.043 165.844C476.043 165.211 476.17 164.644 476.432 164.151C476.693 163.659 477.062 163.277 477.536 163.013ZM485.574 163.137C485.106 163.137 484.686 163.249 484.307 163.47C483.937 163.689 483.644 164 483.427 164.409L483.426 164.41C483.211 164.808 483.1 165.279 483.1 165.833C483.1 166.379 483.211 166.855 483.428 167.269C483.646 167.686 483.94 168.004 484.311 168.23C484.681 168.456 485.097 168.571 485.564 168.571C486.022 168.571 486.41 168.471 486.736 168.281C487.08 168.076 487.329 167.827 487.493 167.536L487.985 166.66V168.476H488.428V163.232H487.985V164.022L487.492 164.149C487.335 163.866 487.095 163.625 486.757 163.428C486.432 163.237 486.041 163.137 485.574 163.137ZM484.041 163.015C484.504 162.745 485.017 162.611 485.574 162.611C486.118 162.611 486.604 162.728 487.023 162.973C487.183 163.067 487.329 163.171 487.459 163.285V162.706H488.954V169.003H487.459V168.403C487.323 168.525 487.171 168.635 487.003 168.734L487.002 168.735C486.584 168.98 486.101 169.097 485.564 169.097C485.006 169.097 484.494 168.959 484.036 168.68C483.579 168.401 483.22 168.009 482.961 167.513C482.7 167.015 482.573 166.452 482.573 165.833C482.573 165.208 482.7 164.647 482.962 164.161C483.222 163.672 483.581 163.288 484.039 163.016L484.041 163.015ZM495.754 162.706H497.389L499.019 166.912L500.629 162.706H502.192L498.502 171.719H496.943L498.188 168.676L495.754 162.706ZM496.537 163.232L498.757 168.676L497.727 171.193H498.148L501.408 163.232H500.991L499.021 168.377L497.029 163.232H496.537ZM477.7 163.952C478.094 163.598 478.572 163.422 479.118 163.422C479.491 163.422 479.837 163.499 480.151 163.659C480.476 163.815 480.735 164.049 480.922 164.358C481.113 164.667 481.203 165.029 481.203 165.433V165.696H477.008L477.034 165.409C477.088 164.81 477.303 164.316 477.698 163.954L477.7 163.952ZM478.052 164.343C477.831 164.547 477.677 164.818 477.601 165.17H480.659C480.631 164.962 480.567 164.785 480.474 164.635L480.472 164.632C480.337 164.409 480.155 164.244 479.921 164.133L479.914 164.13C479.681 164.01 479.417 163.948 479.118 163.948C478.696 163.948 478.345 164.08 478.052 164.343ZM484.654 163.73C484.991 163.538 485.362 163.443 485.764 163.443C486.166 163.443 486.538 163.542 486.874 163.741C487.221 163.935 487.493 164.218 487.69 164.581C487.89 164.949 487.985 165.372 487.985 165.844C487.985 166.315 487.89 166.741 487.691 167.115L487.69 167.117C487.493 167.48 487.221 167.765 486.875 167.966L486.873 167.967C486.537 168.16 486.165 168.255 485.764 168.255C485.362 168.255 484.991 168.16 484.654 167.967L484.65 167.965C484.311 167.764 484.044 167.478 483.848 167.117L483.846 167.115C483.647 166.741 483.552 166.31 483.552 165.833C483.552 165.362 483.647 164.938 483.848 164.57C484.044 164.208 484.313 163.925 484.654 163.73ZM485.764 163.969C485.449 163.969 485.168 164.043 484.915 164.187C484.666 164.329 484.464 164.538 484.31 164.821C484.159 165.099 484.079 165.434 484.079 165.833C484.079 166.24 484.159 166.581 484.311 166.867C484.465 167.15 484.667 167.362 484.917 167.512C485.169 167.655 485.45 167.728 485.764 167.728C486.078 167.728 486.359 167.655 486.611 167.511C486.869 167.361 487.074 167.149 487.227 166.867C487.379 166.581 487.459 166.242 487.459 165.844C487.459 165.444 487.379 165.11 487.228 164.832C487.074 164.55 486.87 164.342 486.615 164.199L486.608 164.195C486.356 164.045 486.076 163.969 485.764 163.969Z" fill="#676767" fill-opacity="0.3"/>
<path d="M314.384 380.396V381.283C313.39 381.337 312.192 381.807 312.218 382.96C312.254 384.123 313.381 384.336 314.517 384.558C315.537 384.753 316.567 384.957 316.558 385.889C316.558 386.829 315.342 387.104 314.579 387.104C313.825 387.104 312.84 386.865 312.467 386.137L312.041 386.35C312.467 387.184 313.479 387.53 314.384 387.566V388.427H314.774V387.566C315.786 387.521 317.028 387.069 317.037 385.898C317.037 384.558 315.795 384.345 314.597 384.114C313.55 383.919 312.715 383.724 312.698 382.943C312.671 382.029 313.851 381.727 314.579 381.727C315.244 381.736 316.096 381.958 316.433 382.588L316.85 382.357C316.451 381.629 315.582 381.328 314.783 381.283V380.396H314.384Z" fill="#46639D"/>
<path d="M318.357 382.978C318.357 381.949 319.44 381.665 320.265 381.665C321.117 381.665 322.217 381.967 322.217 383.058C322.217 384.105 321.073 384.407 320.265 384.407C319.12 384.407 317.852 384.762 317.852 386.137V387.539H322.599V387.078H318.322V386.128C318.322 385.063 319.378 384.851 320.283 384.842C321.383 384.842 322.661 384.327 322.661 383.058C322.652 381.718 321.41 381.248 320.265 381.248C319.147 381.248 317.887 381.656 317.887 382.978H318.357Z" fill="#46639D"/>
<path d="M323.381 387.539H325.954V387.122H324.907V381.328H323.381V381.754H324.428V387.122H323.381V387.539Z" fill="#46639D"/>
<path d="M326.656 387.273C326.656 387.442 326.754 387.548 326.869 387.592L326.594 388.329H326.976L327.331 387.424C327.349 387.371 327.357 387.326 327.357 387.273C327.357 386.812 326.656 386.812 326.656 387.273Z" fill="#46639D"/>
<path d="M328.797 383.688C328.797 381.035 332.613 381.044 332.613 383.688V385.17C332.613 387.823 328.797 387.832 328.797 385.17V383.688ZM328.327 385.17C328.327 388.427 333.083 388.418 333.083 385.17V383.688C333.083 380.44 328.327 380.431 328.327 383.688V385.17Z" fill="#46639D"/>
<path d="M334.43 383.688C334.43 381.035 338.245 381.044 338.245 383.688V385.17C338.245 387.823 334.43 387.832 334.43 385.17V383.688ZM333.959 385.17C333.959 388.427 338.716 388.418 338.716 385.17V383.688C338.716 380.44 333.959 380.431 333.959 383.688V385.17Z" fill="#46639D"/>
<path d="M340.062 383.688C340.062 381.035 343.878 381.044 343.878 383.688V385.17C343.878 387.823 340.062 387.832 340.062 385.17V383.688ZM339.592 385.17C339.592 388.427 344.348 388.418 344.348 385.17V383.688C344.348 380.44 339.592 380.431 339.592 383.688V385.17Z" fill="#46639D"/>
<g filter="url(#filter6_d_355_4199)">
<path d="M271.782 383.106C271.782 381.167 273.354 379.596 275.292 379.596H287.542C289.481 379.596 291.052 381.167 291.052 383.106V395.356C291.052 397.294 289.481 398.866 287.542 398.866H275.292C273.354 398.866 271.782 397.294 271.782 395.356V383.106Z" fill="url(#paint12_radial_355_4199)"/>
</g>
<path fill-rule="evenodd" clip-rule="evenodd" d="M281.106 384.103C281.278 383.932 281.555 383.932 281.727 384.103L284.519 386.895C284.69 387.066 284.69 387.344 284.519 387.516C284.348 387.687 284.07 387.687 283.898 387.516L281.855 385.472L281.855 394.048C281.855 394.29 281.659 394.487 281.417 394.487C281.174 394.487 280.978 394.29 280.978 394.048L280.978 385.472L278.935 387.516C278.763 387.687 278.485 387.687 278.314 387.516C278.143 387.344 278.143 387.066 278.314 386.895L281.106 384.103Z" fill="white"/>
<path d="M455.567 380.396V381.283C454.573 381.337 453.375 381.807 453.402 382.96C453.438 384.123 454.565 384.336 455.7 384.558C456.721 384.753 457.75 384.957 457.741 385.889C457.741 386.829 456.526 387.104 455.762 387.104C455.008 387.104 454.023 386.865 453.651 386.137L453.225 386.35C453.651 387.184 454.662 387.53 455.567 387.566V388.427H455.958V387.566C456.969 387.521 458.212 387.069 458.22 385.898C458.22 384.558 456.978 384.345 455.78 384.114C454.733 383.919 453.899 383.724 453.881 382.943C453.855 382.029 455.035 381.727 455.762 381.727C456.428 381.736 457.28 381.958 457.617 382.588L458.034 382.357C457.635 381.629 456.765 381.328 455.967 381.283V380.396H455.567Z" fill="#46639D"/>
<path d="M458.698 387.539H461.271V387.122H460.224V381.328H458.698V381.754H459.745V387.122H458.698V387.539Z" fill="#46639D"/>
<path d="M461.61 387.539H464.183V387.122H463.136V381.328H461.61V381.754H462.657V387.122H461.61V387.539Z" fill="#46639D"/>
<path d="M464.885 387.273C464.885 387.442 464.983 387.548 465.098 387.592L464.823 388.329H465.204L465.559 387.424C465.577 387.371 465.586 387.326 465.586 387.273C465.586 386.812 464.885 386.812 464.885 387.273Z" fill="#46639D"/>
<path d="M467.026 383.688C467.026 381.035 470.841 381.044 470.841 383.688V385.17C470.841 387.823 467.026 387.832 467.026 385.17V383.688ZM466.555 385.17C466.555 388.427 471.312 388.418 471.312 385.17V383.688C471.312 380.44 466.555 380.431 466.555 383.688V385.17Z" fill="#46639D"/>
<path d="M472.658 383.688C472.658 381.035 476.474 381.044 476.474 383.688V385.17C476.474 387.823 472.658 387.832 472.658 385.17V383.688ZM472.188 385.17C472.188 388.427 476.944 388.418 476.944 385.17V383.688C476.944 380.44 472.188 380.431 472.188 383.688V385.17Z" fill="#46639D"/>
<path d="M478.291 383.688C478.291 381.035 482.107 381.044 482.107 383.688V385.17C482.107 387.823 478.291 387.832 478.291 385.17V383.688ZM477.821 385.17C477.821 388.427 482.577 388.418 482.577 385.17V383.688C482.577 380.44 477.821 380.431 477.821 383.688V385.17Z" fill="#46639D"/>
<g filter="url(#filter7_d_355_4199)">
<path d="M411.489 383.106C411.489 381.167 413.061 379.596 414.999 379.596H427.249C429.188 379.596 430.759 381.167 430.759 383.106V395.356C430.759 397.294 429.188 398.866 427.249 398.866H414.999C413.061 398.866 411.489 397.294 411.489 395.356V383.106Z" fill="url(#paint13_radial_355_4199)"/>
</g>
<path fill-rule="evenodd" clip-rule="evenodd" d="M420.814 394.358C420.986 394.529 421.263 394.529 421.435 394.358L424.227 391.566C424.398 391.395 424.398 391.117 424.227 390.945C424.056 390.774 423.778 390.774 423.606 390.945L421.563 392.989L421.563 384.413C421.563 384.171 421.367 383.974 421.125 383.974C420.882 383.974 420.686 384.171 420.686 384.413L420.686 392.989L418.643 390.945C418.471 390.774 418.193 390.774 418.022 390.945C417.851 391.117 417.851 391.395 418.022 391.566L420.814 394.358Z" fill="white"/>
<path d="M119.794 422.951C119.794 411.314 129.227 401.881 140.863 401.881H226.441C238.078 401.881 247.511 411.314 247.511 422.951V508.529C247.511 520.165 238.078 529.598 226.441 529.598H140.863C129.227 529.598 119.794 520.165 119.794 508.529V422.951Z" fill="url(#paint14_radial_355_4199)"/>
<path d="M154.715 491.187C154.715 489.754 155.038 488.469 155.684 487.331C156.33 486.18 157.208 485.281 158.318 484.635C159.441 483.988 160.684 483.665 162.047 483.665C163.648 483.665 165.046 484.052 166.24 484.824C167.434 485.597 168.305 486.692 168.852 488.111H166.556C166.148 487.226 165.558 486.545 164.786 486.067C164.027 485.59 163.114 485.351 162.047 485.351C161.022 485.351 160.102 485.59 159.287 486.067C158.472 486.545 157.833 487.226 157.37 488.111C156.906 488.982 156.674 490.007 156.674 491.187C156.674 492.353 156.906 493.378 157.37 494.263C157.833 495.134 158.472 495.808 159.287 496.286C160.102 496.763 161.022 497.002 162.047 497.002C163.114 497.002 164.027 496.77 164.786 496.307C165.558 495.829 166.148 495.148 166.556 494.263H168.852C168.305 495.668 167.434 496.756 166.24 497.529C165.046 498.287 163.648 498.667 162.047 498.667C160.684 498.667 159.441 498.351 158.318 497.719C157.208 497.072 156.33 496.18 155.684 495.043C155.038 493.905 154.715 492.62 154.715 491.187Z" fill="white"/>
<path d="M170.99 492.725C170.99 491.545 171.229 490.513 171.706 489.628C172.184 488.729 172.837 488.034 173.666 487.542C174.509 487.05 175.443 486.805 176.468 486.805C177.479 486.805 178.357 487.022 179.102 487.458C179.846 487.893 180.401 488.441 180.766 489.101V486.994H182.705V498.54H180.766V496.391C180.387 497.065 179.818 497.627 179.06 498.077C178.315 498.512 177.444 498.73 176.447 498.73C175.422 498.73 174.495 498.477 173.666 497.971C172.837 497.466 172.184 496.756 171.706 495.843C171.229 494.93 170.99 493.891 170.99 492.725ZM180.766 492.746C180.766 491.875 180.591 491.117 180.239 490.471C179.888 489.825 179.411 489.333 178.807 488.996C178.217 488.645 177.564 488.469 176.847 488.469C176.131 488.469 175.478 488.638 174.888 488.975C174.298 489.312 173.827 489.804 173.476 490.45C173.125 491.096 172.949 491.854 172.949 492.725C172.949 493.61 173.125 494.383 173.476 495.043C173.827 495.689 174.298 496.187 174.888 496.539C175.478 496.876 176.131 497.044 176.847 497.044C177.564 497.044 178.217 496.876 178.807 496.539C179.411 496.187 179.888 495.689 180.239 495.043C180.591 494.383 180.766 493.617 180.766 492.746Z" fill="white"/>
<path d="M187.862 488.869C188.199 488.209 188.677 487.697 189.295 487.331C189.927 486.966 190.692 486.784 191.591 486.784V488.764H191.085C188.936 488.764 187.862 489.93 187.862 492.262V498.54H185.945V486.994H187.862V488.869Z" fill="white"/>
<path d="M193.088 492.725C193.088 491.545 193.327 490.513 193.804 489.628C194.282 488.729 194.935 488.034 195.764 487.542C196.607 487.05 197.548 486.805 198.587 486.805C199.486 486.805 200.322 487.015 201.094 487.437C201.867 487.844 202.457 488.385 202.864 489.059V482.949H204.803V498.54H202.864V496.37C202.485 497.058 201.923 497.627 201.179 498.077C200.434 498.512 199.563 498.73 198.566 498.73C197.541 498.73 196.607 498.477 195.764 497.971C194.935 497.466 194.282 496.756 193.804 495.843C193.327 494.93 193.088 493.891 193.088 492.725ZM202.864 492.746C202.864 491.875 202.689 491.117 202.337 490.471C201.986 489.825 201.509 489.333 200.905 488.996C200.315 488.645 199.662 488.469 198.945 488.469C198.229 488.469 197.576 488.638 196.986 488.975C196.396 489.312 195.925 489.804 195.574 490.45C195.223 491.096 195.047 491.854 195.047 492.725C195.047 493.61 195.223 494.383 195.574 495.043C195.925 495.689 196.396 496.187 196.986 496.539C197.576 496.876 198.229 497.044 198.945 497.044C199.662 497.044 200.315 496.876 200.905 496.539C201.509 496.187 201.986 495.689 202.337 495.043C202.689 494.383 202.864 493.617 202.864 492.746Z" fill="white"/>
<g clip-path="url(#clip0_355_4199)">
<g clip-path="url(#clip1_355_4199)">
<path d="M165.609 428.998H200.908C201.428 428.998 201.927 429.205 202.294 429.573C202.662 429.94 202.869 430.439 202.869 430.959V462.336C202.869 462.857 202.662 463.355 202.294 463.723C201.927 464.091 201.428 464.298 200.908 464.298H165.609C165.088 464.298 164.59 464.091 164.222 463.723C163.854 463.355 163.647 462.857 163.647 462.336V430.959C163.647 430.439 163.854 429.94 164.222 429.573C164.59 429.205 165.088 428.998 165.609 428.998V428.998ZM198.947 444.687H167.57V460.375H198.947V444.687ZM198.947 440.765V432.92H167.57V440.765H198.947ZM187.18 452.531H195.025V456.453H187.18V452.531Z" fill="white"/>
</g>
</g>
<g filter="url(#filter8_b_355_4199)">
<path d="M546.747 273.349C546.747 261.712 556.18 252.279 567.816 252.279H653.394C665.031 252.279 674.464 261.712 674.464 273.349V358.927C674.464 370.563 665.031 379.996 653.394 379.996H567.816C556.18 379.996 546.747 370.563 546.747 358.927V273.349Z" fill="url(#paint15_radial_355_4199)"/>
</g>
<path d="M620.474 316.016V312.442H625.835V307.08H629.409V313.335C629.409 314.032 629.123 314.657 628.587 315.194C628.051 315.73 627.425 316.016 626.728 316.016H620.474ZM602.603 316.016H596.349C595.652 316.016 595.026 315.73 594.49 315.194C593.954 314.657 593.668 314.032 593.668 313.335V307.08H597.242V312.442H602.603V316.016ZM620.474 280.275H626.728C627.425 280.275 628.051 280.561 628.587 281.097C629.123 281.633 629.409 282.259 629.409 282.955V289.21H625.835V283.849H620.474V280.275ZM602.603 280.275V283.849H597.242V289.21H593.668V282.955C593.668 282.259 593.954 281.633 594.49 281.097C595.026 280.561 595.652 280.275 596.349 280.275H602.603ZM613.325 307.527L620.474 303.417V295.215L613.325 299.325V307.527ZM611.538 296.215L618.686 292.123L611.538 287.923L604.39 292.123L611.538 296.215ZM602.603 303.417L609.751 307.527V299.325L602.603 295.215V303.417ZM622.672 290.264C623.565 290.836 624.048 291.605 624.048 292.623V303.917C624.048 304.936 623.565 305.704 622.672 306.276L612.879 311.959C611.985 312.531 611.092 312.531 610.198 311.959L600.405 306.276C599.512 305.704 599.029 304.936 599.029 303.917V292.623C599.029 291.605 599.512 290.836 600.405 290.264L610.198 284.582C610.645 284.349 611.092 284.242 611.538 284.242C611.985 284.242 612.432 284.349 612.879 284.582L622.672 290.264Z" fill="white"/>
<path d="M580.854 342.622C580.854 341.415 581.133 340.333 581.689 339.375C582.257 338.416 583.02 337.671 583.978 337.138C584.948 336.594 586.007 336.322 587.155 336.322C588.468 336.322 589.633 336.647 590.651 337.298C591.68 337.937 592.426 338.848 592.887 340.031H590.456C590.136 339.38 589.693 338.895 589.125 338.576C588.557 338.256 587.9 338.097 587.155 338.097C586.338 338.097 585.611 338.28 584.972 338.647C584.333 339.014 583.83 339.54 583.463 340.226C583.108 340.913 582.931 341.711 582.931 342.622C582.931 343.533 583.108 344.332 583.463 345.018C583.83 345.704 584.333 346.237 584.972 346.615C585.611 346.982 586.338 347.166 587.155 347.166C587.9 347.166 588.557 347.006 589.125 346.686C589.693 346.367 590.136 345.882 590.456 345.231H592.887C592.426 346.414 591.68 347.325 590.651 347.964C589.633 348.603 588.468 348.922 587.155 348.922C585.995 348.922 584.936 348.656 583.978 348.124C583.02 347.58 582.257 346.828 581.689 345.87C581.133 344.912 580.854 343.829 580.854 342.622Z" fill="white"/>
<path d="M597.278 340.457C597.574 339.96 597.965 339.576 598.45 339.304C598.947 339.02 599.532 338.878 600.207 338.878V340.972H599.692C598.899 340.972 598.296 341.173 597.882 341.575C597.479 341.977 597.278 342.675 597.278 343.669V348.816H595.255V339.037H597.278V340.457Z" fill="white"/>
<path d="M610.869 339.037L604.87 353.413H602.776L604.764 348.656L600.913 339.037H603.167L605.917 346.491L608.775 339.037H610.869Z" fill="white"/>
<path d="M614.419 340.475C614.762 340.025 615.229 339.647 615.821 339.339C616.412 339.031 617.081 338.878 617.826 338.878C618.678 338.878 619.453 339.091 620.151 339.517C620.861 339.931 621.417 340.516 621.819 341.273C622.222 342.031 622.423 342.9 622.423 343.882C622.423 344.864 622.222 345.746 621.819 346.527C621.417 347.296 620.861 347.899 620.151 348.337C619.453 348.763 618.678 348.976 617.826 348.976C617.081 348.976 616.418 348.828 615.839 348.532C615.259 348.224 614.786 347.846 614.419 347.396V353.466H612.396V339.037H614.419V340.475ZM620.364 343.882C620.364 343.208 620.222 342.628 619.938 342.143C619.666 341.646 619.299 341.273 618.838 341.025C618.388 340.765 617.903 340.635 617.383 340.635C616.874 340.635 616.389 340.765 615.927 341.025C615.478 341.285 615.111 341.664 614.827 342.161C614.555 342.658 614.419 343.243 614.419 343.918C614.419 344.592 614.555 345.184 614.827 345.693C615.111 346.189 615.478 346.568 615.927 346.828C616.389 347.089 616.874 347.219 617.383 347.219C617.903 347.219 618.388 347.089 618.838 346.828C619.299 346.556 619.666 346.166 619.938 345.657C620.222 345.148 620.364 344.557 620.364 343.882Z" fill="white"/>
<path d="M626.784 340.688V346.101C626.784 346.467 626.867 346.734 627.032 346.899C627.21 347.053 627.506 347.13 627.92 347.13H629.162V348.816H627.565C626.654 348.816 625.956 348.603 625.471 348.177C624.986 347.751 624.743 347.059 624.743 346.101V340.688H623.589V339.037H624.743V336.606H626.784V339.037H629.162V340.688H626.784Z" fill="white"/>
<path d="M635.268 348.976C634.345 348.976 633.511 348.769 632.766 348.355C632.021 347.929 631.435 347.337 631.009 346.58C630.583 345.811 630.37 344.923 630.37 343.918C630.37 342.924 630.589 342.043 631.027 341.273C631.464 340.504 632.062 339.913 632.819 339.499C633.576 339.085 634.422 338.878 635.357 338.878C636.292 338.878 637.138 339.085 637.895 339.499C638.652 339.913 639.25 340.504 639.687 341.273C640.125 342.043 640.344 342.924 640.344 343.918C640.344 344.912 640.119 345.793 639.67 346.562C639.22 347.331 638.605 347.929 637.824 348.355C637.055 348.769 636.203 348.976 635.268 348.976ZM635.268 347.219C635.789 347.219 636.274 347.095 636.724 346.846C637.185 346.598 637.558 346.225 637.842 345.728C638.126 345.231 638.268 344.628 638.268 343.918C638.268 343.208 638.131 342.61 637.859 342.125C637.587 341.628 637.226 341.256 636.777 341.007C636.327 340.759 635.842 340.635 635.322 340.635C634.801 340.635 634.316 340.759 633.866 341.007C633.428 341.256 633.079 341.628 632.819 342.125C632.559 342.61 632.429 343.208 632.429 343.918C632.429 344.971 632.695 345.787 633.227 346.367C633.772 346.935 634.452 347.219 635.268 347.219Z" fill="white"/>
<g filter="url(#filter9_b_355_4199)">
<path d="M163.497 21.2108C163.497 9.57462 172.93 0.141602 184.566 0.141602L270.144 0.141602C281.781 0.141602 291.214 9.57462 291.214 21.2108V106.789C291.214 118.425 281.781 127.858 270.144 127.858H184.566C172.93 127.858 163.497 118.425 163.497 106.789V21.2108Z" fill="url(#paint16_radial_355_4199)"/>
</g>
<path d="M217.015 84.9932V86.9527H210.799V91.2719H215.645V93.2313H210.799V99.6364H208.397V84.9932H217.015Z" fill="white"/>
<path d="M221.643 84.9932V99.6364H219.241V84.9932H221.643Z" fill="white"/>
<path d="M233.624 96.6445H227.493L226.439 99.6364H223.932L229.178 84.9722H231.96L237.206 99.6364H234.678L233.624 96.6445ZM232.95 94.6851L230.569 87.8797L228.167 94.6851H232.95Z" fill="white"/>
<path d="M248.947 84.9932V86.9527H245.049V99.6364H242.647V86.9527H238.728V84.9932H248.947Z" fill="white"/>
<path d="M243.531 48.138V36.1291C243.531 31.7712 236.471 28.2415 227.756 28.2415C219.04 28.2415 211.98 31.7712 211.98 36.1291V55.8481C211.98 60.206 219.06 63.7357 227.756 63.7357C228.663 63.7357 229.53 63.7357 230.378 63.6174C229.964 62.4145 229.728 61.1328 229.728 59.7919V59.6933C229.097 59.7919 228.446 59.7919 227.756 59.7919C220.124 59.7919 215.924 56.834 215.924 55.8481V51.4507C219.099 52.9888 223.26 53.8762 227.756 53.8762C229.037 53.8762 230.26 53.7973 231.463 53.6593C233.533 50.2479 237.28 47.9605 241.559 47.9605C242.229 47.9605 242.88 48.0394 243.531 48.138ZM239.587 46.8759C237.024 48.7492 232.528 49.9324 227.756 49.9324C222.984 49.9324 218.488 48.7492 215.924 46.8759V41.3349C218.823 42.9716 223.043 44.0167 227.756 44.0167C232.469 44.0167 236.688 42.9716 239.587 41.3349V46.8759ZM227.756 40.0729C220.124 40.0729 215.924 37.115 215.924 36.1291C215.924 35.1431 220.124 32.1853 227.756 32.1853C235.387 32.1853 239.587 35.1431 239.587 36.1291C239.587 37.115 235.387 40.0729 227.756 40.0729ZM247.475 57.82H243.531V65.7076H239.587V57.82H235.643L241.559 51.9043L247.475 57.82Z" fill="white"/>
<defs>
<filter id="filter0_bd_355_4199" x="185.345" y="79.3136" width="399.831" height="405.747" filterUnits="userSpaceOnUse" color-interpolation-filters="sRGB">
<feFlood flood-opacity="0" result="BackgroundImageFix"/>
<feGaussianBlur in="BackgroundImageFix" stdDeviation="11.2733"/>
<feComposite in2="SourceAlpha" operator="in" result="effect1_backgroundBlur_355_4199"/>
<feColorMatrix in="SourceAlpha" type="matrix" values="0 0 0 0 0 0 0 0 0 0 0 0 0 0 0 0 0 0 127 0" result="hardAlpha"/>
<feOffset dy="4.74667"/>
<feGaussianBlur stdDeviation="18.9867"/>
<feComposite in2="hardAlpha" operator="out"/>
<feColorMatrix type="matrix" values="0 0 0 0 0.137255 0 0 0 0 0.247059 0 0 0 0 0.470588 0 0 0 0.03 0"/>
<feBlend mode="normal" in2="effect1_backgroundBlur_355_4199" result="effect2_dropShadow_355_4199"/>
<feBlend mode="normal" in="SourceGraphic" in2="effect2_dropShadow_355_4199" result="shape"/>
</filter>
<filter id="filter1_bd_355_4199" x="185.345" y="79.3136" width="399.831" height="405.747" filterUnits="userSpaceOnUse" color-interpolation-filters="sRGB">
<feFlood flood-opacity="0" result="BackgroundImageFix"/>
<feGaussianBlur in="BackgroundImageFix" stdDeviation="11.2733"/>
<feComposite in2="SourceAlpha" operator="in" result="effect1_backgroundBlur_355_4199"/>
<feColorMatrix in="SourceAlpha" type="matrix" values="0 0 0 0 0 0 0 0 0 0 0 0 0 0 0 0 0 0 127 0" result="hardAlpha"/>
<feOffset dy="4.74667"/>
<feGaussianBlur stdDeviation="18.9867"/>
<feComposite in2="hardAlpha" operator="out"/>
<feColorMatrix type="matrix" values="0 0 0 0 0.137255 0 0 0 0 0.247059 0 0 0 0 0.470588 0 0 0 0.03 0"/>
<feBlend mode="normal" in2="effect1_backgroundBlur_355_4199" result="effect2_dropShadow_355_4199"/>
<feBlend mode="normal" in="SourceGraphic" in2="effect2_dropShadow_355_4199" result="shape"/>
</filter>
<filter id="filter2_b_355_4199" x="276.056" y="76.5421" width="219.889" height="178.479" filterUnits="userSpaceOnUse" color-interpolation-filters="sRGB">
<feFlood flood-opacity="0" result="BackgroundImageFix"/>
<feGaussianBlur in="BackgroundImageFix" stdDeviation="35.0067"/>
<feComposite in2="SourceAlpha" operator="in" result="effect1_backgroundBlur_355_4199"/>
<feBlend mode="normal" in="SourceGraphic" in2="effect1_backgroundBlur_355_4199" result="shape"/>
</filter>
<filter id="filter3_b_355_4199" x="180.803" y="296.3" width="268.419" height="185.599" filterUnits="userSpaceOnUse" color-interpolation-filters="sRGB">
<feFlood flood-opacity="0" result="BackgroundImageFix"/>
<feGaussianBlur in="BackgroundImageFix" stdDeviation="36.7867"/>
<feComposite in2="SourceAlpha" operator="in" result="effect1_backgroundBlur_355_4199"/>
<feBlend mode="normal" in="SourceGraphic" in2="effect1_backgroundBlur_355_4199" result="shape"/>
</filter>
<filter id="filter4_b_355_4199" x="321.3" y="296.3" width="266.94" height="185.599" filterUnits="userSpaceOnUse" color-interpolation-filters="sRGB">
<feFlood flood-opacity="0" result="BackgroundImageFix"/>
<feGaussianBlur in="BackgroundImageFix" stdDeviation="36.7867"/>
<feComposite in2="SourceAlpha" operator="in" result="effect1_backgroundBlur_355_4199"/>
<feBlend mode="normal" in="SourceGraphic" in2="effect1_backgroundBlur_355_4199" result="shape"/>
</filter>
<filter id="filter5_b_355_4199" x="375.144" y="76.5421" width="219.889" height="178.479" filterUnits="userSpaceOnUse" color-interpolation-filters="sRGB">
<feFlood flood-opacity="0" result="BackgroundImageFix"/>
<feGaussianBlur in="BackgroundImageFix" stdDeviation="35.0067"/>
<feComposite in2="SourceAlpha" operator="in" result="effect1_backgroundBlur_355_4199"/>
<feBlend mode="normal" in="SourceGraphic" in2="effect1_backgroundBlur_355_4199" result="shape"/>
</filter>
<filter id="filter6_d_355_4199" x="261.102" y="371.289" width="40.6295" height="40.63" filterUnits="userSpaceOnUse" color-interpolation-filters="sRGB">
<feFlood flood-opacity="0" result="BackgroundImageFix"/>
<feColorMatrix in="SourceAlpha" type="matrix" values="0 0 0 0 0 0 0 0 0 0 0 0 0 0 0 0 0 0 127 0" result="hardAlpha"/>
<feOffset dy="2.37333"/>
<feGaussianBlur stdDeviation="5.34"/>
<feComposite in2="hardAlpha" operator="out"/>
<feColorMatrix type="matrix" values="0 0 0 0 0.324583 0 0 0 0 0.95 0 0 0 0 0.386302 0 0 0 0.59 0"/>
<feBlend mode="normal" in2="BackgroundImageFix" result="effect1_dropShadow_355_4199"/>
<feBlend mode="normal" in="SourceGraphic" in2="effect1_dropShadow_355_4199" result="shape"/>
</filter>
<filter id="filter7_d_355_4199" x="400.809" y="371.289" width="40.6295" height="40.63" filterUnits="userSpaceOnUse" color-interpolation-filters="sRGB">
<feFlood flood-opacity="0" result="BackgroundImageFix"/>
<feColorMatrix in="SourceAlpha" type="matrix" values="0 0 0 0 0 0 0 0 0 0 0 0 0 0 0 0 0 0 127 0" result="hardAlpha"/>
<feOffset dy="2.37333"/>
<feGaussianBlur stdDeviation="5.34"/>
<feComposite in2="hardAlpha" operator="out"/>
<feColorMatrix type="matrix" values="0 0 0 0 1 0 0 0 0 0.588235 0 0 0 0 0.560784 0 0 0 0.53 0"/>
<feBlend mode="normal" in2="BackgroundImageFix" result="effect1_dropShadow_355_4199"/>
<feBlend mode="normal" in="SourceGraphic" in2="effect1_dropShadow_355_4199" result="shape"/>
</filter>
<filter id="filter8_b_355_4199" x="473.141" y="178.673" width="274.929" height="274.928" filterUnits="userSpaceOnUse" color-interpolation-filters="sRGB">
<feFlood flood-opacity="0" result="BackgroundImageFix"/>
<feGaussianBlur in="BackgroundImageFix" stdDeviation="36.803"/>
<feComposite in2="SourceAlpha" operator="in" result="effect1_backgroundBlur_355_4199"/>
<feBlend mode="normal" in="SourceGraphic" in2="effect1_backgroundBlur_355_4199" result="shape"/>
</filter>
<filter id="filter9_b_355_4199" x="89.8912" y="-73.4643" width="274.929" height="274.928" filterUnits="userSpaceOnUse" color-interpolation-filters="sRGB">
<feFlood flood-opacity="0" result="BackgroundImageFix"/>
<feGaussianBlur in="BackgroundImageFix" stdDeviation="36.803"/>
<feComposite in2="SourceAlpha" operator="in" result="effect1_backgroundBlur_355_4199"/>
<feBlend mode="normal" in="SourceGraphic" in2="effect1_backgroundBlur_355_4199" result="shape"/>
</filter>
<linearGradient id="paint0_linear_355_4199" x1="85.3953" y1="57.6678" x2="-0.642823" y2="76.8916" gradientUnits="userSpaceOnUse">
<stop stop-color="#319CFF"/>
<stop offset="0.444301" stop-color="#B7DCFF"/>
<stop offset="0.916667" stop-color="#0B86F8"/>
</linearGradient>
<linearGradient id="paint1_linear_355_4199" x1="391.224" y1="120.727" x2="382.793" y2="304.996" gradientUnits="userSpaceOnUse">
<stop stop-color="#8992FF"/>
<stop offset="1" stop-color="#8992FF" stop-opacity="0"/>
</linearGradient>
<linearGradient id="paint2_linear_355_4199" x1="387.52" y1="195.535" x2="384.028" y2="309.884" gradientUnits="userSpaceOnUse">
<stop stop-color="#233F78"/>
<stop offset="1" stop-color="#9AB9F9"/>
</linearGradient>
<linearGradient id="paint3_linear_355_4199" x1="267.692" y1="285.925" x2="263.609" y2="296.39" gradientUnits="userSpaceOnUse">
<stop stop-color="#233F78"/>
<stop offset="1" stop-color="#9AB9F9"/>
</linearGradient>
<linearGradient id="paint4_linear_355_4199" x1="308.64" y1="257.02" x2="304.557" y2="267.485" gradientUnits="userSpaceOnUse">
<stop stop-color="#233F78"/>
<stop offset="1" stop-color="#9AB9F9"/>
</linearGradient>
<linearGradient id="paint5_linear_355_4199" x1="392.946" y1="211.254" x2="388.862" y2="221.719" gradientUnits="userSpaceOnUse">
<stop stop-color="#233F78"/>
<stop offset="1" stop-color="#9AB9F9"/>
</linearGradient>
<linearGradient id="paint6_linear_355_4199" x1="349.589" y1="293.151" x2="345.506" y2="303.616" gradientUnits="userSpaceOnUse">
<stop stop-color="#233F78"/>
<stop offset="1" stop-color="#9AB9F9"/>
</linearGradient>
<linearGradient id="paint7_linear_355_4199" x1="438.711" y1="278.699" x2="434.628" y2="289.164" gradientUnits="userSpaceOnUse">
<stop stop-color="#233F78"/>
<stop offset="1" stop-color="#9AB9F9"/>
</linearGradient>
<linearGradient id="paint8_linear_355_4199" x1="501.339" y1="288.334" x2="497.256" y2="298.799" gradientUnits="userSpaceOnUse">
<stop stop-color="#233F78"/>
<stop offset="1" stop-color="#9AB9F9"/>
</linearGradient>
<linearGradient id="paint9_linear_355_4199" x1="474.842" y1="249.794" x2="470.759" y2="260.259" gradientUnits="userSpaceOnUse">
<stop stop-color="#233F78"/>
<stop offset="1" stop-color="#9AB9F9"/>
</linearGradient>
<linearGradient id="paint10_linear_355_4199" x1="386" y1="146.555" x2="386" y2="185.008" gradientUnits="userSpaceOnUse">
<stop stop-color="#D9DBFD"/>
<stop offset="1" stop-color="#C2C5FD"/>
</linearGradient>
<linearGradient id="paint11_linear_355_4199" x1="485.088" y1="146.555" x2="485.088" y2="185.008" gradientUnits="userSpaceOnUse">
<stop stop-color="#D9DBFD"/>
<stop offset="1" stop-color="#C2C5FD"/>
</linearGradient>
<radialGradient id="paint12_radial_355_4199" cx="0" cy="0" r="1" gradientUnits="userSpaceOnUse" gradientTransform="translate(272.987 378.391) rotate(50.1944) scale(28.2193)">
<stop stop-color="#5EFF6E"/>
<stop offset="1" stop-color="#35CA44"/>
</radialGradient>
<radialGradient id="paint13_radial_355_4199" cx="0" cy="0" r="1" gradientUnits="userSpaceOnUse" gradientTransform="translate(411.489 377.187) rotate(49.3987) scale(33.3113)">
<stop stop-color="#FFA39D"/>
<stop offset="1" stop-color="#FF675E"/>
</radialGradient>
<radialGradient id="paint14_radial_355_4199" cx="0" cy="0" r="1" gradientUnits="userSpaceOnUse" gradientTransform="translate(118.966 390.438) rotate(49.5928) scale(215.231)">
<stop stop-color="#80E0FF"/>
<stop offset="1" stop-color="#2F5DFD"/>
</radialGradient>
<radialGradient id="paint15_radial_355_4199" cx="0" cy="0" r="1" gradientUnits="userSpaceOnUse" gradientTransform="translate(546.747 240.306) rotate(49.7126) scale(197.514)">
<stop stop-color="#FFF282"/>
<stop offset="1" stop-color="#FC7E24"/>
</radialGradient>
<radialGradient id="paint16_radial_355_4199" cx="0" cy="0" r="1" gradientUnits="userSpaceOnUse" gradientTransform="translate(163.497 -11.8318) rotate(49.7126) scale(197.514)">
<stop stop-color="#FFE270"/>
<stop offset="1" stop-color="#3BF759"/>
</radialGradient>
<clipPath id="clip0_355_4199">
<rect width="47.8937" height="47.8937" fill="white" transform="translate(159.308 422.375)"/>
</clipPath>
<clipPath id="clip1_355_4199">
<rect width="47.0657" height="47.0657" fill="white" transform="translate(160.276 422.914)"/>
</clipPath>
</defs>
</svg>
