<svg width="664" height="313" viewBox="0 0 664 313" fill="none" xmlns="http://www.w3.org/2000/svg">
<g filter="url(#filter0_b_401_4233)">
<rect y="125" width="96" height="95" rx="10" fill="#EDF4FF" fill-opacity="0.5"/>
<rect x="0.5" y="125.5" width="95" height="94" rx="9.5" stroke="#B9D5FF" style="mix-blend-mode:multiply"/>
</g>
<g filter="url(#filter1_b_401_4233)">
<rect x="133" y="37" width="95" height="96" rx="10" fill="#EDF4FF" fill-opacity="0.5"/>
<rect x="133.5" y="37.5" width="94" height="95" rx="9.5" stroke="#B9D5FF" style="mix-blend-mode:multiply"/>
</g>
<g filter="url(#filter2_b_401_4233)">
<rect x="284" width="96" height="96" rx="10" fill="#EDF4FF" fill-opacity="0.5"/>
<rect x="284.5" y="0.5" width="95" height="95" rx="9.5" stroke="#B9D5FF" style="mix-blend-mode:multiply"/>
</g>
<path fill-rule="evenodd" clip-rule="evenodd" d="M326.177 27.4592C326.604 25.0419 328.823 23.3913 331.227 23.6346L331.571 23.6824L340.742 25.2994C343.159 25.7256 344.81 27.9454 344.567 30.3488L344.519 30.6933L344.114 32.986C345.29 33.1933 346.103 34.2492 346.035 35.4128L346.003 35.6829L344.386 44.8537C345.652 45.0769 346.498 46.2843 346.274 47.5505C346.067 48.7263 345.011 49.5393 343.847 49.4707L343.577 49.439L342.365 56.317C343.631 56.5403 344.476 57.7478 344.253 59.014C344.046 60.1898 342.988 61.0025 341.824 60.9338L341.554 60.9021L339.753 71.0591C339.572 72.0781 338.745 72.8436 337.739 72.9641L337.46 72.9807H318.549C317.86 72.9807 317.207 72.676 316.765 72.1484C316.385 71.6963 316.194 71.1201 316.223 70.5378L316.256 70.2466L318.627 56.8594C317.362 56.6355 316.518 55.4284 316.741 54.1628C316.948 52.9871 318.004 52.174 319.168 52.2426L319.438 52.2743L320.651 45.3964C319.384 45.1731 318.539 43.9655 318.762 42.6994C318.969 41.5237 320.025 40.7107 321.189 40.7793L321.459 40.811L323.076 31.6403C323.183 31.0322 323.528 30.4917 324.033 30.1375C324.455 29.8424 324.96 29.6969 325.468 29.7186L325.773 29.7519L326.177 27.4592ZM323.213 57.668L321.325 68.3246H325.915L326.849 63.0239C327.072 61.7576 328.28 60.9121 329.546 61.1354C330.812 61.3586 331.658 62.5662 331.435 63.8324L330.643 68.3246H335.509L336.969 60.0936L323.213 57.668ZM325.236 46.2049L324.023 53.0829L328.608 53.8914L329.013 51.5987C329.236 50.3325 330.443 49.4872 331.71 49.7105C332.885 49.9178 333.699 50.9736 333.63 52.1372L333.598 52.4073L333.194 54.6999L337.779 55.5085L338.992 48.6305L325.236 46.2049ZM327.257 34.7415L326.044 41.6195L330.63 42.4281L331.034 40.1354C331.257 38.8692 332.465 38.0237 333.731 38.247C334.997 38.4702 335.843 39.6777 335.619 40.9439L335.215 43.2366L339.801 44.0452L341.013 37.1671L327.257 34.7415ZM330.763 28.2677L330.358 30.5604L339.529 32.1774L339.934 29.8847L330.763 28.2677Z" fill="#0066FF"/>
<g filter="url(#filter3_b_401_4233)">
<rect x="436" y="37" width="95" height="96" rx="10" fill="#EDF4FF" fill-opacity="0.5"/>
<rect x="436.5" y="37.5" width="94" height="95" rx="9.5" stroke="#B9D5FF" style="mix-blend-mode:multiply"/>
</g>
<g filter="url(#filter4_b_401_4233)">
<rect x="568" y="125" width="96" height="95" rx="10" fill="#EDF4FF" fill-opacity="0.5"/>
<rect x="568.5" y="125.5" width="95" height="94" rx="9.5" stroke="#B9D5FF" style="mix-blend-mode:multiply"/>
</g>
<path fill-rule="evenodd" clip-rule="evenodd" d="M483.02 58.269C484.343 58.269 485.415 59.3416 485.415 60.6646V65.3515C485.489 66.1907 485.58 67.0281 485.676 67.8651C486.876 67.9949 487.811 69.0116 487.811 70.2467C487.811 71.2634 487.177 72.1322 486.284 72.48L486.435 73.4702C487.094 77.6913 488.091 82.7427 489.506 87.0154H490.206C491.529 87.0154 492.602 88.0879 492.602 89.4109C492.602 90.333 492.081 91.1333 491.317 91.5338C491.744 92.4329 492.203 93.3254 492.684 94.202H494.997C496.32 94.202 497.393 95.2744 497.393 96.5975C497.393 97.7313 496.605 98.6809 495.548 98.9295C497.394 101.728 499.389 104.464 501.591 106.998C502.21 107.705 502.358 108.709 501.97 109.565C501.581 110.421 500.728 110.971 499.789 110.971H490.206C489.375 110.971 488.612 110.541 488.178 109.85L488.031 109.579C487.721 108.939 487.275 108.361 486.78 107.853C485.905 106.957 484.688 106.18 483.02 106.18C481.351 106.18 480.135 106.957 479.259 107.853C478.867 108.255 478.502 108.708 478.213 109.198L478.008 109.579C477.617 110.427 476.768 110.971 475.833 110.971H466.251C465.311 110.971 464.458 110.421 464.07 109.565C463.684 108.714 463.838 107.698 464.451 106.995C466.653 104.46 468.643 101.732 470.492 98.9295C469.434 98.6809 468.647 97.7313 468.647 96.5975C468.647 95.2744 469.719 94.202 471.042 94.202H473.355C473.836 93.3254 474.296 92.4329 474.722 91.5338C473.959 91.1333 473.438 90.333 473.438 89.4109C473.438 88.0879 474.51 87.0154 475.833 87.0154H476.533C477.791 83.2175 478.719 78.8042 479.372 74.9057L479.756 72.48C478.862 72.1322 478.229 71.2634 478.229 70.2467C478.229 69.0116 479.163 67.9949 480.364 67.8651C480.459 67.0281 480.55 66.1907 480.624 65.3515V60.6646C480.624 59.3416 481.697 58.269 483.02 58.269ZM486.189 91.8064H479.851L479.32 93.0102L478.754 94.202H487.285L486.72 93.0102L486.189 91.8064Z" fill="#0066FF"/>
<path d="M593.997 188.455C592.756 188.455 591.75 187.449 591.75 186.208C591.75 185.055 592.617 184.105 593.735 183.975L596.343 183.963C596.314 179.68 595.043 175.242 592.271 171.915C591.051 170.451 592.092 168.229 593.997 168.229C597.313 168.229 600.375 169.153 603.114 170.69C602.469 167.095 601.227 163.528 598.965 160.619C597.792 159.111 598.916 156.921 600.825 156.994C613.075 157.465 620.919 162.11 624.928 169.646C629.167 167.217 634.067 165.982 638.944 165.982C640.795 165.982 641.852 168.096 640.741 169.577C637.084 174.454 635.992 179.534 636.389 183.962L638.944 183.96C640.185 183.96 641.191 184.966 641.191 186.208C641.191 187.36 640.323 188.31 639.206 188.44L593.997 188.455ZM598.552 173.528C600.087 176.765 600.824 180.388 600.84 183.963L603.306 183.96C603.626 181.525 603.761 179.061 603.699 176.605C602.117 175.299 600.476 174.271 598.552 173.528ZM604.993 161.869C606.025 163.988 606.73 166.236 607.265 168.528C608.378 173.609 608.424 178.959 607.837 183.961L623.428 183.964C623.62 180.664 623.204 176.997 621.8 173.553C618.919 166.487 612.281 162.899 604.993 161.869ZM634.64 170.854L634.617 170.859C631.839 171.359 629.077 172.356 626.672 173.847C627.764 177.277 628.092 180.748 627.93 183.963L631.879 183.961C631.544 179.38 632.612 174.941 634.64 170.854Z" fill="#0066FF"/>
<path fill-rule="evenodd" clip-rule="evenodd" d="M43.2549 156.638C43.9319 156.638 44.5327 156.965 44.9078 157.469L45.0376 157.667H53.8209C54.1372 157.12 54.6979 156.732 55.3536 156.653L55.6036 156.638H61.778C62.4551 156.638 63.0559 156.965 63.431 157.469L63.5608 157.667H65.8943C68.0644 157.667 69.8421 159.346 69.9993 161.476L70.0106 161.783V163.841C70.0106 166.011 68.3314 167.789 66.2015 167.946L65.8943 167.957V184.422C67.031 184.422 67.9524 185.344 67.9524 186.481C67.9524 187.536 67.1579 188.406 66.1343 188.525L65.8943 188.539H30.9061C29.7694 188.539 28.8479 187.617 28.8479 186.481C28.8479 185.425 29.6425 184.555 30.6661 184.436L30.9061 184.422H32.0264C33.7602 182.241 34.7994 179.563 34.9937 176.786L35.0223 176.19V167.825C34.0064 167.713 32.6871 167.502 31.3437 167.099C29.9109 166.669 28.302 165.977 27.0209 164.824C25.6809 163.618 24.7317 161.926 24.7317 159.725C24.7317 158.669 25.5262 157.8 26.5498 157.681L26.7898 157.667H35.2977C35.614 157.12 36.1747 156.732 36.8304 156.653L37.0805 156.638H43.2549ZM53.5455 167.957H47.3711V184.422H50.5495C52.4072 182.085 53.4675 179.178 53.5455 176.19V167.957ZM61.778 178.248H57.5309C57.2799 180.211 56.6776 182.062 55.8101 183.783L55.4725 184.422H61.778V178.248ZM43.2549 178.248H39.0077C38.7252 180.456 37.9983 182.523 36.9494 184.422H43.2549V178.248ZM61.778 167.957H57.6618V174.132H61.778V167.957ZM43.2549 167.957H39.1386V174.132H43.2549V167.957ZM41.4721 160.754H38.8633C38.5469 161.301 37.9863 161.689 37.3305 161.768L37.0805 161.783H29.7951C31.5233 163.316 34.3141 163.762 36.6 163.832L37.0816 163.841H65.8943V161.783H61.778C61.101 161.783 60.5001 161.456 60.1251 160.951L59.9953 160.754H57.3864C57.0701 161.301 56.5094 161.689 55.8537 161.768L55.6036 161.783H43.2549C42.5777 161.783 41.9769 161.456 41.6019 160.951L41.4721 160.754Z" fill="#0066FF"/>
<path fill-rule="evenodd" clip-rule="evenodd" d="M174.3 62.0142C175.455 62.0142 176.392 62.9507 176.392 64.106V66.4761C177.398 66.7196 178.487 67.1172 179.587 67.647C181.555 68.5947 183.712 70.0367 185.715 72.0403C186.477 72.8014 187.214 73.6422 187.91 74.5654H188.943C190.098 74.5654 191.035 75.502 191.035 76.6573C191.035 77.3268 190.72 77.9228 190.231 78.3057C191.983 81.7899 193.127 86.0937 193.127 91.3003C193.127 95.5171 192.419 99.7323 191.558 103.852H195.218C196.374 103.852 197.31 104.788 197.31 105.943C197.31 107.099 196.374 108.035 195.218 108.035C186.851 108.035 178.484 108.035 170.116 108.035C168.961 108.035 168.024 107.099 168.024 105.943C168.024 104.788 168.961 103.852 170.116 103.852H172.208V78.7491C171.053 78.7491 170.116 77.8125 170.116 76.6573C170.116 75.502 171.053 74.5654 172.208 74.5654V64.106C172.208 62.9507 173.144 62.0142 174.3 62.0142ZM176.392 70.8381V74.5654H182.31C180.61 72.9704 178.6 71.6193 176.392 70.8381ZM185.698 78.7491H176.392V82.9329H187.641C187.112 81.3748 186.448 79.9842 185.698 78.7491ZM188.644 87.1166H176.392V93.3922H188.871C189.019 91.0909 188.925 89.0108 188.644 87.1166ZM188.423 97.576H176.392V103.852H187.279C187.6 102.388 188.07 100.054 188.423 97.576Z" fill="#0066FF"/>
<path d="M437.121 294.984C436.935 292.431 439.083 290.162 441.45 289.066C443.817 287.97 446.48 287.598 448.913 286.611C449.878 286.206 450.952 285.515 450.985 284.485C450.985 282.951 448.848 282.293 448.289 280.902C447.697 279.291 449.385 277.8 450.064 276.222C451.576 272.639 447.806 269.022 444.146 267.554C440.486 266.085 436.124 265.033 434.425 261.526C433.804 259.839 433.406 258.078 433.242 256.288C432.387 251.904 429.099 247.586 424.595 246.852C420.091 246.118 415.017 250.14 415.751 254.523C416.201 256.978 418.042 258.907 419.039 261.099C420.036 263.291 419.784 266.732 417.417 267.466C413.538 268.639 409.8 261.614 406.546 264.025C407.883 268.529 409.176 273.022 410.502 277.559C405.406 280.124 399.302 275.477 397.121 270.206C394.94 264.934 394.863 258.984 392.277 253.931C389.691 248.879 382.699 245.088 378.26 248.671C378.041 255.181 386.732 257.811 390.578 263.082C393.351 266.885 392.946 273.066 388.836 275.477C384.726 277.888 378.304 273.691 379.849 269.263C380.408 267.729 381.702 266.447 381.844 264.792C381.997 262.754 380.255 261.099 378.666 259.784C376.189 257.701 373.712 255.652 371.236 253.603C369.714 252.162 367.918 251.044 365.953 250.315C360.847 248.847 355.751 252.945 353.044 257.449C350.337 261.953 348.835 267.312 345.098 271.049C339.739 276.529 329.569 276.869 324.539 271.126C319.509 265.384 322.063 254.688 329.493 252.551C332.309 251.784 335.849 251.849 337.339 249.394C339.926 245.011 332.528 239.531 335.082 235.148C337.033 231.783 342.216 233.318 345.986 232.178C349.756 231.038 351.827 227.312 354.041 224.101C356.255 220.89 359.663 217.701 363.51 218.534C363.214 216.342 362.918 213.898 363.915 211.882C364.912 209.865 367.729 208.517 369.57 209.832C367.685 212.912 369.942 217.186 373.23 218.72C376.518 220.254 380.365 219.893 383.992 219.487C387.619 219.082 392.167 217.734 392.463 214.15C392.573 212.978 392.124 211.739 392.573 210.643C394.162 206.358 402.151 212.243 405.22 208.813C406.995 207.016 405.033 203.838 402.557 203.246C400.08 202.654 397.559 203.542 395.05 203.619C392.54 203.695 389.461 202.413 389.351 199.925C389.241 197.438 392.014 195.717 392.31 193.35C392.792 189.251 385.734 188.188 383.291 191.52C380.847 194.851 381.702 199.421 382.436 203.476C383.17 207.531 383.586 212.331 380.551 215.18C379.258 217.12 375.893 216.101 374.786 214.084C373.68 212.068 373.899 209.547 373.69 207.246C373.482 204.945 372.474 202.271 370.184 201.646C368.595 201.208 366.896 201.975 365.263 202.194C358.83 202.961 354.359 194.731 356.386 188.66C358.414 182.588 364.222 178.643 369.888 175.509C374.03 173.24 379.17 171.125 383.269 173.426C385.187 174.522 386.556 176.309 388.408 177.416C391.696 179.311 395.696 178.621 399.422 178.687C405.328 178.848 411.001 181.026 415.499 184.857C417.165 186.358 418.71 188.846 417.417 190.643C416.124 192.44 411.992 192.944 412.694 195.18C417.077 196.605 422.261 193.273 422.743 188.78C423.812 189.254 424.734 190.005 425.416 190.955C426.098 191.904 426.515 193.019 426.623 194.183C431.324 189.471 440.343 190.161 444.157 195.619C445.187 197.043 445.932 198.764 447.445 199.75C448.957 200.736 451.511 200.221 451.697 198.501C451.73 197.948 451.628 197.395 451.401 196.89C450.513 194.402 449.593 191.958 448.705 189.503C452.135 187.673 456.201 190.534 458.568 193.602C467.215 205.054 473.396 198.172 485.593 200.035C493.845 201.284 497.462 206.512 502.119 212.835C516.366 232.298 535.248 248.244 548.224 268.584C549.594 270.699 550.854 272.858 552.038 275.05C551.819 274.502 551.632 273.954 551.402 273.406C546.329 260.197 540.018 247.497 532.553 235.477C530.964 232.923 529.331 230.392 527.676 227.904C526.635 226.37 525.561 224.802 524.487 223.301C523.128 221.328 521.681 219.422 520.235 217.526C519.139 215.98 517.944 214.49 516.761 213.021C515.95 212.002 515.095 210.972 514.251 209.953C513.407 208.934 512.399 207.652 511.369 206.512L508.256 202.961C507.961 202.599 507.632 202.238 507.259 201.865C506.163 200.627 505.067 199.421 503.895 198.216C503.815 198.068 503.703 197.941 503.566 197.843C503.27 197.514 502.941 197.186 502.602 196.857C501.681 195.838 500.684 194.84 499.719 193.854C498.13 192.254 496.497 190.643 494.843 189.109C493.473 187.75 492.07 186.468 490.623 185.186C489.363 184.09 488.114 182.928 486.821 181.821C485.527 180.714 484.3 179.629 483.007 178.61C481.451 177.295 479.862 176.013 478.24 174.731C473.768 171.18 469.162 167.826 464.42 164.67C463.237 163.87 462.086 163.103 460.902 162.336C459.719 161.569 458.502 160.791 457.319 160.067C456.135 159.344 454.919 158.566 453.691 157.876C452.464 157.185 451.259 156.418 450.031 155.684C449.034 155.092 448.08 154.588 447.072 154.029C446.585 153.722 446.08 153.444 445.56 153.196C443.456 152.023 441.308 150.884 439.16 149.832C438.064 149.284 437.023 148.736 435.872 148.221C434.513 147.519 433.099 146.862 431.697 146.248C431.498 146.13 431.289 146.031 431.072 145.952C429.812 145.36 428.562 144.78 427.258 144.232C425.45 143.464 423.642 142.697 421.779 141.963C419.707 141.119 417.636 140.286 415.521 139.508C413.198 138.632 410.863 137.799 408.496 137.032C406.129 136.264 403.729 135.453 401.329 134.719C398.929 133.985 396.518 133.327 394.074 132.67C389.274 131.399 384.397 130.259 379.477 129.273C379.388 129.252 379.3 129.226 379.214 129.196C377.329 128.834 375.444 128.473 373.559 128.177C373.438 128.139 373.313 128.113 373.186 128.1C372.375 127.957 371.532 127.815 370.677 127.705C367.159 127.114 363.619 126.61 360.025 126.237C359.597 126.165 359.165 126.118 358.731 126.094C357.701 125.941 356.66 125.875 355.586 125.766C353.23 125.546 350.863 125.36 348.452 125.218C346.041 125.075 343.465 124.922 340.945 124.845C338.424 124.768 335.696 124.703 333.076 124.703C326.128 124.703 319.25 125.006 312.44 125.612C310.819 125.722 309.229 125.875 307.64 126.051C306.051 126.226 304.353 126.423 302.643 126.642C300.934 126.862 299.355 127.081 297.69 127.333C296.024 127.585 294.402 127.848 292.736 128.144C291.333 128.363 289.887 128.615 288.484 128.911C285.01 129.568 281.569 130.292 278.172 131.103C276.583 131.464 274.993 131.87 273.404 132.308C271.815 132.747 270.215 133.152 268.67 133.59C266.04 134.325 263.487 135.125 260.944 135.925C258.873 136.626 256.769 137.317 254.741 138.018C254.684 138.023 254.631 138.046 254.588 138.084C252.484 138.818 250.445 139.585 248.374 140.396L248.045 140.506C246.16 141.229 244.275 141.996 242.423 142.774C240.089 143.717 237.799 144.747 235.541 145.766C233.623 146.643 231.738 147.519 229.886 148.44C228.034 149.36 225.897 150.413 223.935 151.432L223.716 151.552C221.831 152.539 219.946 153.558 218.094 154.621C216.242 155.684 214.291 156.813 212.406 157.909C210.631 159.004 208.9 160.024 207.157 161.119C206.489 161.525 205.864 161.963 205.195 162.402C203.354 163.574 201.579 164.78 199.716 166.018C197.524 167.52 195.332 169.098 193.217 170.665C191.321 172.057 189.48 173.481 187.661 174.906C177.214 183.162 167.494 192.298 158.609 202.216C155.463 205.646 152.504 209.164 149.622 212.747C147.178 215.816 144.811 218.928 142.554 222.15C143.145 222.074 143.748 221.997 144.329 221.964C147.617 221.712 151.178 221.822 154.192 220.386C156.965 219.038 158.926 216.583 161.436 214.83C167.869 210.293 178.412 209.449 180.143 201.843C180.735 199.29 180.034 196.506 180.998 194.051C182.806 189.481 188.987 188.824 193.941 188.901C196.045 188.901 198.521 189.197 199.486 191.016C200.187 192.298 199.782 193.909 199.256 195.268C196.143 203.89 190.151 211.175 182.291 215.893C175.858 219.772 167.464 222.764 165.688 230.008C166.576 232.463 171.091 232.276 171.453 234.841C171.716 236.879 169.053 237.942 168.088 239.772C166.685 242.446 169.907 245.701 172.976 245.548C176.044 245.394 178.598 243.214 180.844 241.164C187.573 234.983 194.642 228.32 197.075 219.553C198.171 215.926 198.489 211.684 201.458 209.273C204.976 206.413 211.267 208.397 212.417 212.747C215.333 211.136 219.881 209.931 221.393 212.934C221.919 214.03 221.766 215.235 222.029 216.364C222.982 221.043 229.459 223.17 230.127 227.882C230.894 233.361 223.837 236.156 218.324 237C213.338 237.767 208.341 238.534 203.354 239.334C201.156 239.491 199.027 240.167 197.141 241.307C195.365 242.622 194.258 245.109 195.288 247.049C196.043 248.032 196.915 248.919 197.886 249.69C202.028 253.778 198.62 262.227 192.779 262.414C190.784 262.49 188.823 261.756 186.828 261.68C180.91 261.427 176.22 266.578 173.403 271.74C170.587 276.902 168.483 282.787 163.759 286.294C156.088 291.959 143.014 290.677 139.321 299.357C137.841 302.864 138.608 306.809 139.2 310.579C139.299 311.171 139.376 311.784 139.452 312.398H301.975C305.361 311.05 309.032 310.053 311.925 307.905C318.589 302.973 319.476 293.57 323.673 286.469C327.871 279.367 340.978 276.376 342.95 284.409C356.846 254.995 387.554 298.655 405.811 295.368C411.116 294.414 416.288 291.894 421.625 292.639C430.82 293.91 435.675 303.696 438.886 312.365H446.557C445.68 309.318 445.724 305.965 443.938 303.379C441.801 300.398 437.417 298.655 437.121 294.984ZM313.175 164.407C311.739 167.695 312.386 171.837 310.183 174.709C308.429 176.977 305.394 177.788 302.588 178.446L284.922 182.599C282.274 183.083 279.714 183.963 277.328 185.207C272.703 187.947 270.237 193.12 266.665 197.109C263.092 201.098 256.692 203.958 252.473 200.638C251.516 199.773 250.742 198.726 250.198 197.557C249.654 196.387 249.35 195.121 249.306 193.832C248.986 190.124 249.87 186.412 251.826 183.246C253.832 179.958 256.911 177.448 258.61 174.04C260.308 170.632 259.969 165.624 256.418 164.024C254.533 163.158 252.155 163.498 250.478 162.281C247.464 160.089 249.623 154.895 253.119 153.58C256.615 152.265 260.506 153.295 264.243 153.525C277.777 154.38 287.739 145.612 297.92 138.325C305.843 132.659 322.709 125.963 331.893 131.749C335.542 134.062 336.978 140.001 333.537 142.61C331.991 143.771 329.865 144.034 328.43 145.328C326.709 146.884 326.468 149.426 325.482 151.519C322.95 156.933 315.553 158.906 313.175 164.407Z" fill="#C1DAFF"/>
<g opacity="0.3">
<path d="M310.183 174.708C312.374 171.837 311.739 167.727 313.174 164.407C315.553 158.927 322.95 156.933 325.514 151.519C326.501 149.426 326.742 146.883 328.462 145.327C329.898 144.034 332.024 143.771 333.569 142.609C337.01 140.001 335.575 134.061 331.925 131.749C322.764 125.963 305.898 132.659 297.952 138.324C287.771 145.612 277.81 154.379 264.275 153.525C260.538 153.294 256.659 152.275 253.152 153.579C249.645 154.883 247.497 160.078 250.511 162.281C252.187 163.497 254.566 163.158 256.45 164.023C259.946 165.623 260.297 170.599 258.642 174.04C256.987 177.481 253.864 180.002 251.859 183.245C249.903 186.412 249.019 190.124 249.338 193.832C249.383 195.121 249.687 196.387 250.231 197.556C250.775 198.725 251.548 199.773 252.505 200.637C256.724 203.925 263.135 201.109 266.697 197.109C270.259 193.109 272.736 187.947 277.36 185.207C279.747 183.962 282.307 183.083 284.955 182.599L302.621 178.445C305.393 177.788 308.429 177.01 310.183 174.708Z" fill="black"/>
<path d="M421.625 292.649C416.288 291.904 411.116 294.425 405.811 295.378C387.554 298.666 356.846 254.961 342.95 284.419C341.011 276.419 327.871 279.433 323.673 286.534C319.476 293.636 318.588 303.038 311.925 307.97C309.032 310.162 305.35 311.115 301.975 312.463H438.886C435.675 303.707 430.842 293.92 421.625 292.649Z" fill="black"/>
<path d="M230.116 227.903C229.448 223.191 222.971 221.065 222.017 216.385C221.754 215.29 221.908 214.007 221.382 212.955C219.869 209.952 215.321 211.158 212.406 212.769C211.223 208.385 204.932 206.435 201.447 209.295C198.499 211.706 198.16 215.947 197.064 219.575C194.631 228.342 187.562 235.005 180.833 241.186C178.642 243.235 176.033 245.427 172.965 245.569C169.896 245.712 166.674 242.468 168.077 239.794C169.041 237.964 171.704 236.901 171.441 234.862C171.08 232.298 166.565 232.484 165.677 230.029C167.452 222.786 175.847 219.794 182.28 215.914C190.14 211.197 196.132 203.912 199.245 195.289C199.771 193.93 200.176 192.319 199.475 191.037C198.51 189.218 196.034 188.922 193.929 188.922C188.976 188.845 182.795 189.503 180.987 194.073C180.022 196.528 180.724 199.311 180.132 201.865C178.4 209.47 167.858 210.314 161.425 214.851C158.915 216.605 156.954 219.059 154.181 220.407C151.189 221.843 147.671 221.733 144.318 221.986C143.737 221.986 143.134 222.095 142.543 222.172C140.526 224.941 138.572 227.786 136.679 230.709C134.787 233.631 132.961 236.572 131.2 239.531C122.854 253.656 116.064 268.644 110.948 284.233C109.136 289.705 107.536 295.261 106.148 300.901C105.212 304.701 104.38 308.54 103.649 312.419H104.745C105.479 309.877 106.027 307.334 106.487 305.121C106.608 304.562 106.717 304.025 106.827 303.51C108.054 298.03 109.863 292.211 114.192 288.507C118.52 284.803 126.104 284.408 129.468 288.989C131.868 292.277 131.32 296.781 130.696 300.803C130.071 304.825 129.468 308.518 128.844 312.419H139.441C139.364 311.806 139.288 311.192 139.189 310.6C138.597 306.83 137.83 302.929 139.31 299.378C143.003 290.611 156.132 291.981 163.748 286.315C168.472 282.808 170.587 276.912 173.392 271.761C176.198 266.611 180.899 261.449 186.817 261.701C188.812 261.778 190.773 262.512 192.768 262.435C198.609 262.249 202.017 253.8 197.875 249.712C196.904 248.941 196.032 248.054 195.277 247.071C194.247 245.131 195.354 242.687 197.129 241.328C199.015 240.188 201.145 239.512 203.343 239.356C208.33 238.556 213.327 237.788 218.313 237.021C223.826 236.188 230.883 233.361 230.116 227.903Z" fill="black"/>
<path d="M557.967 292.901C557.09 289.888 556.169 286.896 555.183 283.926C554.197 280.956 553.156 278.019 552.049 275.093C550.865 272.901 549.605 270.709 548.235 268.627C535.259 248.287 516.454 232.342 502.13 212.879C497.473 206.555 493.856 201.328 485.604 200.078C473.407 198.215 467.226 205.098 458.579 193.646C456.245 190.577 452.179 187.717 448.716 189.547C449.604 192.002 450.524 194.446 451.412 196.933C451.639 197.438 451.741 197.991 451.708 198.544C451.522 200.265 448.935 200.736 447.456 199.794C445.976 198.851 445.264 197.087 444.168 195.662C440.321 190.182 431.302 189.514 426.634 194.226C426.526 193.062 426.109 191.948 425.427 190.998C424.745 190.049 423.823 189.298 422.754 188.824C422.272 193.317 417.066 196.648 412.705 195.224C412.003 193.032 415.992 192.583 417.428 190.687C418.864 188.791 417.176 186.402 415.51 184.9C411.011 181.063 405.333 178.882 399.422 178.719C395.696 178.654 391.663 179.344 388.408 177.448C386.524 176.352 385.187 174.522 383.269 173.459C379.17 171.158 374.03 173.273 369.888 175.541C364.222 178.654 358.381 182.566 356.386 188.692C354.392 194.818 358.83 202.939 365.263 202.226C366.885 202.007 368.551 201.24 370.184 201.679C372.474 202.303 373.471 204.966 373.69 207.279C373.91 209.591 373.614 212.068 374.786 214.117C375.959 216.166 379.258 217.186 380.551 215.213C383.586 212.364 383.214 207.542 382.436 203.509C381.658 199.476 380.847 194.873 383.291 191.552C385.734 188.232 392.792 189.284 392.31 193.383C392.014 195.794 389.241 197.547 389.351 199.958C389.461 202.369 392.529 203.761 395.05 203.651C397.57 203.542 400.113 202.665 402.557 203.279C405 203.892 406.995 207.048 405.22 208.846C402.151 212.276 394.162 206.391 392.573 210.676C392.124 211.772 392.573 213.01 392.463 214.183C392.167 217.766 387.619 219.081 383.992 219.52C380.365 219.958 376.529 220.287 373.23 218.753C369.932 217.218 367.685 212.944 369.57 209.865C367.729 208.55 364.912 209.865 363.915 211.914C362.918 213.964 363.214 216.298 363.51 218.566C359.663 217.734 356.222 220.944 354.041 224.134C351.86 227.323 349.723 231.082 345.986 232.21C342.249 233.339 337.033 231.816 335.082 235.18C332.528 239.564 339.926 245.12 337.339 249.427C335.849 251.882 332.309 251.816 329.493 252.583C322.062 254.665 319.476 265.416 324.539 271.159C329.602 276.901 339.739 276.573 345.098 271.082C348.835 267.312 350.348 262.019 353.044 257.482C355.74 252.945 360.847 248.879 365.953 250.348C367.918 251.077 369.714 252.195 371.236 253.635C373.712 255.685 376.189 257.734 378.666 259.816C380.255 261.131 381.954 262.786 381.844 264.824C381.702 266.479 380.408 267.761 379.849 269.296C378.304 273.679 384.77 277.92 388.836 275.509C392.902 273.099 393.351 266.918 390.578 263.115C386.732 257.844 378.041 255.213 378.26 248.704C382.699 245.12 389.691 248.879 392.277 253.964C394.863 259.049 394.94 265.011 397.121 270.238C399.302 275.466 405.406 280.156 410.502 277.592C409.176 273.055 407.883 268.561 406.546 264.057C409.833 261.646 413.538 268.671 417.417 267.498C419.784 266.764 420.08 263.4 419.039 261.131C417.998 258.863 416.201 256.967 415.751 254.556C415.017 250.096 420.047 246.106 424.595 246.885C429.143 247.663 432.387 251.904 433.242 256.32C433.406 258.111 433.804 259.872 434.425 261.559C436.124 265.066 440.53 266.129 444.146 267.586C447.763 269.044 451.576 272.671 450.064 276.255C449.363 277.833 447.697 279.323 448.289 280.934C448.848 282.359 450.985 282.984 450.985 284.518C450.985 285.548 449.889 286.238 448.913 286.644C446.48 287.63 443.817 287.959 441.45 289.099C439.083 290.238 436.935 292.463 437.121 295.017C437.417 298.677 441.823 300.43 443.894 303.466C445.68 306.052 445.636 309.406 446.513 312.452H473.582C472.607 310.502 471.642 308.562 470.656 306.611C472.848 304.781 476.311 305.515 478.568 307.345C480.213 308.851 481.65 310.569 482.842 312.452H562.58C561.324 305.826 559.786 299.309 557.967 292.901Z" fill="black"/>
</g>
<path d="M325.514 151.519C326.5 149.426 326.741 146.883 328.462 145.327C329.898 144.034 332.024 143.771 333.569 142.609C337.01 140.001 335.574 134.061 331.925 131.749C322.763 125.963 305.897 132.659 297.952 138.324C287.771 145.612 277.809 154.379 264.275 153.525C260.538 153.294 256.658 152.275 253.152 153.579C249.645 154.883 247.497 160.078 250.51 162.281C252.187 163.497 254.565 163.158 256.45 164.023C259.946 165.623 260.297 170.599 258.642 174.04C256.987 177.481 253.864 180.002 251.858 183.245C249.902 186.412 249.018 190.124 249.338 193.832C249.383 195.121 249.686 196.387 250.23 197.556C250.774 198.725 251.548 199.773 252.505 200.637C256.724 203.925 263.135 201.109 266.697 197.109C270.259 193.109 272.735 187.947 277.36 185.207C279.747 183.962 282.307 183.083 284.955 182.599L302.621 178.445C305.426 177.788 308.462 176.977 310.215 174.708C312.407 171.837 311.771 167.727 313.207 164.407C315.552 158.905 322.95 156.933 325.514 151.519Z" fill="url(#paint0_linear_401_4233)" fill-opacity="0.75"/>
<path d="M421.625 292.65C416.288 291.905 411.115 294.425 405.811 295.379C387.553 298.666 356.846 254.962 342.95 284.42C341.01 276.419 327.871 279.433 323.673 286.535C319.476 293.636 318.588 303.039 311.925 307.97C309.032 310.162 305.35 311.116 301.974 312.464H438.885C435.674 303.707 430.842 293.921 421.625 292.65Z" fill="url(#paint1_linear_401_4233)" fill-opacity="0.75"/>
<path d="M555.172 283.927C554.185 280.957 553.144 278.02 552.037 275.094C550.854 272.902 549.594 270.71 548.224 268.628C535.248 248.288 516.443 232.342 502.119 212.879C497.461 206.556 493.845 201.328 485.593 200.079C473.395 198.216 467.215 205.098 458.568 193.646C456.234 190.578 452.168 187.717 448.705 189.547C449.592 192.002 450.513 194.446 451.401 196.934C451.628 197.439 451.729 197.992 451.697 198.545C451.51 200.265 448.924 200.737 447.444 199.794C445.965 198.852 445.253 197.087 444.157 195.663C440.31 190.183 431.291 189.514 426.622 194.227C426.514 193.063 426.098 191.948 425.416 190.999C424.734 190.049 423.811 189.298 422.743 188.824C422.261 193.317 417.055 196.649 412.693 195.224C411.992 193.032 415.981 192.583 417.417 190.687C418.852 188.791 417.165 186.402 415.499 184.901C411 181.063 405.322 178.882 399.411 178.72C395.685 178.654 391.652 179.345 388.397 177.449C386.512 176.353 385.175 174.523 383.257 173.46C379.159 171.158 374.019 173.273 369.876 175.542C364.211 178.654 358.369 182.566 356.375 188.693C354.38 194.819 358.819 202.939 365.252 202.227C366.874 202.008 368.539 201.241 370.172 201.679C372.463 202.304 373.46 204.967 373.679 207.279C373.898 209.591 373.603 212.068 374.775 214.117C375.948 216.167 379.246 217.186 380.54 215.213C383.575 212.364 383.203 207.542 382.425 203.509C381.646 199.476 380.835 194.873 383.279 191.553C385.723 188.232 392.781 189.284 392.299 193.383C392.003 195.794 389.23 197.547 389.34 199.958C389.449 202.369 392.518 203.761 395.038 203.652C397.559 203.542 400.101 202.665 402.545 203.279C404.989 203.893 406.984 207.049 405.208 208.846C402.14 212.276 394.151 206.391 392.562 210.676C392.112 211.772 392.562 213.011 392.452 214.183C392.156 217.767 387.608 219.082 383.981 219.52C380.353 219.959 376.518 220.287 373.219 218.753C369.92 217.219 367.674 212.945 369.559 209.865C367.718 208.55 364.901 209.865 363.904 211.915C362.907 213.964 363.202 216.298 363.498 218.567C359.652 217.734 356.211 220.945 354.03 224.134C351.849 227.323 349.712 231.082 345.975 232.211C342.238 233.34 337.021 231.816 335.071 235.181C332.517 239.564 339.914 245.121 337.328 249.427C335.838 251.882 332.298 251.817 329.481 252.584C322.051 254.666 319.465 265.417 324.528 271.159C329.591 276.902 339.728 276.573 345.087 271.083C348.824 267.313 350.337 262.019 353.032 257.482C355.728 252.945 360.835 248.88 365.942 250.348C367.906 251.077 369.703 252.195 371.224 253.636C373.701 255.685 376.178 257.734 378.655 259.817C380.244 261.132 381.942 262.787 381.833 264.825C381.69 266.48 380.397 267.762 379.838 269.296C378.293 273.68 384.759 277.921 388.825 275.51C392.89 273.099 393.34 266.918 390.567 263.115C386.72 257.844 378.03 255.214 378.249 248.704C382.688 245.121 389.679 248.88 392.266 253.965C394.852 259.05 394.929 265.011 397.11 270.239C399.29 275.466 405.395 280.157 410.491 277.592C409.165 273.055 407.871 268.562 406.534 264.058C409.822 261.647 413.526 268.672 417.406 267.499C419.773 266.765 420.069 263.4 419.028 261.132C417.987 258.863 416.189 256.967 415.74 254.556C415.006 250.096 420.036 246.107 424.584 246.885C429.132 247.663 432.376 251.904 433.231 256.321C433.394 258.111 433.792 259.872 434.414 261.559C436.113 265.066 440.518 266.129 444.135 267.587C447.751 269.044 451.565 272.672 450.053 276.255C449.351 277.833 447.686 279.324 448.277 280.935C448.836 282.359 450.973 282.984 450.973 284.518C450.973 285.548 449.877 286.239 448.902 286.644C446.469 287.631 443.806 287.959 441.439 289.099C439.072 290.239 436.924 292.464 437.11 295.017C437.406 298.677 441.812 300.431 443.883 303.466C445.669 306.053 445.625 309.406 446.502 312.453H473.582C472.606 310.502 471.642 308.562 470.656 306.612C472.847 304.782 476.311 305.516 478.568 307.346C480.212 308.852 481.65 310.569 482.842 312.453H562.58C561.323 305.877 559.782 299.371 557.955 292.935C557.079 289.888 556.158 286.896 555.172 283.927Z" fill="url(#paint2_linear_401_4233)" fill-opacity="0.75"/>
<path d="M478.568 307.313C476.31 305.516 472.836 304.748 470.656 306.579C471.642 308.529 472.606 310.469 473.582 312.42H482.842C481.649 310.536 480.212 308.819 478.568 307.313Z" fill="#C1DAFF"/>
<path d="M139.331 299.379C143.024 290.611 156.153 291.981 163.77 286.315C168.493 282.809 170.608 276.913 173.414 271.762C176.219 266.611 180.921 261.449 186.839 261.702C188.833 261.778 190.795 262.513 192.789 262.436C198.631 262.249 202.039 253.8 197.896 249.712C196.926 248.941 196.054 248.054 195.299 247.071C194.269 245.131 195.376 242.688 197.151 241.329C199.037 240.189 201.167 239.513 203.365 239.356C208.351 238.556 213.349 237.789 218.335 237.022C223.814 236.178 230.905 233.361 230.138 227.904C229.469 223.192 222.992 221.065 222.039 216.386C221.776 215.29 221.929 214.008 221.403 212.956C219.891 209.953 215.343 211.158 212.428 212.769C211.244 208.386 204.954 206.435 201.469 209.295C198.521 211.706 198.181 215.948 197.085 219.575C194.652 228.342 187.584 235.005 180.855 241.186C178.663 243.236 176.055 245.427 172.986 245.57C169.918 245.712 166.696 242.468 168.099 239.794C169.063 237.964 171.726 236.901 171.463 234.863C171.102 232.298 166.586 232.485 165.699 230.03C167.474 222.786 175.869 219.794 182.302 215.915C190.162 211.197 196.154 203.912 199.266 195.29C199.792 193.931 200.198 192.32 199.496 191.038C198.532 189.218 196.055 188.923 193.951 188.923C188.998 188.846 182.817 189.503 181.008 194.073C180.044 196.528 180.745 199.312 180.154 201.865C178.422 209.471 167.88 210.315 161.447 214.852C158.937 216.605 156.975 219.06 154.203 220.408C151.211 221.844 147.693 221.734 144.34 221.986C143.759 221.986 143.156 222.096 142.564 222.172C140.533 224.941 138.571 227.787 136.679 230.709C134.787 233.632 132.96 236.572 131.2 239.531C122.854 253.657 116.063 268.645 110.947 284.233C109.136 289.705 107.535 295.262 106.147 300.902C105.212 304.701 104.379 308.54 103.649 312.42H104.745C105.479 309.877 106.027 307.335 106.487 305.121C106.608 304.562 106.717 304.025 106.827 303.51C108.054 298.031 109.862 292.211 114.191 288.507C118.52 284.803 126.104 284.409 129.468 288.989C131.868 292.277 131.32 296.781 130.696 300.803C130.071 304.825 129.468 308.518 128.843 312.42H139.441C139.364 311.806 139.287 311.192 139.189 310.601C138.597 306.831 137.83 302.886 139.331 299.379Z" fill="url(#paint3_linear_401_4233)" fill-opacity="0.75"/>
<path d="M129.468 288.99C126.104 284.376 118.509 284.814 114.203 288.507C109.896 292.201 108.065 297.987 106.838 303.51C106.728 304.014 106.619 304.606 106.498 305.121C106.038 307.313 105.49 309.877 104.756 312.42H128.866C129.479 308.54 130.097 304.668 130.718 300.803C131.321 296.781 131.868 292.277 129.468 288.99Z" fill="#C1DAFF"/>
<path d="M278.752 272.167C279.267 268.474 274.062 265.449 270.149 265.131C268.286 264.978 266.357 265.263 264.593 264.649C260.768 263.312 259.234 258.38 255.508 256.802C252.713 255.63 249.502 256.671 246.796 258.03C244.089 259.389 241.415 261.109 238.401 261.318C235.771 261.482 232.921 260.507 230.609 261.789C228.899 262.742 228.001 264.726 226.423 265.887C224.777 266.901 222.875 267.418 220.943 267.378C219.021 267.326 217.106 267.639 215.299 268.298C213.546 269.098 212.099 270.94 212.461 272.824L278.752 272.167Z" fill="#FAFAFA"/>
<path d="M295.804 245.877C296.144 243.356 292.582 241.285 289.908 241.066C288.628 241.111 287.348 241.001 286.094 240.737C283.475 239.816 282.434 236.441 279.881 235.356C277.963 234.556 275.771 235.268 273.919 236.2C272.067 237.131 270.226 238.304 268.165 238.446C266.357 238.556 264.406 237.887 262.828 238.764C261.656 239.422 261.042 240.781 259.957 241.57C258.836 242.272 257.532 242.627 256.209 242.589C254.891 242.56 253.58 242.775 252.341 243.225C251.727 243.465 251.207 243.896 250.858 244.455C250.509 245.013 250.348 245.669 250.401 246.326L295.804 245.877Z" fill="#FAFAFA"/>
<defs>
<filter id="filter0_b_401_4233" x="-2" y="123" width="100" height="99" filterUnits="userSpaceOnUse" color-interpolation-filters="sRGB">
<feFlood flood-opacity="0" result="BackgroundImageFix"/>
<feGaussianBlur in="BackgroundImageFix" stdDeviation="1"/>
<feComposite in2="SourceAlpha" operator="in" result="effect1_backgroundBlur_401_4233"/>
<feBlend mode="normal" in="SourceGraphic" in2="effect1_backgroundBlur_401_4233" result="shape"/>
</filter>
<filter id="filter1_b_401_4233" x="131" y="35" width="99" height="100" filterUnits="userSpaceOnUse" color-interpolation-filters="sRGB">
<feFlood flood-opacity="0" result="BackgroundImageFix"/>
<feGaussianBlur in="BackgroundImageFix" stdDeviation="1"/>
<feComposite in2="SourceAlpha" operator="in" result="effect1_backgroundBlur_401_4233"/>
<feBlend mode="normal" in="SourceGraphic" in2="effect1_backgroundBlur_401_4233" result="shape"/>
</filter>
<filter id="filter2_b_401_4233" x="282" y="-2" width="100" height="100" filterUnits="userSpaceOnUse" color-interpolation-filters="sRGB">
<feFlood flood-opacity="0" result="BackgroundImageFix"/>
<feGaussianBlur in="BackgroundImageFix" stdDeviation="1"/>
<feComposite in2="SourceAlpha" operator="in" result="effect1_backgroundBlur_401_4233"/>
<feBlend mode="normal" in="SourceGraphic" in2="effect1_backgroundBlur_401_4233" result="shape"/>
</filter>
<filter id="filter3_b_401_4233" x="434" y="35" width="99" height="100" filterUnits="userSpaceOnUse" color-interpolation-filters="sRGB">
<feFlood flood-opacity="0" result="BackgroundImageFix"/>
<feGaussianBlur in="BackgroundImageFix" stdDeviation="1"/>
<feComposite in2="SourceAlpha" operator="in" result="effect1_backgroundBlur_401_4233"/>
<feBlend mode="normal" in="SourceGraphic" in2="effect1_backgroundBlur_401_4233" result="shape"/>
</filter>
<filter id="filter4_b_401_4233" x="566" y="123" width="100" height="99" filterUnits="userSpaceOnUse" color-interpolation-filters="sRGB">
<feFlood flood-opacity="0" result="BackgroundImageFix"/>
<feGaussianBlur in="BackgroundImageFix" stdDeviation="1"/>
<feComposite in2="SourceAlpha" operator="in" result="effect1_backgroundBlur_401_4233"/>
<feBlend mode="normal" in="SourceGraphic" in2="effect1_backgroundBlur_401_4233" result="shape"/>
</filter>
<linearGradient id="paint0_linear_401_4233" x1="249.076" y1="180.92" x2="368.078" y2="200.795" gradientUnits="userSpaceOnUse">
<stop stop-color="#5C7EA7"/>
<stop offset="0.275793" stop-color="#D5EBFF"/>
<stop offset="0.916667" stop-color="#003472"/>
</linearGradient>
<linearGradient id="paint1_linear_401_4233" x1="301.974" y1="301.293" x2="456.813" y2="378.881" gradientUnits="userSpaceOnUse">
<stop stop-color="#5C7EA7"/>
<stop offset="0.275793" stop-color="#D5EBFF"/>
<stop offset="0.916667" stop-color="#003472"/>
</linearGradient>
<linearGradient id="paint2_linear_401_4233" x1="321.902" y1="271.623" x2="643.747" y2="349.188" gradientUnits="userSpaceOnUse">
<stop stop-color="#5C7EA7"/>
<stop offset="0.275793" stop-color="#D5EBFF"/>
<stop offset="0.916667" stop-color="#003472"/>
</linearGradient>
<linearGradient id="paint3_linear_401_4233" x1="103.649" y1="276.398" x2="279.082" y2="301.596" gradientUnits="userSpaceOnUse">
<stop stop-color="#5C7EA7"/>
<stop offset="0.275793" stop-color="#D5EBFF"/>
<stop offset="0.916667" stop-color="#003472"/>
</linearGradient>
</defs>
</svg>
