<svg width="359" height="261" viewBox="0 0 359 261" fill="none" xmlns="http://www.w3.org/2000/svg">
<g opacity="0.35">
<path d="M153.298 48.334L81 171.286L137.97 236.377H159.396L190.72 199.92H155.916L125.23 165.79L174.391 82.1809L153.298 48.334Z" fill="#0066FF"/>
<path d="M182.604 118.295C182.702 118.295 182.859 118.567 183.037 118.983L183.314 119.698C183.361 119.83 183.408 119.967 183.455 120.107L183.724 120.964C183.767 121.107 183.807 121.25 183.845 121.389L184.042 122.17C184.122 122.526 184.17 122.817 184.17 122.99L184.162 123.152C185.028 123.337 185.822 123.673 186.531 124.126C186.557 123.929 186.622 123.734 186.727 123.551C186.843 123.351 187.137 123.012 187.513 122.624L188.126 122.019L188.788 121.411L189.426 120.87C189.926 120.467 190.325 120.206 190.431 120.267C190.558 120.34 190.494 121.011 190.343 121.837L190.168 122.699L189.958 123.567L189.738 124.342C189.629 124.69 189.525 124.966 189.438 125.116C189.214 125.506 188.846 125.762 188.441 125.857C189.716 127.453 190.431 129.531 190.431 131.6C190.431 132.843 190.191 134.04 189.748 135.128C189.537 135.646 189.202 136.078 188.793 136.402L188.472 136.624L188.528 136.635C191.292 137.188 193.325 139.511 193.542 142.282L193.561 142.775V148.304L194.478 147.387C195.701 146.164 197.683 146.164 198.906 147.387C200.034 148.515 200.121 150.291 199.166 151.519L198.906 151.814L193.561 157.158V165.253C195.167 165.253 196.49 166.462 196.671 168.019L196.692 168.384V174.645C198.421 174.645 199.823 176.047 199.823 177.776C199.823 179.381 198.614 180.704 197.057 180.885L196.692 180.906H168.517C166.788 180.906 165.386 179.505 165.386 177.776C165.386 176.17 166.595 174.847 168.152 174.666L168.517 174.645V168.384C168.517 166.778 169.725 165.455 171.282 165.274L171.647 165.253V154.028L166.303 148.683C165.814 148.194 165.503 147.56 165.413 146.881L165.386 146.47V127.267C164.45 126.726 163.821 125.714 163.821 124.556C163.821 122.95 165.029 121.627 166.586 121.446L166.951 121.425H170.082C171.811 121.425 173.213 122.827 173.213 124.556C173.213 124.982 173.127 125.388 172.973 125.758L172.797 126.116L174.875 130.272C175.11 128.662 175.767 127.111 176.768 125.857C176.362 125.762 175.995 125.506 175.77 125.116C175.684 124.966 175.58 124.69 175.471 124.342L175.25 123.567L175.041 122.699L174.865 121.837C174.715 121.011 174.651 120.34 174.778 120.267C174.884 120.206 175.283 120.467 175.783 120.87L176.421 121.411L177.082 122.019L177.695 122.624C178.072 123.012 178.366 123.351 178.481 123.551C178.587 123.734 178.651 123.929 178.678 124.126C179.387 123.673 180.181 123.337 181.047 123.152L181.039 122.99C181.039 122.817 181.087 122.526 181.167 122.17L181.363 121.389L181.616 120.533C181.706 120.246 181.801 119.962 181.895 119.698L182.172 118.983C182.35 118.567 182.507 118.295 182.604 118.295ZM190.431 171.515H174.778V174.645H190.431V171.515ZM187.3 146.201L177.908 155.593V165.253H187.3V146.201ZM171.647 137.817V145.173L175.561 149.086L182.777 141.87L174.164 140.148C172.856 139.886 172.198 138.919 171.647 137.817ZM182.604 129.252C182.343 129.252 182 129.367 181.661 129.763C181.316 130.165 181.039 130.805 181.039 131.6C181.039 131.891 181.077 132.164 181.142 132.413L181.26 132.767C181.588 133.573 181.556 134.436 181.239 135.178L184.32 135.794C183.779 135.053 183.576 134.089 183.818 133.161L183.949 132.767C184.085 132.432 184.17 132.037 184.17 131.6C184.17 130.805 183.893 130.165 183.548 129.763C183.209 129.367 182.865 129.252 182.604 129.252ZM168.517 110.468C169.006 110.468 171.647 115 171.647 116.729C171.647 118.458 170.246 119.86 168.517 119.86C166.788 119.86 165.386 118.458 165.386 116.729C165.386 115 168.028 110.468 168.517 110.468Z" fill="#0066FF"/>
<path d="M179.054 0L157.824 35.3116L234.465 166.653L172.289 236.377C172.289 236.377 221.16 236.087 220.87 236.377C220.58 236.667 279 170.707 279 170.707L179.054 0Z" fill="url(#paint0_linear_411_4232)"/>
</g>
<g filter="url(#filter0_b_411_4232)">
<rect y="165" width="96" height="96" rx="10" fill="#EDF4FF" fill-opacity="0.5"/>
<rect x="0.5" y="165.5" width="95" height="95" rx="9.5" stroke="#EAEFF7" style="mix-blend-mode:multiply"/>
</g>
<g filter="url(#filter1_b_411_4232)">
<rect x="263" y="155" width="96" height="96" rx="10" fill="#EDF4FF" fill-opacity="0.5"/>
<rect x="263.5" y="155.5" width="95" height="95" rx="9.5" stroke="#EAEFF7" style="mix-blend-mode:multiply"/>
</g>
<g filter="url(#filter2_b_411_4232)">
<rect x="208" width="100" height="93" rx="10" fill="#EDF4FF" fill-opacity="0.5"/>
<rect x="208.5" y="0.5" width="99" height="92" rx="9.5" stroke="#EAEFF7" style="mix-blend-mode:multiply"/>
</g>
<g filter="url(#filter3_b_411_4232)">
<rect x="46" y="1" width="100" height="93" rx="10" fill="#EDF4FF" fill-opacity="0.5"/>
<rect x="46.5" y="1.5" width="99" height="92" rx="9.5" stroke="#EAEFF7" style="mix-blend-mode:multiply"/>
</g>
<path d="M12 194C12 188.477 16.4772 184 22 184H32.6079C35.26 184 37.8036 185.054 39.6789 186.929L42.8211 190.071C44.6964 191.946 47.24 193 49.8921 193H74C79.5229 193 84 197.477 84 203V231C84 236.523 79.5229 241 74 241H22C16.4772 241 12 236.523 12 231V194Z" fill="#336DFF"/>
<path fill-rule="evenodd" clip-rule="evenodd" d="M19.4852 240.681C17.4512 240.154 15.6684 239.003 14.3535 237.445L27.183 184H32.6079C32.7686 184 32.929 184.004 33.0888 184.012L19.4852 240.681ZM22.3629 241H25.3172L38.5333 185.945C37.7302 185.354 36.8458 184.888 35.9111 184.561L22.3629 241Z" fill="white"/>
<path fill-rule="evenodd" clip-rule="evenodd" d="M52.4209 217.684C52.2136 216.855 52.5759 216.004 53.1926 215.412C54.6147 214.047 55.5 212.127 55.5 210C55.5 205.858 52.1421 202.5 48 202.5C43.8579 202.5 40.5 205.858 40.5 210C40.5 212.127 41.3853 214.047 42.8074 215.412C43.4241 216.004 43.7864 216.855 43.5791 217.684L41.1213 227.515C40.8057 228.777 41.7604 230 43.0616 230H52.9384C54.2396 230 55.1943 228.777 54.8787 227.515L52.4209 217.684Z" fill="white"/>
<path d="M81.3647 18V77" stroke="#336DFF" stroke-width="6" stroke-linecap="round"/>
<path d="M125 33.3645L66 33.3645" stroke="#336DFF" stroke-width="6" stroke-linecap="round"/>
<path d="M95.5 18V77" stroke="#336DFF" stroke-width="6" stroke-linecap="round"/>
<path d="M125 47.5L66 47.5" stroke="#336DFF" stroke-width="6" stroke-linecap="round"/>
<path d="M109.635 18V77" stroke="#336DFF" stroke-width="6" stroke-linecap="round"/>
<path d="M125 61.6355L66 61.6355" stroke="#336DFF" stroke-width="6" stroke-linecap="round"/>
<rect x="70.9165" y="22.9167" width="49.1667" height="49.1667" rx="10" fill="#336DFF"/>
<path d="M80.7504 40.3277C80.7632 37.647 82.9024 35.628 85.5337 35.1158C86.4843 34.9308 87.4503 34.7127 88.2796 34.4662C89.6691 34.0531 91.4425 33.3319 92.8841 32.7065C94.5506 31.9836 96.4494 31.9836 98.1159 32.7065C99.5575 33.3319 101.331 34.0531 102.72 34.4662C103.55 34.7127 104.516 34.9308 105.466 35.1158C108.098 35.628 110.237 37.647 110.25 40.3277C110.281 46.8906 108.65 58.7432 97.1101 62.9598C96.0715 63.3394 94.9285 63.3394 93.8898 62.9598C82.3504 58.7432 80.7191 46.8906 80.7504 40.3277Z" fill="#C8D1EA"/>
<path fill-rule="evenodd" clip-rule="evenodd" d="M86.7188 52.6647L90.4628 37.3525C91.4986 37.0057 92.7331 36.4817 93.7206 36.0386C94.0667 35.8833 94.4285 35.7755 94.7964 35.7153L89.6911 56.5951C88.4277 55.4303 87.4588 54.0851 86.7188 52.6647ZM93.0678 58.8716C92.4499 58.576 91.8752 58.2477 91.3407 57.8916L96.7335 35.8365C96.9187 35.8913 97.101 35.9586 97.2792 36.0386C97.6638 36.2112 98.0858 36.396 98.5189 36.5778L93.0678 58.8716Z" fill="white"/>
<path d="M84.4436 41.517C84.4795 39.7286 85.8984 38.3775 87.656 38.0452C88.4839 37.8886 89.3549 37.6962 90.0847 37.4737C91.1863 37.1378 92.6097 36.5371 93.7207 36.0385C94.8511 35.5313 96.1489 35.5313 97.2793 36.0385C98.3903 36.5371 99.8137 37.1378 100.915 37.4737C101.645 37.6962 102.516 37.8886 103.344 38.0452C105.102 38.3775 106.52 39.7286 106.556 41.517C106.656 46.4689 105.627 56.1214 96.602 59.4311C95.8928 59.6911 95.1072 59.6911 94.398 59.4311C85.3726 56.1214 84.3441 46.4689 84.4436 41.517Z" stroke="#336DFF" stroke-width="4"/>
<rect x="276" y="180" width="69.4737" height="43.4211" rx="10" fill="#336DFF"/>
<circle cx="287.579" cy="211.842" r="4.34211" fill="#C8D1EA"/>
<circle cx="293.368" cy="211.842" r="4.34211" fill="#C8D1EA"/>
<rect x="276" y="187.237" width="69.4737" height="5.78947" fill="#C8D1EA"/>
<path d="M306.406 206.929C306.467 204.249 308.599 202.227 311.237 201.75C312.598 201.504 314.053 201.196 315.261 200.837C317.051 200.305 319.382 199.338 321.15 198.56C322.813 197.829 324.713 197.829 326.376 198.56C328.144 199.338 330.475 200.305 332.265 200.837C333.473 201.196 334.927 201.504 336.289 201.75C338.927 202.227 341.059 204.249 341.12 206.929C341.292 214.499 339.716 229.438 325.382 234.488C324.339 234.855 323.187 234.855 322.144 234.488C307.81 229.438 306.234 214.499 306.406 206.929Z" fill="#C8D1EA"/>
<path fill-rule="evenodd" clip-rule="evenodd" d="M313.423 222.266L317.832 204.235C319.165 203.789 320.778 203.093 321.986 202.545C322.297 202.404 322.622 202.301 322.952 202.238L316.923 226.894C315.436 225.522 314.295 223.938 313.423 222.266ZM320.899 229.574C320.172 229.226 319.495 228.84 318.866 228.42L325.224 202.416C325.331 202.455 325.437 202.498 325.541 202.545C326.074 202.787 326.686 203.058 327.318 203.323L320.899 229.574Z" fill="white"/>
<path d="M310.759 208.602C310.822 206.814 312.238 205.461 313.999 205.148C315.121 204.948 316.37 204.688 317.386 204.378C318.791 203.95 320.64 203.156 321.985 202.545C323.113 202.033 324.413 202.033 325.541 202.545C326.886 203.156 328.735 203.95 330.14 204.378C331.156 204.688 332.405 204.948 333.528 205.148C335.289 205.461 336.704 206.814 336.767 208.602C336.968 214.275 336.014 226.35 324.871 230.302C324.159 230.554 323.367 230.554 322.655 230.302C311.512 226.35 310.558 214.275 310.759 208.602Z" stroke="#336DFF" stroke-width="4"/>
<path d="M228 28.7294C228 24.48 230.686 20.6946 234.696 19.2908L255.081 12.1562C257.22 11.4077 259.549 11.4077 261.688 12.1562L282.073 19.2908C286.084 20.6946 288.769 24.48 288.769 28.7294V64.8077C288.769 70.3305 284.292 74.8077 278.769 74.8077H238C232.477 74.8077 228 70.3305 228 64.8077V28.7294Z" fill="#336DFF"/>
<circle cx="258.384" cy="23.1541" r="4.55769" fill="#C8D1EA"/>
<path d="M238.635 58.5108C238.635 55.7649 240.861 53.5388 243.607 53.5388H273.163C275.909 53.5388 278.135 55.7649 278.135 58.5108V70.2504C278.135 81.158 269.292 90.0004 258.385 90.0004C247.477 90.0004 238.635 81.158 238.635 70.2504V58.5108Z" fill="#C8D1EA"/>
<path fill-rule="evenodd" clip-rule="evenodd" d="M242.435 81.9L249.369 53.5388H255.446L247.354 86.6352C245.453 85.3528 243.787 83.7483 242.435 81.9ZM252.803 89.2007C251.844 88.9186 250.915 88.5656 250.022 88.1479L258.485 53.5388H261.523L252.803 89.2007Z" fill="white"/>
<path d="M267.5 47.4621C267.5 45.0445 266.539 42.726 264.83 41.0165C263.121 39.307 260.802 38.3467 258.384 38.3467C255.967 38.3467 253.648 39.307 251.939 41.0165C250.229 42.726 249.269 45.0445 249.269 47.4621" stroke="#C8D1EA" stroke-width="6" stroke-linecap="round"/>
<path fill-rule="evenodd" clip-rule="evenodd" d="M261.207 72.4246C261 71.5954 261.38 70.7508 261.92 70.0883C262.559 69.3037 262.942 68.3024 262.942 67.2115C262.942 64.6944 260.901 62.6538 258.384 62.6538C255.867 62.6538 253.827 64.6944 253.827 67.2115C253.827 68.3024 254.21 69.3039 254.849 70.0884C255.389 70.751 255.769 71.5957 255.562 72.4248L254.448 76.8803C254.133 78.1426 255.087 79.3654 256.388 79.3654H260.381C261.682 79.3654 262.637 78.1426 262.321 76.8803L261.207 72.4246Z" fill="#336DFF"/>
<defs>
<filter id="filter0_b_411_4232" x="-10" y="155" width="116" height="116" filterUnits="userSpaceOnUse" color-interpolation-filters="sRGB">
<feFlood flood-opacity="0" result="BackgroundImageFix"/>
<feGaussianBlur in="BackgroundImageFix" stdDeviation="5"/>
<feComposite in2="SourceAlpha" operator="in" result="effect1_backgroundBlur_411_4232"/>
<feBlend mode="normal" in="SourceGraphic" in2="effect1_backgroundBlur_411_4232" result="shape"/>
</filter>
<filter id="filter1_b_411_4232" x="253" y="145" width="116" height="116" filterUnits="userSpaceOnUse" color-interpolation-filters="sRGB">
<feFlood flood-opacity="0" result="BackgroundImageFix"/>
<feGaussianBlur in="BackgroundImageFix" stdDeviation="5"/>
<feComposite in2="SourceAlpha" operator="in" result="effect1_backgroundBlur_411_4232"/>
<feBlend mode="normal" in="SourceGraphic" in2="effect1_backgroundBlur_411_4232" result="shape"/>
</filter>
<filter id="filter2_b_411_4232" x="198" y="-10" width="120" height="113" filterUnits="userSpaceOnUse" color-interpolation-filters="sRGB">
<feFlood flood-opacity="0" result="BackgroundImageFix"/>
<feGaussianBlur in="BackgroundImageFix" stdDeviation="5"/>
<feComposite in2="SourceAlpha" operator="in" result="effect1_backgroundBlur_411_4232"/>
<feBlend mode="normal" in="SourceGraphic" in2="effect1_backgroundBlur_411_4232" result="shape"/>
</filter>
<filter id="filter3_b_411_4232" x="36" y="-9" width="120" height="113" filterUnits="userSpaceOnUse" color-interpolation-filters="sRGB">
<feFlood flood-opacity="0" result="BackgroundImageFix"/>
<feGaussianBlur in="BackgroundImageFix" stdDeviation="5"/>
<feComposite in2="SourceAlpha" operator="in" result="effect1_backgroundBlur_411_4232"/>
<feBlend mode="normal" in="SourceGraphic" in2="effect1_backgroundBlur_411_4232" result="shape"/>
</filter>
<linearGradient id="paint0_linear_411_4232" x1="157.824" y1="167.435" x2="328.397" y2="179.692" gradientUnits="userSpaceOnUse">
<stop stop-color="#319CFF"/>
<stop offset="0.275793" stop-color="#AED8FF"/>
<stop offset="0.916667" stop-color="#0B86F8"/>
</linearGradient>
</defs>
</svg>
