<svg width="486" height="494" viewBox="0 0 486 494" fill="none" xmlns="http://www.w3.org/2000/svg">
<g filter="url(#filter0_b_104_15911)">
<rect x="342" y="354" width="58" height="58" rx="10" fill="#EDEDFF" fill-opacity="0.5"/>
<rect x="342.5" y="354.5" width="57" height="57" rx="9.5" stroke="#EAEAF7" style="mix-blend-mode:multiply"/>
</g>
<g filter="url(#filter1_b_104_15911)">
<rect x="428" y="98" width="58" height="58" rx="10" fill="#EDEDFF" fill-opacity="0.5"/>
<rect x="428.5" y="98.5" width="57" height="57" rx="9.5" stroke="#EAEAF7" style="mix-blend-mode:multiply"/>
</g>
<g filter="url(#filter2_b_104_15911)">
<rect x="6" width="58" height="58" rx="10" fill="#EDEDFF" fill-opacity="0.5"/>
<rect x="6.5" y="0.5" width="57" height="57" rx="9.5" stroke="#EAEAF7" style="mix-blend-mode:multiply"/>
</g>
<g filter="url(#filter3_dd_104_15911)">
<g clip-path="url(#clip0_104_15911)">
<rect width="266.268" height="208.754" rx="9.62272" transform="matrix(0.965926 0.258819 0 1 120.805 17)" fill="url(#paint0_radial_104_15911)" fill-opacity="0.78"/>
<path d="M155.284 62.1153L153.775 61.7079C153.732 61.4382 153.653 61.1881 153.537 60.9577C153.421 60.7245 153.277 60.5145 153.105 60.3277C152.933 60.141 152.736 59.9828 152.516 59.8531C152.298 59.7213 152.063 59.6213 151.81 59.5531C151.36 59.4318 150.962 59.4422 150.615 59.5842C150.268 59.7233 149.996 59.9923 149.8 60.391C149.603 60.7869 149.505 61.3088 149.505 61.9569C149.505 62.6162 149.603 63.1982 149.8 63.7029C149.999 64.2055 150.271 64.6184 150.615 64.9414C150.962 65.2623 151.359 65.483 151.806 65.6035C152.053 65.6703 152.284 65.6991 152.5 65.6899C152.718 65.6786 152.913 65.6288 153.085 65.5406C153.26 65.4531 153.406 65.3272 153.525 65.1627C153.646 64.999 153.729 64.7971 153.775 64.5569L155.284 64.9727C155.228 65.3671 155.105 65.7184 154.917 66.0267C154.731 66.3357 154.488 66.587 154.187 66.7806C153.885 66.9714 153.533 67.0895 153.129 67.1349C152.726 67.1775 152.278 67.1323 151.785 66.9995C151.059 66.8034 150.411 66.4531 149.84 65.9484C149.27 65.4438 148.821 64.8161 148.492 64.0654C148.164 63.3147 148 62.4765 148 61.5506C148 60.622 148.165 59.8727 148.496 59.3027C148.827 58.7299 149.278 58.3451 149.848 58.1484C150.419 57.9516 151.064 57.9505 151.785 58.1451C152.245 58.2693 152.673 58.4521 153.069 58.6935C153.464 58.9349 153.817 59.2278 154.126 59.5723C154.435 59.9139 154.69 60.2995 154.889 60.7292C155.091 61.1568 155.222 61.6188 155.284 62.1153Z" fill="#070707"/>
<path d="M159.295 69.0346C158.689 68.8712 158.165 68.5908 157.721 68.1932C157.277 67.7956 156.932 67.3141 156.688 66.7487C156.445 66.1839 156.324 65.5677 156.324 64.9C156.324 64.2322 156.445 63.68 156.688 63.2431C156.932 62.807 157.277 62.51 157.721 62.352C158.165 62.1941 158.689 62.1968 159.295 62.3602C159.9 62.5236 160.425 62.804 160.869 63.2016C161.312 63.5992 161.655 64.0817 161.898 64.6493C162.142 65.2175 162.265 65.8355 162.265 66.5033C162.265 67.171 162.142 67.7215 161.898 68.1548C161.655 68.5888 161.312 68.8848 160.869 69.0428C160.425 69.2007 159.9 69.198 159.295 69.0346ZM159.303 67.8164C159.631 67.905 159.905 67.885 160.126 67.7566C160.347 67.6254 160.511 67.4144 160.618 67.1236C160.729 66.8335 160.784 66.4921 160.784 66.0993C160.784 65.7037 160.729 65.3311 160.618 64.9815C160.511 64.6299 160.347 64.3288 160.126 64.0785C159.905 63.8282 159.631 63.6588 159.303 63.5702C158.966 63.4794 158.687 63.4993 158.463 63.6298C158.243 63.761 158.077 63.9731 157.967 64.2659C157.859 64.5567 157.805 64.8999 157.805 65.2955C157.805 65.6883 157.859 66.0591 157.967 66.408C158.077 66.7576 158.243 67.0575 158.463 67.3079C158.687 67.5561 158.966 67.7256 159.303 67.8164Z" fill="#070707"/>
<path d="M164.966 66.6515V70.4389L163.505 70.0447V63.5807L164.901 63.9575V65.0559L164.974 65.0755C165.116 64.7521 165.344 64.5259 165.656 64.3969C165.971 64.2686 166.359 64.2669 166.822 64.3918C167.25 64.5073 167.622 64.7032 167.94 64.9797C168.26 65.2569 168.508 65.6 168.682 66.0091C168.86 66.419 168.947 66.8817 168.945 67.3971V71.5129L167.484 71.1186V67.2385C167.484 66.8065 167.376 66.4394 167.161 66.1372C166.948 65.8357 166.654 65.6342 166.277 65.5325C166.022 65.4635 165.794 65.4611 165.595 65.5252C165.399 65.5872 165.244 65.7124 165.131 65.9007C165.021 66.0898 164.966 66.34 164.966 66.6515Z" fill="#070707"/>
<path d="M171.891 68.5205V72.308L170.43 71.9137V65.4497L171.826 65.8266V66.925L171.899 66.9446C172.041 66.6211 172.269 66.3949 172.581 66.2659C172.896 66.1377 173.284 66.136 173.747 66.2609C174.175 66.3763 174.548 66.5723 174.865 66.8488C175.185 67.1259 175.433 67.4691 175.608 67.8782C175.785 68.288 175.873 68.7507 175.87 69.2662V73.382L174.409 72.9877V69.1076C174.409 68.6755 174.301 68.3084 174.086 68.0062C173.874 67.7048 173.579 67.5032 173.202 67.4016C172.947 67.3326 172.719 67.3302 172.52 67.3943C172.324 67.4563 172.169 67.5815 172.056 67.7698C171.946 67.9589 171.891 68.2091 171.891 68.5205Z" fill="#070707"/>
<path d="M180.099 74.6497C179.478 74.4819 178.941 74.2024 178.489 73.8111C178.04 73.4177 177.694 72.94 177.452 72.3781C177.21 71.8133 177.089 71.1929 177.089 70.5168C177.089 69.8519 177.21 69.301 177.452 68.8641C177.697 68.4252 178.038 68.1247 178.477 67.9625C178.915 67.7975 179.431 67.7948 180.022 67.9546C180.405 68.0577 180.765 68.2195 181.104 68.4401C181.446 68.6585 181.747 68.9362 182.008 69.2732C182.272 69.6109 182.479 70.0063 182.629 70.4594C182.78 70.9096 182.855 71.4181 182.855 71.9849V72.452L177.775 71.0807V70.0538L181.455 71.0472C181.452 70.7547 181.392 70.4788 181.274 70.2196C181.155 69.9576 180.99 69.732 180.777 69.5428C180.567 69.3543 180.322 69.2223 180.043 69.1468C179.744 69.0662 179.482 69.0711 179.256 69.1616C179.03 69.2493 178.853 69.3982 178.727 69.6081C178.603 69.816 178.54 70.064 178.537 70.3523V71.2487C178.537 71.6246 178.603 71.965 178.735 72.2699C178.867 72.5721 179.051 72.8266 179.288 73.0336C179.525 73.2378 179.802 73.3827 180.119 73.4684C180.332 73.5257 180.524 73.5468 180.696 73.5315C180.869 73.5135 181.018 73.4598 181.144 73.3705C181.271 73.2812 181.366 73.154 181.431 72.9891L182.795 73.5172C182.709 73.8699 182.545 74.1538 182.303 74.369C182.063 74.5822 181.756 74.7154 181.382 74.7688C181.009 74.8194 180.581 74.7797 180.099 74.6497Z" fill="#070707"/>
<path d="M186.795 76.4569C186.176 76.2899 185.645 76.0048 185.201 75.6017C184.76 75.1992 184.42 74.716 184.18 74.152C183.943 73.5859 183.825 72.976 183.825 72.3223C183.825 71.6658 183.946 71.1191 184.188 70.6823C184.43 70.2426 184.772 69.9421 185.213 69.7806C185.657 69.617 186.182 69.617 186.787 69.7803C187.29 69.9161 187.736 70.1331 188.123 70.4312C188.513 70.7273 188.824 71.0819 189.055 71.495C189.287 71.9054 189.418 72.3478 189.451 72.8222L188.054 72.4453C187.998 72.1187 187.863 71.8229 187.651 71.5579C187.441 71.2908 187.16 71.1097 186.807 71.0146C186.509 70.934 186.246 70.9474 186.02 71.0547C185.794 71.1593 185.618 71.3502 185.492 71.6275C185.368 71.9055 185.306 72.2619 185.306 72.6968C185.306 73.1372 185.368 73.5327 185.492 73.8831C185.615 74.2307 185.789 74.5203 186.012 74.7517C186.238 74.981 186.503 75.1367 186.807 75.2187C187.023 75.2768 187.215 75.2867 187.384 75.2482C187.557 75.2077 187.701 75.1217 187.816 74.9902C187.932 74.8587 188.011 74.6824 188.054 74.4611L189.451 74.838C189.416 75.2859 189.287 75.6564 189.063 75.9496C188.84 76.2401 188.536 76.433 188.151 76.5283C187.766 76.6209 187.314 76.5971 186.795 76.4569Z" fill="#070707"/>
<path d="M193.746 71.7426V72.9209L190.182 71.9591V70.7808L193.746 71.7426ZM191.062 69.4696L192.523 69.8639V75.9323C192.523 76.1371 192.552 76.3022 192.612 76.4276C192.673 76.5509 192.754 76.6456 192.854 76.7117C192.953 76.7779 193.064 76.8273 193.185 76.86C193.276 76.8847 193.359 76.9002 193.435 76.9065C193.513 76.9135 193.572 76.9168 193.612 76.9165L193.859 78.1739C193.781 78.1809 193.669 78.1816 193.524 78.1761C193.381 78.1713 193.206 78.1437 192.999 78.0934C192.633 78.0059 192.303 77.8594 192.01 77.654C191.717 77.4458 191.484 77.1838 191.312 76.868C191.143 76.5529 191.059 76.1938 191.062 75.7905V69.4696Z" fill="#070707"/>
<path d="M200.881 73.6685V74.8469L197.318 73.8851V72.7068L200.881 73.6685ZM198.198 71.3955L199.659 71.7898V77.8582C199.659 78.063 199.688 78.2281 199.747 78.3535C199.809 78.4768 199.89 78.5716 199.99 78.6377C200.089 78.7039 200.199 78.7533 200.321 78.7859C200.412 78.8106 200.495 78.8261 200.571 78.8324C200.649 78.8395 200.708 78.8428 200.748 78.8425L200.994 80.0999C200.916 80.1069 200.805 80.1076 200.66 80.1021C200.517 80.0972 200.342 80.0697 200.135 80.0194C199.769 79.9319 199.439 79.7854 199.146 79.58C198.853 79.3718 198.62 79.1098 198.448 78.794C198.279 78.4789 198.195 78.1197 198.198 77.7164V71.3955Z" fill="#070707"/>
<path d="M204.741 81.3003C204.135 81.1369 203.611 80.8565 203.167 80.4589C202.723 80.0613 202.378 79.5798 202.134 79.0144C201.891 78.4496 201.77 77.8334 201.77 77.1657C201.77 76.4979 201.891 75.9457 202.134 75.5088C202.378 75.0727 202.723 74.7757 203.167 74.6177C203.611 74.4598 204.135 74.4625 204.741 74.6259C205.346 74.7893 205.87 75.0697 206.314 75.4673C206.758 75.8649 207.101 76.3474 207.343 76.915C207.588 77.4832 207.711 78.1012 207.711 78.769C207.711 79.4367 207.588 79.9872 207.343 80.4205C207.101 80.8545 206.758 81.1505 206.314 81.3085C205.87 81.4664 205.346 81.4637 204.741 81.3003ZM204.749 80.0821C205.077 80.1707 205.351 80.1507 205.572 80.0223C205.792 79.8911 205.957 79.6801 206.064 79.3893C206.175 79.0992 206.23 78.7578 206.23 78.365C206.23 77.9694 206.175 77.5968 206.064 77.2472C205.957 76.8955 205.792 76.5945 205.572 76.3442C205.351 76.0939 205.077 75.9245 204.749 75.8359C204.412 75.7451 204.132 75.765 203.909 75.8955C203.689 76.0267 203.523 76.2388 203.413 76.5316C203.305 76.8224 203.251 77.1656 203.251 77.5612C203.251 77.954 203.305 78.3248 203.413 78.6737C203.523 79.0233 203.689 79.3232 203.909 79.5736C204.132 79.8218 204.412 79.9913 204.749 80.0821Z" fill="#070707"/>
<path d="M211.834 83.0886V74.4699L217.129 75.899V77.2077L213.331 76.1828V78.5226L216.766 79.4495V80.7583L213.331 79.8314V83.4927L211.834 83.0886Z" fill="#070707"/>
<path d="M219.99 76.6712V85.2898L218.493 84.8858V76.2671L219.99 76.6712Z" fill="#070707"/>
<path d="M222.673 86.0139L221.075 85.5826L223.984 77.7492L225.833 78.2481L228.746 87.6531L227.148 87.2218L224.941 79.7749L224.876 79.7574L222.673 86.0139ZM222.725 82.6488L227.084 83.8251V85.0792L222.725 83.9028V82.6488Z" fill="#070707"/>
<path d="M228.473 80.2695V78.9607L235.067 80.7404V82.0492L232.512 81.3598V88.6696L231.027 88.2688V80.9589L228.473 80.2695Z" fill="#070707"/>
<path d="M240.372 90.7908L238.62 83.8541L240.11 84.256L241.199 89.0951L241.256 89.1104L242.369 84.866L243.842 85.2635L244.956 90.0839L245.017 90.1002L246.09 85.8702L247.583 86.2732L245.828 92.2634L244.307 91.8528L243.144 87.1709L243.06 87.148L241.897 91.2025L240.372 90.7908Z" fill="#070707"/>
<path d="M250.387 93.6244C249.994 93.5184 249.641 93.35 249.326 93.1191C249.014 92.8862 248.766 92.6005 248.583 92.2622C248.403 91.9246 248.313 91.5439 248.313 91.1203C248.313 90.7556 248.377 90.4714 248.507 90.2678C248.636 90.0642 248.812 89.921 249.035 89.8381C249.259 89.7553 249.51 89.7152 249.79 89.7178C250.072 89.7183 250.364 89.7424 250.666 89.79C251.029 89.8488 251.323 89.8932 251.549 89.9233C251.775 89.9507 251.94 89.9445 252.042 89.9047C252.147 89.8629 252.199 89.769 252.199 89.6232V89.5979C252.199 89.2809 252.109 89.0111 251.929 88.7885C251.749 88.5659 251.489 88.4088 251.15 88.3173C250.792 88.2208 250.508 88.2255 250.298 88.3316C250.091 88.4384 249.951 88.5928 249.879 88.7949L248.515 88.2247C248.622 87.861 248.8 87.5807 249.047 87.3838C249.295 87.184 249.598 87.0665 249.955 87.0312C250.313 86.9931 250.709 87.0326 251.142 87.1495C251.44 87.2301 251.738 87.3468 252.034 87.4996C252.33 87.6524 252.6 87.846 252.845 88.0804C253.09 88.312 253.286 88.5909 253.434 88.917C253.585 89.2438 253.66 89.6219 253.66 90.0511V94.3773L252.256 93.9982V93.1103L252.207 93.0972C252.118 93.2528 251.993 93.3874 251.832 93.5009C251.673 93.6124 251.473 93.6831 251.231 93.7132C250.991 93.7411 250.71 93.7115 250.387 93.6244ZM250.767 92.6074C251.06 92.6865 251.314 92.6948 251.529 92.6323C251.744 92.5669 251.91 92.4488 252.026 92.2781C252.144 92.108 252.203 91.9038 252.203 91.6653V90.9036C252.157 90.9305 252.079 90.9459 251.969 90.9498C251.862 90.9544 251.74 90.9512 251.606 90.9402C251.471 90.9291 251.338 90.9156 251.206 90.8997C251.075 90.8837 250.96 90.8697 250.863 90.8576C250.645 90.8296 250.45 90.8275 250.278 90.8512C250.106 90.8748 249.97 90.9363 249.871 91.0357C249.771 91.1323 249.721 91.2788 249.721 91.4752C249.721 91.7557 249.82 91.9941 250.016 92.1902C250.212 92.3862 250.463 92.5253 250.767 92.6074Z" fill="#070707"/>
<path d="M256.59 86.5494V95.168L255.129 94.7737V86.1551L256.59 86.5494Z" fill="#070707"/>
<path d="M259.553 87.3491V95.9678L258.092 95.5735V86.9548L259.553 87.3491Z" fill="#070707"/>
<path d="M263.799 97.2401C263.178 97.0724 262.641 96.7929 262.189 96.4015C261.74 96.0081 261.394 95.5305 261.152 94.9685C260.91 94.4038 260.789 93.7834 260.789 93.1072C260.789 92.4423 260.91 91.8914 261.152 91.4546C261.397 91.0157 261.739 90.7151 262.177 90.5529C262.616 90.3879 263.131 90.3853 263.723 90.545C264.105 90.6481 264.465 90.81 264.804 91.0305C265.146 91.249 265.447 91.5267 265.708 91.8637C265.972 92.2013 266.179 92.5967 266.33 93.0498C266.48 93.5001 266.556 94.0086 266.556 94.5753V95.0424L261.475 93.6711V92.6443L265.155 93.6376C265.153 93.3451 265.092 93.0693 264.974 92.8101C264.855 92.5481 264.69 92.3225 264.477 92.1332C264.268 91.9447 264.023 91.8127 263.743 91.7372C263.444 91.6566 263.182 91.6616 262.956 91.7521C262.73 91.8398 262.554 91.9886 262.427 92.1986C262.304 92.4064 262.24 92.6545 262.238 92.9427V93.8391C262.238 94.2151 262.304 94.5555 262.435 94.8604C262.567 95.1625 262.752 95.417 262.988 95.624C263.225 95.8282 263.502 95.9731 263.82 96.0588C264.032 96.1162 264.225 96.1372 264.397 96.122C264.569 96.1039 264.718 96.0503 264.845 95.9609C264.971 95.8716 265.067 95.7445 265.131 95.5796L266.495 96.1076C266.409 96.4603 266.245 96.7443 266.003 96.9595C265.763 97.1726 265.457 97.3059 265.083 97.3592C264.709 97.4098 264.281 97.3701 263.799 97.2401Z" fill="#070707"/>
<path d="M270.887 92.5628V93.7411L267.324 92.7794V91.601L270.887 92.5628ZM268.203 90.2898L269.664 90.6841V96.7525C269.664 96.9573 269.694 97.1224 269.753 97.2478C269.815 97.3711 269.896 97.4658 269.995 97.532C270.095 97.5981 270.205 97.6475 270.326 97.6802C270.418 97.7049 270.501 97.7204 270.576 97.7267C270.654 97.7337 270.713 97.7371 270.754 97.7367L271 98.9941C270.922 99.0011 270.81 99.0019 270.665 98.9963C270.522 98.9915 270.348 98.9639 270.14 98.9136C269.775 98.8261 269.445 98.6797 269.152 98.4743C268.858 98.2661 268.626 98.004 268.454 97.6882C268.284 97.3732 268.201 97.014 268.203 96.6107V90.2898Z" fill="#070707"/>
<g filter="url(#filter4_d_104_15911)">
<g clip-path="url(#clip1_104_15911)">
<rect width="211.343" height="38.3099" rx="7.21704" transform="matrix(0.965926 0.258819 0 1 128 161)" fill="#F2F3F5"/>
<path d="M149 194.641V186L154.552 187.455V188.767L150.546 187.717V190.063L154.264 191.037V192.35L150.546 191.376V193.734L154.585 194.792V196.105L149 194.641Z" fill="#070707"/>
<path d="M161.511 189.278L163.057 189.683V195.328C163.057 195.947 162.913 196.454 162.624 196.848C162.338 197.243 161.935 197.504 161.415 197.632C160.895 197.758 160.288 197.73 159.593 197.548C158.896 197.365 158.287 197.075 157.768 196.677C157.248 196.276 156.845 195.804 156.559 195.259C156.273 194.714 156.13 194.132 156.13 193.513V187.868L157.676 188.273V193.788C157.676 194.148 157.754 194.489 157.91 194.811C158.068 195.134 158.29 195.413 158.576 195.648C158.863 195.881 159.202 196.048 159.593 196.151C159.985 196.254 160.324 196.264 160.611 196.181C160.9 196.096 161.122 195.934 161.277 195.693C161.433 195.453 161.511 195.153 161.511 194.793V189.278Z" fill="#070707"/>
<path d="M164.738 198.765V190.123L167.939 190.962C168.595 191.134 169.145 191.393 169.59 191.74C170.037 192.088 170.375 192.5 170.603 192.976C170.833 193.45 170.949 193.963 170.949 194.514C170.949 195.068 170.832 195.519 170.599 195.865C170.368 196.21 170.028 196.435 169.577 196.539C169.127 196.64 168.574 196.605 167.918 196.433L165.638 195.836V194.536L167.71 195.079C168.094 195.18 168.408 195.208 168.652 195.166C168.897 195.12 169.077 195.008 169.194 194.831C169.313 194.651 169.373 194.408 169.373 194.101C169.373 193.795 169.313 193.518 169.194 193.27C169.074 193.019 168.892 192.805 168.648 192.629C168.403 192.449 168.088 192.309 167.702 192.208L166.285 191.836V199.17L164.738 198.765ZM169.148 196.004L171.261 200.474L169.536 200.022L167.46 195.562L169.148 196.004Z" fill="#070707"/>
<path d="M180 198.443C180 199.374 179.828 200.126 179.483 200.699C179.141 201.271 178.675 201.655 178.083 201.852C177.494 202.049 176.825 202.049 176.078 201.854C175.33 201.658 174.661 201.307 174.069 200.8C173.48 200.291 173.013 199.661 172.668 198.91C172.326 198.156 172.155 197.316 172.155 196.387C172.155 195.456 172.326 194.705 172.668 194.133C173.013 193.56 173.48 193.174 174.069 192.977C174.661 192.781 175.33 192.78 176.078 192.976C176.825 193.172 177.494 193.523 178.083 194.029C178.675 194.535 179.141 195.166 179.483 195.919C179.828 196.67 180 197.511 180 198.443ZM178.445 198.035C178.445 197.38 178.344 196.8 178.141 196.297C177.941 195.792 177.663 195.377 177.307 195.054C176.952 194.727 176.542 194.503 176.078 194.381C175.614 194.26 175.204 194.269 174.848 194.409C174.492 194.547 174.213 194.815 174.01 195.215C173.81 195.613 173.71 196.139 173.71 196.795C173.71 197.45 173.81 198.03 174.01 198.536C174.213 199.039 174.492 199.454 174.848 199.78C175.204 200.104 175.614 200.327 176.078 200.449C176.542 200.57 176.952 200.562 177.307 200.425C177.663 200.284 177.941 200.016 178.141 199.618C178.344 199.218 178.445 198.691 178.445 198.035Z" fill="#070707"/>
</g>
<rect x="0.580927" y="0.757079" width="210.14" height="37.1071" rx="6.61562" transform="matrix(0.965926 0.258819 0 1 128.02 160.85)" stroke="#DBDDE5" stroke-width="1.20284"/>
</g>
<path d="M146.69 270.802V270L152.165 271.449V272.251L149.869 271.643V278.306L148.986 278.072V271.409L146.69 270.802Z" fill="#2563EB"/>
<path d="M154.916 279.759C154.389 279.619 153.934 279.38 153.551 279.04C153.171 278.699 152.877 278.286 152.671 277.801C152.466 277.315 152.364 276.785 152.364 276.211C152.364 275.638 152.466 275.159 152.671 274.776C152.877 274.391 153.165 274.124 153.533 273.976C153.904 273.827 154.336 273.817 154.83 273.948C155.116 274.023 155.397 274.146 155.675 274.317C155.953 274.488 156.206 274.713 156.434 274.992C156.662 275.269 156.844 275.604 156.98 275.997C157.115 276.39 157.183 276.847 157.183 277.37V277.734L152.963 276.617V275.874L156.327 276.764C156.327 276.449 156.266 276.15 156.142 275.87C156.021 275.59 155.847 275.348 155.622 275.145C155.398 274.943 155.135 274.801 154.83 274.721C154.495 274.632 154.206 274.64 153.961 274.746C153.719 274.849 153.532 275.018 153.401 275.254C153.271 275.489 153.205 275.761 153.205 276.069V276.565C153.205 276.988 153.277 277.365 153.419 277.697C153.564 278.027 153.765 278.302 154.021 278.523C154.278 278.742 154.576 278.896 154.916 278.986C155.137 279.045 155.337 279.066 155.515 279.05C155.695 279.032 155.851 278.976 155.982 278.882C156.112 278.785 156.213 278.649 156.285 278.474L157.097 278.922C157.012 279.181 156.868 279.391 156.666 279.551C156.464 279.709 156.214 279.809 155.917 279.849C155.62 279.887 155.287 279.857 154.916 279.759Z" fill="#2563EB"/>
<path d="M158.462 280.581V274.982L159.275 275.197V276.043L159.332 276.058C159.432 275.807 159.612 275.63 159.873 275.527C160.135 275.424 160.429 275.415 160.757 275.502C160.819 275.519 160.896 275.54 160.989 275.567C161.082 275.594 161.152 275.616 161.199 275.634V276.509C161.171 276.494 161.105 276.466 161.003 276.424C160.903 276.38 160.798 276.344 160.686 276.314C160.42 276.244 160.182 276.238 159.973 276.297C159.767 276.354 159.603 276.466 159.481 276.633C159.363 276.799 159.303 277.008 159.303 277.261V280.804L158.462 280.581Z" fill="#2563EB"/>
<path d="M162.196 281.569V275.971L163.009 276.186V277.061L163.08 277.079C163.194 276.811 163.378 276.627 163.632 276.529C163.887 276.429 164.192 276.426 164.548 276.52C164.91 276.616 165.21 276.779 165.45 277.011C165.692 277.24 165.881 277.522 166.017 277.857L166.074 277.872C166.214 277.62 166.424 277.446 166.705 277.35C166.985 277.252 167.321 277.254 167.713 277.358C168.203 277.488 168.603 277.75 168.914 278.146C169.225 278.54 169.381 279.066 169.381 279.724V283.471L168.54 283.249V279.502C168.54 279.088 168.43 278.764 168.209 278.528C167.988 278.292 167.727 278.135 167.428 278.055C167.043 277.953 166.745 277.994 166.534 278.176C166.322 278.356 166.216 278.626 166.216 278.989V282.634L165.361 282.407V278.573C165.361 278.254 165.26 277.971 165.058 277.723C164.856 277.473 164.596 277.306 164.278 277.221C164.059 277.164 163.855 277.169 163.665 277.238C163.477 277.307 163.325 277.432 163.208 277.613C163.094 277.792 163.037 278.018 163.037 278.293V281.792L162.196 281.569Z" fill="#2563EB"/>
<path d="M174.797 280.56L174.041 280.579C173.993 280.437 173.923 280.294 173.831 280.148C173.74 280 173.617 279.865 173.46 279.743C173.303 279.622 173.102 279.528 172.858 279.464C172.523 279.375 172.244 279.38 172.02 279.479C171.799 279.576 171.689 279.745 171.689 279.985C171.689 280.199 171.765 280.388 171.917 280.552C172.069 280.716 172.307 280.883 172.63 281.051L173.442 281.47C173.932 281.721 174.296 282.003 174.536 282.317C174.776 282.629 174.896 282.98 174.896 283.371C174.896 283.692 174.806 283.955 174.625 284.16C174.447 284.365 174.198 284.499 173.877 284.559C173.556 284.62 173.183 284.594 172.758 284.482C172.2 284.334 171.737 284.088 171.372 283.743C171.006 283.398 170.774 282.975 170.677 282.473L171.475 282.48C171.551 282.802 171.695 283.066 171.906 283.272C172.12 283.479 172.399 283.629 172.744 283.72C173.136 283.824 173.447 283.821 173.677 283.712C173.91 283.601 174.027 283.425 174.027 283.185C174.027 282.99 173.96 282.81 173.827 282.643C173.694 282.475 173.49 282.321 173.214 282.182L172.302 281.722C171.8 281.468 171.432 281.182 171.197 280.865C170.964 280.545 170.848 280.193 170.848 279.806C170.848 279.49 170.934 279.234 171.108 279.037C171.284 278.84 171.522 278.713 171.824 278.654C172.128 278.596 172.473 278.618 172.858 278.72C173.399 278.863 173.825 279.097 174.134 279.422C174.445 279.748 174.666 280.127 174.797 280.56Z" fill="#2563EB"/>
<path d="M181.209 286.719C180.715 286.588 180.281 286.353 179.908 286.014C179.537 285.675 179.248 285.262 179.038 284.774C178.832 284.287 178.728 283.754 178.728 283.175C178.728 282.592 178.832 282.11 179.038 281.73C179.248 281.351 179.537 281.09 179.908 280.947C180.281 280.805 180.715 280.8 181.209 280.931C181.703 281.061 182.136 281.296 182.506 281.635C182.879 281.974 183.169 282.389 183.376 282.878C183.585 283.369 183.689 283.905 183.689 284.489C183.689 285.067 183.585 285.545 183.376 285.922C183.169 286.3 182.879 286.56 182.506 286.701C182.136 286.844 181.703 286.85 181.209 286.719ZM181.209 285.946C181.584 286.046 181.893 286.029 182.136 285.896C182.378 285.764 182.557 285.552 182.674 285.262C182.79 284.972 182.848 284.64 182.848 284.266C182.848 283.892 182.79 283.528 182.674 283.174C182.557 282.82 182.378 282.511 182.136 282.248C181.893 281.984 181.584 281.803 181.209 281.703C180.834 281.604 180.525 281.622 180.282 281.757C180.04 281.892 179.861 282.106 179.744 282.398C179.628 282.691 179.57 283.024 179.57 283.398C179.57 283.772 179.628 284.135 179.744 284.487C179.861 284.838 180.04 285.145 180.282 285.406C180.525 285.667 180.834 285.847 181.209 285.946Z" fill="#2563EB"/>
<path d="M187.411 282.645V283.374L184.46 282.593V281.864L187.411 282.645ZM185.344 287.697V281.325C185.344 281.005 185.418 280.757 185.565 280.582C185.712 280.407 185.904 280.297 186.139 280.253C186.374 280.208 186.622 280.22 186.884 280.289C187.09 280.344 187.259 280.406 187.39 280.474C187.52 280.543 187.618 280.6 187.682 280.647L187.44 281.326C187.397 281.3 187.337 281.266 187.261 281.224C187.188 281.183 187.09 281.146 186.969 281.114C186.691 281.04 186.49 281.059 186.367 281.17C186.246 281.281 186.185 281.475 186.185 281.752V287.92L185.344 287.697Z" fill="#2563EB"/>
<path d="M195.518 284.791C195.475 284.411 195.302 284.078 194.998 283.793C194.694 283.509 194.321 283.308 193.879 283.191C193.556 283.105 193.273 283.084 193.031 283.127C192.791 283.17 192.603 283.267 192.467 283.419C192.334 283.571 192.268 283.766 192.268 284.004C192.268 284.203 192.314 284.387 192.407 284.555C192.502 284.721 192.623 284.871 192.77 285.004C192.918 285.136 193.072 285.253 193.234 285.357C193.395 285.458 193.544 285.544 193.679 285.617L194.42 286.017C194.611 286.118 194.822 286.245 195.055 286.396C195.29 286.549 195.515 286.731 195.728 286.943C195.945 287.153 196.123 287.397 196.263 287.675C196.403 287.953 196.473 288.266 196.473 288.616C196.473 289.02 196.37 289.357 196.163 289.628C195.959 289.899 195.66 290.079 195.265 290.166C194.873 290.255 194.397 290.224 193.836 290.076C193.313 289.938 192.861 289.732 192.478 289.458C192.098 289.185 191.799 288.865 191.58 288.498C191.364 288.132 191.241 287.742 191.213 287.326L192.125 287.567C192.149 287.856 192.242 288.113 192.403 288.341C192.567 288.566 192.774 288.757 193.023 288.913C193.275 289.067 193.546 289.183 193.836 289.26C194.173 289.349 194.476 289.373 194.745 289.332C195.013 289.289 195.226 289.188 195.383 289.027C195.54 288.865 195.618 288.647 195.618 288.375C195.618 288.127 195.55 287.908 195.415 287.716C195.279 287.525 195.101 287.352 194.88 287.196C194.659 287.04 194.42 286.892 194.164 286.751L193.266 286.251C192.696 285.932 192.244 285.573 191.911 285.174C191.579 284.775 191.412 284.324 191.412 283.821C191.412 283.403 191.523 283.068 191.744 282.815C191.967 282.561 192.267 282.397 192.642 282.324C193.02 282.249 193.442 282.273 193.907 282.397C194.378 282.521 194.796 282.718 195.162 282.987C195.528 283.254 195.818 283.564 196.031 283.917C196.248 284.271 196.362 284.638 196.373 285.018L195.518 284.791Z" fill="#2563EB"/>
<path d="M200.108 291.722C199.58 291.582 199.125 291.342 198.743 291.003C198.362 290.662 198.069 290.249 197.862 289.764C197.658 289.277 197.556 288.747 197.556 288.174C197.556 287.6 197.658 287.122 197.862 286.739C198.069 286.353 198.357 286.087 198.725 285.939C199.095 285.789 199.528 285.78 200.022 285.911C200.307 285.986 200.589 286.109 200.867 286.28C201.145 286.451 201.398 286.676 201.626 286.955C201.854 287.231 202.036 287.566 202.171 287.959C202.307 288.352 202.374 288.81 202.374 289.333V289.697L198.155 288.58V287.837L201.519 288.727C201.519 288.411 201.457 288.113 201.334 287.832C201.212 287.553 201.039 287.311 200.813 287.108C200.59 286.905 200.326 286.764 200.022 286.683C199.687 286.595 199.397 286.603 199.152 286.708C198.91 286.812 198.724 286.981 198.593 287.216C198.462 287.451 198.397 287.723 198.397 288.032V288.528C198.397 288.951 198.468 289.328 198.611 289.66C198.756 289.99 198.956 290.265 199.213 290.486C199.47 290.705 199.768 290.859 200.108 290.949C200.329 291.007 200.528 291.029 200.706 291.013C200.887 290.995 201.043 290.939 201.173 290.845C201.304 290.748 201.405 290.612 201.476 290.436L202.289 290.885C202.203 291.144 202.059 291.354 201.857 291.514C201.656 291.672 201.406 291.771 201.109 291.812C200.812 291.85 200.478 291.82 200.108 291.722Z" fill="#2563EB"/>
<path d="M203.654 292.544V286.945L204.466 287.16V288.006L204.523 288.021C204.623 287.77 204.804 287.593 205.065 287.49C205.326 287.386 205.621 287.378 205.949 287.465C206.011 287.481 206.088 287.503 206.181 287.53C206.273 287.557 206.343 287.579 206.391 287.597V288.471C206.362 288.456 206.297 288.428 206.195 288.387C206.095 288.343 205.989 288.307 205.878 288.277C205.612 288.207 205.374 288.201 205.165 288.26C204.958 288.317 204.794 288.429 204.673 288.596C204.554 288.762 204.495 288.971 204.495 289.223V292.766L203.654 292.544Z" fill="#2563EB"/>
<path d="M212.031 289.162L210.006 294.225L209.151 293.999L207.127 287.864L208.039 288.106L209.55 292.967L209.607 292.982L211.118 288.921L212.031 289.162Z" fill="#2563EB"/>
<path d="M213.141 295.055V289.456L213.982 289.679V295.278L213.141 295.055ZM213.569 288.636C213.405 288.593 213.263 288.498 213.144 288.353C213.028 288.208 212.97 288.055 212.97 287.895C212.97 287.734 213.028 287.612 213.144 287.529C213.263 287.446 213.405 287.426 213.569 287.47C213.733 287.513 213.873 287.607 213.989 287.753C214.108 287.898 214.167 288.051 214.167 288.212C214.167 288.372 214.108 288.494 213.989 288.576C213.873 288.66 213.733 288.68 213.569 288.636Z" fill="#2563EB"/>
<path d="M217.746 296.391C217.233 296.255 216.791 296.014 216.421 295.668C216.05 295.322 215.765 294.905 215.565 294.417C215.366 293.93 215.266 293.406 215.266 292.847C215.266 292.279 215.368 291.804 215.572 291.423C215.779 291.04 216.067 290.775 216.435 290.627C216.806 290.477 217.238 290.468 217.732 290.599C218.117 290.701 218.464 290.865 218.773 291.093C219.082 291.32 219.335 291.592 219.532 291.906C219.729 292.221 219.852 292.559 219.899 292.922L219.058 292.699C218.994 292.427 218.851 292.163 218.63 291.908C218.412 291.651 218.117 291.473 217.746 291.375C217.419 291.288 217.131 291.3 216.884 291.409C216.639 291.517 216.448 291.711 216.31 291.99C216.175 292.268 216.107 292.618 216.107 293.041C216.107 293.473 216.174 293.868 216.307 294.224C216.442 294.58 216.632 294.88 216.877 295.122C217.124 295.365 217.414 295.53 217.746 295.618C217.965 295.676 218.163 295.69 218.342 295.659C218.52 295.628 218.671 295.557 218.794 295.443C218.918 295.33 219.006 295.179 219.058 294.988L219.899 295.211C219.852 295.529 219.734 295.795 219.546 296.011C219.361 296.224 219.115 296.368 218.808 296.442C218.504 296.515 218.15 296.498 217.746 296.391Z" fill="#2563EB"/>
<path d="M223.424 297.894C222.896 297.754 222.441 297.515 222.059 297.175C221.679 296.834 221.385 296.421 221.178 295.936C220.974 295.449 220.872 294.919 220.872 294.346C220.872 293.772 220.974 293.294 221.178 292.911C221.385 292.526 221.673 292.259 222.041 292.111C222.412 291.961 222.844 291.952 223.338 292.083C223.623 292.158 223.905 292.281 224.183 292.452C224.461 292.623 224.714 292.848 224.942 293.127C225.17 293.404 225.352 293.738 225.487 294.131C225.623 294.525 225.69 294.982 225.69 295.505V295.869L221.471 294.752V294.009L224.835 294.899C224.835 294.583 224.773 294.285 224.65 294.005C224.529 293.725 224.355 293.483 224.129 293.28C223.906 293.077 223.642 292.936 223.338 292.855C223.003 292.767 222.713 292.775 222.469 292.88C222.226 292.984 222.04 293.153 221.909 293.388C221.778 293.624 221.713 293.895 221.713 294.204V294.7C221.713 295.123 221.784 295.5 221.927 295.832C222.072 296.162 222.273 296.437 222.529 296.658C222.786 296.877 223.084 297.031 223.424 297.121C223.645 297.179 223.844 297.201 224.023 297.185C224.203 297.167 224.359 297.111 224.489 297.017C224.62 296.92 224.721 296.784 224.792 296.608L225.605 297.057C225.519 297.316 225.376 297.526 225.174 297.686C224.972 297.844 224.722 297.943 224.425 297.984C224.128 298.022 223.794 297.992 223.424 297.894Z" fill="#2563EB"/>
</g>
<rect x="0.580927" y="0.757079" width="265.065" height="207.551" rx="9.0213" transform="matrix(0.965926 0.258819 0 1 120.824 16.8496)" stroke="#0066FF" stroke-width="1.20284"/>
</g>
<g opacity="0.3" filter="url(#filter5_f_104_15911)">
<rect width="210.658" height="40.9692" rx="9.62272" transform="matrix(0.965926 0.258819 0 1 139.843 80.0281)" fill="#5A52B9" fill-opacity="0.53"/>
<rect x="0.580927" y="0.757079" width="209.455" height="39.7663" rx="9.0213" transform="matrix(0.965926 0.258819 0 1 139.863 79.8777)" stroke="black" stroke-width="1.20284"/>
</g>
<rect x="0.580927" y="0.757079" width="216.287" height="38.2214" rx="6.61562" transform="matrix(0.965926 0.258819 0 1 140.148 78.4981)" stroke="white" stroke-width="1.20284"/>
<g clip-path="url(#clip2_104_15911)">
<rect width="221.745" height="40.1956" rx="7.21704" transform="matrix(0.965926 0.258819 0 1 84 77.7285)" fill="#F2F3F5"/>
<path d="M107.551 98.528L109.146 98.9672V105.086C109.146 105.757 108.997 106.306 108.699 106.733C108.403 107.161 107.988 107.444 107.452 107.583C106.916 107.719 106.29 107.688 105.573 107.491C104.853 107.293 104.226 106.978 103.69 106.547C103.154 106.113 102.738 105.601 102.443 105.011C102.148 104.42 102 103.79 102 103.119V97L103.595 97.4391V103.416C103.595 103.806 103.675 104.176 103.836 104.525C103.999 104.875 104.229 105.177 104.524 105.433C104.819 105.685 105.169 105.866 105.573 105.977C105.977 106.089 106.327 106.1 106.622 106.01C106.92 105.918 107.149 105.742 107.31 105.482C107.47 105.221 107.551 104.895 107.551 104.505V98.528Z" fill="#070707"/>
<path d="M115.665 103.336C115.625 102.926 115.456 102.569 115.158 102.264C114.862 101.96 114.478 101.743 114.005 101.613C113.673 101.521 113.388 101.496 113.15 101.537C112.912 101.579 112.73 101.673 112.604 101.821C112.478 101.97 112.413 102.161 112.41 102.395C112.41 102.59 112.452 102.771 112.535 102.937C112.621 103.104 112.737 103.258 112.883 103.398C113.029 103.536 113.191 103.663 113.369 103.779C113.547 103.895 113.726 104.001 113.906 104.096L114.732 104.543C115.064 104.717 115.384 104.916 115.691 105.141C116 105.366 116.277 105.619 116.521 105.9C116.767 106.181 116.962 106.492 117.105 106.834C117.249 107.175 117.32 107.548 117.32 107.954C117.32 108.502 117.188 108.949 116.925 109.294C116.661 109.637 116.28 109.856 115.781 109.954C115.285 110.049 114.685 109.999 113.98 109.805C113.295 109.617 112.7 109.34 112.195 108.976C111.694 108.612 111.301 108.175 111.017 107.664C110.736 107.153 110.584 106.584 110.561 105.956L112.131 106.388C112.154 106.72 112.248 107.018 112.415 107.28C112.581 107.542 112.797 107.763 113.064 107.944C113.333 108.124 113.634 108.261 113.967 108.352C114.314 108.448 114.617 108.476 114.878 108.438C115.142 108.398 115.348 108.3 115.497 108.142C115.646 107.982 115.722 107.768 115.725 107.501C115.722 107.256 115.655 107.036 115.523 106.842C115.391 106.644 115.206 106.459 114.968 106.286C114.733 106.112 114.458 105.939 114.143 105.767L113.141 105.216C112.416 104.819 111.843 104.36 111.421 103.842C111.003 103.321 110.794 102.726 110.794 102.055C110.794 101.503 110.934 101.059 111.215 100.721C111.499 100.385 111.884 100.169 112.372 100.075C112.859 99.9771 113.411 100.013 114.027 100.183C114.652 100.355 115.199 100.621 115.669 100.983C116.142 101.341 116.513 101.762 116.783 102.245C117.052 102.724 117.191 103.229 117.2 103.759L115.665 103.336Z" fill="#070707"/>
<path d="M121.726 111.796L118.742 110.975V101.609L121.786 102.447C122.661 102.688 123.412 103.082 124.039 103.63C124.67 104.175 125.154 104.844 125.493 105.635C125.831 106.426 126 107.308 126 108.281C126 109.256 125.829 110.048 125.488 110.655C125.15 111.263 124.661 111.667 124.022 111.866C123.386 112.066 122.621 112.042 121.726 111.796ZM120.338 109.946L121.649 110.307C122.262 110.476 122.774 110.498 123.184 110.373C123.594 110.245 123.902 109.971 124.108 109.553C124.315 109.131 124.418 108.562 124.418 107.845C124.418 107.129 124.315 106.506 124.108 105.976C123.902 105.444 123.597 105.005 123.192 104.659C122.791 104.31 122.292 104.054 121.696 103.89L120.338 103.516V109.946Z" fill="#070707"/>
</g>
<rect x="0.580927" y="0.757079" width="220.543" height="38.9927" rx="6.61562" transform="matrix(0.965926 0.258819 0 1 84.0198 77.5782)" stroke="#DBDDE5" stroke-width="1.20284"/>
<g opacity="0.8" filter="url(#filter6_b_104_15911)">
<rect width="256.76" height="219.354" rx="8.15974" transform="matrix(0.962455 0.27144 0 1 17.2021 169.786)" fill="url(#paint1_radial_104_15911)"/>
</g>
<g opacity="0.8" filter="url(#filter7_b_104_15911)">
<rect width="256.76" height="219.354" rx="8.15974" transform="matrix(0.962455 0.27144 0 1 27.125 158.958)" fill="url(#paint2_radial_104_15911)"/>
<rect x="0.481228" y="0.63572" width="255.76" height="218.354" rx="7.65974" transform="matrix(0.962455 0.27144 0 1 27.1431 158.827)" stroke="#0066FF"/>
</g>
<g opacity="0.3" filter="url(#filter8_d_104_15911)">
<g opacity="0.3" filter="url(#filter9_f_104_15911)">
<rect width="251.933" height="37.3501" rx="8.15974" transform="matrix(0.962455 0.27144 0 1 32.6826 230.377)" fill="url(#paint3_linear_104_15911)"/>
</g>
</g>
<g opacity="0.3" filter="url(#filter10_d_104_15911)">
<g opacity="0.3" filter="url(#filter11_f_104_15911)">
<rect width="247.067" height="27.1719" rx="8.15974" transform="matrix(0.962455 0.27144 0 1 32.6826 285.629)" fill="url(#paint4_linear_104_15911)"/>
</g>
</g>
<rect opacity="0.6" width="49.5463" height="21.8408" rx="4.07987" transform="matrix(0.962455 0.27144 0 1 32.999 330.454)" fill="#F0F1F3"/>
<path d="M45.7936 348.608V347.826L48.6215 345.407C48.9533 345.124 49.2266 344.873 49.4414 344.656C49.6561 344.435 49.8151 344.216 49.9183 343.999C50.0242 343.78 50.0772 343.534 50.0772 343.262C50.0772 342.949 50.0047 342.657 49.8597 342.387C49.7175 342.118 49.5223 341.887 49.274 341.692C49.0258 341.497 48.747 341.356 48.4374 341.269C48.1083 341.176 47.8211 341.166 47.5756 341.239C47.333 341.31 47.1448 341.452 47.0109 341.667C46.8798 341.882 46.8143 342.159 46.8143 342.498L45.827 342.219C45.827 341.698 45.9428 341.273 46.1742 340.944C46.4057 340.615 46.7209 340.397 47.1197 340.289C47.5213 340.182 47.9717 340.199 48.4709 340.34C48.9729 340.481 49.4177 340.717 49.8053 341.046C50.193 341.376 50.497 341.759 50.7173 342.195C50.9376 342.631 51.0478 343.078 51.0478 343.535C51.0478 343.863 50.9906 344.167 50.8762 344.448C50.7647 344.726 50.5695 345.017 50.2906 345.321C50.0145 345.623 49.631 345.978 49.1402 346.388L47.2159 347.983V348.053L51.1983 349.176V350.132L45.7936 348.608ZM55.6033 351.496C55.1125 351.358 54.6705 351.132 54.2772 350.818C53.884 350.504 53.5689 350.137 53.3318 349.717C53.0948 349.297 52.9651 348.857 52.9428 348.399L53.9468 348.682C53.9858 349.096 54.1615 349.479 54.4738 349.83C54.789 350.18 55.1655 350.417 55.6033 350.54C55.9547 350.639 56.2671 350.642 56.5404 350.548C56.8165 350.455 57.0326 350.281 57.1888 350.027C57.3477 349.77 57.4272 349.452 57.4272 349.072C57.4272 348.684 57.345 348.315 57.1804 347.964C57.0187 347.611 56.7956 347.306 56.5111 347.049C56.2266 346.792 55.9017 346.611 55.5364 346.505C55.2742 346.428 55.0051 346.394 54.729 346.403C54.4529 346.41 54.2256 346.454 54.0472 346.537L53.0766 346.142L53.5954 341.907L58.0464 343.162V344.118L54.4655 343.108L54.1643 345.649L54.2145 345.663C54.3902 345.568 54.6105 345.509 54.8754 345.488C55.1404 345.468 55.4165 345.498 55.7037 345.579C56.228 345.727 56.6952 345.989 57.1051 346.365C57.5179 346.739 57.8414 347.184 58.0756 347.699C58.3127 348.215 58.4312 348.762 58.4312 349.338C58.4312 349.906 58.3085 350.379 58.0631 350.756C57.8205 351.131 57.4858 351.387 57.0591 351.524C56.6324 351.659 56.1471 351.65 55.6033 351.496ZM64.4603 352.203V351.734C64.4603 351.41 64.5245 351.131 64.6528 350.897C64.7838 350.662 64.9735 350.498 65.2217 350.406C65.4727 350.311 65.7767 350.315 66.1336 350.415C66.4962 350.518 66.8002 350.686 67.0456 350.92C67.291 351.152 67.4765 351.421 67.602 351.729C67.7275 352.034 67.7902 352.349 67.7902 352.673V353.143C67.7902 353.467 67.7261 353.748 67.5978 353.984C67.4723 354.218 67.2854 354.382 67.0372 354.478C66.7918 354.571 66.4906 354.567 66.1336 354.466C65.7711 354.364 65.4657 354.197 65.2175 353.964C64.9693 353.729 64.7811 353.459 64.6528 353.153C64.5245 352.845 64.4603 352.528 64.4603 352.203ZM65.3137 351.975V352.444C65.3137 352.714 65.3751 352.973 65.4978 353.222C65.6205 353.468 65.8325 353.634 66.1336 353.719C66.4265 353.801 66.6329 353.754 66.7528 353.576C66.8755 353.396 66.9368 353.171 66.9368 352.902V352.433C66.9368 352.163 66.8783 351.906 66.7611 351.661C66.644 351.414 66.4348 351.248 66.1336 351.163C65.8408 351.08 65.6303 351.128 65.502 351.306C65.3765 351.482 65.3137 351.705 65.3137 351.975ZM60.1934 345.906V345.437C60.1934 345.112 60.2576 344.833 60.3858 344.6C60.5169 344.364 60.7066 344.201 60.9548 344.108C61.2058 344.014 61.5097 344.017 61.8667 344.118C62.2293 344.22 62.5333 344.388 62.7787 344.623C63.0241 344.854 63.2095 345.124 63.335 345.432C63.4605 345.737 63.5233 346.051 63.5233 346.376V346.845C63.5233 347.17 63.4591 347.45 63.3309 347.686C63.2054 347.92 63.0185 348.085 62.7703 348.18C62.5249 348.273 62.2237 348.269 61.8667 348.169C61.5042 348.066 61.1988 347.899 60.9506 347.667C60.7024 347.432 60.5141 347.161 60.3858 346.856C60.2576 346.547 60.1934 346.231 60.1934 345.906ZM61.0468 345.677V346.147C61.0468 346.416 61.1082 346.675 61.2309 346.924C61.3536 347.171 61.5655 347.336 61.8667 347.421C62.1595 347.504 62.3659 347.456 62.4858 347.278C62.6086 347.099 62.6699 346.874 62.6699 346.604V346.135C62.6699 345.866 62.6113 345.609 62.4942 345.364C62.3771 345.117 62.1679 344.95 61.8667 344.865C61.5739 344.783 61.3633 344.831 61.235 345.009C61.1095 345.185 61.0468 345.408 61.0468 345.677ZM60.5113 352.759L66.4014 345.518L67.3552 345.787L61.4651 353.028L60.5113 352.759Z" fill="#5A6689"/>
<rect opacity="0.6" width="48.3077" height="21.8408" rx="4.07987" transform="matrix(0.962455 0.27144 0 1 84.2617 344.912)" fill="#F0F1F3"/>
<path d="M99.0224 363.742C98.5316 363.603 98.0896 363.377 97.6963 363.064C97.3031 362.75 96.988 362.383 96.7509 361.963C96.5139 361.542 96.3842 361.103 96.3619 360.644L97.3659 360.928C97.4049 361.341 97.5806 361.724 97.893 362.076C98.2081 362.426 98.5846 362.662 99.0224 362.786C99.3738 362.885 99.6862 362.887 99.9595 362.794C100.236 362.7 100.452 362.527 100.608 362.272C100.767 362.016 100.846 361.698 100.846 361.318C100.846 360.93 100.764 360.56 100.6 360.21C100.438 359.857 100.215 359.552 99.9302 359.295C99.6457 359.038 99.3208 358.857 98.9555 358.751C98.6934 358.674 98.4242 358.64 98.1481 358.649C97.872 358.655 97.6448 358.7 97.4663 358.783L96.4957 358.387L97.0145 354.152L101.465 355.408V356.364L97.8846 355.354L97.5834 357.894L97.6336 357.908C97.8093 357.813 98.0296 357.755 98.2946 357.734C98.5595 357.713 98.8356 357.743 99.1228 357.824C99.6471 357.972 100.114 358.234 100.524 358.611C100.937 358.985 101.26 359.43 101.495 359.945C101.732 360.461 101.85 361.007 101.85 361.584C101.85 362.152 101.728 362.624 101.482 363.001C101.24 363.376 100.905 363.632 100.478 363.77C100.052 363.905 99.5663 363.895 99.0224 363.742ZM106.307 365.796C105.676 365.619 105.139 365.289 104.696 364.807C104.253 364.323 103.914 363.707 103.679 362.96C103.445 362.21 103.328 361.352 103.328 360.384C103.328 359.422 103.445 358.633 103.679 358.018C103.917 357.401 104.257 356.976 104.7 356.742C105.146 356.505 105.682 356.475 106.307 356.651C106.931 356.828 107.465 357.159 107.909 357.646C108.355 358.132 108.695 358.749 108.929 359.499C109.167 360.247 109.285 361.102 109.285 362.064C109.285 363.032 109.168 363.824 108.934 364.442C108.699 365.057 108.361 365.482 107.917 365.716C107.474 365.947 106.937 365.974 106.307 365.796ZM106.307 364.84C106.931 365.016 107.417 364.84 107.762 364.312C108.108 363.783 108.281 362.94 108.281 361.781C108.281 361.01 108.202 360.331 108.043 359.744C107.886 359.159 107.661 358.682 107.365 358.315C107.072 357.948 106.719 357.707 106.307 357.59C105.687 357.416 105.204 357.596 104.855 358.133C104.506 358.666 104.332 359.511 104.332 360.667C104.332 361.438 104.41 362.115 104.566 362.698C104.722 363.281 104.947 363.754 105.24 364.118C105.535 364.482 105.891 364.723 106.307 364.84ZM115.242 366.526V366.056C115.242 365.732 115.306 365.453 115.434 365.219C115.566 364.984 115.755 364.82 116.003 364.728C116.254 364.634 116.558 364.637 116.915 364.737C117.278 364.84 117.582 365.008 117.827 365.242C118.073 365.474 118.258 365.743 118.384 366.051C118.509 366.356 118.572 366.671 118.572 366.995V367.465C118.572 367.789 118.508 368.07 118.379 368.306C118.254 368.54 118.067 368.705 117.819 368.8C117.573 368.893 117.272 368.889 116.915 368.788C116.553 368.686 116.247 368.519 115.999 368.286C115.751 368.051 115.563 367.781 115.434 367.475C115.306 367.167 115.242 366.85 115.242 366.526ZM116.095 366.297V366.766C116.095 367.036 116.157 367.295 116.279 367.544C116.402 367.79 116.614 367.956 116.915 368.041C117.208 368.123 117.415 368.076 117.534 367.898C117.657 367.718 117.718 367.494 117.718 367.224V366.755C117.718 366.485 117.66 366.228 117.543 365.984C117.426 365.736 117.217 365.57 116.915 365.485C116.622 365.402 116.412 365.45 116.284 365.628C116.158 365.805 116.095 366.027 116.095 366.297ZM110.975 360.228V359.759C110.975 359.434 111.039 359.155 111.168 358.922C111.299 358.687 111.488 358.523 111.736 358.43C111.987 358.336 112.291 358.339 112.648 358.44C113.011 358.542 113.315 358.71 113.56 358.945C113.806 359.176 113.991 359.446 114.117 359.754C114.242 360.059 114.305 360.373 114.305 360.698V361.167C114.305 361.492 114.241 361.772 114.113 362.008C113.987 362.242 113.8 362.407 113.552 362.502C113.307 362.595 113.005 362.591 112.648 362.491C112.286 362.389 111.98 362.221 111.732 361.989C111.484 361.754 111.296 361.483 111.168 361.178C111.039 360.869 110.975 360.553 110.975 360.228ZM111.828 359.999V360.469C111.828 360.738 111.89 360.998 112.013 361.247C112.135 361.493 112.347 361.658 112.648 361.743C112.941 361.826 113.148 361.778 113.268 361.601C113.39 361.421 113.452 361.196 113.452 360.927V360.457C113.452 360.188 113.393 359.931 113.276 359.686C113.159 359.439 112.95 359.272 112.648 359.187C112.356 359.105 112.145 359.153 112.017 359.331C111.891 359.507 111.828 359.73 111.828 359.999ZM111.293 367.081L117.183 359.841L118.137 360.11L112.247 367.35L111.293 367.081Z" fill="#5A6689"/>
<rect opacity="0.6" width="48.3077" height="21.8408" rx="4.07987" transform="matrix(0.962455 0.27144 0 1 134.333 359.033)" fill="#F0F1F3"/>
<path d="M147.058 377.167L150.89 370.372V370.303L146.472 369.057V368.101L151.961 369.649V370.657L148.146 377.474L147.058 377.167ZM156.082 379.834C155.592 379.696 155.15 379.47 154.756 379.156C154.363 378.842 154.048 378.475 153.811 378.055C153.574 377.635 153.444 377.195 153.422 376.737L154.426 377.02C154.465 377.434 154.641 377.817 154.953 378.168C155.268 378.518 155.645 378.755 156.082 378.878C156.434 378.977 156.746 378.98 157.019 378.886C157.296 378.793 157.512 378.619 157.668 378.365C157.827 378.108 157.906 377.79 157.906 377.41C157.906 377.022 157.824 376.653 157.659 376.302C157.498 375.949 157.275 375.644 156.99 375.387C156.706 375.13 156.381 374.949 156.015 374.843C155.753 374.766 155.484 374.732 155.208 374.741C154.932 374.748 154.705 374.792 154.526 374.875L153.556 374.48L154.074 370.245L158.525 371.5V372.456L154.945 371.446L154.643 373.987L154.694 374.001C154.869 373.905 155.09 373.847 155.355 373.826C155.619 373.806 155.896 373.836 156.183 373.917C156.707 374.065 157.174 374.327 157.584 374.703C157.997 375.077 158.32 375.522 158.555 376.037C158.792 376.553 158.91 377.1 158.91 377.676C158.91 378.244 158.788 378.717 158.542 379.094C158.3 379.469 157.965 379.725 157.538 379.862C157.111 379.997 156.626 379.988 156.082 379.834ZM164.939 380.541V380.072C164.939 379.748 165.004 379.469 165.132 379.235C165.263 379 165.453 378.836 165.701 378.744C165.952 378.649 166.256 378.653 166.613 378.753C166.975 378.855 167.279 379.024 167.525 379.258C167.77 379.49 167.956 379.759 168.081 380.067C168.207 380.372 168.269 380.687 168.269 381.011V381.481C168.269 381.805 168.205 382.085 168.077 382.322C167.951 382.556 167.765 382.72 167.516 382.816C167.271 382.909 166.97 382.905 166.613 382.804C166.25 382.702 165.945 382.535 165.697 382.302C165.448 382.067 165.26 381.797 165.132 381.491C165.004 381.183 164.939 380.866 164.939 380.541ZM165.793 380.313V380.782C165.793 381.052 165.854 381.311 165.977 381.56C166.1 381.806 166.312 381.972 166.613 382.057C166.906 382.139 167.112 382.092 167.232 381.914C167.355 381.734 167.416 381.509 167.416 381.24V380.771C167.416 380.501 167.357 380.244 167.24 379.999C167.123 379.752 166.914 379.586 166.613 379.501C166.32 379.418 166.109 379.466 165.981 379.644C165.856 379.82 165.793 380.043 165.793 380.313ZM160.672 374.244V373.775C160.672 373.45 160.737 373.171 160.865 372.938C160.996 372.702 161.186 372.539 161.434 372.446C161.685 372.352 161.989 372.355 162.346 372.456C162.708 372.558 163.012 372.726 163.258 372.961C163.503 373.192 163.689 373.462 163.814 373.77C163.94 374.075 164.002 374.389 164.002 374.714V375.183C164.002 375.508 163.938 375.788 163.81 376.024C163.684 376.258 163.498 376.423 163.249 376.518C163.004 376.611 162.703 376.607 162.346 376.507C161.983 376.404 161.678 376.237 161.43 376.005C161.181 375.77 160.993 375.499 160.865 375.194C160.737 374.885 160.672 374.569 160.672 374.244ZM161.526 374.015V374.485C161.526 374.754 161.587 375.013 161.71 375.262C161.833 375.509 162.045 375.674 162.346 375.759C162.639 375.842 162.845 375.794 162.965 375.616C163.088 375.437 163.149 375.212 163.149 374.942V374.473C163.149 374.204 163.09 373.947 162.973 373.702C162.856 373.455 162.647 373.288 162.346 373.203C162.053 373.121 161.842 373.169 161.714 373.347C161.589 373.523 161.526 373.746 161.526 374.015ZM160.99 381.097L166.88 373.856L167.834 374.125L161.944 381.366L160.99 381.097Z" fill="#5A6689"/>
<rect opacity="0.6" width="48.3077" height="21.8408" rx="4.07987" transform="matrix(0.962455 0.27144 0 1 184.403 373.155)" fill="#F0F1F3"/>
<path d="M196.663 382.256V391.158L195.626 390.865V383.093L195.575 383.079L193.484 383.932V382.837L195.626 381.963L196.663 382.256ZM201.921 392.762C201.291 392.584 200.754 392.255 200.311 391.773C199.867 391.289 199.529 390.673 199.294 389.926C199.06 389.176 198.943 388.318 198.943 387.35C198.943 386.388 199.06 385.599 199.294 384.984C199.531 384.367 199.872 383.942 200.315 383.708C200.761 383.471 201.297 383.441 201.921 383.617C202.546 383.793 203.08 384.125 203.524 384.612C203.97 385.098 204.31 385.715 204.544 386.465C204.781 387.213 204.9 388.068 204.9 389.03C204.9 389.998 204.783 390.79 204.548 391.408C204.314 392.023 203.975 392.448 203.532 392.682C203.088 392.913 202.552 392.94 201.921 392.762ZM201.921 391.806C202.546 391.982 203.031 391.806 203.377 391.278C203.723 390.749 203.896 389.906 203.896 388.747C203.896 387.976 203.816 387.297 203.657 386.71C203.501 386.125 203.275 385.648 202.98 385.281C202.687 384.914 202.334 384.673 201.921 384.556C201.302 384.382 200.818 384.562 200.47 385.099C200.121 385.632 199.947 386.477 199.947 387.633C199.947 388.404 200.025 389.081 200.181 389.664C200.337 390.247 200.562 390.72 200.855 391.084C201.15 391.448 201.506 391.689 201.921 391.806ZM209.284 394.839C208.654 394.661 208.117 394.331 207.673 393.85C207.23 393.365 206.891 392.75 206.657 392.003C206.423 391.253 206.305 390.394 206.305 389.426C206.305 388.464 206.423 387.676 206.657 387.061C206.894 386.444 207.234 386.018 207.678 385.784C208.124 385.548 208.659 385.518 209.284 385.694C209.909 385.87 210.443 386.202 210.886 386.689C211.332 387.174 211.673 387.792 211.907 388.542C212.144 389.289 212.262 390.144 212.262 391.106C212.262 392.074 212.145 392.867 211.911 393.485C211.677 394.099 211.338 394.524 210.894 394.758C210.451 394.99 209.914 395.016 209.284 394.839ZM209.284 393.882C209.909 394.059 210.394 393.883 210.74 393.354C211.085 392.826 211.258 391.982 211.258 390.823C211.258 390.052 211.179 389.374 211.02 388.787C210.864 388.201 210.638 387.724 210.342 387.357C210.049 386.99 209.697 386.749 209.284 386.633C208.665 386.458 208.181 386.639 207.832 387.175C207.484 387.708 207.309 388.553 207.309 389.709C207.309 390.48 207.387 391.157 207.544 391.74C207.7 392.323 207.924 392.796 208.217 393.16C208.513 393.524 208.868 393.765 209.284 393.882ZM218.219 395.568V395.099C218.219 394.774 218.283 394.495 218.412 394.262C218.543 394.026 218.732 393.863 218.981 393.77C219.232 393.676 219.536 393.679 219.893 393.78C220.255 393.882 220.559 394.05 220.805 394.285C221.05 394.516 221.235 394.786 221.361 395.094C221.486 395.398 221.549 395.713 221.549 396.038V396.507C221.549 396.832 221.485 397.112 221.357 397.348C221.231 397.582 221.044 397.747 220.796 397.842C220.551 397.935 220.25 397.931 219.893 397.831C219.53 397.728 219.225 397.561 218.977 397.329C218.728 397.094 218.54 396.823 218.412 396.518C218.283 396.209 218.219 395.893 218.219 395.568ZM219.073 395.339V395.809C219.073 396.078 219.134 396.337 219.257 396.586C219.379 396.833 219.591 396.998 219.893 397.083C220.185 397.166 220.392 397.118 220.512 396.94C220.634 396.761 220.696 396.536 220.696 396.266V395.797C220.696 395.528 220.637 395.271 220.52 395.026C220.403 394.779 220.194 394.612 219.893 394.527C219.6 394.445 219.389 394.493 219.261 394.671C219.135 394.847 219.073 395.07 219.073 395.339ZM213.952 389.271V388.801C213.952 388.477 214.017 388.198 214.145 387.964C214.276 387.729 214.466 387.565 214.714 387.473C214.965 387.379 215.269 387.382 215.626 387.482C215.988 387.585 216.292 387.753 216.538 387.987C216.783 388.219 216.969 388.488 217.094 388.796C217.22 389.101 217.282 389.416 217.282 389.74V390.21C217.282 390.534 217.218 390.815 217.09 391.051C216.964 391.285 216.778 391.45 216.529 391.545C216.284 391.638 215.983 391.634 215.626 391.533C215.263 391.431 214.958 391.264 214.71 391.031C214.461 390.796 214.273 390.526 214.145 390.22C214.017 389.912 213.952 389.595 213.952 389.271ZM214.806 389.042V389.511C214.806 389.781 214.867 390.04 214.99 390.289C215.113 390.535 215.325 390.701 215.626 390.786C215.919 390.868 216.125 390.821 216.245 390.643C216.368 390.463 216.429 390.239 216.429 389.969V389.5C216.429 389.23 216.37 388.973 216.253 388.729C216.136 388.481 215.927 388.315 215.626 388.23C215.333 388.147 215.122 388.195 214.994 388.373C214.869 388.55 214.806 388.772 214.806 389.042ZM214.27 396.123L220.16 388.883L221.114 389.152L215.224 396.392L214.27 396.123Z" fill="#5A6689"/>
<g filter="url(#filter12_d_104_15911)">
<path d="M2.73986 242.529C2.73986 240.557 4.27815 239.393 6.17571 239.928L264.547 312.796C266.445 313.331 267.983 315.364 267.983 317.335V345.894C267.983 347.866 266.445 349.03 264.547 348.495L6.17571 275.627C4.27814 275.092 2.73986 273.06 2.73986 271.088V242.529Z" fill="white" stroke="#E1E3E7" stroke-width="1.01997"/>
<path d="M20.6703 261.116L24.3516 262.154C24.7582 262.269 25.0878 262.704 25.0878 263.127C25.0878 263.549 24.7582 263.799 24.3516 263.684L20.6703 262.646L19.1978 262.231L15.5165 261.192C15.1099 261.078 14.7803 260.642 14.7803 260.22C14.7803 259.797 15.1099 259.548 15.5165 259.662L19.1978 260.701L20.6703 261.116Z" fill="#9199B1"/>
<line y1="-0.509984" x2="24.4792" y2="-0.509984" transform="matrix(-4.20702e-08 1 -0.962455 -0.271441 37.5889 254.398)" stroke="#DBDDE5" stroke-width="1.01997"/>
<line y1="-0.509984" x2="24.4792" y2="-0.509984" transform="matrix(-4.20702e-08 1 -0.962455 -0.271441 233.481 309.645)" stroke="#DBDDE5" stroke-width="1.01997"/>
<path fill-rule="evenodd" clip-rule="evenodd" d="M251.167 321.533C251.574 321.648 251.903 322.083 251.903 322.505V326.33L255.584 327.369C255.991 327.483 256.321 327.919 256.321 328.341C256.321 328.764 255.991 329.013 255.584 328.899L251.903 327.86V331.685C251.903 332.108 251.574 332.357 251.167 332.243C250.76 332.128 250.431 331.692 250.431 331.27V327.445L246.749 326.407C246.343 326.292 246.013 325.857 246.013 325.434C246.013 325.012 246.343 324.762 246.749 324.877L250.431 325.915V322.09C250.431 321.668 250.76 321.418 251.167 321.533Z" fill="#9199B1"/>
</g>
<g filter="url(#filter13_d_104_15911)">
<path d="M8.96447 287.009C8.96447 285.037 10.5028 283.873 12.4003 284.408L264.772 355.584C266.669 356.119 268.207 358.152 268.207 360.123V388.682C268.207 390.654 266.669 391.818 264.772 391.283L12.4003 320.107C10.5027 319.572 8.96447 317.54 8.96447 315.568V287.009Z" fill="white" stroke="#E1E3E7" stroke-width="1.01997"/>
<path d="M26.8949 305.596L30.5762 306.634C30.9828 306.749 31.3124 307.184 31.3124 307.607C31.3124 308.029 30.9828 308.279 30.5762 308.164L26.8949 307.126L25.4224 306.71L21.7411 305.672C21.3345 305.557 21.0049 305.122 21.0049 304.7C21.0049 304.277 21.3345 304.028 21.7411 304.142L25.4224 305.18L26.8949 305.596Z" fill="#9199B1"/>
<line y1="-0.509984" x2="24.4792" y2="-0.509984" transform="matrix(-4.20702e-08 1 -0.962455 -0.271441 43.8135 298.878)" stroke="#DBDDE5" stroke-width="1.01997"/>
<line y1="-0.509984" x2="24.4792" y2="-0.509984" transform="matrix(-4.20702e-08 1 -0.962455 -0.271441 232.713 352.153)" stroke="#DBDDE5" stroke-width="1.01997"/>
<path fill-rule="evenodd" clip-rule="evenodd" d="M250.398 364.04C250.805 364.155 251.135 364.59 251.135 365.013V368.838L254.816 369.876C255.223 369.991 255.552 370.426 255.552 370.849C255.552 371.271 255.223 371.521 254.816 371.406L251.135 370.368V374.193C251.135 374.615 250.805 374.865 250.398 374.75C249.992 374.635 249.662 374.2 249.662 373.777V369.952L245.981 368.914C245.574 368.799 245.245 368.364 245.245 367.941C245.245 367.519 245.574 367.269 245.981 367.384L249.662 368.422V364.598C249.662 364.175 249.992 363.926 250.398 364.04Z" fill="#9199B1"/>
</g>
<path d="M88.0886 226.854C88.0567 226.535 87.9223 226.255 87.6853 226.016C87.4506 225.777 87.1453 225.604 86.7693 225.498C86.505 225.424 86.2783 225.401 86.0892 225.431C85.9001 225.46 85.7554 225.532 85.6551 225.646C85.5549 225.759 85.5036 225.907 85.5013 226.089C85.5013 226.24 85.5344 226.381 85.6004 226.511C85.6688 226.641 85.7611 226.762 85.8773 226.873C85.9935 226.982 86.1222 227.082 86.2635 227.174C86.4048 227.266 86.5472 227.35 86.6907 227.426L87.3469 227.781C87.6113 227.92 87.8653 228.078 88.1091 228.255C88.3552 228.434 88.5751 228.633 88.7688 228.853C88.9647 229.074 89.1196 229.318 89.2336 229.584C89.3475 229.851 89.4045 230.142 89.4045 230.457C89.4045 230.883 89.2997 231.228 89.09 231.494C88.8804 231.756 88.5774 231.923 88.1809 231.994C87.7867 232.062 87.3093 232.018 86.7488 231.86C86.2043 231.706 85.7315 231.485 85.3304 231.197C84.9317 230.909 84.6195 230.565 84.394 230.166C84.1707 229.766 84.0499 229.323 84.0317 228.835L85.2792 229.187C85.2974 229.445 85.3726 229.677 85.5047 229.882C85.6369 230.088 85.8089 230.262 86.0208 230.404C86.235 230.547 86.4743 230.656 86.7386 230.731C87.0143 230.809 87.2558 230.834 87.4632 230.807C87.6728 230.779 87.8368 230.705 87.9553 230.584C88.0738 230.461 88.1342 230.296 88.1365 230.088C88.1342 229.898 88.0806 229.727 87.9758 229.574C87.871 229.419 87.724 229.274 87.5349 229.137C87.3481 228.999 87.1293 228.862 86.8787 228.725L86.0824 228.287C85.5059 227.971 85.0502 227.609 84.7152 227.202C84.3826 226.794 84.2162 226.329 84.2162 225.808C84.2162 225.379 84.3279 225.036 84.5512 224.777C84.7768 224.518 85.0832 224.355 85.4706 224.287C85.8579 224.216 86.2965 224.25 86.7864 224.388C87.2831 224.528 87.7183 224.741 88.092 225.026C88.468 225.31 88.7631 225.64 88.9772 226.018C89.1914 226.393 89.3019 226.787 89.3088 227.198L88.0886 226.854ZM92.8043 233.564C92.278 233.415 91.8234 233.174 91.4406 232.838C91.0601 232.501 90.7673 232.094 90.5623 231.618C90.3572 231.138 90.2546 230.613 90.2546 230.043C90.2546 229.482 90.3572 229.018 90.5623 228.652C90.7696 228.285 91.059 228.035 91.4304 227.903C91.8018 227.769 92.2381 227.772 92.7394 227.913C93.0629 228.005 93.3683 228.145 93.6554 228.335C93.9447 228.523 94.1999 228.761 94.421 229.048C94.6443 229.336 94.8197 229.672 94.9473 230.056C95.0749 230.438 95.1387 230.868 95.1387 231.346V231.74L90.8357 230.526V229.66L93.9527 230.539C93.9504 230.292 93.8992 230.059 93.7989 229.839C93.6987 229.616 93.5585 229.424 93.3785 229.262C93.2008 229.101 92.9935 228.986 92.7565 228.92C92.5036 228.848 92.2814 228.85 92.09 228.923C91.8986 228.995 91.7494 229.119 91.6423 229.294C91.5375 229.468 91.4839 229.677 91.4816 229.92V230.677C91.4816 230.994 91.5375 231.282 91.6491 231.541C91.7608 231.797 91.9168 232.014 92.1174 232.191C92.3179 232.366 92.5526 232.491 92.8214 232.567C93.0014 232.618 93.1643 232.638 93.3102 232.627C93.456 232.614 93.5825 232.57 93.6895 232.496C93.7966 232.422 93.8775 232.316 93.9322 232.177L95.0874 232.638C95.0145 232.935 94.8755 233.173 94.6705 233.351C94.4677 233.529 94.2079 233.638 93.8912 233.679C93.5745 233.717 93.2122 233.679 92.8043 233.564ZM97.4226 227.487V234.76L96.1854 234.411V227.138L97.4226 227.487ZM99.9322 228.195V235.468L98.6949 235.119V227.846L99.9322 228.195Z" fill="#9199B1"/>
<g opacity="0.84">
<g opacity="0.3" filter="url(#filter14_f_104_15911)">
<rect width="227" height="27.9713" rx="8.15974" transform="matrix(0.962455 0.27144 0 1 14.7344 347.003)" fill="url(#paint5_linear_104_15911)"/>
</g>
</g>
<rect width="226.629" height="27.9713" rx="4.07987" transform="matrix(0.962455 0.27144 0 1 6 353.448)" fill="#00632B"/>
<path d="M88.054 395.589V385.204L91.7144 386.236C92.4237 386.436 93.011 386.724 93.4762 387.098C93.9415 387.47 94.2897 387.894 94.5207 388.372C94.7517 388.846 94.8672 389.34 94.8672 389.854C94.8672 390.286 94.7907 390.63 94.6378 390.884C94.4849 391.135 94.2799 391.314 94.0229 391.421C93.7691 391.525 93.4893 391.575 93.1834 391.569V391.671C93.5153 391.781 93.839 391.984 94.1546 392.279C94.4735 392.572 94.737 392.936 94.9453 393.369C95.1535 393.803 95.2576 394.289 95.2576 394.827C95.2576 395.357 95.1372 395.8 94.8965 396.155C94.6589 396.507 94.2913 396.736 93.7935 396.843C93.2957 396.946 92.6596 396.888 91.8852 396.67L88.054 395.589ZM89.5621 394.671L91.7388 395.285C92.4611 395.488 92.9784 395.489 93.2908 395.286C93.6031 395.084 93.7593 394.764 93.7593 394.328C93.7593 394 93.6796 393.677 93.5202 393.358C93.3607 393.039 93.133 392.757 92.8369 392.511C92.5441 392.266 92.1959 392.087 91.7925 391.973L89.5621 391.344V394.671ZM89.5621 390.122L91.5826 390.692C91.921 390.787 92.2252 390.806 92.4953 390.747C92.7686 390.688 92.9849 390.56 93.1444 390.362C93.3071 390.161 93.3884 389.893 93.3884 389.558C93.3884 389.129 93.2436 388.728 92.954 388.356C92.6645 387.983 92.2203 387.713 91.6217 387.544L89.5621 386.963V390.122ZM101.678 396.201V391.643L103.142 392.056V399.844L101.707 399.44V398.091L101.629 398.069C101.457 398.436 101.18 398.705 100.799 398.874C100.422 399.042 99.9518 399.046 99.3889 398.887C98.9074 398.752 98.4812 398.521 98.1103 398.197C97.7426 397.87 97.453 397.459 97.2415 396.963C97.0333 396.468 96.9292 395.9 96.9292 395.258V390.303L98.3884 390.715V395.487C98.3884 396.017 98.53 396.48 98.813 396.874C99.0961 397.268 99.4638 397.529 99.916 397.657C100.189 397.734 100.461 397.739 100.731 397.674C101.004 397.609 101.231 397.458 101.409 397.221C101.592 396.985 101.681 396.645 101.678 396.201ZM106.025 403.578C105.807 403.517 105.609 403.442 105.43 403.355C105.251 403.27 105.117 403.196 105.03 403.13L105.381 401.987C105.648 402.137 105.885 402.236 106.093 402.284C106.302 402.333 106.486 402.304 106.645 402.196C106.808 402.09 106.951 401.882 107.074 401.572L107.255 401.106L104.512 392.442L106.074 392.882L107.972 399.462L108.051 399.484L109.949 393.975L111.516 394.417L108.426 402.374C108.283 402.74 108.101 403.031 107.88 403.249C107.659 403.471 107.395 403.61 107.089 403.665C106.783 403.721 106.429 403.692 106.025 403.578ZM116.641 403.652V393.267L120.302 394.299C121.011 394.499 121.598 394.786 122.064 395.161C122.529 395.532 122.877 395.956 123.108 396.434C123.339 396.908 123.455 397.402 123.455 397.916C123.455 398.349 123.378 398.692 123.225 398.947C123.072 399.198 122.867 399.377 122.61 399.483C122.356 399.587 122.077 399.637 121.771 399.632V399.733C122.103 399.844 122.426 400.047 122.742 400.342C123.061 400.635 123.324 400.998 123.533 401.432C123.741 401.866 123.845 402.352 123.845 402.889C123.845 403.42 123.725 403.863 123.484 404.217C123.246 404.57 122.879 404.799 122.381 404.905C121.883 405.008 121.247 404.951 120.473 404.732L116.641 403.652ZM118.149 402.733L120.326 403.347C121.048 403.551 121.566 403.551 121.878 403.349C122.191 403.146 122.347 402.827 122.347 402.391C122.347 402.063 122.267 401.739 122.108 401.421C121.948 401.102 121.72 400.819 121.424 400.574C121.131 400.329 120.783 400.149 120.38 400.036L118.149 399.407V402.733ZM118.149 398.185L120.17 398.754C120.508 398.85 120.813 398.868 121.083 398.809C121.356 398.751 121.572 398.623 121.732 398.424C121.894 398.223 121.976 397.955 121.976 397.621C121.976 397.191 121.831 396.791 121.541 396.418C121.252 396.046 120.808 395.775 120.209 395.606L118.149 395.025V398.185ZM125.141 397.012V395.664L132.876 397.845V399.194L129.758 398.315V407.351L128.255 406.927V397.891L125.141 397.012ZM142.458 403.925L140.935 403.495C140.877 403.141 140.768 402.812 140.608 402.511C140.449 402.209 140.254 401.936 140.023 401.691C139.792 401.447 139.533 401.239 139.247 401.067C138.963 400.896 138.663 400.765 138.344 400.675C137.768 400.513 137.252 400.518 136.797 400.69C136.344 400.863 135.986 401.204 135.723 401.711C135.463 402.219 135.332 402.892 135.332 403.73C135.332 404.576 135.463 405.326 135.723 405.98C135.986 406.636 136.346 407.177 136.801 407.603C137.257 408.029 137.769 408.322 138.339 408.483C138.654 408.572 138.954 408.612 139.237 408.604C139.523 408.594 139.782 408.533 140.013 408.423C140.244 408.312 140.439 408.152 140.598 407.944C140.761 407.733 140.873 407.47 140.935 407.156L142.458 407.591C142.377 408.078 142.219 408.504 141.985 408.867C141.754 409.228 141.456 409.512 141.091 409.721C140.73 409.926 140.317 410.048 139.852 410.086C139.386 410.124 138.879 410.065 138.329 409.91C137.464 409.666 136.692 409.236 136.016 408.619C135.339 407.999 134.805 407.235 134.415 406.327C134.028 405.42 133.834 404.413 133.834 403.308C133.834 402.199 134.029 401.302 134.42 400.618C134.81 399.93 135.344 399.469 136.021 399.234C136.697 398.996 137.467 398.998 138.329 399.241C138.859 399.391 139.354 399.61 139.813 399.898C140.275 400.184 140.69 400.531 141.057 400.938C141.425 401.343 141.729 401.797 141.97 402.301C142.211 402.802 142.373 403.343 142.458 403.925Z" fill="#E8FCF1"/>
<path d="M37.0674 200.168C37.0674 197.915 38.8254 196.584 40.9941 197.196L74.3638 206.607V243.326L40.9941 233.915C38.8254 233.303 37.0674 230.981 37.0674 228.727V200.168Z" fill="#E8FCF1"/>
<path d="M74.8556 207.255L107.735 216.528C109.632 217.063 111.17 219.095 111.17 221.067V249.626C111.17 251.598 109.632 252.762 107.735 252.227L74.8556 242.954V207.255Z" stroke="#DBDDE5" stroke-width="1.01997"/>
<path d="M48.0676 221.711V214.439L50.7472 215.194C51.253 215.337 51.6734 215.538 52.0084 215.799C52.3456 216.057 52.5974 216.352 52.7637 216.683C52.9323 217.014 53.0166 217.36 53.0166 217.72C53.0166 218.016 52.9619 218.254 52.8526 218.434C52.7432 218.611 52.5962 218.739 52.4117 218.817C52.2271 218.895 52.0209 218.931 51.793 218.923V218.994C52.0414 219.078 52.2795 219.225 52.5074 219.434C52.7375 219.641 52.9255 219.895 53.0713 220.196C53.2171 220.498 53.29 220.833 53.29 221.203C53.29 221.579 53.2023 221.893 53.0269 222.144C52.8514 222.393 52.5871 222.554 52.2339 222.627C51.8808 222.7 51.4364 222.661 50.901 222.51L48.0676 221.711ZM49.3356 220.968L50.6993 221.353C51.1596 221.482 51.4911 221.485 51.6939 221.36C51.899 221.233 52.0015 221.025 52.0015 220.736C52.0015 220.521 51.9503 220.312 51.8477 220.11C51.7452 219.906 51.5994 219.728 51.4102 219.575C51.2211 219.42 50.9955 219.305 50.7335 219.232L49.3356 218.837V220.968ZM49.3356 217.889L50.59 218.243C50.8087 218.305 51.0058 218.319 51.1813 218.285C51.3567 218.25 51.4945 218.169 51.5948 218.043C51.6973 217.916 51.7486 217.746 51.7486 217.533C51.7486 217.251 51.6529 216.992 51.4615 216.756C51.2724 216.52 50.991 216.35 50.6173 216.244L49.3356 215.883V217.889ZM57.6845 222.129V218.969L58.9217 219.318V224.772L57.7221 224.434V223.465L57.6674 223.449C57.5489 223.721 57.3541 223.916 57.083 224.034C56.8141 224.152 56.4826 224.156 56.0884 224.044C55.7443 223.947 55.4401 223.782 55.1758 223.549C54.9138 223.314 54.7087 223.023 54.5606 222.676C54.4125 222.326 54.3385 221.934 54.3385 221.498V218.025L55.5757 218.374V221.648C55.5757 221.994 55.6668 222.294 55.8491 222.549C56.0314 222.804 56.2707 222.974 56.5669 223.057C56.7491 223.109 56.9257 223.112 57.0966 223.068C57.2675 223.024 57.4076 222.926 57.517 222.775C57.6287 222.622 57.6845 222.406 57.6845 222.129ZM60.963 227.394C60.7944 227.346 60.6383 227.288 60.4948 227.219C60.3535 227.153 60.2407 227.09 60.1564 227.031L60.4435 226.111C60.6235 226.216 60.7842 226.287 60.9254 226.325C61.0667 226.362 61.1909 226.351 61.298 226.291C61.4073 226.235 61.4996 226.114 61.5748 225.929L61.6808 225.664L59.777 219.559L61.0895 219.929L62.2994 224.39L62.3541 224.405L63.5674 220.628L64.8833 220.999L62.7813 226.521C62.6833 226.783 62.5534 226.993 62.3917 227.154C62.2299 227.316 62.0317 227.419 61.797 227.462C61.5646 227.508 61.2866 227.485 60.963 227.394Z" fill="#00632B"/>
<g filter="url(#filter15_d_104_15911)">
<g clip-path="url(#clip3_104_15911)">
<rect width="62.0464" height="26.5624" rx="6.1198" transform="matrix(0.962455 0.27144 0 1 172 226)" fill="white"/>
</g>
<rect x="0.490836" y="0.648414" width="61.0264" height="25.5425" rx="5.60982" transform="matrix(0.962455 0.27144 0 1 172.018 225.867)" stroke="#E1E3E7" stroke-width="1.01997"/>
</g>
<path d="M185 247.807V237L186.259 237.355V247.001L191.094 248.365V249.525L185 247.807Z" fill="#5A6689"/>
<path d="M192.882 250.03V241.925L194.08 242.263V250.368L192.882 250.03ZM193.491 240.746C193.258 240.68 193.056 240.54 192.887 240.327C192.721 240.115 192.638 239.893 192.638 239.661C192.638 239.429 192.721 239.253 192.887 239.135C193.056 239.017 193.258 238.991 193.491 239.057C193.725 239.123 193.925 239.262 194.091 239.474C194.26 239.687 194.345 239.91 194.345 240.142C194.345 240.374 194.26 240.549 194.091 240.667C193.925 240.785 193.725 240.812 193.491 240.746Z" fill="#5A6689"/>
<path d="M196.276 250.987V242.882L197.434 243.208V244.475L197.535 244.503C197.698 244.116 197.96 243.855 198.322 243.717C198.685 243.577 199.12 243.578 199.628 243.722C200.142 243.867 200.57 244.109 200.912 244.448C201.258 244.785 201.527 245.196 201.72 245.684L201.801 245.706C202.001 245.344 202.301 245.096 202.7 244.963C203.1 244.826 203.579 244.836 204.137 244.993C204.835 245.19 205.405 245.578 205.849 246.157C206.292 246.732 206.514 247.496 206.514 248.45V253.874L205.316 253.536V248.112C205.316 247.514 205.158 247.042 204.843 246.696C204.528 246.351 204.158 246.118 203.731 245.997C203.183 245.843 202.758 245.895 202.456 246.155C202.155 246.411 202.004 246.802 202.004 247.326V252.602L200.785 252.259V246.708C200.785 246.247 200.642 245.835 200.354 245.472C200.066 245.106 199.695 244.859 199.242 244.731C198.93 244.643 198.639 244.648 198.368 244.744C198.101 244.84 197.884 245.019 197.718 245.278C197.555 245.534 197.474 245.862 197.474 246.259V251.325L196.276 250.987Z" fill="#5A6689"/>
<path d="M208.705 254.492V246.387L209.904 246.725V254.83L208.705 254.492ZM209.315 245.208C209.081 245.142 208.88 245.003 208.711 244.79C208.545 244.578 208.462 244.356 208.462 244.123C208.462 243.891 208.545 243.716 208.711 243.597C208.88 243.48 209.081 243.454 209.315 243.52C209.548 243.586 209.748 243.725 209.914 243.937C210.083 244.15 210.168 244.373 210.168 244.605C210.168 244.837 210.083 245.012 209.914 245.129C209.748 245.248 209.548 245.274 209.315 245.208Z" fill="#5A6689"/>
<path d="M215.492 248.301V249.357L211.449 248.216V247.161L215.492 248.301ZM212.627 245.552L213.826 245.89V253.615C213.826 253.966 213.875 254.244 213.973 254.448C214.075 254.649 214.203 254.801 214.359 254.905C214.518 255.006 214.686 255.081 214.862 255.131C214.994 255.168 215.102 255.192 215.187 255.202C215.272 255.208 215.339 255.213 215.39 255.217L215.634 256.404C215.553 256.413 215.439 256.412 215.294 256.403C215.148 256.397 214.963 256.363 214.74 256.3C214.401 256.204 214.07 256.035 213.745 255.792C213.423 255.55 213.156 255.244 212.942 254.875C212.732 254.506 212.627 254.086 212.627 253.614V245.552Z" fill="#5A6689"/>
<path d="M374.887 380.68C374.279 383.108 370.5 381.875 369.325 381.542L370.402 377.272C371.616 377.625 375.513 378.134 374.887 380.68ZM368.796 383.735L367.621 388.455C369.07 388.827 373.555 390.256 374.221 387.593C374.926 384.812 370.245 384.087 368.796 383.735ZM389.496 388.239C386.872 398.736 376.257 405.12 365.761 402.496C355.264 399.872 348.886 389.257 351.504 378.761C354.128 368.264 364.742 361.888 375.239 364.504C385.716 367.128 392.1 377.742 389.496 388.239ZM374.828 375.765L375.709 372.24L373.555 371.75L372.693 375.138C372.125 375.001 371.557 374.864 370.97 374.746L371.832 371.28L369.697 370.771L368.816 374.276C368.346 374.159 367.876 374.061 367.445 373.943L364.488 373.199L363.9 375.49C363.9 375.49 365.506 375.862 365.467 375.882C366.348 376.097 366.505 376.646 366.466 377.135L364.057 386.79C363.959 387.064 363.646 387.417 363.078 387.319C363.097 387.338 361.511 386.927 361.511 386.927L360.454 389.375L363.234 390.08C363.763 390.217 364.272 390.354 364.782 390.472L363.881 394.036L366.035 394.584L366.916 391.04C367.504 391.196 368.072 391.333 368.62 391.49L367.739 394.995L369.893 395.544L370.794 391.98C374.417 392.665 377.197 392.391 378.333 389.081C379.312 386.437 378.333 384.871 376.375 383.872C377.785 383.5 378.842 382.619 379.136 380.7C379.528 378.095 377.53 376.705 374.828 375.765Z" fill="#0066FF"/>
<circle cx="35" cy="31" r="20" fill="#0066FF"/>
<path d="M36.4315 20.2346L28.5168 30.8456L34.8295 35.5888L41.9853 32.2509L36.4315 20.2346ZM28.3763 32.1924L34.1268 42.3231L41.8448 33.5977L34.6889 36.9356L28.3763 32.1924Z" fill="white"/>
<circle cx="457" cy="128" r="20" fill="#0066FF"/>
<path fill-rule="evenodd" clip-rule="evenodd" d="M458.432 129.214V129.212C458.324 129.22 457.766 129.257 456.522 129.257C455.528 129.257 454.829 129.225 454.583 129.212V129.215C450.758 129.032 447.904 128.309 447.904 127.444C447.904 126.58 450.758 125.857 454.583 125.672V128.495C454.833 128.514 455.549 128.56 456.538 128.56C457.726 128.56 458.321 128.507 458.432 128.496V125.674C462.248 125.858 465.096 126.581 465.096 127.444C465.096 128.309 462.248 129.03 458.432 129.214ZM458.432 125.38V122.853H463.757V119H449.257V122.853H454.583V125.379C450.255 125.595 447 126.526 447 127.641C447 128.756 450.255 129.686 454.583 129.903V138H458.432V129.901C462.753 129.685 466 128.755 466 127.641C466 126.527 462.753 125.597 458.432 125.38Z" fill="white"/>
<defs>
<filter id="filter0_b_104_15911" x="332" y="344" width="78" height="78" filterUnits="userSpaceOnUse" color-interpolation-filters="sRGB">
<feFlood flood-opacity="0" result="BackgroundImageFix"/>
<feGaussianBlur in="BackgroundImageFix" stdDeviation="5"/>
<feComposite in2="SourceAlpha" operator="in" result="effect1_backgroundBlur_104_15911"/>
<feBlend mode="normal" in="SourceGraphic" in2="effect1_backgroundBlur_104_15911" result="shape"/>
</filter>
<filter id="filter1_b_104_15911" x="418" y="88" width="78" height="78" filterUnits="userSpaceOnUse" color-interpolation-filters="sRGB">
<feFlood flood-opacity="0" result="BackgroundImageFix"/>
<feGaussianBlur in="BackgroundImageFix" stdDeviation="5"/>
<feComposite in2="SourceAlpha" operator="in" result="effect1_backgroundBlur_104_15911"/>
<feBlend mode="normal" in="SourceGraphic" in2="effect1_backgroundBlur_104_15911" result="shape"/>
</filter>
<filter id="filter2_b_104_15911" x="-4" y="-10" width="78" height="78" filterUnits="userSpaceOnUse" color-interpolation-filters="sRGB">
<feFlood flood-opacity="0" result="BackgroundImageFix"/>
<feGaussianBlur in="BackgroundImageFix" stdDeviation="5"/>
<feComposite in2="SourceAlpha" operator="in" result="effect1_backgroundBlur_104_15911"/>
<feBlend mode="normal" in="SourceGraphic" in2="effect1_backgroundBlur_104_15911" result="shape"/>
</filter>
<filter id="filter3_dd_104_15911" x="106.371" y="14.5943" width="286.063" height="306.538" filterUnits="userSpaceOnUse" color-interpolation-filters="sRGB">
<feFlood flood-opacity="0" result="BackgroundImageFix"/>
<feColorMatrix in="SourceAlpha" type="matrix" values="0 0 0 0 0 0 0 0 0 0 0 0 0 0 0 0 0 0 127 0" result="hardAlpha"/>
<feMorphology radius="2.40568" operator="erode" in="SourceAlpha" result="effect1_dropShadow_104_15911"/>
<feOffset dy="4.81136"/>
<feGaussianBlur stdDeviation="3.60852"/>
<feColorMatrix type="matrix" values="0 0 0 0 0 0 0 0 0 0 0 0 0 0 0 0 0 0 0.05 0"/>
<feBlend mode="normal" in2="BackgroundImageFix" result="effect1_dropShadow_104_15911"/>
<feColorMatrix in="SourceAlpha" type="matrix" values="0 0 0 0 0 0 0 0 0 0 0 0 0 0 0 0 0 0 127 0" result="hardAlpha"/>
<feMorphology radius="3.60852" operator="erode" in="SourceAlpha" result="effect2_dropShadow_104_15911"/>
<feOffset dy="12.0284"/>
<feGaussianBlur stdDeviation="9.0213"/>
<feColorMatrix type="matrix" values="0 0 0 0 0 0 0 0 0 0 0 0 0 0 0 0 0 0 0.1 0"/>
<feBlend mode="normal" in2="effect1_dropShadow_104_15911" result="effect2_dropShadow_104_15911"/>
<feBlend mode="normal" in="SourceGraphic" in2="effect2_dropShadow_104_15911" result="shape"/>
</filter>
<filter id="filter4_d_104_15911" x="125.594" y="159.797" width="208.953" height="97.8209" filterUnits="userSpaceOnUse" color-interpolation-filters="sRGB">
<feFlood flood-opacity="0" result="BackgroundImageFix"/>
<feColorMatrix in="SourceAlpha" type="matrix" values="0 0 0 0 0 0 0 0 0 0 0 0 0 0 0 0 0 0 127 0" result="hardAlpha"/>
<feOffset dy="1.20284"/>
<feGaussianBlur stdDeviation="1.20284"/>
<feColorMatrix type="matrix" values="0 0 0 0 0 0 0 0 0 0 0 0 0 0 0 0 0 0 0.05 0"/>
<feBlend mode="normal" in2="BackgroundImageFix" result="effect1_dropShadow_104_15911"/>
<feBlend mode="normal" in="SourceGraphic" in2="effect1_dropShadow_104_15911" result="shape"/>
</filter>
<filter id="filter5_f_104_15911" x="121.8" y="61.9855" width="239.565" height="131.577" filterUnits="userSpaceOnUse" color-interpolation-filters="sRGB">
<feFlood flood-opacity="0" result="BackgroundImageFix"/>
<feBlend mode="normal" in="SourceGraphic" in2="BackgroundImageFix" result="shape"/>
<feGaussianBlur stdDeviation="9.0213" result="effect1_foregroundBlur_104_15911"/>
</filter>
<filter id="filter6_b_104_15911" x="-16.4568" y="138.044" width="314.438" height="352.532" filterUnits="userSpaceOnUse" color-interpolation-filters="sRGB">
<feFlood flood-opacity="0" result="BackgroundImageFix"/>
<feGaussianBlur in="BackgroundImageFix" stdDeviation="16.8295"/>
<feComposite in2="SourceAlpha" operator="in" result="effect1_backgroundBlur_104_15911"/>
<feBlend mode="normal" in="SourceGraphic" in2="effect1_backgroundBlur_104_15911" result="shape"/>
</filter>
<filter id="filter7_b_104_15911" x="-6.53391" y="127.216" width="314.438" height="352.532" filterUnits="userSpaceOnUse" color-interpolation-filters="sRGB">
<feFlood flood-opacity="0" result="BackgroundImageFix"/>
<feGaussianBlur in="BackgroundImageFix" stdDeviation="16.8295"/>
<feComposite in2="SourceAlpha" operator="in" result="effect1_backgroundBlur_104_15911"/>
<feBlend mode="normal" in="SourceGraphic" in2="effect1_backgroundBlur_104_15911" result="shape"/>
</filter>
<filter id="filter8_d_104_15911" x="30.6427" y="229.357" width="329.995" height="132.716" filterUnits="userSpaceOnUse" color-interpolation-filters="sRGB">
<feFlood flood-opacity="0" result="BackgroundImageFix"/>
<feColorMatrix in="SourceAlpha" type="matrix" values="0 0 0 0 0 0 0 0 0 0 0 0 0 0 0 0 0 0 127 0" result="hardAlpha"/>
<feOffset dy="1.01997"/>
<feGaussianBlur stdDeviation="1.01997"/>
<feColorMatrix type="matrix" values="0 0 0 0 0 0 0 0 0 0 0 0 0 0 0 0 0 0 0.1 0"/>
<feBlend mode="normal" in2="BackgroundImageFix" result="effect1_dropShadow_104_15911"/>
<feBlend mode="normal" in="SourceGraphic" in2="effect1_dropShadow_104_15911" result="shape"/>
</filter>
<filter id="filter9_f_104_15911" x="22.4829" y="222.095" width="262.873" height="122.299" filterUnits="userSpaceOnUse" color-interpolation-filters="sRGB">
<feFlood flood-opacity="0" result="BackgroundImageFix"/>
<feBlend mode="normal" in="SourceGraphic" in2="BackgroundImageFix" result="shape"/>
<feGaussianBlur stdDeviation="5.09983" result="effect1_foregroundBlur_104_15911"/>
</filter>
<filter id="filter10_d_104_15911" x="30.6427" y="275.012" width="329.995" height="132.716" filterUnits="userSpaceOnUse" color-interpolation-filters="sRGB">
<feFlood flood-opacity="0" result="BackgroundImageFix"/>
<feColorMatrix in="SourceAlpha" type="matrix" values="0 0 0 0 0 0 0 0 0 0 0 0 0 0 0 0 0 0 127 0" result="hardAlpha"/>
<feOffset dy="1.01997"/>
<feGaussianBlur stdDeviation="1.01997"/>
<feColorMatrix type="matrix" values="0 0 0 0 0 0 0 0 0 0 0 0 0 0 0 0 0 0 0.1 0"/>
<feBlend mode="normal" in2="BackgroundImageFix" result="effect1_dropShadow_104_15911"/>
<feBlend mode="normal" in="SourceGraphic" in2="effect1_dropShadow_104_15911" result="shape"/>
</filter>
<filter id="filter11_f_104_15911" x="22.4829" y="277.347" width="258.19" height="110.8" filterUnits="userSpaceOnUse" color-interpolation-filters="sRGB">
<feFlood flood-opacity="0" result="BackgroundImageFix"/>
<feBlend mode="normal" in="SourceGraphic" in2="BackgroundImageFix" result="shape"/>
<feGaussianBlur stdDeviation="5.09983" result="effect1_foregroundBlur_104_15911"/>
</filter>
<filter id="filter12_d_104_15911" x="0.209089" y="237.291" width="270.304" height="114.923" filterUnits="userSpaceOnUse" color-interpolation-filters="sRGB">
<feFlood flood-opacity="0" result="BackgroundImageFix"/>
<feColorMatrix in="SourceAlpha" type="matrix" values="0 0 0 0 0 0 0 0 0 0 0 0 0 0 0 0 0 0 127 0" result="hardAlpha"/>
<feOffset dy="1.01997"/>
<feGaussianBlur stdDeviation="1.01997"/>
<feColorMatrix type="matrix" values="0 0 0 0 0 0 0 0 0 0 0 0 0 0 0 0 0 0 0.1 0"/>
<feBlend mode="normal" in2="BackgroundImageFix" result="effect1_dropShadow_104_15911"/>
<feBlend mode="normal" in="SourceGraphic" in2="effect1_dropShadow_104_15911" result="shape"/>
</filter>
<filter id="filter13_d_104_15911" x="6.4337" y="281.771" width="264.304" height="113.231" filterUnits="userSpaceOnUse" color-interpolation-filters="sRGB">
<feFlood flood-opacity="0" result="BackgroundImageFix"/>
<feColorMatrix in="SourceAlpha" type="matrix" values="0 0 0 0 0 0 0 0 0 0 0 0 0 0 0 0 0 0 127 0" result="hardAlpha"/>
<feOffset dy="1.01997"/>
<feGaussianBlur stdDeviation="1.01997"/>
<feColorMatrix type="matrix" values="0 0 0 0 0 0 0 0 0 0 0 0 0 0 0 0 0 0 0.1 0"/>
<feBlend mode="normal" in2="BackgroundImageFix" result="effect1_dropShadow_104_15911"/>
<feBlend mode="normal" in="SourceGraphic" in2="effect1_dropShadow_104_15911" result="shape"/>
</filter>
<filter id="filter14_f_104_15911" x="11.6745" y="345.861" width="224.597" height="91.8732" filterUnits="userSpaceOnUse" color-interpolation-filters="sRGB">
<feFlood flood-opacity="0" result="BackgroundImageFix"/>
<feBlend mode="normal" in="SourceGraphic" in2="BackgroundImageFix" result="shape"/>
<feGaussianBlur stdDeviation="1.52995" result="effect1_foregroundBlur_104_15911"/>
</filter>
<filter id="filter15_d_104_15911" x="169.96" y="224.98" width="63.7967" height="47.4842" filterUnits="userSpaceOnUse" color-interpolation-filters="sRGB">
<feFlood flood-opacity="0" result="BackgroundImageFix"/>
<feColorMatrix in="SourceAlpha" type="matrix" values="0 0 0 0 0 0 0 0 0 0 0 0 0 0 0 0 0 0 127 0" result="hardAlpha"/>
<feOffset dy="1.01997"/>
<feGaussianBlur stdDeviation="1.01997"/>
<feColorMatrix type="matrix" values="0 0 0 0 0 0 0 0 0 0 0 0 0 0 0 0 0 0 0.05 0"/>
<feBlend mode="normal" in2="BackgroundImageFix" result="effect1_dropShadow_104_15911"/>
<feBlend mode="normal" in="SourceGraphic" in2="effect1_dropShadow_104_15911" result="shape"/>
</filter>
<radialGradient id="paint0_radial_104_15911" cx="0" cy="0" r="1" gradientUnits="userSpaceOnUse" gradientTransform="translate(152.165 -12.4013) rotate(100.787) scale(355.447 724.634)">
<stop offset="0.292998" stop-color="white"/>
<stop offset="0.872345" stop-color="white" stop-opacity="0"/>
</radialGradient>
<radialGradient id="paint1_radial_104_15911" cx="0" cy="0" r="1" gradientUnits="userSpaceOnUse" gradientTransform="translate(128.445 -23.7068) rotate(90) scale(422.713 494.798)">
<stop offset="0.327218" stop-color="white"/>
<stop offset="0.791512" stop-color="white" stop-opacity="0"/>
</radialGradient>
<radialGradient id="paint2_radial_104_15911" cx="0" cy="0" r="1" gradientUnits="userSpaceOnUse" gradientTransform="translate(128.445 -23.7068) rotate(90) scale(422.713 494.798)">
<stop offset="0.327218" stop-color="white"/>
<stop offset="0.791512" stop-color="white" stop-opacity="0"/>
</radialGradient>
<linearGradient id="paint3_linear_104_15911" x1="4.18983e-08" y1="26.4563" x2="265.707" y2="-7.47955" gradientUnits="userSpaceOnUse">
<stop stop-color="#319CFF"/>
<stop offset="0.444301" stop-color="#B7DCFF"/>
<stop offset="0.916667" stop-color="#0B86F8"/>
</linearGradient>
<linearGradient id="paint4_linear_104_15911" x1="4.10891e-08" y1="19.2468" x2="257.202" y2="-25.0357" gradientUnits="userSpaceOnUse">
<stop stop-color="#319CFF"/>
<stop offset="0.444301" stop-color="#B7DCFF"/>
<stop offset="0.916667" stop-color="#0B86F8"/>
</linearGradient>
<linearGradient id="paint5_linear_104_15911" x1="3.77518e-08" y1="19.813" x2="237.704" y2="-16.7138" gradientUnits="userSpaceOnUse">
<stop stop-color="#319CFF"/>
<stop offset="0.444301" stop-color="#B7DCFF"/>
<stop offset="0.916667" stop-color="#0B86F8"/>
</linearGradient>
<clipPath id="clip0_104_15911">
<rect width="266.268" height="208.754" rx="9.62272" transform="matrix(0.965926 0.258819 0 1 120.805 17)" fill="white"/>
</clipPath>
<clipPath id="clip1_104_15911">
<rect width="211.343" height="38.3099" rx="7.21704" transform="matrix(0.965926 0.258819 0 1 128 161)" fill="white"/>
</clipPath>
<clipPath id="clip2_104_15911">
<rect width="221.745" height="40.1956" rx="7.21704" transform="matrix(0.965926 0.258819 0 1 84 77.7285)" fill="white"/>
</clipPath>
<clipPath id="clip3_104_15911">
<rect width="62.0464" height="26.5624" rx="6.1198" transform="matrix(0.962455 0.27144 0 1 172 226)" fill="white"/>
</clipPath>
</defs>
</svg>
