<svg width="446" height="379" viewBox="0 0 446 379" fill="none" xmlns="http://www.w3.org/2000/svg">
<g opacity="0.3">
<path d="M384.17 17.6874C384.17 26.1814 391.056 33.0672 399.55 33.0672C408.044 33.0672 414.93 26.1814 414.93 17.6874C414.93 9.19338 408.044 2.30762 399.55 2.30762C391.056 2.30762 384.17 9.19338 384.17 17.6874Z" fill="#DECAAF"/>
<rect width="109.196" height="39.2184" rx="5.80298" transform="matrix(-1 0 0 1 375.711 0)" fill="#DECAAF"/>
<rect width="144.57" height="41.5254" rx="5.80298" transform="matrix(-1 0 0 1 375.711 47.6777)" fill="#DECAAF"/>
<path d="M361.101 13.8428H284.971M361.101 26.1466H317.21" stroke="#F5F5F5" stroke-width="7.7373" stroke-linecap="round"/>
<path d="M361.101 62.2888H251.905M361.101 74.5926H278.05" stroke="#F5F5F5" stroke-width="7.7373" stroke-linecap="round"/>
</g>
<g filter="url(#filter0_d_104_16983)">
<rect x="27" y="35.1743" width="319.087" height="174.619" rx="9.45938" fill="#0066FF"/>
</g>
<g filter="url(#filter1_d_104_16983)">
<circle cx="95.1514" cy="38.6294" r="26.6953" fill="#FCFCFC"/>
</g>
<path d="M91.7874 29.5432L82 46.1881L89.7124 54.9998L92.613 54.9998L96.8534 50.0644L92.1418 50.0644L87.9877 45.444L94.6429 34.1253L91.7874 29.5432Z" fill="#0066FF"/>
<path d="M95.7548 39.0141C95.768 39.0141 95.7893 39.051 95.8133 39.1073L95.8508 39.2042C95.8572 39.222 95.8636 39.2405 95.8699 39.2594L95.9064 39.3755C95.9121 39.3949 95.9176 39.4142 95.9228 39.433L95.9494 39.5388C95.9602 39.5869 95.9667 39.6264 95.9667 39.6498L95.9656 39.6717C96.0829 39.6967 96.1903 39.7422 96.2863 39.8036C96.2899 39.7769 96.2986 39.7505 96.3129 39.7257C96.3285 39.6987 96.3684 39.6527 96.4193 39.6002L96.5023 39.5183L96.5919 39.436L96.6782 39.3628C96.746 39.3082 96.7999 39.2728 96.8143 39.2811C96.8315 39.291 96.8228 39.3819 96.8024 39.4937L96.7787 39.6104L96.7503 39.7279L96.7205 39.8328C96.7058 39.8799 96.6916 39.9173 96.6799 39.9376C96.6495 39.9903 96.5998 40.025 96.5449 40.038C96.7175 40.254 96.8143 40.5353 96.8143 40.8153C96.8143 40.9836 96.7818 41.1456 96.7218 41.293C96.6932 41.3631 96.648 41.4215 96.5925 41.4654L96.5491 41.4955L96.5567 41.497C96.9309 41.5719 97.2061 41.8863 97.2355 42.2614L97.2381 42.3282L97.2381 43.0766L97.3622 42.9525C97.5277 42.787 97.7961 42.787 97.9616 42.9525C98.1143 43.1053 98.1261 43.3457 97.9968 43.5119L97.9616 43.5519L97.2381 44.2753L97.2381 45.3712C97.4554 45.3712 97.6346 45.5348 97.659 45.7456L97.6619 45.795L97.6619 46.6426C97.896 46.6426 98.0857 46.8324 98.0857 47.0665C98.0857 47.2838 97.9221 47.4629 97.7113 47.4874L97.6619 47.4903L93.8476 47.4903C93.6136 47.4903 93.4238 47.3005 93.4238 47.0665C93.4238 46.8491 93.5874 46.67 93.7982 46.6455L93.8476 46.6426L93.8476 45.795C93.8476 45.5777 94.0112 45.3986 94.222 45.3741L94.2714 45.3712L94.2714 43.8515L93.5479 43.1281C93.4817 43.0618 93.4397 42.9759 93.4275 42.8841L93.4238 42.8284L93.4238 40.2288C93.2971 40.1556 93.2119 40.0186 93.2119 39.8617C93.2119 39.6444 93.3755 39.4652 93.5863 39.4408L93.6357 39.4379L94.0595 39.4379C94.2936 39.4379 94.4833 39.6277 94.4833 39.8617C94.4833 39.9194 94.4718 39.9744 94.4509 40.0245L94.427 40.0729L94.7084 40.6356C94.7402 40.4176 94.8291 40.2077 94.9647 40.038C94.9097 40.025 94.86 39.9903 94.8296 39.9376C94.8179 39.9173 94.8038 39.8799 94.789 39.8328L94.7592 39.7279L94.7308 39.6104L94.7071 39.4937C94.6867 39.3819 94.678 39.291 94.6952 39.2811C94.7096 39.2728 94.7636 39.3082 94.8313 39.3628L94.9176 39.436L95.0072 39.5183L95.0902 39.6002C95.1411 39.6527 95.181 39.6987 95.1966 39.7257C95.2109 39.7505 95.2196 39.7769 95.2232 39.8036C95.3192 39.7422 95.4266 39.6967 95.544 39.6717L95.5429 39.6498C95.5429 39.6264 95.5493 39.5869 95.5601 39.5388L95.5868 39.433L95.6209 39.3171C95.6331 39.2782 95.6459 39.2399 95.6587 39.2042L95.6962 39.1073C95.7203 39.051 95.7415 39.0141 95.7548 39.0141ZM96.8143 46.2188L94.6952 46.2188L94.6952 46.6426L96.8143 46.6426L96.8143 46.2188ZM96.3905 42.792L95.119 44.0634L95.119 45.3712L96.3905 45.3712L96.3905 42.792ZM94.2714 41.657L94.2714 42.6528L94.8012 43.1826L95.7781 42.2057L94.6121 41.9725C94.435 41.9371 94.346 41.8062 94.2714 41.657ZM95.7548 40.4974C95.7194 40.4974 95.6729 40.5131 95.627 40.5667C95.5804 40.6211 95.5429 40.7077 95.5429 40.8153C95.5429 40.8548 95.5479 40.8917 95.5568 40.9254L95.5727 40.9733C95.6172 41.0824 95.6128 41.1993 95.5699 41.2997L95.987 41.3831C95.9138 41.2828 95.8863 41.1523 95.919 41.0267L95.9368 40.9733C95.9552 40.928 95.9667 40.8745 95.9667 40.8153C95.9667 40.7077 95.9292 40.6211 95.8825 40.5667C95.8366 40.5131 95.7901 40.4974 95.7548 40.4974ZM93.8476 37.9546C93.9138 37.9546 94.2714 38.5681 94.2714 38.8022C94.2714 39.0363 94.0817 39.226 93.8476 39.226C93.6136 39.226 93.4238 39.0363 93.4238 38.8022C93.4238 38.5681 93.7814 37.9546 93.8476 37.9546Z" fill="#0066FF"/>
<path d="M95.2741 23L92.4 27.7803L102.775 45.5609L94.3583 54.9999C94.3583 54.9999 100.974 54.9606 100.935 54.9999C100.896 55.0391 108.804 46.1096 108.804 46.1096L95.2741 23Z" fill="url(#paint0_linear_104_16983)"/>
<rect x="169.456" y="153.135" width="114.575" height="160.428" rx="8.95938" stroke="#FFD392" stroke-dasharray="4 4"/>
<rect x="95.9657" y="153.135" width="188.066" height="119.6" rx="8.95938" stroke="#FFD392" stroke-dasharray="4 4"/>
<rect x="304.503" y="20.5996" width="76.2594" height="61.1844" rx="8.95938" stroke="white" stroke-dasharray="4 4"/>
<path d="M70.3405 103.64H295.837M70.3405 117.834H295.837M70.3405 132.534H211.064" stroke="#8CB3FF" stroke-width="9" stroke-linecap="round"/>
<path d="M85.5107 84.9998H80.9883V77.1472H85.5107V78.5115H82.6533V80.2356H85.312V81.5999H82.6533V83.6248H85.5107V84.9998ZM89.4854 78.8713C90.291 78.8713 90.9087 79.0468 91.3384 79.3977C91.7681 79.7486 91.9829 80.2821 91.9829 80.9983V84.9998H90.8389L90.522 84.1833H90.479C90.3071 84.3982 90.1317 84.5736 89.9526 84.7097C89.7736 84.8458 89.5677 84.946 89.335 85.0105C89.1022 85.075 88.8193 85.1072 88.4863 85.1072C88.1318 85.1072 87.8132 85.0391 87.5303 84.9031C87.251 84.767 87.0308 84.5593 86.8696 84.28C86.7085 83.9972 86.6279 83.6391 86.6279 83.2058C86.6279 82.5684 86.8517 82.0994 87.2993 81.7986C87.7469 81.4942 88.4183 81.3259 89.3135 81.2937L90.3555 81.2615V80.9983C90.3555 80.6832 90.2731 80.4522 90.1084 80.3054C89.9437 80.1586 89.7145 80.0852 89.4209 80.0852C89.1309 80.0852 88.8462 80.1264 88.5669 80.2087C88.2876 80.2911 88.0083 80.3949 87.729 80.5203L87.1865 79.4138C87.5052 79.2455 87.8615 79.113 88.2554 79.0164C88.6528 78.9197 89.0628 78.8713 89.4854 78.8713ZM90.3555 82.2175L89.7217 82.239C89.1917 82.2533 88.8229 82.3482 88.6152 82.5237C88.4111 82.6991 88.3091 82.9301 88.3091 83.2166C88.3091 83.4672 88.3825 83.6462 88.5293 83.7537C88.6761 83.8575 88.8677 83.9094 89.104 83.9094C89.4549 83.9094 89.7503 83.8056 89.9902 83.5979C90.2337 83.3902 90.3555 83.0948 90.3555 82.7117V82.2175ZM97.8643 83.2166C97.8643 83.6248 97.7676 83.9703 97.5742 84.2532C97.3844 84.5325 97.0998 84.7455 96.7202 84.8923C96.3407 85.0356 95.868 85.1072 95.3022 85.1072C94.8833 85.1072 94.5234 85.0803 94.2227 85.0266C93.9255 84.9729 93.6247 84.8834 93.3203 84.7581V83.4045C93.6462 83.5514 93.9953 83.6731 94.3677 83.7698C94.7437 83.8629 95.0731 83.9094 95.356 83.9094C95.6746 83.9094 95.902 83.8629 96.0381 83.7698C96.1777 83.6731 96.2476 83.5478 96.2476 83.3938C96.2476 83.2935 96.2189 83.204 96.1616 83.1252C96.1079 83.0429 95.9897 82.9516 95.8071 82.8513C95.6245 82.7475 95.3381 82.6132 94.9478 82.4485C94.5718 82.2909 94.262 82.1316 94.0186 81.9705C93.7786 81.8093 93.5996 81.6195 93.4814 81.4011C93.3669 81.1791 93.3096 80.898 93.3096 80.5579C93.3096 80.0028 93.5244 79.5857 93.9541 79.3064C94.3874 79.0235 94.9657 78.8821 95.689 78.8821C96.0614 78.8821 96.4159 78.9197 96.7524 78.9949C97.0926 79.0701 97.4417 79.19 97.7998 79.3547L97.3057 80.5364C97.0085 80.4075 96.7274 80.3018 96.4624 80.2195C96.201 80.1371 95.9342 80.0959 95.6621 80.0959C95.4222 80.0959 95.2414 80.1282 95.1196 80.1926C94.9979 80.2571 94.937 80.3556 94.937 80.488C94.937 80.5847 94.9674 80.6707 95.0283 80.7458C95.0928 80.821 95.2145 80.9052 95.3936 80.9983C95.5762 81.0878 95.8429 81.2042 96.1938 81.3474C96.534 81.4871 96.8294 81.6339 97.0801 81.7878C97.3307 81.9382 97.5241 82.1262 97.6602 82.3518C97.7962 82.5738 97.8643 82.8621 97.8643 83.2166ZM98.2832 78.9949H100.077L101.21 82.3733C101.246 82.4807 101.277 82.5899 101.302 82.7009C101.327 82.8119 101.348 82.9265 101.366 83.0447C101.384 83.1628 101.398 83.2864 101.409 83.4153H101.441C101.463 83.2219 101.492 83.0411 101.527 82.8728C101.567 82.7045 101.615 82.538 101.672 82.3733L102.784 78.9949H104.541L102 85.7678C101.846 86.1832 101.646 86.5287 101.398 86.8044C101.151 87.0837 100.867 87.2932 100.544 87.4329C100.226 87.5725 99.8748 87.6423 99.4917 87.6423C99.3055 87.6423 99.1444 87.6316 99.0083 87.6101C98.8722 87.5922 98.7559 87.5725 98.6592 87.551V86.2512C98.7344 86.2691 98.8293 86.2852 98.9438 86.2996C99.0584 86.3139 99.1784 86.321 99.3037 86.321C99.5329 86.321 99.7298 86.2727 99.8945 86.176C100.059 86.0793 100.197 85.9486 100.308 85.7839C100.419 85.6228 100.507 85.4456 100.571 85.2522L100.668 84.9568L98.2832 78.9949ZM110.792 83.802C110.972 83.802 111.145 83.7841 111.313 83.7483C111.485 83.7125 111.655 83.6677 111.824 83.614V84.8333C111.648 84.912 111.43 84.9765 111.168 85.0266C110.911 85.0803 110.628 85.1072 110.32 85.1072C109.962 85.1072 109.639 85.0499 109.353 84.9353C109.07 84.8171 108.846 84.6148 108.682 84.3284C108.521 84.0383 108.44 83.6355 108.44 83.1199V80.2249H107.656V79.532L108.558 78.9841L109.031 77.7166H110.078V78.9949H111.759V80.2249H110.078V83.1199C110.078 83.349 110.143 83.5209 110.271 83.6355C110.404 83.7465 110.578 83.802 110.792 83.802ZM118.5 81.9866C118.5 82.4879 118.432 82.9319 118.296 83.3186C118.163 83.7053 117.968 84.033 117.71 84.3015C117.456 84.5665 117.148 84.767 116.787 84.9031C116.429 85.0391 116.024 85.1072 115.573 85.1072C115.15 85.1072 114.762 85.0391 114.407 84.9031C114.056 84.767 113.75 84.5665 113.489 84.3015C113.231 84.033 113.03 83.7053 112.887 83.3186C112.748 82.9319 112.678 82.4879 112.678 81.9866C112.678 81.3206 112.796 80.7566 113.032 80.2947C113.269 79.8328 113.605 79.4819 114.042 79.2419C114.479 79.002 115 78.8821 115.605 78.8821C116.167 78.8821 116.665 79.002 117.098 79.2419C117.535 79.4819 117.877 79.8328 118.124 80.2947C118.375 80.7566 118.5 81.3206 118.5 81.9866ZM114.348 81.9866C114.348 82.3805 114.391 82.7117 114.477 82.9802C114.563 83.2488 114.697 83.4511 114.88 83.5872C115.062 83.7232 115.301 83.7913 115.594 83.7913C115.884 83.7913 116.119 83.7232 116.298 83.5872C116.48 83.4511 116.613 83.2488 116.695 82.9802C116.781 82.7117 116.824 82.3805 116.824 81.9866C116.824 81.5891 116.781 81.2597 116.695 80.9983C116.613 80.7333 116.48 80.5346 116.298 80.4021C116.115 80.2696 115.877 80.2034 115.583 80.2034C115.15 80.2034 114.835 80.352 114.638 80.6492C114.445 80.9464 114.348 81.3922 114.348 81.9866ZM128.222 78.9949V84.9998H126.965L126.745 84.2317H126.659C126.53 84.4358 126.369 84.6023 126.175 84.7312C125.982 84.8601 125.769 84.955 125.536 85.0159C125.303 85.0767 125.062 85.1072 124.811 85.1072C124.381 85.1072 124.007 85.032 123.688 84.8816C123.37 84.7276 123.121 84.4895 122.942 84.1672C122.766 83.845 122.679 83.426 122.679 82.9104V78.9949H124.317V82.5022C124.317 82.9319 124.394 83.2559 124.548 83.4744C124.702 83.6928 124.947 83.802 125.284 83.802C125.617 83.802 125.878 83.7268 126.068 83.5764C126.258 83.4224 126.39 83.1986 126.465 82.905C126.544 82.6078 126.583 82.2462 126.583 81.8201V78.9949H128.222ZM134.13 83.2166C134.13 83.6248 134.033 83.9703 133.84 84.2532C133.65 84.5325 133.365 84.7455 132.986 84.8923C132.606 85.0356 132.134 85.1072 131.568 85.1072C131.149 85.1072 130.789 85.0803 130.488 85.0266C130.191 84.9729 129.89 84.8834 129.586 84.7581V83.4045C129.912 83.5514 130.261 83.6731 130.633 83.7698C131.009 83.8629 131.339 83.9094 131.622 83.9094C131.94 83.9094 132.168 83.8629 132.304 83.7698C132.443 83.6731 132.513 83.5478 132.513 83.3938C132.513 83.2935 132.485 83.204 132.427 83.1252C132.374 83.0429 132.255 82.9516 132.073 82.8513C131.89 82.7475 131.604 82.6132 131.213 82.4485C130.837 82.2909 130.528 82.1316 130.284 81.9705C130.044 81.8093 129.865 81.6195 129.747 81.4011C129.632 81.1791 129.575 80.898 129.575 80.5579C129.575 80.0028 129.79 79.5857 130.22 79.3064C130.653 79.0235 131.231 78.8821 131.955 78.8821C132.327 78.8821 132.681 78.9197 133.018 78.9949C133.358 79.0701 133.707 79.19 134.065 79.3547L133.571 80.5364C133.274 80.4075 132.993 80.3018 132.728 80.2195C132.467 80.1371 132.2 80.0959 131.928 80.0959C131.688 80.0959 131.507 80.1282 131.385 80.1926C131.264 80.2571 131.203 80.3556 131.203 80.488C131.203 80.5847 131.233 80.6707 131.294 80.7458C131.358 80.821 131.48 80.9052 131.659 80.9983C131.842 81.0878 132.109 81.2042 132.459 81.3474C132.8 81.4871 133.095 81.6339 133.346 81.7878C133.596 81.9382 133.79 82.1262 133.926 82.3518C134.062 82.5738 134.13 82.8621 134.13 83.2166ZM137.884 78.8821C138.439 78.8821 138.917 78.9895 139.318 79.2043C139.719 79.4156 140.029 79.7236 140.248 80.1282C140.466 80.5328 140.575 81.0269 140.575 81.6106V82.4055H136.703C136.721 82.8674 136.858 83.2309 137.116 83.4958C137.378 83.7572 137.739 83.8879 138.201 83.8879C138.584 83.8879 138.935 83.8486 139.254 83.7698C139.573 83.691 139.9 83.5728 140.237 83.4153V84.6829C139.94 84.8297 139.628 84.9371 139.302 85.0051C138.98 85.0732 138.588 85.1072 138.126 85.1072C137.524 85.1072 136.991 84.9962 136.525 84.7742C136.063 84.5522 135.7 84.2138 135.435 83.759C135.174 83.3043 135.043 82.7314 135.043 82.0403C135.043 81.3385 135.161 80.7548 135.397 80.2893C135.637 79.8202 135.97 79.4693 136.396 79.2366C136.823 79.0002 137.319 78.8821 137.884 78.8821ZM137.895 80.0476C137.576 80.0476 137.311 80.1497 137.1 80.3538C136.892 80.5579 136.772 80.8783 136.74 81.3152H139.039C139.035 81.0717 138.991 80.8551 138.905 80.6653C138.822 80.4755 138.697 80.3251 138.529 80.2141C138.364 80.1031 138.153 80.0476 137.895 80.0476Z" fill="white"/>
<g filter="url(#filter2_d_104_16983)">
<rect x="67.1999" y="150.75" width="65.9531" height="69.0938" rx="9.45938" fill="white"/>
</g>
<path d="M98.5519 195.346H85.5355V192.157L89.9152 187.728C90.8231 186.779 91.5264 186.019 92.0253 185.446C92.5324 184.874 92.8882 184.387 93.0927 183.986C93.2971 183.585 93.3994 183.168 93.3994 182.735C93.3994 182.203 93.2276 181.819 92.8841 181.582C92.5406 181.344 92.1357 181.226 91.6696 181.226C91.1052 181.226 90.5327 181.389 89.952 181.717C89.3795 182.036 88.7293 182.51 88.0014 183.14L85.3392 180.024C85.879 179.541 86.4515 179.083 87.0568 178.65C87.662 178.208 88.3776 177.848 89.2037 177.57C90.0297 177.292 91.0357 177.153 92.2216 177.153C93.4402 177.153 94.4953 177.365 95.3868 177.791C96.2864 178.216 96.9816 178.801 97.4724 179.545C97.9631 180.281 98.2084 181.12 98.2084 182.06C98.2084 183.099 98.0162 184.027 97.6318 184.845C97.2556 185.655 96.6872 186.468 95.9266 187.286C95.166 188.096 94.2172 189.016 93.0804 190.047L91.7677 191.224V191.347H98.5519V195.346Z" fill="#333131"/>
<path d="M113.347 186.403C113.347 187.842 113.233 189.131 113.004 190.267C112.775 191.396 112.407 192.357 111.9 193.15C111.401 193.944 110.738 194.549 109.912 194.966C109.086 195.383 108.072 195.592 106.87 195.592C105.373 195.592 104.146 195.228 103.189 194.5C102.232 193.764 101.525 192.713 101.067 191.347C100.617 189.973 100.392 188.325 100.392 186.403C100.392 184.465 100.597 182.808 101.006 181.434C101.423 180.052 102.106 178.993 103.054 178.257C104.003 177.521 105.275 177.153 106.87 177.153C108.366 177.153 109.589 177.521 110.538 178.257C111.495 178.985 112.202 180.04 112.66 181.422C113.118 182.796 113.347 184.456 113.347 186.403ZM105.213 186.403C105.213 187.573 105.254 188.554 105.336 189.347C105.426 190.141 105.59 190.738 105.827 191.138C106.072 191.531 106.42 191.727 106.87 191.727C107.32 191.727 107.663 191.531 107.9 191.138C108.137 190.738 108.301 190.145 108.391 189.36C108.481 188.566 108.526 187.581 108.526 186.403C108.526 185.217 108.481 184.227 108.391 183.434C108.301 182.641 108.137 182.044 107.9 181.643C107.663 181.234 107.32 181.03 106.87 181.03C106.42 181.03 106.072 181.234 105.827 181.643C105.59 182.044 105.426 182.641 105.336 183.434C105.254 184.227 105.213 185.217 105.213 186.403Z" fill="#333131"/>
<path d="M91.8392 170.449C91.6552 170.449 91.4942 170.439 91.3562 170.417C91.2151 170.399 91.0955 170.376 90.9973 170.348V169.161C91.0955 169.183 91.2013 169.203 91.3148 169.221C91.4252 169.243 91.5432 169.253 91.669 169.253C91.8346 169.253 91.9834 169.221 92.1152 169.157C92.2471 169.095 92.3514 168.977 92.4281 168.802C92.5048 168.628 92.5431 168.376 92.5431 168.048V161.745H93.9693V168.039C93.9693 168.615 93.8788 169.08 93.6978 169.433C93.5199 169.788 93.27 170.046 92.9479 170.206C92.629 170.368 92.2594 170.449 91.8392 170.449Z" fill="#333131"/>
<path d="M100.272 163.328V168.471H99.1954L99.0068 167.813H98.9332C98.8228 167.988 98.6848 168.131 98.5192 168.241C98.3536 168.352 98.1711 168.433 97.9717 168.485C97.7724 168.537 97.5653 168.563 97.3506 168.563C96.9826 168.563 96.6621 168.499 96.3891 168.37C96.1162 168.238 95.903 168.034 95.7497 167.758C95.5994 167.482 95.5242 167.123 95.5242 166.682V163.328H96.9274V166.332C96.9274 166.7 96.9933 166.978 97.1252 167.165C97.2571 167.352 97.4672 167.445 97.7555 167.445C98.0407 167.445 98.2646 167.381 98.4272 167.252C98.5897 167.12 98.7032 166.928 98.7676 166.677C98.8351 166.422 98.8688 166.113 98.8688 165.748V163.328H100.272Z" fill="#333131"/>
<path d="M103.147 168.471H101.744V161.313H103.147V168.471Z" fill="#333131"/>
<path d="M103.888 163.328H105.425L106.395 166.222C106.426 166.314 106.452 166.407 106.473 166.502C106.495 166.597 106.513 166.695 106.529 166.797C106.544 166.898 106.556 167.004 106.565 167.114H106.593C106.611 166.948 106.636 166.794 106.667 166.649C106.7 166.505 106.742 166.363 106.791 166.222L107.743 163.328H109.248L107.072 169.129C106.94 169.485 106.768 169.781 106.556 170.017C106.345 170.256 106.101 170.436 105.825 170.555C105.552 170.675 105.251 170.735 104.923 170.735C104.764 170.735 104.626 170.725 104.509 170.707C104.393 170.692 104.293 170.675 104.21 170.656V169.543C104.274 169.558 104.356 169.572 104.454 169.584C104.552 169.597 104.655 169.603 104.762 169.603C104.958 169.603 105.127 169.561 105.268 169.479C105.409 169.396 105.527 169.284 105.622 169.143C105.717 169.005 105.793 168.853 105.848 168.687L105.931 168.434L103.888 163.328Z" fill="#333131"/>
<path d="M79.1342 205.397H119.962" stroke="#E9E9E9" stroke-width="5" stroke-linecap="round"/>
<rect x="143.203" y="176.502" width="65.9531" height="69.0938" rx="9.45938" fill="#F2F2F2"/>
<path d="M175.039 222.983H163.286V221.278L168.083 216.407C168.974 215.508 169.723 214.706 170.328 214.003C170.941 213.299 171.407 212.608 171.726 211.93C172.045 211.243 172.205 210.49 172.205 209.672C172.205 208.658 171.902 207.885 171.297 207.354C170.7 206.814 169.911 206.544 168.929 206.544C168.071 206.544 167.31 206.691 166.647 206.986C165.985 207.28 165.306 207.697 164.611 208.237L163.519 206.863C163.993 206.462 164.509 206.106 165.065 205.796C165.629 205.485 166.23 205.239 166.868 205.059C167.514 204.88 168.201 204.79 168.929 204.79C170.033 204.79 170.986 204.982 171.788 205.366C172.589 205.751 173.207 206.299 173.64 207.01C174.082 207.722 174.303 208.568 174.303 209.55C174.303 210.498 174.115 211.382 173.738 212.199C173.362 213.009 172.835 213.815 172.156 214.616C171.477 215.41 170.684 216.252 169.776 217.143L165.875 221.032V221.118H175.039V222.983Z" fill="#333131"/>
<path d="M183.59 204.79C184.628 204.79 185.548 204.953 186.35 205.28C187.151 205.607 187.777 206.09 188.227 206.728C188.685 207.358 188.914 208.135 188.914 209.059C188.914 209.787 188.754 210.425 188.436 210.973C188.125 211.512 187.704 211.987 187.172 212.396C186.64 212.797 186.051 213.156 185.405 213.475C186.174 213.827 186.865 214.224 187.479 214.665C188.1 215.107 188.591 215.626 188.951 216.223C189.311 216.82 189.491 217.528 189.491 218.346C189.491 219.352 189.245 220.223 188.754 220.959C188.272 221.687 187.593 222.247 186.718 222.64C185.843 223.032 184.816 223.228 183.639 223.228C182.371 223.228 181.291 223.04 180.4 222.664C179.517 222.28 178.842 221.732 178.376 221.02C177.918 220.3 177.689 219.438 177.689 218.432C177.689 217.606 177.865 216.89 178.216 216.285C178.568 215.671 179.034 215.144 179.615 214.702C180.195 214.26 180.829 213.888 181.516 213.586C180.919 213.259 180.371 212.886 179.872 212.469C179.382 212.052 178.989 211.566 178.695 211.009C178.408 210.445 178.265 209.791 178.265 209.047C178.265 208.139 178.494 207.37 178.952 206.74C179.418 206.102 180.052 205.62 180.854 205.293C181.664 204.957 182.575 204.79 183.59 204.79ZM179.688 218.444C179.688 219.36 180.011 220.116 180.658 220.714C181.304 221.302 182.281 221.597 183.59 221.597C184.833 221.597 185.794 221.302 186.473 220.714C187.151 220.116 187.491 219.335 187.491 218.37C187.491 217.773 187.335 217.25 187.025 216.8C186.714 216.342 186.272 215.933 185.7 215.573C185.127 215.213 184.452 214.886 183.676 214.592L183.234 214.432C182.481 214.743 181.839 215.091 181.308 215.475C180.784 215.851 180.384 216.281 180.105 216.763C179.827 217.246 179.688 217.806 179.688 218.444ZM183.565 206.458C182.6 206.458 181.811 206.691 181.197 207.157C180.584 207.615 180.277 208.278 180.277 209.145C180.277 209.766 180.424 210.294 180.719 210.727C181.022 211.153 181.43 211.521 181.946 211.831C182.461 212.134 183.038 212.416 183.676 212.678C184.297 212.416 184.849 212.13 185.332 211.819C185.814 211.5 186.195 211.124 186.473 210.69C186.751 210.257 186.89 209.738 186.89 209.132C186.89 208.266 186.583 207.603 185.97 207.145C185.364 206.687 184.563 206.458 183.565 206.458Z" fill="#333131"/>
<path d="M169.099 198.086C168.915 198.086 168.754 198.076 168.616 198.054C168.475 198.036 168.355 198.013 168.257 197.985V196.798C168.355 196.82 168.461 196.84 168.575 196.858C168.685 196.879 168.803 196.89 168.929 196.89C169.094 196.89 169.243 196.858 169.375 196.794C169.507 196.732 169.611 196.614 169.688 196.439C169.765 196.265 169.803 196.013 169.803 195.685V189.382H171.229V195.676C171.229 196.252 171.139 196.717 170.958 197.07C170.78 197.425 170.53 197.683 170.208 197.843C169.889 198.005 169.519 198.086 169.099 198.086Z" fill="#333131"/>
<path d="M177.532 190.965V196.108H176.455L176.267 195.45H176.193C176.083 195.625 175.945 195.768 175.779 195.878C175.613 195.989 175.431 196.07 175.232 196.122C175.032 196.174 174.825 196.2 174.61 196.2C174.242 196.2 173.922 196.136 173.649 196.007C173.376 195.875 173.163 195.671 173.009 195.395C172.859 195.119 172.784 194.76 172.784 194.319V190.965H174.187V193.969C174.187 194.337 174.253 194.614 174.385 194.802C174.517 194.989 174.727 195.082 175.015 195.082C175.301 195.082 175.524 195.018 175.687 194.889C175.85 194.757 175.963 194.565 176.027 194.314C176.095 194.059 176.129 193.75 176.129 193.385V190.965H177.532Z" fill="#333131"/>
<path d="M180.407 196.108H179.004V188.95H180.407V196.108Z" fill="#333131"/>
<path d="M181.148 190.965H182.684L183.655 193.858C183.686 193.95 183.712 194.044 183.733 194.139C183.755 194.234 183.773 194.332 183.789 194.434C183.804 194.535 183.816 194.641 183.825 194.751H183.853C183.871 194.585 183.896 194.43 183.927 194.286C183.96 194.142 184.002 194 184.051 193.858L185.003 190.965H186.507L184.331 196.766C184.199 197.122 184.028 197.418 183.816 197.654C183.604 197.893 183.361 198.073 183.085 198.192C182.812 198.312 182.511 198.372 182.183 198.372C182.023 198.372 181.885 198.362 181.769 198.344C181.652 198.329 181.553 198.312 181.47 198.293V197.18C181.534 197.195 181.616 197.209 181.714 197.221C181.812 197.234 181.915 197.24 182.022 197.24C182.218 197.24 182.387 197.198 182.528 197.116C182.669 197.033 182.787 196.921 182.882 196.78C182.977 196.642 183.052 196.49 183.108 196.324L183.19 196.071L181.148 190.965Z" fill="#333131"/>
<path d="M157.022 233.662H198.478" stroke="white" stroke-width="5" stroke-linecap="round"/>
<g filter="url(#filter3_d_104_16983)">
<rect x="219.206" y="177.759" width="209.794" height="150.122" rx="9.45938" fill="white"/>
</g>
<path d="M293.953 287.681H380.634M293.953 297.731H343.927" stroke="#DCDCDC" stroke-width="6" stroke-linecap="round"/>
<circle cx="293.953" cy="275.747" r="3.14062" fill="#D9D9D9"/>
<circle cx="312.797" cy="275.747" r="3.14062" fill="#D9D9D9"/>
<circle cx="331.64" cy="275.747" r="3.14062" fill="#D9D9D9"/>
<circle cx="303.375" cy="275.747" r="3.14062" fill="#D9D9D9"/>
<circle cx="322.219" cy="275.747" r="3.14062" fill="#D9D9D9"/>
<circle cx="341.062" cy="275.747" r="3.14062" fill="#D9D9D9"/>
<path d="M280.762 271.35C279.769 271.35 278.797 271.645 277.971 272.197C277.144 272.749 276.5 273.534 276.12 274.452C275.74 275.37 275.64 276.381 275.834 277.355C276.028 278.33 276.506 279.226 277.209 279.928C277.912 280.631 278.807 281.11 279.782 281.304C280.757 281.497 281.767 281.398 282.685 281.018C283.604 280.637 284.388 279.993 284.941 279.167C285.493 278.34 285.787 277.369 285.787 276.375C285.785 275.043 285.255 273.767 284.313 272.825C283.371 271.883 282.094 271.353 280.762 271.35ZM283.468 276.762H280.762C280.66 276.762 280.562 276.721 280.489 276.648C280.417 276.576 280.376 276.478 280.376 276.375V273.669C280.376 273.567 280.417 273.468 280.489 273.396C280.562 273.324 280.66 273.283 280.762 273.283C280.865 273.283 280.963 273.324 281.036 273.396C281.108 273.468 281.149 273.567 281.149 273.669V275.989H283.468C283.571 275.989 283.669 276.029 283.741 276.102C283.814 276.174 283.855 276.273 283.855 276.375C283.855 276.478 283.814 276.576 283.741 276.648C283.669 276.721 283.571 276.762 283.468 276.762Z" fill="#625FFB"/>
<path d="M280.134 245.597C278.969 245.598 277.851 246.066 277.027 246.899C276.202 247.732 275.739 248.861 275.737 250.039C275.737 253.839 279.735 256.712 279.904 256.833C279.973 256.878 280.053 256.903 280.134 256.903C280.216 256.903 280.296 256.878 280.364 256.833C280.534 256.712 284.531 253.839 284.531 250.039C284.53 248.861 284.066 247.732 283.242 246.899C282.418 246.066 281.3 245.598 280.134 245.597ZM280.134 248.423C280.451 248.423 280.76 248.518 281.023 248.696C281.286 248.873 281.49 249.125 281.611 249.42C281.733 249.716 281.764 250.04 281.702 250.354C281.641 250.667 281.489 250.955 281.265 251.181C281.041 251.407 280.756 251.56 280.446 251.623C280.136 251.685 279.815 251.653 279.522 251.531C279.23 251.409 278.981 251.202 278.805 250.936C278.629 250.67 278.535 250.358 278.535 250.039C278.535 249.61 278.704 249.199 279.004 248.896C279.304 248.594 279.71 248.423 280.134 248.423Z" fill="#D9D9D9"/>
<path d="M295.837 249.365H390.684M295.837 259.415H350.519" stroke="#DCDCDC" stroke-width="6" stroke-linecap="round"/>
<path d="M278.878 221.099H376.865M278.878 231.777H335.371" stroke="#ECECEC" stroke-width="10" stroke-linecap="round"/>
<path d="M236.793 241.2H268.2" stroke="#E7E7E7" stroke-width="5" stroke-linecap="round"/>
<path d="M247.795 198L247.226 196.131H244.363L243.794 198H242L244.772 190.116H246.807L249.589 198H247.795ZM246.829 194.735L246.259 192.909C246.224 192.787 246.175 192.631 246.114 192.441C246.057 192.248 245.998 192.053 245.937 191.856C245.88 191.655 245.833 191.482 245.797 191.335C245.762 191.482 245.711 191.664 245.647 191.883C245.586 192.098 245.527 192.302 245.47 192.495C245.412 192.688 245.371 192.826 245.346 192.909L244.782 194.735H246.829ZM253.865 191.883C254.506 191.883 255.021 192.058 255.412 192.409C255.802 192.757 255.997 193.315 255.997 194.085V198H254.359V194.493C254.359 194.063 254.28 193.739 254.123 193.521C253.969 193.303 253.725 193.193 253.392 193.193C252.891 193.193 252.549 193.363 252.366 193.704C252.184 194.044 252.092 194.534 252.092 195.175V198H250.454V191.996H251.706L251.926 192.764H252.017C252.146 192.556 252.305 192.388 252.495 192.259C252.689 192.13 252.902 192.035 253.134 191.974C253.371 191.913 253.614 191.883 253.865 191.883ZM263.141 194.987C263.141 195.489 263.073 195.933 262.937 196.319C262.804 196.706 262.609 197.034 262.351 197.302C262.097 197.567 261.789 197.768 261.427 197.904C261.069 198.04 260.665 198.108 260.213 198.108C259.791 198.108 259.402 198.04 259.048 197.904C258.697 197.768 258.391 197.567 258.129 197.302C257.872 197.034 257.671 196.706 257.528 196.319C257.388 195.933 257.318 195.489 257.318 194.987C257.318 194.321 257.437 193.757 257.673 193.295C257.909 192.833 258.246 192.483 258.683 192.243C259.12 192.003 259.641 191.883 260.246 191.883C260.808 191.883 261.306 192.003 261.739 192.243C262.176 192.483 262.518 192.833 262.765 193.295C263.015 193.757 263.141 194.321 263.141 194.987ZM258.989 194.987C258.989 195.381 259.032 195.712 259.118 195.981C259.204 196.25 259.338 196.452 259.521 196.588C259.703 196.724 259.941 196.792 260.235 196.792C260.525 196.792 260.76 196.724 260.939 196.588C261.121 196.452 261.254 196.25 261.336 195.981C261.422 195.712 261.465 195.381 261.465 194.987C261.465 194.59 261.422 194.26 261.336 193.999C261.254 193.734 261.121 193.535 260.939 193.403C260.756 193.27 260.518 193.204 260.224 193.204C259.791 193.204 259.476 193.353 259.279 193.65C259.086 193.947 258.989 194.393 258.989 194.987ZM267.905 191.883C268.546 191.883 269.061 192.058 269.452 192.409C269.842 192.757 270.037 193.315 270.037 194.085V198H268.399V194.493C268.399 194.063 268.32 193.739 268.163 193.521C268.009 193.303 267.765 193.193 267.432 193.193C266.931 193.193 266.589 193.363 266.406 193.704C266.224 194.044 266.132 194.534 266.132 195.175V198H264.494V191.996H265.746L265.966 192.764H266.057C266.186 192.556 266.345 192.388 266.535 192.259C266.729 192.13 266.942 192.035 267.174 191.974C267.411 191.913 267.654 191.883 267.905 191.883ZM270.864 191.996H272.658L273.792 195.374C273.827 195.481 273.858 195.591 273.883 195.702C273.908 195.813 273.929 195.927 273.947 196.045C273.965 196.164 273.98 196.287 273.99 196.416H274.023C274.044 196.223 274.073 196.042 274.108 195.874C274.148 195.705 274.196 195.539 274.253 195.374L275.365 191.996H277.122L274.581 198.769C274.427 199.184 274.227 199.529 273.98 199.805C273.732 200.084 273.448 200.294 273.126 200.434C272.807 200.573 272.456 200.643 272.073 200.643C271.887 200.643 271.725 200.632 271.589 200.611C271.453 200.593 271.337 200.573 271.24 200.552V199.252C271.315 199.27 271.41 199.286 271.525 199.3C271.64 199.315 271.76 199.322 271.885 199.322C272.114 199.322 272.311 199.273 272.476 199.177C272.64 199.08 272.778 198.949 272.889 198.785C273 198.624 273.088 198.446 273.152 198.253L273.249 197.958L270.864 191.996ZM285.039 191.883C285.719 191.883 286.233 192.058 286.58 192.409C286.931 192.757 287.107 193.315 287.107 194.085V198H285.463V194.493C285.463 194.063 285.39 193.739 285.243 193.521C285.096 193.303 284.869 193.193 284.561 193.193C284.127 193.193 283.819 193.349 283.637 193.661C283.454 193.969 283.363 194.411 283.363 194.987V198H281.725V194.493C281.725 194.207 281.692 193.967 281.628 193.773C281.564 193.58 281.465 193.435 281.333 193.338C281.2 193.242 281.03 193.193 280.822 193.193C280.518 193.193 280.278 193.27 280.103 193.424C279.931 193.575 279.807 193.799 279.732 194.096C279.66 194.389 279.625 194.749 279.625 195.175V198H277.986V191.996H279.238L279.458 192.764H279.549C279.671 192.556 279.823 192.388 280.006 192.259C280.192 192.13 280.396 192.035 280.618 191.974C280.84 191.913 281.066 191.883 281.295 191.883C281.735 191.883 282.108 191.954 282.412 192.098C282.72 192.241 282.956 192.463 283.121 192.764H283.266C283.445 192.456 283.698 192.232 284.023 192.092C284.353 191.953 284.691 191.883 285.039 191.883ZM294.25 194.987C294.25 195.489 294.182 195.933 294.046 196.319C293.913 196.706 293.718 197.034 293.461 197.302C293.206 197.567 292.898 197.768 292.537 197.904C292.179 198.04 291.774 198.108 291.323 198.108C290.9 198.108 290.512 198.04 290.157 197.904C289.806 197.768 289.5 197.567 289.239 197.302C288.981 197.034 288.78 196.706 288.637 196.319C288.498 195.933 288.428 195.489 288.428 194.987C288.428 194.321 288.546 193.757 288.782 193.295C289.019 192.833 289.355 192.483 289.792 192.243C290.229 192.003 290.75 191.883 291.355 191.883C291.917 191.883 292.415 192.003 292.848 192.243C293.285 192.483 293.627 192.833 293.874 193.295C294.125 193.757 294.25 194.321 294.25 194.987ZM290.098 194.987C290.098 195.381 290.141 195.712 290.227 195.981C290.313 196.25 290.447 196.452 290.63 196.588C290.813 196.724 291.051 196.792 291.344 196.792C291.634 196.792 291.869 196.724 292.048 196.588C292.231 196.452 292.363 196.25 292.445 195.981C292.531 195.712 292.574 195.381 292.574 194.987C292.574 194.59 292.531 194.26 292.445 193.999C292.363 193.734 292.231 193.535 292.048 193.403C291.865 193.27 291.627 193.204 291.334 193.204C290.9 193.204 290.585 193.353 290.388 193.65C290.195 193.947 290.098 194.393 290.098 194.987ZM301.114 191.996V198H299.857L299.637 197.232H299.551C299.422 197.437 299.261 197.603 299.068 197.732C298.875 197.861 298.662 197.956 298.429 198.017C298.196 198.077 297.954 198.108 297.704 198.108C297.274 198.108 296.9 198.033 296.581 197.882C296.262 197.728 296.014 197.49 295.835 197.168C295.659 196.846 295.571 196.427 295.571 195.911V191.996H297.21V195.503C297.21 195.933 297.287 196.257 297.44 196.475C297.594 196.694 297.84 196.803 298.176 196.803C298.509 196.803 298.771 196.728 298.961 196.577C299.15 196.423 299.283 196.199 299.358 195.906C299.437 195.609 299.476 195.247 299.476 194.821V191.996H301.114ZM307.023 196.217C307.023 196.625 306.926 196.971 306.732 197.254C306.543 197.533 306.258 197.746 305.878 197.893C305.499 198.036 305.026 198.108 304.461 198.108C304.042 198.108 303.682 198.081 303.381 198.027C303.084 197.974 302.783 197.884 302.479 197.759V196.405C302.804 196.552 303.154 196.674 303.526 196.771C303.902 196.864 304.231 196.91 304.514 196.91C304.833 196.91 305.06 196.864 305.196 196.771C305.336 196.674 305.406 196.549 305.406 196.395C305.406 196.294 305.377 196.205 305.32 196.126C305.266 196.044 305.148 195.952 304.965 195.852C304.783 195.748 304.496 195.614 304.106 195.449C303.73 195.292 303.42 195.132 303.177 194.971C302.937 194.81 302.758 194.62 302.64 194.402C302.525 194.18 302.468 193.899 302.468 193.559C302.468 193.004 302.683 192.586 303.112 192.307C303.546 192.024 304.124 191.883 304.847 191.883C305.22 191.883 305.574 191.92 305.911 191.996C306.251 192.071 306.6 192.191 306.958 192.355L306.464 193.537C306.167 193.408 305.886 193.303 305.621 193.22C305.359 193.138 305.093 193.097 304.82 193.097C304.58 193.097 304.4 193.129 304.278 193.193C304.156 193.258 304.095 193.356 304.095 193.489C304.095 193.585 304.126 193.671 304.187 193.747C304.251 193.822 304.373 193.906 304.552 193.999C304.734 194.089 305.001 194.205 305.352 194.348C305.692 194.488 305.988 194.635 306.238 194.789C306.489 194.939 306.682 195.127 306.818 195.353C306.954 195.575 307.023 195.863 307.023 196.217ZM309.939 198H308.301V189.643H309.939V198ZM310.804 191.996H312.598L313.731 195.374C313.767 195.481 313.797 195.591 313.822 195.702C313.847 195.813 313.869 195.927 313.887 196.045C313.905 196.164 313.919 196.287 313.93 196.416H313.962C313.983 196.223 314.012 196.042 314.048 195.874C314.087 195.705 314.136 195.539 314.193 195.374L315.305 191.996H317.061L314.521 198.769C314.367 199.184 314.166 199.529 313.919 199.805C313.672 200.084 313.387 200.294 313.065 200.434C312.746 200.573 312.395 200.643 312.012 200.643C311.826 200.643 311.665 200.632 311.529 200.611C311.393 200.593 311.276 200.573 311.18 200.552V199.252C311.255 199.27 311.35 199.286 311.464 199.3C311.579 199.315 311.699 199.322 311.824 199.322C312.053 199.322 312.25 199.273 312.415 199.177C312.58 199.08 312.718 198.949 312.829 198.785C312.94 198.624 313.027 198.446 313.092 198.253L313.189 197.958L310.804 191.996Z" fill="black"/>
<defs>
<filter id="filter0_d_104_16983" x="0" y="22.1743" width="373.088" height="228.619" filterUnits="userSpaceOnUse" color-interpolation-filters="sRGB">
<feFlood flood-opacity="0" result="BackgroundImageFix"/>
<feColorMatrix in="SourceAlpha" type="matrix" values="0 0 0 0 0 0 0 0 0 0 0 0 0 0 0 0 0 0 127 0" result="hardAlpha"/>
<feOffset dy="14"/>
<feGaussianBlur stdDeviation="13.5"/>
<feComposite in2="hardAlpha" operator="out"/>
<feColorMatrix type="matrix" values="0 0 0 0 0.9125 0 0 0 0 0.9125 0 0 0 0 0.9125 0 0 0 1 0"/>
<feBlend mode="normal" in2="BackgroundImageFix" result="effect1_dropShadow_104_16983"/>
<feBlend mode="normal" in="SourceGraphic" in2="effect1_dropShadow_104_16983" result="shape"/>
</filter>
<filter id="filter1_d_104_16983" x="64.4561" y="5.93408" width="61.3906" height="61.3906" filterUnits="userSpaceOnUse" color-interpolation-filters="sRGB">
<feFlood flood-opacity="0" result="BackgroundImageFix"/>
<feColorMatrix in="SourceAlpha" type="matrix" values="0 0 0 0 0 0 0 0 0 0 0 0 0 0 0 0 0 0 127 0" result="hardAlpha"/>
<feOffset dy="-2"/>
<feGaussianBlur stdDeviation="2"/>
<feComposite in2="hardAlpha" operator="out"/>
<feColorMatrix type="matrix" values="0 0 0 0 0 0 0 0 0 0 0 0 0 0 0 0 0 0 0.25 0"/>
<feBlend mode="normal" in2="BackgroundImageFix" result="effect1_dropShadow_104_16983"/>
<feBlend mode="normal" in="SourceGraphic" in2="effect1_dropShadow_104_16983" result="shape"/>
</filter>
<filter id="filter2_d_104_16983" x="40.1999" y="137.75" width="119.953" height="123.094" filterUnits="userSpaceOnUse" color-interpolation-filters="sRGB">
<feFlood flood-opacity="0" result="BackgroundImageFix"/>
<feColorMatrix in="SourceAlpha" type="matrix" values="0 0 0 0 0 0 0 0 0 0 0 0 0 0 0 0 0 0 127 0" result="hardAlpha"/>
<feOffset dy="14"/>
<feGaussianBlur stdDeviation="13.5"/>
<feComposite in2="hardAlpha" operator="out"/>
<feColorMatrix type="matrix" values="0 0 0 0 0.925 0 0 0 0 0.925 0 0 0 0 0.925 0 0 0 1 0"/>
<feBlend mode="multiply" in2="BackgroundImageFix" result="effect1_dropShadow_104_16983"/>
<feBlend mode="normal" in="SourceGraphic" in2="effect1_dropShadow_104_16983" result="shape"/>
</filter>
<filter id="filter3_d_104_16983" x="180.206" y="172.759" width="265.794" height="206.122" filterUnits="userSpaceOnUse" color-interpolation-filters="sRGB">
<feFlood flood-opacity="0" result="BackgroundImageFix"/>
<feColorMatrix in="SourceAlpha" type="matrix" values="0 0 0 0 0 0 0 0 0 0 0 0 0 0 0 0 0 0 127 0" result="hardAlpha"/>
<feOffset dx="-11" dy="23"/>
<feGaussianBlur stdDeviation="14"/>
<feComposite in2="hardAlpha" operator="out"/>
<feColorMatrix type="matrix" values="0 0 0 0 0.95 0 0 0 0 0.95 0 0 0 0 0.95 0 0 0 1 0"/>
<feBlend mode="multiply" in2="BackgroundImageFix" result="effect1_dropShadow_104_16983"/>
<feBlend mode="normal" in="SourceGraphic" in2="effect1_dropShadow_104_16983" result="shape"/>
</filter>
<linearGradient id="paint0_linear_104_16983" x1="92.4" y1="45.6667" x2="115.491" y2="47.326" gradientUnits="userSpaceOnUse">
<stop stop-color="#319CFF"/>
<stop offset="0.275793" stop-color="#AED8FF"/>
<stop offset="0.916667" stop-color="#0B86F8"/>
</linearGradient>
</defs>
</svg>
