<svg width="727" height="582" viewBox="0 0 727 582" fill="none" xmlns="http://www.w3.org/2000/svg">
<path d="M362.217 79.7268C357.718 89.9917 352.428 140.017 349.093 178.479C348.09 190.055 357.231 199.942 368.85 199.986L582.097 200.793C584.307 200.801 586.088 198.767 585.561 196.62C585.494 196.348 585.467 196.149 585.446 195.869C585.209 192.585 584.272 189.07 581.458 179.952C581.102 178.799 580.649 177.663 580.039 176.621C574.536 167.214 569.673 169.15 567.856 171.438C567.401 172.061 566.332 173.499 564.883 175.397C563.454 177.268 561.167 179.396 559.49 177.744C557.792 176.071 556.648 172.429 556.176 170.082C555.583 167.673 553.801 158.967 551.426 143.423C549.525 127.879 546.411 131.825 545.091 135.741C544.867 136.189 544.463 136.988 543.926 138.037C542.124 141.558 538.728 143.227 537.445 139.485C536.2 135.85 535.365 130.609 534.996 127.156C533.61 116.763 530.403 93.7186 528.661 84.6814C526.286 75.6443 523.053 80.0122 521.733 83.3258C519.819 90.1037 515.636 104.834 514.211 109.534C512.786 114.233 511.11 114.203 510.45 113.6C509.959 113.102 508.792 111.638 507.508 109.308C506.936 108.27 506.453 106.993 505.328 106.62C504.458 106.332 503.652 106.772 503.116 107.287C502.834 107.556 502.642 107.9 502.467 108.249C502.095 108.991 501.551 110.072 500.971 111.219C500.276 112.592 498.518 113.752 497.846 112.368C497.736 112.142 497.505 111.698 497.404 111.468C496.259 108.87 494.302 95.4624 493.426 88.7481C493.135 86.6247 492.281 81.3673 490.999 75.6962C490.651 74.1581 490.401 71.7329 488.826 71.8069C485.503 71.9628 483.422 93.527 482.737 105.919C481.945 118.872 480.322 146.044 480.163 151.104C479.965 157.43 478.975 163.756 478.184 170.082C478.09 170.511 477.997 170.883 477.907 171.204C477.134 173.935 475.161 169.985 474.374 167.258C473.089 162.805 471.516 159.399 470.343 157.322C469.687 156.159 468.775 155.176 467.817 154.246C465.246 151.749 461.469 147.754 459.774 144.778C458.453 142.458 457.061 142.124 456.006 142.46C454.926 142.806 454.384 143.955 453.619 144.792C452.789 145.702 451.606 146.586 450.273 146.586C447.422 146.586 445.258 137.247 444.532 132.578C443.41 127.457 440.969 116.131 440.177 111.793C439.287 106.915 438.236 102.768 436.304 97.7072C435.864 96.5527 435.367 95.3688 434.465 94.524C431.909 92.1308 430.058 95.9132 428.595 99.5766C427.994 101.084 427.419 103.315 425.799 103.223C424.28 103.138 423.17 99.9155 422.163 95.9778C420.58 91.64 417.809 70.6738 416.621 60.733C416.093 57.4193 414.443 47.7195 412.068 35.4289C408.742 23.4999 405.008 35.8808 403.556 43.5624C400.389 60.5823 393.777 95.7067 392.669 100.045C391.601 104.223 390.886 105.45 389.527 105.793C388.61 106.024 387.561 105.998 386.853 105.372C384.663 103.436 381.855 96.8477 380.124 92.1305C379.631 90.7874 379.087 89.1993 377.869 88.4487C376.733 87.7486 376.045 89.401 375.426 90.5831C373.602 94.0654 372.205 92.4558 371.686 91.0074C370.526 88.4615 368.401 84.0705 366.656 81.1579C365.46 79.1603 363.152 77.5943 362.217 79.7268Z" fill="url(#paint0_linear_261_4332)"/>
<g opacity="0.5" filter="url(#filter0_f_261_4332)">
<path d="M526.247 361.998C526.247 372.732 504.111 381.433 476.804 381.433C449.498 381.433 427.361 372.732 427.361 361.998C427.361 351.265 449.498 342.564 476.804 342.564C504.111 342.564 526.247 351.265 526.247 361.998Z" fill="#DB14F1"/>
</g>
<g filter="url(#filter1_d_261_4332)">
<rect x="50.6787" y="49.3358" width="332.097" height="256.647" rx="20" fill="white"/>
<rect x="51.1787" y="49.8358" width="331.097" height="255.647" rx="19.5" stroke="#F2F2F2"/>
</g>
<rect x="100.408" y="137.362" width="137.183" height="9.71713" rx="4.85857" fill="#F2F2F2"/>
<rect x="100.408" y="158.511" width="232.068" height="9.71713" rx="4.85857" fill="#F2F2F2"/>
<rect x="101.551" y="200.809" width="232.068" height="9.71713" rx="4.85857" fill="#F2F2F2"/>
<rect x="100.979" y="179.66" width="232.068" height="9.71713" rx="4.85857" fill="#F2F2F2"/>
<rect x="101.551" y="220.815" width="232.068" height="9.71713" rx="4.85857" fill="#F2F2F2"/>
<rect x="78.6152" y="114.998" width="285.37" height="131.039" rx="19.5" stroke="#D6D6D6"/>
<g filter="url(#filter2_d_261_4332)">
<rect x="288.462" y="133.932" width="206.918" height="234.354" rx="20" fill="white"/>
</g>
<path d="M377.772 192.417L339.096 258.191L369.572 293.012L381.034 293.012L397.791 273.509L379.172 273.509L362.757 255.251L389.056 210.523L377.772 192.417Z" fill="#0066FF"/>
<path d="M393.45 229.842C393.502 229.842 393.586 229.988 393.681 230.21L393.829 230.593C393.855 230.664 393.88 230.737 393.905 230.811L394.049 231.27C394.071 231.347 394.093 231.423 394.114 231.497L394.219 231.915C394.261 232.106 394.287 232.262 394.287 232.354L394.283 232.441C394.746 232.539 395.171 232.719 395.55 232.962C395.564 232.856 395.599 232.752 395.655 232.654C395.717 232.547 395.875 232.365 396.076 232.158L396.404 231.834L396.758 231.509L397.099 231.22C397.367 231.004 397.58 230.864 397.637 230.897C397.705 230.936 397.67 231.295 397.59 231.737L397.496 232.198L397.384 232.663L397.266 233.077C397.208 233.263 397.152 233.411 397.106 233.491C396.985 233.7 396.789 233.837 396.572 233.888C397.254 234.742 397.637 235.853 397.637 236.96C397.637 237.625 397.508 238.265 397.271 238.847C397.158 239.124 396.979 239.355 396.76 239.528L396.589 239.648L396.619 239.654C398.097 239.949 399.185 241.192 399.301 242.674L399.311 242.938L399.311 245.896L399.802 245.405C400.456 244.751 401.516 244.751 402.17 245.405C402.774 246.009 402.82 246.959 402.31 247.616L402.17 247.773L399.311 250.632L399.311 254.963C400.17 254.963 400.878 255.609 400.975 256.442L400.986 256.638L400.986 259.987C401.911 259.987 402.661 260.737 402.661 261.662C402.661 262.521 402.014 263.229 401.181 263.325L400.986 263.337L385.913 263.337C384.989 263.337 384.239 262.587 384.239 261.662C384.239 260.803 384.885 260.095 385.718 259.998L385.913 259.987L385.913 256.638C385.913 255.779 386.56 255.071 387.393 254.974L387.588 254.963L387.588 248.958L384.729 246.099C384.468 245.837 384.301 245.498 384.253 245.135L384.239 244.915L384.239 234.642C383.738 234.353 383.401 233.811 383.401 233.191C383.401 232.333 384.048 231.625 384.881 231.528L385.076 231.517L386.751 231.517C387.676 231.517 388.426 232.267 388.426 233.191C388.426 233.419 388.38 233.637 388.298 233.835L388.203 234.026L389.315 236.25C389.441 235.388 389.792 234.559 390.328 233.888C390.111 233.837 389.914 233.7 389.794 233.491C389.748 233.411 389.692 233.263 389.633 233.077L389.516 232.663L389.404 232.198L389.31 231.737C389.229 231.295 389.195 230.936 389.263 230.897C389.32 230.864 389.533 231.004 389.801 231.22L390.142 231.509L390.496 231.834L390.824 232.158C391.025 232.365 391.182 232.547 391.244 232.654C391.301 232.752 391.335 232.856 391.349 232.962C391.729 232.719 392.153 232.539 392.617 232.441L392.612 232.354C392.612 232.262 392.638 232.106 392.681 231.915L392.786 231.497L392.921 231.039C392.969 230.886 393.02 230.734 393.07 230.593L393.218 230.21C393.313 229.988 393.397 229.842 393.45 229.842ZM397.637 258.312L389.263 258.312L389.263 259.987L397.637 259.987L397.637 258.312ZM395.962 244.771L390.938 249.795L390.938 254.963L395.962 254.963L395.962 244.771ZM387.588 240.286L387.588 244.221L389.682 246.314L393.542 242.454L388.934 241.533C388.235 241.393 387.883 240.875 387.588 240.286ZM393.45 235.704C393.31 235.704 393.126 235.765 392.945 235.977C392.761 236.192 392.612 236.534 392.612 236.96C392.612 237.116 392.632 237.262 392.667 237.395L392.73 237.584C392.906 238.015 392.889 238.477 392.719 238.874L394.367 239.203C394.078 238.807 393.969 238.291 394.099 237.795L394.169 237.584C394.242 237.405 394.287 237.194 394.287 236.96C394.287 236.534 394.139 236.192 393.955 235.977C393.773 235.765 393.589 235.704 393.45 235.704ZM385.913 225.655C386.175 225.655 387.588 228.08 387.588 229.005C387.588 229.93 386.838 230.679 385.913 230.679C384.989 230.679 384.239 229.93 384.239 229.005C384.239 228.08 385.652 225.655 385.913 225.655Z" fill="#0066FF"/>
<path d="M391.55 166.56L380.192 185.45L421.192 255.712L387.931 293.012C387.931 293.012 414.074 292.856 413.919 293.012C413.764 293.167 445.016 257.881 445.016 257.881L391.55 166.56Z" fill="url(#paint1_linear_261_4332)"/>
<rect x="423.93" y="320.272" width="20.5775" height="26.2934" fill="#F3F3F3"/>
<line x1="303.895" y1="319.772" x2="473.087" y2="319.772" stroke="#E3E3E3"/>
<line x1="303.895" y1="346.066" x2="473.087" y2="346.066" stroke="#E3E3E3"/>
<rect x="78.1152" y="255.682" width="78.8802" height="29.723" rx="14.8615" fill="#D9F6DF"/>
<rect x="166.142" y="255.682" width="78.8802" height="29.723" rx="14.8615" fill="#F6F6F6"/>
<circle cx="345.05" cy="88.2049" r="14.8615" fill="#F3F3F3"/>
<g filter="url(#filter3_d_261_4332)">
<rect x="198.194" y="328.721" width="79.7167" height="80.3695" rx="20" transform="rotate(-0.56423 198.194 328.721)" fill="white"/>
</g>
<path d="M260.014 350.417H215.856C214.637 350.417 213.648 351.406 213.648 352.625V390.159C213.648 391.379 214.637 392.367 215.856 392.367H260.014C261.234 392.367 262.222 391.379 262.222 390.159V352.625C262.222 351.406 261.234 350.417 260.014 350.417Z" fill="#F8F9F9"/>
<path d="M242.352 384.639C242.059 384.639 241.778 384.523 241.571 384.316C241.364 384.109 241.248 383.828 241.248 383.535V379.12C241.248 378.241 240.899 377.399 240.278 376.778C239.656 376.157 238.814 375.808 237.936 375.808C237.057 375.808 236.215 376.157 235.594 376.778C234.973 377.399 234.624 378.241 234.624 379.12V383.535C234.624 383.828 234.508 384.109 234.301 384.316C234.094 384.523 233.813 384.639 233.52 384.639C233.227 384.639 232.946 384.523 232.739 384.316C232.532 384.109 232.416 383.828 232.416 383.535V379.12C232.416 377.656 232.998 376.252 234.033 375.217C235.068 374.182 236.472 373.6 237.936 373.6C239.4 373.6 240.804 374.182 241.839 375.217C242.874 376.252 243.455 377.656 243.455 379.12V383.535C243.455 383.828 243.339 384.109 243.132 384.316C242.925 384.523 242.644 384.639 242.352 384.639Z" fill="#BEC6C6"/>
<path d="M262.222 357.041H213.648V352.625C213.648 352.039 213.881 351.478 214.295 351.064C214.709 350.65 215.271 350.417 215.856 350.417H229.104L230.208 353.729H262.222V357.041Z" fill="#BEC6C6"/>
<path d="M260.015 349.313H215.857C214.978 349.313 214.136 349.662 213.515 350.283C212.894 350.904 212.545 351.747 212.545 352.625V390.159C212.545 391.037 212.894 391.88 213.515 392.501C214.136 393.122 214.978 393.471 215.857 393.471H260.015C260.893 393.471 261.735 393.122 262.356 392.501C262.978 391.88 263.326 391.037 263.326 390.159V352.625C263.326 351.747 262.978 350.904 262.356 350.283C261.735 349.662 260.893 349.313 260.015 349.313ZM215.857 351.521H260.015C260.307 351.521 260.588 351.637 260.795 351.844C261.002 352.051 261.119 352.332 261.119 352.625V355.937H214.753V352.625C214.753 352.332 214.869 352.051 215.076 351.844C215.283 351.637 215.564 351.521 215.857 351.521ZM260.015 391.263H215.857C215.564 391.263 215.283 391.147 215.076 390.94C214.869 390.733 214.753 390.452 214.753 390.159V358.145H261.119V390.159C261.119 390.452 261.002 390.733 260.795 390.94C260.588 391.147 260.307 391.263 260.015 391.263Z" fill="#414141"/>
<path d="M243.455 382.432H232.416C231.197 382.432 230.208 383.42 230.208 384.639V393.471C230.208 394.69 231.197 395.679 232.416 395.679H243.455C244.675 395.679 245.663 394.69 245.663 393.471V384.639C245.663 383.42 244.675 382.432 243.455 382.432Z" fill="#0066FF"/>
<path d="M237.935 385.743C237.454 385.748 236.987 385.911 236.606 386.206C236.225 386.501 235.951 386.913 235.826 387.378C235.701 387.843 235.731 388.337 235.913 388.783C236.094 389.229 236.417 389.604 236.831 389.85V391.263C236.831 391.556 236.948 391.837 237.155 392.044C237.362 392.251 237.643 392.367 237.935 392.367C238.228 392.367 238.509 392.251 238.716 392.044C238.923 391.837 239.039 391.556 239.039 391.263V389.85C239.454 389.604 239.776 389.229 239.958 388.783C240.14 388.337 240.17 387.843 240.045 387.378C239.92 386.913 239.646 386.501 239.265 386.206C238.884 385.911 238.417 385.748 237.935 385.743Z" fill="#F8F9F9"/>
<path d="M228 366.976C227.708 366.976 227.427 366.86 227.22 366.653C227.013 366.446 226.896 366.165 226.896 365.872V361.456C226.896 361.164 227.013 360.883 227.22 360.676C227.427 360.469 227.708 360.353 228 360.353C228.293 360.353 228.574 360.469 228.781 360.676C228.988 360.883 229.104 361.164 229.104 361.456V365.872C229.104 366.165 228.988 366.446 228.781 366.653C228.574 366.86 228.293 366.976 228 366.976Z" fill="#BEC6C6"/>
<path d="M223.584 380.224H219.168C218.876 380.224 218.595 380.107 218.388 379.9C218.181 379.693 218.064 379.412 218.064 379.12C218.064 378.827 218.181 378.546 218.388 378.339C218.595 378.132 218.876 378.016 219.168 378.016H223.584C223.877 378.016 224.158 378.132 224.365 378.339C224.572 378.546 224.688 378.827 224.688 379.12C224.688 379.412 224.572 379.693 224.365 379.9C224.158 380.107 223.877 380.224 223.584 380.224Z" fill="#BEC6C6"/>
<path d="M240.144 371.392H235.728C235.435 371.392 235.154 371.276 234.947 371.069C234.74 370.862 234.624 370.581 234.624 370.288C234.624 369.995 234.74 369.715 234.947 369.508C235.154 369.301 235.435 369.184 235.728 369.184H240.144C240.437 369.184 240.717 369.301 240.924 369.508C241.131 369.715 241.248 369.995 241.248 370.288C241.248 370.581 241.131 370.862 240.924 371.069C240.717 371.276 240.437 371.392 240.144 371.392Z" fill="#BEC6C6"/>
<path d="M223.584 366.976H219.168C218.876 366.976 218.595 366.86 218.388 366.653C218.181 366.446 218.064 366.165 218.064 365.872V361.456C218.064 361.164 218.181 360.883 218.388 360.676C218.595 360.469 218.876 360.353 219.168 360.353H223.584C223.877 360.353 224.158 360.469 224.365 360.676C224.572 360.883 224.688 361.164 224.688 361.456V365.872C224.688 366.165 224.572 366.446 224.365 366.653C224.158 366.86 223.877 366.976 223.584 366.976ZM220.272 364.768H222.48V362.56H220.272V364.768Z" fill="#BEC6C6"/>
<path d="M243.456 362.56H241.248V361.456C241.248 361.164 241.132 360.883 240.925 360.676C240.718 360.469 240.437 360.353 240.144 360.353H235.728C235.436 360.353 235.155 360.469 234.948 360.676C234.741 360.883 234.624 361.164 234.624 361.456V362.56H232.416C232.124 362.56 231.843 362.677 231.636 362.884C231.429 363.091 231.312 363.372 231.312 363.664C231.312 363.957 231.429 364.238 231.636 364.445C231.843 364.652 232.124 364.768 232.416 364.768H234.624V365.872C234.624 366.165 234.741 366.446 234.948 366.653C235.155 366.86 235.436 366.976 235.728 366.976H240.144C240.437 366.976 240.718 366.86 240.925 366.653C241.132 366.446 241.248 366.165 241.248 365.872V364.768H243.456C243.749 364.768 244.029 364.652 244.237 364.445C244.444 364.238 244.56 363.957 244.56 363.664C244.56 363.372 244.444 363.091 244.237 362.884C244.029 362.677 243.749 362.56 243.456 362.56ZM239.04 364.768H236.832V362.56H239.04V364.768Z" fill="#BEC6C6"/>
<path d="M228 375.808H223.584C223.292 375.808 223.011 375.692 222.804 375.485C222.597 375.278 222.48 374.997 222.48 374.704V370.288C222.48 369.995 222.597 369.715 222.804 369.508C223.011 369.301 223.292 369.184 223.584 369.184H228C228.293 369.184 228.574 369.301 228.781 369.508C228.988 369.715 229.104 369.995 229.104 370.288V374.704C229.104 374.997 228.988 375.278 228.781 375.485C228.574 375.692 228.293 375.808 228 375.808ZM224.688 373.6H226.896V371.392H224.688V373.6Z" fill="#BEC6C6"/>
<path d="M225.792 389.055H221.376C221.084 389.055 220.803 388.939 220.596 388.732C220.389 388.525 220.272 388.244 220.272 387.951V383.535C220.272 383.243 220.389 382.962 220.596 382.755C220.803 382.548 221.084 382.432 221.376 382.432H225.792C226.085 382.432 226.366 382.548 226.573 382.755C226.78 382.962 226.896 383.243 226.896 383.535V387.951C226.896 388.244 226.78 388.525 226.573 388.732C226.366 388.939 226.085 389.055 225.792 389.055ZM222.48 386.847H224.688V384.639H222.48V386.847Z" fill="#BEC6C6"/>
<path d="M247.872 366.976C247.579 366.976 247.298 366.86 247.091 366.653C246.884 366.446 246.768 366.165 246.768 365.872V361.456C246.768 361.164 246.884 360.883 247.091 360.676C247.298 360.469 247.579 360.353 247.872 360.353C248.164 360.353 248.445 360.469 248.652 360.676C248.859 360.883 248.975 361.164 248.975 361.456V365.872C248.975 366.165 248.859 366.446 248.652 366.653C248.445 366.86 248.164 366.976 247.872 366.976Z" fill="#BEC6C6"/>
<path d="M256.702 380.224H252.287C251.994 380.224 251.713 380.107 251.506 379.9C251.299 379.693 251.183 379.412 251.183 379.12C251.183 378.827 251.299 378.546 251.506 378.339C251.713 378.132 251.994 378.016 252.287 378.016H256.702C256.995 378.016 257.276 378.132 257.483 378.339C257.69 378.546 257.806 378.827 257.806 379.12C257.806 379.412 257.69 379.693 257.483 379.9C257.276 380.107 256.995 380.224 256.702 380.224Z" fill="#BEC6C6"/>
<path d="M256.702 366.976H252.287C251.994 366.976 251.713 366.86 251.506 366.653C251.299 366.446 251.183 366.165 251.183 365.872V361.456C251.183 361.164 251.299 360.883 251.506 360.676C251.713 360.469 251.994 360.353 252.287 360.353H256.702C256.995 360.353 257.276 360.469 257.483 360.676C257.69 360.883 257.806 361.164 257.806 361.456V365.872C257.806 366.165 257.69 366.446 257.483 366.653C257.276 366.86 256.995 366.976 256.702 366.976ZM253.391 364.768H255.598V362.56H253.391V364.768Z" fill="#BEC6C6"/>
<path d="M252.287 375.808H247.872C247.579 375.808 247.298 375.692 247.091 375.485C246.884 375.278 246.768 374.997 246.768 374.704V370.288C246.768 369.995 246.884 369.715 247.091 369.508C247.298 369.301 247.579 369.184 247.872 369.184H252.287C252.58 369.184 252.861 369.301 253.068 369.508C253.275 369.715 253.391 369.995 253.391 370.288V374.704C253.391 374.997 253.275 375.278 253.068 375.485C252.861 375.692 252.58 375.808 252.287 375.808ZM248.975 373.6H251.183V371.392H248.975V373.6Z" fill="#BEC6C6"/>
<path d="M254.495 389.055H250.08C249.787 389.055 249.506 388.939 249.299 388.732C249.092 388.525 248.976 388.244 248.976 387.951V383.535C248.976 383.243 249.092 382.962 249.299 382.755C249.506 382.548 249.787 382.432 250.08 382.432H254.495C254.788 382.432 255.069 382.548 255.276 382.755C255.483 382.962 255.599 383.243 255.599 383.535V387.951C255.599 388.244 255.483 388.525 255.276 388.732C255.069 388.939 254.788 389.055 254.495 389.055ZM251.183 386.847H253.391V384.639H251.183V386.847Z" fill="#BEC6C6"/>
<g filter="url(#filter4_d_261_4332)">
<rect x="506.496" y="81.8385" width="79.7167" height="80.3695" rx="20" transform="rotate(-0.56423 506.496 81.8385)" fill="white"/>
</g>
<path d="M561.694 131.434V138.058C561.694 138.643 561.461 139.205 561.047 139.619C560.633 140.033 560.071 140.266 559.486 140.266H532.991C532.406 140.266 531.844 140.033 531.43 139.619C531.016 139.205 530.783 138.643 530.783 138.058V131.434H561.694Z" fill="#BEC6C6"/>
<path d="M561.694 93.9V131.434H530.783V93.9C530.783 93.3145 531.016 92.7529 531.43 92.3388C531.844 91.9248 532.406 91.6921 532.991 91.6921H559.486C560.071 91.6921 560.633 91.9248 561.047 92.3388C561.461 92.7529 561.694 93.3145 561.694 93.9Z" fill="#F8F9F9"/>
<path d="M524.159 104.939H546.238V124.81H524.159C523.573 124.81 523.012 124.578 522.598 124.164C522.184 123.75 521.951 123.188 521.951 122.603V107.147C521.951 106.562 522.184 106 522.598 105.586C523.012 105.172 523.573 104.939 524.159 104.939Z" fill="#BEC6C6"/>
<path d="M546.238 109.355H521.951V113.771H546.238V109.355Z" fill="#F8F9F9"/>
<path d="M559.486 90.5881H532.991C532.113 90.5881 531.27 90.9371 530.649 91.5582C530.028 92.1792 529.679 93.0216 529.679 93.9V103.835H524.159C523.281 103.835 522.439 104.184 521.818 104.806C521.197 105.427 520.848 106.269 520.848 107.147V122.603C520.848 123.481 521.197 124.323 521.818 124.944C522.439 125.565 523.281 125.914 524.159 125.914H529.679V138.058C529.679 138.936 530.028 139.779 530.649 140.4C531.27 141.021 532.113 141.37 532.991 141.37H559.486C560.364 141.37 561.207 141.021 561.828 140.4C562.449 139.779 562.798 138.936 562.798 138.058V93.9C562.798 93.0216 562.449 92.1792 561.828 91.5582C561.207 90.9371 560.364 90.5881 559.486 90.5881ZM523.056 122.603V107.147C523.056 106.855 523.172 106.574 523.379 106.367C523.586 106.16 523.867 106.043 524.159 106.043H545.134V123.707H524.159C523.867 123.707 523.586 123.59 523.379 123.383C523.172 123.176 523.056 122.895 523.056 122.603ZM545.134 125.914V127.018C545.134 127.311 545.251 127.592 545.458 127.799C545.665 128.006 545.946 128.122 546.238 128.122C546.531 128.122 546.812 128.006 547.019 127.799C547.226 127.592 547.342 127.311 547.342 127.018V102.732C547.342 102.439 547.226 102.158 547.019 101.951C546.812 101.744 546.531 101.628 546.238 101.628C545.946 101.628 545.665 101.744 545.458 101.951C545.251 102.158 545.134 102.439 545.134 102.732V103.835H531.887V93.9C531.887 93.6072 532.003 93.3264 532.21 93.1194C532.417 92.9123 532.698 92.796 532.991 92.796H541.028C541.22 93.1297 541.497 93.4072 541.83 93.6009C542.163 93.7945 542.541 93.8976 542.927 93.9H549.55C549.936 93.8976 550.314 93.7945 550.647 93.6009C550.98 93.4072 551.256 93.1297 551.449 92.796H559.486C559.779 92.796 560.059 92.9123 560.266 93.1194C560.473 93.3264 560.59 93.6072 560.59 93.9V130.33H531.887V125.914H545.134ZM559.486 139.162H532.991C532.698 139.162 532.417 139.045 532.21 138.838C532.003 138.631 531.887 138.351 531.887 138.058V132.538H560.59V138.058C560.59 138.351 560.473 138.631 560.266 138.838C560.059 139.045 559.779 139.162 559.486 139.162Z" fill="#414141"/>
<path d="M561.693 136.954C558.8 135.988 556.284 134.137 554.501 131.663C552.718 129.188 551.758 126.216 551.758 123.166V113.771C553.457 114.111 555.214 114.025 556.872 113.523C558.53 113.02 560.038 112.116 561.263 110.89L561.693 110.459L562.124 110.89C563.347 112.117 564.856 113.023 566.514 113.526C568.173 114.028 569.93 114.113 571.629 113.771V123.166C571.628 126.216 570.669 129.188 568.886 131.663C567.102 134.137 564.586 135.988 561.693 136.954Z" fill="#0066FF"/>
<path d="M547.342 136.954H545.134C544.841 136.954 544.561 136.838 544.354 136.631C544.147 136.423 544.03 136.143 544.03 135.85C544.03 135.557 544.147 135.276 544.354 135.069C544.561 134.862 544.841 134.746 545.134 134.746H547.342C547.635 134.746 547.916 134.862 548.123 135.069C548.33 135.276 548.446 135.557 548.446 135.85C548.446 136.143 548.33 136.423 548.123 136.631C547.916 136.838 547.635 136.954 547.342 136.954Z" fill="#F8F9F9"/>
<path d="M539.615 121.499H526.368C526.075 121.499 525.794 121.382 525.587 121.175C525.38 120.968 525.264 120.688 525.264 120.395C525.264 120.102 525.38 119.821 525.587 119.614C525.794 119.407 526.075 119.291 526.368 119.291H539.615C539.908 119.291 540.189 119.407 540.396 119.614C540.603 119.821 540.719 120.102 540.719 120.395C540.719 120.688 540.603 120.968 540.396 121.175C540.189 121.382 539.908 121.499 539.615 121.499Z" fill="#F8F9F9"/>
<g filter="url(#filter5_d_261_4332)">
<rect x="32" y="10.892" width="90.5833" height="91.325" rx="20" transform="rotate(-0.56423 32 10.892)" fill="white"/>
</g>
<path d="M53.6772 70.2152C55.0074 70.2152 56.0858 69.1368 56.0858 67.8066C56.0858 66.4763 55.0074 65.3979 53.6772 65.3979C52.3469 65.3979 51.2686 66.4763 51.2686 67.8066C51.2686 69.1368 52.3469 70.2152 53.6772 70.2152Z" fill="#BEC6C6"/>
<path d="M68.1293 78.6453C69.4596 78.6453 70.5379 77.567 70.5379 76.2367C70.5379 74.9065 69.4596 73.8281 68.1293 73.8281C66.7991 73.8281 65.7207 74.9065 65.7207 76.2367C65.7207 77.567 66.7991 78.6453 68.1293 78.6453Z" fill="#F8F9F9"/>
<path d="M77.7631 75.0324C79.0933 75.0324 80.1717 73.9541 80.1717 72.6238C80.1717 71.2936 79.0933 70.2152 77.7631 70.2152C76.4329 70.2152 75.3545 71.2936 75.3545 72.6238C75.3545 73.9541 76.4329 75.0324 77.7631 75.0324Z" fill="#BEC6C6"/>
<path d="M101.85 70.2152C103.18 70.2152 104.259 69.1368 104.259 67.8066C104.259 66.4763 103.18 65.3979 101.85 65.3979C100.52 65.3979 99.4414 66.4763 99.4414 67.8066C99.4414 69.1368 100.52 70.2152 101.85 70.2152Z" fill="#BEC6C6"/>
<path d="M87.3979 78.6453C88.7281 78.6453 89.8065 77.567 89.8065 76.2367C89.8065 74.9065 88.7281 73.8281 87.3979 73.8281C86.0676 73.8281 84.9893 74.9065 84.9893 76.2367C84.9893 77.567 86.0676 78.6453 87.3979 78.6453Z" fill="#F8F9F9"/>
<path d="M103.054 52.1507C103.054 54.7059 102.039 57.1564 100.232 58.9632C98.4254 60.77 95.9748 61.7851 93.4196 61.7851H64.5163C61.6746 61.7857 58.9242 60.7814 56.7515 58.9498C54.5788 57.1182 53.1238 54.5773 52.6438 51.7764C52.1638 48.9755 52.6896 46.0951 54.1284 43.6445C55.5672 41.194 57.8262 39.3312 60.5059 38.3854C61.7488 34.3145 64.3892 30.8131 67.9616 28.4988C71.534 26.1846 75.8088 25.2061 80.0322 25.736C84.2556 26.2659 88.1562 28.2701 91.0461 31.3952C93.936 34.5203 95.6296 38.5654 95.8282 42.8173C97.8971 43.3515 99.7297 44.5583 101.038 46.2479C102.346 47.9374 103.055 50.0139 103.054 52.1507Z" fill="#F8F9F9"/>
<path d="M82.5809 54.5593C82.2615 54.5593 81.9552 54.4324 81.7294 54.2066C81.5035 53.9807 81.3766 53.6744 81.3766 53.355V48.5378C81.3766 47.5796 80.996 46.6606 80.3184 45.983C79.6409 45.3055 78.7219 44.9248 77.7637 44.9248C76.8055 44.9248 75.8865 45.3055 75.209 45.983C74.5314 46.6606 74.1508 47.5796 74.1508 48.5378V53.355C74.1508 53.6744 74.0239 53.9807 73.7981 54.2066C73.5722 54.4324 73.2659 54.5593 72.9465 54.5593C72.6271 54.5593 72.3208 54.4324 72.0949 54.2066C71.8691 53.9807 71.7422 53.6744 71.7422 53.355V48.5378C71.7422 46.9408 72.3766 45.4092 73.5059 44.2799C74.6351 43.1506 76.1667 42.5162 77.7637 42.5162C79.3607 42.5162 80.8923 43.1506 82.0216 44.2799C83.1508 45.4092 83.7852 46.9408 83.7852 48.5378V53.355C83.7852 53.6744 83.6584 53.9807 83.4325 54.2066C83.2067 54.4324 82.9003 54.5593 82.5809 54.5593Z" fill="#BEC6C6"/>
<path d="M78.9676 69.2277V65.398C78.9676 65.0786 78.8407 64.7723 78.6149 64.5465C78.389 64.3206 78.0827 64.1937 77.7633 64.1937C77.4439 64.1937 77.1376 64.3206 76.9117 64.5465C76.6859 64.7723 76.559 65.0786 76.559 65.398V69.2277C75.7555 69.5118 75.0782 70.0708 74.647 70.8059C74.2158 71.5411 74.0583 72.405 74.2024 73.245C74.3466 74.085 74.783 74.847 75.4346 75.3963C76.0862 75.9456 76.911 76.2469 77.7633 76.2469C78.6156 76.2469 79.4404 75.9456 80.092 75.3963C80.7436 74.847 81.1801 74.085 81.3242 73.245C81.4683 72.405 81.3108 71.5411 80.8796 70.8059C80.4484 70.0708 79.7711 69.5118 78.9676 69.2277ZM77.7633 73.8282C77.5251 73.8282 77.2923 73.7575 77.0942 73.6252C76.8962 73.4929 76.7418 73.3048 76.6507 73.0847C76.5595 72.8647 76.5357 72.6225 76.5821 72.3889C76.6286 72.1553 76.7433 71.9407 76.9117 71.7723C77.0802 71.6039 77.2948 71.4892 77.5284 71.4427C77.762 71.3962 78.0041 71.4201 78.2242 71.5112C78.4442 71.6024 78.6323 71.7567 78.7647 71.9548C78.897 72.1528 78.9676 72.3857 78.9676 72.6239C78.9676 72.9433 78.8407 73.2496 78.6149 73.4754C78.389 73.7013 78.0827 73.8282 77.7633 73.8282Z" fill="#414141"/>
<path d="M62.1076 71.4195H58.9884L56.9291 69.3602C57.2973 68.5912 57.3818 67.7168 57.1675 66.8915C56.9531 66.0663 56.4539 65.3435 55.758 64.8509C55.0621 64.3582 54.2144 64.1276 53.3649 64.1997C52.5154 64.2718 51.7187 64.6421 51.1158 65.245C50.5129 65.8479 50.1427 66.6445 50.0706 67.4941C49.9984 68.3436 50.2291 69.1913 50.7217 69.8872C51.2143 70.583 51.9372 71.0823 52.7624 71.2966C53.5876 71.5109 54.462 71.4265 55.231 71.0582L57.6396 73.4668C58.1093 73.9365 58.2659 73.8161 62.1076 73.8161C62.427 73.8161 62.7333 73.6892 62.9592 73.4634C63.185 73.2375 63.3119 72.9312 63.3119 72.6118C63.3119 72.2924 63.185 71.9861 62.9592 71.7602C62.7333 71.5344 62.427 71.4075 62.1076 71.4075V71.4195ZM52.4732 67.8066C52.4723 67.6086 52.5203 67.4134 52.613 67.2383C52.7056 67.0632 52.84 66.9137 53.0042 66.803C53.1684 66.6923 53.3574 66.6238 53.5544 66.6036C53.7514 66.5833 53.9504 66.612 54.1337 66.687C54.317 66.7621 54.4789 66.8811 54.6052 67.0337C54.7315 67.1863 54.8182 67.3676 54.8576 67.5617C54.8971 67.7558 54.888 67.9566 54.8313 68.1464C54.7746 68.3362 54.672 68.509 54.5325 68.6496C54.3648 68.8187 54.1507 68.9343 53.9173 68.9817C53.6839 69.0292 53.4416 69.0063 53.2212 68.9161C53.0008 68.8259 52.8121 68.6723 52.6789 68.4748C52.5458 68.2773 52.4741 68.0448 52.4732 67.8066Z" fill="#414141"/>
<path d="M101.849 64.1937C101.24 64.1954 100.641 64.3511 100.109 64.6463C99.5758 64.9415 99.1262 65.3667 98.8018 65.8822C98.4773 66.3977 98.2885 66.9869 98.2528 67.595C98.2171 68.203 98.3357 68.8103 98.5977 69.3602L96.5383 71.4196H93.4191C93.0997 71.4196 92.7934 71.5464 92.5676 71.7723C92.3417 71.9981 92.2148 72.3045 92.2148 72.6239C92.2148 72.9433 92.3417 73.2496 92.5676 73.4754C92.7934 73.7013 93.0997 73.8282 93.4191 73.8282C97.3452 73.8282 97.4174 73.9366 97.8871 73.4789L100.296 71.0703C100.785 71.3027 101.321 71.422 101.862 71.4195C102.404 71.417 102.938 71.2927 103.426 71.0557C103.913 70.8188 104.34 70.4753 104.677 70.0507C105.013 69.6261 105.25 69.1313 105.37 68.6028C105.489 68.0743 105.488 67.5258 105.367 66.9978C105.245 66.4698 105.007 65.9758 104.669 65.5524C104.331 65.129 103.902 64.7871 103.414 64.5519C102.926 64.3167 102.391 64.1943 101.849 64.1937ZM101.006 68.6617C100.837 68.494 100.722 68.2799 100.674 68.0465C100.627 67.813 100.65 67.5708 100.74 67.3504C100.83 67.13 100.984 66.9412 101.181 66.8081C101.379 66.6749 101.611 66.6033 101.849 66.6023C102.047 66.6015 102.243 66.6495 102.418 66.7422C102.593 66.8348 102.742 66.9692 102.853 67.1334C102.964 67.2976 103.032 67.4866 103.052 67.6836C103.073 67.8806 103.044 68.0796 102.969 68.2629C102.894 68.4462 102.775 68.6081 102.622 68.7344C102.47 68.8607 102.288 68.9474 102.094 68.9868C101.9 69.0263 101.699 69.0172 101.51 68.9605C101.32 68.9038 101.147 68.8012 101.006 68.6617Z" fill="#414141"/>
<path d="M92.2148 62.9894H93.4191C95.9838 62.9896 98.4655 62.0804 100.423 60.4234C102.38 58.7664 103.687 56.469 104.11 53.9395C104.534 51.41 104.046 48.8123 102.735 46.6083C101.423 44.4043 99.3728 42.7367 96.9477 41.902C96.53 37.5188 94.6237 33.4108 91.5462 30.2619C88.4686 27.1129 84.4054 25.113 80.0329 24.5949C75.6604 24.0769 71.2423 25.072 67.5141 27.4145C63.7859 29.7571 60.9724 33.3059 59.542 37.4702C56.7636 38.5696 54.4385 40.576 52.9443 43.1637C51.4501 45.7513 50.8745 48.768 51.3112 51.724C51.7478 54.6799 53.1709 57.4015 55.3494 59.4466C57.528 61.4917 60.3339 62.7402 63.3115 62.9894V67.8066C63.3125 68.005 63.3625 68.2 63.4571 68.3744C63.5516 68.5488 63.6878 68.6971 63.8534 68.8062L66.9244 70.8656V72.8406C66.1209 73.1247 65.4437 73.6837 65.0124 74.4188C64.5812 75.154 64.4237 76.0179 64.5678 76.8579C64.712 77.6979 65.1484 78.4599 65.8 79.0092C66.4516 79.5585 67.2764 79.8598 68.1287 79.8598C68.981 79.8598 69.8058 79.5585 70.4574 79.0092C71.109 78.4599 71.5455 77.6979 71.6896 76.8579C71.8337 76.0179 71.6763 75.154 71.245 74.4188C70.8138 73.6837 70.1366 73.1247 69.333 72.8406V70.2152C69.332 70.0169 69.282 69.8218 69.1874 69.6475C69.0929 69.4731 68.9568 69.3247 68.7911 69.2157L65.7201 67.1563V62.9894H89.8062V67.1563L86.7352 69.2157C86.5696 69.3247 86.4334 69.4731 86.3389 69.6475C86.2443 69.8218 86.1943 70.0169 86.1933 70.2152V72.8406C85.3898 73.1247 84.7125 73.6837 84.2813 74.4188C83.8501 75.154 83.6926 76.0179 83.8367 76.8579C83.9808 77.6979 84.4173 78.4599 85.0689 79.0092C85.7205 79.5585 86.5453 79.8598 87.3976 79.8598C88.2499 79.8598 89.0747 79.5585 89.7263 79.0092C90.3779 78.4599 90.8144 77.6979 90.9585 76.8579C91.1026 76.0179 90.9451 75.154 90.5139 74.4188C90.0827 73.6837 89.4054 73.1247 88.6019 72.8406V70.8656L91.6729 68.8062C91.8386 68.6971 91.9747 68.5488 92.0692 68.3744C92.1638 68.2 92.2138 68.005 92.2148 67.8066V62.9894ZM68.1287 77.4411C67.8905 77.4411 67.6577 77.3704 67.4596 77.2381C67.2616 77.1058 67.1072 76.9177 67.0161 76.6976C66.9249 76.4776 66.9011 76.2354 66.9476 76.0018C66.994 75.7682 67.1087 75.5536 67.2771 75.3852C67.4456 75.2168 67.6602 75.1021 67.8938 75.0556C68.1274 75.0091 68.3695 75.033 68.5896 75.1241C68.8096 75.2153 68.9977 75.3696 69.1301 75.5677C69.2624 75.7657 69.333 75.9986 69.333 76.2368C69.333 76.5562 69.2061 76.8625 68.9803 77.0883C68.7544 77.3142 68.4481 77.4411 68.1287 77.4411ZM53.6771 49.742C53.6759 47.4997 54.3702 45.3121 55.6644 43.4809C56.9585 41.6497 58.7888 40.2649 60.9029 39.5175C61.0785 39.4555 61.2373 39.3536 61.3668 39.2199C61.4964 39.0861 61.5932 38.9242 61.6496 38.7467C62.8059 34.943 65.2691 31.6703 68.6043 29.5065C71.9394 27.3427 75.9319 26.427 79.8767 26.9212C83.8214 27.4153 87.4647 29.2876 90.163 32.2072C92.8613 35.1269 94.4411 38.9061 94.6234 42.8775C94.6359 43.1344 94.7304 43.3806 94.8929 43.58C95.0554 43.7794 95.2775 43.9215 95.5267 43.9855C97.5158 44.4963 99.2501 45.7157 100.404 47.4147C101.558 49.1136 102.052 51.1754 101.793 53.2127C101.534 55.2501 100.54 57.1229 98.9987 58.4795C97.4569 59.8362 95.4728 60.5834 93.4191 60.5808H64.5158C61.6412 60.5808 58.8843 59.4388 56.8517 57.4062C54.819 55.3735 53.6771 52.6167 53.6771 49.742ZM87.3976 77.4411C87.1594 77.4411 86.9266 77.3704 86.7285 77.2381C86.5305 77.1058 86.3761 76.9177 86.285 76.6976C86.1938 76.4776 86.17 76.2354 86.2164 76.0018C86.2629 75.7682 86.3776 75.5536 86.546 75.3852C86.7145 75.2168 86.929 75.1021 87.1627 75.0556C87.3963 75.0091 87.6384 75.033 87.8585 75.1241C88.0785 75.2153 88.2666 75.3696 88.3989 75.5677C88.5313 75.7657 88.6019 75.9986 88.6019 76.2368C88.6019 76.5562 88.475 76.8625 88.2492 77.0883C88.0233 77.3142 87.717 77.4411 87.3976 77.4411Z" fill="#414141"/>
<path d="M83.7847 52.1506H71.7416C70.4114 52.1506 69.333 53.229 69.333 54.5592V64.1937C69.333 65.5239 70.4114 66.6023 71.7416 66.6023H83.7847C85.1149 66.6023 86.1933 65.5239 86.1933 64.1937V54.5592C86.1933 53.229 85.1149 52.1506 83.7847 52.1506Z" fill="#0066FF"/>
<path d="M77.7639 55.7635C77.2383 55.7689 76.7288 55.9461 76.3133 56.2681C75.8977 56.59 75.5989 57.0391 75.4625 57.5468C75.326 58.0544 75.3594 58.5928 75.5574 59.0797C75.7555 59.5666 76.1075 59.9754 76.5596 60.2436V61.7851C76.5596 62.1045 76.6865 62.4108 76.9123 62.6367C77.1382 62.8625 77.4445 62.9894 77.7639 62.9894C78.0833 62.9894 78.3896 62.8625 78.6155 62.6367C78.8413 62.4108 78.9682 62.1045 78.9682 61.7851V60.2436C79.4203 59.9754 79.7723 59.5666 79.9704 59.0797C80.1685 58.5928 80.2018 58.0544 80.0654 57.5468C79.9289 57.0391 79.6301 56.59 79.2146 56.2681C78.799 55.9461 78.2896 55.7689 77.7639 55.7635Z" fill="#F8F9F9"/>
<path d="M67.5274 36.4946C67.3006 36.4931 67.0787 36.4276 66.8875 36.3055C66.6962 36.1835 66.5433 36.0099 66.4464 35.8047C66.3495 35.5996 66.3125 35.3713 66.3397 35.146C66.3669 34.9208 66.4572 34.7078 66.6001 34.5316C68.4632 32.2493 70.9875 30.6001 73.826 29.8107C74.1238 29.7504 74.4335 29.8049 74.6929 29.9633C74.9523 30.1217 75.1422 30.3724 75.2245 30.665C75.3068 30.9576 75.2754 31.2705 75.1366 31.5409C74.9978 31.8113 74.762 32.0192 74.4763 32.123C72.1107 32.7759 70.0065 34.1479 68.4548 36.049C68.3427 36.1872 68.2014 36.2988 68.0411 36.3758C67.8807 36.4529 67.7053 36.4935 67.5274 36.4946Z" fill="#BEC6C6"/>
<defs>
<filter id="filter0_f_261_4332" x="227.361" y="142.564" width="498.886" height="438.869" filterUnits="userSpaceOnUse" color-interpolation-filters="sRGB">
<feFlood flood-opacity="0" result="BackgroundImageFix"/>
<feBlend mode="normal" in="SourceGraphic" in2="BackgroundImageFix" result="shape"/>
<feGaussianBlur stdDeviation="100" result="effect1_foregroundBlur_261_4332"/>
</filter>
<filter id="filter1_d_261_4332" x="0.678711" y="31.3358" width="432.098" height="356.647" filterUnits="userSpaceOnUse" color-interpolation-filters="sRGB">
<feFlood flood-opacity="0" result="BackgroundImageFix"/>
<feColorMatrix in="SourceAlpha" type="matrix" values="0 0 0 0 0 0 0 0 0 0 0 0 0 0 0 0 0 0 127 0" result="hardAlpha"/>
<feOffset dy="32"/>
<feGaussianBlur stdDeviation="25"/>
<feComposite in2="hardAlpha" operator="out"/>
<feColorMatrix type="matrix" values="0 0 0 0 0.7625 0 0 0 0 0.7625 0 0 0 0 0.7625 0 0 0 0.25 0"/>
<feBlend mode="normal" in2="BackgroundImageFix" result="effect1_dropShadow_261_4332"/>
<feBlend mode="normal" in="SourceGraphic" in2="effect1_dropShadow_261_4332" result="shape"/>
</filter>
<filter id="filter2_d_261_4332" x="238.462" y="115.932" width="306.918" height="334.354" filterUnits="userSpaceOnUse" color-interpolation-filters="sRGB">
<feFlood flood-opacity="0" result="BackgroundImageFix"/>
<feColorMatrix in="SourceAlpha" type="matrix" values="0 0 0 0 0 0 0 0 0 0 0 0 0 0 0 0 0 0 127 0" result="hardAlpha"/>
<feOffset dy="32"/>
<feGaussianBlur stdDeviation="25"/>
<feComposite in2="hardAlpha" operator="out"/>
<feColorMatrix type="matrix" values="0 0 0 0 0.7625 0 0 0 0 0.7625 0 0 0 0 0.7625 0 0 0 0.25 0"/>
<feBlend mode="normal" in2="BackgroundImageFix" result="effect1_dropShadow_261_4332"/>
<feBlend mode="normal" in="SourceGraphic" in2="effect1_dropShadow_261_4332" result="shape"/>
</filter>
<filter id="filter3_d_261_4332" x="172.391" y="318.132" width="132.112" height="132.759" filterUnits="userSpaceOnUse" color-interpolation-filters="sRGB">
<feFlood flood-opacity="0" result="BackgroundImageFix"/>
<feColorMatrix in="SourceAlpha" type="matrix" values="0 0 0 0 0 0 0 0 0 0 0 0 0 0 0 0 0 0 127 0" result="hardAlpha"/>
<feOffset dy="16"/>
<feGaussianBlur stdDeviation="13"/>
<feComposite in2="hardAlpha" operator="out"/>
<feColorMatrix type="matrix" values="0 0 0 0 0.625 0 0 0 0 0.625 0 0 0 0 0.625 0 0 0 0.25 0"/>
<feBlend mode="normal" in2="BackgroundImageFix" result="effect1_dropShadow_261_4332"/>
<feBlend mode="normal" in="SourceGraphic" in2="effect1_dropShadow_261_4332" result="shape"/>
</filter>
<filter id="filter4_d_261_4332" x="480.692" y="71.2494" width="132.112" height="132.759" filterUnits="userSpaceOnUse" color-interpolation-filters="sRGB">
<feFlood flood-opacity="0" result="BackgroundImageFix"/>
<feColorMatrix in="SourceAlpha" type="matrix" values="0 0 0 0 0 0 0 0 0 0 0 0 0 0 0 0 0 0 127 0" result="hardAlpha"/>
<feOffset dy="16"/>
<feGaussianBlur stdDeviation="13"/>
<feComposite in2="hardAlpha" operator="out"/>
<feColorMatrix type="matrix" values="0 0 0 0 0.625 0 0 0 0 0.625 0 0 0 0 0.625 0 0 0 0.25 0"/>
<feBlend mode="normal" in2="BackgroundImageFix" result="effect1_dropShadow_261_4332"/>
<feBlend mode="normal" in="SourceGraphic" in2="effect1_dropShadow_261_4332" result="shape"/>
</filter>
<filter id="filter5_d_261_4332" x="6.19629" y="0.195923" width="143.086" height="143.821" filterUnits="userSpaceOnUse" color-interpolation-filters="sRGB">
<feFlood flood-opacity="0" result="BackgroundImageFix"/>
<feColorMatrix in="SourceAlpha" type="matrix" values="0 0 0 0 0 0 0 0 0 0 0 0 0 0 0 0 0 0 127 0" result="hardAlpha"/>
<feOffset dy="16"/>
<feGaussianBlur stdDeviation="13"/>
<feComposite in2="hardAlpha" operator="out"/>
<feColorMatrix type="matrix" values="0 0 0 0 0.625 0 0 0 0 0.625 0 0 0 0 0.625 0 0 0 0.25 0"/>
<feBlend mode="normal" in2="BackgroundImageFix" result="effect1_dropShadow_261_4332"/>
<feBlend mode="normal" in="SourceGraphic" in2="effect1_dropShadow_261_4332" result="shape"/>
</filter>
<linearGradient id="paint0_linear_261_4332" x1="466.801" y1="30.4731" x2="466.801" y2="200.809" gradientUnits="userSpaceOnUse">
<stop stop-color="#D1EEFF"/>
<stop offset="1" stop-color="#D3EFFF" stop-opacity="0"/>
</linearGradient>
<linearGradient id="paint1_linear_261_4332" x1="380.192" y1="256.13" x2="471.441" y2="262.687" gradientUnits="userSpaceOnUse">
<stop stop-color="#319CFF"/>
<stop offset="0.275793" stop-color="#AED8FF"/>
<stop offset="0.916667" stop-color="#0B86F8"/>
</linearGradient>
</defs>
</svg>
