<svg width="460" height="354" viewBox="0 0 460 354" fill="none" xmlns="http://www.w3.org/2000/svg">
<rect width="460" height="353.897" rx="30" fill="#0066FF"/>
<circle cx="147.622" cy="212.865" r="67.8797" fill="url(#paint0_linear_104_16401)"/>
<circle cx="315.014" cy="136.418" r="94.2407" fill="url(#paint1_linear_104_16401)"/>
<path d="M320.277 86.3322H56.0171V76.3069C56.0171 73.1144 58.5178 70.5156 61.6108 70.5156H314.693C317.776 70.5156 320.286 73.1047 320.286 76.3069V86.3322H320.277Z" fill="#4B48C8"/>
<rect x="63.9255" y="74.4697" width="59.9713" height="7.90831" rx="3.95415" fill="#7C79FF"/>
<path d="M297.639 78.3068C297.639 79.6979 296.513 80.8256 295.123 80.8256C293.734 80.8256 292.607 79.6979 292.607 78.3068C292.607 76.9158 293.734 75.7881 295.123 75.7881C296.513 75.7881 297.639 76.9158 297.639 78.3068Z" fill="white"/>
<path d="M306.266 78.3068C306.266 79.6979 305.139 80.8256 303.75 80.8256C302.36 80.8256 301.234 79.6979 301.234 78.3068C301.234 76.9158 302.36 75.7881 303.75 75.7881C305.139 75.7881 306.266 76.9158 306.266 78.3068Z" fill="#E8F4FF"/>
<path d="M314.9 78.3068C314.9 79.6979 313.774 80.8256 312.384 80.8256C310.995 80.8256 309.868 79.6979 309.868 78.3068C309.868 76.9158 310.995 75.7881 312.384 75.7881C313.774 75.7881 314.9 76.9158 314.9 78.3068Z" fill="#CEDFFD"/>
<path d="M56.0173 86.3325H320.287V223.931C320.287 230.559 314.914 235.931 308.287 235.931H68.0173C61.3899 235.931 56.0173 230.559 56.0173 223.931V86.3325Z" fill="#F7F7F7"/>
<rect x="76.947" y="96.0591" width="208.57" height="9.54441" rx="4.77221" fill="#EBF2EC" stroke="#B0D9B4"/>
<path d="M298.326 103.551L296.844 102.068C297.684 100.763 297.532 99.002 296.389 97.8636C295.073 96.5481 292.933 96.5481 291.617 97.8636C290.302 99.1791 290.302 101.319 291.617 102.635C292.761 103.778 294.516 103.93 295.822 103.09L297.304 104.573C297.588 104.856 298.043 104.856 298.326 104.573C298.61 104.289 298.61 103.829 298.326 103.551ZM292.452 101.795C291.597 100.94 291.597 99.5485 292.452 98.6934C293.307 97.8383 294.699 97.8383 295.554 98.6934C296.409 99.5485 296.409 100.94 295.554 101.795C294.699 102.655 293.307 102.655 292.452 101.795Z" fill="#D9D9D9"/>
<rect x="188.481" y="131.146" width="92.9226" height="9.22636" rx="4.61318" fill="#E3E3E3"/>
<rect x="188.481" y="144.327" width="63.9255" height="9.22636" rx="4.61318" fill="#E3E3E3"/>
<rect x="182" y="193" width="34" height="12" rx="6" fill="#4F4F4F"/>
<path d="M190.786 196.628C190.547 196.628 190.332 196.671 190.143 196.758C189.956 196.844 189.798 196.97 189.668 197.134C189.538 197.296 189.439 197.493 189.371 197.725C189.302 197.955 189.268 198.215 189.268 198.504C189.268 198.892 189.323 199.226 189.432 199.506C189.542 199.784 189.708 199.998 189.931 200.148C190.155 200.297 190.437 200.371 190.779 200.371C190.991 200.371 191.197 200.35 191.398 200.309C191.598 200.268 191.806 200.212 192.02 200.142V200.839C191.817 200.919 191.612 200.977 191.405 201.013C191.197 201.05 190.958 201.068 190.687 201.068C190.176 201.068 189.753 200.962 189.415 200.75C189.08 200.538 188.83 200.24 188.663 199.854C188.499 199.469 188.417 199.018 188.417 198.501C188.417 198.123 188.47 197.776 188.574 197.462C188.679 197.147 188.832 196.876 189.032 196.648C189.233 196.418 189.48 196.242 189.774 196.119C190.07 195.993 190.409 195.931 190.789 195.931C191.04 195.931 191.286 195.959 191.528 196.016C191.771 196.071 191.997 196.149 192.204 196.252L191.917 196.929C191.744 196.847 191.563 196.776 191.374 196.717C191.185 196.658 190.989 196.628 190.786 196.628ZM193.814 195.681V197.018C193.814 197.157 193.81 197.292 193.801 197.424C193.794 197.556 193.786 197.659 193.777 197.732H193.821C193.901 197.6 193.999 197.492 194.115 197.407C194.231 197.321 194.361 197.256 194.505 197.212C194.65 197.169 194.805 197.147 194.969 197.147C195.259 197.147 195.505 197.196 195.708 197.294C195.911 197.39 196.066 197.539 196.173 197.742C196.282 197.945 196.337 198.208 196.337 198.532V201H195.533V198.682C195.533 198.388 195.473 198.168 195.352 198.022C195.232 197.874 195.045 197.8 194.792 197.8C194.548 197.8 194.354 197.852 194.211 197.954C194.069 198.054 193.968 198.204 193.906 198.402C193.845 198.598 193.814 198.837 193.814 199.12V201H193.011V195.681H193.814ZM198.969 197.144C199.306 197.144 199.595 197.214 199.837 197.353C200.078 197.492 200.264 197.689 200.394 197.944C200.524 198.199 200.589 198.504 200.589 198.86V199.291H198.063C198.072 199.657 198.17 199.94 198.357 200.138C198.546 200.336 198.81 200.436 199.15 200.436C199.391 200.436 199.608 200.413 199.799 200.367C199.993 200.319 200.192 200.25 200.397 200.159V200.812C200.208 200.9 200.016 200.965 199.82 201.006C199.624 201.047 199.389 201.068 199.115 201.068C198.744 201.068 198.417 200.996 198.135 200.853C197.854 200.707 197.634 200.49 197.475 200.203C197.318 199.916 197.239 199.559 197.239 199.133C197.239 198.709 197.311 198.349 197.454 198.053C197.598 197.757 197.8 197.531 198.059 197.376C198.319 197.222 198.622 197.144 198.969 197.144ZM198.969 197.749C198.716 197.749 198.51 197.831 198.353 197.995C198.198 198.159 198.107 198.4 198.08 198.716H199.802C199.8 198.527 199.768 198.36 199.707 198.214C199.648 198.068 199.556 197.954 199.433 197.872C199.313 197.79 199.158 197.749 198.969 197.749ZM202.978 197.144C203.456 197.144 203.817 197.25 204.061 197.462C204.307 197.674 204.43 198.004 204.43 198.453V201H203.86L203.706 200.463H203.678C203.571 200.6 203.461 200.712 203.347 200.801C203.233 200.89 203.101 200.956 202.95 201C202.802 201.045 202.621 201.068 202.407 201.068C202.181 201.068 201.98 201.027 201.802 200.945C201.624 200.861 201.484 200.733 201.382 200.562C201.279 200.391 201.228 200.175 201.228 199.913C201.228 199.523 201.372 199.23 201.662 199.034C201.954 198.838 202.393 198.73 202.981 198.709L203.637 198.686V198.487C203.637 198.225 203.576 198.038 203.453 197.927C203.332 197.815 203.161 197.759 202.94 197.759C202.751 197.759 202.568 197.787 202.39 197.841C202.212 197.896 202.039 197.963 201.87 198.043L201.611 197.476C201.795 197.378 202.005 197.298 202.24 197.236C202.476 197.175 202.723 197.144 202.978 197.144ZM203.634 199.191L203.145 199.208C202.744 199.222 202.463 199.291 202.301 199.414C202.139 199.537 202.058 199.705 202.058 199.919C202.058 200.106 202.114 200.243 202.226 200.33C202.337 200.414 202.484 200.456 202.667 200.456C202.945 200.456 203.175 200.377 203.357 200.22C203.542 200.061 203.634 199.827 203.634 199.52V199.191ZM207.496 197.144C207.945 197.144 208.305 197.308 208.576 197.636C208.85 197.964 208.987 198.452 208.987 199.099C208.987 199.528 208.923 199.889 208.795 200.183C208.67 200.474 208.493 200.695 208.265 200.846C208.04 200.994 207.777 201.068 207.476 201.068C207.284 201.068 207.118 201.043 206.977 200.993C206.836 200.943 206.715 200.878 206.615 200.798C206.514 200.716 206.43 200.627 206.362 200.531H206.314C206.325 200.622 206.335 200.724 206.344 200.835C206.356 200.945 206.362 201.045 206.362 201.136V202.678H205.555V197.216H206.211L206.324 197.739H206.362C206.432 197.632 206.518 197.533 206.618 197.441C206.72 197.35 206.844 197.278 206.987 197.226C207.133 197.171 207.303 197.144 207.496 197.144ZM207.281 197.8C207.06 197.8 206.882 197.845 206.748 197.934C206.616 198.02 206.519 198.151 206.457 198.327C206.398 198.502 206.366 198.722 206.362 198.986V199.099C206.362 199.379 206.39 199.618 206.447 199.813C206.506 200.007 206.603 200.155 206.738 200.258C206.874 200.358 207.059 200.408 207.291 200.408C207.487 200.408 207.649 200.355 207.777 200.248C207.906 200.14 208.003 199.988 208.067 199.79C208.131 199.591 208.163 199.358 208.163 199.089C208.163 198.681 208.09 198.364 207.944 198.139C207.801 197.913 207.58 197.8 207.281 197.8Z" fill="white"/>
<rect x="188.481" y="159.484" width="102.149" height="3.95415" rx="1.97708" fill="#EBEBEB"/>
<rect x="188.481" y="169.37" width="102.149" height="3.95415" rx="1.97708" fill="#EBEBEB"/>
<rect x="188.481" y="179.255" width="37.5645" height="3.95415" rx="1.97708" fill="#EBEBEB"/>
<rect x="76.447" y="128.51" width="94.2407" height="82.3782" rx="6" fill="#EAEAEA"/>
<rect x="93.5818" y="161.461" width="61.9484" height="3.95415" rx="1.97708" fill="#D9D9D9"/>
<rect x="93.5818" y="171.347" width="61.9484" height="3.95415" rx="1.97708" fill="#D9D9D9"/>
<rect x="93.5818" y="181.232" width="61.9484" height="3.95415" rx="1.97708" fill="#D9D9D9"/>
<rect x="93.5818" y="191.118" width="23.0659" height="3.95415" rx="1.97708" fill="#D9D9D9"/>
<g clip-path="url(#clip0_104_16401)">
<path d="M116.71 142.39C120.917 134.529 117.956 124.746 110.095 120.538C102.234 116.331 92.4505 119.293 88.2432 127.154C84.0359 135.015 86.9978 144.798 94.8587 149.005C102.72 153.212 112.503 150.251 116.71 142.39Z" fill="#6CCB71"/>
<path d="M98.0698 141.798L94.1224 137.22C93.5568 136.566 93.6864 135.641 94.4052 135.158C95.124 134.681 96.1727 134.822 96.7383 135.476L98.8534 137.933C99.1362 138.263 99.637 138.287 99.9551 137.992L108.61 129.85C109.24 129.261 110.224 129.296 110.813 129.926C111.403 130.557 111.367 131.541 110.737 132.13L100.315 141.922C99.6664 142.529 98.6472 142.47 98.0698 141.798Z" fill="white"/>
</g>
<path d="M258.873 312.914H388.824C392.398 312.914 395.291 310.016 395.291 306.437V149.485C395.291 145.906 392.398 143.009 388.824 143.009H258.873C255.3 143.009 252.407 145.906 252.407 149.485V306.437C252.407 310.016 255.3 312.914 258.873 312.914Z" fill="#DBDFFF"/>
<path d="M252.407 160.719H395.302V149.485C395.302 145.906 392.408 143.009 388.835 143.009H258.873C255.3 143.009 252.407 145.906 252.407 149.485V160.719Z" fill="#6252D7"/>
<path d="M288.507 152.459C288.507 154.708 290.32 156.524 292.566 156.524C294.811 156.524 296.625 154.708 296.625 152.459C296.625 150.21 294.811 148.394 292.566 148.394C290.32 148.394 288.507 150.221 288.507 152.459Z" fill="white"/>
<path d="M274.583 152.459C274.583 154.708 276.397 156.524 278.642 156.524C280.888 156.524 282.701 154.708 282.701 152.459C282.701 150.21 280.888 148.394 278.642 148.394C276.397 148.394 274.583 150.221 274.583 152.459Z" fill="#E8F4FF"/>
<path d="M260.667 152.459C260.667 154.708 262.48 156.524 264.726 156.524C266.971 156.524 268.785 154.708 268.785 152.459C268.785 150.21 266.971 148.394 264.726 148.394C262.48 148.394 260.667 150.221 260.667 152.459Z" fill="#B7C2FB"/>
<path d="M355.036 182.69H268.88V187.664H355.036V182.69Z" fill="white"/>
<path d="M372.686 182.69H362.506V187.664H372.686V182.69Z" fill="white"/>
<path d="M291.464 196.258H268.88V201.232H291.464V196.258Z" fill="white"/>
<path d="M337.471 196.258H305.917V201.232H337.471V196.258Z" fill="white"/>
<path d="M324.431 208.023H305.917V212.997H324.431V208.023Z" fill="white"/>
<path d="M343.408 208.023H330.691V212.997H343.408V208.023Z" fill="white"/>
<path d="M349.173 266.832H305.917V271.805H349.173V266.832Z" fill="white"/>
<path d="M324.431 219.787H305.917V224.76H324.431V219.787Z" fill="white"/>
<path d="M361.36 219.787H330.691V224.76H361.36V219.787Z" fill="white"/>
<path d="M291.464 231.54H268.88V236.514H291.464V231.54Z" fill="white"/>
<path d="M337.471 231.54H305.917V236.514H337.471V231.54Z" fill="white"/>
<path d="M324.431 243.304H305.917V248.277H324.431V243.304Z" fill="white"/>
<path d="M361.36 243.304H330.691V248.277H361.36V243.304Z" fill="white"/>
<path d="M324.431 255.068H305.917V260.042H324.431V255.068Z" fill="white"/>
<path d="M361.36 255.068H330.691V260.042H361.36V255.068Z" fill="white"/>
<path d="M324.431 290.349H305.917V295.322H324.431V290.349Z" fill="white"/>
<g filter="url(#filter0_d_104_16401)">
<circle cx="400.564" cy="262.622" r="25.8256" fill="#EBEBEB"/>
<circle cx="400.564" cy="262.622" r="25.5756" stroke="#D6D6D6" stroke-width="0.5"/>
</g>
<path d="M396.705 250.156L386 268.362L394.435 277.999H397.608L402.246 272.601H397.093L392.549 267.548L399.828 255.168L396.705 250.156Z" fill="#0066FF"/>
<path d="M401.044 260.515C401.059 260.515 401.082 260.555 401.108 260.617L401.149 260.723C401.156 260.742 401.163 260.762 401.17 260.783L401.21 260.91C401.217 260.931 401.223 260.952 401.228 260.973L401.257 261.089C401.269 261.141 401.276 261.185 401.276 261.21L401.275 261.234C401.403 261.261 401.521 261.311 401.626 261.378C401.63 261.349 401.639 261.32 401.655 261.293C401.672 261.264 401.716 261.213 401.771 261.156L401.862 261.066L401.96 260.976L402.054 260.896C402.129 260.836 402.188 260.798 402.203 260.807C402.222 260.818 402.213 260.917 402.19 261.039L402.164 261.167L402.133 261.295L402.101 261.41C402.085 261.462 402.069 261.503 402.056 261.525C402.023 261.583 401.969 261.621 401.909 261.635C402.097 261.871 402.203 262.179 402.203 262.485C402.203 262.669 402.168 262.846 402.102 263.007C402.071 263.084 402.021 263.148 401.961 263.196L401.913 263.229L401.922 263.231C402.331 263.312 402.632 263.656 402.664 264.067L402.667 264.14V264.958L402.803 264.822C402.984 264.641 403.277 264.641 403.458 264.822C403.625 264.99 403.638 265.252 403.497 265.434L403.458 265.478L402.667 266.269V267.468C402.905 267.468 403.1 267.647 403.127 267.877L403.13 267.931V268.859C403.386 268.859 403.594 269.066 403.594 269.322C403.594 269.56 403.415 269.756 403.184 269.782L403.13 269.786H398.958C398.702 269.786 398.495 269.578 398.495 269.322C398.495 269.084 398.674 268.888 398.904 268.862L398.958 268.859V267.931C398.958 267.694 399.137 267.498 399.368 267.471L399.422 267.468V265.806L398.631 265.014C398.558 264.942 398.512 264.848 398.499 264.748L398.495 264.687V261.843C398.356 261.763 398.263 261.613 398.263 261.442C398.263 261.204 398.442 261.008 398.673 260.981L398.727 260.978H399.19C399.446 260.978 399.654 261.186 399.654 261.442C399.654 261.505 399.641 261.565 399.618 261.62L399.592 261.673L399.9 262.288C399.935 262.05 400.032 261.82 400.18 261.635C400.12 261.621 400.066 261.583 400.033 261.525C400.02 261.503 400.004 261.462 399.988 261.41L399.956 261.295L399.924 261.167L399.899 261.039C399.876 260.917 399.867 260.818 399.886 260.807C399.901 260.798 399.96 260.836 400.034 260.896L400.129 260.976L400.227 261.066L400.318 261.156C400.373 261.213 400.417 261.264 400.434 261.293C400.45 261.32 400.459 261.349 400.463 261.378C400.568 261.311 400.686 261.261 400.814 261.234L400.813 261.21C400.813 261.185 400.82 261.141 400.832 261.089L400.861 260.973L400.898 260.846C400.911 260.804 400.925 260.762 400.939 260.723L400.98 260.617C401.007 260.555 401.03 260.515 401.044 260.515ZM402.203 268.395H399.886V268.859H402.203V268.395ZM401.74 264.647L400.349 266.038V267.468H401.74V264.647ZM399.422 263.405V264.495L400.001 265.074L401.07 264.006L399.795 263.751C399.601 263.712 399.504 263.569 399.422 263.405ZM401.044 262.137C401.006 262.137 400.955 262.154 400.905 262.213C400.854 262.272 400.813 262.367 400.813 262.485C400.813 262.528 400.818 262.568 400.828 262.605L400.845 262.658C400.894 262.777 400.889 262.905 400.842 263.015L401.298 263.106C401.218 262.996 401.188 262.853 401.224 262.716L401.244 262.658C401.264 262.608 401.276 262.55 401.276 262.485C401.276 262.367 401.235 262.272 401.184 262.213C401.134 262.154 401.083 262.137 401.044 262.137ZM398.958 259.356C399.031 259.356 399.422 260.027 399.422 260.283C399.422 260.539 399.214 260.747 398.958 260.747C398.702 260.747 398.495 260.539 398.495 260.283C398.495 260.027 398.886 259.356 398.958 259.356Z" fill="#0066FF"/>
<path d="M400.519 243L397.375 248.228L408.723 267.675L399.517 277.999C399.517 277.999 406.753 277.956 406.71 277.999C406.667 278.042 415.317 268.276 415.317 268.276L400.519 243Z" fill="url(#paint2_linear_104_16401)"/>
<defs>
<filter id="filter0_d_104_16401" x="369.739" y="236.796" width="61.6511" height="63.6514" filterUnits="userSpaceOnUse" color-interpolation-filters="sRGB">
<feFlood flood-opacity="0" result="BackgroundImageFix"/>
<feColorMatrix in="SourceAlpha" type="matrix" values="0 0 0 0 0 0 0 0 0 0 0 0 0 0 0 0 0 0 127 0" result="hardAlpha"/>
<feOffset dy="7"/>
<feGaussianBlur stdDeviation="2.5"/>
<feComposite in2="hardAlpha" operator="out"/>
<feColorMatrix type="matrix" values="0 0 0 0 0.595833 0 0 0 0 0.595833 0 0 0 0 0.595833 0 0 0 0.25 0"/>
<feBlend mode="normal" in2="BackgroundImageFix" result="effect1_dropShadow_104_16401"/>
<feBlend mode="normal" in="SourceGraphic" in2="effect1_dropShadow_104_16401" result="shape"/>
</filter>
<linearGradient id="paint0_linear_104_16401" x1="79.7422" y1="241.149" x2="268.128" y2="267.556" gradientUnits="userSpaceOnUse">
<stop stop-color="#319CFF"/>
<stop offset="0.275793" stop-color="#AED8FF"/>
<stop offset="0.916667" stop-color="#0B86F8"/>
</linearGradient>
<linearGradient id="paint1_linear_104_16401" x1="220.774" y1="175.685" x2="482.319" y2="212.347" gradientUnits="userSpaceOnUse">
<stop stop-color="#319CFF"/>
<stop offset="0.275793" stop-color="#AED8FF"/>
<stop offset="0.916667" stop-color="#0B86F8"/>
</linearGradient>
<linearGradient id="paint2_linear_104_16401" x1="397.375" y1="267.791" x2="422.631" y2="269.606" gradientUnits="userSpaceOnUse">
<stop stop-color="#319CFF"/>
<stop offset="0.275793" stop-color="#AED8FF"/>
<stop offset="0.916667" stop-color="#0B86F8"/>
</linearGradient>
<clipPath id="clip0_104_16401">
<rect width="32.2923" height="32.2923" fill="white" transform="translate(86.3325 118.625)"/>
</clipPath>
</defs>
</svg>
