<svg width="569" height="402" viewBox="0 0 569 402" fill="none" xmlns="http://www.w3.org/2000/svg">
<g filter="url(#filter0_d_398_4232)">
<rect x="45" y="39" width="320" height="320" rx="20" fill="#FBFBFB" shape-rendering="crispEdges"/>
<rect x="44.5" y="38.5" width="321" height="321" rx="20.5" stroke="#1B1B28" stroke-opacity="0.08" shape-rendering="crispEdges"/>
</g>
<path d="M114.98 132.5H120.17C120.38 132.5 120.555 132.57 120.695 132.71C120.845 132.85 120.92 133.025 120.92 133.235C120.92 133.445 120.845 133.615 120.695 133.745C120.555 133.875 120.38 133.94 120.17 133.94H115.64L115.79 133.685V137.045L115.655 136.895H119.495C119.705 136.895 119.88 136.965 120.02 137.105C120.17 137.245 120.245 137.425 120.245 137.645C120.245 137.855 120.17 138.025 120.02 138.155C119.88 138.285 119.705 138.35 119.495 138.35H115.685L115.79 138.215V141.68L115.685 141.56H120.17C120.38 141.56 120.555 141.635 120.695 141.785C120.845 141.925 120.92 142.09 120.92 142.28C120.92 142.49 120.845 142.665 120.695 142.805C120.555 142.935 120.38 143 120.17 143H114.98C114.77 143 114.59 142.93 114.44 142.79C114.29 142.64 114.215 142.455 114.215 142.235V133.265C114.215 133.045 114.29 132.865 114.44 132.725C114.59 132.575 114.77 132.5 114.98 132.5ZM129.084 134.99C129.304 134.99 129.484 135.065 129.624 135.215C129.764 135.355 129.834 135.535 129.834 135.755V142.235C129.834 142.455 129.764 142.64 129.624 142.79C129.484 142.93 129.304 143 129.084 143C128.874 143 128.694 142.93 128.544 142.79C128.404 142.64 128.334 142.455 128.334 142.235V141.155L128.649 141.2C128.649 141.38 128.574 141.58 128.424 141.8C128.284 142.02 128.089 142.235 127.839 142.445C127.589 142.645 127.294 142.815 126.954 142.955C126.614 143.085 126.249 143.15 125.859 143.15C125.169 143.15 124.549 142.975 123.999 142.625C123.449 142.265 123.014 141.775 122.694 141.155C122.374 140.535 122.214 139.83 122.214 139.04C122.214 138.23 122.374 137.52 122.694 136.91C123.014 136.29 123.444 135.805 123.984 135.455C124.534 135.105 125.144 134.93 125.814 134.93C126.244 134.93 126.639 135 126.999 135.14C127.369 135.28 127.689 135.46 127.959 135.68C128.229 135.9 128.434 136.135 128.574 136.385C128.724 136.625 128.799 136.855 128.799 137.075L128.334 137.12V135.755C128.334 135.545 128.404 135.365 128.544 135.215C128.694 135.065 128.874 134.99 129.084 134.99ZM126.024 141.77C126.494 141.77 126.909 141.65 127.269 141.41C127.629 141.17 127.909 140.845 128.109 140.435C128.309 140.015 128.409 139.55 128.409 139.04C128.409 138.52 128.309 138.055 128.109 137.645C127.909 137.235 127.629 136.91 127.269 136.67C126.909 136.43 126.494 136.31 126.024 136.31C125.564 136.31 125.154 136.43 124.794 136.67C124.444 136.91 124.164 137.235 123.954 137.645C123.754 138.055 123.654 138.52 123.654 139.04C123.654 139.55 123.754 140.015 123.954 140.435C124.164 140.845 124.444 141.17 124.794 141.41C125.154 141.65 125.564 141.77 126.024 141.77ZM131.471 141.77C131.381 141.63 131.341 141.47 131.351 141.29C131.361 141.1 131.466 140.94 131.666 140.81C131.806 140.72 131.951 140.685 132.101 140.705C132.261 140.715 132.411 140.79 132.551 140.93C132.831 141.24 133.141 141.485 133.481 141.665C133.831 141.845 134.251 141.935 134.741 141.935C134.941 141.925 135.146 141.895 135.356 141.845C135.566 141.785 135.746 141.685 135.896 141.545C136.046 141.395 136.121 141.18 136.121 140.9C136.121 140.65 136.041 140.45 135.881 140.3C135.721 140.15 135.511 140.03 135.251 139.94C134.991 139.84 134.711 139.75 134.411 139.67C134.091 139.58 133.766 139.48 133.436 139.37C133.116 139.26 132.826 139.12 132.566 138.95C132.306 138.77 132.091 138.54 131.921 138.26C131.761 137.98 131.681 137.635 131.681 137.225C131.681 136.755 131.811 136.35 132.071 136.01C132.341 135.67 132.686 135.405 133.106 135.215C133.536 135.025 134.001 134.93 134.501 134.93C134.791 134.93 135.096 134.97 135.416 135.05C135.736 135.12 136.046 135.235 136.346 135.395C136.646 135.555 136.906 135.765 137.126 136.025C137.226 136.155 137.281 136.31 137.291 136.49C137.311 136.67 137.231 136.83 137.051 136.97C136.931 137.07 136.786 137.115 136.616 137.105C136.446 137.095 136.306 137.04 136.196 136.94C136.006 136.7 135.761 136.515 135.461 136.385C135.161 136.245 134.821 136.175 134.441 136.175C134.251 136.175 134.051 136.205 133.841 136.265C133.641 136.315 133.471 136.41 133.331 136.55C133.191 136.69 133.121 136.895 133.121 137.165C133.121 137.415 133.201 137.615 133.361 137.765C133.531 137.915 133.751 138.04 134.021 138.14C134.291 138.24 134.586 138.33 134.906 138.41C135.216 138.49 135.521 138.585 135.821 138.695C136.131 138.805 136.406 138.95 136.646 139.13C136.896 139.3 137.096 139.525 137.246 139.805C137.406 140.075 137.486 140.42 137.486 140.84C137.486 141.33 137.341 141.75 137.051 142.1C136.771 142.44 136.411 142.7 135.971 142.88C135.541 143.06 135.086 143.15 134.606 143.15C134.036 143.15 133.466 143.05 132.896 142.85C132.336 142.64 131.861 142.28 131.471 141.77ZM144.964 135.05C145.184 135.05 145.364 135.125 145.504 135.275C145.644 135.415 145.714 135.595 145.714 135.815V142.265C145.714 143.145 145.544 143.86 145.204 144.41C144.874 144.96 144.424 145.36 143.854 145.61C143.294 145.87 142.659 146 141.949 146C141.589 146 141.229 145.965 140.869 145.895C140.509 145.835 140.214 145.745 139.984 145.625C139.744 145.515 139.574 145.38 139.474 145.22C139.374 145.06 139.359 144.885 139.429 144.695C139.499 144.455 139.619 144.29 139.789 144.2C139.959 144.12 140.134 144.115 140.314 144.185C140.484 144.255 140.709 144.345 140.989 144.455C141.269 144.565 141.589 144.62 141.949 144.62C142.439 144.62 142.854 144.54 143.194 144.38C143.534 144.22 143.789 143.97 143.959 143.63C144.139 143.29 144.229 142.85 144.229 142.31V141.275L144.469 141.635C144.309 141.965 144.099 142.24 143.839 142.46C143.579 142.68 143.269 142.85 142.909 142.97C142.559 143.09 142.169 143.15 141.739 143.15C141.189 143.15 140.714 143.03 140.314 142.79C139.924 142.54 139.624 142.2 139.414 141.77C139.204 141.33 139.099 140.83 139.099 140.27V135.815C139.099 135.595 139.169 135.415 139.309 135.275C139.449 135.125 139.629 135.05 139.849 135.05C140.059 135.05 140.234 135.125 140.374 135.275C140.524 135.415 140.599 135.595 140.599 135.815V139.865C140.599 140.525 140.744 141.01 141.034 141.32C141.324 141.62 141.754 141.77 142.324 141.77C142.704 141.77 143.034 141.69 143.314 141.53C143.594 141.37 143.814 141.15 143.974 140.87C144.134 140.58 144.214 140.245 144.214 139.865V135.815C144.214 135.595 144.284 135.415 144.424 135.275C144.574 135.125 144.754 135.05 144.964 135.05Z" fill="black"/>
<g filter="url(#filter1_d_398_4232)">
<mask id="path-4-inside-1_398_4232" fill="white">
<path d="M85 229C85 223.477 89.4772 219 95 219H119C124.523 219 129 223.477 129 229V303C129 308.523 124.523 313 119 313H95C89.4772 313 85 308.523 85 303V229Z"/>
</mask>
<path d="M85 229C85 223.477 89.4772 219 95 219H119C124.523 219 129 223.477 129 229V303C129 308.523 124.523 313 119 313H95C89.4772 313 85 308.523 85 303V229Z" fill="url(#paint0_linear_398_4232)" shape-rendering="crispEdges"/>
<path d="M84 229C84 222.925 88.9249 218 95 218H118C124.075 218 129 222.925 129 229C129 224.029 124.523 220 119 220H95C90.0294 220 86 224.029 86 229H84ZM129 313H85H129ZM95 313C88.9249 313 84 308.075 84 302V229C84 222.925 88.9249 218 95 218V220C90.0294 220 86 224.029 86 229V303C86 308.523 90.0294 313 95 313ZM129 219V313V219Z" fill="#8285A4" fill-opacity="0.05" mask="url(#path-4-inside-1_398_4232)"/>
</g>
<g filter="url(#filter2_d_398_4232)">
<mask id="path-6-inside-2_398_4232" fill="white">
<path d="M135 211C135 205.477 139.477 201 145 201H170C175.523 201 180 205.477 180 211V303C180 308.523 175.523 313 170 313H145C139.477 313 135 308.523 135 303V211Z"/>
</mask>
<path d="M135 211C135 205.477 139.477 201 145 201H170C175.523 201 180 205.477 180 211V303C180 308.523 175.523 313 170 313H145C139.477 313 135 308.523 135 303V211Z" fill="url(#paint1_linear_398_4232)" shape-rendering="crispEdges"/>
<path d="M134 211C134 204.925 138.925 200 145 200H169C175.075 200 180 204.925 180 211C180 206.029 175.523 202 170 202H145C140.029 202 136 206.029 136 211H134ZM180 313H135H180ZM145 313C138.925 313 134 308.075 134 302V211C134 204.925 138.925 200 145 200V202C140.029 202 136 206.029 136 211V303C136 308.523 140.029 313 145 313ZM180 201V313V201Z" fill="#8285A4" fill-opacity="0.05" mask="url(#path-6-inside-2_398_4232)"/>
</g>
<g filter="url(#filter3_d_398_4232)">
<mask id="path-8-inside-3_398_4232" fill="white">
<path d="M186 189C186 183.477 190.477 179 196 179H220C225.523 179 230 183.477 230 189V303C230 308.523 225.523 313 220 313H196C190.477 313 186 308.523 186 303V189Z"/>
</mask>
<path d="M186 189C186 183.477 190.477 179 196 179H220C225.523 179 230 183.477 230 189V303C230 308.523 225.523 313 220 313H196C190.477 313 186 308.523 186 303V189Z" fill="url(#paint2_linear_398_4232)" shape-rendering="crispEdges"/>
<path d="M185 189C185 182.925 189.925 178 196 178H219C225.075 178 230 182.925 230 189C230 184.029 225.523 180 220 180H196C191.029 180 187 184.029 187 189H185ZM230 313H186H230ZM196 313C189.925 313 185 308.075 185 302V189C185 182.925 189.925 178 196 178V180C191.029 180 187 184.029 187 189V303C187 308.523 191.029 313 196 313ZM230 179V313V179Z" fill="#8285A4" fill-opacity="0.05" mask="url(#path-8-inside-3_398_4232)"/>
</g>
<g filter="url(#filter4_d_398_4232)">
<mask id="path-10-inside-4_398_4232" fill="white">
<path d="M236 156C236 150.477 240.477 146 246 146H271C276.523 146 281 150.477 281 156V303C281 308.523 276.523 313 271 313H246C240.477 313 236 308.523 236 303V156Z"/>
</mask>
<path d="M236 156C236 150.477 240.477 146 246 146H271C276.523 146 281 150.477 281 156V303C281 308.523 276.523 313 271 313H246C240.477 313 236 308.523 236 303V156Z" fill="url(#paint3_linear_398_4232)" shape-rendering="crispEdges"/>
<path d="M235 156C235 149.925 239.925 145 246 145H270C276.075 145 281 149.925 281 156C281 151.029 276.523 147 271 147H246C241.029 147 237 151.029 237 156H235ZM281 313H236H281ZM246 313C239.925 313 235 308.075 235 302V156C235 149.925 239.925 145 246 145V147C241.029 147 237 151.029 237 156V303C237 308.523 241.029 313 246 313ZM281 146V313V146Z" fill="#8285A4" fill-opacity="0.05" mask="url(#path-10-inside-4_398_4232)"/>
</g>
<g filter="url(#filter5_d_398_4232)">
<mask id="path-12-inside-5_398_4232" fill="white">
<path d="M287 107C287 101.477 291.477 97 297 97H321C326.523 97 331 101.477 331 107V303C331 308.523 326.523 313 321 313H297C291.477 313 287 308.523 287 303V107Z"/>
</mask>
<path d="M287 107C287 101.477 291.477 97 297 97H321C326.523 97 331 101.477 331 107V303C331 308.523 326.523 313 321 313H297C291.477 313 287 308.523 287 303V107Z" fill="url(#paint4_linear_398_4232)" shape-rendering="crispEdges"/>
<path d="M286 107C286 100.925 290.925 96 297 96H321C327.075 96 332 100.925 332 107H330C330 102.029 325.971 98 321 98H297C292.029 98 288 102.029 288 107H286ZM331 313H287H331ZM297 313C290.925 313 286 308.075 286 302V107C286 100.925 290.925 96 297 96V98C292.029 98 288 102.029 288 107V303C288 308.523 292.029 313 297 313ZM321 96C327.075 96 332 100.925 332 107V302C332 308.075 327.075 313 321 313C325.971 313 330 308.523 330 303V107C330 102.029 325.971 98 321 98V96Z" fill="#8285A4" fill-opacity="0.05" mask="url(#path-12-inside-5_398_4232)"/>
</g>
<circle cx="81" cy="84" r="12" fill="#285EED"/>
<circle cx="81" cy="137" r="12" fill="#285EED"/>
<circle cx="81" cy="137" r="9.5" stroke="url(#paint5_linear_398_4232)" stroke-width="5"/>
<path d="M73.3633 83.7207L79.0906 88.9025" stroke="white" stroke-width="2.65909" stroke-linecap="round"/>
<path d="M79.0903 88.9023L88.0903 78.8114" stroke="white" stroke-width="2.65909" stroke-linecap="round"/>
<path d="M73.9229 136.874L79.6501 142.056" stroke="white" stroke-width="2.65909" stroke-linecap="round"/>
<path d="M79.6499 142.056L88.6499 131.965" stroke="white" stroke-width="2.65909" stroke-linecap="round"/>
<path d="M114.98 79.5H120.17C120.38 79.5 120.555 79.57 120.695 79.71C120.845 79.85 120.92 80.025 120.92 80.235C120.92 80.445 120.845 80.615 120.695 80.745C120.555 80.875 120.38 80.94 120.17 80.94H115.64L115.79 80.685V84.045L115.655 83.895H119.495C119.705 83.895 119.88 83.965 120.02 84.105C120.17 84.245 120.245 84.425 120.245 84.645C120.245 84.855 120.17 85.025 120.02 85.155C119.88 85.285 119.705 85.35 119.495 85.35H115.685L115.79 85.215V88.68L115.685 88.56H120.17C120.38 88.56 120.555 88.635 120.695 88.785C120.845 88.925 120.92 89.09 120.92 89.28C120.92 89.49 120.845 89.665 120.695 89.805C120.555 89.935 120.38 90 120.17 90H114.98C114.77 90 114.59 89.93 114.44 89.79C114.29 89.64 114.215 89.455 114.215 89.235V80.265C114.215 80.045 114.29 79.865 114.44 79.725C114.59 79.575 114.77 79.5 114.98 79.5ZM129.084 81.99C129.304 81.99 129.484 82.065 129.624 82.215C129.764 82.355 129.834 82.535 129.834 82.755V89.235C129.834 89.455 129.764 89.64 129.624 89.79C129.484 89.93 129.304 90 129.084 90C128.874 90 128.694 89.93 128.544 89.79C128.404 89.64 128.334 89.455 128.334 89.235V88.155L128.649 88.2C128.649 88.38 128.574 88.58 128.424 88.8C128.284 89.02 128.089 89.235 127.839 89.445C127.589 89.645 127.294 89.815 126.954 89.955C126.614 90.085 126.249 90.15 125.859 90.15C125.169 90.15 124.549 89.975 123.999 89.625C123.449 89.265 123.014 88.775 122.694 88.155C122.374 87.535 122.214 86.83 122.214 86.04C122.214 85.23 122.374 84.52 122.694 83.91C123.014 83.29 123.444 82.805 123.984 82.455C124.534 82.105 125.144 81.93 125.814 81.93C126.244 81.93 126.639 82 126.999 82.14C127.369 82.28 127.689 82.46 127.959 82.68C128.229 82.9 128.434 83.135 128.574 83.385C128.724 83.625 128.799 83.855 128.799 84.075L128.334 84.12V82.755C128.334 82.545 128.404 82.365 128.544 82.215C128.694 82.065 128.874 81.99 129.084 81.99ZM126.024 88.77C126.494 88.77 126.909 88.65 127.269 88.41C127.629 88.17 127.909 87.845 128.109 87.435C128.309 87.015 128.409 86.55 128.409 86.04C128.409 85.52 128.309 85.055 128.109 84.645C127.909 84.235 127.629 83.91 127.269 83.67C126.909 83.43 126.494 83.31 126.024 83.31C125.564 83.31 125.154 83.43 124.794 83.67C124.444 83.91 124.164 84.235 123.954 84.645C123.754 85.055 123.654 85.52 123.654 86.04C123.654 86.55 123.754 87.015 123.954 87.435C124.164 87.845 124.444 88.17 124.794 88.41C125.154 88.65 125.564 88.77 126.024 88.77ZM132.686 90C132.466 90 132.286 89.93 132.146 89.79C132.006 89.64 131.936 89.455 131.936 89.235V82.875C131.936 82.655 132.006 82.475 132.146 82.335C132.286 82.185 132.466 82.11 132.686 82.11C132.896 82.11 133.071 82.185 133.211 82.335C133.361 82.475 133.436 82.655 133.436 82.875V84.555L133.286 83.91C133.366 83.63 133.486 83.37 133.646 83.13C133.816 82.89 134.016 82.68 134.246 82.5C134.476 82.32 134.731 82.18 135.011 82.08C135.301 81.98 135.601 81.93 135.911 81.93C136.171 81.93 136.396 82 136.586 82.14C136.776 82.28 136.871 82.455 136.871 82.665C136.871 82.935 136.801 83.135 136.661 83.265C136.521 83.385 136.366 83.445 136.196 83.445C136.046 83.445 135.901 83.415 135.761 83.355C135.621 83.285 135.456 83.25 135.266 83.25C135.056 83.25 134.841 83.305 134.621 83.415C134.401 83.525 134.201 83.69 134.021 83.91C133.841 84.12 133.696 84.37 133.586 84.66C133.486 84.95 133.436 85.275 133.436 85.635V89.235C133.436 89.455 133.361 89.64 133.211 89.79C133.071 89.93 132.896 90 132.686 90ZM142.27 81.93C142.98 81.93 143.53 82.08 143.92 82.38C144.31 82.67 144.58 83.065 144.73 83.565C144.89 84.055 144.97 84.605 144.97 85.215V89.235C144.97 89.455 144.895 89.64 144.745 89.79C144.605 89.93 144.43 90 144.22 90C144 90 143.82 89.93 143.68 89.79C143.54 89.64 143.47 89.455 143.47 89.235V85.23C143.47 84.87 143.42 84.55 143.32 84.27C143.22 83.98 143.045 83.75 142.795 83.58C142.555 83.4 142.215 83.31 141.775 83.31C141.365 83.31 141.005 83.4 140.695 83.58C140.385 83.75 140.14 83.98 139.96 84.27C139.79 84.55 139.705 84.87 139.705 85.23V89.235C139.705 89.455 139.63 89.64 139.48 89.79C139.34 89.93 139.165 90 138.955 90C138.735 90 138.555 89.93 138.415 89.79C138.275 89.64 138.205 89.455 138.205 89.235V82.875C138.205 82.655 138.275 82.475 138.415 82.335C138.555 82.185 138.735 82.11 138.955 82.11C139.165 82.11 139.34 82.185 139.48 82.335C139.63 82.475 139.705 82.655 139.705 82.875V83.715L139.435 83.865C139.505 83.645 139.625 83.425 139.795 83.205C139.975 82.975 140.19 82.765 140.44 82.575C140.69 82.375 140.97 82.22 141.28 82.11C141.59 81.99 141.92 81.93 142.27 81.93Z" fill="black"/>
<circle cx="106" cy="199" r="5" fill="url(#paint6_linear_398_4232)"/>
<circle cx="157" cy="184" r="5" fill="url(#paint7_linear_398_4232)"/>
<circle cx="207" cy="148" r="5" fill="url(#paint8_linear_398_4232)"/>
<circle cx="253" cy="118" r="5" fill="url(#paint9_linear_398_4232)"/>
<circle cx="314" cy="78" r="5" fill="url(#paint10_linear_398_4232)"/>
<path d="M97.76 331C97.616 331 97.496 330.952 97.4 330.856C97.304 330.76 97.256 330.644 97.256 330.508V323.68L97.4 323.848L96.044 324.784C95.964 324.84 95.872 324.868 95.768 324.868C95.632 324.868 95.516 324.82 95.42 324.724C95.324 324.62 95.276 324.504 95.276 324.376C95.276 324.2 95.36 324.06 95.528 323.956L97.436 322.696C97.5 322.656 97.564 322.628 97.628 322.612C97.692 322.596 97.756 322.592 97.82 322.6C97.964 322.6 98.076 322.648 98.156 322.744C98.244 322.832 98.288 322.944 98.288 323.08V330.508C98.288 330.644 98.236 330.76 98.132 330.856C98.036 330.952 97.912 331 97.76 331ZM103.124 331.12C102.46 331.12 101.904 330.932 101.456 330.556C101.016 330.18 100.68 329.664 100.448 329.008C100.224 328.352 100.112 327.616 100.112 326.8C100.112 325.968 100.224 325.228 100.448 324.58C100.68 323.932 101.016 323.42 101.456 323.044C101.904 322.668 102.46 322.48 103.124 322.48C103.788 322.48 104.34 322.668 104.78 323.044C105.228 323.42 105.564 323.932 105.788 324.58C106.012 325.228 106.124 325.968 106.124 326.8C106.124 327.616 106.012 328.352 105.788 329.008C105.564 329.664 105.228 330.18 104.78 330.556C104.34 330.932 103.788 331.12 103.124 331.12ZM103.124 330.148C103.548 330.148 103.904 330.012 104.192 329.74C104.488 329.468 104.712 329.084 104.864 328.588C105.016 328.084 105.092 327.488 105.092 326.8C105.092 326.104 105.016 325.508 104.864 325.012C104.712 324.508 104.488 324.124 104.192 323.86C103.904 323.588 103.548 323.452 103.124 323.452C102.7 323.452 102.34 323.588 102.044 323.86C101.756 324.124 101.532 324.508 101.372 325.012C101.22 325.508 101.144 326.104 101.144 326.8C101.144 327.488 101.22 328.084 101.372 328.588C101.532 329.084 101.756 329.468 102.044 329.74C102.34 330.012 102.7 330.148 103.124 330.148ZM108.951 326.98C108.583 326.98 108.267 326.88 108.003 326.68C107.747 326.472 107.547 326.2 107.403 325.864C107.267 325.52 107.199 325.148 107.199 324.748C107.199 324.34 107.267 323.964 107.403 323.62C107.547 323.276 107.751 323.004 108.015 322.804C108.279 322.596 108.595 322.492 108.963 322.492C109.331 322.492 109.643 322.596 109.899 322.804C110.163 323.004 110.363 323.276 110.499 323.62C110.635 323.956 110.703 324.328 110.703 324.736C110.703 325.144 110.631 325.52 110.487 325.864C110.343 326.2 110.139 326.472 109.875 326.68C109.619 326.88 109.311 326.98 108.951 326.98ZM108.963 326.2C109.267 326.2 109.491 326.064 109.635 325.792C109.779 325.512 109.851 325.164 109.851 324.748C109.851 324.324 109.775 323.972 109.623 323.692C109.471 323.412 109.247 323.272 108.951 323.272C108.647 323.272 108.419 323.416 108.267 323.704C108.123 323.984 108.051 324.328 108.051 324.736C108.051 325.16 108.127 325.512 108.279 325.792C108.439 326.064 108.667 326.2 108.963 326.2ZM113.955 331.108C113.595 331.108 113.283 331.008 113.019 330.808C112.763 330.6 112.563 330.328 112.419 329.992C112.275 329.648 112.203 329.276 112.203 328.876C112.203 328.468 112.271 328.092 112.407 327.748C112.551 327.404 112.755 327.132 113.019 326.932C113.283 326.724 113.599 326.62 113.967 326.62C114.343 326.62 114.659 326.724 114.915 326.932C115.179 327.132 115.379 327.404 115.515 327.748C115.651 328.084 115.719 328.456 115.719 328.864C115.719 329.272 115.647 329.648 115.503 329.992C115.359 330.328 115.155 330.6 114.891 330.808C114.635 331.008 114.323 331.108 113.955 331.108ZM113.967 330.328C114.279 330.328 114.507 330.192 114.651 329.92C114.795 329.64 114.867 329.292 114.867 328.876C114.867 328.452 114.791 328.1 114.639 327.82C114.487 327.54 114.259 327.4 113.955 327.4C113.651 327.4 113.423 327.544 113.271 327.832C113.127 328.112 113.055 328.456 113.055 328.864C113.055 329.288 113.131 329.64 113.283 329.92C113.443 330.192 113.671 330.328 113.967 330.328ZM108.903 331.024C108.807 331.024 108.711 330.988 108.615 330.916C108.519 330.844 108.471 330.744 108.471 330.616C108.471 330.544 108.499 330.46 108.555 330.364L113.571 322.768C113.667 322.632 113.779 322.564 113.907 322.564C114.011 322.564 114.107 322.6 114.195 322.672C114.291 322.744 114.339 322.844 114.339 322.972C114.339 323.052 114.315 323.136 114.267 323.224L109.251 330.832C109.155 330.96 109.039 331.024 108.903 331.024Z" fill="#A4A5A6"/>
<path d="M150.628 330.1C150.756 330.1 150.864 330.144 150.952 330.232C151.04 330.32 151.084 330.428 151.084 330.556C151.084 330.684 151.04 330.792 150.952 330.88C150.864 330.96 150.756 331 150.628 331H146.272C146.128 331 146.008 330.96 145.912 330.88C145.824 330.792 145.78 330.676 145.78 330.532C145.78 330.404 145.828 330.288 145.924 330.184L148.636 327.22C149.036 326.788 149.336 326.384 149.536 326.008C149.744 325.624 149.848 325.284 149.848 324.988C149.848 324.5 149.7 324.112 149.404 323.824C149.116 323.528 148.728 323.38 148.24 323.38C148.024 323.38 147.808 323.428 147.592 323.524C147.376 323.612 147.18 323.736 147.004 323.896C146.828 324.048 146.684 324.22 146.572 324.412C146.508 324.516 146.44 324.584 146.368 324.616C146.304 324.64 146.236 324.652 146.164 324.652C146.044 324.652 145.936 324.612 145.84 324.532C145.744 324.444 145.696 324.344 145.696 324.232C145.696 324.144 145.72 324.064 145.768 323.992C145.816 323.912 145.88 323.824 145.96 323.728C146.128 323.496 146.336 323.288 146.584 323.104C146.84 322.912 147.116 322.76 147.412 322.648C147.716 322.536 148.012 322.48 148.3 322.48C148.812 322.48 149.256 322.58 149.632 322.78C150.016 322.98 150.312 323.264 150.52 323.632C150.728 324 150.832 324.432 150.832 324.928C150.832 325.352 150.704 325.82 150.448 326.332C150.192 326.844 149.816 327.364 149.32 327.892L147.22 330.22L147.1 330.1H150.628ZM155.315 331.12C154.651 331.12 154.095 330.932 153.647 330.556C153.207 330.18 152.871 329.664 152.639 329.008C152.415 328.352 152.303 327.616 152.303 326.8C152.303 325.968 152.415 325.228 152.639 324.58C152.871 323.932 153.207 323.42 153.647 323.044C154.095 322.668 154.651 322.48 155.315 322.48C155.979 322.48 156.531 322.668 156.971 323.044C157.419 323.42 157.755 323.932 157.979 324.58C158.203 325.228 158.315 325.968 158.315 326.8C158.315 327.616 158.203 328.352 157.979 329.008C157.755 329.664 157.419 330.18 156.971 330.556C156.531 330.932 155.979 331.12 155.315 331.12ZM155.315 330.148C155.739 330.148 156.095 330.012 156.383 329.74C156.679 329.468 156.903 329.084 157.055 328.588C157.207 328.084 157.283 327.488 157.283 326.8C157.283 326.104 157.207 325.508 157.055 325.012C156.903 324.508 156.679 324.124 156.383 323.86C156.095 323.588 155.739 323.452 155.315 323.452C154.891 323.452 154.531 323.588 154.235 323.86C153.947 324.124 153.723 324.508 153.563 325.012C153.411 325.508 153.335 326.104 153.335 326.8C153.335 327.488 153.411 328.084 153.563 328.588C153.723 329.084 153.947 329.468 154.235 329.74C154.531 330.012 154.891 330.148 155.315 330.148ZM161.142 326.98C160.774 326.98 160.458 326.88 160.194 326.68C159.938 326.472 159.738 326.2 159.594 325.864C159.458 325.52 159.39 325.148 159.39 324.748C159.39 324.34 159.458 323.964 159.594 323.62C159.738 323.276 159.942 323.004 160.206 322.804C160.47 322.596 160.786 322.492 161.154 322.492C161.522 322.492 161.834 322.596 162.09 322.804C162.354 323.004 162.554 323.276 162.69 323.62C162.826 323.956 162.894 324.328 162.894 324.736C162.894 325.144 162.822 325.52 162.678 325.864C162.534 326.2 162.33 326.472 162.066 326.68C161.81 326.88 161.502 326.98 161.142 326.98ZM161.154 326.2C161.458 326.2 161.682 326.064 161.826 325.792C161.97 325.512 162.042 325.164 162.042 324.748C162.042 324.324 161.966 323.972 161.814 323.692C161.662 323.412 161.438 323.272 161.142 323.272C160.838 323.272 160.61 323.416 160.458 323.704C160.314 323.984 160.242 324.328 160.242 324.736C160.242 325.16 160.318 325.512 160.47 325.792C160.63 326.064 160.858 326.2 161.154 326.2ZM166.146 331.108C165.786 331.108 165.474 331.008 165.21 330.808C164.954 330.6 164.754 330.328 164.61 329.992C164.466 329.648 164.394 329.276 164.394 328.876C164.394 328.468 164.462 328.092 164.598 327.748C164.742 327.404 164.946 327.132 165.21 326.932C165.474 326.724 165.79 326.62 166.158 326.62C166.534 326.62 166.85 326.724 167.106 326.932C167.37 327.132 167.57 327.404 167.706 327.748C167.842 328.084 167.91 328.456 167.91 328.864C167.91 329.272 167.838 329.648 167.694 329.992C167.55 330.328 167.346 330.6 167.082 330.808C166.826 331.008 166.514 331.108 166.146 331.108ZM166.158 330.328C166.47 330.328 166.698 330.192 166.842 329.92C166.986 329.64 167.058 329.292 167.058 328.876C167.058 328.452 166.982 328.1 166.83 327.82C166.678 327.54 166.45 327.4 166.146 327.4C165.842 327.4 165.614 327.544 165.462 327.832C165.318 328.112 165.246 328.456 165.246 328.864C165.246 329.288 165.322 329.64 165.474 329.92C165.634 330.192 165.862 330.328 166.158 330.328ZM161.094 331.024C160.998 331.024 160.902 330.988 160.806 330.916C160.71 330.844 160.662 330.744 160.662 330.616C160.662 330.544 160.69 330.46 160.746 330.364L165.762 322.768C165.858 322.632 165.97 322.564 166.098 322.564C166.202 322.564 166.298 322.6 166.386 322.672C166.482 322.744 166.53 322.844 166.53 322.972C166.53 323.052 166.506 323.136 166.458 323.224L161.442 330.832C161.346 330.96 161.23 331.024 161.094 331.024Z" fill="#A4A5A6"/>
<path d="M197.164 329.608C197.212 329.608 197.264 329.62 197.32 329.644C197.384 329.66 197.452 329.7 197.524 329.764C197.684 329.908 197.872 330.024 198.088 330.112C198.304 330.2 198.552 330.244 198.832 330.244C199.176 330.244 199.492 330.168 199.78 330.016C200.068 329.856 200.3 329.632 200.476 329.344C200.66 329.056 200.752 328.724 200.752 328.348C200.752 327.94 200.66 327.608 200.476 327.352C200.3 327.088 200.072 326.896 199.792 326.776C199.52 326.648 199.232 326.584 198.928 326.584C198.816 326.584 198.712 326.592 198.616 326.608C198.52 326.624 198.428 326.644 198.34 326.668C198.26 326.692 198.184 326.704 198.112 326.704C197.984 326.704 197.884 326.66 197.812 326.572C197.74 326.484 197.704 326.376 197.704 326.248C197.704 326.176 197.716 326.112 197.74 326.056C197.772 325.992 197.82 325.924 197.884 325.852L200.212 323.332L200.404 323.56H196.996C196.868 323.56 196.76 323.516 196.672 323.428C196.584 323.34 196.54 323.232 196.54 323.104C196.54 322.976 196.584 322.872 196.672 322.792C196.76 322.704 196.868 322.66 196.996 322.66H200.908C201.084 322.66 201.212 322.712 201.292 322.816C201.372 322.912 201.412 323.02 201.412 323.14C201.412 323.212 201.392 323.28 201.352 323.344C201.32 323.408 201.276 323.468 201.22 323.524L198.892 326.056L198.616 325.816C198.656 325.784 198.748 325.756 198.892 325.732C199.036 325.7 199.156 325.684 199.252 325.684C199.7 325.684 200.112 325.792 200.488 326.008C200.864 326.224 201.164 326.528 201.388 326.92C201.612 327.312 201.724 327.768 201.724 328.288C201.724 328.864 201.592 329.364 201.328 329.788C201.064 330.212 200.7 330.54 200.236 330.772C199.78 331.004 199.264 331.12 198.688 331.12C198.368 331.12 198.052 331.072 197.74 330.976C197.436 330.872 197.172 330.724 196.948 330.532C196.844 330.476 196.772 330.412 196.732 330.34C196.7 330.268 196.684 330.196 196.684 330.124C196.684 330.004 196.728 329.888 196.816 329.776C196.912 329.664 197.028 329.608 197.164 329.608ZM205.952 331.12C205.288 331.12 204.732 330.932 204.284 330.556C203.844 330.18 203.508 329.664 203.276 329.008C203.052 328.352 202.94 327.616 202.94 326.8C202.94 325.968 203.052 325.228 203.276 324.58C203.508 323.932 203.844 323.42 204.284 323.044C204.732 322.668 205.288 322.48 205.952 322.48C206.616 322.48 207.168 322.668 207.608 323.044C208.056 323.42 208.392 323.932 208.616 324.58C208.84 325.228 208.952 325.968 208.952 326.8C208.952 327.616 208.84 328.352 208.616 329.008C208.392 329.664 208.056 330.18 207.608 330.556C207.168 330.932 206.616 331.12 205.952 331.12ZM205.952 330.148C206.376 330.148 206.732 330.012 207.02 329.74C207.316 329.468 207.54 329.084 207.692 328.588C207.844 328.084 207.92 327.488 207.92 326.8C207.92 326.104 207.844 325.508 207.692 325.012C207.54 324.508 207.316 324.124 207.02 323.86C206.732 323.588 206.376 323.452 205.952 323.452C205.528 323.452 205.168 323.588 204.872 323.86C204.584 324.124 204.36 324.508 204.2 325.012C204.048 325.508 203.972 326.104 203.972 326.8C203.972 327.488 204.048 328.084 204.2 328.588C204.36 329.084 204.584 329.468 204.872 329.74C205.168 330.012 205.528 330.148 205.952 330.148ZM211.779 326.98C211.411 326.98 211.095 326.88 210.831 326.68C210.575 326.472 210.375 326.2 210.231 325.864C210.095 325.52 210.027 325.148 210.027 324.748C210.027 324.34 210.095 323.964 210.231 323.62C210.375 323.276 210.579 323.004 210.843 322.804C211.107 322.596 211.423 322.492 211.791 322.492C212.159 322.492 212.471 322.596 212.727 322.804C212.991 323.004 213.191 323.276 213.327 323.62C213.463 323.956 213.531 324.328 213.531 324.736C213.531 325.144 213.459 325.52 213.315 325.864C213.171 326.2 212.967 326.472 212.703 326.68C212.447 326.88 212.139 326.98 211.779 326.98ZM211.791 326.2C212.095 326.2 212.319 326.064 212.463 325.792C212.607 325.512 212.679 325.164 212.679 324.748C212.679 324.324 212.603 323.972 212.451 323.692C212.299 323.412 212.075 323.272 211.779 323.272C211.475 323.272 211.247 323.416 211.095 323.704C210.951 323.984 210.879 324.328 210.879 324.736C210.879 325.16 210.955 325.512 211.107 325.792C211.267 326.064 211.495 326.2 211.791 326.2ZM216.783 331.108C216.423 331.108 216.111 331.008 215.847 330.808C215.591 330.6 215.391 330.328 215.247 329.992C215.103 329.648 215.031 329.276 215.031 328.876C215.031 328.468 215.099 328.092 215.235 327.748C215.379 327.404 215.583 327.132 215.847 326.932C216.111 326.724 216.427 326.62 216.795 326.62C217.171 326.62 217.487 326.724 217.743 326.932C218.007 327.132 218.207 327.404 218.343 327.748C218.479 328.084 218.547 328.456 218.547 328.864C218.547 329.272 218.475 329.648 218.331 329.992C218.187 330.328 217.983 330.6 217.719 330.808C217.463 331.008 217.151 331.108 216.783 331.108ZM216.795 330.328C217.107 330.328 217.335 330.192 217.479 329.92C217.623 329.64 217.695 329.292 217.695 328.876C217.695 328.452 217.619 328.1 217.467 327.82C217.315 327.54 217.087 327.4 216.783 327.4C216.479 327.4 216.251 327.544 216.099 327.832C215.955 328.112 215.883 328.456 215.883 328.864C215.883 329.288 215.959 329.64 216.111 329.92C216.271 330.192 216.499 330.328 216.795 330.328ZM211.731 331.024C211.635 331.024 211.539 330.988 211.443 330.916C211.347 330.844 211.299 330.744 211.299 330.616C211.299 330.544 211.327 330.46 211.383 330.364L216.399 322.768C216.495 322.632 216.607 322.564 216.735 322.564C216.839 322.564 216.935 322.6 217.023 322.672C217.119 322.744 217.167 322.844 217.167 322.972C217.167 323.052 217.143 323.136 217.095 323.224L212.079 330.832C211.983 330.96 211.867 331.024 211.731 331.024Z" fill="#A4A5A6"/>
<path d="M257.5 331C257.364 331 257.248 330.952 257.152 330.856C257.064 330.76 257.02 330.644 257.02 330.508V323.944L257.212 324.016L254.344 327.76L254.296 327.616H258.784C258.912 327.616 259.02 327.66 259.108 327.748C259.196 327.836 259.24 327.944 259.24 328.072C259.24 328.192 259.196 328.296 259.108 328.384C259.02 328.464 258.912 328.504 258.784 328.504H253.636C253.516 328.504 253.404 328.456 253.3 328.36C253.204 328.264 253.156 328.152 253.156 328.024C253.156 327.904 253.196 327.8 253.276 327.712L257.104 322.792C257.16 322.72 257.224 322.672 257.296 322.648C257.368 322.616 257.44 322.6 257.512 322.6C257.648 322.6 257.76 322.648 257.848 322.744C257.936 322.832 257.98 322.944 257.98 323.08V330.508C257.98 330.644 257.932 330.76 257.836 330.856C257.748 330.952 257.636 331 257.5 331ZM263.175 331.12C262.511 331.12 261.955 330.932 261.507 330.556C261.067 330.18 260.731 329.664 260.499 329.008C260.275 328.352 260.163 327.616 260.163 326.8C260.163 325.968 260.275 325.228 260.499 324.58C260.731 323.932 261.067 323.42 261.507 323.044C261.955 322.668 262.511 322.48 263.175 322.48C263.839 322.48 264.391 322.668 264.831 323.044C265.279 323.42 265.615 323.932 265.839 324.58C266.062 325.228 266.174 325.968 266.174 326.8C266.174 327.616 266.062 328.352 265.839 329.008C265.615 329.664 265.279 330.18 264.831 330.556C264.391 330.932 263.839 331.12 263.175 331.12ZM263.175 330.148C263.599 330.148 263.955 330.012 264.243 329.74C264.539 329.468 264.763 329.084 264.915 328.588C265.067 328.084 265.143 327.488 265.143 326.8C265.143 326.104 265.067 325.508 264.915 325.012C264.763 324.508 264.539 324.124 264.243 323.86C263.955 323.588 263.599 323.452 263.175 323.452C262.751 323.452 262.391 323.588 262.095 323.86C261.807 324.124 261.583 324.508 261.423 325.012C261.271 325.508 261.195 326.104 261.195 326.8C261.195 327.488 261.271 328.084 261.423 328.588C261.583 329.084 261.807 329.468 262.095 329.74C262.391 330.012 262.751 330.148 263.175 330.148ZM269.002 326.98C268.634 326.98 268.318 326.88 268.054 326.68C267.798 326.472 267.598 326.2 267.454 325.864C267.318 325.52 267.25 325.148 267.25 324.748C267.25 324.34 267.318 323.964 267.454 323.62C267.598 323.276 267.802 323.004 268.066 322.804C268.33 322.596 268.646 322.492 269.014 322.492C269.382 322.492 269.694 322.596 269.95 322.804C270.214 323.004 270.414 323.276 270.55 323.62C270.686 323.956 270.754 324.328 270.754 324.736C270.754 325.144 270.682 325.52 270.538 325.864C270.394 326.2 270.19 326.472 269.926 326.68C269.67 326.88 269.362 326.98 269.002 326.98ZM269.014 326.2C269.318 326.2 269.542 326.064 269.686 325.792C269.83 325.512 269.902 325.164 269.902 324.748C269.902 324.324 269.826 323.972 269.674 323.692C269.522 323.412 269.298 323.272 269.002 323.272C268.698 323.272 268.47 323.416 268.318 323.704C268.174 323.984 268.102 324.328 268.102 324.736C268.102 325.16 268.178 325.512 268.33 325.792C268.49 326.064 268.718 326.2 269.014 326.2ZM274.006 331.108C273.646 331.108 273.334 331.008 273.07 330.808C272.814 330.6 272.614 330.328 272.47 329.992C272.326 329.648 272.254 329.276 272.254 328.876C272.254 328.468 272.322 328.092 272.458 327.748C272.602 327.404 272.806 327.132 273.07 326.932C273.334 326.724 273.65 326.62 274.018 326.62C274.394 326.62 274.71 326.724 274.966 326.932C275.23 327.132 275.43 327.404 275.566 327.748C275.702 328.084 275.77 328.456 275.77 328.864C275.77 329.272 275.698 329.648 275.554 329.992C275.41 330.328 275.206 330.6 274.942 330.808C274.686 331.008 274.374 331.108 274.006 331.108ZM274.018 330.328C274.33 330.328 274.558 330.192 274.702 329.92C274.846 329.64 274.918 329.292 274.918 328.876C274.918 328.452 274.842 328.1 274.69 327.82C274.538 327.54 274.31 327.4 274.006 327.4C273.702 327.4 273.474 327.544 273.322 327.832C273.178 328.112 273.106 328.456 273.106 328.864C273.106 329.288 273.182 329.64 273.334 329.92C273.494 330.192 273.722 330.328 274.018 330.328ZM268.954 331.024C268.858 331.024 268.762 330.988 268.666 330.916C268.57 330.844 268.522 330.744 268.522 330.616C268.522 330.544 268.55 330.46 268.606 330.364L273.622 322.768C273.718 322.632 273.83 322.564 273.958 322.564C274.062 322.564 274.158 322.6 274.246 322.672C274.342 322.744 274.39 322.844 274.39 322.972C274.39 323.052 274.366 323.136 274.318 323.224L269.302 330.832C269.206 330.96 269.09 331.024 268.954 331.024Z" fill="#A4A5A6"/>
<path d="M304.844 331.048C304.524 331.048 304.196 331 303.86 330.904C303.532 330.8 303.244 330.648 302.996 330.448C302.932 330.392 302.88 330.32 302.84 330.232C302.8 330.144 302.78 330.06 302.78 329.98C302.78 329.884 302.82 329.792 302.9 329.704C302.988 329.608 303.1 329.56 303.236 329.56C303.34 329.56 303.46 329.612 303.596 329.716C303.772 329.852 303.968 329.96 304.184 330.04C304.4 330.12 304.616 330.16 304.832 330.16C305.28 330.16 305.668 330.076 305.996 329.908C306.324 329.74 306.576 329.504 306.752 329.2C306.928 328.896 307.016 328.54 307.016 328.132C307.016 327.764 306.932 327.444 306.764 327.172C306.604 326.892 306.376 326.676 306.08 326.524C305.792 326.372 305.46 326.296 305.084 326.296C304.804 326.296 304.552 326.34 304.328 326.428C304.112 326.508 303.92 326.592 303.752 326.68C303.592 326.768 303.452 326.812 303.332 326.812C303.18 326.812 303.064 326.78 302.984 326.716C302.904 326.644 302.852 326.556 302.828 326.452C302.804 326.348 302.796 326.252 302.804 326.164L303.272 323.056C303.296 322.952 303.352 322.86 303.44 322.78C303.528 322.7 303.636 322.66 303.764 322.66H307.328C307.456 322.66 307.564 322.704 307.652 322.792C307.74 322.88 307.784 322.992 307.784 323.128C307.784 323.256 307.74 323.364 307.652 323.452C307.564 323.532 307.456 323.572 307.328 323.572H304.004L304.124 323.464L303.68 326.176L303.488 325.924C303.576 325.844 303.708 325.764 303.884 325.684C304.068 325.604 304.276 325.536 304.508 325.48C304.748 325.424 304.992 325.396 305.24 325.396C305.76 325.396 306.224 325.516 306.632 325.756C307.048 325.988 307.376 326.308 307.616 326.716C307.856 327.124 307.976 327.592 307.976 328.12C307.976 328.704 307.848 329.216 307.592 329.656C307.336 330.096 306.972 330.44 306.5 330.688C306.036 330.928 305.484 331.048 304.844 331.048ZM312.28 331.12C311.616 331.12 311.06 330.932 310.612 330.556C310.172 330.18 309.836 329.664 309.604 329.008C309.38 328.352 309.268 327.616 309.268 326.8C309.268 325.968 309.38 325.228 309.604 324.58C309.836 323.932 310.172 323.42 310.612 323.044C311.06 322.668 311.616 322.48 312.28 322.48C312.944 322.48 313.496 322.668 313.936 323.044C314.384 323.42 314.72 323.932 314.944 324.58C315.168 325.228 315.28 325.968 315.28 326.8C315.28 327.616 315.168 328.352 314.944 329.008C314.72 329.664 314.384 330.18 313.936 330.556C313.496 330.932 312.944 331.12 312.28 331.12ZM312.28 330.148C312.704 330.148 313.06 330.012 313.348 329.74C313.644 329.468 313.868 329.084 314.02 328.588C314.172 328.084 314.248 327.488 314.248 326.8C314.248 326.104 314.172 325.508 314.02 325.012C313.868 324.508 313.644 324.124 313.348 323.86C313.06 323.588 312.704 323.452 312.28 323.452C311.856 323.452 311.496 323.588 311.2 323.86C310.912 324.124 310.688 324.508 310.528 325.012C310.376 325.508 310.3 326.104 310.3 326.8C310.3 327.488 310.376 328.084 310.528 328.588C310.688 329.084 310.912 329.468 311.2 329.74C311.496 330.012 311.856 330.148 312.28 330.148ZM318.107 326.98C317.739 326.98 317.423 326.88 317.159 326.68C316.903 326.472 316.703 326.2 316.559 325.864C316.423 325.52 316.355 325.148 316.355 324.748C316.355 324.34 316.423 323.964 316.559 323.62C316.703 323.276 316.907 323.004 317.171 322.804C317.435 322.596 317.751 322.492 318.119 322.492C318.487 322.492 318.799 322.596 319.055 322.804C319.319 323.004 319.519 323.276 319.655 323.62C319.791 323.956 319.859 324.328 319.859 324.736C319.859 325.144 319.787 325.52 319.643 325.864C319.499 326.2 319.295 326.472 319.031 326.68C318.775 326.88 318.467 326.98 318.107 326.98ZM318.119 326.2C318.423 326.2 318.647 326.064 318.791 325.792C318.935 325.512 319.007 325.164 319.007 324.748C319.007 324.324 318.931 323.972 318.779 323.692C318.627 323.412 318.403 323.272 318.107 323.272C317.803 323.272 317.575 323.416 317.423 323.704C317.279 323.984 317.207 324.328 317.207 324.736C317.207 325.16 317.283 325.512 317.435 325.792C317.595 326.064 317.823 326.2 318.119 326.2ZM323.111 331.108C322.751 331.108 322.439 331.008 322.175 330.808C321.919 330.6 321.719 330.328 321.575 329.992C321.431 329.648 321.359 329.276 321.359 328.876C321.359 328.468 321.427 328.092 321.563 327.748C321.707 327.404 321.911 327.132 322.175 326.932C322.439 326.724 322.755 326.62 323.123 326.62C323.499 326.62 323.815 326.724 324.071 326.932C324.335 327.132 324.535 327.404 324.671 327.748C324.807 328.084 324.875 328.456 324.875 328.864C324.875 329.272 324.803 329.648 324.659 329.992C324.515 330.328 324.311 330.6 324.047 330.808C323.791 331.008 323.479 331.108 323.111 331.108ZM323.123 330.328C323.435 330.328 323.663 330.192 323.807 329.92C323.951 329.64 324.023 329.292 324.023 328.876C324.023 328.452 323.947 328.1 323.795 327.82C323.643 327.54 323.415 327.4 323.111 327.4C322.807 327.4 322.579 327.544 322.427 327.832C322.283 328.112 322.211 328.456 322.211 328.864C322.211 329.288 322.287 329.64 322.439 329.92C322.599 330.192 322.827 330.328 323.123 330.328ZM318.059 331.024C317.963 331.024 317.867 330.988 317.771 330.916C317.675 330.844 317.627 330.744 317.627 330.616C317.627 330.544 317.655 330.46 317.711 330.364L322.727 322.768C322.823 322.632 322.935 322.564 323.063 322.564C323.167 322.564 323.263 322.6 323.351 322.672C323.447 322.744 323.495 322.844 323.495 322.972C323.495 323.052 323.471 323.136 323.423 323.224L318.407 330.832C318.311 330.96 318.195 331.024 318.059 331.024Z" fill="#A4A5A6"/>
<g filter="url(#filter6_d_398_4232)">
<rect x="225.086" y="142.072" width="281.914" height="172.543" rx="20" fill="#FBFBFB" shape-rendering="crispEdges"/>
<rect x="224.586" y="141.572" width="282.914" height="173.543" rx="20.5" stroke="#1B1B28" stroke-opacity="0.08" shape-rendering="crispEdges"/>
</g>
<path d="M253.372 228.981C258.873 220.73 274.262 207.961 291.801 222.899C295.994 226.421 306.201 235.24 319.226 221.202C325.456 214.487 340.029 198.543 352.625 210.892C358.938 217.082 366.428 232.99 382.096 235.904C393.616 238.047 401.713 237.492 437.102 212.194L484.91 181.428" stroke="#285EED" stroke-width="4" stroke-linecap="round"/>
<path d="M429.187 289.309C429.299 289.309 429.418 289.33 429.544 289.372C429.67 289.4 429.81 289.47 429.965 289.582C430.217 289.806 430.518 289.996 430.869 290.15C431.233 290.29 431.647 290.36 432.109 290.36C432.628 290.36 433.111 290.241 433.56 290.003C434.009 289.75 434.373 289.4 434.653 288.951C434.934 288.503 435.074 287.97 435.074 287.353C435.074 286.723 434.941 286.211 434.674 285.818C434.408 285.412 434.065 285.111 433.644 284.914C433.224 284.704 432.782 284.599 432.319 284.599C432.053 284.599 431.829 284.627 431.647 284.683C431.464 284.725 431.289 284.774 431.121 284.83C430.953 284.872 430.771 284.893 430.574 284.893C430.308 284.893 430.098 284.802 429.944 284.62C429.789 284.424 429.712 284.192 429.712 283.926C429.712 283.758 429.747 283.611 429.817 283.485C429.888 283.358 429.986 283.218 430.112 283.064L434.002 278.901L434.464 279.322H428.892C428.612 279.322 428.374 279.23 428.177 279.048C427.995 278.852 427.904 278.614 427.904 278.333C427.904 278.067 427.995 277.843 428.177 277.661C428.374 277.478 428.612 277.387 428.892 277.387H435.536C435.901 277.387 436.167 277.492 436.335 277.703C436.518 277.913 436.609 278.158 436.609 278.438C436.609 278.593 436.567 278.74 436.483 278.88C436.412 279.02 436.321 279.153 436.209 279.279L432.298 283.485L431.773 282.917C431.885 282.861 432.074 282.805 432.341 282.749C432.607 282.693 432.824 282.665 432.992 282.665C433.791 282.665 434.506 282.868 435.137 283.274C435.782 283.681 436.279 284.228 436.63 284.914C436.994 285.587 437.176 286.351 437.176 287.206C437.176 288.229 436.945 289.119 436.483 289.876C436.02 290.619 435.375 291.194 434.548 291.601C433.735 292.007 432.796 292.21 431.731 292.21C431.198 292.21 430.665 292.14 430.133 292C429.614 291.846 429.166 291.629 428.787 291.348C428.549 291.208 428.388 291.061 428.304 290.907C428.219 290.738 428.177 290.577 428.177 290.423C428.177 290.157 428.269 289.904 428.451 289.666C428.647 289.428 428.892 289.309 429.187 289.309ZM443.236 292.147C442.689 292.147 442.122 292.063 441.533 291.895C440.958 291.727 440.468 291.474 440.061 291.138C439.907 291.012 439.788 290.851 439.704 290.654C439.62 290.458 439.578 290.269 439.578 290.087C439.578 289.89 439.662 289.701 439.83 289.519C440.012 289.323 440.257 289.225 440.566 289.225C440.79 289.225 441.049 289.337 441.344 289.561C441.624 289.743 441.918 289.897 442.227 290.024C442.549 290.15 442.879 290.213 443.215 290.213C443.944 290.213 444.575 290.08 445.107 289.813C445.64 289.547 446.046 289.176 446.327 288.699C446.621 288.208 446.768 287.641 446.768 286.996C446.768 286.393 446.635 285.882 446.369 285.461C446.103 285.026 445.738 284.69 445.276 284.452C444.827 284.214 444.322 284.094 443.762 284.094C443.299 284.094 442.893 284.171 442.542 284.326C442.192 284.466 441.876 284.613 441.596 284.767C441.316 284.907 441.056 284.977 440.818 284.977C440.454 284.977 440.18 284.9 439.998 284.746C439.816 284.578 439.697 284.382 439.641 284.157C439.599 283.919 439.592 283.702 439.62 283.506L440.356 278.228C440.398 277.99 440.51 277.794 440.692 277.639C440.888 277.471 441.126 277.387 441.407 277.387H447.567C447.848 277.387 448.079 277.485 448.261 277.682C448.457 277.864 448.556 278.095 448.556 278.375C448.556 278.656 448.457 278.887 448.261 279.069C448.079 279.251 447.848 279.343 447.567 279.343H441.932L442.164 279.153L441.491 283.674L441.176 283.043C441.302 282.903 441.512 282.77 441.806 282.644C442.115 282.503 442.458 282.391 442.837 282.307C443.229 282.209 443.622 282.16 444.014 282.16C444.939 282.16 445.766 282.37 446.495 282.791C447.238 283.197 447.82 283.765 448.24 284.494C448.661 285.223 448.871 286.05 448.871 286.975C448.871 288.012 448.64 288.923 448.177 289.708C447.715 290.479 447.063 291.082 446.222 291.516C445.381 291.937 444.385 292.147 443.236 292.147ZM454.115 285.104C453.456 285.104 452.881 284.928 452.391 284.578C451.9 284.214 451.522 283.73 451.255 283.127C450.989 282.524 450.856 281.859 450.856 281.13C450.856 280.373 450.989 279.693 451.255 279.09C451.522 278.488 451.9 278.004 452.391 277.639C452.881 277.275 453.456 277.093 454.115 277.093C454.788 277.093 455.362 277.275 455.839 277.639C456.33 278.004 456.708 278.488 456.974 279.09C457.241 279.693 457.374 280.366 457.374 281.109C457.374 281.838 457.234 282.51 456.953 283.127C456.673 283.73 456.288 284.214 455.797 284.578C455.32 284.928 454.76 285.104 454.115 285.104ZM454.115 283.506C454.605 283.506 454.97 283.281 455.208 282.833C455.446 282.37 455.566 281.803 455.566 281.13C455.566 280.429 455.439 279.854 455.187 279.406C454.949 278.957 454.591 278.733 454.115 278.733C453.638 278.733 453.274 278.964 453.022 279.427C452.783 279.875 452.664 280.436 452.664 281.109C452.664 281.796 452.783 282.37 453.022 282.833C453.274 283.281 453.638 283.506 454.115 283.506ZM463.009 292.189C462.378 292.189 461.817 292.014 461.327 291.664C460.836 291.299 460.451 290.816 460.17 290.213C459.89 289.61 459.75 288.944 459.75 288.215C459.75 287.458 459.883 286.779 460.149 286.176C460.43 285.573 460.815 285.09 461.306 284.725C461.796 284.361 462.371 284.178 463.03 284.178C463.689 284.178 464.256 284.361 464.733 284.725C465.223 285.09 465.602 285.573 465.868 286.176C466.135 286.779 466.268 287.451 466.268 288.194C466.268 288.923 466.128 289.596 465.847 290.213C465.567 290.816 465.181 291.299 464.691 291.664C464.214 292.014 463.653 292.189 463.009 292.189ZM463.03 290.591C463.506 290.591 463.864 290.367 464.102 289.918C464.34 289.456 464.459 288.888 464.459 288.215C464.459 287.515 464.333 286.94 464.081 286.491C463.843 286.043 463.485 285.818 463.009 285.818C462.532 285.818 462.168 286.05 461.915 286.512C461.677 286.961 461.558 287.522 461.558 288.194C461.558 288.881 461.684 289.456 461.936 289.918C462.189 290.367 462.553 290.591 463.03 290.591ZM454.199 292.042C454.003 292.042 453.799 291.965 453.589 291.811C453.379 291.643 453.274 291.432 453.274 291.18C453.274 291.012 453.33 290.83 453.442 290.633L462.021 277.661C462.231 277.38 462.476 277.24 462.756 277.24C462.967 277.24 463.17 277.317 463.366 277.471C463.576 277.625 463.682 277.836 463.682 278.102C463.682 278.256 463.625 278.438 463.513 278.649L454.935 291.622C454.725 291.902 454.479 292.042 454.199 292.042Z" fill="url(#paint11_linear_398_4232)"/>
<path d="M262.229 161.264C262.49 161.264 262.722 161.366 262.926 161.57C263.141 161.762 263.249 162.012 263.249 162.318C263.249 162.42 263.232 162.527 263.198 162.641C263.175 162.743 263.13 162.845 263.062 162.947L259.203 168.472L259.509 167.299V172.178C259.509 172.472 259.407 172.722 259.203 172.926C259.01 173.118 258.784 173.215 258.523 173.215C258.24 173.215 257.996 173.118 257.792 172.926C257.599 172.722 257.503 172.472 257.503 172.178V167.435L257.639 167.979L253.967 163.1C253.854 162.952 253.774 162.811 253.729 162.675C253.684 162.539 253.661 162.414 253.661 162.301C253.661 161.995 253.78 161.745 254.018 161.553C254.256 161.36 254.5 161.264 254.749 161.264C255.066 161.264 255.344 161.422 255.582 161.74L258.846 166.245L258.37 166.177L261.379 161.774C261.617 161.434 261.9 161.264 262.229 161.264ZM272.73 168.676C272.73 169.605 272.52 170.427 272.101 171.141C271.693 171.843 271.137 172.393 270.435 172.79C269.743 173.186 268.967 173.385 268.106 173.385C267.244 173.385 266.462 173.186 265.76 172.79C265.068 172.393 264.513 171.843 264.094 171.141C263.686 170.427 263.482 169.605 263.482 168.676C263.482 167.746 263.686 166.93 264.094 166.228C264.513 165.514 265.068 164.958 265.76 164.562C266.462 164.154 267.244 163.95 268.106 163.95C268.967 163.95 269.743 164.154 270.435 164.562C271.137 164.958 271.693 165.514 272.101 166.228C272.52 166.93 272.73 167.746 272.73 168.676ZM270.69 168.676C270.69 168.098 270.571 167.599 270.333 167.18C270.106 166.749 269.794 166.415 269.398 166.177C269.012 165.939 268.582 165.82 268.106 165.82C267.63 165.82 267.193 165.939 266.797 166.177C266.411 166.415 266.1 166.749 265.862 167.18C265.635 167.599 265.522 168.098 265.522 168.676C265.522 169.242 265.635 169.741 265.862 170.172C266.1 170.591 266.411 170.92 266.797 171.158C267.193 171.396 267.63 171.515 268.106 171.515C268.582 171.515 269.012 171.396 269.398 171.158C269.794 170.92 270.106 170.591 270.333 170.172C270.571 169.741 270.69 169.242 270.69 168.676ZM281.264 164.12C281.559 164.12 281.802 164.222 281.995 164.426C282.188 164.618 282.284 164.862 282.284 165.157V169.475C282.284 170.676 281.95 171.628 281.281 172.331C280.612 173.033 279.649 173.385 278.391 173.385C277.133 173.385 276.17 173.033 275.501 172.331C274.844 171.628 274.515 170.676 274.515 169.475V165.157C274.515 164.862 274.611 164.618 274.804 164.426C274.997 164.222 275.24 164.12 275.535 164.12C275.83 164.12 276.073 164.222 276.266 164.426C276.459 164.618 276.555 164.862 276.555 165.157V169.475C276.555 170.166 276.708 170.682 277.014 171.022C277.32 171.35 277.779 171.515 278.391 171.515C279.014 171.515 279.479 171.35 279.785 171.022C280.091 170.682 280.244 170.166 280.244 169.475V165.157C280.244 164.862 280.34 164.618 280.533 164.426C280.726 164.222 280.969 164.12 281.264 164.12ZM285.513 173.215C285.218 173.215 284.974 173.118 284.782 172.926C284.589 172.722 284.493 172.472 284.493 172.178V165.157C284.493 164.862 284.589 164.618 284.782 164.426C284.974 164.222 285.218 164.12 285.513 164.12C285.807 164.12 286.051 164.222 286.244 164.426C286.436 164.618 286.533 164.862 286.533 165.157V166.755L286.414 165.616C286.538 165.344 286.697 165.106 286.89 164.902C287.094 164.686 287.32 164.511 287.57 164.375C287.819 164.227 288.085 164.12 288.369 164.052C288.652 163.984 288.935 163.95 289.219 163.95C289.559 163.95 289.842 164.046 290.069 164.239C290.307 164.431 290.426 164.658 290.426 164.919C290.426 165.293 290.329 165.565 290.137 165.735C289.944 165.893 289.734 165.973 289.508 165.973C289.292 165.973 289.094 165.933 288.913 165.854C288.743 165.774 288.544 165.735 288.318 165.735C288.114 165.735 287.904 165.786 287.689 165.888C287.485 165.978 287.292 166.126 287.111 166.33C286.941 166.534 286.799 166.789 286.686 167.095C286.584 167.389 286.533 167.741 286.533 168.149V172.178C286.533 172.472 286.436 172.722 286.244 172.926C286.051 173.118 285.807 173.215 285.513 173.215ZM301.711 161.315C302.301 161.315 302.85 161.485 303.36 161.825C303.882 162.165 304.301 162.624 304.618 163.202C304.936 163.78 305.094 164.426 305.094 165.14C305.094 165.842 304.936 166.483 304.618 167.061C304.301 167.639 303.882 168.103 303.36 168.455C302.85 168.795 302.301 168.965 301.711 168.965H298.583L298.753 168.659V172.178C298.753 172.472 298.663 172.722 298.481 172.926C298.3 173.118 298.062 173.215 297.767 173.215C297.484 173.215 297.252 173.118 297.07 172.926C296.889 172.722 296.798 172.472 296.798 172.178V162.352C296.798 162.057 296.895 161.813 297.087 161.621C297.291 161.417 297.541 161.315 297.835 161.315H301.711ZM301.711 167.027C301.927 167.027 302.136 166.936 302.34 166.755C302.544 166.573 302.714 166.341 302.85 166.058C302.986 165.763 303.054 165.457 303.054 165.14C303.054 164.811 302.986 164.505 302.85 164.222C302.714 163.938 302.544 163.712 302.34 163.542C302.136 163.36 301.927 163.27 301.711 163.27H298.549L298.753 162.964V167.299L298.566 167.027H301.711ZM307.892 173.215C307.597 173.215 307.353 173.118 307.161 172.926C306.968 172.722 306.872 172.472 306.872 172.178V165.157C306.872 164.862 306.968 164.618 307.161 164.426C307.353 164.222 307.597 164.12 307.892 164.12C308.186 164.12 308.43 164.222 308.623 164.426C308.815 164.618 308.912 164.862 308.912 165.157V166.755L308.793 165.616C308.917 165.344 309.076 165.106 309.269 164.902C309.473 164.686 309.699 164.511 309.949 164.375C310.198 164.227 310.464 164.12 310.748 164.052C311.031 163.984 311.314 163.95 311.598 163.95C311.938 163.95 312.221 164.046 312.448 164.239C312.686 164.431 312.805 164.658 312.805 164.919C312.805 165.293 312.708 165.565 312.516 165.735C312.323 165.893 312.113 165.973 311.887 165.973C311.671 165.973 311.473 165.933 311.292 165.854C311.122 165.774 310.923 165.735 310.697 165.735C310.493 165.735 310.283 165.786 310.068 165.888C309.864 165.978 309.671 166.126 309.49 166.33C309.32 166.534 309.178 166.789 309.065 167.095C308.963 167.389 308.912 167.741 308.912 168.149V172.178C308.912 172.472 308.815 172.722 308.623 172.926C308.43 173.118 308.186 173.215 307.892 173.215ZM322.684 168.676C322.684 169.605 322.474 170.427 322.055 171.141C321.647 171.843 321.092 172.393 320.389 172.79C319.698 173.186 318.921 173.385 318.06 173.385C317.199 173.385 316.417 173.186 315.714 172.79C315.023 172.393 314.467 171.843 314.048 171.141C313.64 170.427 313.436 169.605 313.436 168.676C313.436 167.746 313.64 166.93 314.048 166.228C314.467 165.514 315.023 164.958 315.714 164.562C316.417 164.154 317.199 163.95 318.06 163.95C318.921 163.95 319.698 164.154 320.389 164.562C321.092 164.958 321.647 165.514 322.055 166.228C322.474 166.93 322.684 167.746 322.684 168.676ZM320.644 168.676C320.644 168.098 320.525 167.599 320.287 167.18C320.06 166.749 319.749 166.415 319.352 166.177C318.967 165.939 318.536 165.82 318.06 165.82C317.584 165.82 317.148 165.939 316.751 166.177C316.366 166.415 316.054 166.749 315.816 167.18C315.589 167.599 315.476 168.098 315.476 168.676C315.476 169.242 315.589 169.741 315.816 170.172C316.054 170.591 316.366 170.92 316.751 171.158C317.148 171.396 317.584 171.515 318.06 171.515C318.536 171.515 318.967 171.396 319.352 171.158C319.749 170.92 320.06 170.591 320.287 170.172C320.525 169.741 320.644 169.242 320.644 168.676ZM328.243 163.95C328.719 163.95 329.156 164.023 329.552 164.171C329.949 164.318 330.289 164.505 330.572 164.732C330.867 164.958 331.094 165.191 331.252 165.429C331.422 165.655 331.507 165.848 331.507 166.007L331.065 166.228V164.987C331.065 164.692 331.162 164.448 331.354 164.256C331.547 164.052 331.791 163.95 332.085 163.95C332.38 163.95 332.624 164.046 332.816 164.239C333.009 164.431 333.105 164.681 333.105 164.987V172.552C333.105 173.538 332.89 174.325 332.459 174.915C332.04 175.515 331.485 175.946 330.793 176.207C330.102 176.479 329.36 176.615 328.566 176.615C328.34 176.615 328.045 176.586 327.682 176.53C327.32 176.473 326.974 176.405 326.645 176.326C326.317 176.246 326.067 176.173 325.897 176.105C325.557 175.957 325.319 175.77 325.183 175.544C325.059 175.328 325.036 175.096 325.115 174.847C325.217 174.518 325.382 174.291 325.608 174.167C325.835 174.053 326.073 174.042 326.322 174.133C326.436 174.167 326.623 174.235 326.883 174.337C327.144 174.439 327.427 174.529 327.733 174.609C328.051 174.699 328.328 174.745 328.566 174.745C329.416 174.745 330.045 174.575 330.453 174.235C330.861 173.895 331.065 173.424 331.065 172.824V171.345L331.269 171.498C331.269 171.645 331.19 171.826 331.031 172.042C330.884 172.246 330.674 172.45 330.402 172.654C330.142 172.858 329.83 173.033 329.467 173.181C329.105 173.317 328.719 173.385 328.311 173.385C327.507 173.385 326.781 173.186 326.135 172.79C325.489 172.382 324.979 171.826 324.605 171.124C324.231 170.41 324.044 169.594 324.044 168.676C324.044 167.746 324.231 166.93 324.605 166.228C324.979 165.514 325.484 164.958 326.118 164.562C326.753 164.154 327.461 163.95 328.243 163.95ZM328.566 165.82C328.056 165.82 327.609 165.944 327.223 166.194C326.838 166.443 326.538 166.783 326.322 167.214C326.107 167.644 325.999 168.132 325.999 168.676C325.999 169.208 326.107 169.69 326.322 170.121C326.538 170.551 326.838 170.891 327.223 171.141C327.609 171.39 328.056 171.515 328.566 171.515C329.088 171.515 329.541 171.39 329.926 171.141C330.312 170.891 330.612 170.551 330.827 170.121C331.043 169.69 331.15 169.208 331.15 168.676C331.15 168.132 331.043 167.644 330.827 167.214C330.612 166.783 330.312 166.443 329.926 166.194C329.541 165.944 329.088 165.82 328.566 165.82ZM336.33 173.215C336.035 173.215 335.792 173.118 335.599 172.926C335.406 172.722 335.31 172.472 335.31 172.178V165.157C335.31 164.862 335.406 164.618 335.599 164.426C335.792 164.222 336.035 164.12 336.33 164.12C336.625 164.12 336.868 164.222 337.061 164.426C337.254 164.618 337.35 164.862 337.35 165.157V166.755L337.231 165.616C337.356 165.344 337.514 165.106 337.707 164.902C337.911 164.686 338.138 164.511 338.387 164.375C338.636 164.227 338.903 164.12 339.186 164.052C339.469 163.984 339.753 163.95 340.036 163.95C340.376 163.95 340.659 164.046 340.886 164.239C341.124 164.431 341.243 164.658 341.243 164.919C341.243 165.293 341.147 165.565 340.954 165.735C340.761 165.893 340.552 165.973 340.325 165.973C340.11 165.973 339.911 165.933 339.73 165.854C339.56 165.774 339.362 165.735 339.135 165.735C338.931 165.735 338.721 165.786 338.506 165.888C338.302 165.978 338.109 166.126 337.928 166.33C337.758 166.534 337.616 166.789 337.503 167.095C337.401 167.389 337.35 167.741 337.35 168.149V172.178C337.35 172.472 337.254 172.722 337.061 172.926C336.868 173.118 336.625 173.215 336.33 173.215ZM346.583 173.385C345.62 173.385 344.781 173.186 344.067 172.79C343.365 172.382 342.821 171.832 342.435 171.141C342.061 170.449 341.874 169.667 341.874 168.795C341.874 167.775 342.078 166.908 342.486 166.194C342.906 165.468 343.45 164.913 344.118 164.528C344.787 164.142 345.495 163.95 346.243 163.95C346.821 163.95 347.365 164.069 347.875 164.307C348.397 164.545 348.856 164.873 349.252 165.293C349.649 165.701 349.961 166.177 350.187 166.721C350.425 167.265 350.544 167.843 350.544 168.455C350.533 168.727 350.425 168.948 350.221 169.118C350.017 169.288 349.779 169.373 349.507 169.373H343.013L342.503 167.673H348.742L348.368 168.013V167.554C348.346 167.225 348.227 166.93 348.011 166.67C347.807 166.409 347.547 166.205 347.229 166.058C346.923 165.899 346.595 165.82 346.243 165.82C345.903 165.82 345.586 165.865 345.291 165.956C344.997 166.046 344.742 166.199 344.526 166.415C344.311 166.63 344.141 166.919 344.016 167.282C343.892 167.644 343.829 168.103 343.829 168.659C343.829 169.271 343.954 169.792 344.203 170.223C344.464 170.642 344.793 170.965 345.189 171.192C345.597 171.407 346.028 171.515 346.481 171.515C346.901 171.515 347.235 171.481 347.484 171.413C347.734 171.345 347.932 171.265 348.079 171.175C348.238 171.073 348.38 170.988 348.504 170.92C348.708 170.818 348.901 170.767 349.082 170.767C349.332 170.767 349.536 170.852 349.694 171.022C349.864 171.192 349.949 171.39 349.949 171.617C349.949 171.923 349.791 172.2 349.473 172.45C349.179 172.699 348.765 172.92 348.232 173.113C347.7 173.294 347.15 173.385 346.583 173.385ZM351.8 171.804C351.686 171.645 351.635 171.441 351.647 171.192C351.658 170.942 351.805 170.727 352.089 170.546C352.27 170.432 352.463 170.387 352.667 170.41C352.871 170.421 353.069 170.523 353.262 170.716C353.59 171.044 353.936 171.299 354.299 171.481C354.661 171.662 355.115 171.753 355.659 171.753C355.829 171.741 356.016 171.719 356.22 171.685C356.424 171.639 356.599 171.549 356.747 171.413C356.905 171.265 356.985 171.044 356.985 170.75C356.985 170.5 356.9 170.302 356.73 170.155C356.56 170.007 356.333 169.883 356.05 169.781C355.778 169.679 355.472 169.582 355.132 169.492C354.78 169.39 354.418 169.276 354.044 169.152C353.681 169.027 353.347 168.868 353.041 168.676C352.735 168.472 352.485 168.205 352.293 167.877C352.1 167.548 352.004 167.134 352.004 166.636C352.004 166.069 352.162 165.587 352.48 165.191C352.797 164.794 353.205 164.488 353.704 164.273C354.214 164.057 354.746 163.95 355.302 163.95C355.653 163.95 356.021 163.995 356.407 164.086C356.792 164.165 357.16 164.301 357.512 164.494C357.863 164.675 358.158 164.919 358.396 165.225C358.52 165.395 358.594 165.599 358.617 165.837C358.639 166.075 358.532 166.29 358.294 166.483C358.124 166.619 357.925 166.681 357.699 166.67C357.472 166.647 357.285 166.568 357.138 166.432C356.945 166.182 356.684 165.984 356.356 165.837C356.038 165.689 355.67 165.616 355.251 165.616C355.081 165.616 354.894 165.638 354.69 165.684C354.497 165.718 354.327 165.803 354.18 165.939C354.032 166.063 353.959 166.267 353.959 166.551C353.959 166.811 354.044 167.021 354.214 167.18C354.384 167.327 354.61 167.452 354.894 167.554C355.188 167.644 355.5 167.735 355.829 167.826C356.169 167.916 356.514 168.024 356.866 168.149C357.217 168.273 357.54 168.438 357.835 168.642C358.129 168.846 358.367 169.112 358.549 169.441C358.73 169.758 358.821 170.166 358.821 170.665C358.821 171.243 358.651 171.736 358.311 172.144C357.971 172.552 357.546 172.863 357.036 173.079C356.526 173.283 356.004 173.385 355.472 173.385C354.803 173.385 354.134 173.271 353.466 173.045C352.797 172.807 352.242 172.393 351.8 171.804ZM360.001 171.804C359.888 171.645 359.837 171.441 359.848 171.192C359.859 170.942 360.007 170.727 360.29 170.546C360.471 170.432 360.664 170.387 360.868 170.41C361.072 170.421 361.27 170.523 361.463 170.716C361.792 171.044 362.137 171.299 362.5 171.481C362.863 171.662 363.316 171.753 363.86 171.753C364.03 171.741 364.217 171.719 364.421 171.685C364.625 171.639 364.801 171.549 364.948 171.413C365.107 171.265 365.186 171.044 365.186 170.75C365.186 170.5 365.101 170.302 364.931 170.155C364.761 170.007 364.534 169.883 364.251 169.781C363.979 169.679 363.673 169.582 363.333 169.492C362.982 169.39 362.619 169.276 362.245 169.152C361.882 169.027 361.548 168.868 361.242 168.676C360.936 168.472 360.687 168.205 360.494 167.877C360.301 167.548 360.205 167.134 360.205 166.636C360.205 166.069 360.364 165.587 360.681 165.191C360.998 164.794 361.406 164.488 361.905 164.273C362.415 164.057 362.948 163.95 363.503 163.95C363.854 163.95 364.223 163.995 364.608 164.086C364.993 164.165 365.362 164.301 365.713 164.494C366.064 164.675 366.359 164.919 366.597 165.225C366.722 165.395 366.795 165.599 366.818 165.837C366.841 166.075 366.733 166.29 366.495 166.483C366.325 166.619 366.127 166.681 365.9 166.67C365.673 166.647 365.486 166.568 365.339 166.432C365.146 166.182 364.886 165.984 364.557 165.837C364.24 165.689 363.871 165.616 363.452 165.616C363.282 165.616 363.095 165.638 362.891 165.684C362.698 165.718 362.528 165.803 362.381 165.939C362.234 166.063 362.16 166.267 362.16 166.551C362.16 166.811 362.245 167.021 362.415 167.18C362.585 167.327 362.812 167.452 363.095 167.554C363.39 167.644 363.701 167.735 364.03 167.826C364.37 167.916 364.716 168.024 365.067 168.149C365.418 168.273 365.741 168.438 366.036 168.642C366.331 168.846 366.569 169.112 366.75 169.441C366.931 169.758 367.022 170.166 367.022 170.665C367.022 171.243 366.852 171.736 366.512 172.144C366.172 172.552 365.747 172.863 365.237 173.079C364.727 173.283 364.206 173.385 363.673 173.385C363.004 173.385 362.336 173.271 361.667 173.045C360.998 172.807 360.443 172.393 360.001 171.804Z" fill="#080E41"/>
<path d="M487.266 280.909L481.542 275.186L475.819 280.909" stroke="url(#paint12_linear_398_4232)" stroke-width="1.5" stroke-linecap="round" stroke-linejoin="round"/>
<path d="M481.543 291.214V275.346" stroke="url(#paint13_linear_398_4232)" stroke-width="1.5" stroke-linecap="round" stroke-linejoin="round"/>
<defs>
<filter id="filter0_d_398_4232" x="0" y="0" width="402" height="402" filterUnits="userSpaceOnUse" color-interpolation-filters="sRGB">
<feFlood flood-opacity="0" result="BackgroundImageFix"/>
<feColorMatrix in="SourceAlpha" type="matrix" values="0 0 0 0 0 0 0 0 0 0 0 0 0 0 0 0 0 0 127 0" result="hardAlpha"/>
<feOffset dx="-4" dy="2"/>
<feGaussianBlur stdDeviation="20"/>
<feComposite in2="hardAlpha" operator="out"/>
<feColorMatrix type="matrix" values="0 0 0 0 0.0313726 0 0 0 0 0.054902 0 0 0 0 0.254902 0 0 0 0.05 0"/>
<feBlend mode="normal" in2="BackgroundImageFix" result="effect1_dropShadow_398_4232"/>
<feBlend mode="normal" in="SourceGraphic" in2="effect1_dropShadow_398_4232" result="shape"/>
</filter>
<filter id="filter1_d_398_4232" x="80" y="219" width="54" height="106" filterUnits="userSpaceOnUse" color-interpolation-filters="sRGB">
<feFlood flood-opacity="0" result="BackgroundImageFix"/>
<feColorMatrix in="SourceAlpha" type="matrix" values="0 0 0 0 0 0 0 0 0 0 0 0 0 0 0 0 0 0 127 0" result="hardAlpha"/>
<feOffset dy="7"/>
<feGaussianBlur stdDeviation="2.5"/>
<feComposite in2="hardAlpha" operator="out"/>
<feColorMatrix type="matrix" values="0 0 0 0 0.190313 0 0 0 0 0.500431 0 0 0 0 0.725 0 0 0 0.1 0"/>
<feBlend mode="normal" in2="BackgroundImageFix" result="effect1_dropShadow_398_4232"/>
<feBlend mode="normal" in="SourceGraphic" in2="effect1_dropShadow_398_4232" result="shape"/>
</filter>
<filter id="filter2_d_398_4232" x="130" y="201" width="55" height="124" filterUnits="userSpaceOnUse" color-interpolation-filters="sRGB">
<feFlood flood-opacity="0" result="BackgroundImageFix"/>
<feColorMatrix in="SourceAlpha" type="matrix" values="0 0 0 0 0 0 0 0 0 0 0 0 0 0 0 0 0 0 127 0" result="hardAlpha"/>
<feOffset dy="7"/>
<feGaussianBlur stdDeviation="2.5"/>
<feComposite in2="hardAlpha" operator="out"/>
<feColorMatrix type="matrix" values="0 0 0 0 0.190313 0 0 0 0 0.500431 0 0 0 0 0.725 0 0 0 0.1 0"/>
<feBlend mode="normal" in2="BackgroundImageFix" result="effect1_dropShadow_398_4232"/>
<feBlend mode="normal" in="SourceGraphic" in2="effect1_dropShadow_398_4232" result="shape"/>
</filter>
<filter id="filter3_d_398_4232" x="181" y="179" width="54" height="146" filterUnits="userSpaceOnUse" color-interpolation-filters="sRGB">
<feFlood flood-opacity="0" result="BackgroundImageFix"/>
<feColorMatrix in="SourceAlpha" type="matrix" values="0 0 0 0 0 0 0 0 0 0 0 0 0 0 0 0 0 0 127 0" result="hardAlpha"/>
<feOffset dy="7"/>
<feGaussianBlur stdDeviation="2.5"/>
<feComposite in2="hardAlpha" operator="out"/>
<feColorMatrix type="matrix" values="0 0 0 0 0.190313 0 0 0 0 0.500431 0 0 0 0 0.725 0 0 0 0.1 0"/>
<feBlend mode="normal" in2="BackgroundImageFix" result="effect1_dropShadow_398_4232"/>
<feBlend mode="normal" in="SourceGraphic" in2="effect1_dropShadow_398_4232" result="shape"/>
</filter>
<filter id="filter4_d_398_4232" x="231" y="146" width="55" height="179" filterUnits="userSpaceOnUse" color-interpolation-filters="sRGB">
<feFlood flood-opacity="0" result="BackgroundImageFix"/>
<feColorMatrix in="SourceAlpha" type="matrix" values="0 0 0 0 0 0 0 0 0 0 0 0 0 0 0 0 0 0 127 0" result="hardAlpha"/>
<feOffset dy="7"/>
<feGaussianBlur stdDeviation="2.5"/>
<feComposite in2="hardAlpha" operator="out"/>
<feColorMatrix type="matrix" values="0 0 0 0 0.190313 0 0 0 0 0.500431 0 0 0 0 0.725 0 0 0 0.1 0"/>
<feBlend mode="normal" in2="BackgroundImageFix" result="effect1_dropShadow_398_4232"/>
<feBlend mode="normal" in="SourceGraphic" in2="effect1_dropShadow_398_4232" result="shape"/>
</filter>
<filter id="filter5_d_398_4232" x="282" y="97" width="54" height="228" filterUnits="userSpaceOnUse" color-interpolation-filters="sRGB">
<feFlood flood-opacity="0" result="BackgroundImageFix"/>
<feColorMatrix in="SourceAlpha" type="matrix" values="0 0 0 0 0 0 0 0 0 0 0 0 0 0 0 0 0 0 127 0" result="hardAlpha"/>
<feOffset dy="7"/>
<feGaussianBlur stdDeviation="2.5"/>
<feComposite in2="hardAlpha" operator="out"/>
<feColorMatrix type="matrix" values="0 0 0 0 0.190313 0 0 0 0 0.500431 0 0 0 0 0.725 0 0 0 0.1 0"/>
<feBlend mode="normal" in2="BackgroundImageFix" result="effect1_dropShadow_398_4232"/>
<feBlend mode="normal" in="SourceGraphic" in2="effect1_dropShadow_398_4232" result="shape"/>
</filter>
<filter id="filter6_d_398_4232" x="165.086" y="77.0718" width="403.914" height="294.543" filterUnits="userSpaceOnUse" color-interpolation-filters="sRGB">
<feFlood flood-opacity="0" result="BackgroundImageFix"/>
<feColorMatrix in="SourceAlpha" type="matrix" values="0 0 0 0 0 0 0 0 0 0 0 0 0 0 0 0 0 0 127 0" result="hardAlpha"/>
<feOffset dx="1" dy="-4"/>
<feGaussianBlur stdDeviation="30"/>
<feComposite in2="hardAlpha" operator="out"/>
<feColorMatrix type="matrix" values="0 0 0 0 0.0313726 0 0 0 0 0.054902 0 0 0 0 0.254902 0 0 0 0.1 0"/>
<feBlend mode="normal" in2="BackgroundImageFix" result="effect1_dropShadow_398_4232"/>
<feBlend mode="normal" in="SourceGraphic" in2="effect1_dropShadow_398_4232" result="shape"/>
</filter>
<linearGradient id="paint0_linear_398_4232" x1="107" y1="219" x2="107" y2="313" gradientUnits="userSpaceOnUse">
<stop stop-color="#0B86F8"/>
<stop offset="0.135417" stop-color="#0B86F8"/>
<stop offset="0.651042" stop-color="#AFE5DB" stop-opacity="0.531246"/>
<stop offset="0.9998" stop-color="#C1D2FD" stop-opacity="0"/>
<stop offset="0.9999" stop-color="#FBFBFB"/>
</linearGradient>
<linearGradient id="paint1_linear_398_4232" x1="157.5" y1="201" x2="157.5" y2="313" gradientUnits="userSpaceOnUse">
<stop stop-color="#0B86F8"/>
<stop offset="0.135417" stop-color="#0B86F8"/>
<stop offset="0.651042" stop-color="#AFE5DB" stop-opacity="0.531246"/>
<stop offset="0.9998" stop-color="#C1D2FD" stop-opacity="0"/>
<stop offset="0.9999" stop-color="#FBFBFB"/>
</linearGradient>
<linearGradient id="paint2_linear_398_4232" x1="208" y1="179" x2="208" y2="313" gradientUnits="userSpaceOnUse">
<stop stop-color="#0B86F8"/>
<stop offset="0.135417" stop-color="#0B86F8"/>
<stop offset="0.651042" stop-color="#AFE5DB" stop-opacity="0.531246"/>
<stop offset="0.9998" stop-color="#C1D2FD" stop-opacity="0"/>
<stop offset="0.9999" stop-color="#FBFBFB"/>
</linearGradient>
<linearGradient id="paint3_linear_398_4232" x1="258.5" y1="146" x2="258.5" y2="313" gradientUnits="userSpaceOnUse">
<stop stop-color="#0B86F8"/>
<stop offset="0.135417" stop-color="#0B86F8"/>
<stop offset="0.651042" stop-color="#AFE5DB" stop-opacity="0.531246"/>
<stop offset="0.9998" stop-color="#C1D2FD" stop-opacity="0"/>
<stop offset="0.9999" stop-color="#FBFBFB"/>
</linearGradient>
<linearGradient id="paint4_linear_398_4232" x1="309" y1="97" x2="309" y2="313" gradientUnits="userSpaceOnUse">
<stop stop-color="#0B86F8"/>
<stop offset="0.135417" stop-color="#0B86F8"/>
<stop offset="0.651042" stop-color="#AFE5DB" stop-opacity="0.531246"/>
<stop offset="0.9998" stop-color="#C1D2FD" stop-opacity="0"/>
<stop offset="0.9999" stop-color="#FBFBFB"/>
</linearGradient>
<linearGradient id="paint5_linear_398_4232" x1="81.3077" y1="138.538" x2="104.692" y2="125" gradientUnits="userSpaceOnUse">
<stop stop-color="#285EED"/>
<stop offset="0.36387" stop-color="#285EED" stop-opacity="0.520833"/>
<stop offset="1" stop-color="#285EED" stop-opacity="0"/>
</linearGradient>
<linearGradient id="paint6_linear_398_4232" x1="101" y1="194" x2="112.626" y2="194.771" gradientUnits="userSpaceOnUse">
<stop stop-color="white"/>
<stop stop-color="#FF7020"/>
<stop offset="0.50726" stop-color="#F8872D"/>
<stop offset="1" stop-color="#F19D3A"/>
</linearGradient>
<linearGradient id="paint7_linear_398_4232" x1="152" y1="179" x2="163.626" y2="179.771" gradientUnits="userSpaceOnUse">
<stop stop-color="white"/>
<stop stop-color="#FF7020"/>
<stop offset="0.50726" stop-color="#F8872D"/>
<stop offset="1" stop-color="#F19D3A"/>
</linearGradient>
<linearGradient id="paint8_linear_398_4232" x1="202" y1="143" x2="213.626" y2="143.771" gradientUnits="userSpaceOnUse">
<stop stop-color="white"/>
<stop stop-color="#FF7020"/>
<stop offset="0.50726" stop-color="#F8872D"/>
<stop offset="1" stop-color="#F19D3A"/>
</linearGradient>
<linearGradient id="paint9_linear_398_4232" x1="248" y1="113" x2="259.626" y2="113.771" gradientUnits="userSpaceOnUse">
<stop stop-color="white"/>
<stop stop-color="#FF7020"/>
<stop offset="0.50726" stop-color="#F8872D"/>
<stop offset="1" stop-color="#F19D3A"/>
</linearGradient>
<linearGradient id="paint10_linear_398_4232" x1="309" y1="73" x2="320.626" y2="73.7711" gradientUnits="userSpaceOnUse">
<stop stop-color="white"/>
<stop stop-color="#FF7020"/>
<stop offset="0.50726" stop-color="#F8872D"/>
<stop offset="1" stop-color="#F19D3A"/>
</linearGradient>
<linearGradient id="paint11_linear_398_4232" x1="427" y1="295" x2="492.14" y2="246.084" gradientUnits="userSpaceOnUse">
<stop stop-color="#61D55F"/>
<stop offset="1" stop-color="#61D55F" stop-opacity="0.1"/>
</linearGradient>
<linearGradient id="paint12_linear_398_4232" x1="475.819" y1="280.909" x2="491.261" y2="269.55" gradientUnits="userSpaceOnUse">
<stop stop-color="#61D55F"/>
<stop offset="1" stop-color="#61D55F" stop-opacity="0.1"/>
</linearGradient>
<linearGradient id="paint13_linear_398_4232" x1="481.543" y1="291.214" x2="483.502" y2="291.172" gradientUnits="userSpaceOnUse">
<stop stop-color="#61D55F"/>
<stop offset="1" stop-color="#61D55F" stop-opacity="0.1"/>
</linearGradient>
</defs>
</svg>
