<svg width="463" height="386" viewBox="0 0 463 386" fill="none" xmlns="http://www.w3.org/2000/svg">
<g filter="url(#filter0_b_355_4569)">
<rect width="220.022" height="303.359" rx="32" transform="matrix(0.994522 0.104528 -0.104653 0.994509 31.7471 61.241)" fill="#0066FF"/>
<path d="M56.2981 120.329C54.5477 120.145 53.2207 119.512 52.3171 118.428C51.415 117.331 51.0538 115.929 51.2333 114.222C51.3485 113.128 51.6686 112.188 52.1936 111.403C52.7348 110.605 53.4238 110.013 54.2606 109.629C55.0974 109.245 56.0263 109.107 57.0473 109.214C58.5206 109.369 59.6303 109.965 60.3765 111.002C61.1243 112.025 61.4115 113.36 61.238 115.008L61.1597 115.752L53.3269 114.929C53.254 117.163 54.3116 118.395 56.4995 118.625C57.1121 118.689 57.7202 118.657 58.3236 118.529C58.9416 118.402 59.5361 118.148 60.1073 117.765L60.6025 119.366C60.0751 119.753 59.4191 120.03 58.6345 120.199C57.85 120.367 57.0711 120.41 56.2981 120.329ZM56.9714 110.777C56.0525 110.68 55.2932 110.888 54.6937 111.4C54.0941 111.913 53.6861 112.636 53.4696 113.572L59.4427 114.2C59.5033 113.204 59.3214 112.41 58.8968 111.82C58.4738 111.215 57.832 110.867 56.9714 110.777ZM67.5689 121.514C66.227 121.373 65.2639 120.925 64.6796 120.17C64.0954 119.416 63.8716 118.389 64.0082 117.091L64.5515 111.928L62.473 111.709L62.6526 110.003L64.7311 110.221L65.0695 107.005L67.2794 107.237L66.9409 110.453L70.2447 110.801L70.0651 112.507L66.7613 112.16L66.2364 117.148C66.1551 117.921 66.2541 118.522 66.5336 118.949C66.8276 119.378 67.3466 119.632 68.0905 119.71C68.3239 119.735 68.5523 119.737 68.7757 119.716C69.0006 119.681 69.2263 119.638 69.4528 119.588L69.6279 121.288C69.3952 121.396 69.0782 121.466 68.6767 121.497C68.2882 121.545 67.919 121.55 67.5689 121.514ZM71.0298 121.678L72.653 106.253L74.8628 106.486L74.1882 112.896C74.6173 112.322 75.1543 111.914 75.7992 111.672C76.4602 111.417 77.1772 111.33 77.9503 111.411C80.4737 111.677 81.585 113.239 81.2842 116.098L80.5912 122.683L78.3813 122.451L79.0605 115.997C79.1572 115.078 79.0455 114.388 78.7254 113.926C78.4198 113.466 77.8878 113.197 77.1293 113.117C76.2395 113.023 75.4949 113.233 74.8953 113.745C74.3119 114.244 73.9718 114.953 73.8751 115.872L73.2396 121.911L71.0298 121.678ZM88.6258 123.727C86.8755 123.543 85.5485 122.909 84.6449 121.826C83.7428 120.729 83.3815 119.326 83.5611 117.62C83.6762 116.526 83.9963 115.586 84.5214 114.801C85.0626 114.002 85.7516 113.411 86.5884 113.027C87.4252 112.643 88.3541 112.505 89.3751 112.612C90.8483 112.767 91.9581 113.363 92.7043 114.4C93.4521 115.422 93.7392 116.758 93.5658 118.406L93.4875 119.15L85.6547 118.327C85.5818 120.561 86.6394 121.793 88.8273 122.022C89.4399 122.087 90.0479 122.055 90.6514 121.927C91.2693 121.8 91.8639 121.545 92.4351 121.163L92.9303 122.763C92.4029 123.15 91.7469 123.428 90.9623 123.596C90.1777 123.765 89.3989 123.808 88.6258 123.727ZM89.2992 114.175C88.3802 114.078 87.621 114.286 87.0214 114.798C86.4219 115.31 86.0139 116.034 85.7974 116.97L91.7705 117.598C91.8311 116.601 91.6492 115.808 91.2246 115.218C90.8016 114.613 90.1598 114.265 89.2992 114.175ZM95.3878 124.238L96.5114 113.561L98.6556 113.787L98.4553 115.69C99.1431 114.479 100.37 113.893 102.136 113.931L102.862 113.963L102.817 115.861L101.469 115.852C99.5089 115.838 98.4338 116.735 98.2435 118.544L97.6195 124.473L95.3878 124.238ZM104.737 111.926L104.978 109.629L107.56 109.9L107.318 112.198L104.737 111.926ZM103.55 125.096L104.673 114.419L106.883 114.651L105.76 125.329L103.55 125.096ZM112.657 126.252C110.075 125.981 108.935 124.409 109.237 121.535L109.928 114.972L112.138 115.204L111.445 121.789C111.354 122.65 111.463 123.303 111.77 123.748C112.077 124.193 112.61 124.456 113.368 124.535C114.2 124.623 114.9 124.416 115.469 123.916C116.052 123.417 116.393 122.7 116.491 121.767L117.126 115.728L119.336 115.96L118.213 126.637L116.069 126.412L116.248 124.705C115.832 125.296 115.315 125.721 114.698 125.98C114.081 126.24 113.4 126.331 112.657 126.252ZM121.371 126.969L122.494 116.292L124.638 116.518L124.457 118.246C124.842 117.667 125.337 117.24 125.941 116.964C126.545 116.689 127.226 116.591 127.985 116.67C129.619 116.842 130.601 117.668 130.932 119.148C131.338 118.512 131.874 118.038 132.542 117.724C133.209 117.411 133.943 117.297 134.746 117.381C137.138 117.632 138.183 119.187 137.883 122.046L137.19 128.632L134.98 128.4L135.661 121.923C135.756 121.019 135.666 120.339 135.389 119.882C135.128 119.427 134.639 119.161 133.925 119.086C133.122 119.002 132.458 119.22 131.931 119.74C131.406 120.245 131.093 120.979 130.992 121.941L130.363 127.914L128.153 127.682L128.835 121.206C128.93 120.302 128.847 119.622 128.585 119.167C128.323 118.711 127.835 118.446 127.12 118.371C126.318 118.287 125.653 118.505 125.127 119.024C124.616 119.531 124.31 120.266 124.209 121.229L123.581 127.202L121.371 126.969Z" fill="white"/>
<path d="M47.2745 159.587C47.6184 157.184 48.6031 155.407 50.2285 154.256C51.8539 153.105 53.9403 152.664 56.4876 152.931C58.1782 153.109 59.5901 153.554 60.7232 154.265C61.8788 154.979 62.7076 155.876 63.2095 156.954C63.7339 158.035 63.9297 159.206 63.7969 160.469C63.6403 161.956 63.1403 163.135 62.2968 164.003C61.4556 164.849 60.5213 165.389 59.4938 165.623L59.4796 165.758C60.7195 166.322 61.6591 167.138 62.2987 168.209C62.9382 169.279 63.1761 170.591 63.0124 172.147C62.8654 173.544 62.408 174.75 61.6404 175.763C60.8978 176.756 59.8745 177.492 58.5706 177.97C57.2893 178.451 55.8032 178.602 54.1126 178.425C51.4075 178.14 49.3134 177.248 47.8303 175.747C46.3697 174.249 45.7355 172.154 45.9276 169.462L51.5407 170.052C51.4588 171.046 51.6576 171.865 52.1369 172.508C52.6186 173.128 53.378 173.493 54.4149 173.602C55.2941 173.694 55.9965 173.517 56.522 173.071C57.0725 172.605 57.3917 171.955 57.4794 171.121C57.5933 170.039 57.3257 169.224 56.6767 168.677C56.0526 168.11 54.9854 167.748 53.4751 167.589L52.393 167.475L52.8876 162.775L53.9697 162.889C55.1193 163.01 56.0637 162.915 56.8029 162.605C57.5669 162.275 58.0023 161.603 58.1091 160.589C58.1945 159.777 58.0355 159.122 57.6321 158.624C57.2287 158.126 56.6325 157.835 55.8435 157.752C54.9869 157.662 54.3171 157.854 53.8343 158.328C53.3739 158.803 53.0696 159.421 52.9214 160.18L47.2745 159.587ZM73.039 174.807L68.2645 184.117L64.5788 183.73L67.5612 174.232L73.039 174.807ZM80.8409 167.628C78.8406 166.278 77.9673 164.397 78.2211 161.985C78.3492 160.767 78.781 159.696 79.5166 158.771C80.2545 157.823 81.2968 157.123 82.6434 156.672C83.9924 156.198 85.6024 156.06 87.4734 156.256C89.3444 156.453 90.8791 156.922 92.0774 157.663C93.3007 158.385 94.1745 159.286 94.699 160.366C95.2258 161.424 95.4251 162.562 95.297 163.78C95.1689 164.997 94.7644 166.025 94.0834 166.866C93.425 167.708 92.5838 168.338 91.5599 168.754C92.7155 169.468 93.5656 170.378 94.1103 171.484C94.6572 172.567 94.8584 173.796 94.7137 175.171C94.5453 176.771 93.9936 178.115 93.0587 179.202C92.1262 180.266 90.9291 181.029 89.4674 181.491C88.0283 181.955 86.4634 182.098 84.7727 181.921C83.082 181.743 81.5699 181.276 80.2363 180.521C78.9252 179.768 77.9244 178.774 77.2339 177.539C76.5457 176.281 76.2858 174.852 76.4543 173.252C76.6013 171.854 77.0551 170.683 77.8156 169.737C78.5784 168.769 79.5869 168.065 80.8409 167.628ZM89.5914 164.069C89.6887 163.144 89.4929 162.406 89.0041 161.853C88.5402 161.28 87.8686 160.948 86.9895 160.855C86.1103 160.763 85.3729 160.947 84.7774 161.409C84.2043 161.873 83.8692 162.567 83.7719 163.491C83.6794 164.37 83.8764 165.098 84.3628 165.673C84.8517 166.226 85.5244 166.547 86.381 166.637C87.2376 166.727 87.9637 166.541 88.5593 166.08C89.1549 165.618 89.4989 164.948 89.5914 164.069ZM85.954 170.695C84.8945 170.583 84.0071 170.786 83.2917 171.304C82.5786 171.799 82.1687 172.553 82.062 173.568C81.9624 174.514 82.1961 175.325 82.7633 176C83.353 176.678 84.1888 177.073 85.2709 177.187C86.3529 177.301 87.2303 177.085 87.903 176.541C88.5982 175.998 88.9956 175.254 89.0953 174.307C89.1996 173.315 88.9558 172.492 88.3637 171.837C87.7942 171.184 86.991 170.804 85.954 170.695ZM97.5992 178.107C98.4297 177.579 98.8087 177.333 98.7364 177.371C101.138 175.778 103.031 174.461 104.417 173.422C105.825 172.384 107.037 171.27 108.051 170.077C109.065 168.885 109.636 167.68 109.765 166.462C109.862 165.538 109.724 164.794 109.35 164.231C108.976 163.667 108.361 163.341 107.504 163.251C106.648 163.161 105.937 163.416 105.372 164.018C104.832 164.599 104.501 165.476 104.378 166.648L98.7983 166.062C99.045 164.151 99.6192 162.593 100.521 161.388C101.445 160.186 102.57 159.347 103.897 158.872C105.246 158.398 106.698 158.243 108.253 158.406C110.936 158.688 112.881 159.588 114.089 161.105C115.319 162.625 115.818 164.489 115.586 166.698C115.332 169.11 114.273 171.267 112.409 173.168C110.548 175.046 108.24 176.832 105.487 178.525L114.616 179.485L114.122 184.185L97.1473 182.401L97.5992 178.107ZM130.735 168.051C130.643 167.198 130.392 166.545 129.984 166.092C129.578 165.616 128.958 165.335 128.124 165.247C126.84 165.112 125.856 165.578 125.174 166.646C124.494 167.692 124.016 169.419 123.74 171.829C124.319 171.092 125.094 170.547 126.066 170.193C127.06 169.841 128.12 169.725 129.248 169.844C131.457 170.076 133.153 170.961 134.336 172.498C135.541 174.038 136.012 176.059 135.749 178.561C135.576 180.206 135.086 181.614 134.279 182.782C133.495 183.953 132.424 184.821 131.065 185.385C129.729 185.951 128.193 186.143 126.458 185.96C122.986 185.595 120.688 184.26 119.563 181.954C118.441 179.625 118.094 176.42 118.523 172.34C118.974 168.057 120.019 164.953 121.657 163.029C123.32 161.084 125.73 160.277 128.886 160.609C130.577 160.787 131.961 161.274 133.04 162.071C134.143 162.848 134.931 163.809 135.403 164.952C135.898 166.098 136.134 167.32 136.112 168.616L130.735 168.051ZM127.381 174.263C126.411 174.161 125.569 174.368 124.854 174.886C124.163 175.383 123.762 176.161 123.651 177.221C123.537 178.303 123.741 179.179 124.263 179.849C124.808 180.522 125.632 180.916 126.737 181.032C127.729 181.137 128.537 180.925 129.162 180.398C129.813 179.851 130.192 179.059 130.301 178.022C130.413 176.963 130.219 176.099 129.719 175.431C129.22 174.764 128.44 174.374 127.381 174.263ZM141.413 187.669C140.399 187.562 139.596 187.182 139.004 186.527C138.436 185.852 138.199 185.075 138.292 184.196C138.387 183.294 138.782 182.572 139.477 182.03C140.195 181.49 141.061 181.273 142.075 181.38C143.067 181.484 143.847 181.873 144.414 182.548C145.003 183.226 145.251 184.015 145.156 184.917C145.063 185.796 144.658 186.506 143.94 187.046C143.248 187.565 142.405 187.773 141.413 187.669ZM154.688 181.475C154.839 183.291 155.782 184.29 157.518 184.473C158.713 184.598 159.614 184.157 160.221 183.15C160.829 182.143 161.258 180.444 161.51 178.055C160.94 178.701 160.207 179.171 159.31 179.465C158.413 179.758 157.435 179.849 156.375 179.737C154.933 179.586 153.678 179.158 152.613 178.453C151.55 177.726 150.753 176.742 150.223 175.501C149.717 174.24 149.554 172.764 149.731 171.073C149.907 169.405 150.398 167.987 151.205 166.818C152.034 165.652 153.116 164.797 154.449 164.253C155.805 163.712 157.351 163.533 159.087 163.715C162.423 164.066 164.647 165.348 165.759 167.562C166.871 169.775 167.214 172.9 166.79 176.935C166.481 179.865 165.956 182.26 165.213 184.119C164.495 185.958 163.453 187.307 162.086 188.166C160.742 189.028 158.988 189.345 156.824 189.118C155.111 188.938 153.681 188.445 152.535 187.641C151.411 186.839 150.581 185.852 150.043 184.679C149.528 183.508 149.296 182.252 149.346 180.913L154.688 181.475ZM158.174 175.311C159.121 175.411 159.906 175.208 160.529 174.704C161.154 174.177 161.519 173.418 161.623 172.426C161.737 171.344 161.532 170.479 161.007 169.831C160.483 169.184 159.725 168.808 158.733 168.703C157.741 168.599 156.92 168.82 156.27 169.368C155.645 169.894 155.277 170.676 155.168 171.713C155.066 172.683 155.265 173.501 155.765 174.169C156.289 174.817 157.092 175.197 158.174 175.311ZM169.843 177.563C170.251 173.686 171.316 170.71 173.039 168.634C174.784 166.561 177.325 165.7 180.661 166.051C183.997 166.402 186.292 167.771 187.545 170.159C188.82 172.549 189.254 175.683 188.846 179.56C188.433 183.483 187.354 186.48 185.609 188.553C183.886 190.629 181.357 191.491 178.021 191.14C174.684 190.79 172.379 189.419 171.103 187.029C169.85 184.641 169.43 181.486 169.843 177.563ZM183.165 178.963C183.405 176.687 183.341 174.914 182.973 173.644C182.607 172.352 181.647 171.625 180.092 171.461C178.536 171.298 177.445 171.81 176.819 172.997C176.195 174.163 175.763 175.883 175.523 178.16C175.362 179.693 175.318 180.976 175.392 182.01C175.468 183.02 175.743 183.87 176.218 184.558C176.717 185.226 177.508 185.617 178.59 185.73C179.672 185.844 180.516 185.625 181.121 185.073C181.751 184.501 182.208 183.729 182.493 182.756C182.78 181.76 183.004 180.496 183.165 178.963Z" fill="#E4E4F0"/>
</g>
<g filter="url(#filter1_b_355_4569)">
<rect width="220.022" height="315.805" rx="32" transform="matrix(0.990268 -0.139173 0.139049 0.990286 200.479 30.6211)" fill="url(#paint0_linear_355_4569)"/>
<path d="M233.818 82.4858L231.661 67.1264L238.066 66.2263C239.664 66.0017 240.948 66.1841 241.92 66.7733C242.904 67.3459 243.484 68.264 243.662 69.5277C243.778 70.3555 243.66 71.0978 243.308 71.7546C242.956 72.4113 242.422 72.9307 241.705 73.3128C242.624 73.4207 243.374 73.7522 243.955 74.3073C244.537 74.8625 244.895 75.6193 245.029 76.5779C245.221 77.9432 244.911 79.0605 244.1 79.9298C243.302 80.7826 242.097 81.3223 240.484 81.5488L233.818 82.4858ZM234.782 73.5304L238.66 72.9854C240.78 72.6874 241.724 71.7105 241.492 70.0548C241.259 68.399 240.083 67.7201 237.963 68.0181L234.085 68.5631L234.782 73.5304ZM235.752 80.4367L239.978 79.8427C242.113 79.5426 243.059 78.5284 242.817 76.8C242.576 75.0862 241.388 74.3793 239.253 74.6793L235.027 75.2733L235.752 80.4367ZM246.394 67.3664L246.073 65.0788L248.643 64.7175L248.965 67.0051L246.394 67.3664ZM248.428 80.4324L246.936 69.8007L249.136 69.4914L250.629 80.1231L248.428 80.4324ZM258.285 79.2471C256.949 79.4349 255.906 79.2334 255.157 78.6426C254.407 78.0518 253.942 77.1101 253.76 75.8174L253.038 70.6759L250.969 70.9667L250.73 69.2674L252.8 68.9765L252.35 65.774L254.55 65.4647L255 68.6673L258.29 68.205L258.528 69.9043L255.239 70.3666L255.936 75.3339C256.044 76.1037 256.285 76.6622 256.66 77.0094C257.049 77.3547 257.614 77.4752 258.355 77.3711C258.587 77.3384 258.809 77.285 259.021 77.2108C259.231 77.1221 259.439 77.0261 259.647 76.9229L260.228 78.5297C260.029 78.691 259.738 78.8355 259.356 78.9633C258.991 79.1035 258.634 79.1981 258.285 79.2471ZM266.288 78.1223C265.199 78.2754 264.223 78.183 263.361 77.845C262.512 77.4904 261.811 76.9298 261.259 76.1632C260.705 75.382 260.348 74.425 260.189 73.2921C259.953 71.6073 260.245 70.211 261.067 69.1031C261.889 67.9953 263.114 67.3271 264.74 67.0985C265.408 67.0046 266.085 67.0279 266.772 67.1684C267.458 67.3089 268.04 67.553 268.518 67.9004L268.038 69.5452C267.579 69.2248 267.09 69.0121 266.571 68.9072C266.066 68.7857 265.595 68.7556 265.159 68.8169C264.128 68.9618 263.375 69.4009 262.9 70.1341C262.438 70.8507 262.291 71.8045 262.458 72.9955C262.625 74.1865 263.033 75.0845 263.68 75.6896C264.341 76.2781 265.186 76.4998 266.218 76.3549C266.653 76.2937 267.099 76.1422 267.553 75.9006C268.021 75.6424 268.431 75.2959 268.785 74.8611L269.702 76.3317C269.336 76.7831 268.835 77.1719 268.2 77.4982C267.579 77.8224 266.942 78.0305 266.288 78.1223ZM276.18 76.7322C275.105 76.8832 274.144 76.7887 273.296 76.4487C272.449 76.1087 271.75 75.5626 271.2 74.8105C270.663 74.0418 270.314 73.091 270.155 71.9581C269.996 70.8252 270.07 69.8225 270.377 68.95C270.697 68.0609 271.217 67.3361 271.938 66.7756C272.659 66.2151 273.557 65.8594 274.632 65.7083C275.677 65.5613 276.624 65.6579 277.472 65.9979C278.319 66.3379 279.019 66.8912 279.571 67.6579C280.121 68.41 280.475 69.3525 280.634 70.4854C280.793 71.6183 280.713 72.6293 280.394 73.5184C280.072 74.393 279.551 75.1105 278.83 75.671C278.109 76.2315 277.225 76.5852 276.18 76.7322ZM275.941 75.0328C276.841 74.9063 277.522 74.4774 277.982 73.7463C278.442 73.0151 278.585 72.0323 278.412 70.7977C278.239 69.5631 277.831 68.6651 277.19 68.1036C276.546 67.5276 275.774 67.3029 274.873 67.4294C273.958 67.558 273.271 67.9879 272.811 68.719C272.348 69.4357 272.204 70.4113 272.377 71.6458C272.551 72.8804 272.959 73.7857 273.603 74.3617C274.247 74.9377 275.026 75.1614 275.941 75.0328ZM281.817 62.388L281.496 60.1004L284.067 59.7391L284.388 62.0267L281.817 62.388ZM283.852 75.454L282.359 64.8222L284.559 64.513L286.052 75.1447L283.852 75.454ZM289.149 74.7094L287.657 64.0777L289.792 63.7777L290.039 65.5424C290.313 64.8523 290.738 64.2963 291.316 63.8745C291.908 63.4506 292.596 63.1836 293.38 63.0733C295.893 62.7202 297.349 63.967 297.749 66.8137L298.67 73.3714L296.469 73.6807L295.567 67.2537C295.439 66.3387 295.163 65.6961 294.741 65.3259C294.333 64.9537 293.752 64.8207 292.996 64.9268C292.111 65.0513 291.439 65.4346 290.981 66.0765C290.535 66.7019 290.377 67.4722 290.505 68.3872L291.35 74.4002L289.149 74.7094Z" fill="white"/>
<path d="M240.761 135.376C241.439 134.663 241.748 134.333 241.687 134.388C243.631 132.26 245.15 130.525 246.243 129.181C247.359 127.834 248.264 126.459 248.96 125.057C249.656 123.654 249.919 122.347 249.748 121.135C249.619 120.214 249.305 119.526 248.806 119.07C248.307 118.613 247.631 118.445 246.778 118.565C245.925 118.685 245.298 119.105 244.895 119.825C244.512 120.52 244.403 121.451 244.566 122.618L239.011 123.399C238.788 121.485 238.968 119.834 239.552 118.448C240.158 117.058 241.047 115.971 242.219 115.189C243.413 114.403 244.784 113.901 246.333 113.683C249.004 113.308 251.109 113.71 252.648 114.89C254.21 116.067 255.145 117.755 255.454 119.955C255.791 122.357 255.285 124.705 253.937 127.001C252.585 129.274 250.778 131.565 248.516 133.874L257.607 132.597L258.264 137.277L241.362 139.652L240.761 135.376ZM266.866 130.986L264.486 141.175L260.816 141.69L261.412 131.753L266.866 130.986ZM268.237 118.227C267.99 115.813 268.515 113.851 269.814 112.34C271.113 110.83 273.03 109.897 275.567 109.541C277.25 109.304 278.728 109.394 279.999 109.81C281.293 110.224 282.314 110.893 283.062 111.818C283.832 112.739 284.306 113.829 284.482 115.086C284.69 116.567 284.49 117.831 283.882 118.878C283.27 119.903 282.494 120.653 281.554 121.128L281.573 121.263C282.912 121.509 284.022 122.075 284.901 122.958C285.78 123.842 286.329 125.058 286.546 126.607C286.742 127.998 286.59 129.279 286.09 130.448C285.61 131.591 284.795 132.552 283.645 133.332C282.518 134.108 281.113 134.615 279.43 134.851C276.736 135.23 274.488 134.871 272.686 133.773C270.907 132.673 269.784 130.794 269.32 128.135L274.909 127.35C275.07 128.334 275.461 129.08 276.081 129.588C276.699 130.074 277.524 130.244 278.556 130.099C279.432 129.976 280.07 129.634 280.472 129.074C280.894 128.488 281.046 127.78 280.929 126.95C280.778 125.872 280.322 125.147 279.56 124.773C278.817 124.374 277.694 124.28 276.19 124.491L275.112 124.643L274.455 119.963L275.532 119.811C276.677 119.65 277.571 119.33 278.213 118.851C278.875 118.346 279.134 117.588 278.993 116.578C278.879 115.77 278.566 115.173 278.054 114.787C277.542 114.402 276.894 114.264 276.108 114.374C275.255 114.494 274.652 114.842 274.298 115.418C273.966 115.991 273.82 116.664 273.86 117.437L268.237 118.227ZM290.049 128.449C290.727 127.736 291.035 127.406 290.974 127.461C292.918 125.333 294.437 123.598 295.53 122.254C296.646 120.907 297.551 119.532 298.247 118.13C298.943 116.727 299.206 115.42 299.036 114.208C298.906 113.287 298.592 112.599 298.093 112.143C297.594 111.686 296.918 111.518 296.065 111.638C295.212 111.758 294.585 112.178 294.182 112.898C293.799 113.593 293.69 114.524 293.854 115.691L288.298 116.472C288.075 114.558 288.255 112.907 288.839 111.521C289.445 110.131 290.334 109.045 291.506 108.262C292.7 107.476 294.072 106.974 295.62 106.757C298.291 106.381 300.396 106.783 301.935 107.963C303.497 109.14 304.432 110.829 304.741 113.028C305.078 115.43 304.573 117.779 303.224 120.074C301.872 122.347 300.065 124.638 297.803 126.947L306.894 125.67L307.551 130.35L290.649 132.725L290.049 128.449ZM312.32 116.564C310.053 115.738 308.75 114.124 308.413 111.723C308.243 110.51 308.403 109.366 308.892 108.29C309.379 107.192 310.221 106.261 311.419 105.498C312.613 104.712 314.142 104.188 316.005 103.926C317.868 103.664 319.47 103.748 320.812 104.177C322.174 104.581 323.239 105.244 324.01 106.166C324.777 107.065 325.246 108.121 325.416 109.333C325.586 110.545 325.442 111.641 324.985 112.621C324.55 113.598 323.886 114.412 322.993 115.064C324.287 115.477 325.332 116.154 326.128 117.095C326.921 118.014 327.413 119.158 327.606 120.527C327.829 122.121 327.619 123.558 326.975 124.839C326.328 126.097 325.351 127.127 324.044 127.929C322.76 128.727 321.276 129.245 319.593 129.481C317.909 129.718 316.329 129.631 314.853 129.221C313.398 128.807 312.187 128.085 311.218 127.053C310.246 126 309.648 124.676 309.424 123.082C309.229 121.691 309.386 120.444 309.895 119.342C310.401 118.218 311.209 117.292 312.32 116.564ZM319.95 110.994C319.82 110.074 319.452 109.404 318.844 108.986C318.255 108.542 317.523 108.382 316.648 108.505C315.772 108.628 315.101 108.986 314.635 109.578C314.191 110.167 314.034 110.921 314.163 111.841C314.286 112.717 314.653 113.375 315.264 113.815C315.873 114.233 316.603 114.383 317.456 114.263C318.309 114.143 318.969 113.787 319.435 113.195C319.901 112.603 320.073 111.869 319.95 110.994ZM318.023 118.303C316.968 118.451 316.156 118.863 315.587 119.538C315.015 120.191 314.8 121.022 314.942 122.032C315.074 122.975 315.497 123.705 316.211 124.223C316.947 124.737 317.854 124.919 318.931 124.768C320.008 124.616 320.808 124.195 321.329 123.504C321.872 122.809 322.077 121.991 321.945 121.048C321.806 120.06 321.371 119.32 320.638 118.828C319.927 118.333 319.056 118.158 318.023 118.303ZM335.269 127.072C334.259 127.214 333.387 127.039 332.655 126.547C331.941 126.029 331.523 125.333 331.4 124.457C331.274 123.559 331.482 122.763 332.026 122.069C332.592 121.371 333.38 120.952 334.39 120.81C335.377 120.671 336.228 120.86 336.942 121.378C337.678 121.893 338.109 122.599 338.235 123.497C338.358 124.372 338.136 125.159 337.57 125.856C337.024 126.528 336.257 126.933 335.269 127.072ZM356.027 103.932L345.522 105.408L346.174 110.055C346.554 109.498 347.126 109.006 347.89 108.578C348.654 108.15 349.507 107.87 350.45 107.737C352.133 107.501 353.578 107.687 354.785 108.295C356.015 108.901 356.973 109.773 357.659 110.913C358.346 112.052 358.788 113.329 358.987 114.743C359.356 117.37 358.908 119.561 357.644 121.318C356.377 123.053 354.397 124.109 351.703 124.488C349.907 124.74 348.305 124.657 346.895 124.237C345.483 123.794 344.34 123.074 343.467 122.075C342.595 121.076 342.024 119.863 341.755 118.436L347.378 117.645C347.61 118.322 348.017 118.86 348.6 119.259C349.179 119.635 349.918 119.76 350.816 119.634C351.87 119.486 352.609 119.039 353.031 118.293C353.452 117.547 353.584 116.613 353.427 115.49C353.272 114.391 352.885 113.587 352.264 113.079C351.643 112.571 350.817 112.39 349.784 112.535C349.021 112.642 348.419 112.921 347.979 113.372C347.536 113.801 347.278 114.329 347.206 114.957L341.651 115.738L339.594 101.091L355.318 98.8817L356.027 103.932ZM361.593 110.223C361.051 106.362 361.364 103.216 362.534 100.786C363.726 98.3524 365.983 96.9021 369.305 96.4353C372.627 95.9684 375.184 96.7419 376.978 98.7559C378.794 100.767 379.973 103.703 380.515 107.563C381.063 111.469 380.742 114.639 379.55 117.072C378.38 119.503 376.135 120.951 372.813 121.418C369.491 121.885 366.922 121.113 365.106 119.102C363.312 117.088 362.141 114.128 361.593 110.223ZM374.858 108.358C374.54 106.091 374.049 104.386 373.385 103.244C372.718 102.078 371.61 101.605 370.061 101.822C368.512 102.04 367.578 102.801 367.257 104.105C366.934 105.386 366.931 107.161 367.249 109.428C367.464 110.954 367.731 112.21 368.053 113.195C368.371 114.157 368.844 114.915 369.471 115.467C370.117 115.995 370.979 116.182 372.056 116.031C373.134 115.88 373.899 115.463 374.353 114.781C374.826 114.074 375.082 113.214 375.123 112.201C375.161 111.166 375.073 109.885 374.858 108.358Z" fill="#E4E4F0"/>
<rect x="1.12932" y="0.851112" width="218.022" height="313.805" rx="31" transform="matrix(0.990268 -0.139173 0.139049 0.990286 200.371 30.7865)" stroke="url(#paint1_linear_355_4569)" stroke-opacity="0.3" stroke-width="2"/>
</g>
<path d="M378.721 222.474C388.521 242.273 380.416 266.267 360.617 276.067C340.818 285.867 316.824 277.762 307.024 257.963C297.224 238.164 305.329 214.17 325.128 204.37C344.927 194.57 368.921 202.675 378.721 222.474Z" fill="url(#paint2_linear_355_4569)"/>
<path d="M153.096 265.849C162.896 285.648 154.791 309.642 134.992 319.442C115.193 329.242 91.1988 321.137 81.3988 301.338C71.5988 281.539 79.7043 257.545 99.5031 247.745C119.302 237.945 143.296 246.05 153.096 265.849Z" fill="url(#paint3_linear_355_4569)"/>
<g clip-path="url(#clip0_355_4569)">
<path d="M345.327 236.415C345.86 238.86 341.925 239.431 340.724 239.654L339.796 235.35C341.04 235.128 344.759 233.855 345.327 236.415ZM341.224 241.855L342.264 246.606C343.728 246.296 348.381 245.588 347.797 242.906C347.195 240.101 342.679 241.528 341.224 241.855ZM361.773 236.709C364.078 247.28 357.397 257.71 346.826 260.015C336.254 262.32 325.829 255.636 323.519 245.068C321.215 234.496 327.899 224.073 338.467 221.761C349.021 219.465 359.451 226.146 361.773 236.709ZM343.094 232.036L342.32 228.485L340.172 229.002L340.902 232.421C340.333 232.55 339.763 232.679 339.184 232.834L338.419 229.346L336.28 229.836L337.045 233.369C336.572 233.472 336.107 233.593 335.669 233.679L332.689 234.323L333.178 236.637C333.178 236.637 334.783 236.259 334.756 236.293C335.642 236.096 336.025 236.518 336.207 236.974L338.331 246.695C338.365 246.984 338.241 247.439 337.689 247.603C337.715 247.612 336.111 247.947 336.111 247.947L336.249 250.61L339.054 250.008C339.589 249.897 340.106 249.794 340.614 249.673L341.388 253.267L343.562 252.803L342.779 249.235C343.375 249.115 343.945 248.986 344.506 248.883L345.271 252.415L347.445 251.951L346.671 248.357C350.222 247.365 352.593 245.885 352.143 242.415C351.847 239.611 350.275 238.642 348.077 238.615C349.175 237.656 349.732 236.398 349.144 234.547C348.34 232.039 345.933 231.679 343.094 232.036Z" fill="white"/>
</g>
<path d="M138.654 283.5C138.654 295.374 129.028 305 117.154 305C105.28 305 95.6543 295.374 95.6543 283.5C95.6543 271.626 105.28 262 117.154 262C129.028 262 138.654 271.626 138.654 283.5Z" fill="white"/>
<path d="M116.655 272.896L109.884 284.271L116.655 288.333L123.425 284.271L116.655 272.896ZM109.884 285.625L116.655 295.104L123.425 285.625L116.655 289.687L109.884 285.625Z" fill="#0066FF"/>
<defs>
<filter id="filter0_b_355_4569" x="-12" y="49.241" width="274.563" height="348.692" filterUnits="userSpaceOnUse" color-interpolation-filters="sRGB">
<feFlood flood-opacity="0" result="BackgroundImageFix"/>
<feGaussianBlur in="BackgroundImageFix" stdDeviation="6"/>
<feComposite in2="SourceAlpha" operator="in" result="effect1_backgroundBlur_355_4569"/>
<feBlend mode="normal" in="SourceGraphic" in2="effect1_backgroundBlur_355_4569" result="shape"/>
</filter>
<filter id="filter1_b_355_4569" x="188.479" y="-12" width="285.793" height="367.358" filterUnits="userSpaceOnUse" color-interpolation-filters="sRGB">
<feFlood flood-opacity="0" result="BackgroundImageFix"/>
<feGaussianBlur in="BackgroundImageFix" stdDeviation="6"/>
<feComposite in2="SourceAlpha" operator="in" result="effect1_backgroundBlur_355_4569"/>
<feBlend mode="normal" in="SourceGraphic" in2="effect1_backgroundBlur_355_4569" result="shape"/>
</filter>
<linearGradient id="paint0_linear_355_4569" x1="-60.2197" y1="-98.4585" x2="274.387" y2="265.876" gradientUnits="userSpaceOnUse">
<stop offset="0.09375" stop-color="#F90F00"/>
<stop offset="0.916667" stop-color="#FF5757" stop-opacity="0.56"/>
</linearGradient>
<linearGradient id="paint1_linear_355_4569" x1="0" y1="0" x2="215.32" y2="168.528" gradientUnits="userSpaceOnUse">
<stop stop-color="white" stop-opacity="0.32"/>
<stop offset="1" stop-color="#BEBEBE" stop-opacity="0.23"/>
</linearGradient>
<linearGradient id="paint2_linear_355_4569" x1="325.128" y1="204.37" x2="360.617" y2="276.067" gradientUnits="userSpaceOnUse">
<stop stop-color="white" stop-opacity="0.5"/>
<stop offset="1" stop-color="white" stop-opacity="0"/>
</linearGradient>
<linearGradient id="paint3_linear_355_4569" x1="99.5031" y1="247.745" x2="134.992" y2="319.442" gradientUnits="userSpaceOnUse">
<stop stop-color="white" stop-opacity="0.5"/>
<stop offset="1" stop-color="white" stop-opacity="0"/>
</linearGradient>
<clipPath id="clip0_355_4569">
<rect width="47" height="47" fill="white" transform="translate(311.16 230.252) rotate(-26.3346)"/>
</clipPath>
</defs>
</svg>
