<svg width="406" height="400" viewBox="0 0 406 400" fill="none" xmlns="http://www.w3.org/2000/svg">
<path d="M6.99993 209.043L24.3149 208.606L15.2789 193.829L6.99993 209.043ZM181.964 259.078C184.785 255.678 184.316 250.635 180.916 247.813C177.516 244.992 172.472 245.461 169.651 248.861C166.829 252.261 167.299 257.305 170.699 260.126C174.099 262.948 179.142 262.479 181.964 259.078ZM177.248 254.388C177.641 253.034 177.942 251.689 178.151 250.354L175.188 249.888C174.998 251.094 174.726 252.315 174.367 253.551L177.248 254.388ZM178.3 242.123C177.964 239.395 177.246 236.745 176.187 234.183L173.415 235.33C174.377 237.657 175.021 240.045 175.323 242.49L178.3 242.123ZM172.212 227.04C170.708 224.907 168.961 222.852 166.999 220.882L164.873 222.998C166.728 224.862 168.363 226.788 169.761 228.769L172.212 227.04ZM160.94 215.562C158.897 213.982 156.708 212.465 154.389 211.017L152.8 213.561C155.041 214.961 157.147 216.42 159.104 217.935L160.94 215.562ZM147.46 207.084C145.152 205.892 142.748 204.757 140.261 203.683L139.071 206.436C141.498 207.486 143.84 208.591 146.084 209.75L147.46 207.084ZM132.871 200.752C130.427 199.865 127.92 199.03 125.359 198.252L124.487 201.122C126.998 201.886 129.454 202.703 131.847 203.572L132.871 200.752ZM117.73 196.137C115.195 195.5 112.619 194.915 110.01 194.385L109.413 197.325C111.977 197.846 114.509 198.42 116.999 199.046L117.73 196.137ZM102.221 192.981C99.6281 192.572 97.0115 192.217 94.3787 191.917L94.0392 194.898C96.6294 195.193 99.2033 195.542 101.754 195.944L102.221 192.981ZM86.4981 191.19C83.8696 191.004 81.2322 190.875 78.5929 190.803L78.5114 193.802C81.1069 193.872 83.701 194 86.2867 194.182L86.4981 191.19ZM70.6767 190.764C68.0318 190.81 65.392 190.916 62.7646 191.085L62.9567 194.079C65.5366 193.913 68.1298 193.809 70.7291 193.763L70.6767 190.764ZM54.8736 191.785C52.2348 192.086 49.6159 192.452 47.0246 192.888L47.5216 195.846C50.0589 195.42 52.6253 195.06 55.2132 194.766L54.8736 191.785ZM39.2435 194.423C36.6437 195.015 34.0808 195.682 31.5634 196.426L32.4135 199.303C34.8677 198.578 37.3692 197.927 39.9099 197.348L39.2435 194.423ZM24.0153 198.943C21.5037 199.882 19.05 200.906 16.6638 202.02L17.9322 204.738C20.2436 203.66 22.6244 202.665 25.0657 201.753L24.0153 198.943Z" fill="#0066FF"/>
<path d="M366.468 67.2007L353.846 79.0619L370.429 84.0622L366.468 67.2007ZM46.3193 223.871C46.3193 228.29 49.9011 231.871 54.3193 231.871C58.7376 231.871 62.3193 228.29 62.3193 223.871C62.3193 219.453 58.7376 215.871 54.3193 215.871C49.9011 215.871 46.3193 219.453 46.3193 223.871ZM52.9264 224.428C53.4476 225.732 53.998 227.003 54.577 228.241L57.2946 226.971C56.7403 225.785 56.2126 224.567 55.7122 223.315L52.9264 224.428ZM58.4446 235.368C59.9121 237.713 61.5016 239.912 63.2065 241.967L65.5154 240.052C63.8971 238.101 62.3856 236.01 60.9877 233.777L58.4446 235.368ZM68.8615 247.888C70.8857 249.729 73.0265 251.414 75.2757 252.948L76.9658 250.469C74.83 249.013 72.7991 247.414 70.8798 245.669L68.8615 247.888ZM82.3004 257.078C84.7009 258.286 87.1956 259.352 89.7766 260.281L90.7925 257.458C88.3203 256.568 85.9369 255.549 83.6488 254.398L82.3004 257.078ZM97.5623 262.609C100.155 263.239 102.819 263.749 105.546 264.144L105.976 261.175C103.337 260.793 100.766 260.3 98.2696 259.694L97.5623 262.609ZM113.601 264.967C116.231 265.13 118.912 265.197 121.638 265.171L121.61 262.172C118.952 262.196 116.342 262.131 113.786 261.973L113.601 264.967ZM129.693 264.838C132.343 264.647 135.03 264.376 137.749 264.026L137.366 261.051C134.7 261.393 132.069 261.659 129.477 261.846L129.693 264.838ZM145.668 262.806C148.265 262.342 150.888 261.811 153.533 261.215L152.873 258.288C150.271 258.875 147.691 259.397 145.139 259.853L145.668 262.806ZM161.376 259.278C163.917 258.596 166.476 257.857 169.048 257.064L168.164 254.197C165.626 254.98 163.103 255.708 160.598 256.38L161.376 259.278ZM176.677 254.567C179.185 253.698 181.704 252.78 184.232 251.813L183.16 249.011C180.662 249.966 178.173 250.874 175.695 251.732L176.677 254.567ZM191.646 248.847C194.103 247.823 196.566 246.754 199.032 245.641L197.799 242.907C195.358 244.007 192.922 245.065 190.492 246.079L191.646 248.847ZM206.26 242.263C208.652 241.106 211.046 239.91 213.438 238.676L212.063 236.01C209.693 237.232 207.323 238.417 204.954 239.563L206.26 242.263ZM220.503 234.918C222.832 233.643 225.157 232.332 227.478 230.987L225.974 228.391C223.674 229.724 221.369 231.023 219.062 232.287L220.503 234.918ZM234.365 226.887C236.629 225.503 238.888 224.086 241.138 222.639L239.516 220.115C237.284 221.551 235.045 222.955 232.8 224.327L234.365 226.887ZM247.834 218.224C250.034 216.737 252.225 215.221 254.405 213.677L252.67 211.229C250.509 212.761 248.336 214.264 246.154 215.738L247.834 218.224ZM260.896 208.968C263.031 207.383 265.152 205.772 267.26 204.134L265.419 201.766C263.329 203.39 261.225 204.988 259.108 206.559L260.896 208.968ZM273.533 199.147C275.599 197.467 277.648 195.763 279.681 194.034L277.737 191.749C275.722 193.463 273.689 195.154 271.641 196.819L273.533 199.147ZM285.723 188.776C287.715 187.004 289.688 185.208 291.641 183.389L289.596 181.194C287.66 182.997 285.704 184.778 283.729 186.535L285.723 188.776ZM297.436 177.866C299.348 176.002 301.237 174.116 303.103 172.209L300.959 170.111C299.11 172.001 297.237 173.87 295.342 175.718L297.436 177.866ZM308.633 166.421C310.456 164.466 312.254 162.491 314.024 160.497L311.781 158.505C310.027 160.481 308.246 162.437 306.439 164.374L308.633 166.421ZM319.265 154.442C320.99 152.397 322.685 150.334 324.35 148.252L322.007 146.378C320.359 148.439 318.68 150.483 316.972 152.508L319.265 154.442ZM329.27 141.929C330.885 139.795 332.467 137.643 334.014 135.475L331.572 133.732C330.041 135.877 328.476 138.007 326.878 140.119L329.27 141.929ZM338.576 128.88C340.067 126.657 341.52 124.417 342.934 122.163L340.393 120.568C338.995 122.797 337.558 125.011 336.084 127.209L338.576 128.88ZM347.093 115.295C348.443 112.984 349.751 110.659 351.015 108.32L348.376 106.893C347.128 109.203 345.836 111.5 344.503 113.783L347.093 115.295ZM354.715 101.181C355.905 98.7831 357.049 96.3718 358.144 93.9484L355.41 92.7132C354.33 95.1029 353.202 97.4813 352.028 99.8477L354.715 101.181ZM361.316 86.5547C362.326 84.07 363.283 81.5737 364.187 79.067L361.364 78.0499C360.475 80.5181 359.532 82.9769 358.537 85.4252L361.316 86.5547Z" fill="#0066FF"/>
<rect x="121.123" y="103.785" width="36.9806" height="17.8939" rx="8.94693" fill="#0066FF"/>
<path d="M140.026 120.824C140.026 121.374 139.89 121.848 139.62 122.246C139.353 122.644 138.968 122.949 138.464 123.16C137.965 123.372 137.368 123.478 136.674 123.478C136.336 123.478 136.012 123.458 135.703 123.42C135.394 123.382 135.102 123.327 134.827 123.255C134.556 123.179 134.309 123.088 134.084 122.982V121.548C134.461 121.713 134.882 121.863 135.348 121.999C135.813 122.13 136.287 122.195 136.77 122.195C137.163 122.195 137.489 122.145 137.747 122.043C138.009 121.937 138.204 121.789 138.331 121.599C138.458 121.404 138.521 121.178 138.521 120.919C138.521 120.644 138.447 120.412 138.299 120.221C138.151 120.031 137.927 119.857 137.626 119.701C137.33 119.54 136.958 119.368 136.509 119.187C136.205 119.064 135.913 118.924 135.633 118.768C135.358 118.611 135.113 118.427 134.897 118.215C134.681 118.004 134.51 117.754 134.383 117.466C134.26 117.174 134.199 116.832 134.199 116.438C134.199 115.913 134.324 115.465 134.573 115.092C134.827 114.72 135.183 114.434 135.64 114.235C136.101 114.036 136.638 113.937 137.252 113.937C137.739 113.937 138.196 113.988 138.623 114.089C139.055 114.191 139.478 114.335 139.893 114.521L139.41 115.746C139.029 115.59 138.659 115.465 138.299 115.372C137.944 115.278 137.58 115.232 137.208 115.232C136.886 115.232 136.613 115.281 136.389 115.378C136.164 115.475 135.993 115.613 135.875 115.791C135.76 115.964 135.703 116.171 135.703 116.413C135.703 116.683 135.769 116.912 135.9 117.098C136.035 117.28 136.243 117.447 136.522 117.6C136.806 117.752 137.169 117.921 137.614 118.107C138.126 118.319 138.56 118.541 138.915 118.774C139.275 119.007 139.55 119.286 139.74 119.612C139.931 119.933 140.026 120.338 140.026 120.824ZM137.315 133.19C137.942 133.19 138.479 133.319 138.928 133.578C139.376 133.836 139.721 134.202 139.962 134.676C140.204 135.15 140.324 135.717 140.324 136.377V137.177H135.633C135.65 137.858 135.832 138.383 136.179 138.751C136.53 139.119 137.021 139.303 137.652 139.303C138.1 139.303 138.502 139.261 138.858 139.176C139.218 139.087 139.588 138.958 139.969 138.789V140.001C139.618 140.167 139.26 140.287 138.896 140.363C138.532 140.439 138.096 140.478 137.588 140.478C136.899 140.478 136.291 140.344 135.767 140.078C135.246 139.807 134.838 139.405 134.542 138.872C134.25 138.338 134.104 137.676 134.104 136.885C134.104 136.098 134.237 135.429 134.503 134.879C134.77 134.329 135.145 133.91 135.627 133.622C136.109 133.334 136.672 133.19 137.315 133.19ZM137.315 134.314C136.846 134.314 136.465 134.466 136.173 134.771C135.885 135.076 135.716 135.522 135.665 136.11H138.864C138.86 135.759 138.801 135.448 138.687 135.177C138.576 134.906 138.407 134.695 138.179 134.542C137.954 134.39 137.667 134.314 137.315 134.314ZM138.179 150.19C138.97 150.19 139.586 150.396 140.026 150.806C140.47 151.212 140.692 151.866 140.692 152.768V157.351H139.201V153.047C139.201 152.501 139.089 152.093 138.864 151.822C138.64 151.547 138.293 151.409 137.823 151.409C137.142 151.409 136.668 151.619 136.401 152.038C136.139 152.457 136.008 153.064 136.008 153.859V157.351H134.516V150.324H135.678L135.887 151.276H135.97C136.122 151.03 136.31 150.829 136.535 150.673C136.763 150.512 137.017 150.391 137.296 150.311C137.58 150.231 137.874 150.19 138.179 150.19ZM136.877 174.478C136.04 174.478 135.367 174.173 134.859 173.563C134.355 172.95 134.104 172.046 134.104 170.853C134.104 169.647 134.36 168.735 134.872 168.117C135.388 167.499 136.067 167.19 136.909 167.19C137.265 167.19 137.576 167.239 137.842 167.336C138.109 167.43 138.337 167.556 138.528 167.717C138.722 167.878 138.888 168.058 139.023 168.257H139.093C139.072 168.126 139.046 167.937 139.017 167.692C138.991 167.442 138.979 167.212 138.979 167V164.474H140.477V174.351H139.309L139.042 173.392H138.979C138.852 173.595 138.691 173.779 138.496 173.944C138.306 174.105 138.077 174.234 137.811 174.332C137.548 174.429 137.237 174.478 136.877 174.478ZM137.296 173.265C137.935 173.265 138.386 173.081 138.648 172.713C138.911 172.345 139.046 171.792 139.055 171.056V170.859C139.055 170.072 138.928 169.469 138.674 169.05C138.42 168.627 137.957 168.416 137.284 168.416C136.746 168.416 136.336 168.633 136.052 169.069C135.773 169.501 135.633 170.104 135.633 170.878C135.633 171.653 135.773 172.245 136.052 172.656C136.336 173.062 136.75 173.265 137.296 173.265Z" fill="white"/>
<rect x="111.58" width="169.793" height="285.506" rx="30" fill="#F2F2F2"/>
<path d="M111.58 30C111.58 13.4315 125.011 0 141.58 0H251.372C267.941 0 281.372 13.4315 281.372 30V70.3825H111.58V30Z" fill="#0066FF"/>
<path d="M166.671 40.9623H228.703M166.671 47.7222H202.435" stroke="#918EFF" stroke-width="5" stroke-linecap="round"/>
<path d="M169.892 21.0155C169.639 21.0155 169.414 21.0652 169.218 21.1648C169.024 21.2616 168.861 21.4024 168.727 21.5874C168.596 21.7723 168.497 21.9957 168.428 22.2574C168.36 22.5192 168.326 22.8137 168.326 23.1409C168.326 23.5819 168.38 23.959 168.488 24.2719C168.599 24.5821 168.77 24.8197 169 24.9847C169.231 25.1469 169.528 25.228 169.892 25.228C170.145 25.228 170.399 25.1995 170.652 25.1426C170.908 25.0857 171.185 25.0046 171.484 24.8993V26.009C171.208 26.1228 170.936 26.2039 170.669 26.2523C170.402 26.3035 170.101 26.3291 169.768 26.3291C169.125 26.3291 168.596 26.1968 168.181 25.9322C167.768 25.6647 167.462 25.292 167.263 24.814C167.064 24.3331 166.964 23.7726 166.964 23.1324C166.964 22.6601 167.028 22.2276 167.156 21.8349C167.284 21.4423 167.472 21.1022 167.72 20.8149C167.967 20.5275 168.273 20.3055 168.637 20.149C169.002 19.9926 169.42 19.9143 169.892 19.9143C170.202 19.9143 170.512 19.9541 170.823 20.0338C171.136 20.1106 171.434 20.2173 171.719 20.3539L171.292 21.4294C171.059 21.3185 170.824 21.2217 170.588 21.1392C170.352 21.0567 170.12 21.0155 169.892 21.0155Z" fill="white"/>
<path d="M177.05 23.8494C177.05 24.2478 176.996 24.6006 176.887 24.9079C176.782 25.2152 176.627 25.4755 176.422 25.6889C176.22 25.8995 175.976 26.0588 175.688 26.1669C175.404 26.2751 175.082 26.3291 174.724 26.3291C174.388 26.3291 174.079 26.2751 173.797 26.1669C173.519 26.0588 173.275 25.8995 173.068 25.6889C172.863 25.4755 172.703 25.2152 172.59 24.9079C172.479 24.6006 172.423 24.2478 172.423 23.8494C172.423 23.3202 172.517 22.872 172.705 22.505C172.893 22.1379 173.16 21.8591 173.507 21.6685C173.854 21.4778 174.268 21.3825 174.749 21.3825C175.196 21.3825 175.591 21.4778 175.936 21.6685C176.283 21.8591 176.555 22.1379 176.751 22.505C176.95 22.872 177.05 23.3202 177.05 23.8494ZM173.75 23.8494C173.75 24.1624 173.785 24.4256 173.853 24.639C173.921 24.8524 174.028 25.0132 174.173 25.1213C174.318 25.2294 174.507 25.2835 174.741 25.2835C174.971 25.2835 175.158 25.2294 175.3 25.1213C175.445 25.0132 175.55 24.8524 175.616 24.639C175.684 24.4256 175.718 24.1624 175.718 23.8494C175.718 23.5336 175.684 23.2718 175.616 23.0641C175.55 22.8535 175.445 22.6956 175.3 22.5903C175.155 22.4851 174.965 22.4324 174.732 22.4324C174.388 22.4324 174.137 22.5505 173.981 22.7867C173.827 23.0228 173.75 23.3771 173.75 23.8494Z" fill="white"/>
<path d="M180.835 21.3825C181.345 21.3825 181.754 21.5219 182.065 21.8008C182.375 22.0768 182.53 22.5206 182.53 23.1324V26.2438H181.228V23.4568C181.228 23.1153 181.165 22.8578 181.04 22.6842C180.918 22.5107 180.724 22.4239 180.46 22.4239C180.061 22.4239 179.79 22.559 179.645 22.8294C179.499 23.0997 179.427 23.4895 179.427 23.9988V26.2438H178.125V21.4721H179.12L179.295 22.0825H179.367C179.47 21.9174 179.596 21.7837 179.747 21.6813C179.901 21.5788 180.07 21.5034 180.255 21.4551C180.443 21.4067 180.636 21.3825 180.835 21.3825Z" fill="white"/>
<path d="M185.005 26.2438L183.187 21.4721H184.549L185.47 24.1908C185.522 24.3502 185.561 24.5181 185.59 24.6945C185.621 24.8709 185.643 25.0288 185.654 25.1682H185.688C185.697 25.0174 185.717 24.8567 185.748 24.6859C185.782 24.5152 185.826 24.3502 185.88 24.1908L186.798 21.4721H188.159L186.341 26.2438H185.005Z" fill="white"/>
<path d="M190.814 21.3825C191.255 21.3825 191.635 21.4679 191.954 21.6386C192.272 21.8065 192.518 22.0512 192.692 22.3727C192.865 22.6942 192.952 23.0869 192.952 23.5506V24.1823H189.875C189.889 24.5494 189.999 24.8382 190.204 25.0487C190.411 25.2564 190.699 25.3603 191.066 25.3603C191.37 25.3603 191.649 25.329 191.902 25.2664C192.156 25.2038 192.416 25.1099 192.683 24.9847V25.9919C192.447 26.1086 192.2 26.194 191.941 26.248C191.685 26.3021 191.373 26.3291 191.006 26.3291C190.528 26.3291 190.104 26.2409 189.734 26.0645C189.367 25.8881 189.078 25.6192 188.868 25.2579C188.66 24.8965 188.556 24.4412 188.556 23.8921C188.556 23.3344 188.65 22.8706 188.838 22.5007C189.029 22.128 189.293 21.8491 189.632 21.6642C189.97 21.4764 190.364 21.3825 190.814 21.3825ZM190.823 22.3087C190.569 22.3087 190.359 22.3898 190.191 22.5519C190.026 22.7141 189.93 22.9688 189.905 23.3159H191.732C191.729 23.1224 191.693 22.9503 191.625 22.7995C191.559 22.6487 191.46 22.5292 191.326 22.441C191.195 22.3528 191.027 22.3087 190.823 22.3087Z" fill="white"/>
<path d="M196.674 21.3825C196.739 21.3825 196.815 21.3868 196.9 21.3953C196.988 21.401 197.059 21.4095 197.114 21.4209L197.015 22.6416C196.973 22.6273 196.912 22.6174 196.832 22.6117C196.755 22.6032 196.688 22.5989 196.631 22.5989C196.463 22.5989 196.3 22.6202 196.14 22.6629C195.984 22.7056 195.843 22.7753 195.718 22.872C195.593 22.9659 195.493 23.0911 195.419 23.2476C195.348 23.4013 195.312 23.5905 195.312 23.8153V26.2438H194.011V21.4721H194.997L195.189 22.2745H195.253C195.347 22.1123 195.463 21.9644 195.603 21.8306C195.745 21.6941 195.906 21.5859 196.085 21.5063C196.267 21.4238 196.463 21.3825 196.674 21.3825Z" fill="white"/>
<path d="M199.99 25.292C200.132 25.292 200.27 25.2778 200.404 25.2493C200.541 25.2209 200.676 25.1853 200.81 25.1426V26.1115C200.67 26.174 200.497 26.2253 200.289 26.2651C200.084 26.3078 199.859 26.3291 199.615 26.3291C199.33 26.3291 199.074 26.2836 198.846 26.1925C198.622 26.0986 198.444 25.9379 198.313 25.7103C198.185 25.4798 198.121 25.1597 198.121 24.75V22.4495H197.498V21.8989L198.215 21.4636L198.59 20.4563H199.423V21.4721H200.758V22.4495H199.423V24.75C199.423 24.9321 199.474 25.0686 199.576 25.1597C199.681 25.2479 199.819 25.292 199.99 25.292Z" fill="white"/>
<path d="M205.453 26.2438H204.151V20.0039H207.728V21.088H205.453V22.697H207.57V23.7769H205.453V26.2438Z" fill="white"/>
<path d="M208.949 26.2438V20.0039H210.272V26.2438H208.949Z" fill="white"/>
<path d="M215.662 26.2438L215.21 24.7585H212.935L212.483 26.2438H211.057L213.259 19.9783H214.877L217.088 26.2438H215.662ZM214.894 23.6488L214.442 22.1977C214.413 22.1009 214.375 21.9772 214.326 21.8264C214.281 21.6727 214.234 21.5177 214.186 21.3612C214.14 21.2018 214.103 21.0638 214.075 20.9472C214.046 21.0638 214.006 21.2089 213.955 21.3825C213.907 21.5532 213.86 21.7154 213.814 21.8691C213.769 22.0227 213.736 22.1322 213.716 22.1977L213.268 23.6488H214.894Z" fill="white"/>
<path d="M220.285 26.2438H218.961V21.1051H217.267V20.0039H221.979V21.1051H220.285V26.2438Z" fill="white"/>
<rect x="247.176" y="33.7996" width="21.075" height="21.075" rx="10.5375" fill="white"/>
<path d="M257.923 43.5772L260.102 41.3983L261.072 42.3679L258.893 44.5468L261.094 46.7474L260.124 47.717L257.923 45.5164L255.75 47.6898L254.78 46.7202L256.954 44.5468L254.731 42.3243L255.701 41.3547L257.923 43.5772Z" fill="#263238"/>
<rect x="126.294" y="133.608" width="136.391" height="29.8231" rx="11" fill="white"/>
<path d="M158.901 145.536H231.669M158.901 152.296H200.854" stroke="#DCDCDC" stroke-width="5" stroke-linecap="round"/>
<rect x="127.587" y="172.281" width="135.391" height="28.8231" rx="10.5" fill="#D4E9EE" stroke="#8BBDCA" stroke-dasharray="2 2"/>
<g filter="url(#filter0_d_104_17226)">
<rect x="79.3706" y="170.985" width="136.391" height="29.8231" rx="11" fill="white"/>
<rect x="79.8706" y="171.485" width="135.391" height="28.8231" rx="10.5" stroke="#EFEFEF"/>
</g>
<path d="M114.762 182.517H187.53M114.762 189.277H156.715" stroke="#DCDCDC" stroke-width="5" stroke-linecap="round"/>
<rect x="124.701" y="83.1067" width="136.789" height="24.6538" rx="12.3269" fill="white"/>
<path d="M246.18 90.2643C245.354 90.2643 244.547 90.5092 243.86 90.9679C243.174 91.4267 242.639 92.0788 242.323 92.8417C242.007 93.6046 241.924 94.4441 242.085 95.2541C242.246 96.064 242.644 96.8079 243.228 97.3918C243.812 97.9758 244.556 98.3734 245.366 98.5345C246.175 98.6956 247.015 98.6129 247.778 98.2969C248.541 97.9809 249.193 97.4458 249.652 96.7591C250.11 96.0725 250.355 95.2653 250.355 94.4395C250.355 93.3322 249.915 92.2702 249.132 91.4873C248.349 90.7043 247.287 90.2644 246.18 90.2643V90.2643Z" stroke="#DCDCDC" stroke-width="2" stroke-miterlimit="10"/>
<path d="M249.163 97.4218L252.344 100.603" stroke="#DCDCDC" stroke-width="2" stroke-miterlimit="10" stroke-linecap="round"/>
<path d="M138.571 97.4221L137.546 94.0816H137.52C137.524 94.1612 137.53 94.2815 137.537 94.4427C137.547 94.6019 137.556 94.7718 137.564 94.9524C137.571 95.1329 137.575 95.296 137.575 95.4417V97.4221H136.769V93.1641H137.998L139.005 96.4202H139.023L140.092 93.1641H141.321V97.4221H140.479V95.4067C140.479 95.2727 140.481 95.1184 140.485 94.9436C140.491 94.7689 140.497 94.6029 140.505 94.4456C140.513 94.2864 140.519 94.167 140.523 94.0874H140.496L139.398 97.4221H138.571Z" fill="#333131"/>
<path d="M145.284 95.7882C145.284 96.0601 145.248 96.3008 145.174 96.5105C145.102 96.7202 144.996 96.8979 144.856 97.0435C144.718 97.1872 144.551 97.2959 144.355 97.3697C144.161 97.4435 143.942 97.4803 143.697 97.4803C143.468 97.4803 143.257 97.4435 143.065 97.3697C142.875 97.2959 142.709 97.1872 142.567 97.0435C142.427 96.8979 142.319 96.7202 142.241 96.5105C142.165 96.3008 142.127 96.0601 142.127 95.7882C142.127 95.4271 142.191 95.1213 142.32 94.8708C142.448 94.6204 142.63 94.4301 142.867 94.3C143.104 94.1699 143.387 94.1049 143.715 94.1049C144.019 94.1049 144.289 94.1699 144.524 94.3C144.761 94.4301 144.947 94.6204 145.081 94.8708C145.216 95.1213 145.284 95.4271 145.284 95.7882ZM143.033 95.7882C143.033 96.0018 143.056 96.1814 143.103 96.327C143.15 96.4726 143.222 96.5823 143.321 96.6561C143.421 96.7299 143.55 96.7668 143.709 96.7668C143.866 96.7668 143.993 96.7299 144.09 96.6561C144.189 96.5823 144.261 96.4726 144.306 96.327C144.352 96.1814 144.376 96.0018 144.376 95.7882C144.376 95.5727 144.352 95.3941 144.306 95.2523C144.261 95.1087 144.189 95.0009 144.09 94.9291C143.991 94.8572 143.862 94.8213 143.703 94.8213C143.468 94.8213 143.297 94.9019 143.19 95.063C143.086 95.2242 143.033 95.4659 143.033 95.7882Z" fill="#333131"/>
<path d="M147.836 94.1049C147.88 94.1049 147.932 94.1078 147.99 94.1136C148.05 94.1175 148.099 94.1233 148.136 94.1311L148.069 94.964C148.04 94.9543 147.998 94.9475 147.943 94.9436C147.891 94.9378 147.845 94.9349 147.807 94.9349C147.692 94.9349 147.58 94.9495 147.472 94.9786C147.365 95.0077 147.269 95.0553 147.183 95.1213C147.098 95.1854 147.03 95.2708 146.979 95.3776C146.931 95.4824 146.907 95.6115 146.907 95.7649V97.4221H146.018V94.166H146.691L146.822 94.7136H146.866C146.93 94.6029 147.01 94.5019 147.105 94.4107C147.202 94.3175 147.311 94.2437 147.434 94.1893C147.558 94.133 147.692 94.1049 147.836 94.1049Z" fill="#333131"/>
<path d="M150.07 94.1049C150.37 94.1049 150.63 94.1631 150.847 94.2796C151.065 94.3942 151.233 94.5611 151.351 94.7805C151.469 94.9999 151.529 95.2679 151.529 95.5844V96.0154H149.429C149.439 96.2659 149.513 96.4629 149.653 96.6066C149.795 96.7484 149.991 96.8192 150.241 96.8192C150.449 96.8192 150.639 96.7979 150.812 96.7552C150.985 96.7124 151.163 96.6484 151.345 96.5629V97.2503C151.184 97.3299 151.015 97.3881 150.838 97.425C150.664 97.4619 150.451 97.4803 150.201 97.4803C149.874 97.4803 149.585 97.4202 149.333 97.2998C149.082 97.1794 148.885 96.9959 148.741 96.7493C148.6 96.5027 148.529 96.1921 148.529 95.8174C148.529 95.4368 148.593 95.1203 148.721 94.8679C148.851 94.6136 149.032 94.4233 149.263 94.2971C149.494 94.1689 149.763 94.1049 150.07 94.1049ZM150.075 94.7368C149.903 94.7368 149.759 94.7922 149.644 94.9029C149.532 95.0135 149.467 95.1873 149.449 95.4242H150.696C150.694 95.2921 150.669 95.1747 150.623 95.0718C150.578 94.9689 150.51 94.8873 150.419 94.8271C150.33 94.7669 150.215 94.7368 150.075 94.7368Z" fill="#333131"/>
<path d="M155.172 96.7726C155.269 96.7726 155.363 96.7629 155.455 96.7435C155.548 96.7241 155.64 96.6998 155.731 96.6707V97.3318C155.636 97.3745 155.518 97.4095 155.376 97.4367C155.236 97.4658 155.083 97.4803 154.916 97.4803C154.722 97.4803 154.547 97.4493 154.392 97.3871C154.238 97.3231 154.117 97.2134 154.028 97.058C153.94 96.9008 153.896 96.6823 153.896 96.4027V94.833H153.471V94.4573L153.961 94.1602L154.217 93.4729H154.785V94.166H155.696V94.833H154.785V96.4027C154.785 96.527 154.82 96.6202 154.89 96.6823C154.961 96.7425 155.056 96.7726 155.172 96.7726Z" fill="#333131"/>
<path d="M157.281 92.8904V93.8136C157.281 93.9748 157.275 94.1282 157.263 94.2738C157.253 94.4194 157.246 94.5223 157.24 94.5825H157.286C157.356 94.4699 157.439 94.3786 157.534 94.3087C157.631 94.2388 157.738 94.1874 157.854 94.1544C157.971 94.1214 158.096 94.1049 158.23 94.1049C158.465 94.1049 158.67 94.1466 158.845 94.2301C159.019 94.3116 159.155 94.4408 159.252 94.6174C159.349 94.7922 159.398 95.0194 159.398 95.2989V97.4221H158.51V95.5203C158.51 95.2873 158.467 95.1116 158.382 94.9931C158.296 94.8747 158.164 94.8155 157.985 94.8155C157.807 94.8155 157.666 94.8572 157.563 94.9407C157.46 95.0223 157.387 95.1436 157.345 95.3048C157.302 95.464 157.281 95.6591 157.281 95.8902V97.4221H156.392V92.8904H157.281Z" fill="#333131"/>
<path d="M161.646 94.099C162.083 94.099 162.418 94.1942 162.651 94.3844C162.884 94.5747 163.001 94.864 163.001 95.2523V97.4221H162.38L162.208 96.9794H162.185C162.092 97.0959 161.997 97.191 161.9 97.2648C161.803 97.3386 161.691 97.393 161.565 97.4279C161.439 97.4629 161.285 97.4803 161.105 97.4803C160.912 97.4803 160.74 97.4435 160.586 97.3697C160.435 97.2959 160.315 97.1833 160.228 97.0318C160.141 96.8784 160.097 96.6843 160.097 96.4493C160.097 96.1037 160.218 95.8494 160.461 95.6863C160.704 95.5213 161.068 95.43 161.553 95.4125L162.118 95.3951V95.2523C162.118 95.0815 162.074 94.9563 161.984 94.8766C161.895 94.797 161.771 94.7572 161.611 94.7572C161.454 94.7572 161.3 94.7796 161.148 94.8242C160.997 94.8689 160.845 94.9252 160.694 94.9931L160.4 94.3932C160.573 94.3019 160.766 94.2301 160.979 94.1777C161.195 94.1252 161.417 94.099 161.646 94.099ZM162.118 95.9135L161.775 95.9251C161.487 95.9329 161.287 95.9843 161.175 96.0795C161.064 96.1746 161.009 96.2998 161.009 96.4552C161.009 96.5911 161.048 96.6882 161.128 96.7464C161.208 96.8027 161.311 96.8309 161.44 96.8309C161.63 96.8309 161.79 96.7746 161.92 96.662C162.052 96.5493 162.118 96.3892 162.118 96.1814V95.9135Z" fill="#333131"/>
<path d="M165.767 94.1049C166.115 94.1049 166.395 94.2 166.606 94.3903C166.818 94.5786 166.924 94.8815 166.924 95.2989V97.4221H166.035V95.5203C166.035 95.2873 165.993 95.1116 165.907 94.9931C165.824 94.8747 165.692 94.8155 165.511 94.8155C165.239 94.8155 165.054 94.9077 164.955 95.0922C164.856 95.2766 164.806 95.5426 164.806 95.8902V97.4221H163.918V94.166H164.597L164.716 94.5825H164.766C164.835 94.4699 164.922 94.3786 165.025 94.3087C165.13 94.2388 165.245 94.1874 165.371 94.1544C165.499 94.1214 165.632 94.1049 165.767 94.1049Z" fill="#333131"/>
<path d="M172.233 96.5396H171.72V97.4221H170.841V96.5396H169.024V95.9135L170.89 93.1641H171.72V95.8407H172.233V96.5396ZM170.841 95.8407V95.1184C170.841 95.0504 170.842 94.9698 170.844 94.8766C170.848 94.7834 170.852 94.6903 170.855 94.5971C170.859 94.5039 170.863 94.4213 170.867 94.3495C170.873 94.2757 170.877 94.2243 170.879 94.1951H170.855C170.819 94.2747 170.78 94.3524 170.739 94.4281C170.698 94.5019 170.651 94.5796 170.596 94.6611L169.816 95.8407H170.841Z" fill="#333131"/>
<path d="M175.527 95.2931C175.527 95.6368 175.5 95.9436 175.445 96.2134C175.393 96.4833 175.308 96.7124 175.189 96.9008C175.073 97.0891 174.919 97.2328 174.729 97.3318C174.539 97.4308 174.308 97.4803 174.036 97.4803C173.694 97.4803 173.413 97.3939 173.194 97.2211C172.975 97.0464 172.813 96.7959 172.708 96.4697C172.603 96.1416 172.55 95.7494 172.55 95.2931C172.55 94.833 172.598 94.4398 172.693 94.1136C172.79 93.7855 172.947 93.534 173.165 93.3593C173.382 93.1845 173.673 93.0972 174.036 93.0972C174.376 93.0972 174.655 93.1845 174.875 93.3593C175.096 93.5321 175.26 93.7825 175.367 94.1107C175.474 94.4369 175.527 94.831 175.527 95.2931ZM173.445 95.2931C173.445 95.6174 173.462 95.8882 173.497 96.1057C173.534 96.3212 173.595 96.4833 173.68 96.5921C173.766 96.7008 173.884 96.7552 174.036 96.7552C174.185 96.7552 174.303 96.7018 174.388 96.595C174.476 96.4862 174.538 96.3241 174.575 96.1086C174.611 95.8911 174.63 95.6193 174.63 95.2931C174.63 94.9689 174.611 94.698 174.575 94.4806C174.538 94.2631 174.476 94.1 174.388 93.9913C174.303 93.8806 174.185 93.8253 174.036 93.8253C173.884 93.8253 173.766 93.8806 173.68 93.9913C173.595 94.1 173.534 94.2631 173.497 94.4806C173.462 94.698 173.445 94.9689 173.445 95.2931Z" fill="#333131"/>
<path d="M179.642 93.8544C179.469 93.8544 179.316 93.8884 179.182 93.9563C179.05 94.0223 178.938 94.1184 178.847 94.2447C178.758 94.3709 178.69 94.5233 178.643 94.7019C178.597 94.8805 178.573 95.0815 178.573 95.3048C178.573 95.6057 178.61 95.863 178.684 96.0766C178.76 96.2882 178.876 96.4503 179.033 96.5629C179.191 96.6736 179.394 96.7289 179.642 96.7289C179.815 96.7289 179.988 96.7095 180.161 96.6707C180.335 96.6319 180.525 96.5765 180.728 96.5047V97.2619C180.54 97.3396 180.355 97.3949 180.172 97.4279C179.99 97.4629 179.785 97.4803 179.558 97.4803C179.119 97.4803 178.758 97.3901 178.474 97.2095C178.193 97.027 177.984 96.7726 177.848 96.4464C177.712 96.1183 177.644 95.7358 177.644 95.2989C177.644 94.9766 177.688 94.6815 177.775 94.4136C177.863 94.1456 177.991 93.9136 178.16 93.7175C178.329 93.5214 178.537 93.37 178.786 93.2632C179.034 93.1564 179.32 93.103 179.642 93.103C179.854 93.103 180.065 93.1302 180.277 93.1845C180.491 93.237 180.695 93.3098 180.889 93.403L180.597 94.1369C180.438 94.0612 180.278 93.9952 180.117 93.9388C179.956 93.8825 179.797 93.8544 179.642 93.8544Z" fill="#333131"/>
<path d="M184.555 94.166V97.4221H183.874L183.754 97.0056H183.708C183.638 97.1163 183.551 97.2066 183.446 97.2765C183.341 97.3464 183.225 97.3978 183.099 97.4308C182.973 97.4638 182.842 97.4803 182.706 97.4803C182.473 97.4803 182.27 97.4396 182.097 97.358C181.925 97.2745 181.79 97.1454 181.692 96.9707C181.597 96.7959 181.55 96.5688 181.55 96.2892V94.166H182.438V96.0678C182.438 96.3008 182.48 96.4765 182.563 96.595C182.647 96.7134 182.78 96.7726 182.962 96.7726C183.143 96.7726 183.285 96.7319 183.388 96.6503C183.49 96.5668 183.562 96.4455 183.603 96.2863C183.646 96.1251 183.667 95.929 183.667 95.6979V94.166H184.555Z" fill="#333131"/>
<path d="M187.305 94.1049C187.349 94.1049 187.401 94.1078 187.459 94.1136C187.519 94.1175 187.568 94.1233 187.605 94.1311L187.538 94.964C187.509 94.9543 187.467 94.9475 187.412 94.9436C187.36 94.9378 187.314 94.9349 187.276 94.9349C187.161 94.9349 187.049 94.9495 186.941 94.9786C186.834 95.0077 186.738 95.0553 186.652 95.1213C186.567 95.1854 186.499 95.2708 186.448 95.3776C186.4 95.4824 186.376 95.6115 186.376 95.7649V97.4221H185.487V94.166H186.16L186.291 94.7136H186.335C186.399 94.6029 186.479 94.5019 186.574 94.4107C186.671 94.3175 186.78 94.2437 186.903 94.1893C187.027 94.133 187.161 94.1049 187.305 94.1049Z" fill="#333131"/>
<path d="M190.013 94.1049C190.058 94.1049 190.109 94.1078 190.168 94.1136C190.228 94.1175 190.276 94.1233 190.313 94.1311L190.246 94.964C190.217 94.9543 190.175 94.9475 190.121 94.9436C190.069 94.9378 190.023 94.9349 189.984 94.9349C189.87 94.9349 189.758 94.9495 189.649 94.9786C189.542 95.0077 189.446 95.0553 189.361 95.1213C189.275 95.1854 189.207 95.2708 189.157 95.3776C189.108 95.4824 189.084 95.6115 189.084 95.7649V97.4221H188.196V94.166H188.869L189 94.7136H189.043C189.107 94.6029 189.187 94.5019 189.282 94.4107C189.379 94.3175 189.489 94.2437 189.611 94.1893C189.736 94.133 189.87 94.1049 190.013 94.1049Z" fill="#333131"/>
<path d="M192.247 94.1049C192.548 94.1049 192.807 94.1631 193.025 94.2796C193.242 94.3942 193.41 94.5611 193.529 94.7805C193.647 94.9999 193.706 95.2679 193.706 95.5844V96.0154H191.606C191.616 96.2659 191.691 96.4629 191.831 96.6066C191.972 96.7484 192.168 96.8192 192.419 96.8192C192.627 96.8192 192.817 96.7979 192.99 96.7552C193.163 96.7124 193.34 96.6484 193.523 96.5629V97.2503C193.362 97.3299 193.193 97.3881 193.016 97.425C192.841 97.4619 192.629 97.4803 192.378 97.4803C192.052 97.4803 191.763 97.4202 191.51 97.2998C191.26 97.1794 191.063 96.9959 190.919 96.7493C190.777 96.5027 190.706 96.1921 190.706 95.8174C190.706 95.4368 190.77 95.1203 190.899 94.8679C191.029 94.6136 191.209 94.4233 191.44 94.2971C191.671 94.1689 191.94 94.1049 192.247 94.1049ZM192.253 94.7368C192.08 94.7368 191.936 94.7922 191.822 94.9029C191.709 95.0135 191.644 95.1873 191.627 95.4242H192.873C192.871 95.2921 192.847 95.1747 192.8 95.0718C192.756 94.9689 192.688 94.8873 192.597 94.8271C192.507 94.7669 192.393 94.7368 192.253 94.7368Z" fill="#333131"/>
<path d="M196.278 94.1049C196.625 94.1049 196.905 94.2 197.117 94.3903C197.328 94.5786 197.434 94.8815 197.434 95.2989V97.4221H196.546V95.5203C196.546 95.2873 196.503 95.1116 196.418 94.9931C196.334 94.8747 196.202 94.8155 196.022 94.8155C195.75 94.8155 195.564 94.9077 195.465 95.0922C195.366 95.2766 195.317 95.5426 195.317 95.8902V97.4221H194.428V94.166H195.107L195.226 94.5825H195.276C195.346 94.4699 195.432 94.3786 195.535 94.3087C195.64 94.2388 195.756 94.1874 195.882 94.1544C196.01 94.1214 196.142 94.1049 196.278 94.1049Z" fill="#333131"/>
<path d="M199.671 97.4803C199.349 97.4803 199.074 97.4221 198.847 97.3056C198.619 97.1872 198.447 97.0046 198.328 96.7581C198.21 96.5115 198.151 96.196 198.151 95.8115C198.151 95.4135 198.218 95.0893 198.351 94.8388C198.487 94.5864 198.675 94.401 198.914 94.2825C199.154 94.1641 199.433 94.1049 199.749 94.1049C199.975 94.1049 200.169 94.1272 200.332 94.1718C200.497 94.2146 200.641 94.266 200.763 94.3262L200.501 95.0135C200.361 94.9572 200.231 94.9116 200.111 94.8766C199.99 94.8398 199.87 94.8213 199.749 94.8213C199.594 94.8213 199.465 94.8582 199.362 94.932C199.259 95.0038 199.182 95.1126 199.132 95.2582C199.082 95.4038 199.056 95.5863 199.056 95.8057C199.056 96.0212 199.083 96.1999 199.138 96.3416C199.192 96.4833 199.271 96.5891 199.374 96.659C199.477 96.727 199.602 96.761 199.749 96.761C199.934 96.761 200.098 96.7367 200.242 96.6882C200.385 96.6377 200.525 96.5678 200.661 96.4785V97.2386C200.525 97.324 200.382 97.3852 200.233 97.4221C200.085 97.4609 199.898 97.4803 199.671 97.4803Z" fill="#333131"/>
<path d="M202.307 94.166V97.4221H201.418V94.166H202.307ZM201.864 92.8904C201.996 92.8904 202.109 92.9214 202.205 92.9836C202.3 93.0438 202.347 93.1574 202.347 93.3243C202.347 93.4894 202.3 93.6039 202.205 93.668C202.109 93.7301 201.996 93.7612 201.864 93.7612C201.73 93.7612 201.615 93.7301 201.52 93.668C201.427 93.6039 201.38 93.4894 201.38 93.3243C201.38 93.1574 201.427 93.0438 201.52 92.9836C201.615 92.9214 201.73 92.8904 201.864 92.8904Z" fill="#333131"/>
<path d="M204.584 94.1049C204.885 94.1049 205.144 94.1631 205.362 94.2796C205.579 94.3942 205.747 94.5611 205.866 94.7805C205.984 94.9999 206.043 95.2679 206.043 95.5844V96.0154H203.943C203.953 96.2659 204.028 96.4629 204.168 96.6066C204.309 96.7484 204.505 96.8192 204.756 96.8192C204.964 96.8192 205.154 96.7979 205.327 96.7552C205.5 96.7124 205.677 96.6484 205.86 96.5629V97.2503C205.699 97.3299 205.53 97.3881 205.353 97.425C205.178 97.4619 204.966 97.4803 204.715 97.4803C204.389 97.4803 204.1 97.4202 203.847 97.2998C203.597 97.1794 203.4 96.9959 203.256 96.7493C203.114 96.5027 203.043 96.1921 203.043 95.8174C203.043 95.4368 203.107 95.1203 203.236 94.8679C203.366 94.6136 203.546 94.4233 203.777 94.2971C204.008 94.1689 204.277 94.1049 204.584 94.1049ZM204.59 94.7368C204.417 94.7368 204.273 94.7922 204.159 94.9029C204.046 95.0135 203.981 95.1873 203.964 95.4242H205.21C205.208 95.2921 205.184 95.1747 205.137 95.0718C205.093 94.9689 205.025 94.8873 204.934 94.8271C204.844 94.7669 204.73 94.7368 204.59 94.7368Z" fill="#333131"/>
<path d="M209.037 96.4552C209.037 96.6765 208.985 96.8639 208.88 97.0173C208.777 97.1687 208.623 97.2842 208.417 97.3638C208.211 97.4415 207.955 97.4803 207.648 97.4803C207.421 97.4803 207.226 97.4658 207.063 97.4367C206.901 97.4075 206.738 97.359 206.573 97.291V96.5571C206.75 96.6367 206.939 96.7027 207.141 96.7552C207.345 96.8056 207.524 96.8309 207.677 96.8309C207.85 96.8309 207.973 96.8056 208.047 96.7552C208.123 96.7027 208.16 96.6348 208.16 96.5513C208.16 96.4969 208.145 96.4484 208.114 96.4057C208.085 96.361 208.021 96.3115 207.922 96.2571C207.823 96.2008 207.667 96.128 207.456 96.0387C207.252 95.9533 207.084 95.8669 206.952 95.7795C206.822 95.6921 206.725 95.5892 206.661 95.4708C206.598 95.3504 206.567 95.198 206.567 95.0135C206.567 94.7126 206.684 94.4864 206.917 94.3349C207.152 94.1815 207.465 94.1049 207.858 94.1049C208.06 94.1049 208.252 94.1252 208.434 94.166C208.619 94.2068 208.808 94.2718 209.002 94.3611L208.734 95.0019C208.573 94.932 208.421 94.8747 208.277 94.83C208.135 94.7854 207.991 94.7631 207.843 94.7631C207.713 94.7631 207.615 94.7805 207.549 94.8155C207.483 94.8504 207.45 94.9038 207.45 94.9757C207.45 95.0281 207.466 95.0747 207.499 95.1155C207.534 95.1562 207.6 95.2019 207.697 95.2523C207.796 95.3009 207.941 95.364 208.131 95.4417C208.316 95.5174 208.476 95.597 208.612 95.6805C208.748 95.762 208.853 95.864 208.926 95.9863C209 96.1067 209.037 96.263 209.037 96.4552Z" fill="#333131"/>
<path d="M128.637 120.497C128.464 120.497 128.31 120.531 128.176 120.599C128.044 120.665 127.933 120.761 127.841 120.887C127.752 121.013 127.684 121.166 127.638 121.344C127.591 121.523 127.568 121.724 127.568 121.947C127.568 122.248 127.605 122.505 127.678 122.719C127.754 122.93 127.871 123.093 128.028 123.205C128.185 123.316 128.388 123.371 128.637 123.371C128.809 123.371 128.982 123.352 129.155 123.313C129.33 123.274 129.519 123.219 129.723 123.147V123.904C129.535 123.982 129.349 124.037 129.167 124.07C128.984 124.105 128.779 124.123 128.552 124.123C128.113 124.123 127.752 124.032 127.469 123.852C127.187 123.669 126.978 123.415 126.843 123.089C126.707 122.761 126.639 122.378 126.639 121.941C126.639 121.619 126.682 121.324 126.77 121.056C126.857 120.788 126.985 120.556 127.154 120.36C127.323 120.164 127.532 120.012 127.78 119.905C128.029 119.799 128.314 119.745 128.637 119.745C128.848 119.745 129.06 119.772 129.271 119.827C129.485 119.879 129.689 119.952 129.883 120.045L129.592 120.779C129.433 120.703 129.272 120.637 129.111 120.581C128.95 120.525 128.792 120.497 128.637 120.497Z" fill="#333131"/>
<path d="M133.521 122.43C133.521 122.702 133.484 122.943 133.41 123.153C133.338 123.362 133.232 123.54 133.093 123.686C132.955 123.829 132.788 123.938 132.592 124.012C132.397 124.086 132.178 124.123 131.933 124.123C131.704 124.123 131.494 124.086 131.301 124.012C131.111 123.938 130.945 123.829 130.803 123.686C130.664 123.54 130.555 123.362 130.477 123.153C130.402 122.943 130.364 122.702 130.364 122.43C130.364 122.069 130.428 121.764 130.556 121.513C130.684 121.263 130.867 121.072 131.103 120.942C131.34 120.812 131.623 120.747 131.951 120.747C132.256 120.747 132.526 120.812 132.761 120.942C132.997 121.072 133.183 121.263 133.317 121.513C133.453 121.764 133.521 122.069 133.521 122.43ZM131.269 122.43C131.269 122.644 131.293 122.824 131.339 122.969C131.386 123.115 131.459 123.225 131.558 123.298C131.657 123.372 131.786 123.409 131.945 123.409C132.102 123.409 132.23 123.372 132.327 123.298C132.426 123.225 132.497 123.115 132.542 122.969C132.589 122.824 132.612 122.644 132.612 122.43C132.612 122.215 132.589 122.036 132.542 121.895C132.497 121.751 132.426 121.643 132.327 121.571C132.228 121.499 132.098 121.464 131.939 121.464C131.704 121.464 131.533 121.544 131.427 121.705C131.322 121.866 131.269 122.108 131.269 122.43Z" fill="#333131"/>
<path d="M136.104 120.747C136.452 120.747 136.731 120.842 136.943 121.033C137.154 121.221 137.26 121.524 137.26 121.941V124.064H136.372V122.163C136.372 121.93 136.329 121.754 136.244 121.635C136.16 121.517 136.028 121.458 135.848 121.458C135.576 121.458 135.39 121.55 135.291 121.734C135.192 121.919 135.143 122.185 135.143 122.532V124.064H134.255V120.808H134.933L135.053 121.225H135.102C135.172 121.112 135.258 121.021 135.361 120.951C135.466 120.881 135.582 120.83 135.708 120.797C135.836 120.764 135.968 120.747 136.104 120.747Z" fill="#333131"/>
<path d="M138.949 124.064L137.709 120.808H138.638L139.267 122.663C139.302 122.772 139.329 122.887 139.348 123.007C139.37 123.128 139.384 123.235 139.392 123.33H139.415C139.421 123.228 139.435 123.118 139.456 123.001C139.479 122.885 139.51 122.772 139.546 122.663L140.173 120.808H141.102L139.861 124.064H138.949Z" fill="#333131"/>
<path d="M142.913 120.747C143.214 120.747 143.473 120.805 143.691 120.922C143.908 121.036 144.076 121.203 144.195 121.423C144.313 121.642 144.372 121.91 144.372 122.227V122.658H142.272C142.282 122.908 142.357 123.105 142.497 123.249C142.638 123.391 142.835 123.461 143.085 123.461C143.293 123.461 143.483 123.44 143.656 123.397C143.829 123.355 144.006 123.291 144.189 123.205V123.893C144.028 123.972 143.859 124.03 143.682 124.067C143.507 124.104 143.295 124.123 143.044 124.123C142.718 124.123 142.429 124.062 142.176 123.942C141.926 123.822 141.729 123.638 141.585 123.392C141.443 123.145 141.373 122.834 141.373 122.46C141.373 122.079 141.437 121.763 141.565 121.51C141.695 121.256 141.875 121.066 142.106 120.939C142.338 120.811 142.606 120.747 142.913 120.747ZM142.919 121.379C142.746 121.379 142.603 121.434 142.488 121.545C142.375 121.656 142.31 121.83 142.293 122.066H143.539C143.537 121.934 143.513 121.817 143.467 121.714C143.422 121.611 143.354 121.53 143.263 121.469C143.173 121.409 143.059 121.379 142.919 121.379Z" fill="#333131"/>
<path d="M146.912 120.747C146.957 120.747 147.008 120.75 147.066 120.756C147.127 120.76 147.175 120.766 147.212 120.773L147.145 121.606C147.116 121.597 147.074 121.59 147.02 121.586C146.967 121.58 146.922 121.577 146.883 121.577C146.768 121.577 146.657 121.592 146.548 121.621C146.441 121.65 146.345 121.698 146.26 121.764C146.174 121.828 146.106 121.913 146.056 122.02C146.007 122.125 145.983 122.254 145.983 122.407V124.064H145.095V120.808H145.767L145.898 121.356H145.942C146.006 121.245 146.086 121.144 146.181 121.053C146.278 120.96 146.388 120.886 146.51 120.832C146.634 120.775 146.768 120.747 146.912 120.747Z" fill="#333131"/>
<path d="M149.175 123.415C149.272 123.415 149.366 123.405 149.457 123.386C149.551 123.366 149.643 123.342 149.734 123.313V123.974C149.639 124.017 149.521 124.052 149.379 124.079C149.239 124.108 149.086 124.123 148.919 124.123C148.724 124.123 148.55 124.092 148.394 124.029C148.241 123.965 148.12 123.856 148.03 123.7C147.943 123.543 147.899 123.325 147.899 123.045V121.475H147.474V121.1L147.963 120.802L148.22 120.115H148.788V120.808H149.699V121.475H148.788V123.045C148.788 123.169 148.823 123.262 148.892 123.325C148.964 123.385 149.058 123.415 149.175 123.415Z" fill="#333131"/>
<path d="M153.744 121.475H152.976V124.064H152.087V121.475H151.598V121.047L152.087 120.808V120.569C152.087 120.292 152.134 120.076 152.227 119.923C152.322 119.768 152.455 119.659 152.626 119.597C152.799 119.533 153.003 119.501 153.238 119.501C153.411 119.501 153.568 119.515 153.71 119.544C153.851 119.571 153.967 119.603 154.056 119.637L153.829 120.29C153.761 120.269 153.687 120.249 153.608 120.232C153.528 120.214 153.437 120.205 153.334 120.205C153.21 120.205 153.118 120.243 153.06 120.319C153.004 120.393 152.976 120.488 152.976 120.604V120.808H153.744V121.475Z" fill="#333131"/>
<path d="M156.074 120.747C156.119 120.747 156.171 120.75 156.229 120.756C156.289 120.76 156.337 120.766 156.374 120.773L156.307 121.606C156.278 121.597 156.237 121.59 156.182 121.586C156.13 121.58 156.084 121.577 156.045 121.577C155.931 121.577 155.819 121.592 155.71 121.621C155.604 121.65 155.507 121.698 155.422 121.764C155.337 121.828 155.269 121.913 155.218 122.02C155.17 122.125 155.145 122.254 155.145 122.407V124.064H154.257V120.808H154.93L155.061 121.356H155.105C155.169 121.245 155.248 121.144 155.343 121.053C155.44 120.96 155.55 120.886 155.672 120.832C155.797 120.775 155.931 120.747 156.074 120.747Z" fill="#333131"/>
<path d="M159.925 122.43C159.925 122.702 159.888 122.943 159.814 123.153C159.742 123.362 159.636 123.54 159.496 123.686C159.359 123.829 159.192 123.938 158.996 124.012C158.801 124.086 158.582 124.123 158.337 124.123C158.108 124.123 157.898 124.086 157.705 124.012C157.515 123.938 157.349 123.829 157.207 123.686C157.068 123.54 156.959 123.362 156.881 123.153C156.805 122.943 156.768 122.702 156.768 122.43C156.768 122.069 156.832 121.764 156.96 121.513C157.088 121.263 157.27 121.072 157.507 120.942C157.744 120.812 158.027 120.747 158.355 120.747C158.66 120.747 158.93 120.812 159.164 120.942C159.401 121.072 159.587 121.263 159.721 121.513C159.857 121.764 159.925 122.069 159.925 122.43ZM157.673 122.43C157.673 122.644 157.697 122.824 157.743 122.969C157.79 123.115 157.863 123.225 157.962 123.298C158.061 123.372 158.19 123.409 158.349 123.409C158.506 123.409 158.633 123.372 158.731 123.298C158.83 123.225 158.901 123.115 158.946 122.969C158.993 122.824 159.016 122.644 159.016 122.43C159.016 122.215 158.993 122.036 158.946 121.895C158.901 121.751 158.83 121.643 158.731 121.571C158.632 121.499 158.502 121.464 158.343 121.464C158.108 121.464 157.937 121.544 157.831 121.705C157.726 121.866 157.673 122.108 157.673 122.43Z" fill="#333131"/>
<path d="M164.483 120.747C164.851 120.747 165.13 120.842 165.318 121.033C165.509 121.221 165.604 121.524 165.604 121.941V124.064H164.713V122.163C164.713 121.93 164.673 121.754 164.593 121.635C164.514 121.517 164.39 121.458 164.223 121.458C163.988 121.458 163.821 121.542 163.722 121.711C163.623 121.878 163.574 122.118 163.574 122.43V124.064H162.686V122.163C162.686 122.007 162.668 121.877 162.633 121.772C162.598 121.667 162.545 121.589 162.473 121.536C162.401 121.484 162.309 121.458 162.196 121.458C162.031 121.458 161.901 121.499 161.806 121.583C161.713 121.665 161.646 121.786 161.605 121.947C161.566 122.106 161.547 122.301 161.547 122.532V124.064H160.659V120.808H161.337L161.457 121.225H161.506C161.572 121.112 161.655 121.021 161.754 120.951C161.855 120.881 161.965 120.83 162.086 120.797C162.206 120.764 162.328 120.747 162.453 120.747C162.691 120.747 162.893 120.786 163.058 120.864C163.225 120.941 163.354 121.062 163.443 121.225H163.521C163.619 121.058 163.755 120.936 163.932 120.861C164.111 120.785 164.294 120.747 164.483 120.747Z" fill="#333131"/>
<rect x="128.281" y="231.028" width="104.182" height="4.37405" rx="2.18703" fill="#D6D6D6"/>
<rect x="128.281" y="240.174" width="62.4297" height="4.37405" rx="2.18703" fill="#E0E0E0"/>
<g filter="url(#filter1_d_104_17226)">
<rect x="102.832" y="229.437" width="17.0986" height="17.0986" rx="8.54928" fill="white"/>
<rect x="103.332" y="229.937" width="16.0986" height="16.0986" rx="8.04928" stroke="#EFEFEF"/>
</g>
<path d="M110.214 240.158V239.717C110.214 239.446 110.254 239.208 110.332 239.001C110.411 238.79 110.537 238.591 110.711 238.404C110.886 238.213 111.116 238.019 111.402 237.82C111.659 237.645 111.864 237.488 112.017 237.349C112.175 237.209 112.288 237.072 112.359 236.937C112.434 236.798 112.471 236.641 112.471 236.466C112.471 236.207 112.371 236.01 112.172 235.875C111.973 235.74 111.696 235.672 111.339 235.672C110.983 235.672 110.629 235.726 110.276 235.833C109.928 235.941 109.574 236.082 109.213 236.257L108.536 234.951C108.95 234.728 109.4 234.549 109.885 234.414C110.37 234.275 110.9 234.205 111.476 234.205C112.363 234.205 113.049 234.41 113.534 234.819C114.023 235.225 114.267 235.742 114.267 236.37C114.267 236.704 114.212 236.995 114.1 237.241C113.992 237.484 113.826 237.71 113.602 237.921C113.383 238.128 113.107 238.347 112.775 238.577C112.527 238.752 112.336 238.899 112.204 239.019C112.071 239.138 111.98 239.257 111.93 239.377C111.884 239.492 111.862 239.633 111.862 239.8V240.158H110.214ZM110.015 242.198C110.015 241.824 110.121 241.562 110.332 241.411C110.548 241.26 110.807 241.184 111.109 241.184C111.404 241.184 111.656 241.26 111.868 241.411C112.083 241.562 112.191 241.824 112.191 242.198C112.191 242.556 112.083 242.814 111.868 242.974C111.656 243.133 111.404 243.212 111.109 243.212C110.807 243.212 110.548 243.133 110.332 242.974C110.121 242.814 110.015 242.556 110.015 242.198Z" fill="#0066FF"/>
<g filter="url(#filter2_d_104_17226)">
<rect x="103.229" y="254.887" width="17.0986" height="17.0986" rx="8.54928" fill="white"/>
<rect x="103.729" y="255.387" width="16.0986" height="16.0986" rx="8.04928" stroke="#EFEFEF"/>
</g>
<path d="M110.213 265.265V264.783C110.213 264.488 110.253 264.228 110.331 264.002C110.41 263.772 110.536 263.556 110.711 263.352C110.885 263.143 111.115 262.931 111.401 262.714C111.658 262.523 111.863 262.352 112.016 262.2C112.174 262.048 112.288 261.898 112.358 261.751C112.433 261.599 112.47 261.428 112.47 261.237C112.47 260.955 112.37 260.74 112.171 260.593C111.973 260.445 111.695 260.371 111.338 260.371C110.982 260.371 110.628 260.43 110.275 260.547C109.927 260.664 109.573 260.818 109.212 261.009L108.535 259.584C108.949 259.341 109.399 259.146 109.884 258.998C110.369 258.846 110.899 258.771 111.475 258.771C112.362 258.771 113.048 258.994 113.533 259.441C114.022 259.883 114.266 260.447 114.266 261.133C114.266 261.497 114.211 261.814 114.099 262.083C113.991 262.347 113.825 262.595 113.601 262.825C113.382 263.05 113.106 263.289 112.774 263.54C112.526 263.731 112.335 263.892 112.203 264.022C112.07 264.152 111.979 264.282 111.929 264.412C111.883 264.538 111.861 264.692 111.861 264.874V265.265H110.213ZM110.014 267.49C110.014 267.082 110.12 266.796 110.331 266.631C110.547 266.466 110.806 266.384 111.108 266.384C111.403 266.384 111.655 266.466 111.867 266.631C112.082 266.796 112.19 267.082 112.19 267.49C112.19 267.881 112.082 268.163 111.867 268.336C111.655 268.51 111.403 268.596 111.108 268.596C110.806 268.596 110.547 268.51 110.331 268.336C110.12 268.163 110.014 267.881 110.014 267.49Z" fill="#0066FF"/>
<path d="M258.708 240.174L261.492 237.192L258.708 234.209" stroke="black" stroke-width="2.5" stroke-linecap="round" stroke-linejoin="round"/>
<rect x="129.076" y="256.082" width="104.182" height="4.37405" rx="2.18703" fill="#D6D6D6"/>
<rect x="129.076" y="265.229" width="62.4297" height="4.37405" rx="2.18703" fill="#E0E0E0"/>
<path d="M259.501 265.229L262.285 262.247L259.501 259.265" stroke="black" stroke-width="2.5" stroke-linecap="round" stroke-linejoin="round"/>
<g filter="url(#filter3_d_104_17226)">
<rect x="225.703" y="159.852" width="136.391" height="156.273" rx="11" fill="white"/>
<rect x="226.203" y="160.352" width="135.391" height="155.273" rx="10.5" stroke="#EFEFEF"/>
</g>
<rect x="332.667" y="267.215" width="13.1222" height="13.1222" rx="6.56108" fill="#AFADFF"/>
<rect x="264.274" y="288.688" width="62.4297" height="2.78349" rx="1.39174" fill="#FF3D6B" fill-opacity="0.53"/>
<rect x="264.274" y="294.653" width="21.075" height="2.78349" rx="1.39174" fill="#FF3D6B" fill-opacity="0.45"/>
<rect x="238.825" y="185.699" width="106.965" height="73.9613" rx="11" fill="#0066FF"/>
<path d="M262.184 215.004C261.91 215.004 261.665 215.053 261.449 215.152C261.236 215.251 261.055 215.394 260.906 215.582C260.758 215.767 260.645 215.992 260.566 216.257C260.488 216.52 260.449 216.817 260.449 217.148C260.449 217.591 260.512 217.972 260.637 218.293C260.762 218.61 260.952 218.855 261.207 219.027C261.462 219.196 261.785 219.281 262.176 219.281C262.418 219.281 262.654 219.257 262.883 219.211C263.112 219.164 263.349 219.1 263.594 219.019V219.816C263.362 219.907 263.128 219.974 262.891 220.015C262.654 220.057 262.38 220.078 262.07 220.078C261.487 220.078 261.003 219.957 260.617 219.714C260.234 219.472 259.948 219.131 259.758 218.691C259.57 218.251 259.477 217.735 259.477 217.144C259.477 216.712 259.536 216.316 259.656 215.957C259.776 215.597 259.951 215.287 260.18 215.027C260.409 214.764 260.691 214.562 261.027 214.422C261.366 214.278 261.753 214.207 262.188 214.207C262.474 214.207 262.755 214.239 263.031 214.304C263.31 214.367 263.568 214.457 263.805 214.574L263.477 215.347C263.279 215.254 263.072 215.173 262.855 215.105C262.639 215.037 262.415 215.004 262.184 215.004ZM268.555 217.828C268.555 218.187 268.508 218.506 268.414 218.785C268.32 219.063 268.184 219.299 268.004 219.492C267.824 219.682 267.608 219.828 267.355 219.929C267.103 220.028 266.818 220.078 266.5 220.078C266.203 220.078 265.931 220.028 265.684 219.929C265.436 219.828 265.221 219.682 265.039 219.492C264.859 219.299 264.72 219.063 264.621 218.785C264.522 218.506 264.473 218.187 264.473 217.828C264.473 217.351 264.555 216.948 264.719 216.617C264.885 216.283 265.122 216.03 265.43 215.855C265.737 215.681 266.103 215.593 266.527 215.593C266.926 215.593 267.277 215.681 267.582 215.855C267.887 216.03 268.125 216.283 268.297 216.617C268.469 216.95 268.555 217.354 268.555 217.828ZM265.418 217.828C265.418 218.143 265.456 218.412 265.531 218.636C265.609 218.86 265.729 219.032 265.891 219.152C266.052 219.269 266.26 219.328 266.516 219.328C266.771 219.328 266.979 219.269 267.141 219.152C267.302 219.032 267.421 218.86 267.496 218.636C267.572 218.412 267.609 218.143 267.609 217.828C267.609 217.513 267.572 217.246 267.496 217.027C267.421 216.806 267.302 216.638 267.141 216.523C266.979 216.406 266.77 216.347 266.512 216.347C266.132 216.347 265.854 216.475 265.68 216.73C265.505 216.985 265.418 217.351 265.418 217.828ZM271.863 215.593C272.35 215.593 272.729 215.72 273 215.972C273.273 216.222 273.41 216.625 273.41 217.179V220H272.492V217.351C272.492 217.015 272.423 216.764 272.285 216.597C272.147 216.428 271.934 216.343 271.645 216.343C271.225 216.343 270.934 216.472 270.77 216.73C270.608 216.988 270.527 217.362 270.527 217.851V220H269.609V215.675H270.324L270.453 216.261H270.504C270.598 216.11 270.714 215.987 270.852 215.89C270.992 215.791 271.148 215.717 271.32 215.668C271.495 215.618 271.676 215.593 271.863 215.593ZM275.684 220L274.039 215.675H275.012L275.902 218.214C275.96 218.376 276.012 218.55 276.059 218.738C276.105 218.925 276.138 219.083 276.156 219.211H276.188C276.206 219.078 276.241 218.919 276.293 218.734C276.345 218.547 276.398 218.373 276.453 218.214L277.344 215.675H278.312L276.668 220H275.684ZM280.691 215.593C281.077 215.593 281.408 215.673 281.684 215.832C281.96 215.991 282.172 216.216 282.32 216.507C282.469 216.799 282.543 217.148 282.543 217.554V218.047H279.656C279.667 218.466 279.779 218.789 279.992 219.015C280.208 219.242 280.51 219.355 280.898 219.355C281.174 219.355 281.422 219.329 281.641 219.277C281.862 219.222 282.09 219.143 282.324 219.039V219.785C282.108 219.886 281.888 219.961 281.664 220.007C281.44 220.054 281.172 220.078 280.859 220.078C280.435 220.078 280.061 219.996 279.738 219.832C279.418 219.665 279.167 219.418 278.984 219.089C278.805 218.761 278.715 218.354 278.715 217.867C278.715 217.382 278.797 216.971 278.961 216.632C279.125 216.294 279.355 216.036 279.652 215.859C279.949 215.682 280.296 215.593 280.691 215.593ZM280.691 216.285C280.402 216.285 280.168 216.379 279.988 216.566C279.811 216.754 279.707 217.028 279.676 217.39H281.645C281.642 217.174 281.605 216.983 281.535 216.816C281.467 216.649 281.363 216.519 281.223 216.425C281.085 216.332 280.908 216.285 280.691 216.285ZM285.77 215.593C285.842 215.593 285.922 215.597 286.008 215.605C286.094 215.613 286.168 215.623 286.23 215.636L286.145 216.496C286.09 216.48 286.022 216.468 285.941 216.461C285.863 216.453 285.793 216.449 285.73 216.449C285.566 216.449 285.41 216.476 285.262 216.531C285.113 216.583 284.982 216.664 284.867 216.773C284.753 216.88 284.663 217.014 284.598 217.175C284.533 217.337 284.5 217.524 284.5 217.738V220H283.578V215.675H284.297L284.422 216.437H284.465C284.551 216.283 284.658 216.143 284.785 216.015C284.913 215.888 285.059 215.786 285.223 215.711C285.389 215.632 285.572 215.593 285.77 215.593ZM288.641 219.336C288.76 219.336 288.879 219.325 288.996 219.304C289.113 219.281 289.22 219.254 289.316 219.222V219.918C289.215 219.962 289.083 220 288.922 220.031C288.76 220.062 288.592 220.078 288.418 220.078C288.173 220.078 287.953 220.037 287.758 219.957C287.562 219.873 287.408 219.731 287.293 219.531C287.178 219.33 287.121 219.053 287.121 218.699V216.375H286.531V215.964L287.164 215.64L287.465 214.714H288.043V215.675H289.281V216.375H288.043V218.687C288.043 218.906 288.098 219.069 288.207 219.175C288.316 219.282 288.461 219.336 288.641 219.336ZM293.969 215.593C294.516 215.593 294.928 215.714 295.207 215.957C295.488 216.199 295.629 216.576 295.629 217.089V220H294.977L294.801 219.386H294.77C294.647 219.543 294.521 219.672 294.391 219.773C294.26 219.875 294.109 219.95 293.938 220C293.768 220.052 293.561 220.078 293.316 220.078C293.059 220.078 292.828 220.031 292.625 219.937C292.422 219.841 292.262 219.695 292.145 219.5C292.027 219.304 291.969 219.057 291.969 218.757C291.969 218.312 292.134 217.977 292.465 217.754C292.798 217.53 293.301 217.406 293.973 217.382L294.723 217.355V217.129C294.723 216.829 294.652 216.616 294.512 216.488C294.374 216.36 294.178 216.297 293.926 216.297C293.71 216.297 293.5 216.328 293.297 216.39C293.094 216.453 292.896 216.53 292.703 216.621L292.406 215.972C292.617 215.86 292.857 215.769 293.125 215.699C293.396 215.629 293.677 215.593 293.969 215.593ZM294.719 217.933L294.16 217.953C293.702 217.968 293.38 218.047 293.195 218.187C293.01 218.328 292.918 218.52 292.918 218.765C292.918 218.979 292.982 219.135 293.109 219.234C293.237 219.33 293.405 219.379 293.613 219.379C293.931 219.379 294.194 219.289 294.402 219.109C294.613 218.927 294.719 218.66 294.719 218.308V217.933ZM299.168 215.593C299.655 215.593 300.034 215.72 300.305 215.972C300.578 216.222 300.715 216.625 300.715 217.179V220H299.797V217.351C299.797 217.015 299.728 216.764 299.59 216.597C299.452 216.428 299.238 216.343 298.949 216.343C298.53 216.343 298.238 216.472 298.074 216.73C297.913 216.988 297.832 217.362 297.832 217.851V220H296.914V215.675H297.629L297.758 216.261H297.809C297.902 216.11 298.018 215.987 298.156 215.89C298.297 215.791 298.453 215.717 298.625 215.668C298.799 215.618 298.98 215.593 299.168 215.593ZM301.348 215.675H302.348L303.234 218.144C303.273 218.256 303.309 218.367 303.34 218.476C303.374 218.583 303.402 218.688 303.426 218.793C303.452 218.897 303.473 219.001 303.488 219.105H303.512C303.538 218.97 303.574 218.819 303.621 218.652C303.671 218.483 303.725 218.313 303.785 218.144L304.637 215.675H305.625L303.77 220.593C303.663 220.875 303.531 221.114 303.375 221.312C303.221 221.513 303.039 221.664 302.828 221.765C302.617 221.869 302.376 221.922 302.105 221.922C301.975 221.922 301.862 221.914 301.766 221.898C301.669 221.885 301.587 221.871 301.52 221.855V221.121C301.574 221.134 301.643 221.145 301.727 221.156C301.81 221.166 301.896 221.172 301.984 221.172C302.148 221.172 302.29 221.139 302.41 221.074C302.53 221.009 302.632 220.916 302.715 220.797C302.798 220.679 302.867 220.545 302.922 220.394L303.074 219.988L301.348 215.675ZM309.816 219.996L309.27 217.984C309.243 217.885 309.212 217.765 309.176 217.625C309.139 217.484 309.103 217.339 309.066 217.191C309.03 217.04 308.996 216.901 308.965 216.773C308.936 216.645 308.914 216.547 308.898 216.476H308.867C308.854 216.547 308.833 216.645 308.805 216.773C308.776 216.901 308.743 217.04 308.707 217.191C308.671 217.342 308.634 217.489 308.598 217.632C308.564 217.776 308.533 217.898 308.504 218L307.93 219.996H306.922L305.711 215.672H306.641L307.203 217.82C307.24 217.966 307.275 218.123 307.309 218.293C307.345 218.462 307.376 218.623 307.402 218.777C307.428 218.931 307.448 219.057 307.461 219.156H307.492C307.503 219.086 307.517 218.997 307.535 218.89C307.553 218.781 307.574 218.668 307.598 218.55C307.621 218.431 307.645 218.319 307.668 218.214C307.691 218.108 307.714 218.022 307.734 217.957L308.398 215.672H309.402L310.039 217.957C310.068 218.056 310.099 218.181 310.133 218.332C310.167 218.48 310.197 218.63 310.223 218.781C310.251 218.929 310.27 219.053 310.277 219.152H310.309C310.319 219.063 310.337 218.944 310.363 218.793C310.392 218.639 310.424 218.476 310.461 218.304C310.497 218.13 310.535 217.968 310.574 217.82L311.148 215.672H312.062L310.844 219.996H309.816ZM313.723 213.922V215.449C313.723 215.608 313.717 215.763 313.707 215.914C313.699 216.065 313.69 216.182 313.68 216.265H313.73C313.822 216.114 313.934 215.991 314.066 215.894C314.199 215.795 314.348 215.721 314.512 215.672C314.678 215.622 314.855 215.597 315.043 215.597C315.374 215.597 315.655 215.653 315.887 215.765C316.118 215.875 316.296 216.045 316.418 216.277C316.543 216.509 316.605 216.81 316.605 217.179V220H315.688V217.351C315.688 217.015 315.618 216.764 315.48 216.597C315.342 216.428 315.129 216.343 314.84 216.343C314.561 216.343 314.34 216.402 314.176 216.519C314.014 216.634 313.898 216.804 313.828 217.031C313.758 217.255 313.723 217.528 313.723 217.851V220H312.805V213.922H313.723ZM319.613 215.593C319.999 215.593 320.329 215.673 320.605 215.832C320.882 215.991 321.094 216.216 321.242 216.507C321.391 216.799 321.465 217.148 321.465 217.554V218.047H318.578C318.589 218.466 318.701 218.789 318.914 219.015C319.13 219.242 319.432 219.355 319.82 219.355C320.096 219.355 320.344 219.329 320.562 219.277C320.784 219.222 321.012 219.143 321.246 219.039V219.785C321.03 219.886 320.81 219.961 320.586 220.007C320.362 220.054 320.094 220.078 319.781 220.078C319.357 220.078 318.983 219.996 318.66 219.832C318.34 219.665 318.089 219.418 317.906 219.089C317.727 218.761 317.637 218.354 317.637 217.867C317.637 217.382 317.719 216.971 317.883 216.632C318.047 216.294 318.277 216.036 318.574 215.859C318.871 215.682 319.217 215.593 319.613 215.593ZM319.613 216.285C319.324 216.285 319.09 216.379 318.91 216.566C318.733 216.754 318.629 217.028 318.598 217.39H320.566C320.564 217.174 320.527 216.983 320.457 216.816C320.389 216.649 320.285 216.519 320.145 216.425C320.007 216.332 319.829 216.285 319.613 216.285ZM324.691 215.593C324.764 215.593 324.844 215.597 324.93 215.605C325.016 215.613 325.09 215.623 325.152 215.636L325.066 216.496C325.012 216.48 324.944 216.468 324.863 216.461C324.785 216.453 324.715 216.449 324.652 216.449C324.488 216.449 324.332 216.476 324.184 216.531C324.035 216.583 323.904 216.664 323.789 216.773C323.674 216.88 323.585 217.014 323.52 217.175C323.454 217.337 323.422 217.524 323.422 217.738V220H322.5V215.675H323.219L323.344 216.437H323.387C323.473 216.283 323.579 216.143 323.707 216.015C323.835 215.888 323.98 215.786 324.145 215.711C324.311 215.632 324.493 215.593 324.691 215.593ZM327.676 215.593C328.061 215.593 328.392 215.673 328.668 215.832C328.944 215.991 329.156 216.216 329.305 216.507C329.453 216.799 329.527 217.148 329.527 217.554V218.047H326.641C326.651 218.466 326.763 218.789 326.977 219.015C327.193 219.242 327.495 219.355 327.883 219.355C328.159 219.355 328.406 219.329 328.625 219.277C328.846 219.222 329.074 219.143 329.309 219.039V219.785C329.092 219.886 328.872 219.961 328.648 220.007C328.424 220.054 328.156 220.078 327.844 220.078C327.419 220.078 327.046 219.996 326.723 219.832C326.402 219.665 326.151 219.418 325.969 219.089C325.789 218.761 325.699 218.354 325.699 217.867C325.699 217.382 325.781 216.971 325.945 216.632C326.109 216.294 326.34 216.036 326.637 215.859C326.934 215.682 327.28 215.593 327.676 215.593ZM327.676 216.285C327.387 216.285 327.152 216.379 326.973 216.566C326.796 216.754 326.691 217.028 326.66 217.39H328.629C328.626 217.174 328.59 216.983 328.52 216.816C328.452 216.649 328.348 216.519 328.207 216.425C328.069 216.332 327.892 216.285 327.676 216.285Z" fill="white"/>
<path d="M241.212 269.602H313.981M241.212 276.362H283.166" stroke="#9FE870" stroke-width="5" stroke-linecap="round"/>
<circle cx="97.0651" cy="186.69" r="8.94693" fill="#F2F0F2"/>
<mask id="mask0_104_17226" style="mask-type:alpha" maskUnits="userSpaceOnUse" x="88" y="177" width="19" height="19">
<circle cx="97.0656" cy="186.69" r="8.94693" fill="#FCFCFC"/>
</mask>
<g mask="url(#mask0_104_17226)">
<rect x="91.0254" y="193.625" width="12.302" height="2.23673" fill="#D90026"/>
<rect x="91.0254" y="193.625" width="12.302" height="2.23673" fill="#D90026"/>
<rect x="88.3413" y="189.151" width="17.6702" height="2.23673" fill="#D90026"/>
<rect x="88.3413" y="189.151" width="17.6702" height="2.23673" fill="#D90026"/>
<rect x="88.3413" y="184.453" width="17.6702" height="2.23673" fill="#D90026"/>
<rect x="88.3413" y="184.453" width="17.6702" height="2.23673" fill="#D90026"/>
<rect x="88.3413" y="179.979" width="17.6702" height="2.23673" fill="#D90026"/>
<rect x="88.3413" y="179.979" width="17.6702" height="2.23673" fill="#D90026"/>
<rect x="88.1187" y="177.743" width="9.1706" height="8.94693" fill="#0052B5"/>
<path d="M95.5011 185.235L94.8301 185.57L95.0538 184.899L94.6064 184.452H95.2775L95.5011 183.781L95.8366 184.452H96.3958L95.9485 184.899L96.1722 185.57L95.5011 185.235Z" fill="#EFEFEF"/>
<path d="M92.3683 185.235L91.6973 185.57L91.921 184.899L91.4736 184.452H92.1447L92.3683 183.781L92.7038 184.452H93.263L92.8157 184.899L93.0393 185.57L92.3683 185.235Z" fill="#EFEFEF"/>
<path d="M89.236 185.235L88.565 185.57L88.7887 184.899L88.3413 184.452H89.0123L89.236 183.781L89.5715 184.452H90.1307L89.6833 184.899L89.907 185.57L89.236 185.235Z" fill="#EFEFEF"/>
<path d="M95.5011 182.775L94.8301 183.111L95.0538 182.44L94.6064 181.993H95.2775L95.5011 181.322L95.8366 181.993H96.3958L95.9485 182.44L96.1722 183.111L95.5011 182.775Z" fill="#EFEFEF"/>
<path d="M95.5011 180.314L94.8301 180.649L95.0538 179.978L94.6064 179.531H95.2775L95.5011 178.86L95.8366 179.531H96.3958L95.9485 179.978L96.1722 180.649L95.5011 180.314Z" fill="#EFEFEF"/>
<path d="M95.5011 177.854L94.8301 178.189L95.0538 177.518L94.6064 177.071H95.2775L95.5011 176.4L95.8366 177.071H96.3958L95.9485 177.518L96.1722 178.189L95.5011 177.854Z" fill="#EFEFEF"/>
<path d="M92.3683 180.314L91.6973 180.649L91.921 179.978L91.4736 179.531H92.1447L92.3683 178.86L92.7038 179.531H93.263L92.8157 179.978L93.0393 180.649L92.3683 180.314Z" fill="#EFEFEF"/>
<path d="M92.3683 182.775L91.6973 183.111L91.921 182.44L91.4736 181.993H92.1447L92.3683 181.322L92.7038 181.993H93.263L92.8157 182.44L93.0393 183.111L92.3683 182.775Z" fill="#EFEFEF"/>
<path d="M89.236 182.775L88.565 183.111L88.7887 182.44L88.3413 181.993H89.0123L89.236 181.322L89.5715 181.993H90.1307L89.6833 182.44L89.907 183.111L89.236 182.775Z" fill="#EFEFEF"/>
</g>
<circle cx="142" cy="42.7461" r="8.94693" fill="#F2F0F2"/>
<mask id="mask1_104_17226" style="mask-type:alpha" maskUnits="userSpaceOnUse" x="133" y="33" width="18" height="19">
<circle cx="142" cy="42.7459" r="8.94693" fill="#FCFCFC"/>
</mask>
<g mask="url(#mask1_104_17226)">
<rect x="135.961" y="49.6787" width="12.302" height="2.23673" fill="#D90026"/>
<rect x="135.961" y="49.6787" width="12.302" height="2.23673" fill="#D90026"/>
<rect x="133.277" y="45.2063" width="17.6702" height="2.23673" fill="#D90026"/>
<rect x="133.277" y="45.2063" width="17.6702" height="2.23673" fill="#D90026"/>
<rect x="133.277" y="40.5092" width="17.6702" height="2.23673" fill="#D90026"/>
<rect x="133.277" y="40.5092" width="17.6702" height="2.23673" fill="#D90026"/>
<rect x="133.277" y="36.0356" width="17.6702" height="2.23673" fill="#D90026"/>
<rect x="133.277" y="36.0356" width="17.6702" height="2.23673" fill="#D90026"/>
<rect x="133.053" y="33.799" width="9.1706" height="8.94693" fill="#0052B5"/>
<path d="M140.436 41.2909L139.765 41.6264L139.988 40.9554L139.541 40.5081H140.212L140.436 39.837L140.771 40.5081H141.33L140.883 40.9554L141.107 41.6264L140.436 41.2909Z" fill="#EFEFEF"/>
<path d="M137.303 41.2909L136.632 41.6264L136.856 40.9554L136.408 40.5081H137.079L137.303 39.837L137.638 40.5081H138.198L137.75 40.9554L137.974 41.6264L137.303 41.2909Z" fill="#EFEFEF"/>
<path d="M134.172 41.2909L133.501 41.6264L133.724 40.9554L133.277 40.5081H133.948L134.172 39.837L134.507 40.5081H135.066L134.619 40.9554L134.843 41.6264L134.172 41.2909Z" fill="#EFEFEF"/>
<path d="M140.436 38.8316L139.765 39.1671L139.988 38.4961L139.541 38.0487H140.212L140.436 37.3777L140.771 38.0487H141.33L140.883 38.4961L141.107 39.1671L140.436 38.8316Z" fill="#EFEFEF"/>
<path d="M140.436 36.3701L139.765 36.7056L139.988 36.0346L139.541 35.5873H140.212L140.436 34.9163L140.771 35.5873H141.33L140.883 36.0346L141.107 36.7056L140.436 36.3701Z" fill="#EFEFEF"/>
<path d="M140.436 33.9098L139.765 34.2453L139.988 33.5743L139.541 33.127H140.212L140.436 32.4559L140.771 33.127H141.33L140.883 33.5743L141.107 34.2453L140.436 33.9098Z" fill="#EFEFEF"/>
<path d="M137.303 36.3701L136.632 36.7056L136.856 36.0346L136.408 35.5873H137.079L137.303 34.9163L137.638 35.5873H138.198L137.75 36.0346L137.974 36.7056L137.303 36.3701Z" fill="#EFEFEF"/>
<path d="M137.303 38.8316L136.632 39.1671L136.856 38.4961L136.408 38.0487H137.079L137.303 37.3777L137.638 38.0487H138.198L137.75 38.4961L137.974 39.1671L137.303 38.8316Z" fill="#EFEFEF"/>
<path d="M134.172 38.8316L133.501 39.1671L133.724 38.4961L133.277 38.0487H133.948L134.172 37.3777L134.507 38.0487H135.066L134.619 38.4961L134.843 39.1671L134.172 38.8316Z" fill="#EFEFEF"/>
</g>
<circle cx="142.198" cy="148.718" r="8.74811" fill="#0052B5"/>
<path d="M142.153 145.167L141.382 145.558L141.636 144.783L141.118 144.27L141.891 144.266L142.195 143.465L142.536 144.263L143.18 144.259L142.667 144.778L142.929 145.55L142.153 145.167Z" fill="#FFDB44"/>
<path d="M142.153 152.434L141.382 152.044L141.636 152.819L141.118 153.332L141.891 153.336L142.195 154.137L142.536 153.339L143.18 153.342L142.667 152.824L142.929 152.051L142.153 152.434Z" fill="#FFDB44"/>
<path d="M145.738 148.789L145.195 148.115L146.006 148.202L146.4 147.589L146.564 148.345L147.411 148.476L146.702 148.975L146.839 149.604L146.225 149.21L145.524 149.627L145.738 148.789Z" fill="#FFDB44"/>
<path d="M144.78 146.382L143.931 146.216L144.608 145.761L144.515 145.038L145.127 145.511L145.86 145.066L145.638 145.904L146.148 146.298L145.425 146.391L145.156 147.161L144.78 146.382Z" fill="#FFDB44"/>
<path d="M144.791 151.234L145.16 150.452L145.436 151.219L146.16 151.305L145.552 151.784L145.805 152.603L145.046 152.182L144.539 152.581L144.625 151.857L143.944 151.409L144.791 151.234Z" fill="#FFDB44"/>
<path d="M145.738 148.789L145.195 148.115L146.006 148.202L146.4 147.589L146.564 148.345L147.411 148.476L146.702 148.975L146.839 149.604L146.225 149.21L145.524 149.627L145.738 148.789Z" fill="#FFDB44"/>
<path d="M138.682 148.789L139.225 148.115L138.414 148.202L138.02 147.589L137.856 148.345L137.009 148.476L137.718 148.975L137.581 149.604L138.195 149.21L138.896 149.627L138.682 148.789Z" fill="#FFDB44"/>
<path d="M139.64 146.382L140.489 146.216L139.812 145.761L139.905 145.038L139.293 145.511L138.56 145.066L138.782 145.904L138.272 146.298L138.996 146.391L139.264 147.161L139.64 146.382Z" fill="#FFDB44"/>
<path d="M139.629 151.234L139.26 150.452L138.984 151.219L138.26 151.305L138.868 151.784L138.616 152.603L139.374 152.182L139.881 152.581L139.795 151.857L140.476 151.409L139.629 151.234Z" fill="#FFDB44"/>
<path d="M138.682 148.789L139.225 148.115L138.414 148.202L138.02 147.589L137.856 148.345L137.009 148.476L137.718 148.975L137.581 149.604L138.195 149.21L138.896 149.627L138.682 148.789Z" fill="#FFDB44"/>
<circle cx="131.065" cy="42.5474" r="8.74811" fill="#0052B5"/>
<path d="M131.02 38.9964L130.249 39.387L130.503 38.6122L129.984 38.0991L130.758 38.0952L131.062 37.2942L131.402 38.092L132.047 38.0888L131.534 38.6071L131.796 39.3793L131.02 38.9964Z" fill="#FFDB44"/>
<path d="M131.02 46.2637L130.249 45.8731L130.503 46.6479L129.984 47.1611L130.758 47.1649L131.062 47.966L131.402 47.1681L132.047 47.1713L131.534 46.6531L131.796 45.8808L131.02 46.2637Z" fill="#FFDB44"/>
<path d="M134.604 42.618L134.062 41.9445L134.872 42.0318L135.267 41.4182L135.431 42.174L136.278 42.3049L135.568 42.8038L135.706 43.4337L135.092 43.0396L134.391 43.4562L134.604 42.618Z" fill="#FFDB44"/>
<path d="M133.647 40.2118L132.798 40.0454L133.475 39.5906L133.382 38.8672L133.994 39.3399L134.726 38.8952L134.504 39.7337L135.015 40.1276L134.291 40.2208L134.023 40.9907L133.647 40.2118Z" fill="#FFDB44"/>
<path d="M133.658 45.0634L134.027 44.281L134.303 45.0484L135.027 45.1347L134.419 45.6131L134.671 46.4319L133.912 46.0118L133.406 46.4104L133.492 45.6863L132.811 45.2378L133.658 45.0634Z" fill="#FFDB44"/>
<path d="M134.604 42.618L134.062 41.9445L134.872 42.0318L135.267 41.4182L135.431 42.174L136.278 42.3049L135.568 42.8038L135.706 43.4337L135.092 43.0396L134.391 43.4562L134.604 42.618Z" fill="#FFDB44"/>
<path d="M127.549 42.618L128.092 41.9445L127.281 42.0318L126.887 41.4182L126.722 42.174L125.875 42.3049L126.585 42.8038L126.448 43.4337L127.062 43.0396L127.762 43.4562L127.549 42.618Z" fill="#FFDB44"/>
<path d="M128.507 40.2118L129.355 40.0454L128.679 39.5906L128.772 38.8672L128.159 39.3399L127.427 38.8952L127.649 39.7337L127.139 40.1276L127.862 40.2208L128.131 40.9907L128.507 40.2118Z" fill="#FFDB44"/>
<path d="M128.495 45.0634L128.127 44.281L127.851 45.0484L127.127 45.1347L127.735 45.6131L127.482 46.4319L128.241 46.0118L128.748 46.4104L128.661 45.6863L129.342 45.2378L128.495 45.0634Z" fill="#FFDB44"/>
<path d="M127.549 42.618L128.092 41.9445L127.281 42.0318L126.887 41.4182L126.722 42.174L125.875 42.3049L126.585 42.8038L126.448 43.4337L127.062 43.0396L127.762 43.4562L127.549 42.618Z" fill="#FFDB44"/>
<circle cx="156.429" cy="42.3314" r="9.45967" fill="white"/>
<path d="M151.697 44.5361L150.665 40.9935H150.643C150.648 41.0728 150.654 41.1812 150.661 41.3185C150.667 41.4558 150.673 41.6028 150.678 41.7595C150.683 41.9162 150.685 42.0661 150.685 42.2092V44.5361H150.151V40.2943H150.977L151.969 43.6802H151.984L153.011 40.2943H153.834V44.5361H153.273V42.1744C153.273 42.0448 153.275 41.9046 153.278 41.7537C153.283 41.6028 153.288 41.4597 153.292 41.3243C153.299 41.1889 153.304 41.0806 153.307 40.9993H153.288L152.217 44.5361H151.697Z" fill="#0066FF"/>
<path d="M157.12 42.923C157.12 43.1899 157.091 43.4268 157.032 43.6338C156.973 43.8408 156.887 44.0158 156.775 44.159C156.662 44.3002 156.526 44.4085 156.368 44.4839C156.209 44.5574 156.031 44.5942 155.831 44.5942C155.645 44.5942 155.474 44.5574 155.319 44.4839C155.164 44.4085 155.029 44.3002 154.915 44.159C154.802 44.0158 154.715 43.8408 154.653 43.6338C154.59 43.4268 154.559 43.1899 154.559 42.923C154.559 42.569 154.611 42.2692 154.714 42.0235C154.818 41.776 154.967 41.5874 155.16 41.4578C155.353 41.3282 155.582 41.2634 155.848 41.2634C156.098 41.2634 156.319 41.3282 156.51 41.4578C156.701 41.5874 156.851 41.776 156.959 42.0235C157.066 42.2711 157.12 42.5709 157.12 42.923ZM155.152 42.923C155.152 43.157 155.176 43.3572 155.224 43.5235C155.273 43.6899 155.348 43.8176 155.449 43.9065C155.55 43.9936 155.681 44.0371 155.841 44.0371C156.001 44.0371 156.132 43.9936 156.233 43.9065C156.334 43.8176 156.409 43.6899 156.456 43.5235C156.504 43.3572 156.527 43.157 156.527 42.923C156.527 42.6889 156.504 42.4907 156.456 42.3282C156.409 42.1638 156.334 42.039 156.233 41.9539C156.132 41.8669 156 41.8233 155.839 41.8233C155.6 41.8233 155.426 41.9181 155.317 42.1077C155.207 42.2972 155.152 42.569 155.152 42.923Z" fill="#0066FF"/>
<path d="M159.157 41.2634C159.202 41.2634 159.252 41.2663 159.306 41.2721C159.36 41.2779 159.407 41.2856 159.446 41.2953L159.392 41.9336C159.358 41.922 159.315 41.9133 159.264 41.9075C159.215 41.9017 159.171 41.8988 159.132 41.8988C159.029 41.8988 158.931 41.9191 158.838 41.9597C158.745 41.9984 158.662 42.0584 158.591 42.1396C158.519 42.2189 158.462 42.3185 158.422 42.4384C158.381 42.5584 158.36 42.6976 158.36 42.8562V44.5361H157.782V41.3243H158.233L158.311 41.8901H158.338C158.392 41.776 158.459 41.6715 158.539 41.5767C158.619 41.4819 158.711 41.4065 158.814 41.3504C158.918 41.2924 159.033 41.2634 159.157 41.2634Z" fill="#0066FF"/>
<path d="M161.029 41.2634C161.271 41.2634 161.478 41.3224 161.651 41.4404C161.825 41.5583 161.958 41.7257 162.051 41.9423C162.144 42.1589 162.19 42.4181 162.19 42.7199V43.0854H160.379C160.386 43.3969 160.456 43.6367 160.59 43.805C160.726 43.9733 160.915 44.0574 161.159 44.0574C161.332 44.0574 161.487 44.0381 161.624 43.9994C161.763 43.9588 161.906 43.8998 162.053 43.8224V44.3766C161.918 44.452 161.78 44.5071 161.639 44.5419C161.499 44.5768 161.33 44.5942 161.134 44.5942C160.868 44.5942 160.634 44.5332 160.431 44.4114C160.23 44.2876 160.072 44.1038 159.958 43.8601C159.845 43.6164 159.789 43.3137 159.789 42.952C159.789 42.5922 159.84 42.2866 159.943 42.0351C160.046 41.7837 160.191 41.5922 160.377 41.4607C160.563 41.3291 160.781 41.2634 161.029 41.2634ZM161.029 41.7769C160.848 41.7769 160.701 41.8466 160.588 41.9858C160.477 42.1251 160.411 42.3291 160.392 42.598H161.627C161.625 42.4375 161.602 42.2953 161.558 42.1715C161.516 42.0477 161.45 41.951 161.362 41.8814C161.276 41.8117 161.164 41.7769 161.029 41.7769Z" fill="#0066FF"/>
<path fill-rule="evenodd" clip-rule="evenodd" d="M106.767 104.966V104.966C106.728 104.969 106.526 104.982 106.075 104.982C105.715 104.982 105.462 104.97 105.373 104.966V104.967C103.988 104.901 102.955 104.639 102.955 104.326C102.955 104.013 103.988 103.751 105.373 103.684V104.706C105.464 104.713 105.723 104.73 106.081 104.73C106.511 104.73 106.727 104.71 106.767 104.707V103.685C108.149 103.751 109.18 104.013 109.18 104.326C109.18 104.639 108.149 104.9 106.767 104.966ZM106.767 103.578V102.663H108.695V101.268H103.445V102.663H105.373V103.578C103.806 103.656 102.627 103.993 102.627 104.397C102.627 104.801 103.806 105.137 105.373 105.216V108.148H106.767V105.215C108.331 105.137 109.507 104.8 109.507 104.397C109.507 103.994 108.331 103.657 106.767 103.578Z" fill="white"/>
<defs>
<filter id="filter0_d_104_17226" x="0.370605" y="131.985" width="258.391" height="151.823" filterUnits="userSpaceOnUse" color-interpolation-filters="sRGB">
<feFlood flood-opacity="0" result="BackgroundImageFix"/>
<feColorMatrix in="SourceAlpha" type="matrix" values="0 0 0 0 0 0 0 0 0 0 0 0 0 0 0 0 0 0 127 0" result="hardAlpha"/>
<feOffset dx="-18" dy="22"/>
<feGaussianBlur stdDeviation="30.5"/>
<feComposite in2="hardAlpha" operator="out"/>
<feColorMatrix type="matrix" values="0 0 0 0 0.629167 0 0 0 0 0.629167 0 0 0 0 0.629167 0 0 0 0.25 0"/>
<feBlend mode="normal" in2="BackgroundImageFix" result="effect1_dropShadow_104_17226"/>
<feBlend mode="normal" in="SourceGraphic" in2="effect1_dropShadow_104_17226" result="shape"/>
</filter>
<filter id="filter1_d_104_17226" x="23.832" y="190.437" width="139.099" height="139.099" filterUnits="userSpaceOnUse" color-interpolation-filters="sRGB">
<feFlood flood-opacity="0" result="BackgroundImageFix"/>
<feColorMatrix in="SourceAlpha" type="matrix" values="0 0 0 0 0 0 0 0 0 0 0 0 0 0 0 0 0 0 127 0" result="hardAlpha"/>
<feOffset dx="-18" dy="22"/>
<feGaussianBlur stdDeviation="30.5"/>
<feComposite in2="hardAlpha" operator="out"/>
<feColorMatrix type="matrix" values="0 0 0 0 0.629167 0 0 0 0 0.629167 0 0 0 0 0.629167 0 0 0 0.25 0"/>
<feBlend mode="normal" in2="BackgroundImageFix" result="effect1_dropShadow_104_17226"/>
<feBlend mode="normal" in="SourceGraphic" in2="effect1_dropShadow_104_17226" result="shape"/>
</filter>
<filter id="filter2_d_104_17226" x="24.2285" y="215.887" width="139.099" height="139.099" filterUnits="userSpaceOnUse" color-interpolation-filters="sRGB">
<feFlood flood-opacity="0" result="BackgroundImageFix"/>
<feColorMatrix in="SourceAlpha" type="matrix" values="0 0 0 0 0 0 0 0 0 0 0 0 0 0 0 0 0 0 127 0" result="hardAlpha"/>
<feOffset dx="-18" dy="22"/>
<feGaussianBlur stdDeviation="30.5"/>
<feComposite in2="hardAlpha" operator="out"/>
<feColorMatrix type="matrix" values="0 0 0 0 0.629167 0 0 0 0 0.629167 0 0 0 0 0.629167 0 0 0 0.25 0"/>
<feBlend mode="normal" in2="BackgroundImageFix" result="effect1_dropShadow_104_17226"/>
<feBlend mode="normal" in="SourceGraphic" in2="effect1_dropShadow_104_17226" result="shape"/>
</filter>
<filter id="filter3_d_104_17226" x="146.703" y="120.852" width="258.391" height="278.273" filterUnits="userSpaceOnUse" color-interpolation-filters="sRGB">
<feFlood flood-opacity="0" result="BackgroundImageFix"/>
<feColorMatrix in="SourceAlpha" type="matrix" values="0 0 0 0 0 0 0 0 0 0 0 0 0 0 0 0 0 0 127 0" result="hardAlpha"/>
<feOffset dx="-18" dy="22"/>
<feGaussianBlur stdDeviation="30.5"/>
<feComposite in2="hardAlpha" operator="out"/>
<feColorMatrix type="matrix" values="0 0 0 0 0.629167 0 0 0 0 0.629167 0 0 0 0 0.629167 0 0 0 0.25 0"/>
<feBlend mode="normal" in2="BackgroundImageFix" result="effect1_dropShadow_104_17226"/>
<feBlend mode="normal" in="SourceGraphic" in2="effect1_dropShadow_104_17226" result="shape"/>
</filter>
</defs>
</svg>
