<svg width="547" height="357" viewBox="0 0 547 357" fill="none" xmlns="http://www.w3.org/2000/svg">
<rect x="105.571" width="293.581" height="52.9129" rx="26.4564" fill="#F7EBDC"/>
<path d="M138.021 32.6272L137.245 30.0784H133.341L132.565 32.6272H130.118L133.898 21.8752H136.674L140.468 32.6272H138.021ZM136.703 28.1741L135.927 25.6838C135.878 25.5178 135.812 25.3054 135.729 25.0466C135.651 24.783 135.57 24.5168 135.487 24.2483C135.409 23.9749 135.345 23.738 135.297 23.5378C135.248 23.738 135.179 23.9871 135.092 24.2849C135.009 24.5779 134.928 24.8562 134.85 25.1199C134.772 25.3835 134.716 25.5715 134.681 25.6838L133.912 28.1741H136.703ZM144.24 32.7737C143.326 32.7737 142.582 32.4172 142.006 31.7043C141.434 30.9866 141.149 29.9343 141.149 28.5476C141.149 27.1462 141.439 26.0867 142.02 25.3689C142.601 24.6462 143.361 24.2849 144.298 24.2849C144.689 24.2849 145.033 24.3386 145.331 24.446C145.629 24.5535 145.885 24.6975 146.1 24.8782C146.32 25.0588 146.505 25.2615 146.656 25.4861H146.73C146.7 25.3298 146.664 25.1003 146.62 24.7976C146.581 24.49 146.561 24.175 146.561 23.8528V21.2307H148.802V32.6272H147.089L146.656 31.5652H146.561C146.42 31.7898 146.241 31.9949 146.027 32.1804C145.817 32.3611 145.565 32.5051 145.272 32.6125C144.979 32.72 144.635 32.7737 144.24 32.7737ZM145.023 30.9939C145.634 30.9939 146.063 30.8132 146.312 30.4519C146.566 30.0857 146.7 29.5364 146.715 28.804V28.5623C146.715 27.7664 146.593 27.1584 146.349 26.7385C146.105 26.3137 145.651 26.1013 144.987 26.1013C144.493 26.1013 144.108 26.3137 143.829 26.7385C143.551 27.1633 143.412 27.7761 143.412 28.5769C143.412 29.3777 143.551 29.9807 143.829 30.386C144.113 30.7913 144.51 30.9939 145.023 30.9939ZM153.732 32.7737C152.819 32.7737 152.074 32.4172 151.498 31.7043C150.927 30.9866 150.641 29.9343 150.641 28.5476C150.641 27.1462 150.931 26.0867 151.512 25.3689C152.094 24.6462 152.853 24.2849 153.79 24.2849C154.181 24.2849 154.525 24.3386 154.823 24.446C155.121 24.5535 155.377 24.6975 155.592 24.8782C155.812 25.0588 155.997 25.2615 156.149 25.4861H156.222C156.193 25.3298 156.156 25.1003 156.112 24.7976C156.073 24.49 156.053 24.175 156.053 23.8528V21.2307H158.295V32.6272H156.581L156.149 31.5652H156.053C155.912 31.7898 155.734 31.9949 155.519 32.1804C155.309 32.3611 155.057 32.5051 154.764 32.6125C154.471 32.72 154.127 32.7737 153.732 32.7737ZM154.515 30.9939C155.126 30.9939 155.555 30.8132 155.804 30.4519C156.058 30.0857 156.193 29.5364 156.207 28.804V28.5623C156.207 27.7664 156.085 27.1584 155.841 26.7385C155.597 26.3137 155.143 26.1013 154.479 26.1013C153.986 26.1013 153.6 26.3137 153.322 26.7385C153.043 27.1633 152.904 27.7761 152.904 28.5769C152.904 29.3777 153.043 29.9807 153.322 30.386C153.605 30.7913 154.003 30.9939 154.515 30.9939ZM163.356 24.4387H165.802L167.347 29.0457C167.396 29.1921 167.438 29.3411 167.472 29.4924C167.506 29.6438 167.535 29.8 167.56 29.9612C167.584 30.1223 167.604 30.2908 167.618 30.4666H167.662C167.692 30.2029 167.731 29.9563 167.78 29.7268C167.833 29.4973 167.899 29.2703 167.977 29.0457L169.493 24.4387H171.888L168.424 33.6746C168.214 34.241 167.941 34.7122 167.604 35.0881C167.267 35.469 166.879 35.7546 166.439 35.9451C166.005 36.1355 165.526 36.2307 165.004 36.2307C164.75 36.2307 164.53 36.2161 164.344 36.1868C164.159 36.1624 164 36.1355 163.868 36.1062V34.3337C163.971 34.3582 164.1 34.3801 164.257 34.3997C164.413 34.4192 164.576 34.429 164.747 34.429C165.06 34.429 165.328 34.363 165.553 34.2312C165.778 34.0994 165.966 33.9211 166.117 33.6965C166.268 33.4768 166.388 33.2351 166.476 32.9714L166.608 32.5686L163.356 24.4387ZM180.509 28.5183C180.509 29.2019 180.416 29.8074 180.231 30.3347C180.05 30.8621 179.784 31.3088 179.432 31.675C179.086 32.0364 178.666 32.3098 178.173 32.4954C177.684 32.6809 177.133 32.7737 176.517 32.7737C175.941 32.7737 175.411 32.6809 174.928 32.4954C174.449 32.3098 174.032 32.0364 173.676 31.675C173.324 31.3088 173.051 30.8621 172.855 30.3347C172.665 29.8074 172.57 29.2019 172.57 28.5183C172.57 27.6101 172.731 26.8411 173.053 26.2112C173.375 25.5813 173.834 25.1028 174.43 24.7756C175.026 24.4485 175.736 24.2849 176.561 24.2849C177.328 24.2849 178.007 24.4485 178.597 24.7756C179.193 25.1028 179.659 25.5813 179.996 26.2112C180.338 26.8411 180.509 27.6101 180.509 28.5183ZM174.847 28.5183C174.847 29.0554 174.906 29.5071 175.023 29.8733C175.14 30.2395 175.323 30.5154 175.573 30.7009C175.822 30.8865 176.146 30.9792 176.547 30.9792C176.942 30.9792 177.262 30.8865 177.506 30.7009C177.755 30.5154 177.936 30.2395 178.048 29.8733C178.165 29.5071 178.224 29.0554 178.224 28.5183C178.224 27.9763 178.165 27.5271 178.048 27.1707C177.936 26.8093 177.755 26.5383 177.506 26.3577C177.257 26.177 176.932 26.0867 176.532 26.0867C175.941 26.0867 175.511 26.2893 175.243 26.6946C174.979 27.0999 174.847 27.7078 174.847 28.5183ZM189.869 24.4387V32.6272H188.156L187.855 31.5798H187.738C187.562 31.8582 187.343 32.0852 187.079 32.261C186.815 32.4368 186.525 32.5662 186.207 32.6492C185.89 32.7322 185.56 32.7737 185.219 32.7737C184.633 32.7737 184.122 32.6711 183.688 32.4661C183.253 32.2561 182.914 31.9314 182.67 31.4919C182.43 31.0525 182.311 30.4812 182.311 29.7781V24.4387H184.545V29.2214C184.545 29.8074 184.65 30.2493 184.86 30.5471C185.07 30.845 185.404 30.9939 185.863 30.9939C186.317 30.9939 186.674 30.8914 186.932 30.6863C187.191 30.4763 187.372 30.1711 187.474 29.7708C187.582 29.3655 187.635 28.8723 187.635 28.2913V24.4387H189.869ZM196.783 24.2849C196.896 24.2849 197.025 24.2922 197.172 24.3069C197.323 24.3167 197.445 24.3313 197.538 24.3508L197.369 26.4456C197.296 26.4211 197.191 26.4041 197.054 26.3943C196.923 26.3796 196.808 26.3723 196.71 26.3723C196.422 26.3723 196.141 26.4089 195.868 26.4822C195.599 26.5554 195.358 26.675 195.143 26.8411C194.928 27.0022 194.757 27.217 194.63 27.4856C194.508 27.7493 194.447 28.074 194.447 28.4597V32.6272H192.213V24.4387H193.905L194.235 25.8157H194.344C194.506 25.5374 194.706 25.2834 194.945 25.054C195.189 24.8196 195.465 24.634 195.773 24.4973C196.085 24.3557 196.422 24.2849 196.783 24.2849ZM208.634 30.1956C208.634 30.7522 208.502 31.2234 208.239 31.6091C207.98 31.99 207.592 32.2805 207.074 32.4807C206.556 32.676 205.912 32.7737 205.14 32.7737C204.569 32.7737 204.078 32.7371 203.668 32.6638C203.263 32.5906 202.853 32.4685 202.438 32.2976V30.4519C202.882 30.6521 203.358 30.8181 203.866 30.95C204.379 31.0769 204.828 31.1404 205.214 31.1404C205.648 31.1404 205.958 31.0769 206.144 30.95C206.334 30.8181 206.429 30.6472 206.429 30.4373C206.429 30.3005 206.39 30.1785 206.312 30.071C206.239 29.9587 206.078 29.8342 205.829 29.6975C205.58 29.5559 205.189 29.3728 204.657 29.1482C204.144 28.9333 203.722 28.7161 203.39 28.4963C203.063 28.2766 202.819 28.0178 202.657 27.72C202.501 27.4172 202.423 27.0339 202.423 26.5701C202.423 25.8132 202.716 25.2444 203.302 24.8635C203.893 24.4778 204.681 24.2849 205.668 24.2849C206.176 24.2849 206.659 24.3362 207.118 24.4387C207.582 24.5413 208.058 24.7048 208.546 24.9294L207.872 26.5408C207.467 26.365 207.084 26.2209 206.722 26.1086C206.366 25.9963 206.002 25.9402 205.631 25.9402C205.304 25.9402 205.057 25.9841 204.891 26.072C204.725 26.1599 204.642 26.2942 204.642 26.4749C204.642 26.6067 204.684 26.7239 204.767 26.8264C204.855 26.929 205.021 27.0437 205.265 27.1707C205.514 27.2927 205.878 27.4514 206.356 27.6467C206.82 27.8372 207.223 28.0374 207.565 28.2473C207.906 28.4524 208.17 28.7087 208.356 29.0164C208.541 29.3191 208.634 29.7122 208.634 30.1956ZM213.827 30.9939C214.071 30.9939 214.308 30.9695 214.537 30.9207C214.772 30.8718 215.004 30.8108 215.233 30.7375V32.4001C214.994 32.5076 214.696 32.5955 214.34 32.6638C213.988 32.7371 213.602 32.7737 213.182 32.7737C212.694 32.7737 212.255 32.6956 211.864 32.5393C211.478 32.3782 211.173 32.1023 210.948 31.7117C210.729 31.3162 210.619 30.7668 210.619 30.0637V26.116H209.55V25.1711L210.78 24.4241L211.425 22.6956H212.853V24.4387H215.145V26.116H212.853V30.0637C212.853 30.3762 212.941 30.6106 213.116 30.7668C213.297 30.9182 213.534 30.9939 213.827 30.9939ZM224.337 28.5183C224.337 29.2019 224.244 29.8074 224.059 30.3347C223.878 30.8621 223.612 31.3088 223.26 31.675C222.914 32.0364 222.494 32.3098 222.001 32.4954C221.512 32.6809 220.961 32.7737 220.345 32.7737C219.769 32.7737 219.24 32.6809 218.756 32.4954C218.278 32.3098 217.86 32.0364 217.504 31.675C217.152 31.3088 216.879 30.8621 216.683 30.3347C216.493 29.8074 216.398 29.2019 216.398 28.5183C216.398 27.6101 216.559 26.8411 216.881 26.2112C217.203 25.5813 217.662 25.1028 218.258 24.7756C218.854 24.4485 219.564 24.2849 220.389 24.2849C221.156 24.2849 221.835 24.4485 222.426 24.7756C223.021 25.1028 223.488 25.5813 223.824 26.2112C224.166 26.8411 224.337 27.6101 224.337 28.5183ZM218.676 28.5183C218.676 29.0554 218.734 29.5071 218.851 29.8733C218.969 30.2395 219.152 30.5154 219.401 30.7009C219.65 30.8865 219.974 30.9792 220.375 30.9792C220.77 30.9792 221.09 30.8865 221.334 30.7009C221.583 30.5154 221.764 30.2395 221.876 29.8733C221.993 29.5071 222.052 29.0554 222.052 28.5183C222.052 27.9763 221.993 27.5271 221.876 27.1707C221.764 26.8093 221.583 26.5383 221.334 26.3577C221.085 26.177 220.76 26.0867 220.36 26.0867C219.769 26.0867 219.34 26.2893 219.071 26.6946C218.807 27.0999 218.676 27.7078 218.676 28.5183ZM230.753 24.2849C230.865 24.2849 230.995 24.2922 231.141 24.3069C231.293 24.3167 231.415 24.3313 231.508 24.3508L231.339 26.4456C231.266 26.4211 231.161 26.4041 231.024 26.3943C230.892 26.3796 230.778 26.3723 230.68 26.3723C230.392 26.3723 230.111 26.4089 229.838 26.4822C229.569 26.5554 229.327 26.675 229.113 26.8411C228.898 27.0022 228.727 27.217 228.6 27.4856C228.478 27.7493 228.417 28.074 228.417 28.4597V32.6272H226.183V24.4387H227.875L228.204 25.8157H228.314C228.475 25.5374 228.676 25.2834 228.915 25.054C229.159 24.8196 229.435 24.634 229.742 24.4973C230.055 24.3557 230.392 24.2849 230.753 24.2849ZM236.371 24.2849C237.128 24.2849 237.78 24.4314 238.326 24.7244C238.873 25.0125 239.296 25.4324 239.594 25.9841C239.891 26.5359 240.04 27.2097 240.04 28.0056V29.0896H234.76C234.784 29.7195 234.972 30.2151 235.323 30.5764C235.68 30.9329 236.173 31.1111 236.803 31.1111C237.325 31.1111 237.804 31.0574 238.239 30.95C238.673 30.8425 239.12 30.6814 239.579 30.4666V32.1951C239.174 32.3953 238.749 32.5417 238.304 32.6345C237.865 32.7273 237.33 32.7737 236.7 32.7737C235.88 32.7737 235.153 32.6223 234.518 32.3196C233.888 32.0168 233.392 31.5554 233.031 30.9353C232.675 30.3152 232.496 29.5339 232.496 28.5916C232.496 27.6345 232.657 26.8386 232.98 26.2039C233.307 25.5642 233.761 25.0857 234.342 24.7683C234.923 24.446 235.599 24.2849 236.371 24.2849ZM236.385 25.8743C235.951 25.8743 235.59 26.0134 235.302 26.2917C235.018 26.5701 234.855 27.0071 234.811 27.6028H237.946C237.941 27.2708 237.88 26.9753 237.762 26.7166C237.65 26.4578 237.479 26.2527 237.25 26.1013C237.025 25.95 236.737 25.8743 236.385 25.8743Z" fill="#C1AB8D"/>
<g opacity="0.3">
<path d="M383.033 130.349C383.033 140.356 374.921 148.467 364.915 148.467C354.909 148.467 346.797 140.356 346.797 130.349C346.797 120.343 354.909 112.231 364.915 112.231C374.921 112.231 383.033 120.343 383.033 130.349Z" fill="#F5F5F5"/>
<rect x="392.997" y="109.514" width="154.003" height="46.201" rx="5.80298" fill="#F5F5F5"/>
<path d="M410.211 125.82H527.072M410.211 140.314H477.585" stroke="#E9D9C3" stroke-width="7.7373" stroke-linecap="round"/>
<path d="M217.031 260.942C217.031 270.949 225.143 279.06 235.149 279.06C245.155 279.06 253.267 270.949 253.267 260.942C253.267 250.936 245.155 242.824 235.149 242.824C225.143 242.824 217.031 250.936 217.031 260.942Z" fill="#DECAAF"/>
<rect width="128.638" height="46.201" rx="5.80298" transform="matrix(-1 0 0 1 207.066 240.106)" fill="#DECAAF"/>
<rect width="170.309" height="48.9187" rx="5.80298" transform="matrix(-1 0 0 1 207.066 296.271)" fill="#DECAAF"/>
<path d="M189.854 256.413H100.17M189.854 270.907H138.149" stroke="#F5F5F5" stroke-width="7.7373" stroke-linecap="round"/>
<path d="M189.854 313.485H61.2163M189.854 327.979H92.0169" stroke="#F5F5F5" stroke-width="7.7373" stroke-linecap="round"/>
</g>
<g filter="url(#filter0_d_104_16624)">
<rect x="27" y="71.1394" width="306.383" height="151.911" rx="9.45938" fill="#0066FF"/>
</g>
<path d="M84.5146 98.9998H78.3477V88.2917H84.5146V90.1521H80.6182V92.5032H84.2437V94.3635H80.6182V97.1248H84.5146V98.9998ZM89.9346 90.6428C91.0332 90.6428 91.8755 90.8821 92.4614 91.3606C93.0474 91.8391 93.3403 92.5667 93.3403 93.5432V98.9998H91.7803L91.3481 97.8865H91.2896C91.0552 98.1794 90.8159 98.4187 90.5718 98.6042C90.3276 98.7898 90.0469 98.9265 89.7295 99.0144C89.4121 99.1023 89.0264 99.1462 88.5723 99.1462C88.0889 99.1462 87.6543 99.0535 87.2686 98.8679C86.8877 98.6824 86.5874 98.3992 86.3677 98.0183C86.1479 97.6326 86.0381 97.1443 86.0381 96.5535C86.0381 95.6843 86.3433 95.0447 86.9536 94.6345C87.564 94.2195 88.4795 93.99 89.7002 93.946L91.1211 93.9021V93.5432C91.1211 93.1135 91.0088 92.7986 90.7842 92.5984C90.5596 92.3982 90.2471 92.2981 89.8467 92.2981C89.4512 92.2981 89.063 92.3542 88.6821 92.4666C88.3013 92.5789 87.9204 92.7205 87.5396 92.8914L86.7998 91.3826C87.2344 91.1531 87.7202 90.9724 88.2573 90.8406C88.7993 90.7087 89.3584 90.6428 89.9346 90.6428ZM91.1211 95.2058L90.2568 95.2351C89.5342 95.2546 89.0312 95.384 88.748 95.6233C88.4697 95.8625 88.3306 96.1775 88.3306 96.5681C88.3306 96.9099 88.4307 97.1541 88.6309 97.3005C88.8311 97.4421 89.0923 97.5129 89.4146 97.5129C89.8931 97.5129 90.2959 97.3713 90.623 97.0881C90.9551 96.8049 91.1211 96.4021 91.1211 95.8796V95.2058ZM101.36 96.5681C101.36 97.1248 101.229 97.5959 100.965 97.9817C100.706 98.3625 100.318 98.6531 99.8003 98.8533C99.2827 99.0486 98.6382 99.1462 97.8667 99.1462C97.2954 99.1462 96.8047 99.1096 96.3945 99.0364C95.9893 98.9631 95.5791 98.8411 95.1641 98.6702V96.8245C95.6084 97.0247 96.0845 97.1907 96.5923 97.3225C97.105 97.4495 97.5542 97.5129 97.9399 97.5129C98.3745 97.5129 98.6846 97.4495 98.8701 97.3225C99.0605 97.1907 99.1558 97.0198 99.1558 96.8098C99.1558 96.6731 99.1167 96.551 99.0386 96.4436C98.9653 96.3313 98.8042 96.2068 98.5552 96.0701C98.3062 95.9285 97.9155 95.7454 97.3833 95.5208C96.8706 95.3059 96.4482 95.0886 96.1162 94.8689C95.7891 94.6492 95.5449 94.3904 95.3838 94.0925C95.2275 93.7898 95.1494 93.4065 95.1494 92.9426C95.1494 92.1858 95.4424 91.6169 96.0283 91.2361C96.6191 90.8503 97.4077 90.6575 98.394 90.6575C98.9019 90.6575 99.3853 90.7087 99.8442 90.8113C100.308 90.9138 100.784 91.0774 101.272 91.302L100.599 92.9133C100.193 92.7375 99.8101 92.5935 99.4487 92.4812C99.0923 92.3689 98.7285 92.3127 98.3574 92.3127C98.0303 92.3127 97.7837 92.3567 97.6177 92.4446C97.4517 92.5325 97.3687 92.6667 97.3687 92.8474C97.3687 92.9792 97.4102 93.0964 97.4932 93.199C97.5811 93.3015 97.7471 93.4163 97.9912 93.5432C98.2402 93.6653 98.604 93.824 99.0825 94.0193C99.5464 94.2097 99.9492 94.4099 100.291 94.6199C100.633 94.825 100.896 95.0813 101.082 95.3889C101.268 95.6917 101.36 96.0847 101.36 96.5681ZM101.932 90.8113H104.378L105.923 95.4182C105.972 95.5647 106.014 95.7136 106.048 95.865C106.082 96.0164 106.111 96.1726 106.136 96.3337C106.16 96.4949 106.18 96.6633 106.194 96.8391H106.238C106.268 96.5754 106.307 96.3289 106.355 96.0994C106.409 95.8699 106.475 95.6428 106.553 95.4182L108.069 90.8113H110.464L107 100.047C106.79 100.614 106.517 101.085 106.18 101.461C105.843 101.842 105.455 102.127 105.015 102.318C104.581 102.508 104.102 102.603 103.58 102.603C103.326 102.603 103.106 102.589 102.92 102.559C102.735 102.535 102.576 102.508 102.444 102.479V100.706C102.547 100.731 102.676 100.753 102.833 100.772C102.989 100.792 103.152 100.802 103.323 100.802C103.636 100.802 103.904 100.736 104.129 100.604C104.354 100.472 104.542 100.294 104.693 100.069C104.844 99.8494 104.964 99.6077 105.052 99.344L105.184 98.9412L101.932 90.8113ZM118.895 90.6428C119.993 90.6428 120.835 90.8821 121.421 91.3606C122.007 91.8391 122.3 92.5667 122.3 93.5432V98.9998H120.74L120.308 97.8865H120.25C120.015 98.1794 119.776 98.4187 119.532 98.6042C119.288 98.7898 119.007 98.9265 118.689 99.0144C118.372 99.1023 117.986 99.1462 117.532 99.1462C117.049 99.1462 116.614 99.0535 116.229 98.8679C115.848 98.6824 115.547 98.3992 115.328 98.0183C115.108 97.6326 114.998 97.1443 114.998 96.5535C114.998 95.6843 115.303 95.0447 115.914 94.6345C116.524 94.2195 117.439 93.99 118.66 93.946L120.081 93.9021V93.5432C120.081 93.1135 119.969 92.7986 119.744 92.5984C119.52 92.3982 119.207 92.2981 118.807 92.2981C118.411 92.2981 118.023 92.3542 117.642 92.4666C117.261 92.5789 116.88 92.7205 116.5 92.8914L115.76 91.3826C116.194 91.1531 116.68 90.9724 117.217 90.8406C117.759 90.7087 118.318 90.6428 118.895 90.6428ZM120.081 95.2058L119.217 95.2351C118.494 95.2546 117.991 95.384 117.708 95.6233C117.43 95.8625 117.291 96.1775 117.291 96.5681C117.291 96.9099 117.391 97.1541 117.591 97.3005C117.791 97.4421 118.052 97.5129 118.375 97.5129C118.853 97.5129 119.256 97.3713 119.583 97.0881C119.915 96.8049 120.081 96.4021 120.081 95.8796V95.2058ZM129.258 90.6575C130.132 90.6575 130.835 90.8967 131.368 91.3752C131.9 91.8489 132.166 92.6106 132.166 93.6604V98.9998H129.932V94.217C129.932 93.6311 129.825 93.1892 129.61 92.8914C129.4 92.5935 129.068 92.4446 128.614 92.4446C127.93 92.4446 127.464 92.6765 127.215 93.1404C126.966 93.6042 126.841 94.2732 126.841 95.1472V98.9998H124.607V90.8113H126.314L126.614 91.8586H126.739C126.915 91.5754 127.132 91.3459 127.391 91.1702C127.654 90.9944 127.945 90.865 128.262 90.782C128.584 90.699 128.917 90.6575 129.258 90.6575ZM137.059 99.1462C136.146 99.1462 135.401 98.7898 134.825 98.0769C134.253 97.3591 133.968 96.3069 133.968 94.9202C133.968 93.5188 134.258 92.4592 134.839 91.7415C135.42 91.0188 136.18 90.6575 137.117 90.6575C137.508 90.6575 137.852 90.7112 138.15 90.8186C138.448 90.926 138.704 91.0701 138.919 91.2507C139.139 91.4314 139.324 91.634 139.476 91.8586H139.549C139.52 91.7024 139.483 91.4729 139.439 91.1702C139.4 90.8625 139.38 90.5476 139.38 90.2253V87.6033H141.622V98.9998H139.908L139.476 97.9377H139.38C139.239 98.1624 139.061 98.3674 138.846 98.553C138.636 98.7336 138.384 98.8777 138.091 98.9851C137.798 99.0925 137.454 99.1462 137.059 99.1462ZM137.842 97.3665C138.453 97.3665 138.882 97.1858 139.131 96.8245C139.385 96.4583 139.52 95.9089 139.534 95.1765V94.9348C139.534 94.1389 139.412 93.531 139.168 93.1111C138.924 92.6863 138.47 92.4739 137.806 92.4739C137.312 92.4739 136.927 92.6863 136.648 93.1111C136.37 93.5359 136.231 94.1487 136.231 94.9495C136.231 95.7502 136.37 96.3533 136.648 96.7585C136.932 97.1638 137.33 97.3665 137.842 97.3665ZM152.381 92.4885H150.447V98.9998H148.213V92.4885H146.983V91.4119L148.213 90.8113V90.2107C148.213 89.5125 148.331 88.9705 148.565 88.5847C148.804 88.1941 149.139 87.9207 149.568 87.7644C150.003 87.6033 150.516 87.5227 151.106 87.5227C151.541 87.5227 151.937 87.5593 152.293 87.6326C152.649 87.7009 152.94 87.7791 153.165 87.8669L152.593 89.5076C152.422 89.4539 152.237 89.405 152.037 89.3611C151.836 89.3171 151.607 89.2952 151.348 89.2952C151.036 89.2952 150.806 89.3904 150.66 89.5808C150.518 89.7664 150.447 90.0056 150.447 90.2986V90.8113H152.381V92.4885ZM157.024 90.6428C158.123 90.6428 158.965 90.8821 159.551 91.3606C160.137 91.8391 160.43 92.5667 160.43 93.5432V98.9998H158.87L158.438 97.8865H158.379C158.145 98.1794 157.906 98.4187 157.662 98.6042C157.417 98.7898 157.137 98.9265 156.819 99.0144C156.502 99.1023 156.116 99.1462 155.662 99.1462C155.179 99.1462 154.744 99.0535 154.358 98.8679C153.978 98.6824 153.677 98.3992 153.458 98.0183C153.238 97.6326 153.128 97.1443 153.128 96.5535C153.128 95.6843 153.433 95.0447 154.043 94.6345C154.654 94.2195 155.569 93.99 156.79 93.946L158.211 93.9021V93.5432C158.211 93.1135 158.099 92.7986 157.874 92.5984C157.649 92.3982 157.337 92.2981 156.937 92.2981C156.541 92.2981 156.153 92.3542 155.772 92.4666C155.391 92.5789 155.01 92.7205 154.629 92.8914L153.89 91.3826C154.324 91.1531 154.81 90.9724 155.347 90.8406C155.889 90.7087 156.448 90.6428 157.024 90.6428ZM158.211 95.2058L157.347 95.2351C156.624 95.2546 156.121 95.384 155.838 95.6233C155.56 95.8625 155.42 96.1775 155.42 96.5681C155.42 96.9099 155.521 97.1541 155.721 97.3005C155.921 97.4421 156.182 97.5129 156.504 97.5129C156.983 97.5129 157.386 97.3713 157.713 97.0881C158.045 96.8049 158.211 96.4021 158.211 95.8796V95.2058ZM168.45 96.5681C168.45 97.1248 168.318 97.5959 168.055 97.9817C167.796 98.3625 167.408 98.6531 166.89 98.8533C166.373 99.0486 165.728 99.1462 164.957 99.1462C164.385 99.1462 163.895 99.1096 163.484 99.0364C163.079 98.9631 162.669 98.8411 162.254 98.6702V96.8245C162.698 97.0247 163.174 97.1907 163.682 97.3225C164.195 97.4495 164.644 97.5129 165.03 97.5129C165.464 97.5129 165.774 97.4495 165.96 97.3225C166.15 97.1907 166.246 97.0198 166.246 96.8098C166.246 96.6731 166.207 96.551 166.128 96.4436C166.055 96.3313 165.894 96.2068 165.645 96.0701C165.396 95.9285 165.005 95.7454 164.473 95.5208C163.96 95.3059 163.538 95.0886 163.206 94.8689C162.879 94.6492 162.635 94.3904 162.474 94.0925C162.317 93.7898 162.239 93.4065 162.239 92.9426C162.239 92.1858 162.532 91.6169 163.118 91.2361C163.709 90.8503 164.498 90.6575 165.484 90.6575C165.992 90.6575 166.475 90.7087 166.934 90.8113C167.398 90.9138 167.874 91.0774 168.362 91.302L167.688 92.9133C167.283 92.7375 166.9 92.5935 166.539 92.4812C166.182 92.3689 165.818 92.3127 165.447 92.3127C165.12 92.3127 164.874 92.3567 164.708 92.4446C164.542 92.5325 164.458 92.6667 164.458 92.8474C164.458 92.9792 164.5 93.0964 164.583 93.199C164.671 93.3015 164.837 93.4163 165.081 93.5432C165.33 93.6653 165.694 93.824 166.172 94.0193C166.636 94.2097 167.039 94.4099 167.381 94.6199C167.723 94.825 167.986 95.0813 168.172 95.3889C168.357 95.6917 168.45 96.0847 168.45 96.5681ZM173.643 97.3665C173.887 97.3665 174.124 97.342 174.354 97.2932C174.588 97.2444 174.82 97.1833 175.049 97.1101V98.7727C174.81 98.8801 174.512 98.968 174.156 99.0364C173.804 99.1096 173.418 99.1462 172.999 99.1462C172.51 99.1462 172.071 99.0681 171.68 98.9119C171.294 98.7507 170.989 98.4749 170.765 98.0842C170.545 97.6887 170.435 97.1394 170.435 96.4363V92.4885H169.366V91.5437L170.596 90.7966L171.241 89.0681H172.669V90.8113H174.961V92.4885H172.669V96.4363C172.669 96.7488 172.757 96.9832 172.933 97.1394C173.113 97.2908 173.35 97.3665 173.643 97.3665Z" fill="white"/>
<path d="M54.3639 116.916V115.656C54.3639 115.051 54.4371 114.504 54.5836 114.016C54.7398 113.528 55.0133 113.064 55.4039 112.624C55.7945 112.185 56.3365 111.745 57.0299 111.306C57.6939 110.886 58.1822 110.525 58.4947 110.222C58.8072 109.909 59.0123 109.626 59.11 109.372C59.2076 109.109 59.2564 108.845 59.2564 108.581C59.2564 108.171 59.0709 107.849 58.6998 107.615C58.3287 107.37 57.8453 107.248 57.2496 107.248C56.5074 107.248 55.7018 107.38 54.8326 107.644C53.9732 107.907 53.0553 108.298 52.0787 108.816L50.0426 104.831C51.1461 104.197 52.3228 103.694 53.5728 103.323C54.8228 102.942 56.1852 102.751 57.6598 102.751C59.8766 102.751 61.5953 103.244 62.816 104.231C64.0367 105.207 64.6471 106.496 64.6471 108.098C64.6471 108.86 64.5299 109.558 64.2955 110.193C64.0611 110.827 63.69 111.423 63.1822 111.98C62.6744 112.536 62.0055 113.083 61.1754 113.62C60.5894 113.991 60.1256 114.309 59.7838 114.573C59.4518 114.836 59.2125 115.09 59.066 115.334C58.9293 115.578 58.8609 115.857 58.8609 116.169V116.916H54.3639ZM53.734 122.043C53.734 121.008 54.0318 120.281 54.6275 119.861C55.233 119.441 55.9654 119.231 56.8248 119.231C57.6451 119.231 58.3531 119.441 58.9488 119.861C59.5543 120.281 59.857 121.008 59.857 122.043C59.857 123.03 59.5543 123.742 58.9488 124.182C58.3531 124.621 57.6451 124.841 56.8248 124.841C55.9654 124.841 55.233 124.621 54.6275 124.182C54.0318 123.742 53.734 123.03 53.734 122.043Z" fill="white"/>
<path d="M73.0853 126.612H252.306M73.0853 143.381H252.306M73.0853 160.749H184.93" stroke="#7CA1FF" stroke-width="12" stroke-linecap="round"/>
<g filter="url(#filter1_d_104_16624)">
<rect x="156.723" y="174.406" width="306.383" height="140.817" rx="9.45938" fill="white"/>
</g>
<path d="M247.514 206H241.348V195.292H247.514V197.152H243.618V199.503H247.243V201.364H243.618V204.125H247.514V206ZM252.934 197.643C254.033 197.643 254.875 197.882 255.461 198.361C256.047 198.839 256.34 199.567 256.34 200.543V206H254.78L254.348 204.887H254.289C254.055 205.18 253.816 205.419 253.572 205.604C253.327 205.79 253.047 205.927 252.729 206.015C252.412 206.103 252.026 206.146 251.572 206.146C251.089 206.146 250.654 206.054 250.268 205.868C249.888 205.683 249.587 205.399 249.368 205.019C249.148 204.633 249.038 204.145 249.038 203.554C249.038 202.685 249.343 202.045 249.953 201.635C250.564 201.22 251.479 200.99 252.7 200.946L254.121 200.902V200.543C254.121 200.114 254.009 199.799 253.784 199.599C253.559 199.398 253.247 199.298 252.847 199.298C252.451 199.298 252.063 199.354 251.682 199.467C251.301 199.579 250.92 199.721 250.539 199.892L249.8 198.383C250.234 198.153 250.72 197.973 251.257 197.841C251.799 197.709 252.358 197.643 252.934 197.643ZM254.121 202.206L253.257 202.235C252.534 202.255 252.031 202.384 251.748 202.624C251.47 202.863 251.33 203.178 251.33 203.568C251.33 203.91 251.431 204.154 251.631 204.301C251.831 204.442 252.092 204.513 252.414 204.513C252.893 204.513 253.296 204.372 253.623 204.088C253.955 203.805 254.121 203.402 254.121 202.88V202.206ZM263.218 197.658C263.33 197.658 263.459 197.665 263.606 197.68C263.757 197.689 263.879 197.704 263.972 197.724L263.804 199.818C263.73 199.794 263.625 199.777 263.489 199.767C263.357 199.752 263.242 199.745 263.144 199.745C262.856 199.745 262.576 199.782 262.302 199.855C262.034 199.928 261.792 200.048 261.577 200.214C261.362 200.375 261.191 200.59 261.064 200.858C260.942 201.122 260.881 201.447 260.881 201.833V206H258.647V197.812H260.339L260.669 199.188H260.779C260.94 198.91 261.14 198.656 261.379 198.427C261.623 198.192 261.899 198.007 262.207 197.87C262.519 197.729 262.856 197.658 263.218 197.658ZM270.11 197.658C270.984 197.658 271.687 197.897 272.219 198.375C272.751 198.849 273.017 199.611 273.017 200.661V206H270.784V201.217C270.784 200.631 270.676 200.189 270.461 199.892C270.251 199.594 269.919 199.445 269.465 199.445C268.782 199.445 268.315 199.677 268.066 200.141C267.817 200.604 267.693 201.273 267.693 202.147V206H265.459V197.812H267.165L267.466 198.859H267.59C267.766 198.576 267.983 198.346 268.242 198.17C268.506 197.995 268.796 197.865 269.114 197.782C269.436 197.699 269.768 197.658 270.11 197.658ZM283.74 199.489H281.806V206H279.573V199.489H278.342V198.412L279.573 197.812V197.211C279.573 196.513 279.69 195.971 279.924 195.585C280.163 195.194 280.498 194.921 280.928 194.765C281.362 194.604 281.875 194.523 282.466 194.523C282.9 194.523 283.296 194.56 283.652 194.633C284.009 194.701 284.299 194.779 284.524 194.867L283.952 196.508C283.782 196.454 283.596 196.405 283.396 196.361C283.196 196.317 282.966 196.295 282.707 196.295C282.395 196.295 282.165 196.391 282.019 196.581C281.877 196.767 281.806 197.006 281.806 197.299V197.812H283.74V199.489ZM289.599 197.658C289.712 197.658 289.841 197.665 289.988 197.68C290.139 197.689 290.261 197.704 290.354 197.724L290.185 199.818C290.112 199.794 290.007 199.777 289.87 199.767C289.739 199.752 289.624 199.745 289.526 199.745C289.238 199.745 288.957 199.782 288.684 199.855C288.415 199.928 288.174 200.048 287.959 200.214C287.744 200.375 287.573 200.59 287.446 200.858C287.324 201.122 287.263 201.447 287.263 201.833V206H285.029V197.812H286.721L287.051 199.188H287.16C287.322 198.91 287.522 198.656 287.761 198.427C288.005 198.192 288.281 198.007 288.589 197.87C288.901 197.729 289.238 197.658 289.599 197.658ZM299.282 201.891C299.282 202.575 299.189 203.18 299.004 203.708C298.823 204.235 298.557 204.682 298.205 205.048C297.859 205.409 297.439 205.683 296.946 205.868C296.457 206.054 295.906 206.146 295.29 206.146C294.714 206.146 294.184 206.054 293.701 205.868C293.223 205.683 292.805 205.409 292.449 205.048C292.097 204.682 291.824 204.235 291.628 203.708C291.438 203.18 291.343 202.575 291.343 201.891C291.343 200.983 291.504 200.214 291.826 199.584C292.148 198.954 292.607 198.476 293.203 198.148C293.799 197.821 294.509 197.658 295.334 197.658C296.101 197.658 296.78 197.821 297.37 198.148C297.966 198.476 298.432 198.954 298.769 199.584C299.111 200.214 299.282 200.983 299.282 201.891ZM293.62 201.891C293.62 202.428 293.679 202.88 293.796 203.246C293.913 203.612 294.097 203.888 294.346 204.074C294.595 204.259 294.919 204.352 295.32 204.352C295.715 204.352 296.035 204.259 296.279 204.074C296.528 203.888 296.709 203.612 296.821 203.246C296.938 202.88 296.997 202.428 296.997 201.891C296.997 201.349 296.938 200.9 296.821 200.543C296.709 200.182 296.528 199.911 296.279 199.73C296.03 199.55 295.705 199.459 295.305 199.459C294.714 199.459 294.285 199.662 294.016 200.067C293.752 200.473 293.62 201.081 293.62 201.891ZM310.744 197.658C311.672 197.658 312.373 197.897 312.847 198.375C313.325 198.849 313.564 199.611 313.564 200.661V206H311.323V201.217C311.323 200.631 311.223 200.189 311.023 199.892C310.823 199.594 310.513 199.445 310.093 199.445C309.502 199.445 309.082 199.657 308.833 200.082C308.584 200.502 308.459 201.105 308.459 201.891V206H306.225V201.217C306.225 200.827 306.181 200.5 306.094 200.236C306.006 199.972 305.871 199.774 305.691 199.643C305.51 199.511 305.278 199.445 304.995 199.445C304.58 199.445 304.253 199.55 304.014 199.76C303.779 199.965 303.611 200.27 303.508 200.675C303.41 201.076 303.362 201.566 303.362 202.147V206H301.128V197.812H302.834L303.135 198.859H303.259C303.425 198.576 303.633 198.346 303.882 198.17C304.136 197.995 304.414 197.865 304.717 197.782C305.019 197.699 305.327 197.658 305.639 197.658C306.24 197.658 306.748 197.755 307.163 197.951C307.583 198.146 307.905 198.449 308.13 198.859H308.327C308.572 198.439 308.916 198.134 309.36 197.943C309.809 197.753 310.271 197.658 310.744 197.658ZM323.115 197.643C324.214 197.643 325.056 197.882 325.642 198.361C326.228 198.839 326.521 199.567 326.521 200.543V206H324.961L324.529 204.887H324.47C324.236 205.18 323.996 205.419 323.752 205.604C323.508 205.79 323.227 205.927 322.91 206.015C322.593 206.103 322.207 206.146 321.753 206.146C321.269 206.146 320.835 206.054 320.449 205.868C320.068 205.683 319.768 205.399 319.548 205.019C319.328 204.633 319.219 204.145 319.219 203.554C319.219 202.685 319.524 202.045 320.134 201.635C320.744 201.22 321.66 200.99 322.881 200.946L324.302 200.902V200.543C324.302 200.114 324.189 199.799 323.965 199.599C323.74 199.398 323.428 199.298 323.027 199.298C322.632 199.298 322.243 199.354 321.863 199.467C321.482 199.579 321.101 199.721 320.72 199.892L319.98 198.383C320.415 198.153 320.901 197.973 321.438 197.841C321.98 197.709 322.539 197.643 323.115 197.643ZM324.302 202.206L323.437 202.235C322.715 202.255 322.212 202.384 321.929 202.624C321.65 202.863 321.511 203.178 321.511 203.568C321.511 203.91 321.611 204.154 321.811 204.301C322.012 204.442 322.273 204.513 322.595 204.513C323.074 204.513 323.476 204.372 323.804 204.088C324.136 203.805 324.302 203.402 324.302 202.88V202.206ZM333.479 197.658C334.353 197.658 335.056 197.897 335.588 198.375C336.12 198.849 336.387 199.611 336.387 200.661V206H334.153V201.217C334.153 200.631 334.045 200.189 333.83 199.892C333.62 199.594 333.288 199.445 332.834 199.445C332.151 199.445 331.684 199.677 331.435 200.141C331.186 200.604 331.062 201.273 331.062 202.147V206H328.828V197.812H330.535L330.835 198.859H330.959C331.135 198.576 331.352 198.346 331.611 198.17C331.875 197.995 332.165 197.865 332.483 197.782C332.805 197.699 333.137 197.658 333.479 197.658ZM337.514 197.812H339.961L341.506 202.418C341.555 202.565 341.597 202.714 341.631 202.865C341.665 203.017 341.694 203.173 341.719 203.334C341.743 203.495 341.763 203.664 341.777 203.839H341.821C341.85 203.576 341.889 203.329 341.938 203.1C341.992 202.87 342.058 202.643 342.136 202.418L343.652 197.812H346.047L342.583 207.047C342.373 207.614 342.099 208.085 341.763 208.461C341.426 208.842 341.037 209.127 340.598 209.318C340.163 209.508 339.685 209.604 339.162 209.604C338.909 209.604 338.689 209.589 338.503 209.56C338.318 209.535 338.159 209.508 338.027 209.479V207.707C338.13 207.731 338.259 207.753 338.415 207.772C338.572 207.792 338.735 207.802 338.906 207.802C339.219 207.802 339.487 207.736 339.712 207.604C339.936 207.472 340.124 207.294 340.276 207.069C340.427 206.85 340.547 206.608 340.635 206.344L340.766 205.941L337.514 197.812ZM353.957 206L353.327 203.136C353.293 202.965 353.237 202.714 353.159 202.382C353.081 202.045 352.995 201.686 352.903 201.305C352.815 200.919 352.732 200.563 352.654 200.236C352.58 199.909 352.527 199.669 352.493 199.518H352.427C352.392 199.669 352.339 199.909 352.265 200.236C352.192 200.563 352.109 200.919 352.016 201.305C351.929 201.691 351.846 202.055 351.767 202.396C351.689 202.733 351.631 202.99 351.592 203.166L350.932 206H348.53L346.201 197.812H348.428L349.372 201.437C349.436 201.691 349.497 201.994 349.556 202.345C349.614 202.692 349.665 203.029 349.709 203.356C349.758 203.678 349.795 203.935 349.819 204.125H349.878C349.888 203.983 349.907 203.795 349.936 203.561C349.971 203.327 350.007 203.085 350.046 202.836C350.09 202.582 350.129 202.355 350.163 202.155C350.202 201.95 350.232 201.811 350.251 201.737L351.262 197.812H353.723L354.682 201.737C354.717 201.879 354.761 202.104 354.814 202.411C354.873 202.719 354.924 203.036 354.968 203.363C355.012 203.686 355.036 203.939 355.041 204.125H355.1C355.119 203.959 355.154 203.712 355.202 203.385C355.251 203.058 355.307 202.716 355.371 202.36C355.439 201.999 355.508 201.691 355.576 201.437L356.557 197.812H358.747L356.389 206H353.957ZM362.307 194.604V196.925C362.307 197.331 362.292 197.716 362.263 198.083C362.239 198.449 362.219 198.708 362.204 198.859H362.322C362.497 198.576 362.705 198.346 362.944 198.17C363.188 197.995 363.457 197.865 363.75 197.782C364.043 197.699 364.358 197.658 364.695 197.658C365.285 197.658 365.801 197.763 366.24 197.973C366.68 198.178 367.021 198.502 367.265 198.947C367.51 199.386 367.632 199.958 367.632 200.661V206H365.398V201.217C365.398 200.631 365.29 200.189 365.076 199.892C364.861 199.594 364.529 199.445 364.079 199.445C363.63 199.445 363.276 199.55 363.017 199.76C362.759 199.965 362.576 200.27 362.468 200.675C362.361 201.076 362.307 201.566 362.307 202.147V206H360.073V194.604H362.307ZM373.308 197.658C374.065 197.658 374.717 197.804 375.264 198.097C375.81 198.385 376.233 198.805 376.531 199.357C376.828 199.909 376.977 200.583 376.977 201.378V202.462H371.697C371.721 203.092 371.909 203.588 372.261 203.949C372.617 204.306 373.11 204.484 373.74 204.484C374.263 204.484 374.741 204.43 375.176 204.323C375.61 204.215 376.057 204.054 376.516 203.839V205.568C376.111 205.768 375.686 205.915 375.242 206.007C374.802 206.1 374.267 206.146 373.638 206.146C372.817 206.146 372.09 205.995 371.455 205.692C370.825 205.39 370.329 204.928 369.968 204.308C369.612 203.688 369.433 202.907 369.433 201.964C369.433 201.007 369.595 200.211 369.917 199.577C370.244 198.937 370.698 198.458 371.279 198.141C371.86 197.819 372.536 197.658 373.308 197.658ZM373.323 199.247C372.888 199.247 372.527 199.386 372.239 199.665C371.955 199.943 371.792 200.38 371.748 200.976H374.883C374.878 200.644 374.817 200.348 374.7 200.089C374.587 199.831 374.416 199.625 374.187 199.474C373.962 199.323 373.674 199.247 373.323 199.247ZM383.364 197.658C383.476 197.658 383.606 197.665 383.752 197.68C383.904 197.689 384.026 197.704 384.118 197.724L383.95 199.818C383.877 199.794 383.772 199.777 383.635 199.767C383.503 199.752 383.389 199.745 383.291 199.745C383.003 199.745 382.722 199.782 382.449 199.855C382.18 199.928 381.938 200.048 381.723 200.214C381.509 200.375 381.338 200.59 381.211 200.858C381.089 201.122 381.028 201.447 381.028 201.833V206H378.794V197.812H380.486L380.815 199.188H380.925C381.086 198.91 381.286 198.656 381.526 198.427C381.77 198.192 382.046 198.007 382.353 197.87C382.666 197.729 383.003 197.658 383.364 197.658ZM388.982 197.658C389.739 197.658 390.39 197.804 390.937 198.097C391.484 198.385 391.907 198.805 392.204 199.357C392.502 199.909 392.651 200.583 392.651 201.378V202.462H387.37C387.395 203.092 387.583 203.588 387.934 203.949C388.291 204.306 388.784 204.484 389.414 204.484C389.936 204.484 390.415 204.43 390.849 204.323C391.284 204.215 391.731 204.054 392.19 203.839V205.568C391.785 205.768 391.36 205.915 390.915 206.007C390.476 206.1 389.941 206.146 389.311 206.146C388.491 206.146 387.764 205.995 387.129 205.692C386.499 205.39 386.003 204.928 385.642 204.308C385.285 203.688 385.107 202.907 385.107 201.964C385.107 201.007 385.268 200.211 385.591 199.577C385.918 198.937 386.372 198.458 386.953 198.141C387.534 197.819 388.21 197.658 388.982 197.658ZM388.996 199.247C388.562 199.247 388.201 199.386 387.912 199.665C387.629 199.943 387.466 200.38 387.422 200.976H390.556C390.552 200.644 390.491 200.348 390.373 200.089C390.261 199.831 390.09 199.625 389.861 199.474C389.636 199.323 389.348 199.247 388.996 199.247Z" fill="#333131"/>
<rect x="181.473" y="208.543" width="39.2579" height="36.6976" rx="8" fill="#FFC164"/>
<path d="M209.707 235H192.497C192.064 235 191.714 234.656 191.714 234.232V220.406C191.714 219.982 192.064 219.638 192.497 219.638H209.707C210.14 219.638 210.49 219.982 210.49 220.406V234.232C210.49 234.656 210.14 235 209.707 235Z" stroke="black" stroke-width="2" stroke-linecap="round" stroke-linejoin="round"/>
<path d="M195.982 230.732H206.223" stroke="black" stroke-width="2" stroke-linecap="round" stroke-linejoin="round"/>
<path d="M195.982 227.318H206.223" stroke="black" stroke-width="2" stroke-linecap="round" stroke-linejoin="round"/>
<path d="M195.982 223.905H206.223" stroke="black" stroke-width="2" stroke-linecap="round" stroke-linejoin="round"/>
<path d="M240.359 233.293H419.58M240.359 250.063H419.58" stroke="#E9E9E9" stroke-width="12" stroke-linecap="round"/>
<path d="M340 16V18.5H360V16H340ZM340 19.75L338.75 26V28.5H340V36H351.25C351.188 35.575 351.15 35.1375 351.15 34.6875C351.15 33.1625 351.625 31.6625 352.5 30.4125V28.5H354.425C355.675 27.6625 357.137 27.2 358.638 27.2C359.525 27.2 360.413 27.3625 361.25 27.675V26L360 19.75H340ZM342.5 28.5H350V33.5H342.5V28.5ZM357.5 29.75V33.5H353.75V36H357.5V39.75H360V36H363.75V33.5H360V29.75" fill="#C1AB8D"/>
<defs>
<filter id="filter0_d_104_16624" x="0" y="58.1394" width="360.383" height="205.911" filterUnits="userSpaceOnUse" color-interpolation-filters="sRGB">
<feFlood flood-opacity="0" result="BackgroundImageFix"/>
<feColorMatrix in="SourceAlpha" type="matrix" values="0 0 0 0 0 0 0 0 0 0 0 0 0 0 0 0 0 0 127 0" result="hardAlpha"/>
<feOffset dy="14"/>
<feGaussianBlur stdDeviation="13.5"/>
<feComposite in2="hardAlpha" operator="out"/>
<feColorMatrix type="matrix" values="0 0 0 0 0.9125 0 0 0 0 0.9125 0 0 0 0 0.9125 0 0 0 1 0"/>
<feBlend mode="normal" in2="BackgroundImageFix" result="effect1_dropShadow_104_16624"/>
<feBlend mode="normal" in="SourceGraphic" in2="effect1_dropShadow_104_16624" result="shape"/>
</filter>
<filter id="filter1_d_104_16624" x="129.723" y="161.406" width="360.383" height="194.817" filterUnits="userSpaceOnUse" color-interpolation-filters="sRGB">
<feFlood flood-opacity="0" result="BackgroundImageFix"/>
<feColorMatrix in="SourceAlpha" type="matrix" values="0 0 0 0 0 0 0 0 0 0 0 0 0 0 0 0 0 0 127 0" result="hardAlpha"/>
<feOffset dy="14"/>
<feGaussianBlur stdDeviation="13.5"/>
<feComposite in2="hardAlpha" operator="out"/>
<feColorMatrix type="matrix" values="0 0 0 0 0.820833 0 0 0 0 0.820833 0 0 0 0 0.820833 0 0 0 1 0"/>
<feBlend mode="multiply" in2="BackgroundImageFix" result="effect1_dropShadow_104_16624"/>
<feBlend mode="normal" in="SourceGraphic" in2="effect1_dropShadow_104_16624" result="shape"/>
</filter>
</defs>
</svg>
