<svg width="460" height="396" viewBox="0 0 460 396" fill="none" xmlns="http://www.w3.org/2000/svg">
<path d="M426.433 257.929L417.336 272.669L434.649 273.177L426.433 257.929ZM311.813 359.335C312.966 363.6 317.359 366.123 321.624 364.969C325.889 363.815 328.411 359.422 327.258 355.157C326.104 350.892 321.711 348.37 317.446 349.524C313.181 350.678 310.659 355.07 311.813 359.335ZM318.322 358.128C319.167 359.291 320.057 360.364 320.991 361.346L323.166 359.28C322.327 358.397 321.52 357.426 320.749 356.365L318.322 358.128ZM327.617 366.473C330.111 367.828 332.769 368.73 335.549 369.216L336.066 366.261C333.59 365.828 331.243 365.029 329.05 363.837L327.617 366.473ZM343.862 369.502C346.495 369.258 349.189 368.719 351.918 367.915L351.07 365.037C348.505 365.793 346.003 366.291 343.586 366.515L343.862 369.502ZM359.534 365.039C361.921 363.948 364.321 362.678 366.72 361.246L365.183 358.67C362.869 360.051 360.565 361.269 358.287 362.311L359.534 365.039ZM373.441 356.811C375.575 355.269 377.698 353.609 379.799 351.84L377.867 349.545C375.82 351.268 373.755 352.883 371.685 354.379L373.441 356.811ZM385.768 346.469C387.673 344.642 389.552 342.73 391.395 340.741L389.194 338.702C387.39 340.649 385.553 342.519 383.692 344.304L385.768 346.469ZM396.688 334.698C398.381 332.654 400.034 330.548 401.64 328.385L399.231 326.597C397.657 328.717 396.037 330.782 394.378 332.784L396.688 334.698ZM406.248 321.822C407.722 319.6 409.144 317.33 410.505 315.021L407.921 313.497C406.587 315.761 405.194 317.985 403.748 320.163L406.248 321.822ZM414.391 307.998C415.623 305.619 416.788 303.207 417.879 300.767L415.14 299.543C414.073 301.929 412.933 304.29 411.727 306.619L414.391 307.998ZM420.936 293.335C421.882 290.814 422.745 288.273 423.517 285.717L420.645 284.85C419.893 287.34 419.051 289.819 418.127 292.28L420.936 293.335ZM425.567 277.935C426.16 275.299 426.648 272.655 427.025 270.011L424.055 269.588C423.69 272.15 423.216 274.716 422.64 277.278L425.567 277.935Z" fill="#0066FF"/>
<path d="M257.189 47.9138L273.622 53.3888L270.147 36.4204L257.189 47.9138ZM382.174 136.23C386.061 134.129 387.509 129.275 385.408 125.389C383.307 121.502 378.453 120.054 374.566 122.155C370.679 124.255 369.232 129.109 371.332 132.996C373.433 136.883 378.287 138.331 382.174 136.23ZM379.507 130.172C380.445 129.082 381.285 127.969 382.027 126.836L379.517 125.193C378.85 126.211 378.09 127.219 377.234 128.213L379.507 130.172ZM385.498 119.21C386.245 116.472 386.513 113.678 386.349 110.861L383.354 111.035C383.5 113.544 383.261 116.012 382.604 118.42L385.498 119.21ZM384.721 102.703C383.88 100.196 382.738 97.6978 381.33 95.2264L378.723 96.7115C380.047 99.0349 381.105 101.356 381.877 103.657L384.721 102.703ZM376.784 88.4722C375.175 86.3995 373.388 84.3541 371.444 82.3472L369.289 84.4346C371.164 86.3699 372.878 88.3331 374.414 90.3121L376.784 88.4722ZM365.586 76.822C363.597 75.0988 361.494 73.4132 359.29 71.7732L357.499 74.1799C359.647 75.778 361.692 77.4174 363.622 79.0896L365.586 76.822ZM352.694 67.1947C350.479 65.7593 348.187 64.3693 345.828 63.0312L344.348 65.6407C346.657 66.9503 348.898 68.3098 351.063 69.7123L352.694 67.1947ZM338.732 59.2645C336.355 58.0851 333.926 56.9592 331.452 55.8924L330.264 58.6471C332.689 59.6929 335.07 60.7964 337.399 61.9519L338.732 59.2645ZM324.007 52.9116C321.507 51.9861 318.972 51.1227 316.412 50.3271L315.521 53.192C318.03 53.9716 320.515 54.8178 322.966 55.7251L324.007 52.9116ZM308.685 48.155C306.087 47.5013 303.472 46.9205 300.847 46.4182L300.283 49.3647C302.85 49.856 305.41 50.4243 307.953 51.0643L308.685 48.155ZM292.912 45.1468C290.242 44.8033 287.57 44.5461 284.906 44.381L284.72 47.3753C287.316 47.5361 289.922 47.7869 292.529 48.1222L292.912 45.1468ZM276.861 44.1692C274.159 44.1971 271.473 44.3278 268.814 44.5677L269.083 47.5556C271.66 47.3231 274.266 47.1962 276.892 47.169L276.861 44.1692Z" fill="#0066FF"/>
<path d="M336.378 159.727H279.41C277.146 159.737 274.978 160.655 273.377 162.282C271.777 163.91 270.874 166.114 270.864 168.415V208.958C270.874 211.259 271.777 213.463 273.377 215.09C274.978 216.717 277.146 217.636 279.41 217.645H305.045V223.437H296.5C295.745 223.437 295.02 223.742 294.486 224.285C293.952 224.828 293.652 225.565 293.652 226.333C293.652 227.101 293.952 227.838 294.486 228.381C295.02 228.924 295.745 229.229 296.5 229.229H319.288C320.043 229.229 320.768 228.924 321.302 228.381C321.836 227.838 322.136 227.101 322.136 226.333C322.136 225.565 321.836 224.828 321.302 224.285C320.768 223.742 320.043 223.437 319.288 223.437H310.742V217.645H336.378C338.642 217.636 340.81 216.717 342.41 215.09C344.011 213.463 344.914 211.259 344.923 208.958V168.415C344.914 166.114 344.011 163.91 342.41 162.282C340.81 160.655 338.642 159.737 336.378 159.727ZM336.378 211.854H279.41C278.654 211.854 277.93 211.548 277.395 211.005C276.861 210.462 276.561 209.726 276.561 208.958V203.166H339.227V208.958C339.227 209.726 338.926 210.462 338.392 211.005C337.858 211.548 337.134 211.854 336.378 211.854Z" fill="#0066FF"/>
<path d="M286.388 148.987L286.382 148.983L286.375 148.979L273.942 141.672C273.94 141.672 273.939 141.671 273.937 141.67C273.352 141.322 272.685 141.137 272.003 141.137C271.321 141.137 270.654 141.322 270.07 141.67L257.631 148.979L257.625 148.983L257.618 148.987C257.024 149.344 256.538 149.853 256.203 150.456C255.868 151.06 255.693 151.74 255.691 152.429V152.432L255.691 167.023L255.691 167.026C255.693 167.715 255.868 168.395 256.203 168.998C256.538 169.602 257.024 170.111 257.618 170.468L257.625 170.472L257.631 170.476L270.065 177.782C270.066 177.783 270.068 177.784 270.069 177.785C270.654 178.132 271.321 178.318 272.003 178.318C272.686 178.318 273.352 178.132 273.937 177.785C273.939 177.784 273.94 177.783 273.942 177.782L286.375 170.476L286.382 170.472L286.388 170.468C286.982 170.111 287.468 169.602 287.804 168.998C288.139 168.395 288.314 167.715 288.315 167.026V167.023L288.315 152.432L288.315 152.429C288.314 151.74 288.139 151.06 287.804 150.456C287.468 149.853 286.982 149.344 286.388 148.987ZM272.003 163.78C271.259 163.78 270.526 163.551 269.898 163.113C269.268 162.675 268.768 162.046 268.471 161.298C268.173 160.55 268.094 159.723 268.247 158.925C268.399 158.128 268.774 157.403 269.315 156.84L268.233 155.801L269.315 156.84C269.855 156.277 270.536 155.902 271.267 155.75C271.998 155.599 272.757 155.676 273.45 155.974C274.143 156.274 274.746 156.785 275.174 157.452C275.603 158.121 275.836 158.913 275.836 159.727C275.836 160.821 275.418 161.859 274.692 162.615C273.968 163.369 273 163.78 272.003 163.78Z" fill="url(#paint0_linear_542_4341)" stroke="#F8F8F8" stroke-width="3"/>
<g filter="url(#filter0_b_542_4341)">
<rect x="308.463" y="195.048" width="151.536" height="53.5505" rx="10" fill="#EDEDFF" fill-opacity="0.5"/>
<rect x="308.963" y="195.548" width="150.536" height="52.5505" rx="9.5" stroke="#EAEAF7" style="mix-blend-mode:multiply"/>
</g>
<path d="M336.338 228.659H328.046V214.019H336.338V216.042H330.449V220.017H335.967V222.03H330.449V226.627H336.338V228.659Z" fill="#0066FF"/>
<path d="M343.728 228.86C342.68 228.86 341.772 228.656 341.004 228.249C340.236 227.842 339.645 227.217 339.232 226.376C338.818 225.535 338.611 224.467 338.611 223.172C338.611 221.823 338.838 220.722 339.292 219.867C339.746 219.013 340.373 218.382 341.174 217.974C341.982 217.567 342.907 217.364 343.948 217.364C344.609 217.364 345.207 217.43 345.741 217.564C346.281 217.691 346.739 217.848 347.113 218.035L346.412 219.917C346.004 219.75 345.587 219.61 345.16 219.497C344.733 219.383 344.322 219.326 343.928 219.326C343.281 219.326 342.74 219.47 342.306 219.757C341.879 220.044 341.558 220.471 341.345 221.039C341.138 221.606 341.034 222.311 341.034 223.152C341.034 223.966 341.141 224.654 341.355 225.215C341.568 225.769 341.885 226.189 342.306 226.476C342.726 226.757 343.244 226.897 343.858 226.897C344.466 226.897 345.01 226.824 345.49 226.677C345.971 226.53 346.425 226.339 346.852 226.106V228.149C346.432 228.389 345.981 228.566 345.5 228.679C345.02 228.8 344.429 228.86 343.728 228.86Z" fill="#0066FF"/>
<path d="M359.27 223.092C359.27 224.013 359.149 224.831 358.909 225.545C358.669 226.259 358.318 226.864 357.858 227.358C357.397 227.845 356.843 228.219 356.195 228.479C355.548 228.733 354.817 228.86 354.002 228.86C353.241 228.86 352.544 228.733 351.909 228.479C351.275 228.219 350.724 227.845 350.257 227.358C349.796 226.864 349.439 226.259 349.185 225.545C348.932 224.831 348.805 224.013 348.805 223.092C348.805 221.87 349.015 220.835 349.436 219.987C349.863 219.133 350.471 218.482 351.258 218.035C352.046 217.587 352.984 217.364 354.072 217.364C355.094 217.364 355.995 217.587 356.776 218.035C357.557 218.482 358.168 219.133 358.609 219.987C359.049 220.842 359.27 221.877 359.27 223.092ZM351.228 223.092C351.228 223.899 351.325 224.59 351.519 225.165C351.719 225.739 352.026 226.179 352.44 226.486C352.854 226.787 353.388 226.937 354.042 226.937C354.697 226.937 355.231 226.787 355.645 226.486C356.058 226.179 356.362 225.739 356.556 225.165C356.749 224.59 356.846 223.899 356.846 223.092C356.846 222.284 356.749 221.6 356.556 221.039C356.362 220.471 356.058 220.041 355.645 219.747C355.231 219.447 354.693 219.296 354.032 219.296C353.058 219.296 352.347 219.623 351.899 220.278C351.452 220.932 351.228 221.87 351.228 223.092Z" fill="#0066FF"/>
<path d="M369.424 225.495C369.424 226.223 369.247 226.837 368.893 227.338C368.539 227.838 368.022 228.219 367.341 228.479C366.667 228.733 365.839 228.86 364.857 228.86C364.083 228.86 363.415 228.803 362.855 228.689C362.3 228.583 361.776 228.416 361.282 228.189V226.156C361.81 226.403 362.401 226.617 363.055 226.797C363.716 226.977 364.34 227.067 364.928 227.067C365.702 227.067 366.259 226.947 366.6 226.707C366.94 226.46 367.111 226.133 367.111 225.725C367.111 225.485 367.04 225.271 366.9 225.084C366.767 224.891 366.513 224.694 366.139 224.494C365.772 224.287 365.231 224.04 364.517 223.753C363.816 223.472 363.225 223.192 362.744 222.911C362.264 222.631 361.9 222.294 361.653 221.9C361.406 221.499 361.282 220.989 361.282 220.368C361.282 219.386 361.67 218.642 362.444 218.135C363.225 217.621 364.257 217.364 365.538 217.364C366.219 217.364 366.86 217.434 367.461 217.574C368.069 217.707 368.663 217.904 369.244 218.165L368.503 219.937C368.002 219.717 367.498 219.537 366.99 219.396C366.49 219.25 365.979 219.176 365.458 219.176C364.851 219.176 364.387 219.27 364.066 219.457C363.753 219.643 363.596 219.91 363.596 220.258C363.596 220.518 363.672 220.738 363.826 220.919C363.98 221.099 364.243 221.279 364.617 221.459C364.998 221.64 365.525 221.863 366.199 222.13C366.86 222.384 367.431 222.651 367.912 222.931C368.399 223.205 368.773 223.542 369.033 223.943C369.294 224.343 369.424 224.861 369.424 225.495Z" fill="#0066FF"/>
<path d="M370.295 217.574H372.859L375.132 223.903C375.232 224.19 375.322 224.474 375.402 224.754C375.489 225.028 375.562 225.298 375.622 225.565C375.689 225.832 375.743 226.099 375.783 226.366H375.843C375.91 226.019 376.003 225.632 376.123 225.205C376.25 224.771 376.39 224.337 376.544 223.903L378.727 217.574H381.26L376.504 230.182C376.23 230.903 375.893 231.517 375.492 232.024C375.098 232.538 374.631 232.925 374.09 233.186C373.55 233.453 372.932 233.586 372.238 233.586C371.904 233.586 371.614 233.566 371.367 233.526C371.12 233.493 370.909 233.456 370.736 233.416V231.533C370.876 231.567 371.053 231.597 371.266 231.624C371.48 231.65 371.7 231.664 371.927 231.664C372.348 231.664 372.712 231.58 373.019 231.413C373.326 231.246 373.586 231.009 373.8 230.702C374.014 230.402 374.19 230.058 374.331 229.671L374.721 228.629L370.295 217.574Z" fill="#0066FF"/>
<path d="M390.393 225.495C390.393 226.223 390.216 226.837 389.862 227.338C389.509 227.838 388.991 228.219 388.31 228.479C387.636 228.733 386.808 228.86 385.827 228.86C385.052 228.86 384.385 228.803 383.824 228.689C383.27 228.583 382.746 228.416 382.252 228.189V226.156C382.779 226.403 383.37 226.617 384.024 226.797C384.685 226.977 385.309 227.067 385.897 227.067C386.671 227.067 387.229 226.947 387.569 226.707C387.91 226.46 388.08 226.133 388.08 225.725C388.08 225.485 388.01 225.271 387.87 225.084C387.736 224.891 387.482 224.694 387.109 224.494C386.741 224.287 386.201 224.04 385.486 223.753C384.785 223.472 384.194 223.192 383.714 222.911C383.233 222.631 382.869 222.294 382.622 221.9C382.375 221.499 382.252 220.989 382.252 220.368C382.252 219.386 382.639 218.642 383.413 218.135C384.194 217.621 385.226 217.364 386.508 217.364C387.189 217.364 387.83 217.434 388.43 217.574C389.038 217.707 389.632 217.904 390.213 218.165L389.472 219.937C388.971 219.717 388.467 219.537 387.96 219.396C387.459 219.25 386.948 219.176 386.428 219.176C385.82 219.176 385.356 219.27 385.036 219.457C384.722 219.643 384.565 219.91 384.565 220.258C384.565 220.518 384.642 220.738 384.795 220.919C384.949 221.099 385.213 221.279 385.586 221.459C385.967 221.64 386.494 221.863 387.169 222.13C387.83 222.384 388.4 222.651 388.881 222.931C389.368 223.205 389.742 223.542 390.003 223.943C390.263 224.343 390.393 224.861 390.393 225.495Z" fill="#0066FF"/>
<path d="M397.062 226.957C397.37 226.957 397.673 226.93 397.974 226.877C398.274 226.817 398.548 226.747 398.795 226.667V228.449C398.535 228.563 398.197 228.659 397.783 228.74C397.37 228.82 396.939 228.86 396.492 228.86C395.864 228.86 395.3 228.756 394.799 228.549C394.299 228.336 393.901 227.972 393.608 227.458C393.314 226.944 393.167 226.233 393.167 225.325V219.366H391.655V218.315L393.277 217.484L394.048 215.11H395.53V217.574H398.705V219.366H395.53V225.295C395.53 225.855 395.671 226.273 395.951 226.546C396.231 226.82 396.602 226.957 397.062 226.957Z" fill="#0066FF"/>
<path d="M405.464 217.364C406.452 217.364 407.3 217.567 408.008 217.974C408.715 218.382 409.26 218.959 409.64 219.707C410.021 220.455 410.211 221.349 410.211 222.391V223.652H402.811C402.837 224.727 403.124 225.555 403.672 226.136C404.226 226.717 405 227.007 405.995 227.007C406.703 227.007 407.337 226.94 407.898 226.807C408.465 226.667 409.049 226.463 409.65 226.196V228.109C409.096 228.369 408.532 228.559 407.958 228.679C407.384 228.8 406.696 228.86 405.895 228.86C404.807 228.86 403.849 228.649 403.021 228.229C402.2 227.802 401.555 227.167 401.088 226.326C400.627 225.485 400.397 224.44 400.397 223.192C400.397 221.95 400.607 220.895 401.028 220.027C401.449 219.159 402.039 218.499 402.801 218.045C403.562 217.591 404.449 217.364 405.464 217.364ZM405.464 219.136C404.723 219.136 404.122 219.376 403.662 219.857C403.208 220.338 402.941 221.042 402.861 221.97H407.908C407.901 221.416 407.808 220.925 407.627 220.498C407.454 220.071 407.187 219.737 406.826 219.497C406.472 219.256 406.018 219.136 405.464 219.136Z" fill="#0066FF"/>
<path d="M425.392 217.364C426.634 217.364 427.568 217.684 428.196 218.325C428.83 218.966 429.147 219.994 429.147 221.409V228.659H426.794V221.83C426.794 220.989 426.631 220.354 426.303 219.927C425.976 219.5 425.479 219.286 424.811 219.286C423.877 219.286 423.202 219.587 422.788 220.188C422.381 220.782 422.178 221.646 422.178 222.781V228.659H419.824V221.83C419.824 221.269 419.751 220.802 419.604 220.428C419.464 220.047 419.247 219.764 418.953 219.577C418.659 219.383 418.289 219.286 417.842 219.286C417.194 219.286 416.677 219.433 416.289 219.727C415.909 220.021 415.635 220.455 415.468 221.029C415.301 221.596 415.218 222.294 415.218 223.122V228.659H412.865V217.574H414.697L415.028 219.066H415.158C415.385 218.679 415.665 218.362 415.999 218.115C416.339 217.861 416.717 217.674 417.131 217.554C417.544 217.427 417.975 217.364 418.422 217.364C419.25 217.364 419.948 217.51 420.515 217.804C421.083 218.091 421.507 218.532 421.787 219.126H421.967C422.314 218.525 422.798 218.081 423.419 217.794C424.04 217.507 424.698 217.364 425.392 217.364Z" fill="#0066FF"/>
<path d="M22.0524 337.518C22.0574 337.905 21.9847 338.289 21.8387 338.648C21.6927 339.006 21.4763 339.332 21.2022 339.606C20.9282 339.879 20.6021 340.096 20.2432 340.241C19.8842 340.387 19.4996 340.46 19.1121 340.455H2.94042C2.39419 340.45 1.85942 340.298 1.39331 340.013C0.927201 339.729 0.547269 339.323 0.294144 338.84C0.0587628 338.347 -0.0382126 337.8 0.0135775 337.257C0.0653676 336.714 0.263976 336.195 0.588175 335.756C3.1903 332.267 6.66254 329.52 10.6587 327.789C8.94158 326.219 7.62224 324.264 6.80932 322.085C5.9964 319.906 5.71314 317.566 5.98285 315.256C6.25256 312.946 7.06754 310.734 8.36069 308.8C9.65385 306.867 11.3882 305.267 13.421 304.134C15.4539 303.001 17.7271 302.366 20.0535 302.282C22.38 302.198 24.6932 302.667 26.8027 303.65C28.9123 304.634 30.7578 306.103 32.1876 307.938C33.6173 309.774 34.5904 311.922 35.0266 314.206C35.1353 314.801 35.0599 315.414 34.8103 315.965C34.5608 316.516 34.149 316.978 33.6299 317.29C28.8763 320.105 25.2609 324.496 23.4123 329.698C22.5011 332.204 22.0407 334.852 22.0524 337.518ZM90.5617 335.756C87.9596 332.267 84.4874 329.52 80.4911 327.789C82.2083 326.219 83.5277 324.264 84.3406 322.085C85.1535 319.906 85.4368 317.566 85.167 315.256C84.8973 312.946 84.0823 310.734 82.7892 308.8C81.496 306.867 79.7617 305.267 77.7288 304.134C75.696 303.001 73.4228 302.366 71.0964 302.282C68.7699 302.198 66.4567 302.667 64.3472 303.65C62.2376 304.634 60.392 306.103 58.9623 307.938C57.5325 309.774 56.5595 311.922 56.1233 314.206C56.0146 314.801 56.09 315.414 56.3395 315.965C56.5891 316.516 57.0008 316.978 57.52 317.29C62.2798 320.098 65.8973 324.491 67.7375 329.698C68.6488 332.204 69.1092 334.852 69.0974 337.518C69.0925 337.905 69.1652 338.289 69.3112 338.648C69.4572 339.006 69.6736 339.332 69.9476 339.606C70.2216 339.879 70.5477 340.096 70.9067 340.241C71.2657 340.387 71.6502 340.46 72.0377 340.455H88.2095C88.7555 340.455 89.2908 340.303 89.7553 340.016C90.2198 339.729 90.5952 339.319 90.8394 338.831C91.0836 338.344 91.1869 337.797 91.1379 337.254C91.0889 336.711 90.8893 336.192 90.5617 335.756ZM56.3071 351.505C59.2333 349.265 61.3834 346.165 62.4551 342.641C63.5268 339.118 63.4663 335.347 62.2821 331.859C61.0979 328.372 58.8495 325.342 55.8529 323.197C52.8562 321.051 49.2619 319.897 45.5749 319.897C41.888 319.897 38.2937 321.051 35.297 323.197C32.3004 325.342 30.052 328.372 28.8678 331.859C27.6836 335.347 27.6231 339.118 28.6948 342.641C29.7665 346.165 31.9165 349.265 34.8428 351.505C29.1258 354.04 24.491 358.514 21.7584 364.134C21.541 364.581 21.4436 365.076 21.4758 365.572C21.5081 366.067 21.6688 366.546 21.9422 366.961C22.1967 367.387 22.5574 367.739 22.989 367.983C23.4207 368.228 23.9085 368.356 24.4047 368.356H66.7452C67.2414 368.356 67.7292 368.228 68.1609 367.983C68.5925 367.739 68.9532 367.387 69.2077 366.961C69.4811 366.546 69.6418 366.067 69.674 365.572C69.7063 365.076 69.6089 364.581 69.3915 364.134C66.6589 358.514 62.024 354.04 56.3071 351.505Z" fill="#0066FF"/>
<path d="M22.0525 337.518C22.0574 337.905 21.9847 338.29 21.8387 338.648C21.6927 339.007 21.4763 339.332 21.2023 339.606C20.9282 339.88 20.6021 340.096 20.2432 340.242C19.8842 340.388 19.4996 340.46 19.1121 340.455H2.94043C2.39419 340.451 1.85943 340.298 1.39331 340.014C0.927203 339.729 0.547274 339.324 0.294148 338.84C0.0587672 338.348 -0.038213 337.801 0.0135771 337.257C0.0653672 336.714 0.26398 336.195 0.588179 335.756C3.19031 332.267 6.66254 329.52 10.6587 327.79C8.94158 326.22 7.62224 324.265 6.80932 322.086C5.99641 319.907 5.71314 317.566 5.98285 315.257C6.25256 312.947 7.06753 310.734 8.36069 308.801C9.65385 306.867 11.3882 305.268 13.4211 304.135C15.4539 303.002 17.7271 302.367 20.0535 302.283C22.38 302.198 24.6932 302.667 26.8027 303.651C28.9123 304.634 30.7579 306.104 32.1876 307.939C33.6174 309.774 34.5904 311.922 35.0266 314.206C35.1353 314.801 35.0599 315.415 34.8104 315.966C34.5608 316.517 34.149 316.979 33.6299 317.29C28.8763 320.106 25.2609 324.496 23.4123 329.699C22.5011 332.205 22.0407 334.852 22.0525 337.518Z" fill="url(#paint1_linear_542_4341)"/>
<g filter="url(#filter1_b_542_4341)">
<rect x="42.1562" y="342.15" width="266.613" height="53.5505" rx="10" fill="#EDEDFF" fill-opacity="0.5"/>
<rect x="42.6562" y="342.65" width="265.613" height="52.5505" rx="9.5" stroke="#EAEAF7" style="mix-blend-mode:multiply"/>
</g>
<path d="M115.559 361.691C117.448 361.691 118.827 362.078 119.694 362.853C120.562 363.627 120.996 364.712 120.996 366.107C120.996 366.742 120.896 367.346 120.696 367.92C120.502 368.487 120.182 368.991 119.735 369.432C119.287 369.866 118.696 370.21 117.962 370.463C117.234 370.717 116.336 370.844 115.268 370.844H113.706V376.332H111.303V361.691H115.559ZM115.398 363.684H113.706V368.841H115.018C115.772 368.841 116.413 368.754 116.941 368.581C117.468 368.401 117.869 368.117 118.142 367.73C118.416 367.342 118.553 366.832 118.553 366.198C118.553 365.35 118.296 364.719 117.782 364.305C117.274 363.891 116.48 363.684 115.398 363.684Z" fill="#0066FF"/>
<path d="M129.298 365.036C129.485 365.036 129.688 365.046 129.909 365.066C130.129 365.086 130.319 365.113 130.48 365.146L130.259 367.349C130.119 367.309 129.945 367.279 129.739 367.259C129.538 367.239 129.358 367.229 129.198 367.229C128.777 367.229 128.377 367.299 127.996 367.439C127.616 367.573 127.278 367.78 126.985 368.06C126.691 368.334 126.461 368.678 126.294 369.092C126.127 369.505 126.043 369.986 126.043 370.534V376.332H123.68V365.246H125.523L125.843 367.199H125.953C126.174 366.805 126.447 366.445 126.774 366.117C127.102 365.79 127.475 365.53 127.896 365.336C128.323 365.136 128.791 365.036 129.298 365.036Z" fill="#0066FF"/>
<path d="M142.346 370.764C142.346 371.685 142.226 372.503 141.986 373.217C141.745 373.932 141.395 374.536 140.934 375.03C140.474 375.517 139.919 375.891 139.272 376.151C138.624 376.405 137.893 376.532 137.079 376.532C136.318 376.532 135.62 376.405 134.986 376.151C134.352 375.891 133.801 375.517 133.334 375.03C132.873 374.536 132.516 373.932 132.262 373.217C132.008 372.503 131.882 371.685 131.882 370.764C131.882 369.542 132.092 368.507 132.512 367.66C132.94 366.805 133.547 366.154 134.335 365.707C135.123 365.26 136.061 365.036 137.149 365.036C138.17 365.036 139.072 365.26 139.853 365.707C140.634 366.154 141.245 366.805 141.685 367.66C142.126 368.514 142.346 369.549 142.346 370.764ZM134.305 370.764C134.305 371.572 134.402 372.263 134.595 372.837C134.796 373.411 135.103 373.852 135.517 374.159C135.931 374.459 136.465 374.609 137.119 374.609C137.773 374.609 138.307 374.459 138.721 374.159C139.135 373.852 139.439 373.411 139.632 372.837C139.826 372.263 139.923 371.572 139.923 370.764C139.923 369.956 139.826 369.272 139.632 368.711C139.439 368.144 139.135 367.713 138.721 367.419C138.307 367.119 137.77 366.969 137.109 366.969C136.134 366.969 135.423 367.296 134.976 367.95C134.529 368.604 134.305 369.542 134.305 370.764Z" fill="#0066FF"/>
<path d="M149.176 374.629C149.483 374.629 149.787 374.603 150.087 374.549C150.387 374.489 150.661 374.419 150.908 374.339V376.121C150.648 376.235 150.311 376.332 149.897 376.412C149.483 376.492 149.052 376.532 148.605 376.532C147.977 376.532 147.413 376.428 146.913 376.222C146.412 376.008 146.015 375.644 145.721 375.13C145.427 374.616 145.28 373.905 145.28 372.997V367.039H143.768V365.987L145.39 365.156L146.162 362.783H147.644V365.246H150.818V367.039H147.644V372.967C147.644 373.528 147.784 373.945 148.064 374.219C148.345 374.492 148.715 374.629 149.176 374.629Z" fill="#0066FF"/>
<path d="M157.577 365.036C158.566 365.036 159.413 365.239 160.121 365.647C160.829 366.054 161.373 366.631 161.753 367.379C162.134 368.127 162.324 369.021 162.324 370.063V371.325H154.924C154.95 372.4 155.238 373.227 155.785 373.808C156.339 374.389 157.114 374.679 158.108 374.679C158.816 374.679 159.45 374.613 160.011 374.479C160.578 374.339 161.163 374.135 161.763 373.868V375.781C161.209 376.041 160.645 376.232 160.071 376.352C159.497 376.472 158.809 376.532 158.008 376.532C156.92 376.532 155.962 376.322 155.134 375.901C154.313 375.474 153.669 374.84 153.201 373.998C152.741 373.157 152.51 372.112 152.51 370.864C152.51 369.622 152.721 368.567 153.141 367.7C153.562 366.832 154.153 366.171 154.914 365.717C155.675 365.263 156.563 365.036 157.577 365.036ZM157.577 366.808C156.836 366.808 156.236 367.049 155.775 367.529C155.321 368.01 155.054 368.714 154.974 369.642H160.021C160.014 369.088 159.921 368.598 159.741 368.17C159.567 367.743 159.3 367.409 158.939 367.169C158.586 366.929 158.132 366.808 157.577 366.808Z" fill="#0066FF"/>
<path d="M169.444 376.532C168.396 376.532 167.488 376.328 166.72 375.921C165.953 375.514 165.362 374.89 164.948 374.048C164.534 373.207 164.327 372.139 164.327 370.844C164.327 369.495 164.554 368.394 165.008 367.539C165.462 366.685 166.089 366.054 166.891 365.647C167.698 365.239 168.623 365.036 169.664 365.036C170.325 365.036 170.923 365.103 171.457 365.236C171.998 365.363 172.455 365.52 172.829 365.707L172.128 367.589C171.721 367.423 171.303 367.282 170.876 367.169C170.449 367.055 170.038 366.999 169.644 366.999C168.997 366.999 168.456 367.142 168.022 367.429C167.595 367.716 167.274 368.144 167.061 368.711C166.854 369.278 166.75 369.983 166.75 370.824C166.75 371.638 166.857 372.326 167.071 372.887C167.284 373.441 167.602 373.862 168.022 374.149C168.443 374.429 168.96 374.569 169.574 374.569C170.182 374.569 170.726 374.496 171.207 374.349C171.687 374.202 172.141 374.012 172.568 373.778V375.821C172.148 376.061 171.697 376.238 171.217 376.352C170.736 376.472 170.145 376.532 169.444 376.532Z" fill="#0066FF"/>
<path d="M179.298 374.629C179.605 374.629 179.909 374.603 180.209 374.549C180.51 374.489 180.783 374.419 181.03 374.339V376.121C180.77 376.235 180.433 376.332 180.019 376.412C179.605 376.492 179.174 376.532 178.727 376.532C178.1 376.532 177.535 376.428 177.035 376.222C176.534 376.008 176.137 375.644 175.843 375.13C175.549 374.616 175.402 373.905 175.402 372.997V367.039H173.89V365.987L175.513 365.156L176.284 362.783H177.766V365.246H180.94V367.039H177.766V372.967C177.766 373.528 177.906 373.945 178.186 374.219C178.467 374.492 178.837 374.629 179.298 374.629Z" fill="#0066FF"/>
<path d="M187.7 365.036C188.688 365.036 189.536 365.239 190.243 365.647C190.951 366.054 191.495 366.631 191.875 367.379C192.256 368.127 192.446 369.021 192.446 370.063V371.325H185.046C185.073 372.4 185.36 373.227 185.907 373.808C186.461 374.389 187.236 374.679 188.23 374.679C188.938 374.679 189.572 374.613 190.133 374.479C190.701 374.339 191.285 374.135 191.886 373.868V375.781C191.331 376.041 190.767 376.232 190.193 376.352C189.619 376.472 188.931 376.532 188.13 376.532C187.042 376.532 186.084 376.322 185.256 375.901C184.435 375.474 183.791 374.84 183.324 373.998C182.863 373.157 182.633 372.112 182.633 370.864C182.633 369.622 182.843 368.567 183.263 367.7C183.684 366.832 184.275 366.171 185.036 365.717C185.797 365.263 186.685 365.036 187.7 365.036ZM187.7 366.808C186.959 366.808 186.358 367.049 185.897 367.529C185.443 368.01 185.176 368.714 185.096 369.642H190.143C190.136 369.088 190.043 368.598 189.863 368.17C189.689 367.743 189.422 367.409 189.062 367.169C188.708 366.929 188.254 366.808 187.7 366.808Z" fill="#0066FF"/>
<path d="M198.825 376.532C197.503 376.532 196.442 376.051 195.641 375.09C194.846 374.122 194.449 372.697 194.449 370.814C194.449 368.911 194.853 367.473 195.661 366.498C196.475 365.523 197.547 365.036 198.875 365.036C199.436 365.036 199.927 365.113 200.347 365.266C200.768 365.413 201.128 365.613 201.429 365.867C201.736 366.121 201.996 366.404 202.21 366.718H202.32C202.287 366.511 202.247 366.214 202.2 365.827C202.16 365.433 202.14 365.069 202.14 364.735V360.75H204.503V376.332H202.661L202.24 374.82H202.14C201.94 375.14 201.686 375.43 201.379 375.691C201.078 375.944 200.718 376.148 200.297 376.302C199.883 376.455 199.393 376.532 198.825 376.532ZM199.486 374.619C200.494 374.619 201.205 374.329 201.619 373.748C202.033 373.167 202.247 372.296 202.26 371.134V370.824C202.26 369.582 202.06 368.631 201.659 367.97C201.259 367.302 200.528 366.969 199.466 366.969C198.618 366.969 197.971 367.312 197.523 368C197.083 368.681 196.862 369.632 196.862 370.854C196.862 372.076 197.083 373.01 197.523 373.658C197.971 374.299 198.625 374.619 199.486 374.619Z" fill="#0066FF"/>
<path d="M224.942 361.691V371.164C224.942 372.186 224.725 373.1 224.291 373.908C223.864 374.716 223.216 375.357 222.348 375.831C221.48 376.298 220.389 376.532 219.074 376.532C217.198 376.532 215.769 376.041 214.788 375.06C213.813 374.072 213.326 372.76 213.326 371.124V361.691H215.729V370.914C215.729 372.136 216.016 373.037 216.59 373.618C217.164 374.199 218.022 374.489 219.164 374.489C219.951 374.489 220.592 374.352 221.086 374.079C221.587 373.798 221.954 373.391 222.188 372.857C222.428 372.316 222.548 371.665 222.548 370.904V361.691H224.942Z" fill="#0066FF"/>
<path d="M235.897 373.167C235.897 373.895 235.72 374.509 235.366 375.01C235.013 375.511 234.495 375.891 233.814 376.151C233.14 376.405 232.312 376.532 231.331 376.532C230.556 376.532 229.889 376.475 229.328 376.362C228.774 376.255 228.25 376.088 227.756 375.861V373.828C228.283 374.075 228.874 374.289 229.528 374.469C230.189 374.649 230.813 374.739 231.401 374.739C232.175 374.739 232.733 374.619 233.073 374.379C233.414 374.132 233.584 373.805 233.584 373.398C233.584 373.157 233.514 372.944 233.374 372.757C233.24 372.563 232.986 372.366 232.612 372.166C232.245 371.959 231.705 371.712 230.99 371.425C230.289 371.144 229.698 370.864 229.218 370.584C228.737 370.303 228.373 369.966 228.126 369.572C227.879 369.172 227.756 368.661 227.756 368.04C227.756 367.059 228.143 366.314 228.917 365.807C229.698 365.293 230.73 365.036 232.012 365.036C232.693 365.036 233.334 365.106 233.934 365.246C234.542 365.38 235.136 365.577 235.717 365.837L234.976 367.609C234.475 367.389 233.971 367.209 233.464 367.069C232.963 366.922 232.452 366.848 231.932 366.848C231.324 366.848 230.86 366.942 230.54 367.129C230.226 367.316 230.069 367.583 230.069 367.93C230.069 368.19 230.146 368.411 230.299 368.591C230.453 368.771 230.717 368.951 231.09 369.132C231.471 369.312 231.998 369.536 232.673 369.803C233.334 370.056 233.904 370.323 234.385 370.604C234.872 370.877 235.246 371.215 235.507 371.615C235.767 372.016 235.897 372.533 235.897 373.167Z" fill="#0066FF"/>
<path d="M242.857 365.036C243.845 365.036 244.693 365.239 245.4 365.647C246.108 366.054 246.652 366.631 247.033 367.379C247.413 368.127 247.603 369.021 247.603 370.063V371.325H240.203C240.23 372.4 240.517 373.227 241.064 373.808C241.618 374.389 242.393 374.679 243.388 374.679C244.095 374.679 244.729 374.613 245.29 374.479C245.858 374.339 246.442 374.135 247.043 373.868V375.781C246.489 376.041 245.924 376.232 245.35 376.352C244.776 376.472 244.089 376.532 243.287 376.532C242.199 376.532 241.241 376.322 240.413 375.901C239.592 375.474 238.948 374.84 238.481 373.998C238.02 373.157 237.79 372.112 237.79 370.864C237.79 369.622 238 368.567 238.421 367.7C238.841 366.832 239.432 366.171 240.193 365.717C240.954 365.263 241.842 365.036 242.857 365.036ZM242.857 366.808C242.116 366.808 241.515 367.049 241.054 367.529C240.6 368.01 240.333 368.714 240.253 369.642H245.3C245.294 369.088 245.2 368.598 245.02 368.17C244.846 367.743 244.579 367.409 244.219 367.169C243.865 366.929 243.411 366.808 242.857 366.808Z" fill="#0066FF"/>
<path d="M255.875 365.036C256.062 365.036 256.266 365.046 256.486 365.066C256.706 365.086 256.896 365.113 257.057 365.146L256.836 367.349C256.696 367.309 256.523 367.279 256.316 367.259C256.115 367.239 255.935 367.229 255.775 367.229C255.354 367.229 254.954 367.299 254.573 367.439C254.193 367.573 253.856 367.78 253.562 368.06C253.268 368.334 253.038 368.678 252.871 369.092C252.704 369.505 252.62 369.986 252.62 370.534V376.332H250.257V365.246H252.1L252.42 367.199H252.53C252.751 366.805 253.024 366.445 253.352 366.117C253.679 365.79 254.053 365.53 254.473 365.336C254.9 365.136 255.368 365.036 255.875 365.036Z" fill="#0066FF"/>
<path d="M266.56 373.167C266.56 373.895 266.383 374.509 266.029 375.01C265.675 375.511 265.158 375.891 264.477 376.151C263.803 376.405 262.975 376.532 261.994 376.532C261.219 376.532 260.552 376.475 259.991 376.362C259.437 376.255 258.913 376.088 258.419 375.861V373.828C258.946 374.075 259.537 374.289 260.191 374.469C260.852 374.649 261.476 374.739 262.064 374.739C262.838 374.739 263.396 374.619 263.736 374.379C264.077 374.132 264.247 373.805 264.247 373.398C264.247 373.157 264.177 372.944 264.036 372.757C263.903 372.563 263.649 372.366 263.275 372.166C262.908 371.959 262.367 371.712 261.653 371.425C260.952 371.144 260.361 370.864 259.881 370.584C259.4 370.303 259.036 369.966 258.789 369.572C258.542 369.172 258.419 368.661 258.419 368.04C258.419 367.059 258.806 366.314 259.58 365.807C260.361 365.293 261.393 365.036 262.675 365.036C263.356 365.036 263.996 365.106 264.597 365.246C265.205 365.38 265.799 365.577 266.38 365.837L265.639 367.609C265.138 367.389 264.634 367.209 264.127 367.069C263.626 366.922 263.115 366.848 262.594 366.848C261.987 366.848 261.523 366.942 261.202 367.129C260.889 367.316 260.732 367.583 260.732 367.93C260.732 368.19 260.809 368.411 260.962 368.591C261.116 368.771 261.379 368.951 261.753 369.132C262.134 369.312 262.661 369.536 263.335 369.803C263.996 370.056 264.567 370.323 265.048 370.604C265.535 370.877 265.909 371.215 266.169 371.615C266.43 372.016 266.56 372.533 266.56 373.167Z" fill="#0066FF"/>
<rect x="70.3018" y="6.83618" width="29.6237" height="28.4843" rx="4" fill="#0066FF"/>
<rect x="70.3018" y="41.0173" width="29.6237" height="28.4843" rx="4" fill="#0066FF"/>
<rect x="34.9814" y="41.0173" width="29.6237" height="28.4843" rx="4" fill="#0066FF"/>
<rect x="25.8662" width="38.7387" height="36.4599" rx="4" fill="url(#paint2_linear_542_4341)"/>
<line x1="45.5967" y1="9.47559" x2="45.5967" y2="28.1237" stroke="white" stroke-width="3" stroke-linecap="round"/>
<line x1="36.4814" y1="19.0088" x2="55.1295" y2="19.0088" stroke="white" stroke-width="3" stroke-linecap="round"/>
<g filter="url(#filter2_b_542_4341)">
<rect x="69.1621" y="38.7386" width="137.864" height="53.5505" rx="10" fill="#EDEDFF" fill-opacity="0.5"/>
<rect x="69.6621" y="39.2386" width="136.864" height="52.5505" rx="9.5" stroke="#EAEAF7" style="mix-blend-mode:multiply"/>
</g>
<path d="M88.7461 72.3501V57.7096H91.1495V72.3501H88.7461Z" fill="#0066FF"/>
<path d="M100.553 61.0543C101.801 61.0543 102.772 61.3781 103.467 62.0257C104.168 62.6666 104.518 63.698 104.518 65.12V72.3501H102.165V65.5606C102.165 64.6994 101.988 64.0552 101.634 63.6279C101.28 63.194 100.733 62.977 99.9918 62.977C98.917 62.977 98.1693 63.3075 97.7487 63.9684C97.3348 64.6293 97.1278 65.5873 97.1278 66.8424V72.3501H94.7745V61.2646H96.6071L96.9376 62.7667H97.0677C97.3081 62.3795 97.6052 62.0624 97.959 61.8154C98.3195 61.5617 98.7201 61.3714 99.1607 61.2446C99.608 61.1177 100.072 61.0543 100.553 61.0543Z" fill="#0066FF"/>
<path d="M111.939 70.6477C112.246 70.6477 112.549 70.621 112.85 70.5676C113.15 70.5076 113.424 70.4375 113.671 70.3573V72.1398C113.411 72.2533 113.073 72.3501 112.66 72.4302C112.246 72.5104 111.815 72.5504 111.368 72.5504C110.74 72.5504 110.176 72.4469 109.675 72.24C109.175 72.0263 108.777 71.6625 108.484 71.1484C108.19 70.6344 108.043 69.9234 108.043 69.0155V63.0571H106.531V62.0057L108.153 61.1745L108.924 58.8012H110.406V61.2646H113.581V63.0571H110.406V68.9854C110.406 69.5462 110.547 69.9635 110.827 70.2372C111.107 70.5109 111.478 70.6477 111.939 70.6477Z" fill="#0066FF"/>
<path d="M120.34 61.0543C121.328 61.0543 122.176 61.2579 122.884 61.6652C123.592 62.0724 124.136 62.6499 124.516 63.3976C124.897 64.1453 125.087 65.0399 125.087 66.0814V67.3431H117.687C117.713 68.418 118 69.2458 118.548 69.8266C119.102 70.4074 119.876 70.6978 120.871 70.6978C121.579 70.6978 122.213 70.6311 122.774 70.4975C123.341 70.3573 123.925 70.1537 124.526 69.8867V71.7994C123.972 72.0597 123.408 72.25 122.834 72.3702C122.26 72.4903 121.572 72.5504 120.771 72.5504C119.683 72.5504 118.725 72.3401 117.897 71.9195C117.076 71.4923 116.432 70.858 115.964 70.0169C115.504 69.1757 115.273 68.1309 115.273 66.8825C115.273 65.6407 115.484 64.5859 115.904 63.7181C116.325 62.8502 116.916 62.1892 117.677 61.7353C118.438 61.2813 119.326 61.0543 120.34 61.0543ZM120.34 62.8268C119.599 62.8268 118.998 63.0671 118.538 63.5478C118.084 64.0285 117.817 64.7328 117.737 65.6608H122.784C122.777 65.1067 122.684 64.616 122.503 64.1887C122.33 63.7614 122.063 63.4276 121.702 63.1873C121.348 62.947 120.894 62.8268 120.34 62.8268Z" fill="#0066FF"/>
<path d="M130.905 77.277C129.403 77.277 128.251 77.0066 127.45 76.4659C126.649 75.9251 126.249 75.1674 126.249 74.1927C126.249 73.5118 126.462 72.9343 126.889 72.4603C127.317 71.993 127.928 71.6692 128.722 71.4889C128.422 71.3554 128.161 71.1484 127.941 70.8681C127.727 70.581 127.62 70.2639 127.62 69.9167C127.62 69.5028 127.737 69.149 127.971 68.8552C128.205 68.5615 128.555 68.2778 129.022 68.004C128.442 67.757 127.974 67.3565 127.62 66.8024C127.273 66.2416 127.1 65.584 127.1 64.8296C127.1 64.0285 127.27 63.3475 127.61 62.7867C127.951 62.2193 128.448 61.7887 129.103 61.4949C129.757 61.1945 130.548 61.0443 131.476 61.0443C131.676 61.0443 131.893 61.0577 132.127 61.0844C132.367 61.1044 132.587 61.1311 132.788 61.1645C132.995 61.1912 133.152 61.2212 133.258 61.2546H137.094V62.5664L135.211 62.9169C135.391 63.1706 135.535 63.461 135.642 63.7881C135.749 64.1086 135.802 64.4591 135.802 64.8396C135.802 65.9879 135.405 66.8925 134.61 67.5534C133.823 68.2077 132.734 68.5348 131.346 68.5348C131.012 68.5214 130.688 68.4947 130.374 68.4547C130.134 68.6016 129.95 68.7651 129.824 68.9454C129.697 69.1189 129.633 69.3159 129.633 69.5362C129.633 69.7164 129.697 69.8633 129.824 69.9768C129.95 70.0836 130.137 70.1637 130.384 70.2171C130.638 70.2706 130.945 70.2973 131.306 70.2973H133.218C134.433 70.2973 135.361 70.5543 136.002 71.0683C136.643 71.5824 136.964 72.3368 136.964 73.3315C136.964 74.5933 136.443 75.5646 135.401 76.2456C134.36 76.9332 132.861 77.277 130.905 77.277ZM130.995 75.6247C131.816 75.6247 132.507 75.5446 133.068 75.3844C133.629 75.2242 134.053 74.9938 134.34 74.6934C134.627 74.3997 134.77 74.0492 134.77 73.6419C134.77 73.2814 134.68 73.0044 134.5 72.8108C134.32 72.6172 134.049 72.4837 133.689 72.4102C133.328 72.3368 132.881 72.3001 132.347 72.3001H130.605C130.171 72.3001 129.787 72.3668 129.453 72.5003C129.119 72.6405 128.859 72.8408 128.672 73.1012C128.492 73.3615 128.402 73.6753 128.402 74.0425C128.402 74.5499 128.625 74.9404 129.073 75.2141C129.526 75.4879 130.167 75.6247 130.995 75.6247ZM131.456 66.9926C132.143 66.9926 132.654 66.8057 132.988 66.4318C133.322 66.0513 133.489 65.5172 133.489 64.8296C133.489 64.0819 133.315 63.5211 132.968 63.1473C132.627 62.7734 132.12 62.5865 131.446 62.5865C130.785 62.5865 130.281 62.7767 129.934 63.1573C129.593 63.5378 129.423 64.1019 129.423 64.8496C129.423 65.5239 129.593 66.0513 129.934 66.4318C130.281 66.8057 130.788 66.9926 131.456 66.9926Z" fill="#0066FF"/>
<path d="M144.734 61.0543C144.921 61.0543 145.125 61.0643 145.345 61.0844C145.566 61.1044 145.756 61.1311 145.916 61.1645L145.696 63.3676C145.556 63.3275 145.382 63.2975 145.175 63.2774C144.975 63.2574 144.795 63.2474 144.634 63.2474C144.214 63.2474 143.813 63.3175 143.433 63.4577C143.052 63.5912 142.715 63.7982 142.421 64.0786C142.127 64.3523 141.897 64.6961 141.73 65.11C141.563 65.5239 141.48 66.0046 141.48 66.552V72.3501H139.117V61.2646H140.959L141.28 63.2174H141.39C141.61 62.8235 141.884 62.463 142.211 62.1358C142.538 61.8087 142.912 61.5483 143.332 61.3547C143.76 61.1545 144.227 61.0543 144.734 61.0543Z" fill="#0066FF"/>
<path d="M152.315 61.0543C153.717 61.0543 154.775 61.3648 155.489 61.9856C156.21 62.6065 156.571 63.5745 156.571 64.8897V72.3501H154.899L154.448 70.7779H154.368C154.054 71.1785 153.73 71.509 153.397 71.7693C153.063 72.0297 152.676 72.2233 152.235 72.3501C151.801 72.4837 151.27 72.5504 150.643 72.5504C149.982 72.5504 149.391 72.4302 148.87 72.1899C148.349 71.9429 147.939 71.569 147.639 71.0683C147.338 70.5676 147.188 69.9334 147.188 69.1657C147.188 68.0241 147.612 67.1662 148.46 66.5921C149.314 66.0179 150.603 65.7008 152.325 65.6407L154.248 65.5706V64.9898C154.248 64.2221 154.067 63.6747 153.707 63.3475C153.353 63.0204 152.852 62.8568 152.205 62.8568C151.651 62.8568 151.113 62.937 150.593 63.0972C150.072 63.2574 149.565 63.4543 149.071 63.688L148.309 62.0257C148.85 61.7386 149.464 61.505 150.152 61.3247C150.846 61.1445 151.567 61.0543 152.315 61.0543ZM154.238 67.0527L152.806 67.1028C151.631 67.1428 150.806 67.3431 150.332 67.7036C149.858 68.0641 149.621 68.5582 149.621 69.1857C149.621 69.7331 149.785 70.1337 150.112 70.3874C150.439 70.6344 150.87 70.7579 151.404 70.7579C152.218 70.7579 152.893 70.5276 153.427 70.0669C153.967 69.5996 154.238 68.9153 154.238 68.0141V67.0527Z" fill="#0066FF"/>
<path d="M163.991 70.6477C164.298 70.6477 164.602 70.621 164.903 70.5676C165.203 70.5076 165.477 70.4375 165.724 70.3573V72.1398C165.463 72.2533 165.126 72.3501 164.712 72.4302C164.298 72.5104 163.868 72.5504 163.421 72.5504C162.793 72.5504 162.229 72.4469 161.728 72.24C161.228 72.0263 160.83 71.6625 160.537 71.1484C160.243 70.6344 160.096 69.9234 160.096 69.0155V63.0571H158.584V62.0057L160.206 61.1745L160.977 58.8012H162.459V61.2646H165.634V63.0571H162.459V68.9854C162.459 69.5462 162.599 69.9635 162.88 70.2372C163.16 70.5109 163.531 70.6477 163.991 70.6477Z" fill="#0066FF"/>
<path d="M170.33 61.2646V72.3501H167.977V61.2646H170.33ZM169.169 57.0187C169.529 57.0187 169.84 57.1155 170.1 57.3091C170.367 57.5027 170.5 57.8365 170.5 58.3105C170.5 58.7778 170.367 59.1116 170.1 59.3119C169.84 59.5055 169.529 59.6023 169.169 59.6023C168.795 59.6023 168.478 59.5055 168.217 59.3119C167.964 59.1116 167.837 58.7778 167.837 58.3105C167.837 57.8365 167.964 57.5027 168.217 57.3091C168.478 57.1155 168.795 57.0187 169.169 57.0187Z" fill="#0066FF"/>
<path d="M183.519 66.7823C183.519 67.7036 183.399 68.5214 183.158 69.2358C182.918 69.9501 182.567 70.5543 182.107 71.0483C181.646 71.5357 181.092 71.9095 180.444 72.1699C179.797 72.4236 179.066 72.5504 178.251 72.5504C177.49 72.5504 176.793 72.4236 176.158 72.1699C175.524 71.9095 174.973 71.5357 174.506 71.0483C174.045 70.5543 173.688 69.9501 173.435 69.2358C173.181 68.5214 173.054 67.7036 173.054 66.7823C173.054 65.5606 173.264 64.5258 173.685 63.678C174.112 62.8235 174.72 62.1726 175.507 61.7253C176.295 61.278 177.233 61.0543 178.321 61.0543C179.343 61.0543 180.244 61.278 181.025 61.7253C181.806 62.1726 182.417 62.8235 182.858 63.678C183.298 64.5325 183.519 65.5673 183.519 66.7823ZM175.477 66.7823C175.477 67.5901 175.574 68.2811 175.768 68.8552C175.968 69.4294 176.275 69.87 176.689 70.1771C177.103 70.4775 177.637 70.6277 178.291 70.6277C178.946 70.6277 179.48 70.4775 179.894 70.1771C180.308 69.87 180.611 69.4294 180.805 68.8552C180.999 68.2811 181.095 67.5901 181.095 66.7823C181.095 65.9745 180.999 65.2903 180.805 64.7295C180.611 64.162 180.308 63.7314 179.894 63.4377C179.48 63.1372 178.942 62.987 178.281 62.987C177.307 62.987 176.596 63.3142 176.148 63.9684C175.701 64.6227 175.477 65.5606 175.477 66.7823Z" fill="#0066FF"/>
<path d="M192.001 61.0543C193.249 61.0543 194.22 61.3781 194.915 62.0257C195.616 62.6666 195.966 63.698 195.966 65.12V72.3501H193.613V65.5606C193.613 64.6994 193.436 64.0552 193.082 63.6279C192.728 63.194 192.181 62.977 191.44 62.977C190.365 62.977 189.617 63.3075 189.197 63.9684C188.783 64.6293 188.576 65.5873 188.576 66.8424V72.3501H186.222V61.2646H188.055L188.386 62.7667H188.516C188.756 62.3795 189.053 62.0624 189.407 61.8154C189.767 61.5617 190.168 61.3714 190.609 61.2446C191.056 61.1177 191.52 61.0543 192.001 61.0543Z" fill="#0066FF"/>
<path d="M122.778 156.93L81 227.978L113.92 265.591L126.301 265.591L144.402 244.524L124.29 244.524L106.558 224.802L134.966 176.488L122.778 156.93Z" fill="#0066FF"/>
<path d="M139.712 197.356C139.769 197.356 139.86 197.513 139.962 197.754L140.122 198.167C140.15 198.243 140.177 198.322 140.204 198.403L140.36 198.899C140.384 198.981 140.408 199.064 140.43 199.144L140.543 199.595C140.589 199.801 140.617 199.97 140.617 200.069L140.612 200.163C141.113 200.27 141.572 200.464 141.982 200.726C141.997 200.612 142.034 200.499 142.095 200.393C142.162 200.278 142.332 200.082 142.549 199.858L142.903 199.508L143.286 199.157L143.654 198.844C143.943 198.611 144.174 198.46 144.235 198.496C144.308 198.538 144.271 198.926 144.184 199.403L144.083 199.901L143.962 200.403L143.835 200.851C143.772 201.052 143.712 201.211 143.662 201.298C143.532 201.523 143.319 201.671 143.085 201.726C143.822 202.648 144.235 203.849 144.235 205.044C144.235 205.763 144.096 206.454 143.84 207.083C143.718 207.383 143.525 207.632 143.288 207.819L143.103 207.948L143.136 207.954C144.733 208.274 145.907 209.616 146.033 211.217L146.044 211.502L146.044 214.697L146.574 214.167C147.28 213.461 148.426 213.461 149.132 214.167C149.784 214.819 149.834 215.845 149.283 216.555L149.132 216.725L146.044 219.813L146.044 224.491C146.972 224.491 147.736 225.19 147.841 226.089L147.853 226.3L147.853 229.918C148.852 229.918 149.662 230.728 149.662 231.727C149.662 232.655 148.964 233.42 148.064 233.524L147.853 233.536L131.572 233.536C130.573 233.536 129.763 232.726 129.763 231.727C129.763 230.8 130.461 230.035 131.361 229.93L131.572 229.918L131.572 226.3C131.572 225.372 132.27 224.608 133.17 224.503L133.381 224.491L133.381 218.004L130.293 214.916C130.01 214.634 129.831 214.267 129.779 213.875L129.763 213.637L129.763 202.541C129.222 202.228 128.858 201.644 128.858 200.974C128.858 200.046 129.557 199.282 130.456 199.177L130.667 199.165L132.476 199.165C133.476 199.165 134.285 199.975 134.285 200.974C134.285 201.22 134.236 201.455 134.147 201.669L134.045 201.875L135.246 204.277C135.382 203.347 135.761 202.451 136.34 201.726C136.105 201.671 135.893 201.523 135.763 201.298C135.713 201.211 135.653 201.052 135.59 200.851L135.463 200.403L135.342 199.901L135.241 199.403C135.154 198.926 135.116 198.538 135.19 198.496C135.251 198.46 135.482 198.611 135.771 198.844L136.139 199.157L136.522 199.508L136.876 199.858C137.093 200.082 137.263 200.278 137.33 200.393C137.391 200.499 137.428 200.612 137.443 200.726C137.853 200.464 138.312 200.27 138.813 200.163L138.808 200.069C138.808 199.97 138.836 199.801 138.882 199.595L138.995 199.144L139.141 198.649C139.193 198.483 139.248 198.32 139.303 198.167L139.463 197.754C139.565 197.513 139.656 197.356 139.712 197.356ZM144.235 228.109L135.19 228.109L135.19 229.918L144.235 229.918L144.235 228.109ZM142.426 213.482L136.999 218.909L136.999 224.491L142.426 224.491L142.426 213.482ZM133.381 208.637L133.381 212.888L135.642 215.149L139.812 210.979L134.835 209.984C134.079 209.833 133.699 209.274 133.381 208.637ZM139.712 203.688C139.562 203.688 139.363 203.754 139.167 203.983C138.968 204.215 138.808 204.585 138.808 205.044C138.808 205.213 138.83 205.37 138.867 205.514L138.936 205.719C139.125 206.185 139.107 206.683 138.924 207.112L140.704 207.468C140.392 207.04 140.274 206.483 140.414 205.947L140.489 205.719C140.568 205.525 140.617 205.297 140.617 205.044C140.617 204.585 140.457 204.215 140.258 203.983C140.062 203.754 139.863 203.688 139.712 203.688ZM131.572 192.833C131.855 192.833 133.381 195.452 133.381 196.451C133.381 197.451 132.571 198.26 131.572 198.26C130.573 198.26 129.763 197.451 129.763 196.451C129.763 195.452 131.289 192.833 131.572 192.833Z" fill="#0066FF"/>
<path d="M137.66 129L125.392 149.405L169.679 225.301L133.75 265.591C133.75 265.591 161.99 265.423 161.823 265.591C161.655 265.758 195.413 227.643 195.413 227.643L137.66 129Z" fill="url(#paint3_linear_542_4341)"/>
<defs>
<filter id="filter0_b_542_4341" x="298.463" y="185.048" width="171.536" height="73.5505" filterUnits="userSpaceOnUse" color-interpolation-filters="sRGB">
<feFlood flood-opacity="0" result="BackgroundImageFix"/>
<feGaussianBlur in="BackgroundImageFix" stdDeviation="5"/>
<feComposite in2="SourceAlpha" operator="in" result="effect1_backgroundBlur_542_4341"/>
<feBlend mode="normal" in="SourceGraphic" in2="effect1_backgroundBlur_542_4341" result="shape"/>
</filter>
<filter id="filter1_b_542_4341" x="32.1562" y="332.15" width="286.613" height="73.5505" filterUnits="userSpaceOnUse" color-interpolation-filters="sRGB">
<feFlood flood-opacity="0" result="BackgroundImageFix"/>
<feGaussianBlur in="BackgroundImageFix" stdDeviation="5"/>
<feComposite in2="SourceAlpha" operator="in" result="effect1_backgroundBlur_542_4341"/>
<feBlend mode="normal" in="SourceGraphic" in2="effect1_backgroundBlur_542_4341" result="shape"/>
</filter>
<filter id="filter2_b_542_4341" x="59.1621" y="28.7386" width="157.864" height="73.5505" filterUnits="userSpaceOnUse" color-interpolation-filters="sRGB">
<feFlood flood-opacity="0" result="BackgroundImageFix"/>
<feGaussianBlur in="BackgroundImageFix" stdDeviation="5"/>
<feComposite in2="SourceAlpha" operator="in" result="effect1_backgroundBlur_542_4341"/>
<feBlend mode="normal" in="SourceGraphic" in2="effect1_backgroundBlur_542_4341" result="shape"/>
</filter>
<linearGradient id="paint0_linear_542_4341" x1="257.191" y1="166.848" x2="298.497" y2="171.866" gradientUnits="userSpaceOnUse">
<stop stop-color="#319CFF"/>
<stop offset="0.275793" stop-color="#AED8FF"/>
<stop offset="0.916667" stop-color="#0B86F8"/>
</linearGradient>
<linearGradient id="paint1_linear_542_4341" x1="-1.16285e-07" y1="329.319" x2="48.8186" y2="335.605" gradientUnits="userSpaceOnUse">
<stop stop-color="#319CFF"/>
<stop offset="0.275793" stop-color="#AED8FF"/>
<stop offset="0.916667" stop-color="#0B86F8"/>
</linearGradient>
<linearGradient id="paint2_linear_542_4341" x1="25.8662" y1="25.8258" x2="79.4886" y2="33.8121" gradientUnits="userSpaceOnUse">
<stop stop-color="#319CFF"/>
<stop offset="0.275793" stop-color="#AED8FF"/>
<stop offset="0.916667" stop-color="#0B86F8"/>
</linearGradient>
<linearGradient id="paint3_linear_542_4341" x1="125.392" y1="225.752" x2="223.957" y2="232.835" gradientUnits="userSpaceOnUse">
<stop stop-color="#319CFF"/>
<stop offset="0.275793" stop-color="#AED8FF"/>
<stop offset="0.916667" stop-color="#0B86F8"/>
</linearGradient>
</defs>
</svg>
