<svg width="565" height="287" viewBox="0 0 565 287" fill="none" xmlns="http://www.w3.org/2000/svg">
<path d="M41 212L104 173" stroke="#0066FF" stroke-width="4" stroke-dasharray="2 2"/>
<path d="M60 250H134.095" stroke="#0066FF" stroke-width="4" stroke-dasharray="2 2"/>
<path d="M158 113L212.499 163.198" stroke="#0066FF" stroke-width="4" stroke-dasharray="2 2"/>
<path d="M152 113L310.499 26.198" stroke="#0066FF" stroke-width="4" stroke-dasharray="2 2"/>
<path d="M165 256.802L259 226" stroke="#0066FF" stroke-width="4" stroke-dasharray="2 2"/>
<path d="M294 214.802L388 184" stroke="#0066FF" stroke-width="4" stroke-dasharray="2 2"/>
<path d="M423 172.802L516 132" stroke="#0066FF" stroke-width="4" stroke-dasharray="2 2"/>
<path d="M509 141L504 222" stroke="#0066FF" stroke-width="4" stroke-dasharray="2 2"/>
<path d="M498 118L377 47" stroke="#0066FF" stroke-width="4" stroke-dasharray="2 2"/>
<rect x="48" y="62" width="111" height="111" rx="3" fill="#0066FF"/>
<rect y="212" width="75" height="75" rx="3" fill="#0066FF"/>
<rect x="212" y="138" width="112" height="112" rx="3" fill="#0066FF"/>
<path d="M267.5 169.417C268.671 169.417 269.794 169.882 270.623 170.71C271.451 171.539 271.916 172.662 271.916 173.833C271.916 175.005 271.451 176.128 270.623 176.956C269.794 177.785 268.671 178.25 267.5 178.25C266.328 178.25 265.205 177.785 264.377 176.956C263.548 176.128 263.083 175.005 263.083 173.833C263.083 172.662 263.548 171.539 264.377 170.71C265.205 169.882 266.328 169.417 267.5 169.417ZM264.187 180.458H270.812C271.984 180.458 273.107 180.924 273.935 181.752C274.764 182.58 275.229 183.704 275.229 184.875V197.021H271.916V213.583H263.083V197.021H259.771V184.875C259.771 183.704 260.236 182.58 261.064 181.752C261.892 180.924 263.016 180.458 264.187 180.458Z" fill="#DDDCFF"/>
<path d="M103.5 95.4166C104.671 95.4166 105.794 95.882 106.623 96.7102C107.451 97.5385 107.916 98.6619 107.916 99.8333C107.916 101.005 107.451 102.128 106.623 102.956C105.794 103.785 104.671 104.25 103.5 104.25C102.328 104.25 101.205 103.785 100.377 102.956C99.5483 102.128 99.083 101.005 99.083 99.8333C99.083 98.6619 99.5483 97.5385 100.377 96.7102C101.205 95.882 102.328 95.4166 103.5 95.4166ZM100.187 106.458H106.812C107.984 106.458 109.107 106.924 109.935 107.752C110.764 108.58 111.229 109.704 111.229 110.875V123.021H107.916V139.583H99.083V123.021H95.7705V110.875C95.7705 109.704 96.2358 108.58 97.0641 107.752C97.8924 106.924 99.0158 106.458 100.187 106.458Z" fill="#DDDCFF"/>
<rect x="125" y="212" width="67" height="67" rx="3" fill="#0066FF"/>
<rect x="360" y="138" width="84" height="84" rx="3" fill="#0066FF"/>
<rect x="462" y="184" width="84" height="84" rx="3" fill="#0066FF"/>
<rect x="297" width="84" height="84" rx="3" fill="#0066FF"/>
<rect x="481" y="54" width="84" height="84" rx="3" fill="#0066FF"/>
<path d="M47.215 255.58C47.215 256.863 46.8767 258.053 46.2 259.15C45.5467 260.223 44.5667 261.11 43.26 261.81C41.9767 262.487 40.4483 262.86 38.675 262.93V265.765H36.435V262.895C33.9617 262.685 31.9667 261.95 30.45 260.69C28.9333 259.407 28.1283 257.668 28.035 255.475H34.405C34.545 256.875 35.2217 257.773 36.435 258.17V252.64C34.615 252.173 33.1567 251.718 32.06 251.275C30.9867 250.832 30.0417 250.12 29.225 249.14C28.4083 248.16 28 246.818 28 245.115C28 242.992 28.7817 241.288 30.345 240.005C31.9317 238.722 33.9617 237.998 36.435 237.835V235H38.675V237.835C41.125 238.022 43.0617 238.733 44.485 239.97C45.9083 241.207 46.7017 242.922 46.865 245.115H40.46C40.32 243.855 39.725 243.038 38.675 242.665V248.09C40.6117 248.627 42.105 249.105 43.155 249.525C44.205 249.945 45.1383 250.645 45.955 251.625C46.795 252.582 47.215 253.9 47.215 255.58ZM34.335 244.835C34.335 245.418 34.51 245.908 34.86 246.305C35.2333 246.702 35.7583 247.052 36.435 247.355V242.49C35.7817 242.607 35.2683 242.863 34.895 243.26C34.5217 243.633 34.335 244.158 34.335 244.835ZM38.675 258.275C39.375 258.158 39.9233 257.878 40.32 257.435C40.74 256.992 40.95 256.443 40.95 255.79C40.95 255.183 40.7517 254.693 40.355 254.32C39.9817 253.923 39.4217 253.585 38.675 253.305V258.275Z" fill="#DDDCFF"/>
<path d="M348.215 47.58C348.215 48.8633 347.877 50.0533 347.2 51.15C346.547 52.2233 345.567 53.11 344.26 53.81C342.977 54.4867 341.448 54.86 339.675 54.93V57.765H337.435V54.895C334.962 54.685 332.967 53.95 331.45 52.69C329.933 51.4067 329.128 49.6683 329.035 47.475H335.405C335.545 48.875 336.222 49.7733 337.435 50.17V44.64C335.615 44.1733 334.157 43.7183 333.06 43.275C331.987 42.8317 331.042 42.12 330.225 41.14C329.408 40.16 329 38.8183 329 37.115C329 34.9917 329.782 33.2883 331.345 32.005C332.932 30.7217 334.962 29.9983 337.435 29.835V27H339.675V29.835C342.125 30.0217 344.062 30.7333 345.485 31.97C346.908 33.2067 347.702 34.9217 347.865 37.115H341.46C341.32 35.855 340.725 35.0383 339.675 34.665V40.09C341.612 40.6267 343.105 41.105 344.155 41.525C345.205 41.945 346.138 42.645 346.955 43.625C347.795 44.5817 348.215 45.9 348.215 47.58ZM335.335 36.835C335.335 37.4183 335.51 37.9083 335.86 38.305C336.233 38.7017 336.758 39.0517 337.435 39.355V34.49C336.782 34.6067 336.268 34.8633 335.895 35.26C335.522 35.6333 335.335 36.1583 335.335 36.835ZM339.675 50.275C340.375 50.1583 340.923 49.8783 341.32 49.435C341.74 48.9917 341.95 48.4433 341.95 47.79C341.95 47.1833 341.752 46.6933 341.355 46.32C340.982 45.9233 340.422 45.585 339.675 45.305V50.275Z" fill="#DDDCFF"/>
<path d="M166 249.717C166 250.634 165.753 251.485 165.26 252.27C164.784 253.037 164.07 253.671 163.118 254.172C162.183 254.656 161.07 254.923 159.778 254.973V257H158.146V254.948C156.344 254.797 154.89 254.272 153.785 253.371C152.68 252.453 152.094 251.21 152.026 249.642H156.667C156.769 250.643 157.262 251.285 158.146 251.569V247.614C156.82 247.281 155.757 246.955 154.958 246.638C154.176 246.321 153.488 245.812 152.893 245.111C152.298 244.411 152 243.451 152 242.233C152 240.715 152.57 239.497 153.709 238.579C154.865 237.661 156.344 237.144 158.146 237.027V235H159.778V237.027C161.563 237.161 162.974 237.67 164.011 238.554C165.048 239.438 165.626 240.665 165.745 242.233H161.078C160.976 241.332 160.543 240.748 159.778 240.481V244.361C161.189 244.744 162.277 245.086 163.042 245.387C163.807 245.687 164.487 246.188 165.082 246.889C165.694 247.573 166 248.515 166 249.717ZM156.616 242.033C156.616 242.45 156.743 242.801 156.998 243.084C157.27 243.368 157.653 243.618 158.146 243.835V240.356C157.67 240.44 157.296 240.623 157.024 240.907C156.752 241.174 156.616 241.549 156.616 242.033ZM159.778 251.644C160.288 251.56 160.687 251.36 160.976 251.043C161.282 250.726 161.435 250.334 161.435 249.867C161.435 249.433 161.291 249.083 161.002 248.816C160.73 248.532 160.322 248.29 159.778 248.09V251.644Z" fill="#DDDCFF"/>
<path d="M530 99.7167C530 100.634 529.753 101.485 529.26 102.27C528.784 103.037 528.07 103.671 527.118 104.172C526.183 104.656 525.07 104.923 523.778 104.973V107H522.146V104.948C520.344 104.797 518.89 104.272 517.785 103.371C516.68 102.453 516.094 101.21 516.026 99.6416H520.667C520.769 100.643 521.262 101.285 522.146 101.569V97.6143C520.82 97.2806 519.757 96.9553 518.958 96.6382C518.176 96.3212 517.488 95.8123 516.893 95.1115C516.298 94.4107 516 93.4513 516 92.2332C516 90.7148 516.57 89.4968 517.709 88.5791C518.865 87.6614 520.344 87.1441 522.146 87.0273V85H523.778V87.0273C525.563 87.1608 526.974 87.6697 528.011 88.554C529.048 89.4384 529.626 90.6648 529.745 92.2332H525.078C524.976 91.3322 524.543 90.7482 523.778 90.4812V94.3606C525.189 94.7444 526.277 95.0865 527.042 95.3868C527.807 95.6871 528.487 96.1877 529.082 96.8885C529.694 97.5726 530 98.5154 530 99.7167ZM520.616 92.033C520.616 92.4501 520.743 92.8005 520.998 93.0842C521.27 93.3678 521.653 93.6181 522.146 93.835V90.3561C521.67 90.4395 521.296 90.6231 521.024 90.9067C520.752 91.1737 520.616 91.5491 520.616 92.033ZM523.778 101.644C524.288 101.56 524.687 101.36 524.976 101.043C525.282 100.726 525.435 100.334 525.435 99.8669C525.435 99.4331 525.291 99.0827 525.002 98.8157C524.73 98.532 524.322 98.2901 523.778 98.0899V101.644Z" fill="#DDDCFF"/>
<path d="M411.215 185.58C411.215 186.863 410.877 188.053 410.2 189.15C409.547 190.223 408.567 191.11 407.26 191.81C405.977 192.487 404.448 192.86 402.675 192.93V195.765H400.435V192.895C397.962 192.685 395.967 191.95 394.45 190.69C392.933 189.407 392.128 187.668 392.035 185.475H398.405C398.545 186.875 399.222 187.773 400.435 188.17V182.64C398.615 182.173 397.157 181.718 396.06 181.275C394.987 180.832 394.042 180.12 393.225 179.14C392.408 178.16 392 176.818 392 175.115C392 172.992 392.782 171.288 394.345 170.005C395.932 168.722 397.962 167.998 400.435 167.835V165H402.675V167.835C405.125 168.022 407.062 168.733 408.485 169.97C409.908 171.207 410.702 172.922 410.865 175.115H404.46C404.32 173.855 403.725 173.038 402.675 172.665V178.09C404.612 178.627 406.105 179.105 407.155 179.525C408.205 179.945 409.138 180.645 409.955 181.625C410.795 182.582 411.215 183.9 411.215 185.58ZM398.335 174.835C398.335 175.418 398.51 175.908 398.86 176.305C399.233 176.702 399.758 177.052 400.435 177.355V172.49C399.782 172.607 399.268 172.863 398.895 173.26C398.522 173.633 398.335 174.158 398.335 174.835ZM402.675 188.275C403.375 188.158 403.923 187.878 404.32 187.435C404.74 186.992 404.95 186.443 404.95 185.79C404.95 185.183 404.752 184.693 404.355 184.32C403.982 183.923 403.422 183.585 402.675 183.305V188.275Z" fill="#DDDCFF"/>
<path d="M503.5 203.417C504.671 203.417 505.794 203.882 506.623 204.71C507.451 205.539 507.916 206.662 507.916 207.833C507.916 209.005 507.451 210.128 506.623 210.956C505.794 211.785 504.671 212.25 503.5 212.25C502.328 212.25 501.205 211.785 500.377 210.956C499.548 210.128 499.083 209.005 499.083 207.833C499.083 206.662 499.548 205.539 500.377 204.71C501.205 203.882 502.328 203.417 503.5 203.417ZM500.187 214.458H506.812C507.984 214.458 509.107 214.924 509.935 215.752C510.764 216.58 511.229 217.704 511.229 218.875V231.021H507.916V247.583H499.083V231.021H495.771V218.875C495.771 217.704 496.236 216.58 497.064 215.752C497.892 214.924 499.016 214.458 500.187 214.458Z" fill="#DDDCFF"/>
</svg>
