<svg width="406" height="400" viewBox="0 0 406 400" fill="none" xmlns="http://www.w3.org/2000/svg">
<path d="M6.99993 209.042L24.3149 208.605L15.2789 193.829L6.99993 209.042ZM181.964 259.078C184.785 255.678 184.316 250.634 180.916 247.813C177.516 244.992 172.472 245.461 169.651 248.861C166.829 252.261 167.299 257.305 170.699 260.126C174.099 262.947 179.142 262.478 181.964 259.078ZM177.248 254.388C177.641 253.033 177.942 251.688 178.151 250.353L175.188 249.888C174.998 251.094 174.726 252.315 174.367 253.551L177.248 254.388ZM178.3 242.123C177.964 239.395 177.246 236.745 176.187 234.183L173.415 235.33C174.377 237.656 175.021 240.045 175.323 242.49L178.3 242.123ZM172.212 227.039C170.708 224.906 168.961 222.852 166.999 220.881L164.873 222.998C166.728 224.861 168.363 226.787 169.761 228.769L172.212 227.039ZM160.94 215.562C158.897 213.981 156.708 212.465 154.389 211.016L152.8 213.561C155.041 214.961 157.147 216.42 159.104 217.934L160.94 215.562ZM147.46 207.084C145.152 205.892 142.748 204.757 140.261 203.682L139.071 206.436C141.498 207.485 143.84 208.591 146.084 209.75L147.46 207.084ZM132.871 200.752C130.427 199.864 127.92 199.03 125.359 198.252L124.487 201.122C126.998 201.885 129.454 202.703 131.847 203.572L132.871 200.752ZM117.73 196.137C115.195 195.499 112.619 194.914 110.01 194.384L109.413 197.324C111.977 197.845 114.509 198.42 116.999 199.046L117.73 196.137ZM102.221 192.98C99.6281 192.572 97.0115 192.216 94.3787 191.916L94.0392 194.897C96.6294 195.192 99.2033 195.542 101.754 195.944L102.221 192.98ZM86.4981 191.189C83.8696 191.004 81.2322 190.874 78.5929 190.802L78.5114 193.801C81.1069 193.872 83.701 193.999 86.2867 194.182L86.4981 191.189ZM70.6767 190.763C68.0318 190.809 65.392 190.916 62.7646 191.084L62.9567 194.078C65.5366 193.913 68.1298 193.808 70.7291 193.763L70.6767 190.763ZM54.8736 191.784C52.2348 192.085 49.6159 192.452 47.0246 192.887L47.5216 195.846C50.0589 195.42 52.6253 195.06 55.2132 194.765L54.8736 191.784ZM39.2435 194.422C36.6437 195.014 34.0808 195.681 31.5634 196.425L32.4135 199.302C34.8677 198.577 37.3692 197.926 39.9099 197.347L39.2435 194.422ZM24.0153 198.942C21.5037 199.881 19.05 200.906 16.6638 202.019L17.9322 204.738C20.2436 203.659 22.6244 202.665 25.0657 201.752L24.0153 198.942Z" fill="#0066FF"/>
<path d="M366.468 67.2002L353.846 79.0614L370.429 84.0617L366.468 67.2002ZM46.3193 223.871C46.3193 228.289 49.9011 231.871 54.3193 231.871C58.7376 231.871 62.3193 228.289 62.3193 223.871C62.3193 219.453 58.7376 215.871 54.3193 215.871C49.9011 215.871 46.3193 219.453 46.3193 223.871ZM52.9264 224.427C53.4476 225.732 53.998 227.003 54.577 228.241L57.2946 226.97C56.7403 225.785 56.2126 224.566 55.7122 223.314L52.9264 224.427ZM58.4446 235.367C59.9121 237.713 61.5016 239.911 63.2065 241.966L65.5154 240.051C63.8971 238.1 62.3856 236.01 60.9877 233.776L58.4446 235.367ZM68.8615 247.888C70.8857 249.728 73.0265 251.414 75.2757 252.947L76.9658 250.469C74.83 249.012 72.7991 247.413 70.8798 245.668L68.8615 247.888ZM82.3004 257.077C84.7009 258.285 87.1956 259.352 89.7766 260.28L90.7925 257.458C88.3203 256.568 85.9369 255.549 83.6488 254.398L82.3004 257.077ZM97.5623 262.609C100.155 263.238 102.819 263.748 105.546 264.143L105.976 261.174C103.337 260.792 100.766 260.299 98.2696 259.694L97.5623 262.609ZM113.601 264.966C116.231 265.129 118.912 265.196 121.638 265.171L121.61 262.171C118.952 262.196 116.342 262.13 113.786 261.972L113.601 264.966ZM129.693 264.838C132.343 264.647 135.03 264.375 137.749 264.026L137.366 261.05C134.7 261.393 132.069 261.659 129.477 261.846L129.693 264.838ZM145.668 262.806C148.265 262.341 150.888 261.81 153.533 261.215L152.873 258.288C150.271 258.874 147.691 259.396 145.139 259.853L145.668 262.806ZM161.376 259.277C163.917 258.595 166.476 257.857 169.048 257.064L168.164 254.197C165.626 254.98 163.103 255.708 160.598 256.38L161.376 259.277ZM176.677 254.566C179.185 253.697 181.704 252.779 184.232 251.812L183.16 249.01C180.662 249.966 178.173 250.873 175.695 251.731L176.677 254.566ZM191.646 248.847C194.103 247.822 196.566 246.753 199.032 245.641L197.799 242.906C195.358 244.007 192.922 245.064 190.492 246.078L191.646 248.847ZM206.26 242.263C208.652 241.106 211.046 239.91 213.438 238.675L212.063 236.009C209.693 237.232 207.323 238.417 204.954 239.562L206.26 242.263ZM220.503 234.918C222.832 233.642 225.157 232.332 227.478 230.986L225.974 228.391C223.674 229.724 221.369 231.023 219.062 232.287L220.503 234.918ZM234.365 226.887C236.629 225.502 238.888 224.086 241.138 222.638L239.516 220.115C237.284 221.55 235.045 222.955 232.8 224.327L234.365 226.887ZM247.834 218.224C250.034 216.737 252.225 215.221 254.405 213.676L252.67 211.228C250.509 212.76 248.336 214.264 246.154 215.738L247.834 218.224ZM260.896 208.967C263.031 207.383 265.152 205.772 267.26 204.134L265.419 201.765C263.329 203.389 261.225 204.987 259.108 206.559L260.896 208.967ZM273.533 199.146C275.599 197.467 277.648 195.762 279.681 194.033L277.737 191.748C275.722 193.463 273.689 195.153 271.641 196.819L273.533 199.146ZM285.723 188.776C287.715 187.003 289.688 185.207 291.641 183.389L289.596 181.193C287.66 182.996 285.704 184.777 283.729 186.535L285.723 188.776ZM297.436 177.865C299.348 176.001 301.237 174.115 303.103 172.208L300.959 170.11C299.11 172 297.237 173.87 295.342 175.718L297.436 177.865ZM308.633 166.42C310.456 164.465 312.254 162.49 314.024 160.496L311.781 158.504C310.027 160.48 308.246 162.437 306.439 164.374L308.633 166.42ZM319.265 154.441C320.99 152.397 322.685 150.333 324.35 148.252L322.007 146.378C320.359 148.439 318.68 150.482 316.972 152.507L319.265 154.441ZM329.27 141.929C330.885 139.794 332.467 137.642 334.014 135.474L331.572 133.732C330.041 135.877 328.476 138.006 326.878 140.119L329.27 141.929ZM338.576 128.88C340.067 126.656 341.52 124.417 342.934 122.162L340.393 120.568C338.995 122.796 337.558 125.01 336.084 127.209L338.576 128.88ZM347.093 115.295C348.443 112.984 349.751 110.658 351.015 108.319L348.376 106.893C347.128 109.202 345.836 111.499 344.503 113.782L347.093 115.295ZM354.715 101.181C355.905 98.7826 357.049 96.3713 358.144 93.9479L355.41 92.7127C354.33 95.1024 353.202 97.4809 352.028 99.8472L354.715 101.181ZM361.316 86.5542C362.326 84.0695 363.283 81.5732 364.187 79.0665L361.364 78.0494C360.475 80.5176 359.532 82.9764 358.537 85.4247L361.316 86.5542Z" fill="#0066FF"/>
<rect x="121.123" y="103.784" width="36.9806" height="17.8939" rx="8.94693" fill="#0066FF"/>
<path d="M140.026 120.824C140.026 121.374 139.89 121.848 139.62 122.246C139.353 122.643 138.968 122.948 138.464 123.16C137.965 123.371 137.368 123.477 136.674 123.477C136.336 123.477 136.012 123.458 135.703 123.42C135.394 123.382 135.102 123.327 134.827 123.255C134.556 123.179 134.309 123.088 134.084 122.982V121.547C134.461 121.712 134.882 121.863 135.348 121.998C135.813 122.129 136.287 122.195 136.77 122.195C137.163 122.195 137.489 122.144 137.747 122.042C138.009 121.937 138.204 121.789 138.331 121.598C138.458 121.403 138.521 121.177 138.521 120.919C138.521 120.644 138.447 120.411 138.299 120.221C138.151 120.03 137.927 119.857 137.626 119.7C137.33 119.539 136.958 119.368 136.509 119.186C136.205 119.063 135.913 118.924 135.633 118.767C135.358 118.611 135.113 118.426 134.897 118.215C134.681 118.003 134.51 117.754 134.383 117.466C134.26 117.174 134.199 116.831 134.199 116.438C134.199 115.913 134.324 115.464 134.573 115.092C134.827 114.719 135.183 114.434 135.64 114.235C136.101 114.036 136.638 113.937 137.252 113.937C137.739 113.937 138.196 113.987 138.623 114.089C139.055 114.19 139.478 114.334 139.893 114.521L139.41 115.746C139.029 115.589 138.659 115.464 138.299 115.371C137.944 115.278 137.58 115.231 137.208 115.231C136.886 115.231 136.613 115.28 136.389 115.377C136.164 115.475 135.993 115.612 135.875 115.79C135.76 115.964 135.703 116.171 135.703 116.412C135.703 116.683 135.769 116.911 135.9 117.098C136.035 117.28 136.243 117.447 136.522 117.599C136.806 117.751 137.169 117.921 137.614 118.107C138.126 118.319 138.56 118.541 138.915 118.773C139.275 119.006 139.55 119.285 139.74 119.611C139.931 119.933 140.026 120.337 140.026 120.824ZM137.315 133.19C137.942 133.19 138.479 133.319 138.928 133.577C139.376 133.835 139.721 134.201 139.962 134.675C140.204 135.149 140.324 135.716 140.324 136.376V137.176H135.633C135.65 137.858 135.832 138.382 136.179 138.75C136.53 139.119 137.021 139.303 137.652 139.303C138.1 139.303 138.502 139.26 138.858 139.176C139.218 139.087 139.588 138.958 139.969 138.789V140.001C139.618 140.166 139.26 140.287 138.896 140.363C138.532 140.439 138.096 140.477 137.588 140.477C136.899 140.477 136.291 140.344 135.767 140.077C135.246 139.806 134.838 139.404 134.542 138.871C134.25 138.338 134.104 137.676 134.104 136.884C134.104 136.097 134.237 135.429 134.503 134.878C134.77 134.328 135.145 133.909 135.627 133.622C136.109 133.334 136.672 133.19 137.315 133.19ZM137.315 134.313C136.846 134.313 136.465 134.466 136.173 134.771C135.885 135.075 135.716 135.522 135.665 136.11H138.864C138.86 135.759 138.801 135.448 138.687 135.177C138.576 134.906 138.407 134.694 138.179 134.542C137.954 134.39 137.667 134.313 137.315 134.313ZM138.179 150.19C138.97 150.19 139.586 150.395 140.026 150.806C140.47 151.212 140.692 151.866 140.692 152.767V157.35H139.201V153.046C139.201 152.5 139.089 152.092 138.864 151.821C138.64 151.546 138.293 151.409 137.823 151.409C137.142 151.409 136.668 151.618 136.401 152.037C136.139 152.456 136.008 153.063 136.008 153.859V157.35H134.516V150.323H135.678L135.887 151.275H135.97C136.122 151.03 136.31 150.829 136.535 150.672C136.763 150.512 137.017 150.391 137.296 150.311C137.58 150.23 137.874 150.19 138.179 150.19ZM136.877 174.477C136.04 174.477 135.367 174.172 134.859 173.563C134.355 172.949 134.104 172.046 134.104 170.853C134.104 169.646 134.36 168.735 134.872 168.117C135.388 167.499 136.067 167.19 136.909 167.19C137.265 167.19 137.576 167.239 137.842 167.336C138.109 167.429 138.337 167.556 138.528 167.717C138.722 167.878 138.888 168.057 139.023 168.256H139.093C139.072 168.125 139.046 167.937 139.017 167.691C138.991 167.442 138.979 167.211 138.979 167V164.473H140.477V174.35H139.309L139.042 173.392H138.979C138.852 173.595 138.691 173.779 138.496 173.944C138.306 174.105 138.077 174.234 137.811 174.331C137.548 174.428 137.237 174.477 136.877 174.477ZM137.296 173.265C137.935 173.265 138.386 173.081 138.648 172.712C138.911 172.344 139.046 171.792 139.055 171.056V170.859C139.055 170.072 138.928 169.469 138.674 169.05C138.42 168.627 137.957 168.415 137.284 168.415C136.746 168.415 136.336 168.633 136.052 169.069C135.773 169.5 135.633 170.104 135.633 170.878C135.633 171.652 135.773 172.245 136.052 172.655C136.336 173.062 136.75 173.265 137.296 173.265Z" fill="white"/>
<rect x="111.58" y="-0.000366211" width="169.793" height="285.506" rx="30" fill="#F2F2F2"/>
<path d="M111.58 29.9996C111.58 13.4311 125.011 -0.000366211 141.58 -0.000366211H251.372C267.941 -0.000366211 281.372 13.4311 281.372 29.9996V70.3821H111.58V29.9996Z" fill="#0066FF"/>
<path d="M140 37.9996H202.032M140 44.7595H175.763" stroke="#918EFF" stroke-width="5" stroke-linecap="round"/>
<rect x="247.176" y="33.7992" width="21.075" height="21.075" rx="10.5375" fill="white"/>
<path d="M257.923 43.5768L260.102 41.3979L261.072 42.3675L258.893 44.5464L261.094 46.747L260.124 47.7166L257.923 45.516L255.75 47.6894L254.78 46.7198L256.954 44.5464L254.731 42.324L255.701 41.3544L257.923 43.5768Z" fill="#263238"/>
<path d="M148.441 17.5748L146.763 23.9996H145.611L144.539 20.15C144.513 20.0563 144.483 19.9449 144.451 19.816C144.419 19.6871 144.387 19.5553 144.354 19.4205C144.325 19.2858 144.299 19.1627 144.275 19.0514C144.255 18.9371 144.24 18.8492 144.231 18.7877C144.226 18.8492 144.212 18.9357 144.192 19.047C144.171 19.1583 144.146 19.2814 144.117 19.4161C144.091 19.548 144.062 19.6798 144.029 19.8116C143.997 19.9406 143.968 20.0548 143.941 20.1544L142.887 23.9996H141.74L140.065 17.5748H141.125L142.052 21.3409C142.081 21.4611 142.11 21.5914 142.14 21.7321C142.172 21.8698 142.201 22.0089 142.228 22.1495C142.257 22.2902 142.283 22.4279 142.307 22.5626C142.33 22.6945 142.349 22.8146 142.364 22.923C142.378 22.8116 142.397 22.6886 142.421 22.5538C142.444 22.4161 142.469 22.277 142.496 22.1364C142.525 21.9928 142.554 21.8551 142.583 21.7233C142.616 21.5914 142.648 21.4728 142.68 21.3673L143.726 17.5748H144.754L145.822 21.3805C145.854 21.4889 145.885 21.6105 145.915 21.7452C145.947 21.88 145.978 22.0177 146.007 22.1583C146.036 22.299 146.062 22.4352 146.086 22.567C146.109 22.6989 146.128 22.8175 146.143 22.923C146.164 22.7794 146.19 22.6154 146.222 22.4308C146.254 22.2462 146.291 22.0587 146.332 21.8683C146.373 21.6779 146.414 21.5021 146.455 21.3409L147.378 17.5748H148.441ZM150.278 19.1349V23.9996H149.246V19.1349H150.278ZM149.769 17.2716C149.927 17.2716 150.063 17.3141 150.177 17.399C150.294 17.484 150.353 17.6305 150.353 17.8385C150.353 18.0436 150.294 18.1901 150.177 18.278C150.063 18.3629 149.927 18.4054 149.769 18.4054C149.604 18.4054 149.465 18.3629 149.351 18.278C149.24 18.1901 149.184 18.0436 149.184 17.8385C149.184 17.6305 149.24 17.484 149.351 17.399C149.465 17.3141 149.604 17.2716 149.769 17.2716ZM153.57 23.2526C153.705 23.2526 153.838 23.2408 153.97 23.2174C154.102 23.191 154.222 23.1603 154.33 23.1251V23.9073C154.216 23.9572 154.068 23.9996 153.886 24.0348C153.705 24.0699 153.516 24.0875 153.319 24.0875C153.044 24.0875 152.796 24.0421 152.577 23.9513C152.357 23.8575 152.183 23.6979 152.054 23.4723C151.925 23.2467 151.86 22.9347 151.86 22.5363V19.9215H151.197V19.4601L151.909 19.0953L152.247 18.0538H152.897V19.1349H154.291V19.9215H152.897V22.5231C152.897 22.7692 152.959 22.9523 153.082 23.0724C153.205 23.1925 153.368 23.2526 153.57 23.2526ZM156.352 17.1617V18.88C156.352 19.0587 156.346 19.233 156.334 19.403C156.325 19.5729 156.315 19.7047 156.303 19.7985H156.36C156.463 19.6285 156.589 19.4894 156.738 19.381C156.888 19.2697 157.055 19.1862 157.239 19.1305C157.427 19.0748 157.626 19.047 157.837 19.047C158.209 19.047 158.525 19.11 158.786 19.236C159.047 19.359 159.246 19.5509 159.384 19.8116C159.524 20.0724 159.595 20.4108 159.595 20.8268V23.9996H158.562V21.0201C158.562 20.6422 158.484 20.3595 158.329 20.172C158.174 19.9816 157.934 19.8864 157.608 19.8864C157.295 19.8864 157.046 19.9523 156.861 20.0841C156.68 20.213 156.549 20.4049 156.47 20.6598C156.391 20.9117 156.352 21.2194 156.352 21.5826V23.9996H155.319V17.1617H156.352ZM162.675 24.0875C162.095 24.0875 161.629 23.8766 161.278 23.4547C160.929 23.0299 160.755 22.4044 160.755 21.5782C160.755 20.7433 160.932 20.1119 161.287 19.6842C161.644 19.2565 162.114 19.0426 162.697 19.0426C162.943 19.0426 163.159 19.0763 163.343 19.1437C163.528 19.2081 163.686 19.296 163.818 19.4073C163.953 19.5187 164.067 19.6432 164.161 19.7809H164.209C164.194 19.6901 164.177 19.5597 164.156 19.3898C164.139 19.2169 164.13 19.0573 164.13 18.9108V17.1617H165.167V23.9996H164.358L164.174 23.3361H164.13C164.042 23.4767 163.931 23.6041 163.796 23.7184C163.664 23.8297 163.506 23.9191 163.321 23.9865C163.14 24.0538 162.924 24.0875 162.675 24.0875ZM162.965 23.2482C163.408 23.2482 163.72 23.1207 163.901 22.8658C164.083 22.611 164.177 22.2286 164.183 21.7189V21.5826C164.183 21.0377 164.095 20.6202 163.919 20.3302C163.743 20.0372 163.422 19.8907 162.957 19.8907C162.584 19.8907 162.3 20.0416 162.104 20.3434C161.911 20.6422 161.814 21.0597 161.814 21.5958C161.814 22.132 161.911 22.5421 162.104 22.8263C162.3 23.1075 162.587 23.2482 162.965 23.2482ZM169.113 19.0426C169.195 19.0426 169.285 19.047 169.381 19.0558C169.478 19.0646 169.562 19.0763 169.632 19.0909L169.535 20.0577C169.474 20.0402 169.397 20.027 169.307 20.0182C169.219 20.0094 169.14 20.005 169.069 20.005C168.885 20.005 168.709 20.0358 168.542 20.0973C168.375 20.1559 168.227 20.2467 168.098 20.3698C167.969 20.4899 167.868 20.6407 167.795 20.8224C167.722 21.004 167.685 21.215 167.685 21.4552V23.9996H166.648V19.1349H167.457L167.597 19.9918H167.646C167.742 19.819 167.862 19.6608 168.006 19.5172C168.149 19.3737 168.313 19.2594 168.498 19.1744C168.686 19.0865 168.891 19.0426 169.113 19.0426ZM172.44 19.0426C173.055 19.0426 173.52 19.1788 173.833 19.4513C174.149 19.7238 174.308 20.1486 174.308 20.7257V23.9996H173.574L173.376 23.3097H173.341C173.203 23.4855 173.061 23.6305 172.915 23.7448C172.768 23.859 172.598 23.944 172.405 23.9996C172.214 24.0582 171.981 24.0875 171.706 24.0875C171.416 24.0875 171.157 24.0348 170.928 23.9293C170.7 23.8209 170.52 23.6569 170.388 23.4371C170.256 23.2174 170.19 22.9391 170.19 22.6022C170.19 22.1012 170.376 21.7247 170.748 21.4728C171.123 21.2208 171.688 21.0817 172.444 21.0553L173.288 21.0245V20.7697C173.288 20.4327 173.209 20.1925 173.051 20.049C172.896 19.9054 172.676 19.8336 172.392 19.8336C172.148 19.8336 171.913 19.8688 171.684 19.9391C171.456 20.0094 171.233 20.0958 171.016 20.1984L170.682 19.4689C170.919 19.3429 171.189 19.2404 171.491 19.1613C171.795 19.0822 172.112 19.0426 172.44 19.0426ZM173.284 21.6749L172.655 21.6969C172.14 21.7145 171.778 21.8024 171.57 21.9606C171.362 22.1188 171.258 22.3356 171.258 22.611C171.258 22.8512 171.33 23.027 171.473 23.1383C171.617 23.2467 171.806 23.3009 172.04 23.3009C172.397 23.3009 172.693 23.1998 172.928 22.9977C173.165 22.7926 173.284 22.4923 173.284 22.0968V21.6749ZM179.73 23.9952L179.115 21.7321C179.086 21.6207 179.051 21.486 179.01 21.3278C178.969 21.1696 178.928 21.007 178.887 20.84C178.846 20.67 178.808 20.5133 178.772 20.3698C178.74 20.2262 178.715 20.1149 178.698 20.0358H178.663C178.648 20.1149 178.625 20.2262 178.592 20.3698C178.56 20.5133 178.523 20.67 178.482 20.84C178.441 21.0099 178.4 21.1754 178.359 21.3365C178.321 21.4977 178.286 21.6354 178.254 21.7496L177.608 23.9952H176.474L175.112 19.1305H176.158L176.791 21.5475C176.832 21.7115 176.871 21.8888 176.909 22.0792C176.95 22.2697 176.985 22.4513 177.015 22.6241C177.044 22.797 177.066 22.9391 177.081 23.0504H177.116C177.127 22.9713 177.144 22.8717 177.164 22.7516C177.185 22.6285 177.208 22.5011 177.234 22.3693C177.261 22.2345 177.287 22.1085 177.313 21.9913C177.34 21.8712 177.365 21.7745 177.388 21.7013L178.135 19.1305H179.265L179.981 21.7013C180.013 21.8126 180.048 21.9532 180.086 22.1232C180.125 22.2902 180.158 22.4586 180.188 22.6285C180.22 22.7955 180.24 22.9347 180.249 23.046H180.284C180.296 22.9464 180.316 22.8116 180.346 22.6417C180.378 22.4689 180.415 22.2858 180.456 22.0924C180.497 21.8961 180.539 21.7145 180.583 21.5475L181.229 19.1305H182.257L180.886 23.9952H179.73Z" fill="white"/>
<rect x="120" y="104" width="136.391" height="29.8231" rx="11" fill="white"/>
<mask id="mask0_104_17124" style="mask-type:alpha" maskUnits="userSpaceOnUse" x="127" y="110" width="19" height="19">
<circle cx="136.899" cy="119.705" r="8.94693" fill="url(#paint0_linear_104_17124)"/>
</mask>
<g mask="url(#mask0_104_17124)">
</g>
<path d="M134.437 122.041V117.083H136.562V121.765C136.519 121.85 136.491 121.949 136.455 122.041H134.437ZM140.458 119.208C140.578 119.208 140.691 119.208 140.812 119.229V117.083H138.687V119.598C139.225 119.35 139.827 119.208 140.458 119.208ZM132.312 122.041V117.083H130.187V122.041H132.312ZM142.228 114.25L135.499 110.708L128.77 114.25V115.666H142.228V114.25ZM128.77 123.458V125.583H136.781C136.42 124.96 136.208 124.23 136.208 123.458H128.77ZM142.115 121.333L139.572 123.876L138.446 122.75L137.624 123.571L139.572 125.696L142.937 122.332L142.115 121.333Z" fill="#0066FF"/>
<path d="M152.606 115.928H225.374M152.606 122.688H194.559" stroke="#DCDCDC" stroke-width="5" stroke-linecap="round"/>
<rect x="127.587" y="172.281" width="135.391" height="28.8231" rx="10.5" fill="#D4E9EE" stroke="#8BBDCA" stroke-dasharray="2 2"/>
<g filter="url(#filter0_d_104_17124)">
<rect x="79.3706" y="170.985" width="136.391" height="29.8231" rx="11" fill="white"/>
<rect x="79.8706" y="171.485" width="135.391" height="28.8231" rx="10.5" stroke="#EFEFEF"/>
</g>
<path d="M114.762 182.517H187.53M114.762 189.277H156.715" stroke="#DCDCDC" stroke-width="5" stroke-linecap="round"/>
<rect x="128.281" y="231.028" width="104.182" height="4.37405" rx="2.18703" fill="#D6D6D6"/>
<rect x="128.281" y="240.174" width="62.4297" height="4.37405" rx="2.18703" fill="#E0E0E0"/>
<g filter="url(#filter1_d_104_17124)">
<rect x="102.832" y="229.437" width="17.0986" height="17.0986" rx="8.54928" fill="white"/>
<rect x="103.332" y="229.937" width="16.0986" height="16.0986" rx="8.04928" stroke="#EFEFEF"/>
</g>
<path d="M110.214 240.158V239.716C110.214 239.446 110.254 239.207 110.332 239C110.411 238.79 110.537 238.591 110.711 238.404C110.886 238.213 111.116 238.018 111.402 237.819C111.659 237.644 111.864 237.487 112.017 237.348C112.175 237.209 112.288 237.072 112.359 236.937C112.434 236.797 112.471 236.64 112.471 236.465C112.471 236.207 112.371 236.01 112.172 235.875C111.973 235.74 111.696 235.672 111.339 235.672C110.983 235.672 110.629 235.726 110.276 235.833C109.928 235.94 109.574 236.082 109.213 236.257L108.536 234.95C108.95 234.728 109.4 234.549 109.885 234.413C110.37 234.274 110.9 234.205 111.476 234.205C112.363 234.205 113.049 234.409 113.534 234.819C114.023 235.225 114.267 235.742 114.267 236.37C114.267 236.704 114.212 236.994 114.1 237.241C113.992 237.483 113.826 237.71 113.602 237.921C113.383 238.128 113.107 238.346 112.775 238.577C112.527 238.752 112.336 238.899 112.204 239.018C112.071 239.138 111.98 239.257 111.93 239.376C111.884 239.492 111.862 239.633 111.862 239.8V240.158H110.214ZM110.015 242.198C110.015 241.824 110.121 241.561 110.332 241.41C110.548 241.259 110.807 241.184 111.109 241.184C111.404 241.184 111.656 241.259 111.868 241.41C112.083 241.561 112.191 241.824 112.191 242.198C112.191 242.556 112.083 242.814 111.868 242.973C111.656 243.132 111.404 243.212 111.109 243.212C110.807 243.212 110.548 243.132 110.332 242.973C110.121 242.814 110.015 242.556 110.015 242.198Z" fill="#0066FF"/>
<g filter="url(#filter2_d_104_17124)">
<rect x="103.229" y="254.887" width="17.0986" height="17.0986" rx="8.54928" fill="white"/>
<rect x="103.729" y="255.387" width="16.0986" height="16.0986" rx="8.04928" stroke="#EFEFEF"/>
</g>
<path d="M110.213 265.264V264.783C110.213 264.488 110.253 264.228 110.331 264.002C110.41 263.772 110.536 263.555 110.711 263.351C110.885 263.143 111.115 262.93 111.401 262.714C111.658 262.523 111.863 262.351 112.016 262.199C112.174 262.048 112.288 261.898 112.358 261.75C112.433 261.599 112.47 261.427 112.47 261.236C112.47 260.954 112.37 260.74 112.171 260.592C111.973 260.445 111.695 260.371 111.338 260.371C110.982 260.371 110.628 260.429 110.275 260.547C109.927 260.664 109.573 260.818 109.212 261.009L108.535 259.584C108.949 259.341 109.399 259.145 109.884 258.998C110.369 258.846 110.899 258.77 111.475 258.77C112.362 258.77 113.048 258.994 113.533 259.44C114.022 259.883 114.266 260.447 114.266 261.132C114.266 261.497 114.211 261.813 114.099 262.082C113.991 262.347 113.825 262.594 113.601 262.824C113.382 263.05 113.106 263.288 112.774 263.54C112.526 263.731 112.335 263.891 112.203 264.022C112.07 264.152 111.979 264.282 111.929 264.412C111.883 264.538 111.861 264.692 111.861 264.874V265.264H110.213ZM110.014 267.49C110.014 267.082 110.12 266.796 110.331 266.631C110.547 266.466 110.806 266.384 111.108 266.384C111.403 266.384 111.655 266.466 111.867 266.631C112.082 266.796 112.19 267.082 112.19 267.49C112.19 267.88 112.082 268.162 111.867 268.336C111.655 268.509 111.403 268.596 111.108 268.596C110.806 268.596 110.547 268.509 110.331 268.336C110.12 268.162 110.014 267.88 110.014 267.49Z" fill="#0066FF"/>
<path d="M258.708 240.174L261.492 237.191L258.708 234.209" stroke="black" stroke-width="2.5" stroke-linecap="round" stroke-linejoin="round"/>
<rect x="129.076" y="256.082" width="104.182" height="4.37405" rx="2.18703" fill="#D6D6D6"/>
<rect x="129.076" y="265.229" width="62.4297" height="4.37405" rx="2.18703" fill="#E0E0E0"/>
<path d="M259.501 265.229L262.285 262.246L259.501 259.264" stroke="black" stroke-width="2.5" stroke-linecap="round" stroke-linejoin="round"/>
<g filter="url(#filter3_d_104_17124)">
<rect x="225.703" y="159.852" width="136.391" height="156.273" rx="11" fill="white"/>
<rect x="226.203" y="160.352" width="135.391" height="155.273" rx="10.5" stroke="#EFEFEF"/>
</g>
<rect x="332.667" y="267.215" width="13.1222" height="13.1222" rx="6.56108" fill="#AFADFF"/>
<rect x="264.274" y="288.688" width="62.4297" height="2.78349" rx="1.39174" fill="#FF3D6B" fill-opacity="0.53"/>
<rect x="264.274" y="294.652" width="21.075" height="2.78349" rx="1.39174" fill="#FF3D6B" fill-opacity="0.45"/>
<rect x="238.825" y="185.698" width="106.965" height="73.9613" rx="11" fill="#0066FF"/>
<path d="M267.553 224.25C267.553 224.631 267.459 224.959 267.271 225.235C267.087 225.51 266.82 225.721 266.472 225.867C266.126 226.014 265.713 226.087 265.232 226.087C264.998 226.087 264.774 226.074 264.56 226.048C264.346 226.021 264.144 225.983 263.954 225.933C263.766 225.881 263.595 225.818 263.439 225.744V224.751C263.7 224.865 263.992 224.969 264.314 225.063C264.636 225.154 264.964 225.199 265.298 225.199C265.571 225.199 265.796 225.164 265.975 225.094C266.157 225.021 266.292 224.918 266.379 224.786C266.467 224.652 266.511 224.495 266.511 224.316C266.511 224.126 266.46 223.965 266.357 223.833C266.255 223.701 266.1 223.581 265.892 223.472C265.687 223.361 265.429 223.242 265.118 223.116C264.907 223.031 264.705 222.935 264.512 222.826C264.321 222.718 264.151 222.591 264.002 222.444C263.853 222.298 263.734 222.125 263.646 221.926C263.561 221.723 263.519 221.486 263.519 221.214C263.519 220.85 263.605 220.54 263.778 220.282C263.954 220.024 264.2 219.826 264.516 219.689C264.835 219.551 265.208 219.482 265.632 219.482C265.969 219.482 266.286 219.517 266.582 219.588C266.88 219.658 267.173 219.758 267.46 219.886L267.126 220.735C266.863 220.626 266.606 220.54 266.357 220.475C266.111 220.411 265.859 220.379 265.602 220.379C265.379 220.379 265.19 220.412 265.035 220.48C264.879 220.547 264.761 220.642 264.679 220.765C264.6 220.885 264.56 221.029 264.56 221.196C264.56 221.384 264.605 221.542 264.696 221.671C264.79 221.797 264.934 221.912 265.127 222.018C265.323 222.123 265.575 222.24 265.883 222.369C266.237 222.516 266.538 222.67 266.784 222.831C267.033 222.992 267.223 223.185 267.355 223.411C267.487 223.634 267.553 223.913 267.553 224.25ZM270.594 221.042C271.209 221.042 271.673 221.178 271.987 221.451C272.303 221.723 272.461 222.148 272.461 222.725V225.999H271.728L271.53 225.309H271.495C271.357 225.485 271.215 225.63 271.068 225.744C270.922 225.859 270.752 225.944 270.559 225.999C270.368 226.058 270.135 226.087 269.86 226.087C269.57 226.087 269.311 226.034 269.082 225.929C268.854 225.821 268.673 225.656 268.542 225.437C268.41 225.217 268.344 224.939 268.344 224.602C268.344 224.101 268.53 223.724 268.902 223.472C269.277 223.22 269.842 223.081 270.598 223.055L271.442 223.024V222.769C271.442 222.432 271.363 222.192 271.205 222.049C271.049 221.905 270.83 221.833 270.545 221.833C270.302 221.833 270.066 221.868 269.838 221.939C269.609 222.009 269.387 222.095 269.17 222.198L268.836 221.469C269.073 221.343 269.343 221.24 269.645 221.161C269.949 221.082 270.266 221.042 270.594 221.042ZM271.438 223.675L270.809 223.697C270.293 223.714 269.932 223.802 269.724 223.96C269.516 224.118 269.412 224.335 269.412 224.611C269.412 224.851 269.483 225.027 269.627 225.138C269.771 225.246 269.959 225.301 270.194 225.301C270.551 225.301 270.847 225.199 271.082 224.997C271.319 224.792 271.438 224.492 271.438 224.096V223.675ZM276.337 221.921H275.155V225.999H274.123V221.921H273.327V221.425L274.123 221.121V220.783C274.123 220.37 274.187 220.042 274.316 219.799C274.448 219.555 274.635 219.381 274.878 219.276C275.125 219.167 275.417 219.113 275.757 219.113C275.98 219.113 276.184 219.132 276.368 219.17C276.553 219.205 276.708 219.246 276.834 219.293L276.566 220.075C276.466 220.043 276.355 220.014 276.232 219.988C276.109 219.958 275.977 219.944 275.836 219.944C275.602 219.944 275.429 220.017 275.318 220.163C275.209 220.31 275.155 220.524 275.155 220.805V221.135H276.337V221.921ZM279.106 221.042C279.54 221.042 279.912 221.132 280.222 221.31C280.533 221.489 280.771 221.742 280.938 222.071C281.105 222.399 281.189 222.791 281.189 223.248V223.802H277.941C277.953 224.274 278.079 224.637 278.319 224.892C278.562 225.147 278.902 225.274 279.339 225.274C279.649 225.274 279.928 225.245 280.174 225.186C280.423 225.125 280.679 225.035 280.943 224.918V225.758C280.7 225.872 280.452 225.955 280.2 226.008C279.948 226.061 279.646 226.087 279.295 226.087C278.817 226.087 278.397 225.995 278.034 225.81C277.673 225.623 277.391 225.344 277.186 224.975C276.983 224.606 276.882 224.148 276.882 223.6C276.882 223.055 276.975 222.592 277.159 222.211C277.344 221.83 277.603 221.54 277.937 221.341C278.271 221.142 278.661 221.042 279.106 221.042ZM279.106 221.82C278.781 221.82 278.517 221.926 278.315 222.136C278.116 222.347 277.999 222.656 277.963 223.064H280.178C280.175 222.821 280.134 222.605 280.055 222.418C279.979 222.23 279.862 222.084 279.704 221.978C279.548 221.873 279.349 221.82 279.106 221.82ZM286.599 221.042C287.214 221.042 287.678 221.178 287.992 221.451C288.308 221.723 288.466 222.148 288.466 222.725V225.999H287.732L287.535 225.309H287.5C287.362 225.485 287.22 225.63 287.073 225.744C286.927 225.859 286.757 225.944 286.563 225.999C286.373 226.058 286.14 226.087 285.865 226.087C285.575 226.087 285.315 226.034 285.087 225.929C284.858 225.821 284.678 225.656 284.546 225.437C284.415 225.217 284.349 224.939 284.349 224.602C284.349 224.101 284.535 223.724 284.907 223.472C285.282 223.22 285.847 223.081 286.603 223.055L287.447 223.024V222.769C287.447 222.432 287.368 222.192 287.209 222.049C287.054 221.905 286.834 221.833 286.55 221.833C286.307 221.833 286.071 221.868 285.843 221.939C285.614 222.009 285.392 222.095 285.175 222.198L284.841 221.469C285.078 221.343 285.348 221.24 285.649 221.161C285.954 221.082 286.271 221.042 286.599 221.042ZM287.442 223.675L286.814 223.697C286.298 223.714 285.937 223.802 285.729 223.96C285.521 224.118 285.417 224.335 285.417 224.611C285.417 224.851 285.488 225.027 285.632 225.138C285.775 225.246 285.964 225.301 286.199 225.301C286.556 225.301 286.852 225.199 287.086 224.997C287.324 224.792 287.442 224.492 287.442 224.096V223.675ZM292.448 221.042C292.996 221.042 293.422 221.184 293.727 221.469C294.034 221.75 294.188 222.202 294.188 222.826V225.999H293.155V223.02C293.155 222.642 293.078 222.359 292.922 222.172C292.767 221.981 292.527 221.886 292.202 221.886C291.73 221.886 291.402 222.031 291.217 222.321C291.036 222.611 290.945 223.031 290.945 223.582V225.999H289.912V221.135H290.716L290.861 221.794H290.918C291.024 221.624 291.154 221.485 291.31 221.376C291.468 221.265 291.644 221.181 291.837 221.126C292.033 221.07 292.237 221.042 292.448 221.042ZM297.269 226.087C296.688 226.087 296.223 225.876 295.871 225.454C295.522 225.03 295.348 224.404 295.348 223.578C295.348 222.743 295.525 222.112 295.88 221.684C296.237 221.256 296.708 221.042 297.291 221.042C297.537 221.042 297.752 221.076 297.937 221.143C298.121 221.208 298.279 221.296 298.411 221.407C298.546 221.518 298.66 221.643 298.754 221.781H298.802C298.788 221.69 298.77 221.559 298.75 221.389C298.732 221.217 298.723 221.057 298.723 220.91V219.161H299.76V225.999H298.952L298.767 225.336H298.723C298.635 225.476 298.524 225.604 298.389 225.718C298.257 225.829 298.099 225.919 297.915 225.986C297.733 226.053 297.518 226.087 297.269 226.087ZM297.559 225.248C298.001 225.248 298.313 225.12 298.495 224.865C298.676 224.611 298.77 224.228 298.776 223.719V223.582C298.776 223.037 298.688 222.62 298.512 222.33C298.336 222.037 298.016 221.89 297.55 221.89C297.178 221.89 296.894 222.041 296.697 222.343C296.504 222.642 296.407 223.059 296.407 223.595C296.407 224.132 296.504 224.542 296.697 224.826C296.894 225.107 297.181 225.248 297.559 225.248ZM306.009 221.921H304.827V225.999H303.794V221.921H302.999V221.425L303.794 221.121V220.783C303.794 220.37 303.859 220.042 303.988 219.799C304.12 219.555 304.307 219.381 304.55 219.276C304.796 219.167 305.089 219.113 305.429 219.113C305.652 219.113 305.855 219.132 306.04 219.17C306.225 219.205 306.38 219.246 306.506 219.293L306.238 220.075C306.138 220.043 306.027 220.014 305.904 219.988C305.781 219.958 305.649 219.944 305.508 219.944C305.274 219.944 305.101 220.017 304.99 220.163C304.881 220.31 304.827 220.524 304.827 220.805V221.135H306.009V221.921ZM308.747 221.042C309.362 221.042 309.827 221.178 310.14 221.451C310.457 221.723 310.615 222.148 310.615 222.725V225.999H309.881L309.683 225.309H309.648C309.51 225.485 309.368 225.63 309.222 225.744C309.075 225.859 308.905 225.944 308.712 225.999C308.521 226.058 308.289 226.087 308.013 226.087C307.723 226.087 307.464 226.034 307.235 225.929C307.007 225.821 306.827 225.656 306.695 225.437C306.563 225.217 306.497 224.939 306.497 224.602C306.497 224.101 306.683 223.724 307.055 223.472C307.43 223.22 307.996 223.081 308.751 223.055L309.595 223.024V222.769C309.595 222.432 309.516 222.192 309.358 222.049C309.203 221.905 308.983 221.833 308.699 221.833C308.456 221.833 308.22 221.868 307.991 221.939C307.763 222.009 307.54 222.095 307.323 222.198L306.989 221.469C307.227 221.343 307.496 221.24 307.798 221.161C308.103 221.082 308.419 221.042 308.747 221.042ZM309.591 223.675L308.962 223.697C308.447 223.714 308.085 223.802 307.877 223.96C307.669 224.118 307.565 224.335 307.565 224.611C307.565 224.851 307.637 225.027 307.78 225.138C307.924 225.246 308.113 225.301 308.347 225.301C308.705 225.301 309 225.199 309.235 224.997C309.472 224.792 309.591 224.492 309.591 224.096V223.675ZM315.33 224.611C315.33 224.93 315.252 225.199 315.097 225.419C314.942 225.639 314.715 225.806 314.416 225.92C314.12 226.031 313.757 226.087 313.326 226.087C312.986 226.087 312.693 226.062 312.447 226.012C312.204 225.966 311.974 225.892 311.757 225.793V224.901C311.989 225.009 312.248 225.103 312.535 225.182C312.825 225.261 313.099 225.301 313.357 225.301C313.697 225.301 313.941 225.248 314.091 225.142C314.24 225.034 314.315 224.89 314.315 224.712C314.315 224.606 314.284 224.512 314.223 224.43C314.164 224.345 314.053 224.259 313.889 224.171C313.728 224.08 313.49 223.972 313.177 223.846C312.869 223.723 312.61 223.6 312.399 223.477C312.188 223.354 312.028 223.206 311.92 223.033C311.812 222.857 311.757 222.633 311.757 222.361C311.757 221.93 311.927 221.603 312.267 221.381C312.61 221.155 313.062 221.042 313.625 221.042C313.924 221.042 314.205 221.073 314.469 221.135C314.735 221.193 314.996 221.28 315.251 221.394L314.926 222.172C314.706 222.075 314.485 221.996 314.262 221.934C314.042 221.87 313.818 221.838 313.59 221.838C313.323 221.838 313.12 221.879 312.979 221.961C312.841 222.043 312.772 222.16 312.772 222.312C312.772 222.427 312.806 222.523 312.874 222.602C312.941 222.681 313.057 222.76 313.221 222.84C313.388 222.919 313.619 223.017 313.915 223.134C314.205 223.245 314.456 223.363 314.667 223.486C314.88 223.606 315.044 223.754 315.159 223.929C315.273 224.105 315.33 224.332 315.33 224.611ZM318.257 225.252C318.392 225.252 318.525 225.24 318.657 225.217C318.789 225.191 318.909 225.16 319.017 225.125V225.907C318.903 225.957 318.755 225.999 318.573 226.034C318.392 226.07 318.203 226.087 318.006 226.087C317.731 226.087 317.483 226.042 317.264 225.951C317.044 225.857 316.87 225.698 316.741 225.472C316.612 225.246 316.547 224.934 316.547 224.536V221.921H315.884V221.46L316.596 221.095L316.934 220.053H317.584V221.135H318.978V221.921H317.584V224.523C317.584 224.769 317.646 224.952 317.769 225.072C317.892 225.192 318.055 225.252 318.257 225.252Z" fill="white"/>
<path d="M241.212 269.602H313.981M241.212 276.362H283.166" stroke="#9FE870" stroke-width="5" stroke-linecap="round"/>
<path fill-rule="evenodd" clip-rule="evenodd" d="M106.767 104.966V104.965C106.728 104.968 106.526 104.982 106.075 104.982C105.715 104.982 105.462 104.97 105.373 104.965V104.966C103.988 104.9 102.955 104.639 102.955 104.325C102.955 104.012 103.988 103.751 105.373 103.683V104.706C105.464 104.713 105.723 104.729 106.081 104.729C106.511 104.729 106.727 104.71 106.767 104.706V103.684C108.149 103.751 109.18 104.013 109.18 104.325C109.18 104.639 108.149 104.9 106.767 104.966ZM106.767 103.578V102.663H108.695V101.268H103.445V102.663H105.373V103.577C103.806 103.656 102.627 103.993 102.627 104.396C102.627 104.8 103.806 105.137 105.373 105.216V108.147H106.767V105.215C108.331 105.137 109.507 104.8 109.507 104.396C109.507 103.993 108.331 103.656 106.767 103.578Z" fill="white"/>
<defs>
<filter id="filter0_d_104_17124" x="0.370605" y="131.985" width="258.391" height="151.823" filterUnits="userSpaceOnUse" color-interpolation-filters="sRGB">
<feFlood flood-opacity="0" result="BackgroundImageFix"/>
<feColorMatrix in="SourceAlpha" type="matrix" values="0 0 0 0 0 0 0 0 0 0 0 0 0 0 0 0 0 0 127 0" result="hardAlpha"/>
<feOffset dx="-18" dy="22"/>
<feGaussianBlur stdDeviation="30.5"/>
<feComposite in2="hardAlpha" operator="out"/>
<feColorMatrix type="matrix" values="0 0 0 0 0.629167 0 0 0 0 0.629167 0 0 0 0 0.629167 0 0 0 0.25 0"/>
<feBlend mode="normal" in2="BackgroundImageFix" result="effect1_dropShadow_104_17124"/>
<feBlend mode="normal" in="SourceGraphic" in2="effect1_dropShadow_104_17124" result="shape"/>
</filter>
<filter id="filter1_d_104_17124" x="23.832" y="190.437" width="139.099" height="139.099" filterUnits="userSpaceOnUse" color-interpolation-filters="sRGB">
<feFlood flood-opacity="0" result="BackgroundImageFix"/>
<feColorMatrix in="SourceAlpha" type="matrix" values="0 0 0 0 0 0 0 0 0 0 0 0 0 0 0 0 0 0 127 0" result="hardAlpha"/>
<feOffset dx="-18" dy="22"/>
<feGaussianBlur stdDeviation="30.5"/>
<feComposite in2="hardAlpha" operator="out"/>
<feColorMatrix type="matrix" values="0 0 0 0 0.629167 0 0 0 0 0.629167 0 0 0 0 0.629167 0 0 0 0.25 0"/>
<feBlend mode="normal" in2="BackgroundImageFix" result="effect1_dropShadow_104_17124"/>
<feBlend mode="normal" in="SourceGraphic" in2="effect1_dropShadow_104_17124" result="shape"/>
</filter>
<filter id="filter2_d_104_17124" x="24.2285" y="215.887" width="139.099" height="139.099" filterUnits="userSpaceOnUse" color-interpolation-filters="sRGB">
<feFlood flood-opacity="0" result="BackgroundImageFix"/>
<feColorMatrix in="SourceAlpha" type="matrix" values="0 0 0 0 0 0 0 0 0 0 0 0 0 0 0 0 0 0 127 0" result="hardAlpha"/>
<feOffset dx="-18" dy="22"/>
<feGaussianBlur stdDeviation="30.5"/>
<feComposite in2="hardAlpha" operator="out"/>
<feColorMatrix type="matrix" values="0 0 0 0 0.629167 0 0 0 0 0.629167 0 0 0 0 0.629167 0 0 0 0.25 0"/>
<feBlend mode="normal" in2="BackgroundImageFix" result="effect1_dropShadow_104_17124"/>
<feBlend mode="normal" in="SourceGraphic" in2="effect1_dropShadow_104_17124" result="shape"/>
</filter>
<filter id="filter3_d_104_17124" x="146.703" y="120.852" width="258.391" height="278.273" filterUnits="userSpaceOnUse" color-interpolation-filters="sRGB">
<feFlood flood-opacity="0" result="BackgroundImageFix"/>
<feColorMatrix in="SourceAlpha" type="matrix" values="0 0 0 0 0 0 0 0 0 0 0 0 0 0 0 0 0 0 127 0" result="hardAlpha"/>
<feOffset dx="-18" dy="22"/>
<feGaussianBlur stdDeviation="30.5"/>
<feComposite in2="hardAlpha" operator="out"/>
<feColorMatrix type="matrix" values="0 0 0 0 0.629167 0 0 0 0 0.629167 0 0 0 0 0.629167 0 0 0 0.25 0"/>
<feBlend mode="normal" in2="BackgroundImageFix" result="effect1_dropShadow_104_17124"/>
<feBlend mode="normal" in="SourceGraphic" in2="effect1_dropShadow_104_17124" result="shape"/>
</filter>
<linearGradient id="paint0_linear_104_17124" x1="127.952" y1="112.101" x2="146.964" y2="131.56" gradientUnits="userSpaceOnUse">
<stop stop-color="#FF4747"/>
<stop offset="1" stop-color="#FF65CB"/>
</linearGradient>
</defs>
</svg>
