<svg width="70" height="83" viewBox="0 0 70 83" fill="none" xmlns="http://www.w3.org/2000/svg">
<path d="M25.3862 16.9714L0 60.144L20.0039 82.9994H27.5274L38.5261 70.1981H26.3053L15.5306 58.2141L32.7925 28.8562L25.3862 16.9714Z" fill="#0066FF"/>
<path d="M35.6756 41.5367C35.7099 41.5367 35.7651 41.6324 35.8274 41.7784L35.9247 42.0297C35.9413 42.076 35.9579 42.124 35.9743 42.1731L36.0688 42.474C36.0837 42.5244 36.0979 42.5743 36.1113 42.6232L36.1804 42.8975C36.2084 43.0225 36.2252 43.1249 36.2252 43.1856L36.2224 43.2423C36.5266 43.3072 36.8053 43.4252 37.0544 43.5844C37.0636 43.5152 37.0863 43.4466 37.1233 43.3824C37.1638 43.3123 37.2672 43.193 37.3993 43.0569L37.6145 42.8444L37.8469 42.631L38.0707 42.4412C38.2465 42.2995 38.3865 42.2078 38.4237 42.2292C38.4683 42.255 38.4458 42.4905 38.393 42.7807L38.3314 43.0834L38.2579 43.388L38.1805 43.6602C38.1422 43.7824 38.1056 43.8794 38.0753 43.932C37.9963 44.0688 37.8674 44.1588 37.7249 44.1923C38.1726 44.7527 38.4237 45.4822 38.4237 46.2085C38.4237 46.645 38.3395 47.0654 38.1839 47.4475C38.1097 47.6295 37.9924 47.7809 37.8485 47.8947L37.7359 47.9729L37.7556 47.9768C38.7262 48.1709 39.4399 48.9865 39.5162 49.9594L39.523 50.1326V52.0739L39.8449 51.7519C40.2742 51.3227 40.9702 51.3227 41.3995 51.7519C41.7957 52.1482 41.8262 52.7717 41.4909 53.2029L41.3995 53.3065L39.523 55.183V58.0255C40.0867 58.0255 40.5513 58.4498 40.6148 58.9965L40.6222 59.1247V61.3232C41.2293 61.3232 41.7215 61.8154 41.7215 62.4225C41.7215 62.9862 41.2971 63.4508 40.7504 63.5143L40.6222 63.5217H30.729C30.1219 63.5217 29.6297 63.0296 29.6297 62.4225C29.6297 61.8587 30.0541 61.3941 30.6008 61.3306L30.729 61.3232V59.1247C30.729 58.561 31.1533 58.0964 31.7 58.0329L31.8282 58.0255V54.0838L29.9517 52.2072C29.7799 52.0355 29.6708 51.8127 29.6392 51.5745L29.6297 51.43V44.6874C29.3011 44.4973 29.0801 44.1421 29.0801 43.7352C29.0801 43.1715 29.5044 42.7068 30.0511 42.6433L30.1793 42.636H31.2786C31.8857 42.636 32.3778 43.1281 32.3778 43.7352C32.3778 43.8848 32.3479 44.0274 32.2938 44.1574L32.2318 44.283L32.9615 45.7425C33.0442 45.1771 33.2746 44.6325 33.6263 44.1923C33.4838 44.1588 33.3548 44.0688 33.2759 43.932C33.2456 43.8794 33.2089 43.7824 33.1707 43.6602L33.0933 43.388L33.0197 43.0834L32.9582 42.7807C32.9053 42.4905 32.8828 42.255 32.9274 42.2292C32.9646 42.2078 33.1047 42.2995 33.2804 42.4412L33.5043 42.631L33.7367 42.8444L33.9519 43.0569C34.084 43.193 34.1874 43.3123 34.2279 43.3824C34.2649 43.4466 34.2876 43.5152 34.2968 43.5844C34.5459 43.4252 34.8245 43.3072 35.1288 43.2423L35.126 43.1856C35.126 43.1249 35.1428 43.0225 35.1708 42.8975L35.2398 42.6232L35.3284 42.3226C35.3601 42.2218 35.3933 42.1223 35.4265 42.0297L35.5238 41.7784C35.5861 41.6324 35.6412 41.5367 35.6756 41.5367ZM38.4237 60.224H32.9275V61.3232H38.4237V60.224ZM37.3245 51.3357L34.0267 54.6334V58.0255H37.3245V51.3357ZM31.8282 48.3917V50.9747L33.2023 52.3487L35.736 49.8149L32.7119 49.2101C32.2525 49.1182 32.0217 48.7787 31.8282 48.3917ZM35.6756 45.3841C35.5839 45.3841 35.4633 45.4247 35.3443 45.5636C35.2232 45.7049 35.126 45.9295 35.126 46.2085C35.126 46.3109 35.1392 46.4067 35.1621 46.494L35.2035 46.6184C35.3188 46.9014 35.3074 47.2045 35.1962 47.4649L36.2779 47.6813C36.0882 47.421 36.0167 47.0826 36.1016 46.7569L36.1477 46.6184C36.1955 46.5008 36.2252 46.3621 36.2252 46.2085C36.2252 45.9295 36.1279 45.7049 36.0069 45.5636C35.8879 45.4247 35.7673 45.3841 35.6756 45.3841ZM30.729 38.7886C30.9007 38.7886 31.8282 40.38 31.8282 40.9871C31.8282 41.5942 31.3361 42.0863 30.729 42.0863C30.1219 42.0863 29.6297 41.5942 29.6297 40.9871C29.6297 40.38 30.5572 38.7886 30.729 38.7886Z" fill="#0066FF"/>
<path d="M34.4293 0L26.9746 12.399L53.8859 58.5173L32.0539 82.9997C32.0539 82.9997 49.2139 82.8978 49.1121 82.9997C49.0103 83.1015 69.5234 59.9405 69.5234 59.9405L34.4293 0Z" fill="url(#paint0_linear_104_13549)"/>
<defs>
<linearGradient id="paint0_linear_104_13549" x1="26.9746" y1="58.7917" x2="86.8682" y2="63.0955" gradientUnits="userSpaceOnUse">
<stop stop-color="#319CFF"/>
<stop offset="0.275793" stop-color="#AED8FF"/>
<stop offset="0.916667" stop-color="#0B86F8"/>
</linearGradient>
</defs>
</svg>
